<?xml version="1.0" encoding="utf-8"?>
<!-- Generator: Adobe Illustrator 16.0.4, SVG Export Plug-In . SVG Version: 6.00 Build 0)  -->
<!DOCTYPE svg PUBLIC "-//W3C//DTD SVG 1.1//EN" "http://www.w3.org/Graphics/SVG/1.1/DTD/svg11.dtd">
<svg version="1.1" id="Layer_1" xmlns="http://www.w3.org/2000/svg" xmlns:xlink="http://www.w3.org/1999/xlink" x="0px" y="0px"
	 width="311px" height="243px" viewBox="0 0 311 243" enable-background="new 0 0 311 243" xml:space="preserve">
<g opacity="0.15">
	<path fill-rule="evenodd" clip-rule="evenodd" d="M244.728,48.19c24.637,20.739,37.843,46.4,39.626,76.987
		c1.741,30.592-8.333,54.431-30.192,71.521c-21.909,17.086-53.358,26.885-94.35,29.395c-40.997,2.501-74.333-3.704-100.017-18.62
		c-25.682-14.914-36.525-40.249-32.536-76.006c3.989-35.759,18.157-63.654,42.491-83.684c24.379-20.029,53.466-30.151,87.261-30.375
		C190.809,17.192,220.048,27.451,244.728,48.19z"/>
</g>
<g>
	<g>
		<path fill-rule="evenodd" clip-rule="evenodd" fill="#6EDB9E" d="M239.97,41.799c23.657,19.545,36.331,43.72,38.041,72.548
			c1.669,28.82-7.99,51.284-28.982,67.394c-21.032,16.094-51.229,25.334-90.574,27.693c-39.365,2.359-71.365-3.488-96.016-17.546
			c-24.66-14.05-35.07-37.923-31.238-71.615c3.828-33.7,17.429-59.985,40.789-78.859c23.411-18.872,51.333-28.412,83.776-28.618
			C188.204,12.593,216.276,22.26,239.97,41.799z"/>
	</g>
</g>
</svg>
