<?xml version="1.0" encoding="utf-8"?>
<!-- Generator: Adobe Illustrator 16.0.4, SVG Export Plug-In . SVG Version: 6.00 Build 0)  -->
<!DOCTYPE svg PUBLIC "-//W3C//DTD SVG 1.1//EN" "http://www.w3.org/Graphics/SVG/1.1/DTD/svg11.dtd">
<svg version="1.1" id="Layer_1" xmlns="http://www.w3.org/2000/svg" xmlns:xlink="http://www.w3.org/1999/xlink" x="0px" y="0px"
	 width="311px" height="243px" viewBox="0 0 311 243" enable-background="new 0 0 311 243" xml:space="preserve">
<g opacity="0.15">
	<path d="M244.729,48.19c24.637,20.739,37.842,46.4,39.625,76.987c1.742,30.593-8.332,54.431-30.191,71.521
		c-21.909,17.086-53.357,26.885-94.35,29.395c-40.998,2.501-74.333-3.704-100.018-18.62c-25.682-14.914-36.525-40.248-32.536-76.006
		c3.989-35.759,18.157-63.654,42.491-83.684c24.379-20.029,53.466-30.151,87.262-30.375
		C190.809,17.192,220.048,27.451,244.729,48.19z"/>
</g>
<g>
	<g>
		<path fill="#5FE1EB" d="M239.971,41.799c23.656,19.545,36.33,43.72,38.04,72.548c1.669,28.82-7.989,51.284-28.981,67.394
			c-21.032,16.094-51.229,25.334-90.574,27.692c-39.365,2.359-71.365-3.488-96.016-17.545c-24.66-14.051-35.07-37.924-31.238-71.616
			c3.828-33.7,17.429-59.985,40.789-78.859c23.411-18.872,51.333-28.412,83.776-28.618C188.204,12.593,216.275,22.26,239.971,41.799
			z"/>
	</g>
</g>
</svg>
