<?xml version="1.0" encoding="utf-8"?>
<!-- Generator: Adobe Illustrator 14.0.0, SVG Export Plug-In . SVG Version: 6.00 Build 43363)  -->
<!DOCTYPE svg PUBLIC "-//W3C//DTD SVG 1.1//EN" "http://www.w3.org/Graphics/SVG/1.1/DTD/svg11.dtd">
<svg version="1.1" id="Layer_1" xmlns="http://www.w3.org/2000/svg" xmlns:xlink="http://www.w3.org/1999/xlink" x="0px" y="0px"
	 width="459.758px" height="214.239px" viewBox="0 0 459.758 214.239" enable-background="new 0 0 459.758 214.239"
	 xml:space="preserve">
<polyline fill="none" stroke="#FFFFFF" stroke-miterlimit="10" points="50.832,124.331 5.011,123.76 6.333,176.114 75.667,176.682 
	74.989,166.862 65.496,167.146 66.886,214.239 "/>
<polyline fill="#23C2F2" points="42.268,108.931 46.677,136.122 125.31,160.372 191.449,108.931 194.389,80.27 "/>
<polyline fill="#23C2F2" points="43.002,110.4 48.881,149.35 53.025,149.35 55.23,132.59 "/>
<polygon fill="#23C2F2" points="119.696,146.35 121.9,170.661 127.514,170.661 129.719,145.614 "/>
<polygon fill="#23C2F2" points="193.654,82.475 189.245,128.038 184.835,128.038 183.365,109.665 "/>
<g enable-background="new    ">
	<path fill="#FFFFFF" d="M267.842,72.851c-1.014,0.8-2.16,1.52-3.439,2.159c-1.28,0.641-2.6,1.2-3.961,1.681
		c-1.359,0.479-2.747,0.853-4.159,1.12c-1.414,0.266-2.761,0.399-4.04,0.399c-5.28,0-9.828-0.533-13.641-1.6
		c-3.813-1.066-6.947-2.772-9.399-5.12c-2.454-2.347-4.268-5.426-5.44-9.24c-1.174-3.812-1.76-8.492-1.76-14.04
		c0-4.052,0.76-7.72,2.28-11c1.52-3.279,3.572-6.066,6.159-8.359s5.587-4.066,9-5.32c3.413-1.253,7.014-1.88,10.801-1.88
		c2.88,0,5.772,0.214,8.68,0.64c2.906,0.428,5.613,0.987,8.12,1.681c-0.427,2.88-0.96,5.8-1.601,8.76
		c-0.639,2.96-1.439,5.827-2.399,8.6c-1.708-0.853-3.427-1.6-5.16-2.24c-1.733-0.64-3.534-0.96-5.399-0.96
		c-3.468,0-6.32,0.935-8.561,2.801c-2.24,1.867-3.359,4.693-3.359,8.479c0,2.08,0.172,3.907,0.52,5.48
		c0.346,1.573,0.933,2.88,1.76,3.92c0.826,1.04,1.946,1.813,3.36,2.319c1.413,0.508,3.187,0.734,5.319,0.681h0.881v-5.84
		c-0.854-0.053-1.68-0.066-2.48-0.04c-0.8,0.027-1.654,0.094-2.561,0.199l0.16-11.359c0.906-0.106,1.906-0.173,3-0.2
		c1.094-0.026,2.094-0.04,3-0.04c2.347,0,4.613,0.027,6.801,0.08c2.186,0.054,4.452,0.188,6.8,0.399L267.842,72.851z"/>
	<path fill="#FFFFFF" d="M325.121,51.25c0,4.214-0.588,7.987-1.76,11.32c-1.174,3.334-2.908,6.16-5.2,8.479
		c-2.294,2.32-5.134,4.108-8.521,5.36c-3.387,1.253-7.293,1.88-11.719,1.88c-4.16,0-7.721-0.787-10.681-2.359
		c-2.96-1.573-5.399-3.641-7.319-6.2c-1.92-2.561-3.32-5.453-4.201-8.681c-0.879-3.226-1.319-6.466-1.319-9.72
		c0-4.479,0.652-8.572,1.96-12.28c1.307-3.706,3.12-6.88,5.439-9.52c2.32-2.64,5.107-4.68,8.36-6.12
		c3.253-1.439,6.853-2.16,10.8-2.16c4.48,0,8.267,0.8,11.36,2.4c3.093,1.6,5.587,3.773,7.479,6.52
		c1.893,2.748,3.253,5.934,4.08,9.561C324.707,43.358,325.121,47.198,325.121,51.25z M307.682,48.531c0-1.44-0.215-2.76-0.641-3.96
		c-0.428-1.2-1-2.253-1.72-3.16c-0.72-0.906-1.534-1.612-2.44-2.12c-0.907-0.506-1.84-0.76-2.8-0.76c-0.8,0-1.693,0.188-2.68,0.56
		c-0.987,0.374-1.92,0.948-2.8,1.721c-0.881,0.773-1.614,1.76-2.2,2.96c-0.587,1.2-0.88,2.627-0.88,4.279
		c0,2.08,0.227,3.841,0.68,5.28c0.453,1.44,1.053,2.614,1.801,3.521c0.746,0.907,1.611,1.56,2.6,1.96
		c0.986,0.399,2.012,0.6,3.08,0.6c1.172,0,2.252-0.292,3.24-0.88c0.986-0.586,1.84-1.372,2.56-2.36
		c0.72-0.986,1.267-2.132,1.64-3.439C307.494,51.424,307.682,50.025,307.682,48.531z"/>
	<path fill="#FFFFFF" d="M379.682,51.25c0,4.214-0.588,7.987-1.76,11.32c-1.174,3.334-2.908,6.16-5.2,8.479
		c-2.294,2.32-5.134,4.108-8.521,5.36c-3.387,1.253-7.293,1.88-11.719,1.88c-4.16,0-7.721-0.787-10.681-2.359
		c-2.96-1.573-5.399-3.641-7.319-6.2c-1.92-2.561-3.32-5.453-4.201-8.681c-0.879-3.226-1.319-6.466-1.319-9.72
		c0-4.479,0.652-8.572,1.96-12.28c1.307-3.706,3.12-6.88,5.439-9.52c2.32-2.64,5.107-4.68,8.36-6.12
		c3.253-1.439,6.853-2.16,10.8-2.16c4.48,0,8.267,0.8,11.36,2.4c3.093,1.6,5.587,3.773,7.479,6.52
		c1.893,2.748,3.253,5.934,4.08,9.561C379.268,43.358,379.682,47.198,379.682,51.25z M362.242,48.531c0-1.44-0.215-2.76-0.641-3.96
		c-0.428-1.2-1-2.253-1.72-3.16c-0.72-0.906-1.534-1.612-2.44-2.12c-0.907-0.506-1.84-0.76-2.8-0.76c-0.8,0-1.693,0.188-2.68,0.56
		c-0.987,0.374-1.92,0.948-2.8,1.721c-0.881,0.773-1.614,1.76-2.2,2.96c-0.587,1.2-0.88,2.627-0.88,4.279
		c0,2.08,0.227,3.841,0.68,5.28c0.453,1.44,1.053,2.614,1.801,3.521c0.746,0.907,1.611,1.56,2.6,1.96
		c0.986,0.399,2.012,0.6,3.08,0.6c1.172,0,2.252-0.292,3.24-0.88c0.986-0.586,1.84-1.372,2.56-2.36
		c0.72-0.986,1.267-2.132,1.64-3.439C362.055,51.424,362.242,50.025,362.242,48.531z"/>
	<path fill="#FFFFFF" d="M431.042,50.371c0,4.588-1,8.601-3,12.04c-2,3.44-4.614,6.334-7.841,8.68
		c-3.227,2.348-6.867,4.107-10.92,5.28s-8.107,1.76-12.16,1.76c-1.6,0-3.319-0.027-5.159-0.08c-1.841-0.054-3.935-0.213-6.28-0.479
		c0.213-3.626,0.346-6.933,0.4-9.92c0.053-2.986,0.08-5.946,0.08-8.88c0-5.92-0.055-11.812-0.16-17.681
		c-0.107-5.866-0.24-12.132-0.4-18.8c1.173-0.106,2.412-0.2,3.721-0.28c1.306-0.079,2.586-0.132,3.84-0.159
		c1.252-0.026,2.439-0.053,3.56-0.08c1.12-0.026,2.106-0.04,2.96-0.04c5.013,0,9.48,0.547,13.4,1.64c3.92,1.094,7.199,2.8,9.84,5.12
		s4.652,5.28,6.04,8.88C430.348,40.971,431.042,45.304,431.042,50.371z M414.002,49.01c0-3.572-0.787-6.172-2.36-7.8
		c-1.573-1.626-4.28-2.439-8.12-2.439h-0.479l0.239,21.439c3.36-0.266,5.986-1.346,7.881-3.239
		C413.055,55.079,414.002,52.424,414.002,49.01z"/>
</g>
<g enable-background="new    ">
	<path fill="#FFFFFF" d="M275.042,91.491c-0.16,1.12-0.254,2.134-0.28,3.04c-0.027,0.907-0.067,1.653-0.119,2.24
		c-0.055,0.373-0.094,1.214-0.121,2.52c-0.027,1.308-0.08,2.907-0.16,4.8c-0.079,1.895-0.146,3.975-0.199,6.24
		c-0.054,2.268-0.12,4.508-0.2,6.72c-0.08,2.214-0.147,4.294-0.2,6.24c-0.053,1.947-0.08,3.588-0.08,4.92
		c-0.053,1.548-0.094,3.188-0.119,4.92c-0.027,1.734-0.055,3.44-0.08,5.12c-0.027,1.681-0.041,3.268-0.041,4.76
		c0,1.494,0,2.774,0,3.841c-0.906,0.268-1.879,0.507-2.92,0.72c-1.039,0.213-2.107,0.386-3.199,0.52
		c-1.094,0.133-2.174,0.253-3.24,0.36c-1.067,0.106-2.027,0.213-2.88,0.32l-4.24-5.92c-0.427-0.587-1.174-1.613-2.239-3.08
		c-1.068-1.467-2.309-3.173-3.721-5.12c-1.414-1.946-2.96-4.04-4.641-6.28c-1.68-2.24-3.347-4.452-5-6.64l0.561,10.72
		c0,0.588,0.026,1.388,0.08,2.4c0.053,1.014,0.106,2.054,0.16,3.12c0.053,1.067,0.092,2.094,0.12,3.079
		c0.026,0.988,0.04,1.721,0.04,2.2v3.601c-1.388,0.107-2.895,0.199-4.52,0.279c-1.629,0.08-3.309,0.174-5.041,0.28
		c-1.733,0.106-3.427,0.2-5.08,0.28c-1.654,0.08-3.174,0.146-4.56,0.2c0.052-1.227,0.106-2.732,0.16-4.521
		c0.052-1.786,0.106-3.652,0.16-5.6c0.053-1.946,0.106-3.933,0.16-5.96c0.053-2.026,0.106-3.906,0.16-5.641
		c0.052-1.732,0.08-3.266,0.08-4.6c0-1.333,0-2.293,0-2.88l-0.4-24.72c1.28-0.213,2.44-0.4,3.48-0.561s2.133-0.32,3.28-0.479
		c1.146-0.16,2.399-0.32,3.76-0.48s2.973-0.32,4.841-0.479c0.531,0.747,1.212,1.653,2.039,2.72c0.826,1.067,1.652,2.12,2.48,3.16
		c0.826,1.04,1.572,1.974,2.24,2.8c0.666,0.827,1.105,1.399,1.319,1.72c0.267,0.428,0.733,1.067,1.4,1.92
		c0.666,0.854,1.427,1.8,2.28,2.84c0.852,1.04,1.746,2.12,2.68,3.24c0.932,1.12,1.772,2.134,2.52,3.04
		c0.053-1.28,0.12-2.532,0.2-3.76c0.08-1.227,0.146-2.387,0.2-3.48c0.053-1.092,0.105-2.066,0.16-2.92c0.053-0.853,0.08-1.52,0.08-2
		c0-0.479,0-1.066,0-1.76c0-0.692-0.014-1.452-0.041-2.28c-0.027-0.826-0.066-1.666-0.119-2.52c-0.054-0.853-0.107-1.652-0.16-2.4
		L275.042,91.491z"/>
	<path fill="#FFFFFF" d="M301.041,103.811c-0.107,5.867-0.214,11.707-0.32,17.52c-0.107,5.813-0.16,11.654-0.16,17.521
		c0,0.533,0,1.268,0,2.199c0,0.935,0.026,1.881,0.08,2.841c0.053,1.119,0.106,2.319,0.16,3.6h-16.96
		c-0.054-4.053-0.107-7.812-0.16-11.28c0-1.492-0.014-2.986-0.04-4.479c-0.027-1.493-0.067-2.893-0.119-4.2
		c-0.055-1.307-0.094-2.48-0.121-3.521c-0.027-1.039-0.039-1.826-0.039-2.359c-0.055-0.692-0.094-1.652-0.121-2.88
		c-0.027-1.227-0.066-2.573-0.119-4.04c-0.055-1.467-0.107-2.973-0.16-4.521c-0.054-1.546-0.094-3-0.12-4.359
		c-0.027-1.36-0.067-2.573-0.12-3.641c-0.054-1.066-0.08-1.84-0.08-2.319c-0.054-0.693-0.08-1.493-0.08-2.4c0-0.906,0-1.732,0-2.48
		v-2.72l18.16-0.08c0.106,1.228,0.2,2.88,0.28,4.96C301.08,99.25,301.094,101.464,301.041,103.811z"/>
	<path fill="#FFFFFF" d="M353.6,142.851c-1.014,0.8-2.16,1.52-3.439,2.159c-1.28,0.641-2.6,1.2-3.961,1.681
		c-1.359,0.479-2.747,0.853-4.159,1.12c-1.414,0.266-2.761,0.399-4.04,0.399c-5.28,0-9.828-0.533-13.641-1.6
		c-3.813-1.066-6.947-2.772-9.399-5.12c-2.454-2.347-4.268-5.426-5.44-9.24c-1.174-3.812-1.76-8.492-1.76-14.04
		c0-4.052,0.76-7.72,2.28-11c1.521-3.279,3.572-6.066,6.159-8.359s5.587-4.066,9-5.32c3.413-1.253,7.014-1.88,10.801-1.88
		c2.88,0,5.772,0.214,8.68,0.64c2.906,0.428,5.613,0.987,8.12,1.681c-0.427,2.88-0.96,5.8-1.601,8.76
		c-0.639,2.96-1.439,5.827-2.399,8.6c-1.708-0.853-3.427-1.6-5.16-2.24c-1.733-0.64-3.534-0.96-5.399-0.96
		c-3.468,0-6.32,0.935-8.561,2.801c-2.24,1.867-3.359,4.693-3.359,8.479c0,2.08,0.172,3.907,0.52,5.48
		c0.346,1.573,0.933,2.88,1.76,3.92c0.826,1.04,1.946,1.813,3.36,2.319c1.413,0.508,3.187,0.734,5.319,0.681h0.881v-5.84
		c-0.854-0.053-1.68-0.066-2.48-0.04c-0.8,0.027-1.654,0.094-2.561,0.199l0.16-11.359c0.906-0.106,1.906-0.173,3-0.2
		c1.094-0.026,2.094-0.04,3-0.04c2.347,0,4.613,0.027,6.801,0.08c2.186,0.054,4.452,0.188,6.8,0.399L353.6,142.851z"/>
	<path fill="#FFFFFF" d="M408,91.731v4.399c0,1.28-0.014,2.681-0.041,4.2c-0.027,1.521-0.094,3-0.199,4.44
		c-0.16,3.2-0.28,6.587-0.36,10.16s-0.134,7.228-0.159,10.96c-0.028,3.733-0.08,7.467-0.16,11.199
		c-0.08,3.734-0.201,7.334-0.36,10.801c-2.667-0.054-5.147-0.107-7.44-0.16c-1.974-0.054-3.894-0.094-5.76-0.12
		c-1.867-0.027-3.2-0.067-4-0.12c0-1.6,0.026-3.093,0.08-4.48c0.053-1.226,0.092-2.439,0.12-3.64c0.026-1.2,0.04-2.146,0.04-2.84
		c0-0.532-0.014-1.187-0.04-1.96c-0.028-0.772-0.054-1.561-0.08-2.36c-0.028-0.8-0.054-1.56-0.08-2.279
		c-0.027-0.721-0.04-1.267-0.04-1.641h-10.561c0,0.534-0.014,1.348-0.039,2.44c-0.027,1.094-0.041,2.214-0.041,3.359
		c0,1.147,0.014,2.24,0.041,3.28c0.025,1.04,0.039,1.8,0.039,2.28v4.64v2.88c-2.719,0.054-5.227,0.107-7.52,0.16
		c-1.974,0.054-3.894,0.094-5.76,0.12c-1.867,0.027-3.174,0.014-3.92-0.04c0-2.986-0.027-5.866-0.08-8.64
		c-0.054-2.4-0.094-4.812-0.12-7.24c-0.027-2.427-0.067-4.412-0.12-5.96c-0.107-2.666-0.188-5.467-0.24-8.4
		c-0.053-2.933-0.094-5.866-0.119-8.8c-0.027-2.933-0.068-5.76-0.121-8.479c-0.053-2.721-0.08-5.2-0.08-7.44
		c1.44-0.106,2.854-0.187,4.24-0.24c1.173-0.052,2.373-0.092,3.601-0.12c1.226-0.025,2.292-0.065,3.2-0.119
		c0.746,0,1.506,0.014,2.279,0.039c0.773,0.028,1.506,0.04,2.2,0.04c0.8,0.054,1.601,0.08,2.399,0.08
		c-0.053,2.294-0.079,4.4-0.079,6.32v7.521c0,0.319,0,0.733,0,1.239c0,0.508,0.013,1.054,0.04,1.641
		c0.025,0.587,0.039,1.147,0.039,1.68c0,0.534,0,0.987,0,1.36L390,112.13c0-0.586-0.027-1.412-0.08-2.479
		c-0.055-1.066-0.107-2.173-0.16-3.32c-0.055-1.146-0.094-2.227-0.12-3.24c-0.028-1.012-0.04-1.812-0.04-2.399
		c0-0.641-0.014-1.44-0.04-2.4c-0.027-0.96-0.04-1.893-0.04-2.8v-3.28L408,91.731z"/>
	<path fill="#FFFFFF" d="M427.6,147.491c0-4.053-0.027-7.812-0.08-11.28c0-1.492-0.014-2.986-0.04-4.479
		c-0.028-1.493-0.054-2.893-0.08-4.2c-0.027-1.307-0.04-2.48-0.04-3.521c0-1.039,0-1.826,0-2.359l-0.16-12.8
		c-1.867,0-3.64,0.014-5.32,0.04c-1.68,0.027-3.174,0.054-4.479,0.08c-1.308,0.027-2.388,0.054-3.24,0.079
		c-0.854,0.028-1.388,0.04-1.6,0.04V92.21l46.56,0.08v16.561h-4.32c-1.333,0-2.854,0-4.56,0c-1.708,0-3.493-0.026-5.36-0.08
		c-0.053,1.388-0.08,2.693-0.08,3.92c0,1.228,0,2.319,0,3.28c0,5.173-0.014,10.319-0.039,15.439
		c-0.027,5.12,0.039,10.48,0.199,16.08H427.6z"/>
</g>
<polygon fill="#FFFFFF" points="122.37,63.367 42.268,108.931 126.779,133.182 194.389,80.27 "/>
<polyline fill="none" stroke="#FFFFFF" stroke-width="2" stroke-linecap="round" stroke-linejoin="round" stroke-miterlimit="10" points="
	70.928,4.781 87.831,4.781 72.398,20.214 89.3,20.214 "/>
<polyline fill="none" stroke="#FFFFFF" stroke-width="2" stroke-linecap="round" stroke-linejoin="round" stroke-miterlimit="10" points="
	82.686,29.768 91.505,29.768 83.421,38.586 91.505,38.586 "/>
<g>
	<path fill="#FEE000" d="M143.146,163.141c0,0,3.431-52.842,26.077-54.213c22.646-1.372,31.566,32.939,31.566,32.939
		S182.948,172.062,143.146,163.141z"/>
	<path fill="none" stroke="#F7911E" stroke-width="2" stroke-linecap="round" stroke-linejoin="round" stroke-miterlimit="10" d="
		M183.199,158.084c6.176-24.703-21.524-21.707-21.524-21.707"/>
	<path fill="none" stroke="#F7911E" stroke-width="2" stroke-linecap="round" stroke-linejoin="round" stroke-miterlimit="10" d="
		M169.544,146.239c0,0,0.772,9.264,4.632,8.492c3.86-0.771,0.772-9.266,0.772-9.266"/>
	<path fill="none" stroke="#F7911E" stroke-width="2" stroke-linecap="round" stroke-linejoin="round" stroke-miterlimit="10" d="
		M154.298,150.53c0,0,0.772,9.266,4.632,8.492c3.86-0.771,0.772-9.264,0.772-9.264"/>
	<path fill="#D363A6" d="M173.341,163.141c-5.49-6.863-6.862,1.372-6.862,1.372S170.596,163.141,173.341,163.141z"/>
	<path fill="#FEE000" d="M200.79,141.868c0,0,10.293,41.859-37.743,34.998c0,0-2.745-4.805,2.745-4.805
		c0,0,33.625,4.805,30.881-28.822"/>
	<polygon fill="#FEE000" points="151.825,135.405 135.887,134.077 146.512,151.344 	"/>
</g>
<path fill="#23C2F2" d="M128.249,61.163c0,0,31.312-17.231,52.912-2.204c16.902,11.758-0.742,30.781-30.865,24.25
	C116.153,75.807,116.491,61.163,128.249,61.163z"/>
<g>
	<path fill="#231F20" d="M119.946,61.662c0,0-4.842,6.053-6.058-0.488c0,0-4.597,7.275,2.426,9.691
		c7.029,2.424,14.113-6.277,14.113-6.277L119.946,61.662z"/>
	<path fill="#ABD037" d="M185.671,44.867c-1.96,20.286-19.997,35.14-40.276,33.184c-20.289-1.959-35.146-19.99-33.186-40.279
		c1.96-20.285,19.989-35.139,40.278-33.18C172.776,6.553,187.631,24.582,185.671,44.867z"/>
	<path fill="#4A813B" d="M135.866,53.555c-0.094,0.81-0.841,1.382-1.646,1.288c-0.819-0.104-1.382-0.839-1.283-1.646
		c0.094-0.812,0.826-1.385,1.638-1.291C135.382,52.006,135.957,52.74,135.866,53.555z"/>
	<path fill="#231F20" d="M161.551,6.272c-33.019-9.571-46.52,15.096-46.52,15.096s41.399-0.59,63.567,12.429
		c-2.86,27.538-4.621,33.296-7.498,33.634c-4.933,0.581-4.83-3.855-4.83-3.855S161.385,69.14,166.528,74
		c7.184,6.773,19.659-8.604,20.528-28.909C187.867,26.143,182.75,12.419,161.551,6.272z"/>
	<path fill="none" stroke="#4A813B" stroke-width="2" stroke-linecap="round" stroke-linejoin="round" stroke-miterlimit="10" d="
		M147.577,34.021c0,0-6.621,18.537,3.31,21.186c9.931,2.647,13.241-19.199,13.241-19.199"/>
	<path fill="none" stroke="#4A813B" stroke-width="2" stroke-linecap="round" stroke-linejoin="round" stroke-miterlimit="10" d="
		M119.109,30.711c0,0-4.029,17.467,1.324,18.537c6.62,1.324,8.606-16.551,8.606-16.551"/>
</g>
<path fill="#FFFFFF" d="M162.789,85.414c0,0-24.251-38.949-60.26-26.455c-36.01,12.492-29.396,54.381-29.396,54.381
	S144.417,135.387,162.789,85.414z"/>
<path fill="none" stroke="#23C2F2" stroke-width="2" stroke-linecap="round" stroke-linejoin="round" stroke-miterlimit="10" d="
	M74.479,99.178c0,0,4.136,15.59,32.521,14.823c27.191-0.735,49.981-21.385,49.981-21.385"/>
</svg>
