<?xml version="1.0" encoding="utf-8"?>
<!-- Generator: Adobe Illustrator 17.1.0, SVG Export Plug-In . SVG Version: 6.00 Build 0)  -->
<!DOCTYPE svg PUBLIC "-//W3C//DTD SVG 1.1//EN" "http://www.w3.org/Graphics/SVG/1.1/DTD/svg11.dtd">
<svg version="1.1" id="Layer_1" xmlns="http://www.w3.org/2000/svg" xmlns:xlink="http://www.w3.org/1999/xlink" x="0px" y="0px"
	 width="500px" height="269px" viewBox="16 -49 500 269" enable-background="new 16 -49 500 269" xml:space="preserve">
<g>
	<path fill="#FFFFFF" d="M77,22.4c0,3-0.6,5.5-1.8,7.4c-1.2,1.9-2.7,3.4-4.6,4.6c-1.9,1.1-4.1,1.9-6.5,2.3c-2.4,0.4-4.9,0.6-7.4,0.6
		c-3.8,0-7.7-0.2-11.6-0.6c-3.9-0.4-7.8-0.9-11.4-1.5l-0.2-52.6c1.5-0.5,3.2-0.9,5.1-1.2c1.9-0.3,3.9-0.6,5.9-0.9c2-0.2,4-0.4,6-0.5
		c2-0.1,3.8-0.2,5.4-0.2c2.3,0,4.6,0.2,6.9,0.6c2.3,0.4,4.4,1.2,6.2,2.2c1.8,1,3.3,2.5,4.4,4.3c1.1,1.8,1.7,4.1,1.7,6.9
		c0,3.1-0.7,5.8-2,8C71.9,4,70,6,67.6,7.8c1.4,0.9,2.7,1.8,3.8,2.8c1.1,1,2.1,2,3,3.2c0.8,1.2,1.5,2.5,1.9,3.8
		C76.8,19.1,77,20.6,77,22.4z M59.6,17.8c0-1.1-0.3-1.9-0.8-2.6c-0.5-0.7-1.1-1.2-1.9-1.5c-0.7-0.3-1.6-0.6-2.5-0.6
		c-0.9-0.1-1.8-0.1-2.7-0.1L49.5,13c-0.2,1.7-0.3,3.4-0.3,5.1c0,1.7,0,3.4,0,5.1c1,0.2,2.2,0.3,3.5,0.3c2,0,3.6-0.4,5-1.2
		C59,21.4,59.6,19.9,59.6,17.8z M58.9-2.8c0-0.8-0.2-1.4-0.6-1.8c-0.4-0.4-0.9-0.7-1.5-1S55.6-6,54.9-6c-0.7-0.1-1.3-0.1-1.9-0.1
		c-1.2,0-2.4,0.1-3.5,0.2l-0.2,9.5c1.2-0.1,2.3-0.1,3.4-0.2c1.1-0.1,2.1-0.4,3-0.8c0.9-0.4,1.6-1.1,2.2-1.9
		C58.6-0.1,58.9-1.3,58.9-2.8z"/>
	<path fill="#FFFFFF" d="M129.4,33.5c-1,0.5-2.2,0.9-3.6,1.4c-1.4,0.4-2.9,0.8-4.4,1.2c-1.5,0.4-3,0.7-4.4,1c-1.5,0.3-2.8,0.5-4,0.6
		L102.6,20c-0.3,0-0.5,0-0.8,0c-0.3,0-0.6,0-0.8-0.1c0.1,2.6,0.1,5.4,0,8.4c0,3,0.1,5.5,0.3,7.7c-1.6,0.1-3,0.2-4.3,0.2
		c-1.3,0.1-2.7,0.1-4.4,0.1c-1.4,0-2.8,0-4.2-0.1c-1.4-0.1-2.8-0.1-4.2-0.2l0.3-55h2.4c3.5,0.1,7,0.1,10.6-0.2
		c3.6-0.2,7.1-0.3,10.5-0.3c2.4,0,4.7,0.5,6.9,1.4c2.2,1,4.2,2.3,5.9,3.9c1.7,1.7,3.1,3.6,4.1,5.8c1,2.2,1.5,4.5,1.5,7
		c0,4.2-0.7,7.7-2.1,10.6c-1.4,2.9-3.4,5.3-6,7c1.7,3,3.5,5.9,5.3,8.8C125.4,28.1,127.3,30.8,129.4,33.5z M109.9,0.4
		c0-1.2-0.4-2.3-1.2-3.2c-0.8-1-1.9-1.5-3.3-1.5c-0.6,0-1.3,0-2.3,0c-0.9,0-1.7,0.1-2.3,0.2V6c0.5,0.1,1.3,0.2,2.2,0.2
		c0.9,0,1.7,0,2.2,0c1.9,0,3.1-0.6,3.8-1.7C109.6,3.4,109.9,2,109.9,0.4z"/>
	<path fill="#FFFFFF" d="M173.3,35.9h-8.7c-1.2,0-2.4,0-3.6,0s-2.4,0-3.5,0c-1.1,0-2.1,0.1-3.1,0.1c-0.9,0-1.7,0-2.4,0
		c-1.2,0.1-2.8,0.1-4.7,0c-1.9,0-3.7,0-5.6,0c-2.1,0-4.3,0-6.6-0.1v-5c0-1.5,0-3.4,0-5.4s0-4.4-0.1-6.9c-0.1-2.5-0.1-5.3-0.2-8.2
		c-0.1-3-0.2-6.1-0.2-9.3c-0.1-3.2-0.1-6.5-0.2-10c-0.1-3.4-0.1-6.8-0.2-10.2c2.8,0,5.5,0,8.1-0.1c2.2-0.1,4.5-0.1,6.7-0.1
		c2.2,0,4-0.1,5.2-0.1c1.1-0.1,2.7-0.1,4.8,0c2.1,0,4.2,0,6.3,0c2.5,0.1,5,0.1,7.8,0.1v14.4c-4.1-0.5-8-0.7-11.7-0.5
		c-3.7,0.1-7.5,0.3-11.4,0.5l0.1,5.1c0.3-0.1,0.9-0.1,1.6-0.1s1.5,0,2.3,0s1.6,0,2.3,0c0.7,0,1.2,0,1.6,0c0.5,0,1.2,0,2.2,0
		c1,0,2,0,3,0c1.2,0,2.4,0,3.8-0.1c0.1,0.3,0.2,1.1,0.4,2.3c0.1,1.2,0.2,2.7,0.2,4.4c0,1.9,0,3.5-0.1,4.9c-0.1,1.4-0.1,2.1-0.2,2.1
		c-0.6,0-1.6,0-3.1,0c-1.5,0-3.1,0.1-4.8,0.1c-1.7,0-3.3,0.1-4.9,0.1c-1.6,0-2.7,0.1-3.4,0.1V19c1.2,0.1,2.6,0.2,4.3,0.2
		c1.7,0.1,3.6,0.1,5.6,0.1s4.1,0,6.2,0c2.1,0,4.2-0.1,6.1-0.3V35.9z"/>
	<path fill="#FFFFFF" d="M232,35c0,0.1-0.5,0.1-1.5,0.3c-1,0.1-2.2,0.3-3.7,0.4s-3.1,0.3-4.8,0.5c-1.7,0.2-3.3,0.3-4.8,0.4
		c-1.5,0.1-3.2,0.3-5.2,0.4c-0.1-1.1-0.3-2.5-0.6-4.3c-0.3-1.8-0.5-3.5-0.8-5l-13.1-0.1c-0.4,1.5-0.8,3.1-1.2,4.7
		c-0.5,1.7-0.9,3.3-1.2,5l-18.4-2.3c1.4-3.9,2.8-7.6,4.1-11c0.5-1.5,1.1-3,1.6-4.5c0.6-1.5,1.1-3,1.6-4.3c0.5-1.4,1-2.6,1.4-3.7
		c0.4-1.1,0.7-2.1,1-2.8c0.4-1.1,0.8-2.3,1.3-3.6c0.5-1.4,1-2.8,1.6-4.3c0.6-1.5,1.1-3.1,1.7-4.6c0.6-1.6,1.1-3.1,1.7-4.5
		c1.3-3.4,2.6-7,4-10.6c2.2-0.1,4.4-0.2,6.5-0.2c1.8-0.1,3.6-0.1,5.4-0.1c1.9,0,3.4,0,4.5,0c1.3,3.8,2.6,7.4,3.9,10.8
		c0.5,1.4,1.1,2.9,1.6,4.5c0.6,1.5,1.1,3,1.6,4.5c0.5,1.4,1,2.8,1.4,4c0.5,1.3,0.8,2.3,1.2,3.2c0.2,0.7,0.5,1.6,0.9,2.8
		c0.4,1.1,0.8,2.4,1.3,3.8c0.5,1.4,1,2.9,1.5,4.4c0.5,1.6,1.1,3.1,1.6,4.7C229.4,27.1,230.7,30.9,232,35z M209.1,15.5l-3.8-18.1
		l-5,18.2L209.1,15.5z"/>
	<path fill="#FFFFFF" d="M286.8,35.6l-19.8,1c-0.1,0-0.3-0.3-0.6-0.9c-0.3-0.6-0.8-1.3-1.4-2.3c-0.6-0.9-1.3-2-2-3.2
		c-0.7-1.2-1.5-2.4-2.2-3.6s-1.5-2.4-2.2-3.5c-0.7-1.1-1.3-2.1-1.8-2.9l0.4,15.3c-1.2,0.1-2.3,0.2-3.5,0.3c-1,0.1-2.1,0.2-3.2,0.2
		c-1.1,0-2.2,0-3.1,0c-0.9,0-1.9,0-3.1,0c-1.1,0-2.2-0.1-3.2-0.2c-1.2-0.1-2.3-0.1-3.5-0.2l0.6-54.7l16-1l-0.2,16l13.4-17.4
		l17.5,5.8L266.8,6L286.8,35.6z"/>
	<path fill="#FFFFFF" d="M328.4,36c0-4.1,0-7.8-0.1-11.3c0-1.5,0-3,0-4.5c0-1.5-0.1-2.9-0.1-4.2c0-1.3,0-2.5,0-3.5c0-1,0-1.8,0-2.4
		L328-2.6c-1.9,0-3.6,0-5.3,0c-1.7,0-3.2,0.1-4.5,0.1c-1.3,0-2.4,0.1-3.2,0.1c-0.9,0-1.4,0-1.6,0v-16.9l46.6,0.1v16.6h-4.3
		c-1.3,0-2.9,0-4.6,0c-1.7,0-3.5,0-5.4-0.1c-0.1,1.4-0.1,2.7-0.1,3.9c0,1.2,0,2.3,0,3.3c0,5.2,0,10.3,0,15.4c0,5.1,0,10.5,0.2,16.1
		H328.4z"/>
	<path fill="#FFFFFF" d="M382.3-7.7C382.2-1.8,382.1,4,382,9.8c-0.1,5.8-0.2,11.7-0.2,17.5c0,0.5,0,1.3,0,2.2c0,0.9,0,1.9,0.1,2.8
		c0.1,1.1,0.1,2.3,0.2,3.6h-17c-0.1-4.1-0.1-7.8-0.2-11.3c0-1.5,0-3,0-4.5c0-1.5-0.1-2.9-0.1-4.2c-0.1-1.3-0.1-2.5-0.1-3.5
		c0-1,0-1.8,0-2.4c-0.1-0.7-0.1-1.7-0.1-2.9c0-1.2-0.1-2.6-0.1-4c-0.1-1.5-0.1-3-0.2-4.5c-0.1-1.5-0.1-3-0.1-4.4
		c0-1.4-0.1-2.6-0.1-3.6c-0.1-1.1-0.1-1.8-0.1-2.3c-0.1-0.7-0.1-1.5-0.1-2.4c0-0.9,0-1.7,0-2.5v-2.7l18.2-0.1c0.1,1.2,0.2,2.9,0.3,5
		C382.4-12.2,382.4-10,382.3-7.7z"/>
	<path fill="#FFFFFF" d="M455.2,36.4c-2.7-0.1-5.1-0.1-7.4-0.2c-2-0.1-3.9-0.1-5.8-0.1c-1.9,0-3.2-0.1-4-0.1
		c-0.1-3.5-0.1-6.7-0.1-9.6c-0.1-2.5-0.1-4.9-0.1-7.2c0-2.3,0-3.8,0-4.5c-0.1,0.2-0.4,0.7-1,1.8c-0.6,1-1.3,2.3-2.1,3.7
		c-0.8,1.5-1.7,3.1-2.6,4.8c-0.9,1.7-1.8,3.4-2.7,4.9c-0.9,1.5-1.6,2.8-2.2,4c-0.6,1.1-1.1,1.8-1.3,2.2l-8.1,0.2
		c-0.1-0.2-0.4-0.9-0.9-1.9c-0.5-1.1-1.1-2.4-1.8-3.9c-0.7-1.5-1.4-3.1-2.2-4.8c-0.8-1.7-1.5-3.3-2.2-4.8c-0.7-1.5-1.3-2.8-1.9-4
		s-0.9-1.8-1.2-2.2c0,0.3,0,0.8,0,1.6c0,0.8,0,1.7,0,2.7c0,1-0.1,2.2-0.1,3.4c0,1.2,0,2.5,0,3.7c-0.1,2.9-0.1,6.2-0.2,9.7
		c-2.7,0.1-5.2,0.1-7.5,0.2c-2,0.1-3.9,0.1-5.8,0.1c-1.9,0-3.2,0-3.9,0c0.3-8.8,0.5-16.9,0.7-24.4c0.1-3.2,0.2-6.4,0.3-9.6
		c0.1-3.2,0.2-6.2,0.3-8.9c0.1-2.7,0.2-5.2,0.3-7.3c0.1-2.1,0.2-3.7,0.3-4.7c0.7-0.1,1.4-0.1,2.2-0.2c0.6-0.1,1.4-0.1,2.2-0.1
		c0.8,0,1.7-0.1,2.6-0.1c0.7,0,1.5,0,2.3,0c0.8,0,1.5,0,2.2,0c0.8,0.1,1.6,0.1,2.4,0.1c2.9,4.9,5.6,9.4,8,13.4c1,1.7,2,3.4,3,5.1
		s1.8,3.2,2.6,4.6c0.8,1.4,1.5,2.5,2,3.4c0.5,0.9,0.8,1.5,0.9,1.7L440-19.3l14.1,0.4c0.3,7.9,0.6,15.4,0.8,22.5
		c0.1,3,0.1,6.1,0.2,9.3c0.1,3.1,0.1,6.2,0.2,9.1c0.1,2.9,0.1,5.6,0,8.1C455.3,32.6,455.3,34.7,455.2,36.4z"/>
	<path fill="#FFFFFF" d="M502,35.9h-8.7c-1.2,0-2.4,0-3.6,0s-2.4,0-3.5,0c-1.1,0-2.1,0.1-3.1,0.1c-0.9,0-1.7,0-2.4,0
		c-1.2,0.1-2.8,0.1-4.7,0c-1.9,0-3.7,0-5.6,0c-2.1,0-4.3,0-6.6-0.1v-5c0-1.5,0-3.4,0-5.4s0-4.4-0.1-6.9c-0.1-2.5-0.1-5.3-0.2-8.2
		c-0.1-3-0.2-6.1-0.2-9.3c-0.1-3.2-0.1-6.5-0.2-10c-0.1-3.4-0.1-6.8-0.2-10.2c2.8,0,5.5,0,8.1-0.1c2.2-0.1,4.5-0.1,6.7-0.1
		c2.2,0,4-0.1,5.2-0.1c1.1-0.1,2.7-0.1,4.8,0c2.1,0,4.2,0,6.3,0c2.5,0.1,5,0.1,7.8,0.1v14.4c-4.1-0.5-8-0.7-11.7-0.5
		c-3.7,0.1-7.5,0.3-11.4,0.5l0.1,5.1c0.3-0.1,0.9-0.1,1.6-0.1c0.7,0,1.5,0,2.3,0c0.8,0,1.6,0,2.3,0c0.7,0,1.2,0,1.6,0
		c0.5,0,1.2,0,2.2,0c1,0,2,0,3,0c1.2,0,2.4,0,3.8-0.1c0.1,0.3,0.2,1.1,0.4,2.3c0.1,1.2,0.2,2.7,0.2,4.4c0,1.9,0,3.5-0.1,4.9
		c-0.1,1.4-0.1,2.1-0.2,2.1c-0.6,0-1.6,0-3.1,0c-1.5,0-3.1,0.1-4.8,0.1c-1.7,0-3.3,0.1-4.9,0.1c-1.6,0-2.7,0.1-3.4,0.1V19
		c1.2,0.1,2.6,0.2,4.3,0.2c1.7,0.1,3.6,0.1,5.6,0.1s4.1,0,6.2,0c2.1,0,4.2-0.1,6.1-0.3V35.9z"/>
</g>
<g>
	<g>
		<path fill="#FFF200" d="M214.3,141.3c0,0-30.5,9.5-53.5,2.1c0,0,6.4-9.7,1.3-26.1c0,0,23.5,17.1,47.9,16.9L214.3,141.3z"/>
	</g>
	<g>
		<circle fill="#A6EF18" cx="187.2" cy="165" r="10.5"/>
	</g>
	<g>
		<path d="M220.2,174.7c0,0-0.4,6.2-4.6,6.2c-4.3,0-8.9-6.6-8.9-6.6l-1.1,2c0,0,4.1,8,10.5,7.2c6.4-0.8,6.2-10,6.2-10L220.2,174.7z"
			/>
	</g>
	<g>
		<path d="M241.9,168c0,0,10.4,10.1,18.2,14.4l-1.4,1.9c0,0-14.3-10.1-19.6-16.8L241.9,168z"/>
	</g>
	<g>
		<g>
			<path fill="#A6EF18" d="M190,142.3c-2.1,2.9-3.3,7.1-2.3,13.1l-3.6,0.4c-1.1-7.1,0.4-12.1,2.9-15.6L190,142.3z"/>
		</g>
	</g>
	<g>
		<g>
			<path fill="#FFFFFF" d="M211.2,135.6l11.7-4.3c0,0,4,14.7,13,28.3l-19.1,5.3C214.3,156.7,211.2,144.8,211.2,135.6z"/>
		</g>
		<g>
			<path d="M236,159.6c1.7,2.6,3.7,5.4,6,8.4l-21.8,6.6c0,0-1.5-4-3.3-9.7L236,159.6z"/>
		</g>
	</g>
	<g>
		<path d="M258.7,183.2c0,0-0.4-12.1,4.3-12.1S260.1,189.1,258.7,183.2z"/>
	</g>
	<g>
		<path d="M206.6,174.3l-5.7,7C200.9,181.3,208.4,184.4,206.6,174.3z"/>
	</g>
	<g>
		<polygon fill="#FFFFFF" points="261.9,121.7 261.9,125.7 223.3,138.6 222.3,134.9 		"/>
	</g>
	<g>
		<path fill="#FFFFFF" d="M189.5,143l-3.2-1.9c5-8.2,15.6-9.2,15.6-9.2l1.2,3.8C203.1,135.7,193.8,136.1,189.5,143z"/>
	</g>
	<g>
		<g>
			<polygon fill="#A6EF18" points="278.9,116.8 280.7,120.2 260.7,126 260.7,122.1 			"/>
		</g>
	</g>
	<g>
		<path fill="#A6EF18" d="M292.1,101.2c0,0,11.3,1.1,8,15.2c-3.3,14.1-26.4,10.3-25-5.5c1.4-15.8,12.6-19.1,21.9-15.4
			C301.1,97.1,298,100.6,292.1,101.2z"/>
	</g>
	<g>
		<g>
			<path d="M182.9,124.7c0,0,0,9.6-8.5,4.7c0,0,1.6,8.9,10.5,8.1c8.9-0.8,10.9-10.1,10.9-10.1L182.9,124.7z"/>
		</g>
		<g>
			<path d="M243.2,122.3c0,0,0,9.6,8.5,4.8c0,0-1.6,8.9-10.5,8.1c-8.9-0.8-10.9-10.1-10.9-10.1L243.2,122.3z"/>
		</g>
		<g>
			<path fill="#FFFFFF" d="M253.4,82.9c-6-15.3-21.7-26.2-40.2-26.2c-23.6,0-42.8,17.8-42.8,39.8c0,11,4.8,21,12.5,28.2l-2.2-33
				L253.4,82.9z"/>
		</g>
		<g>
			<path fill="#A6EF18" d="M180.8,91.8l2.2,33c7.7,7.2,18.4,11.7,30.2,11.7c23.6,0,42.8-17.8,42.8-39.8c0-4.8-0.9-9.4-2.6-13.7
				L180.8,91.8z"/>
		</g>
		<g>
			<path fill="#FFFFFF" d="M262.5,115.9c-1.2-14.3-9.1-33-9.1-33l-72.6,8.9l2.2,33L262.5,115.9z"/>
		</g>
		<g>
			<path d="M262.5,115.9c-1.2-14.3-9.1-33-9.1-33l-72.6,8.9l2.2,33L262.5,115.9z"/>
		</g>
		<g>
			<path fill="#00C3F7" d="M197,59.7c3.6,4.3,10.8,13.9,16.9,28l27.5-3.4c-4-9.6-9.3-18.8-16.3-26c-3.8-1-7.8-1.6-11.9-1.6
				C207.5,56.7,202,57.8,197,59.7z"/>
		</g>
		<g>
			<path fill="#ABA8A3" d="M251.5,117.6l12.1-1.3c-1.3-14.6-9.4-33.8-9.4-33.8L241.9,84C246.8,95.7,249.7,107.9,251.5,117.6z"/>
		</g>
		<g>
			<ellipse fill="#FFFFFF" cx="239.2" cy="101.2" rx="2.6" ry="3"/>
		</g>
		<g>
			<path fill="#FFFFFF" d="M204.2,105.2c0,1.7-1.2,3-2.6,3c-1.4,0-2.6-1.4-2.6-3c0-1.7,1.2-3,2.6-3
				C203,102.2,204.2,103.6,204.2,105.2z"/>
		</g>
	</g>
	<g>
		<path fill="#497F0A" d="M213.9,129.2c0,0-7.8-3.1-13.3-2.4C195.1,127.5,208.4,135.7,213.9,129.2z"/>
	</g>
</g>
<g>
	<g>
		<g>
			<path fill="#FFFFFF" d="M373.7,86.3c0,0,11.4-7.5,5.7-22.2C379.4,64,366.7,69.2,373.7,86.3z"/>
		</g>
	</g>
	<g>
		<path fill="#FFFF00" d="M354.4,113.1c0,0,0.1-9.9,6.4-16.7c6.3-6.9,11.8-1.1,11.8-1.1s3,3.6-1.9,9.7
			C365.9,111,354.4,113.1,354.4,113.1z"/>
	</g>
	<g>
		<path fill="#231F20" d="M354.4,113.1c0,0,3.5-0.6,7.4-2.2l-5.7-6.4C354.5,109.1,354.4,113.1,354.4,113.1z"/>
	</g>
	<g>
		<path fill="#231F20" d="M372.1,103.1l-9-8.7c-0.7,0.5-1.5,1.1-2.3,2c-0.8,0.9-1.5,1.8-2.1,2.7l8.9,8.7c1.2-0.8,2.2-1.8,3.1-2.8
			C371.3,104.3,371.7,103.7,372.1,103.1z"/>
	</g>
	<g>
		<path fill="#231F20" d="M389.8,92.9l2,2c0,0-4.4,1-7-1C382.2,91.9,389.8,92.9,389.8,92.9z"/>
	</g>
	<g>
		
			<ellipse transform="matrix(0.9993 3.795538e-02 -3.795538e-02 0.9993 3.7245 -14.2295)" fill="#231F20" cx="376.6" cy="91" rx="5.3" ry="7.1"/>
	</g>
	<g>
		
			<ellipse transform="matrix(0.9187 -0.395 0.395 0.9187 -3.4977 159.6101)" fill="#231F20" cx="385.9" cy="88.3" rx="4.6" ry="6.7"/>
	</g>
	<g>
		
			<ellipse transform="matrix(0.9187 -0.3949 0.3949 0.9187 -3.816 159.645)" fill="#FFFF00" cx="385.9" cy="89.1" rx="2.7" ry="3.2"/>
	</g>
	<g>
		<g>
			<path fill="#FFFFFF" d="M372.9,86.3c0,0-9.3-13.7-24.9-3.1C348,83.2,356.7,97.4,372.9,86.3z"/>
		</g>
	</g>
	<g>
		<path fill="#231F20" d="M372.7,111.2c-0.2,0-0.4-0.1-0.5-0.3c-0.1-0.3,0-0.5,0.3-0.6c3.8-1.4,5.7-4.3,5.9-8.7c0.1-3.3-1-6.3-1-6.3
			c-0.1-0.3,0-0.5,0.3-0.6c0.3-0.1,0.5,0,0.6,0.3c0,0.1,4.5,12.5-5.5,16.3C372.9,111.2,372.8,111.2,372.7,111.2z"/>
	</g>
	<g>
		<path fill="#231F20" d="M382.4,109.6c-0.1,0-0.2,0-0.2-0.1c-0.2-0.1-0.3-0.4-0.2-0.7c4.6-8.7-1.6-14.4-1.9-14.6
			c-0.2-0.2-0.2-0.5,0-0.7c0.2-0.2,0.5-0.2,0.7,0c0.1,0.1,7,6.4,2.1,15.8C382.7,109.5,382.5,109.6,382.4,109.6z"/>
	</g>
	<g>
		<path fill="#231F20" d="M388,85.6c-0.1,0-0.2,0-0.3-0.1c-0.2-0.2-0.3-0.5-0.1-0.7c0,0,3.3-4.3,2.2-7c-0.5-1.2-1.8-1.9-3.9-2.2
			c-0.3,0-0.5-0.3-0.4-0.6c0-0.3,0.3-0.5,0.6-0.4c2.5,0.3,4,1.3,4.6,2.8c1.3,3.2-2.2,7.8-2.3,8C388.3,85.5,388.1,85.6,388,85.6z"/>
	</g>
</g>
<g>
	<g>
		<g>
			<path fill="#FFFFFF" d="M58.5,179.2c0,2-1.4,3.6-3.2,3.6c-1.8,0-3.2-1.6-3.2-3.6c0-2,1.4-3.6,3.2-3.6
				C57.1,175.6,58.5,177.2,58.5,179.2z"/>
		</g>
		<g>
			<path fill="#FFFFFF" d="M58.5,172c0,2-1.4,3.6-3.2,3.6c-1.8,0-3.2-1.6-3.2-3.6c0-2,1.4-3.6,3.2-3.6C57.1,168.3,58.5,170,58.5,172
				z"/>
		</g>
		<g>
			<ellipse fill="#FFFFFF" cx="47.4" cy="175.6" rx="7.9" ry="1.5"/>
		</g>
		<g>
			<path fill="#FFFFFF" d="M63.2,177.1c-4.4,0-7.9-0.7-7.9-1.5c0-0.8,3.5-1.5,7.9-1.5c4.3,0,7.9,0.7,7.9,1.5
				C71.1,176.4,67.5,177.1,63.2,177.1z"/>
		</g>
		<g>
			<path fill="#FFFFFF" d="M52,179.2c-3.1,1.4-6.6,2.1-7.8,1.5c-1.2-0.6,0.2-2.2,3.3-3.6c3.1-1.4,6.6-2.1,7.8-1.5
				C56.6,176.2,55.1,177.8,52,179.2z"/>
		</g>
		<g>
			<path fill="#FFFFFF" d="M63.1,174.1c-3.1,1.4-6.6,2.1-7.8,1.5c-1.2-0.6,0.2-2.2,3.3-3.6c3.1-1.4,6.6-2.1,7.8-1.5
				C67.7,171,66.2,172.7,63.1,174.1z"/>
		</g>
		<g>
			<path fill="#FFFFFF" d="M47.5,174.1c-3.1-1.4-4.6-3-3.3-3.6c1.2-0.6,4.7,0.1,7.8,1.5c3.1,1.4,4.6,3,3.3,3.6
				C54.1,176.2,50.6,175.5,47.5,174.1z"/>
		</g>
		<g>
			<path fill="#FFFFFF" d="M58.6,179.2c-3.1-1.4-4.6-3-3.3-3.6c1.2-0.6,4.7,0.1,7.8,1.5c3.1,1.4,4.6,3,3.3,3.6
				C65.2,181.3,61.7,180.6,58.6,179.2z"/>
		</g>
	</g>
	<g>
		<path fill="#FFE000" d="M60.2,175.5c0,1.2-2.1,2.2-4.8,2.2c-2.6,0-4.8-1-4.8-2.2c0-1.2,2.1-2.2,4.8-2.2
			C58,173.3,60.2,174.3,60.2,175.5z"/>
	</g>
</g>
<g>
	<g>
		<g>
			<path fill="#FFFFFF" d="M472.1,171.8c0,2-1.4,3.6-3.2,3.6c-1.8,0-3.2-1.6-3.2-3.6c0-2,1.4-3.6,3.2-3.6
				C470.7,168.2,472.1,169.8,472.1,171.8z"/>
		</g>
		<g>
			<path fill="#FFFFFF" d="M472.1,164.5c0,2-1.4,3.6-3.2,3.6c-1.8,0-3.2-1.6-3.2-3.6c0-2,1.4-3.6,3.2-3.6
				C470.7,160.9,472.1,162.5,472.1,164.5z"/>
		</g>
		<g>
			<ellipse fill="#FFFFFF" cx="461.1" cy="168.2" rx="7.9" ry="1.5"/>
		</g>
		<g>
			<path fill="#FFFFFF" d="M476.8,169.6c-4.4,0-7.9-0.7-7.9-1.5c0-0.8,3.5-1.5,7.9-1.5c4.3,0,7.9,0.7,7.9,1.5
				C484.7,169,481.2,169.6,476.8,169.6z"/>
		</g>
		<g>
			<path fill="#FFFFFF" d="M465.6,171.8c-3.1,1.4-6.6,2.1-7.8,1.5c-1.2-0.6,0.2-2.2,3.3-3.6c3.1-1.4,6.6-2.1,7.8-1.5
				C470.2,168.7,468.7,170.3,465.6,171.8z"/>
		</g>
		<g>
			<path fill="#FFFFFF" d="M476.8,166.6c-3.1,1.4-6.6,2.1-7.8,1.5c-1.2-0.6,0.2-2.2,3.3-3.6c3.1-1.4,6.6-2.1,7.8-1.5
				C481.3,163.6,479.8,165.2,476.8,166.6z"/>
		</g>
		<g>
			<path fill="#FFFFFF" d="M461.1,166.6c-3.1-1.4-4.6-3-3.3-3.6c1.2-0.6,4.7,0.1,7.8,1.5c3.1,1.4,4.6,3,3.3,3.6
				C467.7,168.7,464.2,168.1,461.1,166.6z"/>
		</g>
		<g>
			<path fill="#FFFFFF" d="M472.3,171.8c-3.1-1.4-4.6-3-3.3-3.6c1.2-0.6,4.7,0.1,7.8,1.5c3.1,1.4,4.6,3,3.3,3.6
				C478.8,173.9,475.3,173.2,472.3,171.8z"/>
		</g>
	</g>
	<g>
		<path fill="#6AD30D" d="M473.8,168.1c0,1.2-2.1,2.2-4.8,2.2c-2.6,0-4.8-1-4.8-2.2c0-1.2,2.1-2.2,4.8-2.2
			C471.6,165.9,473.8,166.8,473.8,168.1z"/>
	</g>
</g>
<g>
	<g>
		<g>
			<path fill="#FFFFFF" d="M109.5,143.2c0,1.6-1.1,2.9-2.5,2.9c-1.4,0-2.5-1.3-2.5-2.9c0-1.6,1.1-2.9,2.5-2.9
				C108.3,140.3,109.5,141.6,109.5,143.2z"/>
		</g>
		<g>
			<path fill="#FFFFFF" d="M109.5,137.4c0,1.6-1.1,2.9-2.5,2.9c-1.4,0-2.5-1.3-2.5-2.9c0-1.6,1.1-2.9,2.5-2.9
				C108.3,134.6,109.5,135.9,109.5,137.4z"/>
		</g>
		<g>
			<ellipse fill="#FFFFFF" cx="100.7" cy="140.3" rx="6.3" ry="1.2"/>
		</g>
		<g>
			<path fill="#FFFFFF" d="M113.2,141.5c-3.5,0-6.3-0.5-6.3-1.2c0-0.6,2.8-1.2,6.3-1.2c3.5,0,6.3,0.5,6.3,1.2
				C119.5,141,116.7,141.5,113.2,141.5z"/>
		</g>
		<g>
			<path fill="#FFFFFF" d="M104.3,143.2c-2.4,1.1-5.2,1.7-6.2,1.2c-1-0.5,0.2-1.7,2.6-2.9c2.4-1.1,5.2-1.7,6.2-1.2
				C107.9,140.8,106.8,142.1,104.3,143.2z"/>
		</g>
		<g>
			<path fill="#FFFFFF" d="M113.2,139.1c-2.4,1.1-5.2,1.7-6.2,1.2c-1-0.5,0.2-1.7,2.6-2.9c2.4-1.1,5.2-1.7,6.2-1.2
				C116.8,136.7,115.6,138,113.2,139.1z"/>
		</g>
		<g>
			<path fill="#FFFFFF" d="M100.7,139.1c-2.4-1.1-3.6-2.4-2.6-2.9c1-0.5,3.8,0.1,6.2,1.2c2.4,1.1,3.6,2.4,2.6,2.9
				C106,140.8,103.2,140.2,100.7,139.1z"/>
		</g>
		<g>
			<path fill="#FFFFFF" d="M109.6,143.2c-2.4-1.1-3.6-2.4-2.6-2.9c1-0.5,3.8,0.1,6.2,1.2c2.4,1.1,3.6,2.4,2.6,2.9
				C114.8,144.9,112,144.3,109.6,143.2z"/>
		</g>
	</g>
	<g>
		<path fill="#00C3F7" d="M110.8,140.2c0,1-1.7,1.8-3.8,1.8c-2.1,0-3.8-0.8-3.8-1.8c0-1,1.7-1.8,3.8-1.8
			C109.1,138.5,110.8,139.3,110.8,140.2z"/>
	</g>
</g>
<g>
	<path fill="#FFFFFF" d="M408.5,219l-1,0l1-33.5l0.5,0l103.5-1l1-31l-125.8-1.8l0.8,46.8l-255,4v-45l-113,1l-1.9,34l98,2V215h-1
		v-19.5l-98-2l2.1-36l115-1v45l253-4l-0.8-45.8l-15.2-0.2v-11h16l0.2,10.2l126.8,1.8l-1,33l-0.5,0l-103.5,1L408.5,219z M372.5,150.5
		l14.2,0.2l-0.2-9.2h-14V150.5z"/>
</g>
</svg>
