<?xml version="1.0" encoding="utf-8"?>
<!-- Generator: Adobe Illustrator 17.1.0, SVG Export Plug-In . SVG Version: 6.00 Build 0)  -->
<!DOCTYPE svg PUBLIC "-//W3C//DTD SVG 1.1//EN" "http://www.w3.org/Graphics/SVG/1.1/DTD/svg11.dtd">
<svg version="1.1" id="Layer_1" xmlns="http://www.w3.org/2000/svg" xmlns:xlink="http://www.w3.org/1999/xlink" x="0px" y="0px"
	 width="500px" height="269px" viewBox="16 -49 500 269" enable-background="new 16 -49 500 269" xml:space="preserve">
<g>
	<path fill="#FFFFFF" d="M42.8,220l-1-85.7l-14.5,0.3v-15.3h15.3l0.2,14l46.2-0.9l1.2,37l95.7,1.2l-1.2-50.1h29.1v1h-28.1l1.2,50.1
		l-0.5,0l-97.1-1.2l-1.2-37l-45.2,0.9l1,85.7L42.8,220z M28.3,120.3v13.3l13.5-0.3l-0.2-13H28.3z"/>
</g>
<g>
	<polygon fill="#FFFFFF" points="470.9,122.7 439.3,122.7 439.3,121.7 469.8,121.7 466.3,49.9 381.3,47.5 380.1,121.5 353.4,120.3 
		353.4,119.3 379.2,120.4 380.3,46.5 380.9,46.5 467.2,48.9 	"/>
</g>
<g>
	<path fill="#FFFFFF" d="M37.8,17.1c0-4.1,0-7.8-0.1-11.3c0-1.5,0-3,0-4.5c0-1.5-0.1-2.9-0.1-4.2c0-1.3,0-2.5,0-3.5c0-1,0-1.8,0-2.4
		l-0.2-12.8c-1.9,0-3.6,0-5.3,0c-1.7,0-3.2,0.1-4.5,0.1c-1.3,0-2.4,0.1-3.2,0.1c-0.9,0-1.4,0-1.6,0v-16.9l46.6,0.1v16.6H65
		c-1.3,0-2.9,0-4.6,0s-3.5,0-5.4-0.1C55-20.2,55-18.9,55-17.7c0,1.2,0,2.3,0,3.3C55-9.3,55-4.1,55,1c0,5.1,0,10.5,0.2,16.1H37.8z"/>
	<path fill="#FFFFFF" d="M91.7-26.6c-0.1,5.9-0.2,11.7-0.3,17.5c-0.1,5.8-0.2,11.7-0.2,17.5c0,0.5,0,1.3,0,2.2c0,0.9,0,1.9,0.1,2.8
		c0.1,1.1,0.1,2.3,0.2,3.6h-17c-0.1-4.1-0.1-7.8-0.2-11.3c0-1.5,0-3,0-4.5c0-1.5-0.1-2.9-0.1-4.2c-0.1-1.3-0.1-2.5-0.1-3.5
		c0-1,0-1.8,0-2.4c-0.1-0.7-0.1-1.7-0.1-2.9c0-1.2-0.1-2.6-0.1-4c-0.1-1.5-0.1-3-0.2-4.5c-0.1-1.5-0.1-3-0.1-4.4
		c0-1.4-0.1-2.6-0.1-3.6c-0.1-1.1-0.1-1.8-0.1-2.3c-0.1-0.7-0.1-1.5-0.1-2.4c0-0.9,0-1.7,0-2.5v-2.7l18.2-0.1c0.1,1.2,0.2,2.9,0.3,5
		S91.8-28.9,91.7-26.6z"/>
	<path fill="#FFFFFF" d="M164.6,17.5c-2.7-0.1-5.1-0.1-7.4-0.2c-2-0.1-3.9-0.1-5.8-0.1c-1.9,0-3.2-0.1-4-0.1
		c-0.1-3.5-0.1-6.7-0.1-9.6c-0.1-2.5-0.1-4.9-0.1-7.2c0-2.3,0-3.8,0-4.5c-0.1,0.2-0.4,0.7-1,1.8c-0.6,1-1.3,2.3-2.1,3.7
		c-0.8,1.5-1.7,3.1-2.6,4.8c-0.9,1.7-1.8,3.4-2.7,4.9c-0.9,1.5-1.6,2.8-2.2,4c-0.6,1.1-1.1,1.8-1.3,2.2l-8.1,0.2
		c-0.1-0.2-0.4-0.9-0.9-1.9c-0.5-1.1-1.1-2.4-1.8-3.9c-0.7-1.5-1.4-3.1-2.2-4.8c-0.8-1.7-1.5-3.3-2.2-4.8c-0.7-1.5-1.3-2.8-1.9-4
		c-0.6-1.1-0.9-1.8-1.2-2.2c0,0.3,0,0.8,0,1.6c0,0.8,0,1.7,0,2.7c0,1-0.1,2.2-0.1,3.4c0,1.2,0,2.5,0,3.7c-0.1,2.9-0.1,6.2-0.2,9.7
		c-2.7,0.1-5.2,0.1-7.5,0.2c-2,0.1-3.9,0.1-5.8,0.1c-1.9,0-3.2,0-3.9,0c0.3-8.8,0.5-16.9,0.7-24.4c0.1-3.2,0.2-6.4,0.3-9.6
		c0.1-3.2,0.2-6.2,0.3-8.9c0.1-2.7,0.2-5.2,0.3-7.3c0.1-2.1,0.2-3.7,0.3-4.7c0.7-0.1,1.4-0.1,2.2-0.2c0.6-0.1,1.4-0.1,2.2-0.1
		c0.8,0,1.7-0.1,2.6-0.1c0.7,0,1.5,0,2.3,0c0.8,0,1.5,0,2.2,0c0.8,0.1,1.6,0.1,2.4,0.1c2.9,4.9,5.6,9.4,8,13.4c1,1.7,2,3.4,3,5.1
		s1.8,3.2,2.6,4.6c0.8,1.4,1.5,2.5,2,3.4c0.5,0.9,0.8,1.5,0.9,1.7l17.5-28.2l14.1,0.4c0.3,7.9,0.6,15.4,0.8,22.5
		c0.1,3,0.1,6.1,0.2,9.3c0.1,3.1,0.1,6.2,0.2,9.1c0.1,2.9,0.1,5.6,0,8.1C164.7,13.7,164.6,15.8,164.6,17.5z"/>
	<path fill="#FFFFFF" d="M211.4,17h-8.7c-1.2,0-2.4,0-3.6,0s-2.4,0-3.5,0c-1.1,0-2.1,0.1-3.1,0.1c-0.9,0-1.7,0-2.4,0
		c-1.2,0.1-2.8,0.1-4.7,0c-1.9,0-3.7,0-5.6,0c-2.1,0-4.3,0-6.6-0.1v-5c0-1.5,0-3.4,0-5.4s0-4.4-0.1-6.9c-0.1-2.5-0.1-5.3-0.2-8.2
		c-0.1-3-0.2-6.1-0.2-9.3c-0.1-3.2-0.1-6.5-0.2-10c-0.1-3.4-0.1-6.8-0.2-10.2c2.8,0,5.5,0,8.1-0.1c2.2-0.1,4.5-0.1,6.7-0.1
		c2.2,0,4-0.1,5.2-0.1c1.1-0.1,2.7-0.1,4.8,0c2.1,0,4.2,0,6.3,0c2.5,0.1,5,0.1,7.8,0.1v14.4c-4.1-0.5-8-0.7-11.7-0.5
		c-3.7,0.1-7.5,0.3-11.4,0.5l0.1,5.1c0.3-0.1,0.9-0.1,1.6-0.1s1.5,0,2.3,0s1.6,0,2.3,0c0.7,0,1.2,0,1.6,0c0.5,0,1.2,0,2.2,0
		c1,0,2,0,3,0c1.2,0,2.4,0,3.8-0.1c0.1,0.3,0.2,1.1,0.4,2.3c0.1,1.2,0.2,2.7,0.2,4.4c0,1.9,0,3.5-0.1,4.9c-0.1,1.4-0.1,2.1-0.2,2.1
		c-0.6,0-1.6,0-3.1,0c-1.5,0-3.1,0.1-4.8,0.1c-1.7,0-3.3,0.1-4.9,0.1c-1.6,0-2.7,0.1-3.4,0.1V0c1.2,0.1,2.6,0.2,4.3,0.2
		c1.7,0.1,3.6,0.1,5.6,0.1s4.1,0,6.2,0c2.1,0,4.2-0.1,6.1-0.3V17z"/>
	<path fill="#FFFFFF" d="M255.6,17.1c0-4.1,0-7.8-0.1-11.3c0-1.5,0-3,0-4.5c0-1.5-0.1-2.9-0.1-4.2c0-1.3,0-2.5,0-3.5
		c0-1,0-1.8,0-2.4l-0.2-12.8c-1.9,0-3.6,0-5.3,0c-1.7,0-3.2,0.1-4.5,0.1c-1.3,0-2.4,0.1-3.2,0.1c-0.9,0-1.4,0-1.6,0v-16.9l46.6,0.1
		v16.6h-4.3c-1.3,0-2.9,0-4.6,0s-3.5,0-5.4-0.1c-0.1,1.4-0.1,2.7-0.1,3.9c0,1.2,0,2.3,0,3.3c0,5.2,0,10.3,0,15.4
		c0,5.1,0,10.5,0.2,16.1H255.6z"/>
	<path fill="#FFFFFF" d="M341.2-9.2c0,4.2-0.6,8-1.8,11.3c-1.2,3.3-2.9,6.2-5.2,8.5c-2.3,2.3-5.1,4.1-8.5,5.4
		c-3.4,1.3-7.3,1.9-11.7,1.9c-4.2,0-7.7-0.8-10.7-2.4c-3-1.6-5.4-3.6-7.3-6.2c-1.9-2.6-3.3-5.5-4.2-8.7c-0.9-3.2-1.3-6.5-1.3-9.7
		c0-4.5,0.7-8.6,2-12.3c1.3-3.7,3.1-6.9,5.4-9.5c2.3-2.6,5.1-4.7,8.4-6.1c3.3-1.4,6.9-2.2,10.8-2.2c4.5,0,8.3,0.8,11.4,2.4
		c3.1,1.6,5.6,3.8,7.5,6.5c1.9,2.7,3.3,5.9,4.1,9.6C340.7-17,341.2-13.2,341.2-9.2z M323.7-11.9c0-1.4-0.2-2.8-0.6-4
		c-0.4-1.2-1-2.3-1.7-3.2c-0.7-0.9-1.5-1.6-2.4-2.1c-0.9-0.5-1.8-0.8-2.8-0.8c-0.8,0-1.7,0.2-2.7,0.6c-1,0.4-1.9,0.9-2.8,1.7
		c-0.9,0.8-1.6,1.8-2.2,3c-0.6,1.2-0.9,2.6-0.9,4.3c0,2.1,0.2,3.8,0.7,5.3c0.5,1.4,1.1,2.6,1.8,3.5c0.7,0.9,1.6,1.6,2.6,2
		c1,0.4,2,0.6,3.1,0.6c1.2,0,2.3-0.3,3.2-0.9c1-0.6,1.8-1.4,2.6-2.4c0.7-1,1.3-2.1,1.6-3.4C323.5-9,323.7-10.4,323.7-11.9z"/>
	<path fill="#FFFFFF" d="M410.9,17h-8.7c-1.2,0-2.4,0-3.6,0s-2.4,0-3.5,0c-1.1,0-2.1,0.1-3.1,0.1c-0.9,0-1.7,0-2.4,0
		c-1.2,0.1-2.8,0.1-4.7,0c-1.9,0-3.7,0-5.6,0c-2.1,0-4.3,0-6.6-0.1v-5c0-1.5,0-3.4,0-5.4s0-4.4-0.1-6.9c-0.1-2.5-0.1-5.3-0.2-8.2
		c-0.1-3-0.2-6.1-0.2-9.3c-0.1-3.2-0.1-6.5-0.2-10c-0.1-3.4-0.1-6.8-0.2-10.2c2.8,0,5.5,0,8.1-0.1c2.2-0.1,4.5-0.1,6.7-0.1
		c2.2,0,4-0.1,5.2-0.1c1.1-0.1,2.7-0.1,4.8,0c2.1,0,4.2,0,6.3,0c2.5,0.1,5,0.1,7.8,0.1v14.4c-4.1-0.5-8-0.7-11.7-0.5
		c-3.7,0.1-7.5,0.3-11.4,0.5l0.1,5.1c0.3-0.1,0.9-0.1,1.6-0.1s1.5,0,2.3,0s1.6,0,2.3,0c0.7,0,1.2,0,1.6,0c0.5,0,1.2,0,2.2,0
		c1,0,2,0,3,0c1.2,0,2.4,0,3.8-0.1c0.1,0.3,0.2,1.1,0.4,2.3c0.1,1.2,0.2,2.7,0.2,4.4c0,1.9,0,3.5-0.1,4.9c-0.1,1.4-0.1,2.1-0.2,2.1
		c-0.6,0-1.6,0-3.1,0c-1.5,0-3.1,0.1-4.8,0.1c-1.7,0-3.3,0.1-4.9,0.1c-1.6,0-2.7,0.1-3.4,0.1V0c1.2,0.1,2.6,0.2,4.3,0.2
		c1.7,0.1,3.6,0.1,5.6,0.1s4.1,0,6.2,0c2.1,0,4.2-0.1,6.1-0.3V17z"/>
	<path fill="#FFFFFF" d="M469.6,16.1c0,0.1-0.5,0.1-1.5,0.3c-1,0.1-2.2,0.3-3.7,0.4s-3.1,0.3-4.8,0.5c-1.7,0.2-3.3,0.3-4.8,0.4
		c-1.5,0.1-3.2,0.3-5.2,0.4c-0.1-1.1-0.3-2.5-0.6-4.3c-0.3-1.8-0.5-3.5-0.8-5l-13.1-0.1c-0.4,1.5-0.8,3.1-1.2,4.7
		c-0.5,1.7-0.9,3.3-1.2,5l-18.4-2.3c1.4-3.9,2.8-7.6,4.1-11c0.5-1.5,1.1-3,1.6-4.5c0.6-1.5,1.1-3,1.6-4.3c0.5-1.4,1-2.6,1.4-3.7
		c0.4-1.1,0.7-2.1,1-2.8c0.4-1.1,0.8-2.3,1.3-3.6c0.5-1.4,1-2.8,1.6-4.3c0.6-1.5,1.1-3.1,1.7-4.6c0.6-1.6,1.1-3.1,1.7-4.5
		c1.3-3.4,2.6-7,4-10.6c2.2-0.1,4.4-0.2,6.5-0.2c1.8-0.1,3.6-0.1,5.4-0.1c1.9,0,3.4,0,4.5,0c1.3,3.8,2.6,7.4,3.9,10.8
		c0.5,1.4,1.1,2.9,1.6,4.5c0.6,1.5,1.1,3,1.6,4.5c0.5,1.4,1,2.8,1.4,4c0.5,1.3,0.8,2.3,1.2,3.2c0.2,0.7,0.5,1.6,0.9,2.8
		c0.4,1.1,0.8,2.4,1.3,3.8c0.5,1.4,1,2.9,1.5,4.4c0.5,1.6,1.1,3.1,1.6,4.7C467,8.2,468.3,12,469.6,16.1z M446.7-3.4l-3.8-18.1
		l-5,18.2L446.7-3.4z"/>
	<path fill="#FFFFFF" d="M480,17.1c0-4.1,0-7.8-0.1-11.3c0-1.5,0-3,0-4.5c0-1.5-0.1-2.9-0.1-4.2c0-1.3,0-2.5,0-3.5c0-1,0-1.8,0-2.4
		l-0.2-12.8c-1.9,0-3.6,0-5.3,0c-1.7,0-3.2,0.1-4.5,0.1c-1.3,0-2.4,0.1-3.2,0.1c-0.9,0-1.4,0-1.6,0v-16.9l46.6,0.1v16.6h-4.3
		c-1.3,0-2.9,0-4.6,0s-3.5,0-5.4-0.1c-0.1,1.4-0.1,2.7-0.1,3.9c0,1.2,0,2.3,0,3.3c0,5.2,0,10.3,0,15.4c0,5.1,0,10.5,0.2,16.1H480z"
		/>
</g>
<g>
	<ellipse fill="#FFFFFF" cx="280.8" cy="107.2" rx="75.8" ry="60.7"/>
</g>
<g>
	<g>
		<path fill="#FFFFFF" d="M451.4,65.5l-2.5,0l-1.1,21.7l-15.5,0.1l-1.8-22l-2.4,0c0,0-0.7,21.3-0.7,23.9c0,5.8,13,5.8,19.1,4.9
			C452.7,93.2,453.8,93.9,451.4,65.5z"/>
	</g>
	<g>
		<polygon fill="#FFFFFF" points="434.7,89.1 435.1,65.4 437.8,65.4 438.1,89.1 		"/>
	</g>
	<g>
		<polygon fill="#FFFFFF" points="441.6,89.1 442,65.4 444.7,65.4 445,89.1 		"/>
	</g>
	<g>
		<path fill="#FFFFFF" d="M437.6,92.3c0,0-8.2,55.6,0.4,56.4c9.3,0.9,10.1-8.8,5.4-56.4"/>
	</g>
</g>
<g>
	<g>
		<path fill="#FFFFFF" d="M405.2,95.6c0,0-7.8,52.5,0.3,53.4c9.8,1.1,9.6-8.4,5.1-53.4"/>
	</g>
	<g>
		<ellipse fill="#FFFFFF" cx="408.1" cy="81.3" rx="13.4" ry="16.7"/>
	</g>
</g>
<g>
	<g>
		<path fill="#BC3F0D" d="M281.2,61.9c0,0-2.7,15.8-14.9,18.9c-12.2,3.1-20.7,15.5-18.5,25.3c2.2,9.8-18.3,18.4-18.3,18.4l20.4,10.7
			c0,0,20-9.3,17.9-22.5c-2.1-13.2,13.1-19.6,16.8-20.5c6.9-1.7,15.4-9.6,16.9-20L281.2,61.9z"/>
	</g>
	<g>
		<path fill="#BC3F0D" d="M312.6,78.4c0,0-2.7,15.8-14.9,18.9c-12.2,3.1-20.7,15.5-18.5,25.3c2.2,9.8-18.3,18.4-18.3,18.4l20.4,10.7
			c0,0,20-9.3,17.9-22.5c-2.1-13.2,13.1-19.6,16.8-20.5c6.9-1.7,15.4-9.6,16.9-20L312.6,78.4z"/>
	</g>
	<g>
		<path fill="#F7A859" d="M243.6,131.9c23.4-12.6,12.5-32.3,30.7-42.4c11-6.1,19.5-17.3,21.6-20.2l-6-3c-1.6,2.9-8.7,15.2-20.9,20.1
			c-12.4,5-12.5,17-13.7,21.6c-1,3.6-7.6,16.2-18.9,20.1L243.6,131.9z"/>
	</g>
	<g>
		<path fill="#F7A859" d="M274.8,148.3c2.3-1.4,14.2-9.1,17.3-21c4.5-17.3,13.7-19.2,23.7-27.8c8.4-7.2,10.7-11.8,11.1-14l-6.8-3.4
			c-1.1,2.8-5.8,13.1-15.8,18.1c-17.6,9-13.8,21.8-19.3,28.9c-4.9,6.4-15.7,13.7-17.8,15.1L274.8,148.3z"/>
	</g>
</g>
<g>
	<g>
		<polygon fill="#FFFFFF" points="105.8,63 113.2,143.9 161,143.9 168.5,63.4 		"/>
	</g>
	<g>
		<path fill="#FFA300" d="M154.2,135.2l5.7-54.1l-46.1-0.3l6.7,54.1C120.5,134.9,140,139.9,154.2,135.2z"/>
	</g>
	<g>
		<path fill="#FFCE00" d="M113.8,80.7h46.1C159.9,80.7,134.7,102.3,113.8,80.7z"/>
	</g>
</g>
</svg>
