<?xml version="1.0" encoding="utf-8"?>
<!-- Generator: Adobe Illustrator 14.0.0, SVG Export Plug-In . SVG Version: 6.00 Build 43363)  -->
<!DOCTYPE svg PUBLIC "-//W3C//DTD SVG 1.1//EN" "http://www.w3.org/Graphics/SVG/1.1/DTD/svg11.dtd">
<svg version="1.1" id="Layer_1" xmlns="http://www.w3.org/2000/svg" xmlns:xlink="http://www.w3.org/1999/xlink" x="0px" y="0px"
	 width="510px" height="148px" viewBox="0 0 510 148" enable-background="new 0 0 510 148" xml:space="preserve">
<g>
	<path fill="#FFFFFF" stroke="#231F20" stroke-miterlimit="10" d="M439.373,115.15c14.571-1.618,16.229-32.269,16.229-32.269
		c-0.849-17.112,9.676-17.922,9.676-17.922c40.071-8.5,16.595,50.19,3.238,30.762c0,0-11.334,26.715-27.524,26.715"/>
	<polygon fill="#FFFFFF" stroke="#231F20" stroke-miterlimit="10" points="468.921,52.817 459.206,103.817 498.063,108.675 
		506.563,60.103 	"/>
	<polygon fill="#23C2F2" points="472.563,60.103 466.492,98.96 493.206,102.603 499.278,64.96 	"/>
	<path fill="#FFFFFF" stroke="#231F20" stroke-miterlimit="10" d="M462.854,71.032c0,0,10.144,0,9.331,4.857
		c-0.812,4.856-10.954,3.644-10.954,3.644"/>
	<path fill="#231F20" d="M384.758,70.009c0,0-1.144-61.715,35.429-61.715s29.715,61.715,29.715,61.715H384.758z"/>
	<path fill="#FFFFFF" stroke="#231F20" stroke-miterlimit="10" d="M398.472,34.58c0,0-6.857,50.287,19.43,51.429
		c26.285,1.143,26.285-52.572,26.285-52.572S404.187-3.135,398.472,34.58z"/>
	<path fill="#231F20" d="M401.139,25.056l45.334,18.667c0,0-1.919-25.392-17.086-29.715C405.329,7.15,401.139,25.056,401.139,25.056
		z"/>
	<path fill="none" stroke="#231F20" stroke-miterlimit="10" d="M409.901,64.675c0,0,8.381,11.048,22.096,4.19"/>
	<path fill="none" stroke="#231F20" stroke-miterlimit="10" d="M439.997,46.77l-11.049-1.905c0,0-6.476,12.191-2.666,18.286
		l-8.381-1.143"/>
	<path fill="none" stroke="#231F20" stroke-miterlimit="10" d="M410.663,46.77c0,0-0.381,5.333,2.285,5.333
		c2.667,0,2.667-5.714,2.667-5.714"/>
	<path fill="none" stroke="#231F20" stroke-miterlimit="10" d="M431.615,50.961c0,0-0.381,5.333,2.286,5.333
		c2.666,0,2.666-5.714,2.666-5.714"/>
	<polygon fill="none" stroke="#231F20" stroke-miterlimit="10" points="14.802,36.627 17.23,88.437 49.611,103.008 115.183,94.913 
		85.23,81.15 80.778,34.603 	"/>
	<line fill="none" stroke="#231F20" stroke-miterlimit="10" x1="17.23" y1="88.437" x2="85.23" y2="81.15"/>
	<polygon fill="#23C2F2" points="22.492,43.508 24.111,80.745 77.135,74.675 73.897,41.484 	"/>
	<path fill="#FFFFFF" stroke="#231F20" stroke-miterlimit="10" d="M110.73,37.841c-9.836,0-17.81,7.974-17.81,17.81
		c0,0.314,0.031,0.62,0.047,0.929c-1.959,0.335-4.095,1.297-4.095,3.928c0,2.388,2.742,2.62,5.528,2.242
		c2.744,6.301,9.019,10.71,16.33,10.71c9.836,0,17.81-7.974,17.81-17.81S120.566,37.841,110.73,37.841z"/>
	<path fill="none" stroke="#231F20" stroke-miterlimit="10" d="M99.397,69.413c0,0,4.048-4.857,4.857-9.714"/>
	<path fill="none" stroke="#231F20" stroke-miterlimit="10" d="M101.826,47.555c0,0-4.048,5.667-0.81,7.286
		c3.238,1.619,4.857-4.857,4.857-4.857"/>
	<path fill="#FFFFFF" stroke="#231F20" stroke-miterlimit="10" d="M124.897,105.437c1.619-17-5.262-33.596-14.167-31.977
		s-8.095,31.572-8.095,31.572"/>
	<polygon fill="none" stroke="#231F20" stroke-miterlimit="10" points="37.873,91.675 81.183,86.008 96.563,92.079 55.278,97.341 	
		"/>
	<line fill="none" stroke="#231F20" stroke-miterlimit="10" x1="54.468" y1="90.056" x2="66.207" y2="96.127"/>
	<line fill="none" stroke="#231F20" stroke-miterlimit="10" x1="69.04" y1="87.627" x2="81.587" y2="94.103"/>
	<line fill="none" stroke="#231F20" stroke-miterlimit="10" x1="47.992" y1="94.913" x2="87.254" y2="88.437"/>
	<polyline fill="none" stroke="#23C2F2" stroke-miterlimit="10" points="26.135,60.913 3.468,62.127 3.468,129.722 115.183,130.127 
		115.183,113.532 95.754,113.532 97.373,144.294 478.23,142.675 479.85,98.15 	"/>
	<polygon fill="#FFFFFF" points="49.886,48.77 52.718,56.274 60.73,55.9 54.468,60.913 57.3,68.417 50.598,64.01 44.336,69.022 
		46.456,61.287 39.754,56.88 47.766,56.505 	"/>
	<polygon fill="#FFFFFF" points="484.009,73.128 485.007,79.235 491.123,80.173 485.624,83.009 486.622,89.115 482.226,84.761 
		476.726,87.597 479.508,82.071 475.112,77.717 481.228,78.655 	"/>
	<polyline fill="none" stroke="#231F20" stroke-miterlimit="10" points="443.421,142.675 433.706,86.008 402.136,86.008 
		398.897,144.294 	"/>
	<path fill="none" stroke="#231F20" stroke-miterlimit="10" d="M411.04,85.198c0,0,1.619,17.81,9.715,17.81
		c8.095,0,5.666-16.19,5.666-16.19"/>
	<path fill="none" stroke="#231F20" stroke-miterlimit="10" d="M402.136,86.008c0,0,9.714,29.143,5.666,57.476"/>
	<line fill="none" stroke="#231F20" stroke-miterlimit="10" x1="408.611" y1="124.056" x2="400.517" y2="124.056"/>
	<path fill="none" stroke="#231F20" stroke-miterlimit="10" d="M405.71,39.913c0,0,4.572-6.096,12.191,0"/>
</g>
<g>
	<polygon fill="#A4CD39" points="169.229,57.415 365.1,59.088 365.535,105.589 171.405,103.247 	"/>
	<g>
		<path fill="#FFFFFF" d="M179.459,45.417c-19.499,0-35.304,15.806-35.304,35.305c0,19.496,15.806,35.302,35.304,35.302
			c19.494,0,35.303-15.806,35.303-35.302C214.762,61.223,198.954,45.417,179.459,45.417"/>
		<path fill="#A4CD39" d="M179.438,46.622c-18.768,0-33.98,15.235-33.98,34.03c0,18.791,15.212,34.025,33.98,34.025
			c18.763,0,33.979-15.234,33.979-34.025C213.417,61.856,198.201,46.622,179.438,46.622"/>
		<path fill="#FFFFFF" d="M154.689,65.417c0.026-4.231,2.326-8.086,6.104-11.03c5.335-3.927,11.874-6.216,18.926-6.158
			c6.794,0.056,13.075,2.276,18.243,6.02c4.045,3.045,6.502,7.088,6.474,11.511c-0.033,5-3.235,9.473-8.305,12.542l0.004,0.004
			c-4.878,2.992-10.585,4.689-16.675,4.641c-7.261-0.057-13.94-2.59-19.29-6.814C156.715,73.192,154.664,69.46,154.689,65.417"/>
		<path fill="#0E0F19" d="M184.084,59.568c1.252-0.688,1.486-2.545,1.489-3.127c-0.002-2.562-1.974-4.27-5.502-4.27
			c-1.321-0.001-2.788,0.167-4.835,0.594v0.001c-0.105,0.022-0.183,0.12-0.184,0.236c0.001,0.018,0.003,0.04,0.006,0.057
			c0.539,3.267,0.514,8.36,0.079,13.513c-0.006,0.018-0.01,0.035-0.01,0.056c0,0.118,0.089,0.216,0.2,0.233
			c1.268,0.278,3.771,0.529,5.163,0.53c3.343-0.003,5.853-1.84,5.85-4.492C186.34,61.236,185.595,60.226,184.084,59.568
			 M180.032,55.301c1.258,0,2.114,0.657,2.126,1.599c0.028,1.795-2.92,1.518-3.15,1.468l-0.023-2.935
			C178.968,55.434,179.141,55.301,180.032,55.301 M180.364,64.389c-0.489,0-0.933-0.042-1.363-0.151l0.004-2.994
			c0,0,0.721-0.086,1.126-0.084c1.093,0,2.445,0.382,2.425,1.475C182.542,63.536,182.245,64.39,180.364,64.389"/>
		<path fill="#0E0F19" d="M166.267,53.941c-1.474,0.338-3.073,0.884-4.11,1.4c-0.002,0-0.002,0.001-0.004,0.001
			c-0.231,0.088-0.123,0.292-0.12,0.295c1.044,2.436,2.866,10.677,3.13,13.432v0.001c-0.002,0.021,0.002,0.039,0.006,0.061
			c0.029,0.125,0.155,0.206,0.278,0.175c0.002,0,3.451-1.05,3.453-1.05c0.129-0.028,0.208-0.153,0.181-0.281
			c-0.005-0.005-0.006-0.011-0.007-0.015c-0.018-0.07-0.039-0.158-0.072-0.302l-0.185-0.711l-0.565-2.585
			c0,0,0.885-0.183,0.947-0.195c3.737-0.861,5.715-3.703,5.033-6.694C173.529,54.397,170.379,52.992,166.267,53.941 M168.076,61.076
			c-0.273,0.065-0.581,0.09-0.577,0.089l-0.885-3.866c0,0,0.698-0.229,0.992-0.298c1.474-0.337,2.568,0.314,2.837,1.496
			C170.726,59.717,169.965,60.642,168.076,61.076"/>
		<path fill="#0E0F19" d="M194.969,58.154c0.039,0.045,0.25,0.152,0.314,0.158c0.107,0.008,0.152-0.049,0.152-0.049
			c0-0.001,0-0.001,0.001-0.001c0.219-0.177-0.021,0.031,1.882-2.192c0.038-0.035,0.061-0.083,0.071-0.138
			c0.023-0.107-0.072-0.215-0.08-0.21c-0.011,0.014-1.82-1.698-4.485-1.984c-3.312-0.356-5.639,1.621-5.822,4.512
			c-0.147,2.415,1.513,3.781,4.777,4.854c2.331,0.767,1.542,2.375,0.105,2.311c-0.919-0.041-2.32-0.681-3.192-1.513
			c0,0-0.035-0.046-0.127-0.061c-0.083-0.016-0.162,0.018-0.21,0.079l-1.866,2.154c-0.001,0.002-0.054,0.079-0.065,0.13
			c-0.021,0.13,0.077,0.206,0.077,0.208c1.328,1.381,3.159,2.162,4.966,2.275c3.104,0.192,5.348-1.65,5.57-4.394
			c0.241-2.914-2.268-3.982-4.04-4.573c-1.525-0.509-2.172-0.98-2.111-1.644C190.958,57.412,192.229,56.448,194.969,58.154"/>
		<path fill="#FFFFFF" d="M201.97,83.216c2,0.837,4.299-0.109,5.134-2.115c0.838-2.005-0.106-4.311-2.105-5.148
			c-2-0.84-4.301,0.106-5.136,2.111C199.026,80.069,199.969,82.378,201.97,83.216"/>
		<path fill="#FFFFFF" d="M194.032,92.51c-0.068-1.979-1.719-3.528-3.691-3.459c-1.972,0.066-3.517,1.725-3.45,3.702
			c0.069,1.977,1.722,3.525,3.691,3.459C192.555,96.143,194.101,94.483,194.032,92.51"/>
		<path fill="#FFFFFF" d="M175.698,103.952c3.47-0.864,5.584-4.367,4.718-7.83c-0.862-3.459-4.377-5.562-7.847-4.7
			c-3.469,0.862-5.581,4.364-4.718,7.829C168.713,102.708,172.227,104.815,175.698,103.952"/>
		<path fill="#0E0F19" d="M187.479,104.688c0.917-0.646,1.138-1.921,0.49-2.835c-0.647-0.914-1.926-1.135-2.841-0.488
			c-0.919,0.646-1.137,1.918-0.489,2.836c0.315,0.441,0.784,0.738,1.321,0.831C186.496,105.122,187.036,105.001,187.479,104.688
			 M185.781,103.394c-0.203-0.289-0.133-0.686,0.153-0.889c0.288-0.203,0.69-0.137,0.894,0.152c0.2,0.287,0.132,0.688-0.153,0.89
			c-0.143,0.097-0.312,0.134-0.48,0.106C186.027,103.624,185.88,103.533,185.781,103.394"/>
		<path fill="#0E0F19" d="M190.741,104.954c-2.724,3.352-7.167,3.732-7.21,3.736l-0.031,0.002l-0.035,0.004
			c-5.169,0.805-9.248-1.715-9.287-1.742c-0.363-0.229-0.848-0.116-1.077,0.248c-0.234,0.367-0.124,0.852,0.24,1.084
			c0.184,0.115,4.574,2.85,10.328,1.969c0.361-0.029,5.182-0.486,8.285-4.309c0.117-0.143,0.174-0.311,0.178-0.479
			c0.003-0.233-0.097-0.468-0.292-0.625C191.508,104.565,191.012,104.619,190.741,104.954"/>
		<path fill="#0E0F19" d="M172.381,90.659c-1.886,0.467-3.477,1.645-4.477,3.307c-0.991,1.656-1.281,3.602-0.815,5.472
			c0.968,3.876,4.911,6.241,8.796,5.276c1.885-0.471,3.477-1.645,4.477-3.312c0.994-1.653,1.283-3.599,0.815-5.47
			C180.209,92.059,176.265,89.692,172.381,90.659 M168.609,99.057c-0.364-1.462-0.138-2.981,0.641-4.279
			c0.782-1.306,2.032-2.229,3.512-2.595c3.043-0.76,6.138,1.097,6.893,4.131c0.099,0.395,0.157,0.791,0.171,1.188
			c0.035,1.08-0.24,2.148-0.806,3.09c-0.784,1.31-2.029,2.232-3.511,2.598C172.463,103.944,169.367,102.095,168.609,99.057"/>
		<path fill="#0E0F19" d="M170.565,100.826c1.28,0.167,2.448-0.735,2.616-2.009c0.167-1.275-0.731-2.443-2.013-2.607
			c-1.276-0.168-2.45,0.731-2.617,2.006C168.385,99.493,169.285,100.661,170.565,100.826"/>
		<path fill="#0E0F19" d="M186.191,92.771c0.082,2.36,2.063,4.216,4.414,4.135c2.352-0.081,4.201-2.065,4.123-4.425
			c-0.082-2.356-2.06-4.214-4.413-4.133C187.961,88.428,186.111,90.415,186.191,92.771 M187.465,92.731
			c-0.056-1.652,1.245-3.051,2.893-3.104c1.655-0.056,3.043,1.246,3.101,2.903c0.057,1.654-1.245,3.049-2.894,3.104
			C188.912,95.692,187.522,94.388,187.465,92.731"/>
		<path fill="#0E0F19" d="M188.871,94.661c0.858,0.111,1.644-0.494,1.752-1.353c0.114-0.862-0.488-1.65-1.353-1.763
			c-0.855-0.113-1.641,0.494-1.754,1.354C187.408,93.761,188.014,94.55,188.871,94.661"/>
		<path fill="#0E0F19" d="M198.059,93.131c-0.934-4.716-3.608-8.804-7.55-11.573h0.002c-0.005-0.004-0.013-0.008-0.018-0.01
			c-0.154-0.108-0.302-0.219-0.46-0.322c-0.589-0.386-1.196-0.736-1.815-1.049c-4.487-2.412-11.846-4.766-28.712,2.115l3.11,2.886
			l-6.132,2.198l4.733,3.08l-5.51,2.039l5.164,3.672c-1.708,0.874-2.897,2.627-2.942,4.682c-0.062,2.974,2.302,5.442,5.263,5.502
			c0.444,0.01,0.873-0.041,1.292-0.135c3.973,6.172,11.438,9.693,19.062,8.283c4.736-0.879,8.856-3.518,11.602-7.438
			C197.993,102.983,199.029,98.034,198.059,93.131 M163.222,104.815c-2.12-0.042-3.811-1.81-3.765-3.937
			c0.034-1.546,0.979-2.862,2.308-3.446c0.05,0.781,0.152,1.565,0.306,2.354c0.352,1.785,0.96,3.455,1.773,4.989
			C163.64,104.804,163.435,104.821,163.222,104.815 M193.805,106.177c-2.501,3.575-6.253,5.982-10.564,6.779
			c-9.099,1.684-17.961-4.343-19.763-13.431c-0.689-3.5-0.233-6.952,1.11-9.971l23.96-7.392c0.193,0.117,0.385,0.237,0.575,0.359
			c3.85,2.534,6.458,6.406,7.346,10.9C197.362,97.919,196.413,102.45,193.805,106.177"/>
		<path fill="#FFFFFF" d="M198.328,85.499c-0.606,0.997-0.295,2.3,0.692,2.902c0.993,0.615,2.287,0.305,2.897-0.691
			c0.607-0.996,0.298-2.297-0.694-2.906C200.234,84.194,198.933,84.506,198.328,85.499"/>
		<path fill="#0E0F19" d="M177.441,76.196l0.002,0.001l-0.11-0.571l-0.077-1.059l-0.002-0.039l-0.158-3.241l-0.002-0.046
			l-0.016-1.041l0.049-0.526l0-0.008c-0.001-0.028-0.021-0.05-0.048-0.049c0,0-0.462,0.021-0.903,0.045
			c-0.444,0.02-0.902,0.044-0.902,0.044c-0.023,0-0.044,0.024-0.045,0.052h0l0.002,0.01l0.098,0.516l0.086,1.039l0.004,0.048
			l0.154,3.241l0.002,0.038l0.028,1.062l-0.06,0.58c0,0.004-0.001,0.006,0,0.008c0,0.031,0.025,0.054,0.053,0.053l0.087-0.006
			l1.625-0.079l0.092-0.004c0.028,0,0.044-0.025,0.044-0.056C177.448,76.204,177.441,76.2,177.441,76.196"/>
		<path fill="#0E0F19" d="M185.444,73.163c-0.08,2.113-2.049,3.307-4.049,3.23c-0.471-0.02-0.56-0.031-0.994-0.067
			c-0.432-0.033-1.01-0.036-1.01-0.036l-0.092-0.004c-0.029-0.002-0.047-0.027-0.047-0.057c0.001-0.006,0-0.008,0.002-0.012h-0.002
			l0.113-0.585l0.066-1.08l-0.001-0.042l0.126-3.301l0.005-0.05l0.003-1.063l-0.061-0.533l0.002-0.01
			c0-0.028,0.025-0.052,0.05-0.051c0,0,0.419,0.02,0.577,0.021c0.226,0,0.978-0.035,1.477-0.013
			C183.794,69.612,185.526,70.997,185.444,73.163 M181.636,71.007c-0.156-0.007-0.227,0.001-0.351,0.022l-0.014,0.193l0,0.053
			l-0.127,3.305v0.04l-0.006,0.354c0.118,0.021,0.22,0.041,0.335,0.046c1.043,0.04,2.175-0.567,2.225-1.798
			C183.744,71.935,182.66,71.045,181.636,71.007"/>
		<path fill="#0E0F19" d="M174.213,76.282l-2.906-2.808c0.628-0.723,1.306-1.401,2.026-2.022V71.45
			c0.015-0.012,0.022-0.033,0.02-0.051c-0.003-0.014-0.012-0.025-0.022-0.034l-1.16-1.159c-0.015-0.011-0.026-0.017-0.042-0.016
			c-0.006,0.004-0.016,0.007-0.021,0.01c0,0,0-0.001-0.003,0c-1.11,0.981-2.17,2.127-3.066,3.329l-0.223-1.238l-0.008-0.048
			l-0.15-1.03l-0.015-0.527l-0.002-0.011c-0.008-0.025-0.032-0.045-0.057-0.042c0,0-0.453,0.083-0.886,0.163
			c-0.439,0.079-0.892,0.159-0.892,0.159c-0.026,0.005-0.042,0.033-0.038,0.06v0.011l0.167,0.498l0.22,1.019l0.007,0.047l0.576,3.19
			l0.008,0.04l0.16,1.049l0.018,0.583h0.002c0,0.005-0.002,0.005-0.002,0.009c0.008,0.031,0.032,0.051,0.058,0.045l0,0l0.09-0.015
			l1.599-0.29l0.089-0.018c0.03-0.006,0.045-0.032,0.039-0.059c0-0.007-0.003-0.009-0.003-0.012h0.003l-0.187-0.551l-0.126-0.619
			l0.011-0.041c0.255-0.402,0.527-0.794,0.807-1.178l1.911,1.988v-0.002c0.008,0.014,0.026,0.023,0.04,0.02
			c0.003,0,0.003,0,0.007-0.002v0.001l1.93-0.35V76.38c0.004-0.002,0.004,0,0.004,0c0.029-0.004,0.045-0.033,0.042-0.062
			C174.232,76.302,174.222,76.292,174.213,76.282"/>
		<path fill="#0E0F19" d="M192.418,75.466c0.396-2.913-3.929-2.414-3.796-3.355c0.082-0.623,1.823-0.813,3.074,0.6
			c0,0.002,0,0.002,0.001,0.003c0.009,0.005,0.018,0.013,0.028,0.014c0.021,0.001,0.034-0.007,0.045-0.019v-0.003
			c0.183-0.191,0.865-0.95,1.011-1.115c0.002-0.001,0.003-0.003,0-0.006c0.007-0.007,0.01-0.015,0.011-0.026
			c0.003-0.012,0.003-0.025-0.003-0.035l0.002-0.002c0,0-0.002,0-0.006,0c-0.001-0.002,0-0.004-0.001-0.004
			c-1-1.682-5.557-2.436-5.939,0.375c-0.377,2.723,4.071,2.584,3.859,3.447c-0.198,0.793-2.45,0.61-3.354-0.855
			c-0.011-0.014-0.027-0.021-0.035-0.023c-0.016,0-0.03,0.002-0.043,0.012c-0.205,0.165-1.004,0.845-1.19,1.014
			c-0.005,0.004-0.005,0.006-0.009,0.012c-0.006,0.008-0.011,0.016-0.014,0.027c0.001,0.02,0.002,0.029,0.01,0.042
			c0,0.001-0.001,0.003,0,0.001C187.836,78.149,192.028,78.307,192.418,75.466"/>
		<g>
			<path fill="#0E0F19" d="M209.049,102.452c1.066,0,1.962,0.846,1.962,1.969c0,1.121-0.896,1.967-1.962,1.967
				c-1.071,0-1.964-0.846-1.964-1.967C207.085,103.298,207.979,102.452,209.049,102.452z M209.049,106.103
				c0.896,0,1.615-0.73,1.615-1.682c0-0.952-0.719-1.685-1.615-1.685c-0.902,0-1.615,0.732-1.615,1.685
				C207.435,105.372,208.147,106.103,209.049,106.103z M208.3,103.267h0.865c0.543,0,0.803,0.217,0.803,0.656
				c0,0.418-0.265,0.594-0.607,0.631l0.66,1.016h-0.374l-0.623-0.99h-0.375v0.99H208.3V103.267z M208.648,104.294h0.358
				c0.312,0,0.612-0.016,0.612-0.387c0-0.316-0.275-0.354-0.512-0.354h-0.458V104.294z"/>
		</g>
	</g>
	<path fill="#FFFFFF" d="M235.965,95.692l-5.346-9.088c-0.288,0-0.576,0-0.863-0.041c0.041,2.673-0.041,6.045,0.165,8.266
		c-1.645,0.082-2.796,0.164-4.482,0.164c-1.439,0-2.878-0.041-4.317-0.164l0.165-28.25h1.234c3.536,0.082,7.319-0.247,10.814-0.247
		c4.935,0,9.499,4.276,9.499,9.334c0,4.235-1.521,7.278-4.153,9.047c1.727,3.042,3.578,6.126,5.715,8.84
		C242.297,94.54,238.35,95.363,235.965,95.692z M232.058,74.104c-0.575,0-1.768,0.041-2.343,0.123v5.182
		c0.534,0.082,1.686,0.123,2.261,0.123c1.892,0,2.426-1.316,2.426-3.002C234.402,75.338,233.457,74.104,232.058,74.104z"/>
	<path fill="#FFFFFF" d="M285.28,93.791c0,0-0.062-7.179-0.062-8.267c-0.217,0.342-4.164,7.552-4.631,8.267l-3.139,0.093
		c-0.279-0.527-3.449-7.676-3.947-8.391c0.031,0.87-0.123,8.174-0.123,8.174s-5.533,0.155-6.683,0.094
		c0,0,0.497-18.182,0.777-21.352c0,0,1.367-0.125,2.704-0.156c1.118,0,2.672,0.062,2.672,0.062s6.154,10.225,6.402,10.939
		l6.807-10.939l5.47,0.156c0,0,0.684,16.098,0.435,21.475C291.962,93.946,286.524,93.822,285.28,93.791z"/>
	<path fill="#FFFFFF" d="M304.341,94.632c-7.246,0-10.241-6.062-10.241-11.74c0-7.838,4.737-13.097,11.565-13.097
		c7.838,0,10.52,6.027,10.52,13.063C316.185,90.173,312.074,94.632,304.341,94.632z M305.282,77.318
		c-1.359,0-3.729,1.255-3.729,4.146c0,3.588,1.707,4.947,3.554,4.947c2.09,0,3.483-2.16,3.483-4.738
		C308.591,79.2,306.954,77.318,305.282,77.318z"/>
	<path fill="#FFFFFF" d="M324.153,94.792c0,0-0.068-9.143-0.103-10.978l-0.067-5.438c-3.195,0.034-5.846,0.102-6.221,0.102v-7.17
		l19.781,0.034v7.035c0,0-2.855,0-6.05-0.033c-0.034,1.155-0.034,2.242-0.034,3.059c0,4.35-0.068,8.666,0.068,13.391H324.153z"/>
	<g>
		<path fill="#FFFFFF" d="M251.517,84.714c0.165,1.971,1.644,2.834,3.285,2.957c2.136,0.164,4.806-0.779,5.997-2.135l2.669,5.298
			c0,0-2.874,3.695-8.172,3.695c-7.762,0-11.253-4.271-11.253-11.909c0-7.475,4.519-11.706,10.186-11.706
			c3.655,0,7.351,1.52,9.24,5.339c1.068,2.177,1.109,5.831,1.109,5.831L251.517,84.714z M257.637,79.089
			c-0.246-0.904-1.396-2.548-2.834-2.548c-1.231,0-3.203,0.903-3.367,3.942L257.637,79.089z"/>
	</g>
	<g>
		<path fill="#FFFFFF" d="M346.367,85.098c0.158,1.894,1.579,2.724,3.157,2.841c2.053,0.158,4.617-0.748,5.762-2.051l2.564,5.09
			c0,0-2.762,3.552-7.852,3.552c-7.459,0-10.814-4.104-10.814-11.444c0-7.182,4.342-11.247,9.787-11.247
			c3.513,0,7.064,1.461,8.879,5.13c1.027,2.093,1.066,5.604,1.066,5.604L346.367,85.098z M352.248,79.692
			c-0.237-0.869-1.343-2.447-2.724-2.447c-1.184,0-3.078,0.867-3.235,3.788L352.248,79.692z"/>
	</g>
</g>
</svg>
