<?xml version="1.0" encoding="utf-8"?>
<!-- Generator: Adobe Illustrator 14.0.0, SVG Export Plug-In . SVG Version: 6.00 Build 43363)  -->
<!DOCTYPE svg PUBLIC "-//W3C//DTD SVG 1.1//EN" "http://www.w3.org/Graphics/SVG/1.1/DTD/svg11.dtd">
<svg version="1.1" id="Layer_1" xmlns="http://www.w3.org/2000/svg" xmlns:xlink="http://www.w3.org/1999/xlink" x="0px" y="0px"
	 width="216px" height="200px" viewBox="0 0 216 200" enable-background="new 0 0 216 200" xml:space="preserve">
<g>
	<polyline fill="none" stroke="#ED2272" stroke-miterlimit="10" points="70,163.729 110.333,163.062 110.667,140.396 
		135.333,140.062 136,174.396 127.333,174.396 127.333,163.396 179,163.062 	"/>
	<polygon fill="none" stroke="#80787A" stroke-miterlimit="10" points="179.949,142.062 179.949,184.775 213.667,184.775 
		213.438,142.062 	"/>
	<polygon fill="#ED2272" points="184.647,146.525 184.571,175.213 209.128,175.213 209.051,146.592 	"/>
	<circle fill="none" stroke="#80787A" stroke-miterlimit="10" cx="196.524" cy="180.312" r="1.913"/>
	<polygon fill="#FFFFFF" points="197.369,155.032 198.945,159.883 204.046,159.883 199.92,162.881 201.496,167.732 197.369,164.734 
		193.242,167.732 194.818,162.881 190.692,159.883 195.793,159.883 	"/>
	<polygon fill="none" stroke="#80787A" stroke-miterlimit="10" points="2.602,130.885 2.379,174.021 3.085,197.889 73.667,198 
		70.134,174.021 69.911,130.551 	"/>
	<polygon fill="#ED2272" points="8.998,136.24 9.593,168.779 63.403,168.779 63.291,136.24 	"/>
	<line fill="none" stroke="#80787A" stroke-miterlimit="10" x1="2.379" y1="174.021" x2="70.134" y2="174.021"/>
	<polygon fill="#FFFFFF" points="36.442,142.04 38.956,149.775 47.089,149.775 40.509,154.557 43.022,162.291 36.442,157.511 
		29.862,162.291 32.375,154.557 25.795,149.775 33.929,149.775 	"/>
	<g>
		<polygon fill="none" stroke="#80787A" stroke-miterlimit="10" points="65.548,180.393 9.37,179.895 9.643,191.873 67.456,192.123 
					"/>
		<line fill="none" stroke="#80787A" stroke-miterlimit="10" x1="65.82" y1="183.887" x2="8.824" y2="183.887"/>
		<line fill="none" stroke="#80787A" stroke-miterlimit="10" x1="9.37" y1="187.881" x2="66.639" y2="187.631"/>
		<line fill="none" stroke="#80787A" stroke-miterlimit="10" x1="19.732" y1="191.873" x2="18.643" y2="180.393"/>
		<line fill="none" stroke="#80787A" stroke-miterlimit="10" x1="57.912" y1="180.893" x2="59.002" y2="192.123"/>
		<line fill="none" stroke="#80787A" stroke-miterlimit="10" x1="30.641" y1="179.895" x2="30.914" y2="187.631"/>
		<line fill="none" stroke="#80787A" stroke-miterlimit="10" x1="44.822" y1="180.393" x2="45.367" y2="187.631"/>
	</g>
</g>
<g>
	<path fill="none" stroke="#CDD7D5" stroke-miterlimit="10" d="M115,37.512c-2.209,0-4-1.791-4-4s1.791-4,4-4"/>
	<path fill="none" stroke="#CDD7D5" stroke-miterlimit="10" d="M127,29.512c2.209,0,4,1.791,4,4s-1.791,4-4,4"/>
	<g>
		<polygon fill="none" stroke="#80787A" stroke-miterlimit="10" points="65.547,50.791 9.37,50.373 9.643,60.395 67.457,60.604 		
			"/>
		<line fill="none" stroke="#80787A" stroke-miterlimit="10" x1="65.82" y1="53.713" x2="8.825" y2="53.713"/>
		<line fill="none" stroke="#80787A" stroke-miterlimit="10" x1="9.37" y1="57.055" x2="66.638" y2="56.846"/>
		<line fill="none" stroke="#80787A" stroke-miterlimit="10" x1="19.733" y1="60.395" x2="18.642" y2="50.791"/>
		<line fill="none" stroke="#80787A" stroke-miterlimit="10" x1="57.912" y1="51.209" x2="59.002" y2="60.604"/>
		<line fill="none" stroke="#80787A" stroke-miterlimit="10" x1="30.641" y1="50.373" x2="30.914" y2="56.846"/>
		<line fill="none" stroke="#80787A" stroke-miterlimit="10" x1="44.822" y1="50.791" x2="45.367" y2="56.846"/>
	</g>
	<line fill="none" stroke="#CDD7D5" stroke-miterlimit="10" x1="130.333" y1="33.846" x2="180" y2="33.512"/>
	<line fill="none" stroke="#CDD7D5" stroke-miterlimit="10" x1="69" y1="33.179" x2="110.333" y2="33.512"/>
	<polygon fill="none" stroke="#80787A" stroke-miterlimit="10" points="179.949,12.512 179.949,55.225 213.667,55.225 
		213.438,12.512 	"/>
	<polygon fill="#CDD7D5" points="184.647,16.975 184.571,45.663 209.128,45.663 209.051,17.042 	"/>
	<circle fill="#FFFFFF" stroke="#80787A" stroke-miterlimit="10" cx="196.524" cy="50.762" r="1.913"/>
	<polygon fill="none" stroke="#80787A" stroke-miterlimit="10" points="2.602,1.334 2.379,44.471 3.085,66.338 73.667,66.449 
		70.134,44.471 69.911,1 	"/>
	<polygon fill="#CDD7D5" points="8.998,6.689 9.593,39.229 63.403,39.229 63.292,6.689 	"/>
	<line fill="#BDD631" stroke="#80787A" stroke-miterlimit="10" x1="2.379" y1="44.471" x2="70.134" y2="44.471"/>
</g>
</svg>
