<?xml version="1.0" encoding="utf-8"?>
<!-- Generator: Adobe Illustrator 14.0.0, SVG Export Plug-In . SVG Version: 6.00 Build 43363)  -->
<!DOCTYPE svg PUBLIC "-//W3C//DTD SVG 1.1//EN" "http://www.w3.org/Graphics/SVG/1.1/DTD/svg11.dtd">
<svg version="1.1" id="Layer_1" xmlns="http://www.w3.org/2000/svg" xmlns:xlink="http://www.w3.org/1999/xlink" x="0px" y="0px"
	 width="100.076px" height="172.441px" viewBox="0 0 100.076 172.441" enable-background="new 0 0 100.076 172.441"
	 xml:space="preserve">
<g>
	<g>
		<rect x="24.966" y="3.726" fill="#059D9F" width="21.667" height="25.49"/>
		<rect x="29.029" y="6.83" fill="#FFFFFF" width="13.542" height="18.283"/>
	</g>
	<polygon fill="#059D9F" points="33.898,11.545 31.025,17.579 34.76,17.579 32.749,22.465 39.933,15.281 35.91,15.281 
		38.209,11.545 	"/>
</g>
<g>
	<rect x="52.316" y="2.169" fill="#059D9F" width="26.667" height="22.666"/>
	<rect x="56.316" y="6.835" fill="#FFFFFF" width="18.667" height="13.333"/>
	<rect x="82.949" y="7.169" fill="#059D9F" width="14.734" height="17.334"/>
	<rect x="87.083" y="10.835" fill="#FFFFFF" width="6.467" height="10"/>
	<polyline fill="none" stroke="#059D9F" stroke-miterlimit="10" points="65.983,22.169 65.983,31.503 90.649,31.503 90.649,21.503 	
		"/>
</g>
<g>
	<g>
		<rect x="24.966" y="37.995" fill="#B31E59" width="21.667" height="25.49"/>
		<rect x="29.029" y="41.099" fill="#FFFFFF" width="13.542" height="18.283"/>
	</g>
	<polygon fill="#B31E59" points="33.898,45.815 31.025,51.849 34.76,51.849 32.749,56.734 39.933,49.551 35.91,49.551 
		38.209,45.815 	"/>
</g>
<g>
	<rect x="52.316" y="36.438" fill="#B31E59" width="26.667" height="22.666"/>
	<rect x="56.316" y="41.105" fill="#FFFFFF" width="18.667" height="13.333"/>
	<rect x="82.949" y="41.438" fill="#B31E59" width="14.734" height="17.334"/>
	<rect x="87.083" y="45.105" fill="#FFFFFF" width="6.467" height="10"/>
	<polyline fill="none" stroke="#B31E59" stroke-miterlimit="10" points="65.983,56.438 65.983,65.772 90.649,65.772 90.649,55.772 	
		"/>
</g>
<g>
	<g>
		<rect x="24.966" y="72.557" fill="#71AB42" width="21.667" height="25.49"/>
		<rect x="29.029" y="75.661" fill="#FFFFFF" width="13.542" height="18.283"/>
	</g>
	<polygon fill="#71AB42" points="33.898,80.376 31.025,86.41 34.76,86.41 32.749,91.296 39.933,84.112 35.91,84.112 38.209,80.376 	
		"/>
</g>
<g>
	<rect x="52.316" y="71" fill="#71AB42" width="26.667" height="22.666"/>
	<rect x="56.316" y="75.667" fill="#FFFFFF" width="18.667" height="13.333"/>
	<rect x="82.949" y="76" fill="#71AB42" width="14.734" height="17.334"/>
	<rect x="87.083" y="79.667" fill="#FFFFFF" width="6.467" height="10"/>
	<polyline fill="none" stroke="#71AB42" stroke-miterlimit="10" points="65.983,91 65.983,100.334 90.649,100.334 90.649,90.334 	
		"/>
</g>
<g>
	<g>
		<rect x="24.966" y="107.021" fill="#047C99" width="21.667" height="25.49"/>
		<rect x="29.029" y="110.125" fill="#FFFFFF" width="13.542" height="18.283"/>
	</g>
	<polygon fill="#047C99" points="33.898,114.842 31.025,120.875 34.76,120.875 32.749,125.761 39.933,118.577 35.91,118.577 
		38.209,114.842 	"/>
</g>
<g>
	<rect x="52.316" y="105.465" fill="#047C99" width="26.667" height="22.666"/>
	<rect x="56.316" y="110.131" fill="#FFFFFF" width="18.667" height="13.334"/>
	<rect x="82.949" y="110.465" fill="#047C99" width="14.734" height="17.334"/>
	<rect x="87.083" y="114.131" fill="#FFFFFF" width="6.467" height="10"/>
	<polyline fill="none" stroke="#047C99" stroke-miterlimit="10" points="65.983,125.465 65.983,134.799 90.649,134.799 
		90.649,124.799 	"/>
</g>
<g>
	<g>
		<rect x="24.966" y="141.51" fill="#FAA31B" width="21.667" height="25.49"/>
		<rect x="29.029" y="144.613" fill="#FFFFFF" width="13.542" height="18.283"/>
	</g>
	<polygon fill="#FAA31B" points="33.898,149.33 31.025,155.363 34.76,155.363 32.749,160.249 39.933,153.065 35.91,153.065 
		38.209,149.33 	"/>
</g>
<g>
	<rect x="52.316" y="139.953" fill="#FAA31B" width="26.667" height="22.666"/>
	<rect x="56.316" y="144.619" fill="#FFFFFF" width="18.667" height="13.334"/>
	<rect x="82.949" y="144.953" fill="#FAA31B" width="14.734" height="17.334"/>
	<rect x="87.083" y="148.619" fill="#FFFFFF" width="6.467" height="10"/>
	<polyline fill="none" stroke="#FAA31B" stroke-miterlimit="10" points="65.983,159.953 65.983,169.287 90.649,169.287 
		90.649,159.287 	"/>
</g>
</svg>
