<?xml version="1.0" encoding="utf-8"?>
<!-- Generator: Adobe Illustrator 17.1.0, SVG Export Plug-In . SVG Version: 6.00 Build 0)  -->
<!DOCTYPE svg PUBLIC "-//W3C//DTD SVG 1.1//EN" "http://www.w3.org/Graphics/SVG/1.1/DTD/svg11.dtd">
<svg version="1.1" id="Layer_1" xmlns="http://www.w3.org/2000/svg" xmlns:xlink="http://www.w3.org/1999/xlink" x="0px" y="0px"
	 width="594px" height="291px" viewBox="-18 -71 594 291" enable-background="new -18 -71 594 291" xml:space="preserve">
<g>
	<g>
		<polygon fill="#FFCE00" points="150.2,72.5 150.2,128.4 386,130.6 386.8,21.2 173.2,19.6 173.2,69.4 		"/>
	</g>
	<g>
		<ellipse fill="#2D2609" cx="176.2" cy="128.4" rx="10" ry="13"/>
	</g>
	<g>
		<ellipse fill="#FFFFFF" cx="176.2" cy="128.4" rx="2.4" ry="3.5"/>
	</g>
	<g>
		<ellipse fill="#2D2609" cx="361.5" cy="128.4" rx="10" ry="13"/>
	</g>
	<g>
		<ellipse fill="#FFFFFF" cx="361.5" cy="128.4" rx="2.4" ry="3.5"/>
	</g>
	<g>
		<polygon fill="#00C3F7" points="173.2,28 386.8,30.8 386.8,70.3 173.2,69.6 		"/>
	</g>
	<g>
		
			<rect x="190.4" y="21.9" transform="matrix(0.9999 1.301973e-02 -1.301973e-02 0.9999 0.6856 -2.4946)" fill="#FFCE00" width="3" height="59"/>
	</g>
	<g>
		<rect x="299.9" y="21.9" fill="#FFCE00" width="3" height="59"/>
	</g>
	<g>
		
			<rect x="359.6" y="21.9" transform="matrix(0.9999 1.301973e-02 -1.301973e-02 0.9999 0.6999 -4.6976)" fill="#FFCE00" width="3" height="59"/>
	</g>
	<g>
		<path fill="#D1A002" d="M379.4,131.6l-2-0.4c0-0.1,1.9-10.6-3.5-17.4c-3-3.7-7.7-5.7-13.9-5.9c-4.6-0.2-8.2,1.2-10.8,4
			c-6.1,6.4-5,18.5-5,18.7l-2,0.2c-0.1-0.5-1.2-13.1,5.5-20.2c3-3.2,7.2-4.8,12.4-4.6c6.9,0.2,12.1,2.5,15.4,6.7
			C381.5,120.2,379.4,131.1,379.4,131.6z"/>
	</g>
	<g>
		<path fill="#D1A002" d="M195.6,129.3l-2-0.4c0-0.1,1.8-8.9-3-15c-3-3.8-7.8-5.8-14.5-6c-4.8-0.2-8.5,1.2-11.2,4
			c-5.7,6.1-4.7,17-4.6,17.1l-2,0.2c0-0.5-1.1-11.9,5.2-18.6c3.1-3.3,7.3-4.9,12.7-4.7c7.3,0.2,12.6,2.5,16,6.8
			C197.6,119.6,195.7,128.9,195.6,129.3z"/>
	</g>
	<g>
		
			<rect x="247.6" y="21.9" transform="matrix(0.9999 1.301973e-02 -1.301973e-02 0.9999 0.6904 -3.2384)" fill="#FFCE00" width="3" height="59"/>
	</g>
	<g>
		<polygon fill="#2D2609" points="150.2,89.6 386,89.9 386,98.5 150.2,97.5 		"/>
	</g>
	<g>
		<polygon fill="#2D2609" points="150.2,78.6 386,78.9 386,87.5 150.2,86.5 		"/>
	</g>
</g>
<g>
	<path fill="#FFFFFF" d="M428.6,118.2c0,0,10.5,9.6,1.4,12.8s-9.1-8.2-9.1-8.2s-17.8,11.8-18.7,0.5c-0.9-11.4,11.8-10.5,11.8-10.5
		s-17.8-13.7-4.6-18.7c13.2-5,12.3,13.2,12.3,13.2s10.1-17.2,18.1-5.2S436,119.7,428.6,118.2z"/>
</g>
<g>
	<path fill="#FFFFFF" d="M52-22.9c0,3-0.7,5.5-2,7.5c-1.4,2-3.1,3.6-5.2,4.8c-2.1,1.2-4.5,2.1-7,2.6c-2.5,0.5-5,0.8-7.4,0.8
		c-1.4,0-3,0-4.7-0.1c-1.7-0.1-3.4-0.2-5.2-0.4C18.7-7.8,17-8,15.2-8.4c-1.8-0.3-3.4-0.8-5-1.4l1.9-17c1.3,0.4,2.6,0.8,3.8,1.2
		c1.3,0.4,2.6,0.8,3.8,1.2c1.3,0.4,2.5,0.7,3.6,0.9c1.1,0.2,2,0.4,2.6,0.4c0.3,0,0.7,0,1.2,0c0.5,0,0.9-0.1,1.4-0.2
		c0.5-0.1,0.8-0.3,1.2-0.5c0.3-0.2,0.5-0.5,0.5-1c0-1-0.9-2-2.6-3c-0.9-0.6-1.9-1.2-3.1-1.8c-1.2-0.6-2.4-1.3-3.6-2
		c-1.2-0.7-2.5-1.5-3.7-2.4c-1.2-0.9-2.3-2-3.3-3.2s-1.7-2.6-2.4-4.1c-0.6-1.5-0.9-3.3-0.9-5.4c0-3.3,0.6-6,1.9-8.2s3-4,5-5.4
		c2.1-1.4,4.5-2.3,7.1-2.9c2.7-0.6,5.4-0.9,8.2-0.9c3,0,6.2,0.3,9.4,0.9c3.2,0.6,6.4,1.6,9.5,3L49-44.2c-2.7-1.2-5.1-2.1-7.4-2.8
		s-4.5-1.1-6.7-1.1c-0.4,0-0.9,0-1.4,0c-0.5,0-1.1,0.1-1.6,0.2c-0.5,0.1-0.9,0.3-1.3,0.6c-0.3,0.3-0.5,0.7-0.5,1.2
		c0,0.4,0.3,0.8,0.8,1.1c0.6,0.3,1.3,0.7,2.1,1.2c1.1,0.6,2.3,1.2,3.6,1.8c1.3,0.6,2.7,1.4,4,2.2c1.4,0.9,2.8,1.8,4.1,2.9
		c1.4,1.1,2.6,2.3,3.6,3.6c1.1,1.4,1.9,2.9,2.6,4.6C51.7-26.8,52-25,52-22.9z"/>
	<path fill="#FFFFFF" d="M102.2-13c-1,0.7-2.2,1.4-3.4,2c-1.3,0.7-2.6,1.3-4,1.8c-1.4,0.5-2.8,1-4.2,1.3c-1.4,0.3-2.7,0.5-3.9,0.5
		C82-7.4,77.9-8,74.2-9.3c-3.7-1.3-6.7-3.2-9.3-5.7c-2.5-2.5-4.5-5.6-5.8-9.3c-1.3-3.7-2-7.9-2-12.7c0-3.8,0.7-7.4,2.2-10.7
		c1.4-3.3,3.4-6.1,5.9-8.5c2.5-2.4,5.4-4.3,8.8-5.6c3.4-1.4,7-2,10.8-2c2.7,0,5.4,0.3,8.2,0.8c2.7,0.5,5.4,1.1,8.2,1.9
		c-0.1,1.1-0.3,2.4-0.5,4c-0.2,1.6-0.5,3.2-0.9,4.8c-0.3,1.7-0.7,3.2-1.2,4.7c-0.5,1.5-1,2.7-1.6,3.7c-0.6-0.2-1.2-0.5-2-0.9
		c-0.7-0.4-1.5-0.7-2.3-1.1c-0.8-0.3-1.7-0.6-2.6-0.9c-0.9-0.2-1.8-0.4-2.7-0.4c-1.4,0-2.8,0.3-4.1,0.8c-1.3,0.6-2.4,1.3-3.4,2.2
		c-1,0.9-1.7,2-2.3,3.2c-0.6,1.3-0.9,2.5-0.9,3.9c0,3.5,0.8,6.3,2.5,8.4c1.7,2.1,4,3.2,6.9,3.2c1.7,0,3.3-0.3,5-1
		c1.7-0.6,3.2-1.4,4.6-2.2L102.2-13z"/>
	<path fill="#FFFFFF" d="M155-63.8v4.4c0,1.3,0,2.7,0,4.2c0,1.5-0.1,3-0.2,4.4c-0.2,3.2-0.3,6.6-0.4,10.2s-0.1,7.2-0.2,11
		c0,3.7-0.1,7.5-0.2,11.2c-0.1,3.7-0.2,7.3-0.4,10.8c-2.7-0.1-5.1-0.1-7.4-0.2c-2-0.1-3.9-0.1-5.8-0.1c-1.9,0-3.2-0.1-4-0.1
		c0-1.6,0-3.1,0.1-4.5c0.1-1.2,0.1-2.4,0.1-3.6c0-1.2,0-2.1,0-2.8c0-0.5,0-1.2,0-2c0-0.8-0.1-1.6-0.1-2.4c0-0.8-0.1-1.6-0.1-2.3
		c0-0.7,0-1.3,0-1.6h-10.6c0,0.5,0,1.3,0,2.4c0,1.1,0,2.2,0,3.4c0,1.1,0,2.2,0,3.3c0,1,0,1.8,0,2.3v4.6v2.9
		c-2.7,0.1-5.2,0.1-7.5,0.2c-2,0.1-3.9,0.1-5.8,0.1c-1.9,0-3.2,0-3.9,0c0-3,0-5.9-0.1-8.6c-0.1-2.4-0.1-4.8-0.1-7.2
		c0-2.4-0.1-4.4-0.1-6c-0.1-2.7-0.2-5.5-0.2-8.4c-0.1-2.9-0.1-5.9-0.1-8.8c0-2.9-0.1-5.8-0.1-8.5c-0.1-2.7-0.1-5.2-0.1-7.4
		c1.4-0.1,2.9-0.2,4.2-0.2c1.2-0.1,2.4-0.1,3.6-0.1c1.2,0,2.3-0.1,3.2-0.1c0.7,0,1.5,0,2.3,0c0.8,0,1.5,0,2.2,0
		c0.8,0.1,1.6,0.1,2.4,0.1c-0.1,2.3-0.1,4.4-0.1,6.3v7.5c0,0.3,0,0.7,0,1.2c0,0.5,0,1.1,0,1.6c0,0.6,0,1.1,0,1.7c0,0.5,0,1,0,1.4
		l11.2,0.2c0-0.6,0-1.4-0.1-2.5c-0.1-1.1-0.1-2.2-0.2-3.3c-0.1-1.1-0.1-2.2-0.1-3.2c0-1,0-1.8,0-2.4c0-0.6,0-1.4,0-2.4
		c0-1,0-1.9,0-2.8v-3.3L155-63.8z"/>
	<path fill="#FFFFFF" d="M212.7-34.2c0,4.2-0.6,8-1.8,11.3c-1.2,3.3-2.9,6.2-5.2,8.5c-2.3,2.3-5.1,4.1-8.5,5.4
		c-3.4,1.3-7.3,1.9-11.7,1.9c-4.2,0-7.7-0.8-10.7-2.4c-3-1.6-5.4-3.6-7.3-6.2c-1.9-2.6-3.3-5.5-4.2-8.7c-0.9-3.2-1.3-6.5-1.3-9.7
		c0-4.5,0.7-8.6,2-12.3c1.3-3.7,3.1-6.9,5.4-9.5c2.3-2.6,5.1-4.7,8.4-6.1c3.3-1.4,6.9-2.2,10.8-2.2c4.5,0,8.3,0.8,11.4,2.4
		c3.1,1.6,5.6,3.8,7.5,6.5c1.9,2.7,3.3,5.9,4.1,9.6C212.2-42.1,212.7-38.3,212.7-34.2z M195.2-37c0-1.4-0.2-2.8-0.6-4
		s-1-2.3-1.7-3.2c-0.7-0.9-1.5-1.6-2.4-2.1c-0.9-0.5-1.8-0.8-2.8-0.8c-0.8,0-1.7,0.2-2.7,0.6c-1,0.4-1.9,0.9-2.8,1.7
		c-0.9,0.8-1.6,1.8-2.2,3c-0.6,1.2-0.9,2.6-0.9,4.3c0,2.1,0.2,3.8,0.7,5.3c0.5,1.4,1.1,2.6,1.8,3.5c0.7,0.9,1.6,1.6,2.6,2
		c1,0.4,2,0.6,3.1,0.6c1.2,0,2.3-0.3,3.2-0.9c1-0.6,1.8-1.4,2.6-2.4c0.7-1,1.3-2.1,1.6-3.4C195-34.1,195.2-35.5,195.2-37z"/>
	<path fill="#FFFFFF" d="M267.2-34.2c0,4.2-0.6,8-1.8,11.3c-1.2,3.3-2.9,6.2-5.2,8.5c-2.3,2.3-5.1,4.1-8.5,5.4
		c-3.4,1.3-7.3,1.9-11.7,1.9c-4.2,0-7.7-0.8-10.7-2.4c-3-1.6-5.4-3.6-7.3-6.2c-1.9-2.6-3.3-5.5-4.2-8.7c-0.9-3.2-1.3-6.5-1.3-9.7
		c0-4.5,0.7-8.6,2-12.3c1.3-3.7,3.1-6.9,5.4-9.5c2.3-2.6,5.1-4.7,8.4-6.1c3.3-1.4,6.9-2.2,10.8-2.2c4.5,0,8.3,0.8,11.4,2.4
		c3.1,1.6,5.6,3.8,7.5,6.5c1.9,2.7,3.3,5.9,4.1,9.6C266.8-42.1,267.2-38.3,267.2-34.2z M249.8-37c0-1.4-0.2-2.8-0.6-4
		s-1-2.3-1.7-3.2c-0.7-0.9-1.5-1.6-2.4-2.1c-0.9-0.5-1.8-0.8-2.8-0.8c-0.8,0-1.7,0.2-2.7,0.6c-1,0.4-1.9,0.9-2.8,1.7
		c-0.9,0.8-1.6,1.8-2.2,3c-0.6,1.2-0.9,2.6-0.9,4.3c0,2.1,0.2,3.8,0.7,5.3c0.5,1.4,1.1,2.6,1.8,3.5c0.7,0.9,1.6,1.6,2.6,2
		c1,0.4,2,0.6,3.1,0.6c1.2,0,2.3-0.3,3.2-0.9c1-0.6,1.8-1.4,2.6-2.4c0.7-1,1.3-2.1,1.6-3.4C249.6-34.1,249.8-35.5,249.8-37z"/>
	<path fill="#FFFFFF" d="M313.6-26.9c0,3.4-0.1,6.6-0.2,9.6c-0.1,3-0.3,6.2-0.4,9.7c-2.1-0.2-4.3-0.4-6.4-0.5
		c-2.1-0.1-4.1-0.2-6.1-0.2c-1,0-2.5,0-4.7,0c-2.2,0-4.5,0.1-7.1,0.2c-2.6,0.1-5.2,0.2-7.8,0.2c-2.6,0.1-4.8,0.1-6.6,0.2
		c0-9.3-0.1-18.5-0.4-27.8c-0.3-9.2-0.4-18.5-0.4-27.8l18.8-0.3c-0.3,4.9-0.5,9.6-0.7,14c-0.2,4.5-0.4,9.1-0.6,14c0,0.5,0,1.2,0,2
		c0,0.8,0,1.7,0,2.6s0,1.7,0,2.6c0,0.9,0,1.6,0,2.2c1.1-0.1,2.6-0.1,4.5-0.2c1.9-0.1,4-0.2,6.2-0.2c2.2-0.1,4.4-0.2,6.5-0.2
		C310.2-26.8,312.1-26.8,313.6-26.9z"/>
	<path fill="#FFFFFF" d="M357.3-8c0-4.1,0-7.8-0.1-11.3c0-1.5,0-3,0-4.5c0-1.5-0.1-2.9-0.1-4.2c0-1.3,0-2.5,0-3.5c0-1,0-1.8,0-2.4
		l-0.2-12.8c-1.9,0-3.6,0-5.3,0c-1.7,0-3.2,0.1-4.5,0.1c-1.3,0-2.4,0.1-3.2,0.1c-0.9,0-1.4,0-1.6,0v-16.9l46.6,0.1v16.6h-4.3
		c-1.3,0-2.9,0-4.6,0c-1.7,0-3.5,0-5.4-0.1c-0.1,1.4-0.1,2.7-0.1,3.9c0,1.2,0,2.3,0,3.3c0,5.2,0,10.3,0,15.4c0,5.1,0,10.5,0.2,16.1
		H357.3z"/>
	<path fill="#FFFFFF" d="M411.2-51.7c-0.1,5.9-0.2,11.7-0.3,17.5c-0.1,5.8-0.2,11.7-0.2,17.5c0,0.5,0,1.3,0,2.2c0,0.9,0,1.9,0.1,2.8
		c0.1,1.1,0.1,2.3,0.2,3.6h-17c-0.1-4.1-0.1-7.8-0.2-11.3c0-1.5,0-3,0-4.5c0-1.5-0.1-2.9-0.1-4.2c-0.1-1.3-0.1-2.5-0.1-3.5
		c0-1,0-1.8,0-2.4c-0.1-0.7-0.1-1.7-0.1-2.9c0-1.2-0.1-2.6-0.1-4c-0.1-1.5-0.1-3-0.2-4.5c-0.1-1.5-0.1-3-0.1-4.4
		c0-1.4-0.1-2.6-0.1-3.6c-0.1-1.1-0.1-1.8-0.1-2.3c-0.1-0.7-0.1-1.5-0.1-2.4c0-0.9,0-1.7,0-2.5v-2.7l18.2-0.1c0.1,1.2,0.2,2.9,0.3,5
		C411.3-56.2,411.3-54,411.2-51.7z"/>
	<path fill="#FFFFFF" d="M484.1-7.6c-2.7-0.1-5.1-0.1-7.4-0.2c-2-0.1-3.9-0.1-5.8-0.1c-1.9,0-3.2-0.1-4-0.1
		c-0.1-3.5-0.1-6.7-0.1-9.6c-0.1-2.5-0.1-4.9-0.1-7.2c0-2.3,0-3.8,0-4.5c-0.1,0.2-0.4,0.7-1,1.8c-0.6,1-1.3,2.3-2.1,3.7
		c-0.8,1.5-1.7,3.1-2.6,4.8c-0.9,1.7-1.8,3.4-2.7,4.9c-0.9,1.5-1.6,2.8-2.2,4C455.5-9,455-8.3,454.8-8l-8.1,0.2
		c-0.1-0.2-0.4-0.9-0.9-1.9c-0.5-1.1-1.1-2.4-1.8-3.9c-0.7-1.5-1.4-3.1-2.2-4.8c-0.8-1.7-1.5-3.3-2.2-4.8c-0.7-1.5-1.3-2.8-1.9-4
		s-0.9-1.8-1.2-2.2c0,0.3,0,0.8,0,1.6c0,0.8,0,1.7,0,2.7c0,1-0.1,2.2-0.1,3.4c0,1.2,0,2.5,0,3.7c-0.1,2.9-0.1,6.2-0.2,9.7
		c-2.7,0.1-5.2,0.1-7.5,0.2c-2,0.1-3.9,0.1-5.8,0.1c-1.9,0-3.2,0-3.9,0c0.3-8.8,0.5-16.9,0.7-24.4c0.1-3.2,0.2-6.4,0.3-9.6
		c0.1-3.2,0.2-6.2,0.3-8.9c0.1-2.7,0.2-5.2,0.3-7.3c0.1-2.1,0.2-3.7,0.3-4.7c0.7-0.1,1.4-0.1,2.2-0.2c0.6-0.1,1.4-0.1,2.2-0.1
		c0.8,0,1.7-0.1,2.6-0.1c0.7,0,1.5,0,2.3,0c0.8,0,1.5,0,2.2,0c0.8,0.1,1.6,0.1,2.4,0.1c2.9,4.9,5.6,9.4,8,13.4c1,1.7,2,3.4,3,5.1
		s1.8,3.2,2.6,4.6c0.8,1.4,1.5,2.5,2,3.4c0.5,0.9,0.8,1.5,0.9,1.7l17.5-28.2l14.1,0.4c0.3,7.9,0.6,15.4,0.8,22.5
		c0.1,3,0.1,6.1,0.2,9.3c0.1,3.1,0.1,6.2,0.2,9.1c0.1,2.9,0.1,5.6,0,8.1C484.2-11.4,484.2-9.3,484.1-7.6z"/>
	<path fill="#FFFFFF" d="M530.9-8.1h-8.7c-1.2,0-2.4,0-3.6,0s-2.4,0-3.5,0C514-8,513-8,512.1-8c-0.9,0-1.7,0-2.4,0
		c-1.2,0.1-2.8,0.1-4.7,0c-1.9,0-3.7,0-5.6,0c-2.1,0-4.3,0-6.6-0.1v-5c0-1.5,0-3.4,0-5.4s0-4.4-0.1-6.9c-0.1-2.5-0.1-5.3-0.2-8.2
		c-0.1-3-0.2-6.1-0.2-9.3c-0.1-3.2-0.1-6.5-0.2-10c-0.1-3.4-0.1-6.8-0.2-10.2c2.8,0,5.5,0,8.1-0.1c2.2-0.1,4.5-0.1,6.7-0.1
		c2.2,0,4-0.1,5.2-0.1c1.1-0.1,2.7-0.1,4.8,0c2.1,0,4.2,0,6.3,0c2.5,0.1,5,0.1,7.8,0.1v14.4c-4.1-0.5-8-0.7-11.7-0.5
		c-3.7,0.1-7.5,0.3-11.4,0.5l0.1,5.1c0.3-0.1,0.9-0.1,1.6-0.1c0.7,0,1.5,0,2.3,0s1.6,0,2.3,0c0.7,0,1.2,0,1.6,0c0.5,0,1.2,0,2.2,0
		c1,0,2,0,3,0c1.2,0,2.4,0,3.8-0.1c0.1,0.3,0.2,1.1,0.4,2.3c0.1,1.2,0.2,2.7,0.2,4.4c0,1.9,0,3.5-0.1,4.9c-0.1,1.4-0.1,2.1-0.2,2.1
		c-0.6,0-1.6,0-3.1,0c-1.5,0-3.1,0.1-4.8,0.1c-1.7,0-3.3,0.1-4.9,0.1c-1.6,0-2.7,0.1-3.4,0.1v4.9c1.2,0.1,2.6,0.2,4.3,0.2
		c1.7,0.1,3.6,0.1,5.6,0.1s4.1,0,6.2,0c2.1,0,4.2-0.1,6.1-0.3V-8.1z"/>
</g>
<g>
	<polygon fill="#FFFFFF" points="569.5,214.5 569,214.5 498,212.5 498,211.5 568.5,213.5 570.5,106.5 502.5,107.5 502.5,150.5 
		7.5,149.5 7.5,68 8.5,68 8.5,148.5 501.5,149.5 501.5,106.5 571.5,105.5 	"/>
</g>
<g>
	<polygon fill="#E54B1C" points="1,81.3 -10.3,70 -10.3,54 1,42.7 17,42.7 28.3,54 28.3,70 17,81.3 	"/>
</g>
<g>
	<g>
		<polygon fill="#FFFFFF" points="0.3,68.6 -5.9,68.6 -5.9,67.6 -0.7,67.6 -0.7,62.4 -6.1,62 -6.5,55.2 -0.2,55.2 -0.2,56.2 
			-5.4,56.2 -5.2,61.1 0.3,61.4 		"/>
	</g>
	<g>
		<rect x="1.5" y="55.2" fill="#FFFFFF" width="6.8" height="1"/>
	</g>
	<g>
		<rect x="4.2" y="55.7" fill="#FFFFFF" width="1" height="13.4"/>
	</g>
	<g>
		<path fill="#FFFFFF" d="M15.1,68.9H10V55.2h4.8L15.1,68.9z M11,67.9h3.1l-0.3-11.7H11V67.9z"/>
	</g>
	<g>
		<path fill="#FFFFFF" d="M18.1,69.2h-1V55.6h6.4v9h-5.4V69.2z M18.1,63.6h4.4v-7h-4.4V63.6z"/>
	</g>
</g>
<g>
	<g>
		<path fill="#231F20" d="M229.6,58.4c0,0,1.8,2.3,2.3-0.2c0,0,1.7,2.7-0.9,3.6c-2.6,0.9-5.3-2.4-5.3-2.4L229.6,58.4z"/>
	</g>
	<g>
		<circle fill="#A6EF18" cx="218.7" cy="50.9" r="13.9"/>
	</g>
	<g>
		<ellipse transform="matrix(-0.98 0.1989 -0.1989 -0.98 439.7544 61.6367)" fill="#FFFFFF" cx="216.8" cy="52.9" rx="5" ry="6"/>
	</g>
	<g>
		
			<ellipse transform="matrix(-0.9808 0.1952 -0.1952 -0.9808 439.8883 62.3048)" fill="#F953D2" cx="216.9" cy="52.8" rx="2.8" ry="3.6"/>
	</g>
	<g>
		<path fill="#FFFFFF" d="M230,45.2c0.6-0.1,1.1,0.1,1.6,0.3c0.5,1.2,0.8,2.4,0.9,3.8c0.2,2.4-0.2,4.6-1,6.7c-0.2,0-0.3,0.1-0.5,0.1
			c-2.1,0.2-4-2.1-4.3-5.1C226.4,48,227.9,45.4,230,45.2z"/>
	</g>
	<g>
		<circle fill="#497F0A" cx="225.8" cy="57.8" r="0.4"/>
	</g>
	<g>
		<path fill="#497F0A" d="M224.4,61.5c-0.7,0-1.6-0.2-2.6-1c-0.3-0.3-0.4-0.7-0.1-1.1c0.3-0.3,0.7-0.4,1.1-0.1
			c1.2,1,2.2,0.6,2.2,0.6c0.4-0.2,0.8-0.1,1,0.3c0.2,0.4,0.1,0.8-0.3,1C225.7,61.2,225.1,61.5,224.4,61.5z"/>
	</g>
	<g>
		
			<ellipse transform="matrix(-0.9965 8.413149e-02 -8.413149e-02 -0.9965 462.5058 81.933)" fill="#F953D2" cx="229.5" cy="50.7" rx="2" ry="3"/>
	</g>
	<g>
		<path fill="#231F20" d="M214,37.6c12.4-3.6,17.5,5.7,17.5,5.7s-15.5-0.2-23.9,4.7c1.1,10.3,1.7,12.5,2.8,12.6
			c1.9,0.2,1.8-1.4,1.8-1.4s1.8,2.1-0.1,3.9c-2.7,2.5-7.4-3.2-7.7-10.9C204.1,45,206,39.9,214,37.6z"/>
	</g>
</g>
<g>
	<g>
		<ellipse fill="#A6EF18" cx="275.6" cy="52.8" rx="12.6" ry="11.7"/>
	</g>
	<g>
		<ellipse fill="#497F0A" cx="273.2" cy="57.8" rx="0.4" ry="0.4"/>
	</g>
	<g>
		<path d="M283.9,44c0,0-13.7,4-18.5-3.3c0,0,3.2,1.1,4.5,1.2c0,0-1.5-1.7-2.3-2.8c0,0,3.8,1.9,5.6,2C273.3,41.1,279.9,40,283.9,44z
			"/>
	</g>
	<g>
		<ellipse fill="#FFFFFF" cx="281" cy="52.9" rx="5.1" ry="5.5"/>
	</g>
	<g>
		<path fill="#FFFFFF" d="M264.5,47.2c0.8-0.5,1.7-0.8,2.6-0.8c2.7,0,4.9,2.4,4.9,5.3c0,2.9-2.2,5.3-4.9,5.3c-1.6,0-3.1-0.9-4-2.2
			c-0.1-0.6-0.1-1.2-0.1-1.8C263,50.9,263.5,49,264.5,47.2z"/>
	</g>
	<g>
		<path fill="#497F0A" d="M273.8,61.8c-0.9,0-1.9-0.3-2.8-1.3c-0.3-0.3-0.2-0.8,0.1-1.1c0.3-0.3,0.8-0.2,1.1,0.1
			c1.1,1.3,2.5,0.7,2.5,0.6c0.4-0.2,0.8,0,1,0.3c0.2,0.4,0.1,0.8-0.3,1C275,61.7,274.4,61.8,273.8,61.8z"/>
	</g>
	<g>
		<ellipse fill="#00C3F7" cx="280.8" cy="52.8" rx="2.4" ry="2.8"/>
	</g>
	<g>
		<ellipse fill="#00C3F7" cx="267.1" cy="51.8" rx="2.4" ry="2.8"/>
	</g>
	<g>
		<path fill="#A6EF18" d="M287.9,53.3c0,0,2.7-1.3,2.9,1.4c0.2,2.7-1.5,4.3-4.2,2.5C283.8,55.5,287.9,53.3,287.9,53.3z"/>
	</g>
</g>
<g>
	<g>
		<path d="M318.5,60.1c0,0,0,3-2.7,1.5c0,0,0.5,2.8,3.3,2.6c2.8-0.3,3.4-3.2,3.4-3.2L318.5,60.1z"/>
	</g>
	<g>
		<path d="M337.6,59.4c0,0,0,3,2.7,1.5c0,0-0.5,2.8-3.3,2.6c-2.8-0.3-3.4-3.2-3.4-3.2L337.6,59.4z"/>
	</g>
	<g>
		<path fill="#FFFFFF" d="M340.8,46.9c-1.9-4.8-6.9-8.3-12.7-8.3c-7.5,0-13.5,5.6-13.5,12.6c0,3.5,1.5,6.6,4,8.9l-0.7-10.4
			L340.8,46.9z"/>
	</g>
	<g>
		<path fill="#A6EF18" d="M317.8,49.7l0.7,10.4c2.4,2.3,5.8,3.7,9.6,3.7c7.5,0,13.5-5.6,13.5-12.6c0-1.5-0.3-3-0.8-4.3L317.8,49.7z"
			/>
	</g>
	<g>
		<path fill="#FFFFFF" d="M343.7,57.3c-0.4-4.5-2.9-10.4-2.9-10.4l-22.9,2.8l0.7,10.4L343.7,57.3z"/>
	</g>
	<g>
		<path d="M343.7,57.3c-0.4-4.5-2.9-10.4-2.9-10.4l-22.9,2.8l0.7,10.4L343.7,57.3z"/>
	</g>
	<g>
		<path fill="#00C3F7" d="M323,39.6c1.1,1.4,3.4,4.4,5.3,8.9l8.7-1.1c-1.3-3-2.9-6-5.2-8.2c-1.2-0.3-2.5-0.5-3.8-0.5
			C326.3,38.6,324.6,39,323,39.6z"/>
	</g>
	<g>
		<path fill="#ABA8A3" d="M340.2,57.9l3.8-0.4c-0.4-4.6-3-10.7-3-10.7l-3.9,0.5C338.7,51,339.6,54.8,340.2,57.9z"/>
	</g>
	<g>
		<ellipse fill="#FFFFFF" cx="336.3" cy="52.7" rx="0.8" ry="1"/>
	</g>
	<g>
		<ellipse fill="#FFFFFF" cx="324.4" cy="54" rx="0.8" ry="1"/>
	</g>
	<g>
		<path fill="#497F0A" d="M326.4,62.6c-1.3,0-2.3-0.8-2.8-1.3c-0.2-0.3-0.2-0.8,0.1-1c0.3-0.2,0.8-0.2,1,0.1c0.1,0.1,1,1.2,2.5,0.5
			c0.4-0.2,0.8,0,1,0.4c0.2,0.4,0,0.8-0.4,1C327.4,62.5,326.9,62.6,326.4,62.6z"/>
	</g>
</g>
</svg>
