<?xml version="1.0" encoding="utf-8"?>
<!-- Generator: Adobe Illustrator 16.0.3, SVG Export Plug-In . SVG Version: 6.00 Build 0)  -->
<!DOCTYPE svg PUBLIC "-//W3C//DTD SVG 1.1//EN" "http://www.w3.org/Graphics/SVG/1.1/DTD/svg11.dtd">
<svg version="1.1" id="Layer_1" xmlns="http://www.w3.org/2000/svg" xmlns:xlink="http://www.w3.org/1999/xlink" x="0px" y="0px"
	 width="285.569px" height="188.432px" viewBox="7.212 6.651 285.569 188.432" enable-background="new 7.212 6.651 285.569 188.432"
	 xml:space="preserve">
<g>
	<g>
		<g>
			<path fill="#FFFFFF" d="M245.482,119.341c-4.418,0-10.351-0.889-13.524-5.12c-2.735-3.648-3.612-8.699-2.287-13.179
				c1.231-4.169,4.132-7.282,8.162-8.764l0.126-0.046l0.13-0.034c0.071-0.018,7.138-1.851,13.929-5.56
				c5.824-3.181,12.672-8.441,12.222-15.441c-1.052-16.259-38.72-32.72-108.681-32.72c-62.497,0-103.877,13.186-115.88,25.436
				c-2.466,2.518-3.693,4.952-3.646,7.236c0.17,8.315,10.387,9.129,10.822,9.16l1.076,0.076l0.72,0.811
				c0.306,0.348,7.454,8.623,4.096,17.022c-1.652,4.128-4.384,8.867-10.894,8.867c-1.343,0-2.87-0.194-4.669-0.595
				c-3.98-0.885-16.833-5.848-23.437-16.687c-3.963-6.503-4.914-13.81-2.827-21.719c3.552-13.461,18.665-24.508,43.703-31.947
				c24.901-7.398,59.804-11.309,100.937-11.309c73.812,0,127.586,18.332,133.81,45.617c3.038,13.323-2.853,25.983-17.035,36.612
				c-10.36,7.764-21.406,11.694-21.871,11.858l-0.226,0.078l-0.233,0.038C249.923,119.045,248.027,119.341,245.482,119.341z"/>
			<path fill="#FFFFFF" d="M155.559,27.454c70.35,0,125.24,17.231,131.25,43.575c6.824,29.925-37.219,45.411-37.219,45.411
				s-1.74,0.276-4.107,0.276c-3.678,0-8.869-0.666-11.424-4.071c-4.201-5.602-2.932-15.104,4.682-17.902
				c0,0,29.168-7.438,28.117-23.713c-1.285-19.912-45.149-35.176-111.299-35.176c-72.802,0-122.502,18.201-122.15,35.351
				C33.631,82.092,46.679,82.93,46.679,82.93s6.429,7.315,3.63,14.314c-2.125,5.309-4.625,7.216-8.457,7.216
				c-1.221,0-2.577-0.192-4.099-0.532c-6.3-1.398-30.404-12.021-24.295-35.173C20.107,43.553,71.207,27.454,155.559,27.454
				 M155.559,22.204c-85.952,0-139.596,16.479-147.178,45.211c-2.276,8.625-1.226,16.617,3.123,23.754
				c7.114,11.677,20.539,16.869,25.111,17.883c1.986,0.442,3.7,0.657,5.237,0.657c8.176,0,11.524-6.001,13.331-10.516
				c3.155-7.889-1.382-16.114-4.561-19.731l-1.436-1.634l-2.171-0.14c-0.814-0.063-8.24-0.804-8.358-6.594
				c-0.04-1.934,1.553-3.974,2.897-5.345c6.185-6.313,20.4-12.471,39-16.896c21.321-5.072,47.257-7.752,75.004-7.752
				c30.957,0,58.782,3.503,78.351,9.864c17.133,5.569,27.231,13.005,27.71,20.4c0.625,9.689-17.71,16.624-24.182,18.289
				l-0.256,0.066l-0.254,0.092c-4.759,1.75-8.32,5.571-9.773,10.483c-1.557,5.26-0.521,11.198,2.703,15.497
				c3.029,4.038,8.433,6.172,15.625,6.172c2.705,0,4.713-0.307,4.933-0.342l0.47-0.074l0.447-0.157
				c0.48-0.168,11.895-4.23,22.575-12.234c15.075-11.297,21.307-24.886,18.02-39.296c-3.353-14.699-18.907-26.971-44.985-35.49
				C222.572,26.411,190.973,22.204,155.559,22.204L155.559,22.204z"/>
		</g>
		<g>
			<path fill="#FFFFFF" d="M156.697,191.248c-52.029,0-94.358-40.936-94.358-91.25c0-50.314,42.329-91.248,94.358-91.248
				c52.035,0,94.369,40.934,94.369,91.248C251.066,150.312,208.732,191.246,156.697,191.248L156.697,191.248z"/>
			<path fill="#FFFFFF" d="M156.697,10.851c50.955,0,92.27,39.912,92.27,89.147c0,49.234-41.312,89.148-92.27,89.15
				c-50.951,0-92.258-39.914-92.258-89.15C64.439,50.763,105.746,10.851,156.697,10.851 M156.697,6.651
				c-53.188,0-96.458,41.875-96.458,93.348c0,51.474,43.271,93.351,96.458,93.351c53.193-0.002,96.47-41.879,96.47-93.351
				C253.167,48.526,209.891,6.651,156.697,6.651L156.697,6.651z"/>
		</g>
		<path fill="none" d="M248.967,99.999c0,49.233-41.312,89.147-92.27,89.149c-50.951,0-92.258-39.914-92.258-89.149
			c0-49.235,41.307-89.147,92.258-89.147C207.652,10.851,248.967,50.763,248.967,99.999z"/>
		<g>
			<path fill="#FFFFFF" d="M27.735,114.893c-1.885,0-3.573-0.894-4.516-2.392c-0.955-1.517-1.024-3.465-0.186-5.211
				c0.077-0.158,2.286-4.542,2.605-5.185c0.142-0.285,0.204-0.459,0.23-0.558c-0.079-0.08-0.244-0.222-0.558-0.405
				c-4.19-2.466-6.572-9.374-3.018-17.81c2.284-5.43,6.311-8.804,10.506-8.804c1.996,0,3.881,0.76,5.455,2.197
				c0.208-0.336,0.491-0.929,0.864-1.963c0.067-0.187,0.126-0.348,0.175-0.472l0.486-1.229c0.524-1.323,0.979-2.469,1.542-3.994
				c0.759-2.06,2.527-3.34,4.614-3.34c2.355,0,4.51,1.632,5.363,4.062l9.779,28.329c0.494,1.41,0.409,2.941-0.246,4.298
				c-0.653,1.356-1.795,2.376-3.215,2.871l-27.671,9.219C29.231,114.759,28.475,114.893,27.735,114.893z"/>
			<path fill="#FFFFFF" d="M45.936,68.354c1.142,0,2.368,0.83,2.886,2.306l9.774,28.315c0.55,1.567-0.275,3.289-1.844,3.833
				l-27.637,9.207c-0.49,0.172-0.955,0.25-1.381,0.25c-2.085,0-3.281-1.869-2.334-3.842c0.147-0.305,1.965-3.898,2.588-5.148
				c0.747-1.496,1.005-3.015-1.347-4.397c-3.234-1.902-4.856-7.579-1.93-14.526c1.947-4.627,5.106-7.198,8.087-7.198
				c1.301,0,2.568,0.489,3.686,1.511c0.724,0.662,1.36,0.929,1.916,0.929c1.986,0,2.962-3.396,3.334-4.341
				c0.759-1.925,1.312-3.281,2.049-5.275C44.194,68.866,45.04,68.354,45.936,68.354 M45.937,63.104L45.937,63.104
				c-3.167,0-5.946,1.986-7.079,5.059c-0.548,1.485-0.998,2.62-1.519,3.933l-0.286,0.722c-1.338-0.604-2.771-0.913-4.254-0.913
				c-5.271,0-10.225,3.99-12.927,10.412c-1.755,4.167-2.336,8.353-1.677,12.1c0.588,3.349,2.114,6.125,4.357,7.985
				c-0.25,0.496-0.521,1.033-0.776,1.541c-0.549,1.089-1.028,2.041-1.103,2.195c-1.238,2.579-1.115,5.475,0.323,7.76
				c1.426,2.267,3.945,3.619,6.737,3.619c1.021,0,2.054-0.179,3.073-0.529l27.604-9.197l0.035-0.012l0.035-0.012
				c2.083-0.728,3.758-2.223,4.716-4.211c0.959-1.99,1.084-4.235,0.354-6.319l-9.766-28.291
				C52.555,65.442,49.404,63.104,45.937,63.104L45.937,63.104z"/>
		</g>
		<g>
			<g>
				<path fill="#FFFFFF" d="M160.745,127.079c-9.851,0-16.686-3.615-20.897-11.052c-3.004-5.299-5.248-17.02-1.443-24.345
					c2.029-3.907,5.441-6.2,9.866-6.631c0.464-0.045,0.909-0.067,1.33-0.067c8.642,0,9.534,8.347,9.915,11.911
					c0.105,0.999,0.207,1.942,0.364,2.601c0.604,2.504,1.489,2.504,2.201,2.504l0.188-0.004c0.928-0.041,1.428-0.242,1.586-0.418
					c0.235-0.262,0.48-1.109,0.393-2.638c-0.04-0.695-0.094-1.388-0.146-2.074c-0.398-5.116-1.066-13.678,8.145-15.904
					c0.898-0.217,1.801-0.327,2.682-0.327c3.232,0,6.174,1.442,8.502,4.171c4.454,5.216,5.883,14.17,4.967,19.946
					c-1.959,12.295-10.994,20.969-23.02,22.098C163.756,127.001,162.197,127.079,160.745,127.079z"/>
				<path fill="#FFFFFF" d="M174.926,84.799c7.397,0,10.428,12.541,9.354,19.299c-1.459,9.161-8.008,17.543-19.295,18.604
					c-1.491,0.141-2.903,0.212-4.239,0.212c-8.405,0-13.81-2.824-17.272-8.938c-3.314-5.846-6.104-23.677,5.202-24.778
					c0.325-0.032,0.634-0.047,0.926-0.047c6.333-0.001,5.252,7.251,6.229,11.318c0.812,3.368,2.686,5.697,6.251,5.697
					c0.121,0,0.242-0.003,0.367-0.008c5.073-0.222,6.177-3.681,5.956-7.458c-0.342-5.984-1.729-12.105,4.818-13.688
					C173.812,84.867,174.382,84.799,174.926,84.799 M174.926,76.469c-1.21,0-2.441,0.149-3.66,0.444
					c-5.289,1.277-9.043,4.625-10.646,9.462c-2.455-3.556-6.374-5.557-11.017-5.557c-0.567,0-1.154,0.03-1.743,0.088
					c-5.805,0.565-10.478,3.71-13.15,8.856c-4.742,9.131-1.898,22.298,1.517,28.321c4.945,8.731,13.195,13.16,24.52,13.16
					c1.582,0,3.271-0.084,5.023-0.249c13.974-1.312,24.471-11.355,26.737-25.587c1.091-6.868-0.591-17.076-5.911-23.308
					C183.495,78.469,179.352,76.469,174.926,76.469L174.926,76.469z"/>
			</g>
			<g>
				<path fill="#FFFFFF" d="M199.1,122.852c-2.605,0-5.067-1.088-7.121-3.146c-3.896-3.907-6.302-11.537-6.277-19.914
					c0.033-16.527,5.826-27.675,15.893-30.582c1.024-0.297,2.125-0.448,3.266-0.448c4.771,0,9.967,2.811,10.906,9.084
					c2.155-4.074,5.775-6.388,10.066-6.388c1.206,0,2.469,0.183,3.753,0.542c6.796,1.913,12.222,9.503,12.905,18.05
					c0.708,8.769-0.024,14.697-2.307,18.654c-3.052,5.269-7.328,6.372-10.379,6.372c-0.467,0-0.945-0.026-1.427-0.078
					c-5.131-0.562-7.68-5.587-8.305-9.721c-0.054-0.346-0.118-0.633-0.185-0.865c-0.117,0.109-0.236,0.234-0.351,0.37
					c-2.69,3.227-5.378,3.903-7.158,3.903c-0.411,0-0.823-0.037-1.229-0.105c-1.402-0.244-2.551-0.868-3.473-1.604
					c1.01,3.094,2.035,7.205,0.206,10.776c-0.791,1.546-2.463,3.61-5.938,4.665C201.002,122.706,200.044,122.852,199.1,122.852z"/>
				<path fill="#FFFFFF" d="M204.857,72.927c2.875,0,6.234,1.478,6.804,5.652c0.442,3.345,1.257,5.767,3.243,6.056
					c0.08,0.011,0.158,0.016,0.238,0.016c1.444,0,2.907-1.796,3.965-4.161c1.271-2.854,3.455-4.867,6.724-4.867
					c0.81,0,1.687,0.124,2.63,0.388c5.068,1.427,9.327,7.516,9.876,14.371c0.554,6.854,0.285,12.691-1.762,16.242
					c-1.595,2.753-3.829,4.286-6.771,4.286c-0.318,0-0.645-0.018-0.979-0.055c-2.806-0.307-4.263-3.733-4.636-6.201
					c-0.418-2.719-1.514-4.43-3.258-4.914c-0.162-0.044-0.334-0.065-0.513-0.065c-1.301,0-2.979,1.116-4.082,2.441
					c-1.126,1.35-2.496,2.403-3.959,2.403c-0.171,0-0.343-0.015-0.517-0.045c-1.769-0.307-2.899-2.158-3.502-3.053
					c-0.883-1.315-2.03-2.129-3.157-2.129c-0.438,0-0.872,0.123-1.287,0.386c-1.868,1.18-1.339,5.244-0.673,7.187
					c1.357,3.971,3.447,9.758-2.508,11.565c-0.562,0.172-1.108,0.252-1.639,0.252c-5.576,0-9.26-9.065-9.232-18.881
					c0.021-10.824,3.004-23.738,12.883-26.591C203.378,73.03,204.102,72.927,204.857,72.927 M204.857,64.597
					c-1.532,0-3.023,0.207-4.431,0.615c-11.965,3.455-18.854,16.058-18.894,34.575c-0.025,9.581,2.775,18.129,7.494,22.859
					c2.852,2.859,6.334,4.371,10.07,4.371c1.354,0,2.721-0.207,4.057-0.611c4.875-1.48,7.279-4.489,8.438-6.754
					c1.164-2.273,1.527-4.607,1.465-6.819c1.346-0.08,2.946-0.411,4.646-1.261c2.129,4.27,5.797,7.084,10.217,7.566
					c0.639,0.069,1.27,0.104,1.885,0.104c5.859,0,10.824-2.998,13.979-8.44c2.77-4.805,3.646-11.304,2.857-21.089
					c-0.832-10.381-7.38-19.315-15.924-21.719c-1.66-0.465-3.301-0.7-4.886-0.7c-3.37,0-6.427,1.012-8.968,2.899
					C214.113,66.713,209.814,64.597,204.857,64.597L204.857,64.597z"/>
			</g>
			<g>
				<path fill="#FFFFFF" d="M87.549,117.245c-0.265,0-0.532-0.009-0.801-0.027c-6.405-0.426-12.586-6.233-16.124-15.159
					c-1.544-3.896-5.647-14.245-3.41-27.314c0.956-5.596,5.87-17.372,17.625-21.882c3.517-1.349,6.866-2.032,9.955-2.032
					c5.551,0,10.372,2.154,14.33,6.402c3.445,3.698,4.982,8.928,4.216,14.35c-0.923,6.532-4.942,12.37-11.026,16.018
					c-5.697,3.414-8.802,4.774-10.657,5.586c-0.173,0.076-0.355,0.155-0.524,0.23c2.931,3.46,8.467,10.245,6.386,16.83
					C96.201,114.432,92.193,117.245,87.549,117.245L87.549,117.245z"/>
				<path fill="#FFFFFF" d="M94.794,54.994c5.036,0,8.614,2.213,11.282,5.076c5.857,6.287,3.904,18.075-5.904,23.956
					c-10.979,6.579-11.85,5.177-13.164,7.55c-0.625,1.144-0.531,2.786,0.691,4.23c3.175,3.74,7.186,8.954,5.849,13.184
					c-0.789,2.504-3.179,4.09-5.999,4.09c-0.171,0-0.344-0.006-0.519-0.018c-4.846-0.322-9.693-5.373-12.534-12.541
					c-1.645-4.147-5.183-13.354-3.177-25.077c0.82-4.803,5.213-14.937,15.012-18.696C89.541,55.519,92.34,54.994,94.794,54.994
					 M85.887,78.27c1.597,0,3.858-1.367,6.097-3.014c2.836-2.084,5.449-3.848,4.337-6.081c-0.371-0.745-1.22-1.113-2.348-1.113
					c-1.706,0-4.047,0.841-6.325,2.489c-3.654,2.642-4.393,6.175-3.012,7.312C84.979,78.144,85.402,78.27,85.887,78.27
					 M94.794,46.663c-3.601,0-7.452,0.776-11.446,2.308C69.84,54.154,64.202,67.638,63.107,74.043
					c-2.433,14.22,1.982,25.357,3.644,29.55c4.199,10.593,11.573,17.24,19.726,17.782c0.347,0.023,0.712,0.036,1.071,0.036
					c6.472,0,12.076-3.985,13.945-9.917c1.989-6.295-0.836-12.2-3.851-16.52c1.761-0.896,3.982-2.107,6.812-3.802
					c7.169-4.299,11.911-11.227,13.011-19.009c0.942-6.672-0.987-13.149-5.293-17.771C107.394,49.263,101.547,46.663,94.794,46.663
					L94.794,46.663z"/>
			</g>
			<g>
				<path fill="#FFFFFF" d="M126.724,127.029c-8.954,0-20.36-4.951-24.836-14.418c-3.833-8.096-3.659-18.232,0.48-27.808
					c1.261-2.915,5.098-11.781,12.354-11.781c1.214,0,2.446,0.256,3.663,0.761c1.932,0.808,3.465,2.431,4.325,4.572
					c1.322,3.292,1.037,7.575-0.783,11.752c-1.776,4.077-2.269,8.031-1.256,10.073c0.718,1.439,1.452,1.808,5.596,1.837
					c7.147,0.059,12.617,3.396,14.635,8.93c1.381,3.789,1.015,7.494-1.033,10.432c-2.49,3.57-7.25,5.631-13.062,5.65H126.724z"/>
				<path fill="#FFFFFF" d="M114.723,77.188c0.72,0,1.409,0.17,2.064,0.442c2.647,1.107,3.536,5.729,1.321,10.813
					c-1.698,3.898-3.148,9.596-1.169,13.586c1.987,3.984,5.476,4.125,9.298,4.152c3.887,0.031,8.986,1.353,10.752,6.191
					c2.308,6.33-2.59,10.463-10.196,10.49c-0.023,0-0.046,0-0.069,0c-7.036,0-17.213-3.877-21.071-12.033
					c-3.381-7.141-2.991-16.211,0.538-24.375C109.293,79.289,112.194,77.188,114.723,77.188 M114.722,68.857L114.722,68.857
					c-9.993,0-14.647,10.757-16.176,14.292c-4.616,10.678-4.77,22.066-0.422,31.25c5.458,11.541,18.652,16.799,28.6,16.799h0.098
					c7.188-0.026,13.188-2.736,16.465-7.436c2.846-4.082,3.389-9.14,1.529-14.24c-2.639-7.234-9.559-11.596-18.512-11.667
					c-0.461-0.003-1.329-0.009-1.996-0.057c-0.058-1.053,0.245-3.289,1.438-6.025c2.262-5.192,2.564-10.648,0.829-14.968
					c-1.279-3.185-3.613-5.62-6.573-6.858C118.258,69.221,116.488,68.857,114.722,68.857L114.722,68.857z"/>
			</g>
			<g>
				<path fill="#FFFFFF" d="M106.837,165.834c-6.874,0-7.869-7.391-8.196-9.818l-0.067-0.488c-0.197-1.373-0.423-2.086-0.582-2.443
					c-0.359,0.188-1.001,0.604-1.953,1.503c-0.262,0.247-0.689,0.789-1.067,1.269c-1.53,1.941-3.842,4.877-7.588,4.877
					c-0.863,0-1.724-0.166-2.557-0.492c-7.106-2.807-6.102-11.367-4.464-19.896c1.181-6.117,5.424-13.617,12.244-16.588
					c2.173-0.947,4.496-1.449,6.716-1.449c3.225,0,11.083,1.176,14.4,12.065c2.427,7.951,3.461,22.194-0.912,28.252
					c-1.455,2.017-3.507,3.155-5.779,3.21H106.837z"/>
				<path fill="#FFFFFF" d="M99.324,126.471c4.178,0,8.369,2.393,10.416,9.113c2.854,9.352,2.897,25.947-2.806,26.084
					c-0.032,0.001-0.064,0.001-0.096,0.001c-3.493,0-3.822-4.537-4.141-6.739c-0.379-2.643-1.177-5.848-4.145-6.139
					c-0.102-0.01-0.205-0.016-0.308-0.016c-1.583,0-3.333,1.145-5.067,2.785c-1.629,1.53-3.35,5.006-5.792,5.006
					c-0.331,0-0.675-0.064-1.033-0.205c-3.285-1.297-3.806-5.291-1.896-15.234c0.953-4.939,4.413-11.201,9.816-13.555
					C95.85,126.884,97.585,126.471,99.324,126.471 M96.949,138.818c0.503,0,1.05-0.033,1.565-0.033c0.252,0,0.498,0.008,0.727,0.031
					c1.117,0.106,2.366,0.838,3.331,0.838c0.593,0,1.078-0.275,1.359-1.141c0.613-1.88-1.503-3.584-3.857-3.664
					c-0.09-0.004-0.178-0.004-0.266-0.004c-2.887,0-4.741,1.562-4.777,2.909C95.009,138.671,95.882,138.818,96.949,138.818
					 M99.324,118.139c-2.789,0-5.688,0.623-8.383,1.799c-8.768,3.817-13.38,12.951-14.666,19.611
					c-1.178,6.135-1.502,10.162-1.085,13.477c0.907,7.221,5.466,10.045,8.103,11.086c1.333,0.522,2.705,0.785,4.092,0.785
					c3.613,0,6.264-1.65,8.177-3.439c0.161,0.475,0.348,0.953,0.564,1.43c2.026,4.454,6.031,7.114,10.712,7.114
					c0.096,0,0.192-0.001,0.289-0.004c3.611-0.086,6.828-1.839,9.063-4.937c5.978-8.281,3.604-25.072,1.518-31.908
					C114.845,123.753,107.972,118.139,99.324,118.139L99.324,118.139z"/>
			</g>
			<g>
				<path fill="#FFFFFF" d="M121.871,168.986c-0.391,0-0.794-0.024-1.199-0.073c-2.024-0.242-3.926-1.472-5.354-3.462
					c-1.82-2.537-4.495-8.596-1.961-20.672c3.133-14.961,10.033-18.521,15.271-18.873c0.327-0.021,0.645-0.032,0.952-0.032
					c2.812,0,8.953,0.995,10.389,9.424c0.859-0.448,1.815-0.69,2.833-0.69c0.144,0,0.288,0.006,0.434,0.016
					c1.581,0.104,3.057,0.863,4.135,2.141c2.542,3.006,2.564,8.635,2.136,12.826c-1.13,11.247-5.386,17.928-11.676,18.322
					c-0.313,0.02-0.615,0.027-0.908,0.027c-3.76,0.002-6.189-1.504-7.775-3.33C127.691,167.372,125.061,168.986,121.871,168.986z"/>
				<path fill="#FFFFFF" d="M129.58,130.039c6.875,0,6.475,7.646,6.535,9.213c0.075,1.83,0.319,6.582,1.995,6.617
					c0.009,0,0.017,0,0.025,0c1.188,0,1.731-1.762,1.865-3.215c0.197-2.088,1.278-3.883,2.802-3.883c0.046,0,0.093,0.002,0.14,0.006
					c2.68,0.176,2.832,6.373,2.422,10.389c-0.404,4.023-2.094,14.23-7.793,14.588c-0.223,0.014-0.438,0.021-0.647,0.021
					c-4.485,0-5.777-3.131-6.622-6.014c-0.517-1.779-1.047-2.793-1.817-2.793c-0.121,0-0.248,0.025-0.381,0.076
					c-1.37,0.533-1.684,5.047-2.276,6.764c-0.467,1.383-1.546,3.012-3.957,3.012c-0.223,0-0.458-0.014-0.705-0.043
					c-2.774-0.332-6.421-6.332-3.732-19.143c1.035-4.943,3.898-15.062,11.474-15.572
					C129.139,130.047,129.363,130.039,129.58,130.039 M129.58,121.709c-0.405,0-0.82,0.014-1.234,0.042
					c-5.462,0.367-15.205,3.737-19.066,22.177c-2.121,10.104-1.178,18.611,2.654,23.951c2.118,2.951,5.045,4.787,8.243,5.17
					c0.57,0.068,1.139,0.104,1.694,0.104c3.005,0,5.724-0.992,7.867-2.768c2.398,1.313,4.947,1.721,7.186,1.721
					c0.381,0,0.773-0.013,1.165-0.037c8.537-0.534,14.208-8.578,15.563-22.068c0.74-7.253-0.301-12.615-3.101-15.928
					c-1.815-2.146-4.324-3.428-7.065-3.606c-0.167-0.012-0.359-0.021-0.557-0.022c-0.014-0.032-0.028-0.064-0.042-0.098
					C140.57,124.938,135.595,121.709,129.58,121.709L129.58,121.709z"/>
			</g>
			<g>
				<path fill="#FFFFFF" d="M156.752,171.203c-7.539,0-10.778-4.787-11.262-8.887c-0.289-2.481,0.227-4.121,0.682-5.565
					c0.245-0.778,0.499-1.584,0.708-2.743c0.666-3.688,0.191-8.949-0.63-11.711c-0.896-2.996-2.55-8.527,2.584-12.896
					c2.501-2.137,6.484-3.416,10.648-3.416c4.064,0,7.773,1.215,10.442,3.418c5.804,4.807,9.084,13.135,8.168,20.728
					c-1.047,8.739-6.604,18.487-16.661,20.556C159.762,171.029,158.188,171.203,156.752,171.203L156.752,171.203z"/>
				<path fill="#FFFFFF" d="M159.482,130.15c2.814,0,5.703,0.74,7.791,2.465c4.514,3.738,7.453,10.639,6.684,17.016
					c-0.764,6.367-4.741,15.201-13.365,16.975c-1.459,0.301-2.73,0.434-3.84,0.434c-5.312,0-6.869-3.038-7.125-5.21
					c-0.306-2.629,0.703-3.488,1.352-7.08c0.815-4.521,0.198-10.496-0.735-13.64c-0.831-2.778-1.784-5.92,1.29-8.534
					C153.292,131.07,156.343,130.15,159.482,130.15 M160.643,155.592c0.051,0,0.104-0.003,0.159-0.008
					c2.53-0.242,4.229-3.547,4.165-7.453c-0.052-3.148-1.529-6.402-3.656-6.402c-0.235,0-0.479,0.041-0.731,0.125
					c-1.886,0.64-0.576,4.127-0.535,6.728C160.085,151.126,158.516,155.592,160.643,155.592 M159.482,121.82
					c-5.203,0-10.073,1.609-13.361,4.42c-7.191,6.117-4.778,14.188-3.87,17.226c0.601,2.019,1.087,6.708,0.529,9.804
					c-0.163,0.898-0.356,1.517-0.582,2.231c-0.522,1.659-1.237,3.933-0.847,7.289c0.739,6.269,5.787,12.578,15.4,12.578
					c1.717,0,3.573-0.202,5.519-0.603c6.043-1.244,11.184-4.798,14.867-10.279c2.691-4.006,4.5-8.93,5.092-13.864
					c1.078-8.937-2.797-18.753-9.643-24.423C169.163,123.372,164.514,121.82,159.482,121.82L159.482,121.82z"/>
			</g>
			<g>
				<path fill="#FFFFFF" d="M185.037,168.662c-6.559,0-11.566-2.979-12.465-7.414c-0.656-3.285,0.33-6.632,2.927-9.958
					c2.283-2.913,2.45-4.424,2.417-4.938c-0.098-1.441-0.955-3.395-2.137-4.851c-1.797-2.219-3.516-5.011-2.649-8.897
					c0.878-3.897,4.923-8.729,11.729-10.146c1.1-0.23,2.201-0.348,3.271-0.348c3.367,0,6.273,1.137,8.186,3.199
					c1.55,1.674,2.308,3.852,2.133,6.129c-0.232,3.01-1.576,5.181-2.762,7.095c-0.67,1.081-1.304,2.104-1.715,3.245
					c-0.301,0.832-0.466,2.431-0.492,3.361c0.062,1.646,0.625,3.285,1.125,3.803c1.619,1.683,5.91,6.139,4.25,11.363
					c-1.699,5.305-7.517,7.996-12.526,8.316C185.891,168.648,185.46,168.662,185.037,168.662z"/>
				<path fill="#FFFFFF" d="M188.131,126.273c3.737,0,6.385,1.988,6.164,4.846c-0.266,3.432-2.902,5.533-4.24,9.244
					c-0.693,1.928-0.74,4.791-0.74,4.791c0.056,2.147,0.733,5.066,2.295,6.682c1.885,1.957,4.093,4.641,3.276,7.207
					c-1.03,3.215-4.935,5.174-8.823,5.422c-0.346,0.021-0.688,0.032-1.024,0.032c-4.34,0-7.912-1.748-8.384-4.075
					c-0.5-2.512,0.74-4.791,2.129-6.568c1.393-1.776,3.482-4.836,3.29-7.772c-0.169-2.506-1.474-5.248-3.056-7.201
					c-1.578-1.946-2.264-3.387-1.822-5.368c0.43-1.902,2.861-5.798,8.516-6.976C186.553,126.357,187.363,126.273,188.131,126.273
					 M188.131,117.943L188.131,117.943c-1.355,0-2.747,0.147-4.131,0.438c-8.646,1.802-13.732,7.978-14.932,13.298
					c-1.424,6.396,2.135,10.788,3.475,12.442c0.616,0.76,1.031,1.69,1.169,2.239c-0.131,0.332-0.501,1.095-1.487,2.354
					c-4.215,5.397-4.358,10.229-3.74,13.336c1.309,6.455,7.957,10.776,16.554,10.776c0.513,0,1.032-0.018,1.548-0.049
					c7.846-0.502,14.215-4.896,16.234-11.194c2.306-7.257-2.812-13.015-4.926-15.231c-0.101-0.279-0.211-0.772-0.244-1.244
					c0.031-0.688,0.148-1.62,0.254-1.959c0.25-0.691,0.748-1.494,1.324-2.424c1.293-2.088,3.062-4.947,3.373-8.967
					c0.266-3.449-0.883-6.744-3.229-9.281C196.663,119.555,192.672,117.943,188.131,117.943L188.131,117.943z"/>
			</g>
			<g>
				<path fill="#FFFFFF" d="M205.898,162.67c-2.502,0-5.097-1.21-7.121-3.318c-3.623-3.775-5.282-10.029-4.932-18.588
					c0.291-7.135,2.984-12.888,7.204-15.39c1.788-1.067,3.687-1.614,5.63-1.614c2.319,0,4.598,0.793,6.596,2.248
					c0.207-1.423,0.713-2.992,1.808-4.35c1.331-1.65,3.278-2.614,5.483-2.715c0.104-0.004,0.209-0.006,0.313-0.006
					c5.634,0,9.162,6.364,9.21,16.61c0.059,10.011-1.35,22.423-8.385,24.69c-1.121,0.359-2.227,0.541-3.294,0.541
					c-1.783,0-3.984-0.483-6.022-2.272c-0.213,0.476-0.474,0.925-0.779,1.337c-1.198,1.62-3.008,2.614-5.098,2.799
					C206.312,162.66,206.111,162.67,205.898,162.67z"/>
				<path fill="#FFFFFF" d="M220.881,123.104c3.445,0,5.018,6.457,5.045,12.465c0.035,6.091-0.724,19.168-5.498,20.707
					c-0.729,0.234-1.398,0.341-2.016,0.341c-2.934,0-4.646-2.404-5.699-4.869c-0.816-1.907-2.02-3.246-3.021-3.246
					c-0.096,0-0.189,0.013-0.281,0.037c-1.704,0.478-0.977,3.539-0.604,5.308c0.483,2.291-0.361,4.446-2.66,4.649
					c-0.078,0.007-0.16,0.01-0.248,0.01c-2.459,0-8.496-2.813-7.89-17.569c0.205-5.027,1.896-10.037,5.166-11.978
					c1.22-0.728,2.397-1.031,3.505-1.031c2.666,0,4.914,1.759,6.289,3.593c1.336,1.779,2.18,2.924,3.135,2.924
					c0.196,0,0.398-0.049,0.61-0.15c1.204-0.58,1.04-3.236,0.714-5.105c-0.38-2.229,0.03-5.932,3.326-6.08
					C220.796,123.104,220.839,123.104,220.881,123.104 M220.881,114.771c-0.167,0-0.337,0.004-0.506,0.012
					c-3.411,0.154-6.443,1.667-8.535,4.261c-0.316,0.394-0.602,0.795-0.854,1.202c-1.396-0.43-2.842-0.65-4.307-0.65
					c-2.705,0-5.322,0.743-7.777,2.211c-5.495,3.256-8.863,10.109-9.219,18.787c-0.398,9.733,1.648,17.016,6.09,21.643
					c2.806,2.923,6.496,4.6,10.125,4.6c0.322,0,0.646-0.014,0.961-0.041c2.527-0.223,4.797-1.199,6.582-2.803
					c1.443,0.594,3.094,0.955,4.971,0.955c1.499,0,3.033-0.249,4.561-0.738c7.881-2.54,9.627-11.966,10.199-15.062
					c1.018-5.498,1.098-11.359,1.084-13.625c-0.02-4.115-0.625-8.092-1.707-11.188C229.531,115.703,223.384,114.771,220.881,114.771
					L220.881,114.771z"/>
			</g>
			<g>
				<path fill="#FFFFFF" d="M243.561,154.479c-1.39,0-2.768-0.164-4.098-0.488c-7.038-1.711-14.818-8.707-13.576-22.795
					c0.069-0.793,0.818-7.992,5.668-14.403c5.266-6.946,11.131-8.403,15.123-8.403l0.393,0.004c2.971,0.069,5.602,1.184,7.406,3.137
					c1.748,1.894,2.625,4.471,2.469,7.258c-0.154,2.752-1.521,4.761-3.205,6.229c1.541,0.621,2.97,1.635,4.229,3.018
					c3.86,4.236,4.935,12.828,0.386,18.867C254.725,151.718,249.332,154.479,243.561,154.479z"/>
				<path fill="#FFFFFF" d="M246.678,112.553c0.098,0,0.195,0.002,0.293,0.004c3.7,0.086,6.012,2.496,5.814,5.996
					c-0.195,3.482-4.545,5.119-6.645,5.98c-4.891,2.006-6.381,5.004-7.05,6.848c-0.974,2.691-0.72,5.379,0.785,7.143
					c0.874,1.021,1.967,1.521,2.917,1.521c0.678,0,1.283-0.252,1.688-0.748c0.783-0.948,0.438-2.471,0.043-3.545
					c-0.532-1.487-0.66-4.78,2.213-6.383c1.089-0.606,2.191-0.908,3.269-0.908c1.761,0,3.449,0.804,4.89,2.381
					c2.32,2.55,3.625,8.921,0.135,13.556c-3.04,4.031-7.355,5.918-11.469,5.918c-1.06,0-2.104-0.125-3.11-0.369
					c-4.63-1.125-11.519-5.859-10.413-18.381c0.168-1.935,1.246-7.506,4.84-12.258C238.391,114.67,242.52,112.555,246.678,112.553
					 M246.678,104.223L246.678,104.223c-6.979,0-13.527,3.569-18.439,10.049c-4.223,5.584-6.141,12.414-6.502,16.57
					c-1.475,16.709,8.1,25.096,16.746,27.196c1.646,0.401,3.356,0.606,5.078,0.606c7.092,0,13.695-3.367,18.121-9.235
					c5.98-7.943,4.33-18.734-0.629-24.179c-0.406-0.445-0.828-0.863-1.268-1.254c0.725-1.422,1.211-3.062,1.316-4.957
					c0.221-3.924-1.047-7.588-3.566-10.316c-2.577-2.79-6.262-4.38-10.371-4.475C247.004,104.225,246.842,104.223,246.678,104.223
					L246.678,104.223z"/>
			</g>
			<g>
				<path fill="#FFFFFF" d="M74.936,155.009c-1.566,0-2.983-0.229-3.897-0.421c-2.341-0.494-14.159-3.591-17.188-16.146
					c-1.636-6.791-0.472-14,3.56-22.043c1.163-2.316,5.445-9.867,11.758-9.867c1.546,0,3.005,0.451,4.336,1.343
					c5.98,3.998,3.628,10.776,1.694,14.463c-1.978,3.776-2.994,6.821-3.02,9.045c-0.034,3.033,1.41,3.495,1.885,3.647
					c3.005,0.957,11.001,3.507,10.661,11.658C84.554,150.711,81.894,155.009,74.936,155.009z"/>
				<path fill="#FFFFFF" d="M69.168,110.695c0.678,0,1.356,0.195,2.02,0.641c3.474,2.322,1.678,6.482,0.322,9.064
					c-2.121,4.051-3.46,7.736-3.497,10.934c-0.037,3.303,1.247,6.531,4.78,7.662c2.886,0.92,7.976,2.557,7.769,7.518
					c-0.144,3.413-2.907,4.33-5.627,4.33c-1.075,0-2.143-0.144-3.04-0.332c-2.897-0.611-11.693-3.504-13.996-13.047
					c-1.518-6.297-0.056-12.637,3.234-19.199C62.668,115.21,65.911,110.697,69.168,110.695 M69.169,102.366L69.169,102.366h-0.002
					c-8.459,0.001-13.643,8.505-15.479,12.161c-4.494,8.964-5.765,17.104-3.888,24.89c2.802,11.612,12.362,17.556,20.375,19.246
					c1.593,0.335,3.237,0.511,4.76,0.511c9.277,0,13.691-6.182,13.95-12.309c0.209-5.004-1.999-9.41-6.216-12.412
					c-2.207-1.571-4.581-2.48-6.325-3.062c0.021-0.897,0.385-2.998,2.546-7.125c0.927-1.767,2.205-4.481,2.549-7.572
					c0.562-5.041-1.487-9.519-5.622-12.282C73.821,103.073,71.521,102.366,69.169,102.366L69.169,102.366z"/>
			</g>
		</g>
		<path fill="#FFFFFF" d="M41.325,49.656c9.544-9.544,25.725-6.3,33.6-5.25c7.875,1.051,28.875,13.65,26.775,24.15
			c-2.101,10.5-11.025,32.549-17.325,33.6s-37.8-5.25-40.95-8.4C40.274,90.606,16.125,74.856,41.325,49.656z"/>
		<path fill="#FFFFFF" d="M222.45,40.207c9.667,0.496,22.05,6.3,30.975,12.074c8.925,5.775,23.101,17.325,16.8,27.301
			c-6.3,9.975-16.8,20.475-26.25,20.475c-9.449,0-21-8.4-24.148-13.65C216.675,81.156,201.975,39.156,222.45,40.207z"/>
		<path fill="#FFFFFF" d="M273.375,120.926c0,2.318-1.881,4.199-4.2,4.199h-16.536c-2.32,0-4.201-1.881-4.201-4.199v-3.238
			c0-2.319,1.881-4.201,4.201-4.201h16.536c2.319,0,4.2,1.882,4.2,4.201V120.926z"/>
	</g>
	<path fill="#ED4F10" stroke="#ED4F10" stroke-width="2.1" stroke-miterlimit="10" d="M238.738,94.742
		c0,0,29.169-7.438,28.119-23.713c-1.287-19.912-45.15-35.176-111.301-35.176c-72.801,0-122.501,18.201-122.149,35.351
		C33.63,82.092,46.678,82.93,46.678,82.93s6.429,7.315,3.63,14.314c-2.802,7-6.255,8.086-12.556,6.684
		c-6.3-1.398-30.404-12.021-24.295-35.173c6.65-25.201,57.75-41.301,142.102-41.301c70.35,0,125.24,17.231,131.25,43.575
		c6.824,29.925-37.219,45.411-37.219,45.411s-11.333,1.804-15.531-3.795C229.857,107.043,231.127,97.541,238.738,94.742z"/>
	<g>
		<g>
			<path fill="#BFEBFF" d="M248.967,99.999c0,49.233-41.312,89.147-92.27,89.149c-50.951,0-92.258-39.914-92.258-89.149
				c0-49.235,41.307-89.147,92.258-89.147C207.652,10.851,248.967,50.763,248.967,99.999z"/>
		</g>
		<g>
			<g>
				<defs>
					<path id="SVGID_1_" d="M248.967,99.999c0,49.233-41.312,89.147-92.27,89.149c-50.951,0-92.258-39.914-92.258-89.149
						c0-49.235,41.307-89.147,92.258-89.147C207.652,10.851,248.967,50.763,248.967,99.999z"/>
				</defs>
				<clipPath id="SVGID_2_">
					<use xlink:href="#SVGID_1_"  overflow="visible"/>
				</clipPath>
				<g clip-path="url(#SVGID_2_)">
					<path fill="#5EBC37" d="M102.327,21.503c3.986,0.26,7.176-0.259,7.176,4.365c0,4.623-5.435,7.951-2.947,9.481
						c1.707,1.05,2.191,3.129,0.525,4.594c-2.888,2.537-8.475,1.33-10.334,2.871c-1.862,1.54-7.709,3.852-5.578,7.446
						c2.122,3.595,0.264,11.812,3.183,12.327c2.93,0.51,3.725-3.852,5.054-5.904c1.331-2.056,0.53-5.137,2.922-7.707
						c2.392-2.564,8.96-5.992,11.622-3.17c2.655,2.821,4.633,9.222,7.176,11.899c3.324,3.5,2.957,11.775,0.038,12.034
						c-2.922,0.258-4.483-2.275-8.737-1.762c-4.252,0.513-5.312,5.394-2.658,6.162c2.658,0.771-0.533,3.596-3.185,3.596
						c-2.658,0-7.441,0.769-10.369,2.569c-2.923,1.8-4.781,5.133-5.845,8.214c-1.062,3.081-1.86,2.312-3.72,4.366
						c-1.862,2.054-2.127,4.624-1.592,6.677c0.526,2.058,1.057,5.392-0.803,5.648c-1.854,0.262-2.124-6.674-4.248-8.214
						c-2.125-1.544-4.25-3.34-6.645-1.544c-2.396,1.799,2.045,7.463,3.373,11.826c1.329,4.361,1.942,6.921,2.476,8.976
						c0.528,2.058,2.656,9.761,5.044,10.529c2.395,0.77,5.052,1.536,6.646,3.081c1.596,1.539,10.096,3.335,13.553,4.105
						c3.454,0.771,14.086,7.961,15.417,11.297c1.324,3.338,4.784,3.082,10.362,4.623c5.582,1.541,13.821,2.566,14.087,6.678
						c0.261,4.107-1.329,5.134-2.924,10.013c-1.597,4.879-2.663,6.164-5.849,8.217c-3.188,2.056-3.983,3.599-3.188,7.961
						c0.796,4.369,5.316,12.326,5.316,12.326l-6.909-0.774c0,0-13.026-12.578-15.416-16.431
						c-2.391-3.851-12.756-13.354-17.011-16.688c-4.25-3.342-11.689-10.785-11.689-16.69c0-5.906,2.389-7.447-1.065-11.554
						c-3.453-4.112-8.501-11.557-11.691-14.637c-3.188-3.082-10.096-8.992-12.22-23.371c-2.127-14.377,12.22-60.341,12.22-60.341
						l13.556-9.501L102.327,21.503z"/>
					<path fill="#5EBC37" d="M126.776,11.489c1.594-0.509,14.084,1.027,18.072,1.54c3.992,0.516,8.179-2.117,10.576,2.502
						c2.387,4.621,5.688,18.024,1.139,19.426c-5.32,1.636-8.526,1.439-9.586,5.034c-1.064,3.598-4.257,7.959-8.244,5.393
						c-3.982-2.568-6.106-6.932-4.247-12.838c1.857-5.905,6.113-12.583,1.329-13.354c-4.785-0.767-8.507,3.339-12.229,3.597
						c-3.716,0.255-6.107-8.987-6.107-8.987L126.776,11.489z"/>
					<path fill="#5EBC37" d="M120.114,24.481c2.735,1.68,7.175,5.392,6.906,10.271c-0.263,4.879-3.452,11.3-6.906,8.472
						c-3.456-2.824-1.061-3.85-2.66-7.703c-1.592-3.85-4.516-3.847-3.188-6.673C115.594,26.021,117.191,22.68,120.114,24.481z"/>
					<path fill="#5EBC37" d="M208.417,18.759c-1.823,2.518,0,11.327-2.876,12.083c-2.861,0.756-9.373-5.289-12.764-4.782
						c-3.389,0.502-7.293,4.28-7.551,7.046c-0.264,2.772-4.168,6.546-2.606,9.062c1.563,2.521,5.985,6.747,8.854,5.738
						c2.863-1.007,1.822-8.758,5.211-8.002c3.387,0.755,6.777,3.775,6.254,6.796c-0.521,3.021-5.215,4.784-9.643,5.541
						c-4.426,0.753-7.291,2.014-9.375,4.527c-2.086,2.521-6.254,5.542-4.691,8.308c1.562,2.771,2.867,5.541-1.041,5.289
						c-3.907-0.254-7.198-0.167-7.449,2.6c-0.266,2.77,2.41,5.124,6.316,4.874c3.904-0.253,7.646-2.186,11.293-5.207
						c3.646-3.021,7.817-4.281,11.98-2.267c4.174,2.017,2.09,5.539,3.391,7.049c1.305,1.512,5.473,0.252,4.172-2.266
						c-1.3-2.517-3.615-6.795,0.028-4.529c3.649,2.266,4.213,9.385,5.777,9.385c1.562,0,2.221-0.978,3.791-1.984
						c1.561-1.005,8.12-2.366,10.466-1.612c2.343,0.755,6.771,6.296,1.047,7.555c-5.74,1.257-10.949-1.762-14.855-0.754
						c-3.904,1.006-9.338,1.795-12.467-1.729c-2.055-2.315-6.861-4.081-12.408-4.04c-2.896,0.022-6.777,2.194-8.654,2.886
						c-5.469,2.016-7.23,7.19-10.1,10.965c-2.861,3.776-6.006,11.605-4.184,19.665c1.82,8.051,1.95,15.045,10.553,14.793
						c8.598-0.248,17.979-2.265,21.883,1.008c3.91,3.275,0,6.041,1.562,8.812c1.563,2.771,4.694,5.791,1.563,10.32
						c-3.125,4.533-4.17,15.359-3.125,20.144c1.043,4.78,2.867,7.297,8.599,2.266c5.733-5.036,13.032-12.84,17.721-17.625
						c4.692-4.782,5.729-8.557,8.078-14.853c2.345-6.293,3.388-8.559,6.517-13.846c3.123-5.285,5.209-9.315,1.816-12.082
						c-3.382-2.774-9.633-11.831-10.158-15.357c-0.523-3.524,3.395-7.302,5.213-0.757c1.82,6.548,3.129,16.865,6.772,13.339
						c3.646-3.521,5.991-11.832,6.774-19.379c0.78-7.555-4.432-38.521-9.379-43.551c-4.953-5.038-24.231-20.897-24.231-20.897
						L208.417,18.759z"/>
					<path fill="#5EBC37" d="M174.282,47.208c3.306-0.25,4.687,6.037,6.51,6.794c1.828,0.758,0.784,3.779-2.085,3.525
						c-2.864-0.249-3.643-2.265-5.727-5.541C170.896,48.715,170.896,47.456,174.282,47.208z"/>
					<path fill="#5EBC37" d="M168.811,52.242c1.809,0.249,4.43,2.012,2.086,4.027c-2.347,2.013-4.688,1.76-4.948-0.251
						C165.682,54.001,166.988,51.986,168.811,52.242z"/>
				</g>
			</g>
		</g>
	</g>
	<path fill="#ED4F10" stroke="#ED4F10" stroke-width="2.1" stroke-miterlimit="10" d="M286.809,71.029
		c6.824,29.925-37.219,45.411-37.219,45.411s-11.333,1.804-15.531-3.795c-4.201-5.602-2.932-15.104,4.682-17.902
		c0,0,29.168-7.438,28.117-23.713"/>
	<path fill="#ED4F10" stroke="#ED4F10" stroke-width="2.1" stroke-miterlimit="10" d="M43.784,69.979
		c0.933-2.53,4.113-1.953,5.038,0.682l9.774,28.315c0.55,1.567-0.275,3.288-1.844,3.834l-27.637,9.207
		c-2.887,1.012-4.855-1.218-3.716-3.593c0.147-0.305,1.965-3.897,2.588-5.147c0.747-1.496,1.005-3.015-1.347-4.398
		c-3.234-1.902-4.856-7.579-1.93-14.526c2.797-6.647,8.095-9.049,11.773-5.687c3.308,3.024,4.773-2.203,5.25-3.412
		C42.494,73.33,43.048,71.973,43.784,69.979z"/>
	<path fill="#ED4F10" d="M67.212,120.445l11.831-17.217L77.88,73.637c0,0,5.164-10.673,12.051-8.605
		c6.878,2.065,13.077,13.768,13.42,15.146c0.345,1.376,8.259,7.229,8.259,7.229l3.443,23.403l16.521,6.541l30.978-3.103
		l14.111-11.354l27.19-9.979l29.943,0.687l3.096,28.221l4.475,22.027l-27.189,3.098l-10.668,9.293l-13.769,5.85l-25.813,1.381
		l-27.536-2.756l-18.239-0.342l-17.897-9.293l-9.983-1.381l-4.475,4.131L64.8,144.885l-3.785-11.359L67.212,120.445z"/>
	<g>
		<g>
			<path fill="#ED4F10" d="M160.745,124.979c-9.151,0-15.211-3.172-19.069-9.985c-2.437-4.298-4.991-15.44-1.407-22.342
				c1.685-3.246,4.523-5.15,8.206-5.509c0.394-0.039,0.77-0.058,1.126-0.058c6.754,0,7.424,6.281,7.826,10.033
				c0.114,1.068,0.222,2.077,0.411,2.868c0.879,3.646,2.729,4.115,4.243,4.115c0.092,0,0.185-0.004,0.278-0.008
				c1.418-0.062,2.445-0.434,3.054-1.107c0.731-0.81,1.044-2.211,0.931-4.167c-0.039-0.708-0.096-1.415-0.15-2.116
				c-0.412-5.299-0.926-11.894,6.545-13.699c0.736-0.178,1.474-0.269,2.188-0.269c2.6,0,4.986,1.188,6.905,3.435
				c3.897,4.566,5.344,12.866,4.489,18.252c-1.805,11.317-10.104,19.3-21.143,20.336
				C163.624,124.904,162.132,124.979,160.745,124.979z"/>
			<path fill="#ED4F10" d="M174.926,84.799c7.397,0,10.428,12.541,9.354,19.299c-1.459,9.161-8.008,17.543-19.295,18.604
				c-1.491,0.141-2.903,0.212-4.239,0.212c-8.405,0-13.81-2.824-17.272-8.938c-3.314-5.846-6.104-23.677,5.202-24.778
				c0.325-0.032,0.634-0.047,0.926-0.047c6.333-0.001,5.252,7.251,6.229,11.318c0.812,3.368,2.686,5.697,6.251,5.697
				c0.121,0,0.242-0.003,0.367-0.008c5.073-0.222,6.177-3.681,5.956-7.458c-0.342-5.984-1.729-12.105,4.818-13.688
				C173.812,84.867,174.382,84.799,174.926,84.799 M174.926,80.669c-0.878,0-1.777,0.11-2.674,0.326
				c-9.182,2.218-8.516,10.762-8.117,15.867c0.055,0.687,0.107,1.38,0.147,2.071c0.089,1.543-0.16,2.401-0.401,2.668
				c-0.163,0.18-0.672,0.387-1.611,0.428c-0.062,0.003-0.125,0.005-0.188,0.005c-0.724,0-1.625,0-2.235-2.534
				c-0.158-0.658-0.259-1.602-0.365-2.602c-0.235-2.207-0.502-4.708-1.612-6.938c-1.585-3.186-4.521-4.941-8.265-4.941
				c-0.431,0-0.878,0.023-1.332,0.067c-4.408,0.429-7.811,2.716-9.834,6.612c-3.799,7.315-1.558,19.019,1.444,24.312
				c4.203,7.423,11.029,11.032,20.865,11.032c1.451,0,3.009-0.078,4.629-0.23c12.006-1.129,21.029-9.789,22.984-22.064
				c0.916-5.771-0.51-14.711-4.957-19.92C181.078,82.107,178.146,80.669,174.926,80.669L174.926,80.669z"/>
		</g>
		<g>
			<path fill="#ED4F10" d="M199.1,120.751c-2.035,0-3.983-0.874-5.634-2.528c-3.517-3.524-5.688-10.586-5.666-18.425
				c0.046-22.052,10.068-27.325,14.375-28.569c0.825-0.239,1.755-0.366,2.683-0.366c3.617,0,8.104,1.948,8.851,7.439
				c0.474,3.571,1.185,4.173,1.433,4.272c0.268-0.122,1.144-0.823,2.082-2.925c1.75-3.926,4.809-6.089,8.609-6.089
				c1.016,0,2.086,0.156,3.188,0.464c5.978,1.683,10.762,8.493,11.377,16.195c0.674,8.326,0.027,13.868-2.03,17.438
				c-2.019,3.481-4.978,5.319-8.56,5.319c-0.391,0-0.791-0.021-1.201-0.065c-3.942-0.431-5.94-4.55-6.455-7.945
				c-0.164-1.065-0.613-2.913-1.769-3.233c-0.411,0.011-1.579,0.656-2.455,1.709c-1.741,2.088-3.606,3.146-5.546,3.146
				c-0.29,0-0.583-0.024-0.869-0.073c-2.533-0.44-4.031-2.688-4.752-3.77l-0.109-0.166c-0.601-0.895-1.192-1.219-1.444-1.219
				c-0.026,0-0.079,0-0.181,0.064c-0.418,0.375-0.515,2.766,0.174,4.773l0.066,0.195c1.027,3.002,2.436,7.113,0.752,10.403
				c-0.881,1.722-2.457,2.938-4.68,3.612C200.59,120.637,199.837,120.751,199.1,120.751z"/>
			<path fill="#ED4F10" d="M204.857,72.927c2.875,0,6.234,1.478,6.804,5.652c0.442,3.345,1.257,5.767,3.243,6.056
				c0.08,0.011,0.158,0.016,0.238,0.016c1.444,0,2.907-1.796,3.965-4.161c1.271-2.854,3.455-4.867,6.724-4.867
				c0.81,0,1.687,0.124,2.63,0.388c5.068,1.427,9.327,7.516,9.876,14.371c0.554,6.854,0.285,12.691-1.762,16.242
				c-1.595,2.753-3.829,4.286-6.771,4.286c-0.318,0-0.645-0.018-0.979-0.055c-2.806-0.307-4.263-3.733-4.636-6.201
				c-0.418-2.719-1.514-4.43-3.258-4.914c-0.162-0.044-0.334-0.065-0.513-0.065c-1.301,0-2.979,1.116-4.082,2.441
				c-1.126,1.35-2.496,2.403-3.959,2.403c-0.171,0-0.343-0.015-0.517-0.045c-1.769-0.307-2.899-2.158-3.502-3.053
				c-0.883-1.315-2.03-2.129-3.157-2.129c-0.438,0-0.872,0.123-1.287,0.386c-1.868,1.18-1.339,5.244-0.673,7.187
				c1.357,3.971,3.447,9.758-2.508,11.565c-0.562,0.172-1.108,0.252-1.639,0.252c-5.576,0-9.26-9.065-9.232-18.881
				c0.021-10.824,3.004-23.738,12.883-26.591C203.378,73.03,204.102,72.927,204.857,72.927 M204.857,68.797
				c-1.137,0-2.233,0.151-3.26,0.448c-10.046,2.9-15.828,14.036-15.863,30.549c-0.022,8.366,2.379,15.987,6.27,19.886
				c2.045,2.051,4.499,3.137,7.096,3.137c0.941,0,1.896-0.146,2.836-0.432c3.465-1.052,5.131-3.107,5.918-4.646
				c1.854-3.623,0.814-7.657-0.246-10.863c0.935,0.766,2.106,1.421,3.551,1.671c0.402,0.07,0.814,0.104,1.223,0.104
				c1.773,0,4.449-0.674,7.131-3.889c0.129-0.152,0.264-0.291,0.396-0.414c0.072,0.248,0.144,0.557,0.201,0.938
				c0.621,4.109,3.162,9.119,8.269,9.678c0.483,0.053,0.962,0.079,1.429,0.079c3.041,0,7.305-1.103,10.344-6.347
				c2.281-3.959,3.014-9.88,2.306-18.646c-0.685-8.53-6.099-16.107-12.874-18.014c-1.287-0.36-2.547-0.542-3.749-0.542
				c-4.312,0-7.94,2.342-10.086,6.465C214.843,71.626,209.637,68.797,204.857,68.797L204.857,68.797z"/>
		</g>
		<g>
			<path fill="#ED4F10" d="M87.549,115.146c-0.218,0-0.438-0.008-0.659-0.022c-5.592-0.372-11.078-5.675-14.314-13.839
				c-1.485-3.746-5.43-13.697-3.292-26.187c1.03-6.03,6.223-16.407,16.308-20.276c3.275-1.256,6.372-1.893,9.203-1.893
				c4.944,0,9.249,1.929,12.793,5.733c3.012,3.232,4.351,7.833,3.674,12.624c-0.833,5.901-4.488,11.19-10.027,14.511
				c-5.582,3.345-8.61,4.671-10.419,5.464c-1.679,0.735-1.691,0.757-2,1.315c-0.204,0.374-0.21,1.103,0.461,1.896
				c3.972,4.68,7.822,10.141,6.242,15.141C94.458,112.973,91.33,115.146,87.549,115.146L87.549,115.146z M93.972,70.126
				c-1.071,0-2.977,0.551-5.114,2.097c-2.215,1.601-2.782,3.293-2.809,3.961c0.602-0.083,1.925-0.544,4.71-2.593l0.4-0.293
				c1.278-0.936,3.375-2.471,3.335-3.111C94.401,70.159,94.23,70.126,93.972,70.126z"/>
			<path fill="#ED4F10" d="M94.794,54.994c5.036,0,8.614,2.213,11.282,5.076c5.857,6.287,3.904,18.075-5.904,23.956
				c-10.979,6.579-11.85,5.177-13.164,7.55c-0.625,1.144-0.531,2.786,0.691,4.23c3.175,3.74,7.186,8.954,5.849,13.184
				c-0.789,2.504-3.179,4.09-5.999,4.09c-0.171,0-0.344-0.006-0.519-0.018c-4.846-0.322-9.693-5.373-12.534-12.541
				c-1.645-4.147-5.183-13.354-3.177-25.077c0.82-4.803,5.213-14.937,15.012-18.696C89.541,55.519,92.34,54.994,94.794,54.994
				 M85.887,78.27c1.597,0,3.858-1.367,6.097-3.014c2.836-2.084,5.449-3.848,4.337-6.081c-0.371-0.745-1.22-1.113-2.348-1.113
				c-1.706,0-4.047,0.841-6.325,2.489c-3.654,2.642-4.393,6.175-3.012,7.312C84.979,78.144,85.402,78.27,85.887,78.27
				 M94.794,50.863c-3.085,0-6.43,0.683-9.942,2.03C73.111,57.398,68.203,69.16,67.248,74.75
				c-2.234,13.06,1.865,23.401,3.409,27.294c3.533,8.912,9.702,14.713,16.1,15.14c0.262,0.018,0.528,0.025,0.792,0.025
				c4.629,0,8.623-2.805,9.938-6.979c2.081-6.584-3.488-13.379-6.411-16.83c0.181-0.081,0.379-0.167,0.567-0.25
				c1.854-0.812,4.958-2.172,10.652-5.583c6.077-3.644,10.089-9.473,11.011-15.994c0.764-5.411-0.77-10.63-4.208-14.321
				C105.147,53.014,100.334,50.863,94.794,50.863L94.794,50.863z"/>
		</g>
		<g>
			<path fill="#ED4F10" d="M126.724,124.932c-8.293,0-18.834-4.541-22.938-13.217c-3.523-7.439-3.333-17.19,0.509-26.078
				c3.062-7.076,6.472-10.515,10.427-10.515c0.936,0,1.897,0.202,2.857,0.601c1.425,0.596,2.523,1.776,3.182,3.415
				c1.114,2.773,0.837,6.466-0.76,10.13c-0.777,1.785-3.162,7.913-1.212,11.845c1.332,2.67,3.394,2.977,7.462,3.005
				c2.994,0.024,10.218,0.809,12.677,7.549c1.462,4.01,0.381,6.841-0.783,8.511c-2.093,3.002-6.229,4.734-11.346,4.754H126.724z"/>
			<path fill="#ED4F10" d="M114.723,77.188c0.72,0,1.409,0.17,2.064,0.442c2.647,1.107,3.536,5.729,1.321,10.813
				c-1.698,3.898-3.148,9.596-1.169,13.586c1.987,3.984,5.476,4.125,9.298,4.152c3.887,0.031,8.986,1.353,10.752,6.191
				c2.308,6.33-2.59,10.463-10.196,10.49c-0.023,0-0.046,0-0.069,0c-7.036,0-17.213-3.877-21.071-12.033
				c-3.381-7.141-2.991-16.211,0.538-24.375C109.293,79.289,112.194,77.188,114.723,77.188 M114.723,73.058L114.723,73.058
				c-7.234,0-11.063,8.851-12.322,11.759c-4.136,9.567-4.311,19.693-0.48,27.783c4.469,9.45,15.861,14.396,24.804,14.396h0.084
				c5.799-0.021,10.55-2.075,13.033-5.637c2.041-2.928,2.406-6.621,1.029-10.398c-2.014-5.52-7.471-8.85-14.599-8.906
				c-4.166-0.029-4.905-0.402-5.635-1.866c-1.013-2.043-0.52-6.009,1.26-10.095c1.816-4.168,2.101-8.441,0.782-11.725
				c-0.856-2.132-2.382-3.748-4.296-4.548C117.16,73.313,115.932,73.058,114.723,73.058L114.723,73.058z"/>
		</g>
		<g>
			<path fill="#ED4F10" d="M106.837,163.734c-5.038,0-5.792-5.605-6.115-8l-0.07-0.51c-0.532-3.713-1.462-4.297-2.302-4.379
				c-0.035-0.004-0.07-0.006-0.106-0.006c-0.486,0-1.607,0.289-3.648,2.221c-0.372,0.349-0.81,0.904-1.273,1.494
				c-1.431,1.815-3.212,4.075-5.938,4.075c-0.6,0-1.201-0.116-1.789-0.348c-5.083-2.007-5.011-7.953-3.169-17.546
				c1.076-5.575,4.9-12.394,11.02-15.06c1.911-0.833,3.943-1.274,5.877-1.274c5.828,0,10.344,3.855,12.391,10.578
				c2.291,7.504,3.168,21.184-0.605,26.41c-1.36,1.885-2.995,2.312-4.126,2.34L106.837,163.734z"/>
			<path fill="#ED4F10" d="M99.324,126.471c4.178,0,8.369,2.393,10.416,9.113c2.854,9.352,2.897,25.947-2.806,26.084
				c-0.032,0.001-0.064,0.001-0.096,0.001c-3.493,0-3.822-4.537-4.141-6.739c-0.379-2.643-1.177-5.848-4.145-6.139
				c-0.102-0.01-0.205-0.016-0.308-0.016c-1.583,0-3.333,1.145-5.067,2.785c-1.629,1.53-3.35,5.006-5.792,5.006
				c-0.331,0-0.675-0.064-1.033-0.205c-3.285-1.297-3.806-5.291-1.896-15.234c0.953-4.939,4.413-11.201,9.816-13.555
				C95.85,126.884,97.585,126.471,99.324,126.471 M96.949,138.818c0.503,0,1.05-0.033,1.565-0.033c0.252,0,0.498,0.008,0.727,0.031
				c1.117,0.106,2.366,0.838,3.331,0.838c0.593,0,1.078-0.275,1.359-1.141c0.613-1.88-1.503-3.584-3.857-3.664
				c-0.09-0.004-0.178-0.004-0.266-0.004c-2.887,0-4.741,1.562-4.777,2.909C95.009,138.671,95.882,138.818,96.949,138.818
				 M99.324,122.34c-2.215,0-4.534,0.5-6.704,1.446c-6.806,2.965-11.042,10.452-12.22,16.56c-1.288,6.704-3.232,16.831,4.435,19.857
				c0.835,0.328,1.691,0.492,2.55,0.492c3.729,0,6.034-2.926,7.561-4.863c0.378-0.479,0.806-1.023,1.06-1.262
				c0.991-0.938,1.647-1.354,2.005-1.536c0.16,0.353,0.395,1.067,0.598,2.481l0.068,0.494c0.326,2.422,1.318,9.789,8.161,9.789
				l0.192-0.003c2.263-0.054,4.306-1.188,5.754-3.194c2.489-3.449,2.993-9.222,2.977-13.455c-0.019-5.062-0.793-10.582-2.071-14.77
				C110.381,123.514,102.541,122.34,99.324,122.34L99.324,122.34z"/>
		</g>
		<g>
			<path fill="#ED4F10" d="M121.871,166.887c-0.301,0-0.617-0.02-0.95-0.059c-1.432-0.172-2.816-1.096-3.896-2.602
				c-2.755-3.84-3.342-10.771-1.612-19.017c2.266-10.821,6.885-16.772,13.356-17.209c0.279-0.019,0.549-0.026,0.811-0.026
				c3.85,0,8.464,1.881,8.591,10.842l0.007,0.356c0.024,0.591,0.056,1.111,0.094,1.573c0.727-2.446,2.446-4.04,4.53-4.04
				c0.095,0,0.189,0.004,0.286,0.011c1.032,0.067,1.962,0.553,2.679,1.399c2.255,2.669,1.906,8.763,1.651,11.259
				c-0.481,4.787-2.392,15.979-9.718,16.439c-0.268,0.017-0.526,0.023-0.776,0.023c-5.768,0-7.591-4.259-8.376-6.745
				c-0.07,0.333-0.131,0.647-0.182,0.905c-0.183,0.934-0.355,1.812-0.586,2.482C126.834,165.275,124.679,166.887,121.871,166.887z"
				/>
			<path fill="#ED4F10" d="M129.58,130.039c6.874,0,6.475,7.646,6.534,9.213c0.075,1.83,0.319,6.582,1.995,6.617
				c0.009,0,0.017,0,0.025,0c1.188,0,1.731-1.762,1.865-3.215c0.197-2.088,1.278-3.883,2.802-3.883c0.046,0,0.093,0.002,0.14,0.006
				c2.68,0.176,2.832,6.373,2.422,10.389c-0.404,4.023-2.094,14.23-7.793,14.588c-0.223,0.014-0.438,0.021-0.647,0.021
				c-4.485,0-5.777-3.131-6.622-6.014c-0.517-1.779-1.047-2.793-1.817-2.793c-0.121,0-0.248,0.025-0.381,0.076
				c-1.37,0.533-1.684,5.047-2.276,6.764c-0.467,1.383-1.546,3.014-3.957,3.014c-0.223,0-0.458-0.016-0.705-0.045
				c-2.774-0.332-6.421-6.332-3.732-19.143c1.035-4.943,3.898-15.062,11.474-15.572C129.139,130.047,129.363,130.039,129.58,130.039
				 M129.58,125.909c-0.307,0-0.624,0.011-0.951,0.032c-5.224,0.352-12.109,3.906-15.238,18.847
				c-2.531,12.062,0.139,18.11,1.956,20.644c1.422,1.981,3.315,3.207,5.329,3.446c0.404,0.049,0.806,0.073,1.195,0.073
				c3.189,0,5.817-1.62,7.269-4.406c1.581,1.838,4.01,3.359,7.784,3.359c0.292,0,0.593-0.01,0.904-0.028
				c6.272-0.394,10.517-7.062,11.646-18.297c0.35-3.42,0.538-9.64-2.129-12.795c-1.072-1.269-2.539-2.022-4.132-2.128
				c-0.124-0.01-0.267-0.014-0.41-0.014c-1.029,0-1.995,0.248-2.86,0.709C138.523,126.904,132.386,125.909,129.58,125.909
				L129.58,125.909z"/>
		</g>
		<g>
			<path fill="#ED4F10" d="M156.752,169.104c-6.154,0-8.775-3.633-9.176-7.033c-0.236-2.032,0.169-3.322,0.599-4.688
				c0.252-0.802,0.538-1.711,0.771-3c0.73-4.046,0.226-9.626-0.684-12.683c-0.864-2.891-2.158-7.219,1.932-10.697
				c2.136-1.824,5.609-2.915,9.289-2.915c3.578,0,6.812,1.043,9.104,2.937c5.19,4.3,8.24,12.053,7.419,18.855
				c-0.957,7.994-5.967,16.893-14.999,18.75C159.477,168.943,158.045,169.104,156.752,169.104L156.752,169.104z M161.629,144.025
				c0.023,0.561,0.135,1.332,0.211,1.863c0.125,0.871,0.254,1.772,0.268,2.658c0.017,0.938-0.135,1.987-0.279,3.003
				c-0.053,0.367-0.121,0.845-0.171,1.298c0.712-0.896,1.278-2.601,1.245-4.685C162.867,146.041,162.124,144.57,161.629,144.025z"/>
			<path fill="#ED4F10" d="M159.482,130.15c2.814,0,5.703,0.74,7.791,2.465c4.514,3.738,7.453,10.639,6.684,17.016
				c-0.764,6.367-4.741,15.201-13.365,16.975c-1.459,0.301-2.73,0.434-3.84,0.434c-5.312,0-6.869-3.038-7.125-5.21
				c-0.306-2.629,0.703-3.488,1.352-7.08c0.815-4.521,0.198-10.496-0.735-13.64c-0.831-2.778-1.784-5.92,1.29-8.534
				C153.292,131.07,156.343,130.15,159.482,130.15 M160.643,155.592c0.051,0,0.104-0.003,0.159-0.008
				c2.53-0.242,4.229-3.547,4.165-7.453c-0.052-3.148-1.529-6.402-3.656-6.402c-0.235,0-0.479,0.041-0.731,0.125
				c-1.886,0.64-0.576,4.127-0.535,6.728C160.085,151.126,158.516,155.592,160.643,155.592 M159.482,126.021
				c-4.156,0-8.131,1.275-10.633,3.412c-5.11,4.349-3.46,9.865-2.573,12.83c0.829,2.787,1.304,8.059,0.638,11.752
				c-0.209,1.159-0.463,1.967-0.708,2.746c-0.454,1.441-0.968,3.076-0.681,5.543c0.771,6.545,6.53,8.863,11.228,8.863
				c1.433,0,3.005-0.174,4.672-0.518c10.039-2.063,15.589-11.799,16.634-20.528c0.916-7.578-2.359-15.894-8.148-20.688
				C167.238,127.23,163.539,126.021,159.482,126.021L159.482,126.021z"/>
		</g>
		<g>
			<path fill="#ED4F10" d="M185.037,166.562c-5.444,0-9.725-2.356-10.407-5.73c-0.536-2.689,0.29-5.387,2.524-8.249
				c2.498-3.188,2.933-5.224,2.857-6.368c-0.127-1.872-1.146-4.242-2.601-6.035c-1.798-2.22-2.864-4.279-2.231-7.119
				c0.526-2.34,3.316-7.133,10.108-8.547c0.96-0.201,1.917-0.304,2.842-0.304c2.774,0,5.136,0.896,6.644,2.526
				c1.148,1.24,1.709,2.853,1.58,4.541c-0.192,2.498-1.343,4.354-2.453,6.148c-0.697,1.125-1.418,2.289-1.904,3.639
				c-0.469,1.305-0.605,3.42-0.618,4.125c0.045,1.654,0.603,4.059,1.716,5.211c1.51,1.567,5.041,5.234,3.76,9.268
				c-1.396,4.357-6.358,6.584-10.658,6.857C185.803,166.551,185.417,166.562,185.037,166.562z"/>
			<path fill="#ED4F10" d="M188.131,126.273c3.737,0,6.385,1.988,6.164,4.846c-0.266,3.432-2.902,5.533-4.24,9.244
				c-0.693,1.928-0.74,4.791-0.74,4.791c0.056,2.147,0.733,5.066,2.295,6.682c1.885,1.957,4.093,4.641,3.276,7.207
				c-1.03,3.215-4.935,5.174-8.823,5.422c-0.346,0.021-0.688,0.032-1.024,0.032c-4.339,0-7.912-1.748-8.384-4.075
				c-0.5-2.512,0.74-4.791,2.129-6.568c1.393-1.776,3.482-4.836,3.29-7.772c-0.169-2.506-1.474-5.248-3.056-7.201
				c-1.578-1.946-2.264-3.387-1.822-5.368c0.43-1.902,2.861-5.798,8.516-6.976C186.553,126.357,187.363,126.273,188.131,126.273
				 M188.131,122.145L188.131,122.145c-1.066,0-2.167,0.117-3.27,0.35c-6.787,1.413-10.821,6.23-11.695,10.107
				c-0.864,3.883,0.852,6.666,2.641,8.877c1.187,1.463,2.047,3.422,2.146,4.879c0.032,0.512-0.134,2.031-2.42,4.949
				c-2.595,3.323-3.578,6.66-2.929,9.924c0.897,4.43,5.894,7.396,12.435,7.396c0.425,0,0.856-0.014,1.284-0.04
				c5.004-0.319,10.806-3.004,12.498-8.282c1.656-5.216-2.625-9.66-4.236-11.334c-0.507-0.523-1.075-2.125-1.139-3.832
				c0.027-0.926,0.191-2.533,0.496-3.377c0.41-1.142,1.045-2.164,1.716-3.248c1.184-1.91,2.524-4.076,2.757-7.076
				c0.175-2.271-0.58-4.438-2.124-6.104C194.387,123.277,191.488,122.145,188.131,122.145L188.131,122.145z"/>
		</g>
		<g>
			<path fill="#ED4F10" d="M205.898,160.568c-0.914,0-3.289-0.26-5.604-2.672c-3.213-3.348-4.676-9.084-4.349-17.049
				c0.262-6.421,2.57-11.529,6.177-13.668c1.464-0.875,3-1.32,4.558-1.32c4.176,0,6.944,3.091,7.94,4.418l0.062,0.08
				c0.293,0.392,0.619,0.826,0.918,1.199c-0.004-0.5-0.058-1.168-0.205-2.017c-0.164-0.959-0.547-4.242,1.323-6.563
				c0.962-1.192,2.325-1.861,3.943-1.936l0.22-0.005c5.192,0,7.077,7.502,7.11,14.521c0.103,17.76-4.298,21.834-6.931,22.684
				c-0.91,0.292-1.801,0.439-2.648,0.439c-2.271,0-5.434-1.062-7.598-6.123c-0.092-0.211-0.184-0.404-0.274-0.582
				c0.083,0.484,0.181,0.942,0.239,1.219l0.047,0.223c0.414,1.956,0.084,3.844-0.903,5.18c-0.837,1.129-2.112,1.823-3.595,1.954
				C206.189,160.562,206.048,160.568,205.898,160.568z"/>
			<path fill="#ED4F10" d="M220.881,123.104c3.445,0,5.018,6.457,5.045,12.465c0.035,6.091-0.724,19.168-5.498,20.707
				c-0.729,0.234-1.398,0.341-2.016,0.341c-2.934,0-4.646-2.404-5.699-4.869c-0.816-1.907-2.02-3.246-3.021-3.246
				c-0.096,0-0.189,0.013-0.281,0.037c-1.704,0.478-0.977,3.539-0.604,5.308c0.483,2.291-0.361,4.446-2.66,4.649
				c-0.078,0.007-0.16,0.011-0.248,0.011c-2.459,0-8.496-2.814-7.89-17.57c0.205-5.027,1.896-10.037,5.166-11.978
				c1.22-0.728,2.397-1.031,3.505-1.031c2.666,0,4.914,1.759,6.289,3.593c1.336,1.779,2.18,2.924,3.135,2.924
				c0.196,0,0.398-0.049,0.61-0.15c1.204-0.58,1.04-3.236,0.714-5.105c-0.38-2.229,0.03-5.932,3.326-6.08
				C220.796,123.104,220.839,123.104,220.881,123.104 M220.881,118.973c-0.104,0-0.209,0.002-0.312,0.008
				c-2.194,0.099-4.133,1.059-5.457,2.701c-1.104,1.369-1.606,2.957-1.81,4.389c-2.003-1.471-4.291-2.274-6.622-2.274
				c-1.937,0-3.828,0.544-5.623,1.616c-4.197,2.488-6.884,8.23-7.175,15.354c-0.351,8.547,1.306,14.793,4.923,18.562
				c2.018,2.102,4.604,3.308,7.094,3.308c0.213,0,0.414-0.01,0.603-0.024c2.088-0.186,3.89-1.174,5.082-2.785
				c0.313-0.426,0.58-0.887,0.796-1.377c1.521,1.355,3.492,2.299,6.034,2.299c1.063,0,2.166-0.182,3.276-0.538
				c3.695-1.19,6.1-5.06,7.354-11.827c0.952-5.145,1.025-10.689,1.014-12.836C230.009,125.324,226.492,118.973,220.881,118.973
				L220.881,118.973z"/>
		</g>
		<g>
			<path fill="#ED4F10" d="M243.561,152.379c-1.222,0-2.433-0.145-3.601-0.43c-2.254-0.547-13.435-4.115-11.979-20.568
				c0.231-2.676,1.6-8.496,5.248-13.322c3.756-4.953,8.406-7.569,13.449-7.569l0.342,0.004c2.397,0.056,4.498,0.93,5.914,2.462
				c1.357,1.471,2.039,3.5,1.914,5.714c-0.262,4.651-5.269,6.692-7.675,7.675l-0.248,0.102c-4.049,1.66-5.302,4.016-5.892,5.642
				c-0.733,2.026-0.579,3.935,0.414,5.099c0.502,0.586,1.039,0.795,1.347,0.795c0.056,0,0.093-0.008,0.11-0.013
				c-0.021-0.028,0.062-0.466-0.319-1.506c-0.86-2.401-0.728-6.737,3.146-8.896c1.391-0.775,2.828-1.17,4.273-1.17
				c2.373,0,4.591,1.057,6.414,3.054c2.786,3.06,4.48,10.584,0.259,16.188C253.448,149.922,248.666,152.379,243.561,152.379z"/>
			<path fill="#ED4F10" d="M246.678,112.553c0.098,0,0.195,0.002,0.293,0.004c3.7,0.086,6.012,2.496,5.814,5.996
				c-0.195,3.482-4.545,5.119-6.645,5.98c-4.891,2.006-6.381,5.004-7.05,6.848c-0.974,2.691-0.72,5.379,0.785,7.143
				c0.874,1.021,1.967,1.521,2.917,1.521c0.678,0,1.283-0.252,1.688-0.748c0.783-0.948,0.438-2.471,0.043-3.545
				c-0.532-1.487-0.66-4.78,2.213-6.383c1.089-0.606,2.191-0.908,3.269-0.908c1.761,0,3.449,0.804,4.89,2.381
				c2.32,2.55,3.625,8.921,0.135,13.556c-3.04,4.031-7.355,5.918-11.469,5.918c-1.06,0-2.104-0.125-3.11-0.369
				c-4.63-1.125-11.519-5.859-10.413-18.381c0.168-1.935,1.246-7.506,4.84-12.258C238.391,114.67,242.52,112.555,246.678,112.553
				 M246.678,108.423L246.678,108.423c-3.984,0-9.838,1.455-15.093,8.388c-4.847,6.406-5.594,13.597-5.663,14.396
				c-0.584,6.606,0.717,12.092,3.863,16.297c3.265,4.36,7.472,5.916,9.688,6.455c1.325,0.321,2.7,0.487,4.086,0.487
				c5.762,0,11.145-2.758,14.768-7.563c4.539-6.026,3.468-14.598-0.379-18.821c-1.274-1.396-2.719-2.416-4.274-3.031
				c1.696-1.469,3.081-3.479,3.236-6.243c0.155-2.777-0.718-5.347-2.459-7.231c-1.8-1.945-4.421-3.057-7.384-3.125
				C246.938,108.425,246.809,108.423,246.678,108.423L246.678,108.423z"/>
		</g>
		<g>
			<path fill="#ED4F10" d="M74.936,152.908c-1.386,0-2.649-0.204-3.465-0.376c-2.123-0.447-12.845-3.255-15.579-14.583
				c-1.516-6.288-0.405-13.028,3.396-20.609c0.731-1.455,4.639-8.709,9.881-8.709c1.123,0,2.188,0.333,3.168,0.989
				c3.52,2.353,3.857,6.303,1.002,11.739c-2.164,4.133-3.23,7.402-3.261,9.998c-0.023,2.092,0.538,4.772,3.345,5.672
				c2.834,0.902,9.476,3.021,9.203,9.57C82.459,150.551,79.584,152.908,74.936,152.908z"/>
			<path fill="#ED4F10" d="M69.168,110.695c0.678,0,1.356,0.195,2.02,0.641c3.474,2.322,1.678,6.482,0.322,9.064
				c-2.121,4.051-3.46,7.736-3.497,10.934c-0.037,3.303,1.247,6.531,4.78,7.662c2.886,0.92,7.976,2.557,7.769,7.518
				c-0.144,3.413-2.907,4.33-5.627,4.33c-1.075,0-2.143-0.144-3.04-0.332c-2.897-0.611-11.693-3.504-13.996-13.047
				c-1.518-6.297-0.056-12.637,3.234-19.199C62.668,115.21,65.911,110.697,69.168,110.695 M69.169,106.566L69.169,106.566
				c-6.294,0-10.567,7.535-11.727,9.846c-4.029,8.037-5.193,15.238-3.559,22.021c3.025,12.535,14.824,15.627,17.159,16.119
				c0.915,0.192,2.329,0.422,3.893,0.422c6.933,0,9.584-4.281,9.753-8.285c0.339-8.127-7.638-10.67-10.641-11.629
				c-0.476-0.151-1.939-0.619-1.905-3.68c0.026-2.261,1.016-5.227,3.026-9.064c0.836-1.594,1.833-3.729,2.095-6.088
				c0.388-3.479-0.955-6.437-3.781-8.326C72.16,107.018,70.708,106.566,69.169,106.566L69.169,106.566z"/>
		</g>
	</g>
	<g>
		<g>
			<g>
				<path fill="#FFFFFF" d="M149.713,88.163c7.354-0.722,6.128,7.016,7.153,11.271c0.834,3.482,2.805,5.849,6.61,5.689
					c5.076-0.223,6.178-3.676,5.963-7.457c-0.344-5.984-1.731-12.108,4.816-13.691c8.629-2.086,12.206,11.839,11.057,19.091
					c-1.459,9.162-8.01,17.545-19.299,18.604c-10.873,1.021-17.495-1.646-21.513-8.729C141.189,107.096,138.4,89.268,149.713,88.163
					z"/>
			</g>
			<g>
				<path fill="#FFFFFF" d="M203.783,72.181c3.018-0.878,8.191,0.09,8.908,5.364c0.445,3.348,1.258,5.773,3.246,6.059
					c1.521,0.211,3.09-1.651,4.203-4.143c1.584-3.566,4.596-5.814,9.354-4.485c5.068,1.43,9.324,7.521,9.877,14.376
					c0.554,6.852,0.289,12.687-1.762,16.238c-1.769,3.051-4.319,4.607-7.752,4.236c-2.805-0.307-4.258-3.736-4.635-6.201
					c-0.416-2.718-1.515-4.433-3.26-4.917c-1.339-0.364-3.337,0.87-4.594,2.378c-1.258,1.508-2.82,2.645-4.473,2.359
					c-1.769-0.312-2.9-2.16-3.506-3.054c-1.225-1.822-2.959-2.688-4.443-1.743c-1.868,1.18-1.338,5.239-0.67,7.188
					c1.356,3.969,3.441,9.756-2.51,11.564c-6.479,1.969-10.898-7.881-10.875-18.631C190.923,87.95,193.9,75.034,203.783,72.181z"/>
			</g>
			<g>
				<path fill="#FFFFFF" d="M107.107,59.037c-3.966-4.256-9.948-7.075-19.747-3.316c-9.796,3.755-14.185,13.889-15.005,18.694
					c-2.008,11.724,1.529,20.928,3.175,25.074c2.84,7.166,7.686,12.22,12.532,12.542c3.041,0.207,5.681-1.42,6.52-4.072
					c1.335-4.23-2.675-9.444-5.852-13.193c-1.22-1.441-1.316-3.076-0.687-4.223c1.311-2.372,2.178-0.97,13.162-7.549
					C111.015,77.113,112.969,65.326,107.107,59.037z M93.015,74.228c-2.916,2.141-5.871,3.812-7.348,2.603
					c-1.378-1.137-0.642-4.672,3.013-7.312c3.781-2.74,7.741-3.246,8.673-1.382C98.464,70.376,95.855,72.138,93.015,74.228z"/>
			</g>
			<g>
				<path fill="#FFFFFF" d="M117.819,76.598c2.647,1.105,3.537,5.726,1.322,10.814c-1.702,3.9-3.147,9.595-1.171,13.583
					c1.989,3.987,5.474,4.124,9.303,4.157c3.882,0.031,8.984,1.352,10.752,6.19c2.305,6.326-2.595,10.464-10.203,10.49
					c-7.036,0.021-17.268-3.853-21.137-12.031c-3.378-7.146-2.99-16.215,0.539-24.377C111.207,76.219,114.861,75.37,117.819,76.598z
					"/>
			</g>
			<g>
				<path fill="#FFFFFF" d="M110.771,134.551c-2.902-9.516-10.096-10.354-15.469-8.014c-5.402,2.354-8.861,8.613-9.815,13.561
					c-1.907,9.943-1.391,13.937,1.899,15.232c3.004,1.18,4.975-3.064,6.82-4.803c1.853-1.746,3.719-2.93,5.377-2.771
					c2.97,0.291,3.768,3.494,4.147,6.142c0.319,2.217,0.651,6.819,4.232,6.735C113.672,160.5,113.625,143.9,110.771,134.551z
					 M104.959,137.477c-0.736,2.279-2.882,0.48-4.687,0.303c-1.689-0.168-4.245,0.507-4.212-1.055
					c0.039-1.389,2.003-3.008,5.047-2.908C103.457,133.9,105.576,135.604,104.959,137.477z"/>
			</g>
			<g>
				<path fill="#FFFFFF" d="M118.465,144.605c1.038-4.945,3.902-15.064,11.475-15.576c7.571-0.51,7.146,7.572,7.206,9.193
					c0.076,1.829,0.324,6.579,1.997,6.614c1.208,0.021,1.754-1.752,1.892-3.221c0.2-2.146,1.343-3.979,2.938-3.873
					c2.683,0.176,2.834,6.373,2.424,10.391c-0.404,4.023-2.098,14.229-7.795,14.587c-5.006,0.312-6.384-2.978-7.264-5.99
					c-0.604-2.064-1.214-3.094-2.203-2.715c-1.365,0.53-1.682,5.043-2.276,6.762c-0.508,1.508-1.751,3.315-4.659,2.967
					C119.425,163.414,115.776,157.41,118.465,144.605z"/>
			</g>
			<g>
				<path fill="#FFFFFF" d="M168.305,131.582c-4.416-3.648-12.402-2.889-15.738-0.043c-3.076,2.617-2.121,5.76-1.293,8.537
					c0.937,3.141,1.554,9.121,0.736,13.641c-0.646,3.588-1.655,4.453-1.35,7.076c0.31,2.627,2.515,6.52,10.964,4.779
					c8.623-1.773,12.603-10.604,13.366-16.977C175.758,142.219,172.818,135.32,168.305,131.582z M161.831,154.553
					c-2.356,0.225-0.712-4.398-0.757-7.004c-0.039-2.605-1.35-6.086,0.535-6.727c2.512-0.854,4.332,2.777,4.389,6.279
					C166.062,151.006,164.365,154.311,161.831,154.553z"/>
			</g>
			<g>
				<path fill="#FFFFFF" d="M190.348,144.119c0.055,2.15,0.731,5.072,2.295,6.684c1.879,1.959,4.092,4.641,3.274,7.209
					c-1.028,3.211-4.931,5.17-8.819,5.42c-4.796,0.303-8.904-1.529-9.41-4.049c-0.504-2.508,0.74-4.785,2.129-6.564
					c1.394-1.771,3.482-4.834,3.287-7.77c-0.168-2.51-1.473-5.25-3.047-7.201c-1.584-1.947-2.269-3.387-1.828-5.371
					c0.43-1.903,2.861-5.795,8.514-6.977c4.957-1.037,8.852,1.145,8.583,4.584c-0.265,3.438-2.899,5.535-4.241,9.25
					C190.393,141.26,190.348,144.119,190.348,144.119z"/>
			</g>
			<g>
				<path fill="#FFFFFF" d="M199.04,139.896c0.203-5.023,1.896-10.029,5.168-11.976c4.153-2.478,7.849-0.028,9.797,2.562
					c1.611,2.148,2.504,3.371,3.744,2.771c1.202-0.584,1.034-3.232,0.716-5.105c-0.385-2.227,0.027-5.93,3.324-6.078
					c3.531-0.157,5.143,6.382,5.173,12.466c0.03,6.09-0.728,19.164-5.505,20.702c-4.197,1.347-6.436-1.547-7.713-4.522
					c-0.893-2.092-2.256-3.502-3.307-3.213c-1.697,0.476-0.972,3.543-0.597,5.308c0.478,2.291-0.364,4.448-2.666,4.651
					C204.904,157.652,198.413,155.18,199.04,139.896z"/>
			</g>
			<g>
				<path fill="#FFFFFF" d="M231.068,130.531c0.164-1.936,1.246-7.508,4.841-12.256c3.597-4.75,7.838-6.853,12.092-6.752
					c3.703,0.088,6.011,2.496,5.815,5.992c-0.194,3.485-4.545,5.121-6.644,5.987c-4.891,2.004-6.38,5.002-7.048,6.84
					c-0.977,2.695-0.721,5.388,0.783,7.146c1.496,1.75,3.632,1.966,4.604,0.773c0.783-0.951,0.438-2.469,0.043-3.547
					c-0.533-1.49-0.658-4.777,2.213-6.383c2.871-1.604,5.842-1.07,8.16,1.475c2.315,2.549,3.624,8.92,0.135,13.553
					c-3.824,5.07-9.662,6.75-14.582,5.55C236.854,147.789,229.962,143.053,231.068,130.531z"/>
			</g>
			<g>
				<path fill="#FFFFFF" d="M62.167,117.236c1.852-3.693,6.199-9.514,10.055-6.935c3.473,2.322,1.676,6.484,0.322,9.066
					c-2.123,4.051-3.458,7.733-3.499,10.93c-0.036,3.304,1.247,6.535,4.783,7.662c2.885,0.92,7.973,2.562,7.766,7.522
					c-0.198,4.759-5.498,4.664-8.666,3.996c-2.898-0.615-11.691-3.506-13.997-13.049C57.413,130.135,58.88,123.795,62.167,117.236z"
					/>
			</g>
		</g>
		<g>
			<g>
				<path fill="#DCDDDE" d="M166.016,121.672c11.289-1.061,17.84-9.443,19.297-18.605c0.211-1.323,0.261-2.874,0.153-4.505
					c-0.034,0.472-0.086,0.927-0.153,1.356c-1.457,9.162-8.008,17.544-19.297,18.604c-10.873,1.021-17.496-1.646-21.514-8.729
					c-1.348-2.379-2.607-6.74-2.868-11.152c-0.336,5.359,1.198,11.353,2.868,14.302C148.52,120.025,155.143,122.693,166.016,121.672
					z"/>
			</g>
			<g>
				<path fill="#DCDDDE" d="M237.609,105.59c1.619-2.805,2.115-7.051,1.982-12.085c-0.13,3.654-0.712,6.734-1.982,8.935
					c-1.769,3.054-3.674,4.785-7.11,4.441c-2.625-0.262-3.485-2.51-4.287-6.211c-0.7-3.238-2.013-4.813-4.248-5.111
					c-1.376-0.184-3.337,0.869-4.594,2.378c-1.257,1.507-2.82,2.644-4.474,2.358c-1.768-0.31-2.899-2.16-3.504-3.053
					c-1.226-1.823-2.959-2.688-4.445-1.743c-1.867,1.179-3.34,3.836-2.799,7.621c0.701,4.899,3.764,9.711-0.961,11.112
					c-6.156,1.822-9.91-6.879-10.265-16.948c-0.014,0.498-0.028,0.995-0.028,1.485c-0.024,10.75,4.395,20.6,10.875,18.631
					c5.95-1.81,3.865-7.596,2.508-11.564c-0.666-1.949-1.197-6.008,0.67-7.188c1.486-0.945,3.221-0.079,4.445,1.743
					c0.604,0.894,1.736,2.744,3.504,3.054c1.652,0.285,3.217-0.853,4.474-2.359c1.257-1.508,3.255-2.743,4.594-2.378
					c1.745,0.484,2.843,2.199,3.259,4.917c0.377,2.465,1.832,5.895,4.635,6.201C233.29,110.197,235.842,108.641,237.609,105.59z"/>
			</g>
			<g>
				<path fill="#DCDDDE" d="M88.68,69.519c3.781-2.74,7.741-3.246,8.673-1.382c0.248,0.498,0.301,0.973,0.219,1.432
					c0.615-1.151,0.728-2.451-0.071-3.987c-1.139-2.188-5.039-1.952-8.82,0.787c-3.59,2.594-5.369,7.6-3.523,9.684
					C84.629,74.509,85.648,71.708,88.68,69.519z"/>
			</g>
			<g>
				<path fill="#DCDDDE" d="M101.206,79.845c-7.207,4.374-11.756,5.6-13.507,7.786c-1.07,1.338-1.661,3.5,0.351,6.125
					c0.024,0.032,0.049,0.062,0.075,0.094c-0.612-1.183-0.581-2.396-0.081-3.307c1.311-2.372,2.178-0.97,13.162-7.549
					c6.752-4.049,9.781-10.896,9.102-16.822C109.794,71.227,106.761,76.472,101.206,79.845z"/>
			</g>
			<g>
				<path fill="#DCDDDE" d="M75.53,99.489c2.84,7.166,7.686,12.22,12.532,12.542c3.041,0.207,5.681-1.42,6.52-4.072
					c0.478-1.516,0.263-3.156-0.345-4.811c0.057,0.354,0.101,0.721,0.112,1.106c0.088,2.625-3.246,4.832-6.287,4.625
					c-4.847-0.321-9.692-5.377-12.532-12.542c-1.211-3.054-3.442-8.856-3.736-16.383C71.469,89.012,74.155,96.022,75.53,99.489z"/>
			</g>
			<g>
				<path fill="#DCDDDE" d="M127.822,118.684c-7.036,0.021-17.268-3.852-21.137-12.031c-1.364-2.883-2.104-6.084-2.28-9.409
					c-0.232,4.446,0.489,8.772,2.28,12.56c3.869,8.18,14.101,12.051,21.137,12.031c7.608-0.027,12.508-4.164,10.203-10.49
					c-0.015-0.039-0.033-0.072-0.047-0.109C138.414,115.992,134.354,118.662,127.822,118.684z"/>
			</g>
			<g>
				<path fill="#DCDDDE" d="M96.061,136.725c0.039-1.389,2.003-3.008,5.047-2.908c2.051,0.074,3.925,1.382,3.958,2.957
					c0.016-0.049,0.034-0.088,0.047-0.141c0.787-3.412-1.225-5.164-4.2-5.25c-3.043-0.09-5.338,1.66-5.25,3.85
					c0.035,0.865,0.187,1.375,0.413,1.67C96.068,136.846,96.059,136.791,96.061,136.725z"/>
			</g>
			<g>
				<path fill="#DCDDDE" d="M107.963,157.484c-2.414,0.146-2.554-4.474-2.938-6.68c-0.699-4.023-2.472-5.906-5.441-6.197
					c-1.658-0.16-3.746,1.035-5.377,2.77c-1.736,1.848-3.816,5.984-6.82,4.803c-1.738-0.686-2.695-2.135-2.936-4.805
					c-0.323,4.762,0.609,7.037,2.936,7.955c3.004,1.18,4.975-3.064,6.82-4.803c1.853-1.746,3.719-2.93,5.377-2.771
					c2.97,0.291,3.768,3.494,4.147,6.142c0.319,2.217,0.651,6.819,4.232,6.735c3.609-0.084,4.916-6.75,4.67-14.002
					C112.428,152.492,111.022,157.301,107.963,157.484z"/>
			</g>
			<g>
				<path fill="#DCDDDE" d="M138.602,159.57c-5.006,0.313-5.898-2.932-6.714-5.963c-0.613-2.275-1.764-3.119-2.753-2.742
					c-1.365,0.531-2.688,3.016-3.196,6.416c-0.263,1.75-1.401,3.676-3.739,3.312c-1.933-0.299-4.298-3.293-4.626-9.444
					c-0.446,8.33,2.377,12.328,4.626,12.596c2.908,0.35,4.151-1.459,4.659-2.967c0.595-1.719,0.911-6.23,2.276-6.762
					c0.989-0.379,1.6,0.649,2.203,2.715c0.88,3.014,2.258,6.303,7.264,5.99c5.697-0.357,7.391-10.562,7.795-14.587
					c0.149-1.456,0.222-3.204,0.128-4.846c-0.029,0.59-0.073,1.162-0.128,1.694C145.992,149.01,144.299,159.213,138.602,159.57z"/>
			</g>
			<g>
				<path fill="#DCDDDE" d="M161.624,162.424c-8.449,1.738-10.837-2.166-10.487-4.969c0.023-0.186,0.041-0.359,0.057-0.529
					c-0.414,1.314-0.719,2.264-0.532,3.867c0.31,2.627,2.515,6.52,10.964,4.779c8.623-1.773,12.602-10.604,13.366-16.977
					c0.147-1.22,0.155-2.462,0.047-3.693c-0.017,0.182-0.024,0.363-0.047,0.545C174.227,151.818,170.247,160.648,161.624,162.424z"
					/>
			</g>
			<g>
				<path fill="#DCDDDE" d="M166.014,144.682c-0.351-4.199-1.863-7.152-4.377-6.301c-1.263,0.43-1.297,2.203-1.027,4.096
					c0.055-0.807,0.312-1.42,1-1.653c2.513-0.854,4.334,2.776,4.39,6.278c0.004,0.236,0.001,0.467-0.008,0.697
					C166.1,146.928,166.113,145.896,166.014,144.682z"/>
			</g>
			<g>
				<path fill="#DCDDDE" d="M195.325,154.656c0.612,3.502-4.339,5.375-8.229,5.625c-4.457,0.281-8.936-1.041-9.334-3.549
					c-0.205,0.844-0.26,1.731-0.074,2.649c0.504,2.521,4.613,4.353,9.408,4.05c3.891-0.25,7.791-2.209,8.82-5.42
					c0.428-1.347,0.021-2.722-0.73-4.011C195.234,154.219,195.285,154.428,195.325,154.656z"/>
			</g>
			<g>
				<path fill="#DCDDDE" d="M221.457,152.092c-4.197,1.344-6.436-1.549-7.713-4.525c-0.893-2.092-2.256-3.502-3.307-3.213
					c-1.697,0.478-2.602,2.34-2.164,5.666c0.307,2.32,0.35,4.287-1.399,4.726c-2.021,0.506-7.421-2.19-7.849-14.349
					c-0.465,14.83,5.904,17.254,8.149,17.066c2.302-0.203,3.144-2.361,2.666-4.652c-0.375-1.764-1.103-4.832,0.597-5.307
					c1.051-0.289,2.414,1.121,3.307,3.213c1.277,2.977,3.516,5.869,7.713,4.523c3.626-1.168,4.936-8.977,5.344-15.336
					C226.125,145.408,224.592,151.082,221.457,152.092z"/>
			</g>
			<g>
				<path fill="#DCDDDE" d="M247.299,121.057c-4.891,2.004-6.627,4.781-7.438,6.562c-1.188,2.615-1.219,5.363-0.174,7.225
					c-0.268-1.377-0.129-2.934,0.438-4.5c0.668-1.838,2.157-4.836,7.048-6.84c2.099-0.867,6.448-2.502,6.644-5.988
					c0.037-0.67-0.045-1.283-0.184-1.863C253.5,118.365,249.178,120.279,247.299,121.057z"/>
			</g>
			<g>
				<path fill="#DCDDDE" d="M258.113,135.26c-0.059,1.668-0.602,3.424-1.889,5.133c-3.824,5.072-9.824,6.57-14.744,5.367
					c-3.806-0.92-9.277-3.723-10.492-11.646c0.378,9.854,6.338,13.791,10.492,14.798c4.92,1.2,10.758-0.479,14.582-5.55
					C257.936,140.875,258.419,137.889,258.113,135.26z"/>
			</g>
			<g>
				<path fill="#DCDDDE" d="M72.928,146.33c-2.898-0.615-11.691-3.506-13.997-13.049c-0.278-1.156-0.455-2.314-0.539-3.479
					c-0.149,2.222,0.008,4.429,0.539,6.63c2.306,9.543,11.099,12.434,13.997,13.049c3.168,0.668,8.468,0.762,8.666-3.996
					c0.045-1.088-0.174-2.008-0.559-2.805C80.903,146.779,76.026,146.984,72.928,146.33z"/>
			</g>
		</g>
	</g>
	<g>
		<text transform="matrix(1 0 0 1 259.5518 122.0186)" fill="#ED4F10" font-family="'Helvetica'" font-size="7.35">TM</text>
	</g>
	<g>
		<g>
			<path opacity="0.3" enable-background="new    " d="M166.8,84.043c0,0,1.511,0.827,8.007,0.482
				c5.774-0.307,7.131-1.139,7.131-1.139s-1.531-1.443-3.019-1.969c-2.476-0.873-4.506-0.351-6.956-0.174
				C169.512,81.418,167.412,83.256,166.8,84.043z"/>
			<path opacity="0.3" enable-background="new    " d="M189.199,80.938c0,0,4.891-0.679,11.244-5.862
				c4.988-4.068,5.645-6.169,5.645-6.169s-3.457-0.7-8.97,1.969C192.854,72.939,190.206,78.837,189.199,80.938z"/>
		</g>
		<g>
			<path fill="#ED4F10" d="M174.383,48.125c-0.064,0.051-0.134,0.098-0.203,0.145c-0.127-0.033-0.258-0.073-0.397-0.12
				c-0.665-2.086-1.981-4.972-3.953-8.663c-2.17-4.118-4.649-7.067-7.438-8.838c-2.774-1.792-4.709-2.973-5.783-3.541
				c-6.155-3.292-8.324-5.904-6.51-7.845c1.479-1.152,4.094-0.749,7.846,1.217c2.854,1.52,5.547,3.656,8.072,6.414
				c0.783,0.861,1.553,1.771,2.303,2.729C171.438,33.665,173.46,39.831,174.383,48.125z"/>
			<path fill="#ED4F10" d="M211.486,51.561c0.09-1.062,0.134-2.155,0.135-3.272c0.001-0.082,0.001-0.162,0-0.244
				c0.501-0.201,1.006-0.371,1.518-0.515c3.781-1.044,6.682-0.852,8.697,0.57c2.489,1.766,4.046,3.672,4.682,5.717
				c0.59,1.93,0.457,3.497-0.401,4.704c-0.624,0.887-1.537,1.401-2.737,1.536c-1.229,0.126-2.402-0.206-3.521-0.993
				c-0.9-0.641-1.767-1.789-2.596-3.444c-0.835-1.666-1.724-2.836-2.664-3.505c-0.471-0.332-1.104-0.521-1.908-0.567
				C212.342,51.524,211.939,51.528,211.486,51.561z"/>
			<g>
				<g>
					<path fill="#6C56B9" d="M174.557,47.702c2.133-0.384,3.711-1.518,4.73-3.398c0.396-0.741,0.789-1.735,1.172-2.985
						c0.232-0.716,0.576-1.853,1.029-3.409c0.922-2.967,2.143-5.29,3.65-6.974c2.159-2.398,5.276-4.108,9.36-5.127
						c2.033-0.134,4.005,0.139,5.913,0.822c3.123,1.138,5.633,3.168,7.521,6.09c2.836,4.375,4.236,9.558,4.213,15.548
						c-0.032,5.249-1.064,9.868-3.1,13.856c-1.505,2.867-4.037,5.82-7.59,8.861c-1.023,0.878-2.076,1.706-3.154,2.483
						c-3.342,2.507-7.414,4.603-12.226,6.288c-0.048,0.016-0.097,0.033-0.146,0.05c-0.188,0.069-0.38,0.137-0.578,0.203
						c-0.047,0.016-0.099,0.03-0.146,0.045l-0.248,0.081l-8.112,1.955c-2.434,0.404-4.873,0.647-7.318,0.73
						c-5.361,0.186-10.16-0.431-14.396-1.851c-3.639-1.216-6.878-3.317-9.714-6.31c-2.199-2.319-3.893-4.856-5.092-7.61
						c-1.365-3.091-1.992-6.479-1.871-10.164c0.124-3.909,1.071-7.202,2.851-9.879c2.262-3.397,6.219-5.722,11.867-6.973
						c2.571-0.572,4.947-0.647,7.129-0.226c2.213,0.424,4.172,1.352,5.875,2.789c2.699,2.274,4.422,3.669,5.164,4.184
						c1.125,0.779,2.084,1.2,2.873,1.26c0.061-0.059,0.121-0.117,0.184-0.179C174.452,47.81,174.503,47.755,174.557,47.702z
						 M157.729,63.407c1.158,0.119,2.363,0.142,3.617,0.071c3.523-0.19,7.401-1.117,11.631-2.78
						c-0.021-0.147-0.05-0.328-0.086-0.533c0.016,0.042,0.031,0.087,0.051,0.139l-0.207-1.091c-0.146-1.253-0.52-2.491-1.123-3.709
						c-0.586-1.241-1.389-2.343-2.405-3.302c-0.998-0.965-2.126-1.717-3.38-2.254c-1.391-0.617-2.539-1.032-3.448-1.243
						c-2.237-0.517-4.476-0.543-6.707-0.08c-2.026,0.415-3.653,1.337-4.881,2.765c-1.148,1.316-1.933,3.037-2.362,5.164
						c-0.031,0.144-0.061,0.289-0.085,0.435c-0.016,0.026-0.024,0.054-0.025,0.08l0.017-0.033c-0.206,0.695-0.406,1.462-0.599,2.297
						C150.602,61.673,153.932,63.032,157.729,63.407z M175.516,63.333c0.168,0.644,0.395,1.322,0.68,2.034
						c0.013,0.031,0.021,0.064,0.035,0.096c0.318,0.813,0.611,1.381,0.875,1.699c0.045,0.067,0.095,0.126,0.148,0.176
						c2.01,2.245,4.194,2.89,6.562,1.93l0.142-0.049c0.036-0.025,0.084-0.046,0.134-0.063c1.067-0.515,2.299-1.627,3.699-3.34
						c1.088-1.316,2.425-3.213,4.014-5.688l0.375-0.484c-5.822,3.934-11.381,5.157-16.671,3.671
						c-0.009,0.005-0.015,0.003-0.017-0.002C175.494,63.319,175.503,63.325,175.516,63.333z M192.045,53.565
						c0.033,0.083,0.072,0.158,0.107,0.228c8.459-2.038,13.367-6.55,14.726-13.533c-0.086-0.149-0.168-0.296-0.256-0.439
						c-0.011-0.041-0.034-0.106-0.076-0.201c-0.021-0.019-0.028-0.038-0.038-0.058c-0.863-1.563-1.775-2.802-2.729-3.716
						c-0.575-0.536-1.186-0.976-1.813-1.315l-0.386-0.184c-0.044-0.021-0.09-0.042-0.13-0.063l-0.466-0.188
						c-0.16-0.05-0.322-0.097-0.481-0.148c-2.224-0.618-4.297-0.116-6.216,1.509c-1.98,1.656-3.243,3.912-3.78,6.769
						c-0.329,1.748-0.407,3.456-0.233,5.123c0.014,0.145,0.031,0.297,0.057,0.455l0.064,0.453c0.057,0.459,0.146,0.906,0.26,1.336
						l0.057,0.261c0.253,1.088,0.607,2.238,1.068,3.45c0.02,0.052,0.065,0.11,0.147,0.175c0.019,0.021,0.033,0.032,0.046,0.039
						C191.996,53.535,192.021,53.552,192.045,53.565z"/>
					<path fill="#4D3D8D" d="M174.557,47.702c0.563-0.632,1.123-1.554,1.668-2.77c0.879-1.894,1.547-4.125,2.012-6.694
						c0.414-2.306,1.601-4.459,3.555-6.46c1.91-1.963,4.291-3.514,7.148-4.653c1.902-0.762,3.759-1.201,5.562-1.316
						c-4.084,1.019-7.201,2.729-9.36,5.127c-1.509,1.684-2.729,4.007-3.65,6.974c-0.453,1.557-0.797,2.693-1.029,3.409
						c-0.383,1.25-0.775,2.244-1.172,2.985C178.268,46.184,176.689,47.318,174.557,47.702z"/>
					<path d="M162.65,56.378c0.072,0.214,0.134,0.435,0.177,0.665c0.233,1.129,0.108,2.195-0.378,3.198
						c-0.487,0.982-1.205,1.602-2.149,1.86c-0.938,0.26-1.819,0.081-2.636-0.537c-0.82-0.628-1.348-1.514-1.579-2.654
						c-0.237-1.138-0.12-2.207,0.353-3.205c0.506-0.978,1.226-1.595,2.16-1.854c0.94-0.258,1.822-0.083,2.646,0.521
						c0.179,0.138,0.344,0.285,0.491,0.445c-0.037-0.001-0.069,0.004-0.104,0.015c-0.255,0.068-0.452,0.22-0.581,0.453
						c-0.127,0.231-0.154,0.484-0.088,0.755c0.066,0.257,0.217,0.447,0.443,0.563c0.24,0.14,0.486,0.179,0.742,0.113
						C162.365,56.664,162.532,56.551,162.65,56.378z M198.061,40.14c-0.084,0.077-0.15,0.167-0.209,0.27
						c-0.156,0.299-0.195,0.631-0.127,0.995c0.064,0.353,0.217,0.639,0.459,0.862c0.252,0.218,0.518,0.302,0.795,0.251
						c0.275-0.05,0.494-0.214,0.655-0.494c0.134,0.28,0.245,0.583,0.332,0.905c0.31,1.115,0.317,2.162,0.022,3.144
						c-0.301,0.975-0.834,1.597-1.6,1.865c-0.773,0.27-1.537,0.104-2.289-0.503c-0.776-0.606-1.324-1.466-1.645-2.575
						c-0.32-1.122-0.332-2.177-0.031-3.165c0.319-0.969,0.854-1.586,1.605-1.85C196.702,39.612,197.378,39.708,198.061,40.14z"/>
					<path fill="#FFFFFF" d="M161.734,54.818c0.229-0.044,0.442-0.006,0.641,0.113c0.241,0.123,0.398,0.321,0.466,0.593
						c0.069,0.256,0.032,0.499-0.11,0.726c-0.021,0.043-0.051,0.088-0.078,0.129c-0.119,0.173-0.286,0.285-0.504,0.339
						c-0.256,0.065-0.502,0.026-0.741-0.113c-0.228-0.116-0.378-0.307-0.444-0.563c-0.066-0.271-0.039-0.523,0.088-0.755
						c0.129-0.233,0.326-0.385,0.581-0.453C161.665,54.822,161.698,54.817,161.734,54.818z M157.729,63.407
						c-3.797-0.375-7.129-1.733-9.994-4.075c0.192-0.835,0.393-1.602,0.599-2.297l0.065-0.191c0.887-2.706,2.16-4.692,3.833-5.959
						c2.354-1.798,5.57-2.303,9.658-1.511c0.786,0.146,1.762,0.443,2.918,0.896c1.228,0.478,2.129,0.917,2.701,1.324
						c1.219,0.821,2.197,1.831,2.934,3.03c0.752,1.155,1.279,2.134,1.572,2.938c0.275,0.818,0.465,1.381,0.57,1.687
						c0.094,0.297,0.193,0.6,0.305,0.916c0.037,0.205,0.064,0.386,0.086,0.533c-4.229,1.663-8.106,2.59-11.631,2.78
						c0.991-0.396,1.803-1.117,2.43-2.167c0.771-1.328,1.016-2.796,0.734-4.399c-0.297-1.622-1.033-2.903-2.21-3.843
						c-1.19-0.957-2.491-1.305-3.892-1.049c-1.403,0.288-2.49,1.092-3.262,2.406c-0.785,1.347-1.039,2.822-0.762,4.426
						c0.28,1.628,1.012,2.912,2.195,3.849C156.955,62.997,157.338,63.231,157.729,63.407z M175.516,63.333
						c4.561,1.915,9.414,1.248,14.562-2l-0.187,0.627c-4.25,2.96-8.803,4.127-13.66,3.503c-0.014-0.031-0.022-0.064-0.035-0.096
						C175.909,64.656,175.684,63.977,175.516,63.333z M206.622,39.82c0.088,0.144,0.17,0.29,0.256,0.439
						c-1.356,6.983-6.267,11.495-14.726,13.533c-0.035-0.069-0.074-0.145-0.107-0.228c0.021,0.017,0.048,0.024,0.062,0.027
						c-0.342-0.868-0.651-1.97-0.931-3.303c-0.562-2.685-0.6-5.196-0.118-7.538c0.287-1.465,0.735-2.767,1.346-3.907
						c0.604-1.162,1.35-2.118,2.24-2.865c1.77-1.488,3.676-1.952,5.717-1.386c1.639,0.451,3.175,1.47,4.615,3.057
						c0.707,0.797,1.26,1.526,1.647,2.191C206.62,39.835,206.618,39.829,206.622,39.82z M199.634,42.024
						c-0.161,0.28-0.38,0.444-0.655,0.494c-0.277,0.051-0.543-0.033-0.795-0.251c-0.242-0.224-0.395-0.51-0.459-0.862
						c-0.068-0.364-0.029-0.696,0.127-0.995c0.059-0.103,0.125-0.192,0.209-0.27c0.125-0.137,0.278-0.218,0.459-0.247
						c0.285-0.052,0.549,0.031,0.791,0.25c0.256,0.228,0.416,0.522,0.484,0.89c0.064,0.351,0.016,0.675-0.154,0.967L199.634,42.024z
						 M201.361,42.792c-0.413-1.594-1.17-2.849-2.271-3.769c-1.119-0.924-2.254-1.248-3.408-0.977
						c-1.148,0.299-1.981,1.103-2.5,2.413c-0.519,1.331-0.568,2.782-0.148,4.35c0.404,1.598,1.16,2.853,2.271,3.768
						c1.12,0.926,2.254,1.244,3.4,0.958c1.156-0.285,1.994-1.09,2.52-2.412C201.741,45.805,201.785,44.36,201.361,42.792z"/>
					<path fill="#40AA8A" d="M162.65,56.378c0.027-0.041,0.059-0.086,0.078-0.129c0.145-0.227,0.182-0.47,0.111-0.726
						c-0.066-0.271-0.225-0.47-0.466-0.593c-0.197-0.119-0.411-0.157-0.642-0.113c-0.146-0.16-0.312-0.308-0.49-0.445
						c-0.823-0.604-1.705-0.779-2.646-0.521c-0.935,0.26-1.654,0.877-2.158,1.854c-0.474,0.998-0.59,2.067-0.354,3.205
						c0.232,1.141,0.759,2.026,1.579,2.654c0.815,0.618,1.696,0.797,2.636,0.537c0.944-0.259,1.662-0.878,2.149-1.86
						c0.485-1.003,0.612-2.069,0.378-3.198C162.784,56.813,162.725,56.592,162.65,56.378z M161.346,63.478
						c-1.253,0.07-2.457,0.048-3.615-0.071c-0.393-0.176-0.774-0.41-1.147-0.706c-1.185-0.937-1.915-2.221-2.194-3.849
						c-0.279-1.604-0.025-3.079,0.76-4.426c0.771-1.314,1.858-2.118,3.263-2.406c1.399-0.256,2.7,0.092,3.892,1.049
						c1.176,0.939,1.913,2.221,2.211,3.843c0.279,1.604,0.036,3.071-0.734,4.399C163.148,62.361,162.338,63.083,161.346,63.478z
						 M198.061,40.14c-0.683-0.432-1.357-0.528-2.029-0.295c-0.752,0.264-1.286,0.881-1.605,1.85
						c-0.301,0.988-0.289,2.043,0.031,3.165c0.318,1.109,0.867,1.969,1.645,2.575c0.752,0.607,1.516,0.772,2.289,0.503
						c0.766-0.269,1.299-0.891,1.601-1.865c0.294-0.981,0.284-2.028-0.023-3.144c-0.087-0.322-0.198-0.625-0.331-0.905L199.641,42
						c0.17-0.292,0.221-0.616,0.154-0.967c-0.068-0.367-0.229-0.662-0.484-0.89c-0.242-0.219-0.506-0.302-0.791-0.25
						C198.339,39.922,198.186,40.003,198.061,40.14z M201.361,42.792c0.424,1.567,0.38,3.013-0.137,4.331
						c-0.525,1.322-1.363,2.127-2.521,2.412c-1.147,0.286-2.28-0.032-3.401-0.958c-1.109-0.915-1.865-2.17-2.271-3.768
						c-0.419-1.567-0.369-3.019,0.147-4.35c0.52-1.311,1.353-2.114,2.502-2.413c1.153-0.271,2.289,0.053,3.407,0.977
						C200.191,39.944,200.948,41.199,201.361,42.792z"/>
					<path fill="#352B62" d="M148.334,57.035l-0.017,0.033c0.001-0.026,0.01-0.054,0.025-0.08c0.024-0.146,0.054-0.291,0.085-0.435
						c0.43-2.127,1.214-3.848,2.362-5.164c1.227-1.428,2.854-2.35,4.881-2.765c2.232-0.463,4.469-0.437,6.707,0.08
						c0.909,0.211,2.059,0.626,3.448,1.243c1.254,0.537,2.382,1.289,3.38,2.254c1.018,0.959,1.818,2.061,2.404,3.302
						c0.604,1.218,0.979,2.456,1.125,3.709l0.207,1.091c-0.021-0.052-0.037-0.097-0.053-0.139c-0.109-0.316-0.209-0.619-0.304-0.916
						c-0.106-0.306-0.295-0.868-0.569-1.687c-0.293-0.804-0.82-1.782-1.574-2.938c-0.734-1.199-1.713-2.209-2.933-3.03
						c-0.571-0.407-1.475-0.847-2.7-1.324c-1.158-0.453-2.133-0.751-2.92-0.896c-4.087-0.792-7.305-0.287-9.658,1.511
						c-1.672,1.267-2.945,3.253-3.833,5.959L148.334,57.035z M190.076,61.333c-5.146,3.248-10.001,3.915-14.562,2
						c-0.012-0.009-0.021-0.015-0.021-0.021c0.002,0.005,0.008,0.007,0.017,0.002c5.29,1.486,10.849,0.263,16.671-3.671
						l-0.375,0.484C191.216,60.557,190.639,60.96,190.076,61.333z M206.622,39.82c-0.004,0.009-0.002,0.016,0.002,0.021
						c-0.39-0.665-0.94-1.395-1.647-2.191c-1.44-1.587-2.978-2.605-4.615-3.057c-2.041-0.566-3.947-0.103-5.717,1.386
						c-0.892,0.747-1.637,1.703-2.24,2.865c-0.609,1.141-1.059,2.442-1.346,3.907c-0.48,2.342-0.442,4.854,0.118,7.538
						c0.278,1.333,0.589,2.435,0.931,3.303c-0.015-0.003-0.039-0.011-0.062-0.027c-0.023-0.013-0.049-0.03-0.072-0.049
						c-0.014-0.007-0.029-0.019-0.047-0.039c-0.082-0.064-0.129-0.123-0.148-0.175c-0.459-1.212-0.814-2.362-1.067-3.45
						l-0.056-0.261c-0.114-0.43-0.204-0.877-0.262-1.336l-0.063-0.453c-0.024-0.158-0.043-0.311-0.058-0.455
						c-0.174-1.667-0.095-3.375,0.234-5.123c0.537-2.856,1.799-5.112,3.78-6.769c1.919-1.625,3.991-2.127,6.216-1.509
						c0.159,0.052,0.321,0.099,0.48,0.148l0.467,0.188c0.039,0.021,0.086,0.042,0.13,0.063l0.386,0.184
						c0.629,0.34,1.238,0.779,1.812,1.315c0.953,0.914,1.867,2.152,2.729,3.716c0.011,0.02,0.019,0.039,0.038,0.058
						C206.588,39.713,206.611,39.779,206.622,39.82z"/>
					<path fill="#661B1E" d="M184.092,69.156c-0.129-0.177-0.275-0.356-0.432-0.536c-1.674-1.796-3.811-2.224-6.406-1.281
						c-0.055-0.05-0.104-0.108-0.148-0.176c-0.264-0.318-0.557-0.886-0.875-1.699c4.857,0.624,9.41-0.543,13.66-3.503l0.187-0.627
						c0.562-0.373,1.14-0.776,1.729-1.206c-1.59,2.476-2.927,4.372-4.015,5.688C186.391,67.529,185.159,68.641,184.092,69.156z"/>
					<path fill="#ED4F10" d="M177.254,67.338c2.598-0.942,4.732-0.515,6.406,1.281c0.156,0.18,0.303,0.359,0.432,0.536
						c-0.05,0.018-0.098,0.038-0.134,0.063l-0.142,0.049C181.448,70.228,179.264,69.583,177.254,67.338z"/>
				</g>
			</g>
			<path fill="#ED4F10" d="M146.817,75.877c0.034-0.033,0.065-0.067,0.098-0.104c0.96-1.085,1.879-2.237,2.751-3.458
				c-0.093,0.458-0.201,0.958-0.32,1.502c-0.219,0.923-0.39,1.548-0.515,1.884c-0.179,0.492-0.38,0.955-0.601,1.387
				c-0.939,1.838-2.242,3.104-3.915,3.794c-1.758,0.741-3.591,0.763-5.505,0.065c-0.695-0.258-1.741-0.988-3.143-2.196
				c-1.383-1.193-2.182-1.827-2.393-1.896c-0.219-0.082-1.015-0.275-2.393-0.581c-1.372-0.313-2.16-0.511-2.367-0.588
				c-0.947-0.347-1.725-0.823-2.338-1.432c-1.011-0.998-1.277-2.148-0.796-3.462c0.347-0.941,1.118-1.687,2.314-2.243
				c1.654-0.775,3.623-0.747,5.907,0.089c1.408,0.513,3.281,1.955,5.626,4.329c2.342,2.35,3.84,3.642,4.493,3.888
				c0.569,0.209,1.105,0.229,1.608,0.063C145.812,76.753,146.309,76.409,146.817,75.877z"/>
		</g>
	</g>
</g>
</svg>
