<?xml version="1.0" encoding="utf-8"?>
<!-- Generator: Adobe Illustrator 16.0.4, SVG Export Plug-In . SVG Version: 6.00 Build 0)  -->
<!DOCTYPE svg PUBLIC "-//W3C//DTD SVG 1.1//EN" "http://www.w3.org/Graphics/SVG/1.1/DTD/svg11.dtd">
<svg version="1.1" id="Layer_1" xmlns="http://www.w3.org/2000/svg" xmlns:xlink="http://www.w3.org/1999/xlink" x="0px" y="0px"
	 width="630px" height="32px" viewBox="0 0 630 32" enable-background="new 0 0 630 32" xml:space="preserve">
<g>
	<path fill="#FFFFFF" d="M13.799,1.572c1.65,0,2.7,0.54,2.7,2.43c0,1.859-1.89,2.189-3.66,2.189c-1.08,0-2.13-0.119-2.7-0.119
		c-1.68,0-2.28,0.959-2.28,1.889c0,1.051,0.81,2.041,1.77,2.041c1.56,0,3.3-0.9,5.07-0.9c1.56,0,2.67,0.75,2.67,2.609
		c0,2.01-2.22,2.221-3.93,2.221h-1.14c-1.71,0-3.12,0.93-3.12,1.68c0,0.84,0.87,1.709,1.8,1.709c2.04,0,3.33-0.629,4.8-0.629
		c1.77,0,2.97,0.839,2.97,3.029c0,1.65-1.29,2.82-3.6,3.09c-4.02,0.48-6.72,0.871-8.55,0.871c-1.86,0-2.82-0.42-3.36-1.59
		c-0.45-0.601-1.89-9.27-1.89-14.849c0-2.16,0.24-3.87,0.81-4.47c1.05-1.08,5.58-1.2,8.97-1.2H13.799z"/>
	<path fill="#FFFFFF" d="M22.979,23.98c-1.38,0-3.24-1.619-3.24-2.76c0-0.689,0.36-1.529,1.08-2.609c1.05-1.32,2.64-3.089,2.64-3.39
		c0-0.779-2.01-2.34-2.58-3.329c-0.51-0.601-0.72-1.17-0.72-1.649c0-1.141,1.59-2.371,3.12-2.371c0.99,0,1.74,0.66,2.55,2.01
		c0.48,0.841,0.96,2.58,1.74,2.58c0.39,0,1.02-1.619,1.47-2.67c0.66-1.59,1.35-2.309,2.4-2.309c1.68,0,3.33,1.35,3.33,2.609
		c0,0.51-0.21,1.14-0.69,1.709c-0.63,0.75-2.79,2.07-2.79,3.24c0,1.23,2.31,3.3,2.79,4.14c0.42,0.75,0.63,1.379,0.63,1.92
		c0,1.08-1.44,2.399-2.91,2.399c-0.87,0-1.56-0.601-2.31-1.92c-0.66-1.17-1.08-3.42-1.89-3.42c-0.96,0-1.44,2.399-2.16,3.66
		C24.599,23.291,23.879,23.98,22.979,23.98z"/>
	<path fill="#FFFFFF" d="M36.779,10.002c0-1.5,1.2-2.16,2.55-2.16c2.43,0,1.83,2.58,2.58,2.58s1.05-2.52,4.26-2.52
		c3.99,0,5.7,4.35,5.7,8.068c0,3.63-2.43,7.259-6.45,7.259c-1.2,0-1.74-0.51-2.13-0.51c-0.21,0-0.3,0.121-0.3,0.45
		c0,0.87,0.6,2.819,0.6,3.931c0,2.699-0.9,3.539-3.15,3.539s-3.15-0.84-3.15-3.539c0-9.631-0.24-14.4-0.48-16.799L36.779,10.002z
		 M42.059,17.502c0,0.84,0.45,1.92,1.68,1.92c1.56,0,3.21-1.74,3.21-3.39v-0.27c-0.09-1.59-0.54-2.37-2.04-2.58
		C42.899,13.182,42.059,15.042,42.059,17.502z"/>
	<path fill="#FFFFFF" d="M53.758,6.432c-0.06-0.449-0.12-0.9-0.12-1.29c0-1.89,0.9-3.3,3.18-3.3c1.47,0,2.37,1.08,2.82,3.15
		c0.3,3.93,0.69,11.069,0.69,14.939c0,2.34-0.87,3.869-2.79,3.869c-1.95,0-2.88-1.709-2.88-4.05
		C54.298,15.732,54.329,10.211,53.758,6.432z"/>
	<path fill="#FFFFFF" d="M70.108,23.23c-4.44,0-7.74-3.869-7.74-8.009c0-2.1,2.61-7.318,7.169-7.318c5.13,0,7.68,4.529,7.71,8.879
		C76.828,21.102,73.708,23.23,70.108,23.23z M67.229,15.192c0.03,1.141,0.69,3.269,2.55,3.269c1.65,0,2.31-1.949,2.31-3.449v-0.15
		c-0.06-1.5-0.69-2.699-2.07-2.699c-1.62,0.09-2.79,1.409-2.79,2.909V15.192z"/>
	<path fill="#FFFFFF" d="M85.738,19.961c0,2.52-0.63,3.78-2.7,3.78c-2.58,0-3.03-1.649-3.03-4.89c0-4.05-1.02-6.9-1.02-8.91
		c0-1.32,0.45-2.189,2.61-2.189c2.64,0,1.74,2.789,2.46,2.789c1.08,0,1.26-2.969,5.01-2.969c2.1,0,3.81,0.93,3.81,2.699
		c0,2.25-1.32,2.82-2.1,2.82c-0.72,0-1.62-0.271-2.67-0.36c-1.68,0-2.37,1.44-2.37,6.27V19.961z"/>
	<path fill="#FFFFFF" d="M97.648,6.942c-1.77-0.029-3.27-1.439-3.27-3.149c0-1.38,1.38-2.58,2.67-2.58c2.52,0,3.45,0.51,3.54,3.149
		C100.588,5.712,98.818,6.823,97.648,6.942z M97.918,23.591c1.92,0,2.88-1.409,2.88-3.749c-0.03-2.551-0.12-5.88-0.27-8.37
		c-0.48-2.55-0.9-2.851-3.21-2.851c-2.16,0-2.7,1.141-2.729,3.601c0.15,2.31,0.27,4.918,0.51,7.649
		C95.098,22.211,95.968,23.591,97.918,23.591z"/>
	<path fill="#FFFFFF" d="M105.388,7.752c2.13,0,1.38,1.68,2.07,1.68c1.53,0,0.54-1.65,3.99-1.65c5.31,0,5.43,6.99,5.52,12.06v1.02
		c0.03,0.09,0.03,0.18,0.03,0.24c0,1.83-0.72,2.52-2.31,2.52c-1.68,0-2.34-0.75-2.34-2.76c-0.3-4.799,0.15-7.889-2.16-7.889
		c-1.65,0-1.86,2.28-1.86,4.709v3.6c0,1.5-0.21,2.1-1.89,2.1c-2.16,0-2.97-0.96-2.97-3.479v-4.02c0-3.209,0.03-5.129,0.12-6.239
		C103.588,7.842,104.788,7.752,105.388,7.752z"/>
	<path fill="#FFFFFF" d="M131.188,23.531c0-0.87-0.12-2.07-0.33-3.51c-1.29,1.35-3.03,2.64-5.88,2.64
		c-4.05,0-6.149-4.021-6.149-7.709c0-4.109,4.5-6.959,8.1-6.959c0.54,0,1.08,0.09,1.65,0.209l0.09,0.03
		c0.36,0.15,1.05,0.24,1.38,0.24c0.36,0,0.66-0.12,0.84-0.42c0.12-1.14,0.36-1.229,1.71-1.229c2.1,0,2.79,0.029,2.79,1.289
		c0.69,6.99,1.08,13.919,1.14,15.179v0.18c0,4.891-3.33,7.29-8.76,7.29c-2.58,0-4.17-0.54-5.58-2.37c-0.39-0.51-0.6-1.08-0.6-1.709
		c0-0.871,0.81-2.101,2.52-2.101c1.56,0,2.4,1.649,4.2,1.649c0.12,0,0.24,0,0.36-0.029
		C130.587,25.961,131.188,25.361,131.188,23.531z M128.067,12.042c-1.74,0-3.75,1.08-3.75,3.42c0,1.11,0.99,2.041,2.01,2.041
		c1.77,0,3.87-2.041,3.87-3.72c0-0.51-0.03-1.199-0.69-1.5C129.147,12.131,128.638,12.042,128.067,12.042z"/>
	<path fill="#FFFFFF" d="M150.897,7.782c2.07,0,2.7,1.26,2.7,3.78c0,0.42-0.03,1.05-0.03,1.771c0,1.859,0.24,4.138,2.13,4.138
		c1.44,0,1.59-2.399,1.59-3.989c0-3.51,0.39-5.76,3.24-5.76c2.399,0,3.3,1.681,3.3,4.59c0,3.39,0.99,6.389,0.99,9.509
		c0,7.38-4.68,8.43-6.54,8.85c-1.68,0.39-4.35-0.271-5.4-0.899c-1.26-0.75-1.83-1.5-1.83-2.431c0-1.021,1.11-2.64,2.28-2.64
		c0.99,0,2.1,0.81,3.87,0.81c1.47,0,2.22-2.159,2.22-3.659c0-0.78-0.21-1.381-0.6-1.44c-0.57,0-1.05,2.61-4.71,2.61
		c-5.88,0-5.88-7.019-5.88-11.37C148.228,9.132,148.768,7.782,150.897,7.782z"/>
	<path fill="#FFFFFF" d="M174.357,23.23c-4.44,0-7.74-3.869-7.74-8.009c0-2.1,2.61-7.318,7.169-7.318c5.13,0,7.68,4.529,7.71,8.879
		C181.077,21.102,177.957,23.23,174.357,23.23z M171.477,15.192c0.03,1.141,0.69,3.269,2.55,3.269c1.65,0,2.31-1.949,2.31-3.449
		v-0.15c-0.06-1.5-0.69-2.699-2.07-2.699c-1.62,0.09-2.79,1.409-2.79,2.909V15.192z"/>
	<path fill="#FFFFFF" d="M195.207,23.801c-2.37,0-1.2-2.34-2.16-2.34c-0.63,0-1.35,1.77-3.9,1.77c-2.16,0-5.85-0.959-5.85-7.499
		c0-1.56,0.24-2.67,0.24-4.92c0-2.19,0.78-3.271,2.67-3.271c1.89,0,2.67,0.99,2.67,3.301c0,1.32-0.42,3.209-0.42,4.32
		c0,1.35,0.51,2.398,2.13,2.398c1.02,0,1.89-1.048,1.89-6.208c0-2.609,0.93-3.84,3.12-3.84c2.16,0,2.85,1.02,2.85,3.63
		c0,2.37-0.36,6.239-0.36,10.588C198.086,23.531,196.106,23.801,195.207,23.801z"/>
	<path fill="#FFFFFF" d="M207.537,19.961c0,2.52-0.63,3.78-2.7,3.78c-2.58,0-3.03-1.649-3.03-4.89c0-4.05-1.02-6.9-1.02-8.91
		c0-1.32,0.45-2.189,2.61-2.189c2.64,0,1.74,2.789,2.46,2.789c1.08,0,1.26-2.969,5.01-2.969c2.1,0,3.81,0.93,3.81,2.699
		c0,2.25-1.32,2.82-2.1,2.82c-0.72,0-1.62-0.271-2.67-0.36c-1.68,0-2.37,1.44-2.37,6.27V19.961z"/>
	<path fill="#FFFFFF" d="M224.577,9.823c0-1.17,0.75-2.281,2.46-2.281c2.88,0,2.79,6.811,3.54,6.811c0.72,0,1.68-5.189,2.22-5.67
		c0.21-0.24,0.54-0.42,0.87-0.42c1.86,0,1.17,5.789,2.43,6.09c0.84-0.21,0.93-2.7,1.26-3.99c0.48-1.8,1.26-2.85,2.58-2.85
		c1.8,0,2.67,1.08,2.67,2.49c0,0.42-0.06,0.869-0.18,1.379c-0.6,2.551-1.53,6.089-2.25,8.58c-0.66,2.311-1.11,3.48-3.03,3.48
		c-1.95,0-2.46-1.291-3-3.631c-0.33-1.409-0.36-2.609-0.84-2.609c-0.6,0-0.6,1.471-0.81,2.609c-0.45,2.34-0.69,3.66-2.61,3.66
		c-1.95,0-2.28-1.229-2.82-3.569c-0.54-2.399-1.44-5.85-2.19-8.37C224.697,10.902,224.577,10.333,224.577,9.823z"/>
	<path fill="#FFFFFF" d="M251.546,23.23c-4.44,0-7.74-3.869-7.74-8.009c0-2.1,2.61-7.318,7.169-7.318c5.13,0,7.68,4.529,7.71,8.879
		C258.266,21.102,255.146,23.23,251.546,23.23z M248.667,15.192c0.03,1.141,0.69,3.269,2.55,3.269c1.65,0,2.31-1.949,2.31-3.449
		v-0.15c-0.06-1.5-0.69-2.699-2.07-2.699c-1.62,0.09-2.79,1.409-2.79,2.909V15.192z"/>
	<path fill="#FFFFFF" d="M267.176,19.961c0,2.52-0.63,3.78-2.7,3.78c-2.58,0-3.03-1.649-3.03-4.89c0-4.05-1.02-6.9-1.02-8.91
		c0-1.32,0.45-2.189,2.61-2.189c2.64,0,1.74,2.789,2.46,2.789c1.08,0,1.26-2.969,5.01-2.969c2.1,0,3.81,0.93,3.81,2.699
		c0,2.25-1.32,2.82-2.1,2.82c-0.72,0-1.62-0.271-2.67-0.36c-1.68,0-2.37,1.44-2.37,6.27V19.961z"/>
	<path fill="#FFFFFF" d="M275.606,6.432c-0.06-0.449-0.12-0.9-0.12-1.29c0-1.89,0.9-3.3,3.18-3.3c1.47,0,2.37,1.08,2.82,3.15
		c0.3,3.93,0.69,11.069,0.69,14.939c0,2.34-0.87,3.869-2.79,3.869c-1.95,0-2.88-1.709-2.88-4.05
		C276.146,15.732,276.176,10.211,275.606,6.432z"/>
	<path fill="#FFFFFF" d="M301.166,19.211c0,3.03-1.14,3.9-2.43,4.08c-0.21,0.029-0.42,0.029-0.6,0.029c-1.5,0-1.95-0.899-2.37-1.799
		c-0.03-0.09-0.06-0.18-0.12-0.271c-1.979,0.99-2.939,1.979-5.7,1.979c-3.6,0-5.729-3.479-5.729-6.718c0-4.98,3.959-8.67,8.85-8.67
		c1.02,0,2.04,0.18,3,0.54c0.6-0.15,0.63-1.89,0.63-3.181c0-2.549,0.3-3.479,2.31-3.479c1.89,0,2.64,0.84,2.64,3.12
		C301.646,10.092,301.166,13.182,301.166,19.211z M294.686,12.583c-2.4,0-5.28,1.02-5.28,3.989c0,0.479,0.54,1.2,1.32,1.2
		c3.06,0,4.439-1.05,5.22-5.099C295.556,12.612,295.136,12.583,294.686,12.583z"/>
	<path fill="#FFFFFF" d="M329.646,23.23c-4.44,0-7.74-3.869-7.74-8.009c0-2.1,2.609-7.318,7.17-7.318
		c5.129,0,7.68,4.529,7.709,8.879C336.364,21.102,333.245,23.23,329.646,23.23z M326.765,15.192c0.03,1.141,0.69,3.269,2.551,3.269
		c1.649,0,2.31-1.949,2.31-3.449v-0.15c-0.06-1.5-0.69-2.699-2.07-2.699c-1.62,0.09-2.79,1.409-2.79,2.909V15.192z"/>
	<path fill="#FFFFFF" d="M340.774,7.752c2.131,0,1.381,1.68,2.07,1.68c1.53,0,0.54-1.65,3.99-1.65c5.31,0,5.43,6.99,5.52,12.06v1.02
		c0.03,0.09,0.03,0.18,0.03,0.24c0,1.83-0.721,2.52-2.311,2.52c-1.68,0-2.34-0.75-2.34-2.76c-0.3-4.799,0.15-7.889-2.159-7.889
		c-1.65,0-1.86,2.28-1.86,4.709v3.6c0,1.5-0.21,2.1-1.89,2.1c-2.16,0-2.971-0.96-2.971-3.479v-4.02c0-3.209,0.03-5.129,0.121-6.239
		C338.976,7.842,340.175,7.752,340.774,7.752z"/>
	<path fill="#FFFFFF" d="M361.625,23.32c-5.46,0-7.41-5.249-7.41-8.638c0-4.561,4.17-7.199,8.16-7.199c3.96,0,7.59,1.379,7.59,4.77
		c0,0.299-0.03,0.629-0.09,0.959c-0.54,2.791-9.09,3.51-9.09,4.679c0,0.961,1.77,0.99,2.31,0.99c1.98,0,4.2-2.279,5.34-2.279
		c0.96,0,2.13,1.439,2.13,2.519c0,0.689-0.36,1.38-1.229,2.01C367.175,22.721,364.085,23.32,361.625,23.32z M363.305,10.663
		c-2.1,0-4.229,1.319-4.229,3c0,0.149,0.03,0.299,0.27,0.299c1.05,0,5.79-1.5,6.03-2.25
		C364.955,10.932,364.145,10.663,363.305,10.663z"/>
	<path fill="#FFFFFF" d="M389.854,7.872c3.359,0,3,2.28,3.989,2.28c0.9,0,1.261-2.34,3.9-2.34c2.819,0,5.01,1.44,5.369,3.96
		c0.33,2.34,0.36,4.71,0.36,6.66c0,3.779-0.03,5.069-2.46,5.069c-1.74,0-2.489-0.75-2.489-2.819v-4.02
		c0-2.249-0.091-4.319-0.931-4.319c-1.529,0-1.859,0.15-1.859,3.899v4.62c0,1.949-0.75,2.699-2.46,2.699
		c-2.25,0-2.49-1.14-2.49-4.229c0-6.059-0.06-6.659-1.74-6.659h-0.119c-0.841,0-1.32,0.84-1.32,1.979c0,0.72,0.09,1.56,0.09,2.37
		v3.42c0,2.34-0.78,3.209-2.7,3.209c-1.949,0-2.729-0.869-2.729-3.209c0-6.179-0.3-9-0.3-10.709c0-1.47,1.38-2.01,2.399-2.01
		c3,0,1.68,2.19,2.34,2.19C387.274,9.461,387.574,7.872,389.854,7.872z"/>
	<path fill="#FFFFFF" d="M409.294,6.942c-1.77-0.029-3.27-1.439-3.27-3.149c0-1.38,1.38-2.58,2.67-2.58
		c2.52,0,3.449,0.51,3.54,3.149C412.234,5.712,410.464,6.823,409.294,6.942z M409.564,23.591c1.92,0,2.88-1.409,2.88-3.749
		c-0.03-2.551-0.12-5.88-0.271-8.37c-0.479-2.55-0.899-2.851-3.21-2.851c-2.16,0-2.699,1.141-2.729,3.601
		c0.149,2.31,0.27,4.918,0.51,7.649C406.744,22.211,407.614,23.591,409.564,23.591z"/>
	<path fill="#FFFFFF" d="M414.845,19.512c0-1.021,1.229-2.25,2.22-2.25c1.229,0,3.029,2.399,4.529,2.399
		c0.511,0,1.53-0.149,1.53-0.93c0-2.01-7.71-1.53-7.71-5.759c0-3.149,2.67-5.31,5.46-5.31c3.78,0,6.27,1.26,6.27,2.76
		c0,1.17-1.08,2.1-1.92,2.1c-0.54,0-1.199-0.24-1.949-0.66l-0.091-0.061c-0.449-0.27-0.96-0.539-1.619-0.539
		c-1.08,0-1.08,0.27-1.08,0.81c0,2.13,7.199,0.69,7.199,5.969c0,5.189-3.96,5.609-7.079,5.609c-1.5,0-3.181-0.719-4.351-1.77
		C415.324,21.071,414.845,20.262,414.845,19.512z"/>
	<path fill="#FFFFFF" d="M429.784,19.512c0-1.021,1.229-2.25,2.22-2.25c1.229,0,3.029,2.399,4.529,2.399
		c0.511,0,1.53-0.149,1.53-0.93c0-2.01-7.71-1.53-7.71-5.759c0-3.149,2.67-5.31,5.46-5.31c3.78,0,6.27,1.26,6.27,2.76
		c0,1.17-1.08,2.1-1.92,2.1c-0.54,0-1.199-0.24-1.949-0.66l-0.091-0.061c-0.449-0.27-0.96-0.539-1.619-0.539
		c-1.08,0-1.08,0.27-1.08,0.81c0,2.13,7.199,0.69,7.199,5.969c0,5.189-3.96,5.609-7.079,5.609c-1.5,0-3.181-0.719-4.351-1.77
		C430.264,21.071,429.784,20.262,429.784,19.512z"/>
	<path fill="#FFFFFF" d="M448.293,6.942c-1.77-0.029-3.27-1.439-3.27-3.149c0-1.38,1.38-2.58,2.67-2.58
		c2.52,0,3.449,0.51,3.54,3.149C451.233,5.712,449.463,6.823,448.293,6.942z M448.563,23.591c1.92,0,2.88-1.409,2.88-3.749
		c-0.03-2.551-0.12-5.88-0.271-8.37c-0.479-2.55-0.899-2.851-3.21-2.851c-2.16,0-2.7,1.141-2.729,3.601
		c0.149,2.31,0.27,4.918,0.51,7.649C445.743,22.211,446.613,23.591,448.563,23.591z"/>
	<path fill="#FFFFFF" d="M461.283,23.23c-4.44,0-7.74-3.869-7.74-8.009c0-2.1,2.61-7.318,7.17-7.318c5.13,0,7.68,4.529,7.71,8.879
		C468.003,21.102,464.883,23.23,461.283,23.23z M458.403,15.192c0.03,1.141,0.689,3.269,2.55,3.269c1.649,0,2.31-1.949,2.31-3.449
		v-0.15c-0.06-1.5-0.689-2.699-2.069-2.699c-1.62,0.09-2.79,1.409-2.79,2.909V15.192z"/>
	<path fill="#FFFFFF" d="M472.413,7.752c2.13,0,1.38,1.68,2.07,1.68c1.529,0,0.54-1.65,3.989-1.65c5.31,0,5.43,6.99,5.52,12.06v1.02
		c0.03,0.09,0.03,0.18,0.03,0.24c0,1.83-0.72,2.52-2.31,2.52c-1.68,0-2.34-0.75-2.34-2.76c-0.3-4.799,0.149-7.889-2.16-7.889
		c-1.649,0-1.86,2.28-1.86,4.709v3.6c0,1.5-0.21,2.1-1.89,2.1c-2.16,0-2.97-0.96-2.97-3.479v-4.02c0-3.209,0.03-5.129,0.12-6.239
		C470.613,7.842,471.813,7.752,472.413,7.752z"/>
	<path fill="#FFFFFF" d="M498.572,12.822c-0.75,0-1.979-0.87-1.979-2.04c0-2.459,3.81-2.97,6.239-2.97c4.53,0,5.64,4.26,6.03,7.53
		c0.18,1.5,0.51,3.208,0.51,4.649c0,1.979-0.6,3.51-2.97,3.51c-2.4,0-1.53-1.89-2.25-1.89c-0.69,0-1.11,1.709-4.38,1.709
		c-3.149,0-4.56-1.499-4.59-4.409v-0.271c0.12-3.449,4.229-5.009,7.649-5.099l0.03-0.359c0-0.87-0.51-1.29-1.229-1.29
		C500.492,11.892,499.562,12.822,498.572,12.822z M503.343,17.621c0-0.689-0.54-0.99-1.17-0.99c-0.96,0-2.19,0.66-2.28,1.679v0.15
		c0,0.87,0.72,1.17,1.35,1.17C502.502,19.631,503.343,18.762,503.343,17.621z"/>
	<path fill="#FFFFFF" d="M518.073,1.393c1.8,0,2.729,1.02,2.729,2.729c0,0.33-0.029,0.66-0.09,1.021c0.66-0.09,2.01-0.271,2.7-0.271
		c1.439,0,2.069,1.17,2.069,2.25c0,0.871-0.39,1.681-1.05,1.86c-0.27,0.12-1.38,0.24-4.109,0.66c-0.03,0.87-0.3,3.21-0.3,5.28
		c0,2.16,0.27,3.809,1.409,3.809c0.511,0,1.11-0.421,1.32-0.96c0.42-1.14,0.96-1.62,1.65-1.62c1.199,0,2.369,1.11,2.369,2.04
		c0,0.51-0.18,1.08-0.54,1.74c-1.109,2.01-2.279,3.33-5.88,3.33c-5.339,0-6.06-3.871-6.06-7.89c0-1.8,0.24-3.66,0.45-5.16
		c-0.72,0-1.41,0.271-2.31,0.271c-1.351,0-1.95-0.93-1.95-1.89c0-2.58,2.55-2.13,4.77-2.73
		C515.703,4.002,515.523,1.393,518.073,1.393z"/>
	<path fill="#FFFFFF" d="M540.392,12.822c-0.75,0-1.979-0.87-1.979-2.04c0-2.459,3.81-2.97,6.239-2.97c4.53,0,5.641,4.26,6.03,7.53
		c0.18,1.5,0.51,3.208,0.51,4.649c0,1.979-0.6,3.51-2.97,3.51c-2.4,0-1.53-1.89-2.25-1.89c-0.69,0-1.11,1.709-4.38,1.709
		c-3.149,0-4.56-1.499-4.59-4.409v-0.271c0.12-3.449,4.229-5.009,7.649-5.099l0.03-0.359c0-0.87-0.51-1.29-1.229-1.29
		C542.312,11.892,541.382,12.822,540.392,12.822z M545.162,17.621c0-0.689-0.54-0.99-1.17-0.99c-0.96,0-2.19,0.66-2.28,1.679v0.15
		c0,0.87,0.72,1.17,1.35,1.17C544.321,19.631,545.162,18.762,545.162,17.621z"/>
	<path fill="#FFFFFF" d="M569.521,1.393c1.8,0,2.729,1.02,2.729,2.729c0,0.33-0.029,0.66-0.09,1.021c0.66-0.09,2.01-0.271,2.7-0.271
		c1.439,0,2.069,1.17,2.069,2.25c0,0.871-0.39,1.681-1.05,1.86c-0.27,0.12-1.38,0.24-4.109,0.66c-0.03,0.87-0.3,3.21-0.3,5.28
		c0,2.16,0.27,3.809,1.409,3.809c0.511,0,1.11-0.421,1.32-0.96c0.42-1.14,0.96-1.62,1.65-1.62c1.199,0,2.369,1.11,2.369,2.04
		c0,0.51-0.18,1.08-0.54,1.74c-1.109,2.01-2.279,3.33-5.879,3.33c-5.34,0-6.061-3.871-6.061-7.89c0-1.8,0.24-3.66,0.45-5.16
		c-0.72,0-1.41,0.271-2.31,0.271c-1.351,0-1.95-0.93-1.95-1.89c0-2.58,2.55-2.13,4.77-2.73
		C567.151,4.002,566.972,1.393,569.521,1.393z"/>
	<path fill="#FFFFFF" d="M582.991,6.942c-1.77-0.029-3.27-1.439-3.27-3.149c0-1.38,1.38-2.58,2.67-2.58
		c2.52,0,3.449,0.51,3.54,3.149C585.932,5.712,584.161,6.823,582.991,6.942z M583.262,23.591c1.92,0,2.88-1.409,2.88-3.749
		c-0.03-2.551-0.12-5.88-0.271-8.37c-0.479-2.55-0.899-2.851-3.21-2.851c-2.16,0-2.699,1.141-2.729,3.601
		c0.149,2.31,0.27,4.918,0.51,7.649C580.441,22.211,581.312,23.591,583.262,23.591z"/>
	<path fill="#FFFFFF" d="M596.731,7.872c3.359,0,3,2.28,3.989,2.28c0.9,0,1.261-2.34,3.9-2.34c2.819,0,5.01,1.44,5.369,3.96
		c0.33,2.34,0.36,4.71,0.36,6.66c0,3.779-0.03,5.069-2.46,5.069c-1.74,0-2.489-0.75-2.489-2.819v-4.02
		c0-2.249-0.091-4.319-0.931-4.319c-1.529,0-1.859,0.15-1.859,3.899v4.62c0,1.949-0.75,2.699-2.46,2.699
		c-2.25,0-2.49-1.14-2.49-4.229c0-6.059-0.06-6.659-1.74-6.659h-0.119c-0.841,0-1.32,0.84-1.32,1.979c0,0.72,0.09,1.56,0.09,2.37
		v3.42c0,2.34-0.78,3.209-2.7,3.209c-1.949,0-2.729-0.869-2.729-3.209c0-6.179-0.3-9-0.3-10.709c0-1.47,1.38-2.01,2.399-2.01
		c3,0,1.68,2.19,2.34,2.19C594.151,9.461,594.451,7.872,596.731,7.872z"/>
	<path fill="#FFFFFF" d="M619.711,23.32c-5.46,0-7.41-5.249-7.41-8.638c0-4.561,4.17-7.199,8.16-7.199c3.96,0,7.59,1.379,7.59,4.77
		c0,0.299-0.03,0.629-0.09,0.959c-0.54,2.791-9.09,3.51-9.09,4.679c0,0.961,1.77,0.99,2.31,0.99c1.98,0,4.2-2.279,5.34-2.279
		c0.96,0,2.13,1.439,2.13,2.519c0,0.689-0.36,1.38-1.229,2.01C625.261,22.721,622.171,23.32,619.711,23.32z M621.391,10.663
		c-2.1,0-4.229,1.319-4.229,3c0,0.149,0.03,0.299,0.27,0.299c1.05,0,5.79-1.5,6.03-2.25
		C623.041,10.932,622.23,10.663,621.391,10.663z"/>
	<path fill="#FFFFFF" d="M304.154,29.956c-0.708,0.366-1.234,0.361-1.424-0.006c-0.503-0.975,1.769-2.799,1.384-7.911
		c-0.102-1.215,0.72-2.194,1.842-2.775c0.939-0.483,2.094-0.669,3.077-0.368c0.667,0.204,1.104,0.843,0.729,2.185
		c-0.519,1.851-1.609,5.017-4.476,8.077C304.885,29.517,304.496,29.78,304.154,29.956z"/>
</g>
</svg>
