<?xml version="1.0" encoding="utf-8"?>
<!-- Generator: Adobe Illustrator 18.1.1, SVG Export Plug-In . SVG Version: 6.00 Build 0)  -->
<svg version="1.1" id="Layer_1" xmlns="http://www.w3.org/2000/svg" xmlns:xlink="http://www.w3.org/1999/xlink" x="0px" y="0px"
	 viewBox="0 0 500 526" enable-background="new 0 0 500 526" xml:space="preserve">
<rect y="264" fill="#F6EC28" width="500" height="262"/>
<g>
	<circle fill="#E18928" cx="247.6" cy="210.1" r="25.8"/>
	<g>
		<path fill="#5E5F5F" d="M220.1,249.3c0-1.5,0.4-2.7,1.2-3.6c0.8-0.9,1.9-1.3,3.2-1.3c0.9,0,1.6,0.2,2.3,0.6c0.7,0.4,1.2,1,1.6,1.7
			c0.4,0.7,0.5,1.6,0.5,2.5c0,0.9-0.2,1.8-0.6,2.5s-0.9,1.3-1.6,1.7c-0.7,0.4-1.4,0.6-2.2,0.6c-0.9,0-1.6-0.2-2.3-0.6
			c-0.7-0.4-1.2-1-1.6-1.7C220.3,250.8,220.1,250.1,220.1,249.3z M221.4,249.3c0,1.1,0.3,2,0.9,2.6c0.6,0.6,1.3,1,2.3,1
			c0.9,0,1.7-0.3,2.3-1s0.9-1.6,0.9-2.8c0-0.8-0.1-1.4-0.4-2s-0.6-1-1.1-1.3s-1-0.5-1.6-0.5c-0.9,0-1.6,0.3-2.2,0.9
			C221.7,246.9,221.4,247.9,221.4,249.3z"/>
		<path fill="#5E5F5F" d="M230.5,253.8v-9.2h4.1c0.8,0,1.4,0.1,1.9,0.2c0.4,0.2,0.8,0.5,1,0.9c0.3,0.4,0.4,0.9,0.4,1.4
			c0,0.7-0.2,1.2-0.6,1.7c-0.4,0.4-1.1,0.7-2,0.9c0.3,0.2,0.6,0.3,0.7,0.5c0.4,0.3,0.7,0.7,1,1.2l1.6,2.5h-1.5l-1.2-1.9
			c-0.4-0.6-0.7-1-0.9-1.3c-0.2-0.3-0.4-0.5-0.6-0.6c-0.2-0.1-0.4-0.2-0.6-0.2c-0.1,0-0.4,0-0.7,0h-1.4v4.1H230.5z M231.7,248.6h2.6
			c0.6,0,1-0.1,1.3-0.2c0.3-0.1,0.6-0.3,0.7-0.6c0.2-0.3,0.2-0.5,0.2-0.8c0-0.4-0.2-0.8-0.5-1.1s-0.8-0.4-1.5-0.4h-2.9V248.6z"/>
		<path fill="#5E5F5F" d="M238.8,253.8l3.5-9.2h1.3l3.8,9.2H246L245,251h-3.9l-1,2.8H238.8z M241.5,250h3.1l-1-2.6
			c-0.3-0.8-0.5-1.4-0.7-1.9c-0.1,0.6-0.3,1.2-0.5,1.8L241.5,250z"/>
		<path fill="#5E5F5F" d="M248.4,253.8v-9.2h1.3l4.8,7.2v-7.2h1.2v9.2h-1.3l-4.8-7.3v7.3H248.4z"/>
		<path fill="#5E5F5F" d="M262.1,250.1v-1.1l3.9,0v3.4c-0.6,0.5-1.2,0.8-1.9,1.1c-0.6,0.2-1.3,0.4-2,0.4c-0.9,0-1.7-0.2-2.5-0.6
			c-0.7-0.4-1.3-0.9-1.7-1.7c-0.4-0.7-0.6-1.6-0.6-2.5c0-0.9,0.2-1.7,0.6-2.5c0.4-0.8,0.9-1.4,1.6-1.7c0.7-0.4,1.5-0.6,2.4-0.6
			c0.7,0,1.3,0.1,1.8,0.3s1,0.5,1.3,0.9c0.3,0.4,0.5,0.9,0.7,1.5l-1.1,0.3c-0.1-0.5-0.3-0.8-0.5-1.1c-0.2-0.3-0.5-0.5-0.9-0.6
			c-0.4-0.2-0.8-0.2-1.3-0.2c-0.6,0-1,0.1-1.4,0.3c-0.4,0.2-0.7,0.4-1,0.7c-0.2,0.3-0.4,0.6-0.6,0.9c-0.2,0.6-0.4,1.2-0.4,1.9
			c0,0.8,0.1,1.5,0.4,2.1s0.7,1,1.2,1.2c0.5,0.3,1.1,0.4,1.7,0.4c0.5,0,1-0.1,1.5-0.3c0.5-0.2,0.9-0.4,1.1-0.7v-1.7H262.1z"/>
		<path fill="#5E5F5F" d="M267.8,253.8v-9.2h6.7v1.1H269v2.8h5.1v1.1H269v3.1h5.7v1.1H267.8z"/>
	</g>
</g>
<g>
	<circle fill="#4366B0" cx="147.4" cy="210.1" r="25.8"/>
	<g>
		<path fill="#5E5F5F" d="M132.9,253.8v-9.2h3.5c0.7,0,1.3,0.1,1.7,0.3c0.4,0.2,0.8,0.5,1,0.9c0.2,0.4,0.4,0.8,0.4,1.2
			c0,0.4-0.1,0.8-0.3,1.1s-0.5,0.6-1,0.8c0.6,0.2,1,0.4,1.3,0.8c0.3,0.4,0.5,0.9,0.5,1.4c0,0.4-0.1,0.8-0.3,1.2
			c-0.2,0.4-0.4,0.7-0.7,0.9s-0.6,0.4-1,0.5s-0.9,0.2-1.5,0.2H132.9z M134.1,248.4h2c0.5,0,0.9,0,1.2-0.1c0.3-0.1,0.5-0.2,0.7-0.5
			s0.2-0.5,0.2-0.8c0-0.3-0.1-0.6-0.2-0.8s-0.4-0.4-0.6-0.5c-0.3-0.1-0.7-0.1-1.4-0.1h-1.8V248.4z M134.1,252.7h2.3
			c0.4,0,0.7,0,0.8,0c0.3-0.1,0.5-0.1,0.7-0.3c0.2-0.1,0.3-0.3,0.5-0.5c0.1-0.2,0.2-0.5,0.2-0.8c0-0.3-0.1-0.6-0.3-0.9
			c-0.2-0.3-0.4-0.4-0.7-0.5c-0.3-0.1-0.8-0.2-1.4-0.2h-2.1V252.7z"/>
		<path fill="#5E5F5F" d="M141.5,253.8v-9.2h1.2v8.1h4.5v1.1H141.5z"/>
		<path fill="#5E5F5F" d="M154.8,244.5h1.2v5.3c0,0.9-0.1,1.7-0.3,2.2c-0.2,0.5-0.6,1-1.1,1.3s-1.3,0.5-2.2,0.5
			c-0.9,0-1.6-0.1-2.1-0.4c-0.6-0.3-0.9-0.7-1.2-1.3s-0.4-1.3-0.4-2.3v-5.3h1.2v5.3c0,0.8,0.1,1.4,0.2,1.8c0.1,0.4,0.4,0.7,0.8,0.9
			s0.8,0.3,1.3,0.3c0.9,0,1.5-0.2,1.9-0.6c0.4-0.4,0.6-1.2,0.6-2.3V244.5z"/>
		<path fill="#5E5F5F" d="M158.1,253.8v-9.2h6.7v1.1h-5.5v2.8h5.1v1.1h-5.1v3.1h5.7v1.1H158.1z"/>
	</g>
</g>
<g>
	<circle fill="#66B545" cx="449.1" cy="210.1" r="25.8"/>
	<g>
		<path fill="#5E5F5F" d="M431.3,250.1v-1.1l3.9,0v3.4c-0.6,0.5-1.2,0.8-1.9,1.1c-0.6,0.2-1.3,0.4-2,0.4c-0.9,0-1.7-0.2-2.5-0.6
			c-0.7-0.4-1.3-0.9-1.7-1.7c-0.4-0.7-0.6-1.6-0.6-2.5c0-0.9,0.2-1.7,0.6-2.5c0.4-0.8,0.9-1.4,1.6-1.7c0.7-0.4,1.5-0.6,2.4-0.6
			c0.7,0,1.3,0.1,1.8,0.3s1,0.5,1.3,0.9c0.3,0.4,0.5,0.9,0.7,1.5l-1.1,0.3c-0.1-0.5-0.3-0.8-0.5-1.1c-0.2-0.3-0.5-0.5-0.9-0.6
			c-0.4-0.2-0.8-0.2-1.3-0.2c-0.6,0-1,0.1-1.4,0.3c-0.4,0.2-0.7,0.4-1,0.7c-0.2,0.3-0.4,0.6-0.6,0.9c-0.2,0.6-0.4,1.2-0.4,1.9
			c0,0.8,0.1,1.5,0.4,2.1s0.7,1,1.2,1.2c0.5,0.3,1.1,0.4,1.7,0.4c0.5,0,1-0.1,1.5-0.3c0.5-0.2,0.9-0.4,1.1-0.7v-1.7H431.3z"/>
		<path fill="#5E5F5F" d="M437,253.8v-9.2h4.1c0.8,0,1.4,0.1,1.9,0.2c0.4,0.2,0.8,0.5,1,0.9c0.3,0.4,0.4,0.9,0.4,1.4
			c0,0.7-0.2,1.2-0.6,1.7s-1.1,0.7-2,0.9c0.3,0.2,0.6,0.3,0.7,0.5c0.4,0.3,0.7,0.7,1,1.2l1.6,2.5h-1.5l-1.2-1.9
			c-0.4-0.6-0.7-1-0.9-1.3c-0.2-0.3-0.4-0.5-0.6-0.6c-0.2-0.1-0.4-0.2-0.6-0.2c-0.1,0-0.4,0-0.7,0h-1.4v4.1H437z M438.2,248.6h2.6
			c0.6,0,1-0.1,1.3-0.2s0.6-0.3,0.7-0.6c0.2-0.3,0.2-0.5,0.2-0.8c0-0.4-0.2-0.8-0.5-1.1s-0.8-0.4-1.5-0.4h-2.9V248.6z"/>
		<path fill="#5E5F5F" d="M446.3,253.8v-9.2h6.7v1.1h-5.5v2.8h5.1v1.1h-5.1v3.1h5.7v1.1H446.3z"/>
		<path fill="#5E5F5F" d="M454.9,253.8v-9.2h6.7v1.1h-5.5v2.8h5.1v1.1h-5.1v3.1h5.7v1.1H454.9z"/>
		<path fill="#5E5F5F" d="M463.5,253.8v-9.2h1.3l4.8,7.2v-7.2h1.2v9.2h-1.3l-4.8-7.3v7.3H463.5z"/>
	</g>
</g>
<g>
	<circle fill="#8B60A9" cx="347.8" cy="210.1" r="25.8"/>
	<g>
		<path fill="#5E5F5F" d="M324.5,253.8v-9.2h3.5c0.6,0,1.1,0,1.4,0.1c0.5,0.1,0.8,0.2,1.1,0.4c0.3,0.2,0.6,0.5,0.7,0.9
			c0.2,0.4,0.3,0.8,0.3,1.3c0,0.8-0.2,1.5-0.7,2c-0.5,0.5-1.4,0.8-2.7,0.8h-2.4v3.8H324.5z M325.7,248.9h2.4c0.8,0,1.4-0.1,1.7-0.4
			c0.3-0.3,0.5-0.7,0.5-1.2c0-0.4-0.1-0.7-0.3-1c-0.2-0.3-0.5-0.5-0.8-0.5c-0.2-0.1-0.6-0.1-1.1-0.1h-2.4V248.9z"/>
		<path fill="#5E5F5F" d="M339.1,244.5h1.2v5.3c0,0.9-0.1,1.7-0.3,2.2c-0.2,0.5-0.6,1-1.1,1.3c-0.5,0.3-1.3,0.5-2.2,0.5
			c-0.9,0-1.6-0.1-2.1-0.4c-0.6-0.3-0.9-0.7-1.2-1.3c-0.2-0.6-0.4-1.3-0.4-2.3v-5.3h1.2v5.3c0,0.8,0.1,1.4,0.2,1.8
			c0.1,0.4,0.4,0.7,0.8,0.9c0.4,0.2,0.8,0.3,1.3,0.3c0.9,0,1.5-0.2,1.9-0.6s0.6-1.2,0.6-2.3V244.5z"/>
		<path fill="#5E5F5F" d="M342.4,253.8v-9.2h4.1c0.8,0,1.4,0.1,1.9,0.2s0.8,0.5,1,0.9c0.3,0.4,0.4,0.9,0.4,1.4
			c0,0.7-0.2,1.2-0.6,1.7c-0.4,0.4-1.1,0.7-2,0.9c0.3,0.2,0.6,0.3,0.7,0.5c0.4,0.3,0.7,0.7,1,1.2l1.6,2.5H349l-1.2-1.9
			c-0.4-0.6-0.7-1-0.9-1.3c-0.2-0.3-0.4-0.5-0.6-0.6c-0.2-0.1-0.4-0.2-0.6-0.2c-0.1,0-0.4,0-0.7,0h-1.4v4.1H342.4z M343.6,248.6h2.6
			c0.6,0,1-0.1,1.3-0.2s0.6-0.3,0.7-0.6c0.2-0.3,0.2-0.5,0.2-0.8c0-0.4-0.2-0.8-0.5-1.1c-0.3-0.3-0.8-0.4-1.5-0.4h-2.9V248.6z"/>
		<path fill="#5E5F5F" d="M351.7,253.8v-9.2h3.5c0.6,0,1.1,0,1.4,0.1c0.5,0.1,0.8,0.2,1.1,0.4c0.3,0.2,0.6,0.5,0.7,0.9
			c0.2,0.4,0.3,0.8,0.3,1.3c0,0.8-0.2,1.5-0.7,2c-0.5,0.5-1.4,0.8-2.7,0.8h-2.4v3.8H351.7z M352.9,248.9h2.4c0.8,0,1.4-0.1,1.7-0.4
			c0.3-0.3,0.5-0.7,0.5-1.2c0-0.4-0.1-0.7-0.3-1c-0.2-0.3-0.5-0.5-0.8-0.5c-0.2-0.1-0.6-0.1-1.1-0.1h-2.4V248.9z"/>
		<path fill="#5E5F5F" d="M360.2,253.8v-9.2h1.2v8.1h4.5v1.1H360.2z"/>
		<path fill="#5E5F5F" d="M367.5,253.8v-9.2h6.7v1.1h-5.5v2.8h5.1v1.1h-5.1v3.1h5.7v1.1H367.5z"/>
	</g>
</g>
<g>
	<path fill="#CAB75A" d="M156,107c0,0-5.7-6.5,0-9.1c5.8-2.5,41.1,14.1,33.1,50.1l-6.3,0.9L156,107z"/>
	<path fill="#F4CE42" d="M156,107l-47.8,51.8l74.7-9.8C182.9,148.9,180.2,109.2,156,107z"/>
	<path fill="#D35C27" d="M147.2,138.9c0.9,2.6-1.8,5.8-6,7.3c-4.2,1.5-8.3,0.6-9.2-2c-0.9-2.5,1.8-5.8,6-7.3
		C142.2,135.5,146.3,136.3,147.2,138.9z"/>
	<path fill="#D35C27" d="M161.6,119.2c0.9,2.5-1.6,5.7-5.6,7.1c-4,1.4-7.9,0.5-8.8-2c-0.9-2.5,1.6-5.7,5.6-7.1
		C156.8,115.8,160.7,116.7,161.6,119.2z"/>
	<path fill="#D35C27" d="M174.9,133.9c1.1,3.1-2,7.1-7,8.8c-5,1.7-9.9,0.6-11-2.5c-1.1-3.1,2.1-7.1,7-8.8
		C168.9,129.6,173.9,130.7,174.9,133.9z"/>
</g>
<g>
	<path fill="#E7D37A" d="M317,150.5l-0.4,7.6c0,0,29.8,18.7,62.8,0.4l0.4-8.5L317,150.5z"/>
	<path fill="#80401C" d="M320.6,141.1l-5.3,4.9l-0.4,4.5c0,0,27.5,15.8,66.3,2.2l-0.9-6.2L320.6,141.1z"/>
	<path fill="#8EB53F" d="M320.1,132.7l-9.4,5.8c0,0-1.3,15.6,69,11.6l6.2,0.4l-4-4.9l6.2-4.9l-4.9-3.6l-11.6-7.6L320.1,132.7z"/>
	<path fill="#D35C27" d="M322.8,135.3c0,0-11.6,9.8,12.5,11.1c24,1.3,19.1-10.2-1.3-12.9"/>
	<path fill="#D35C27" d="M361.6,133.6c0,0-11.1,8.9-1.8,9.8c9.4,0.9,28.9-3.6,14.3-9.8"/>
	<path fill="#E7D37A" d="M381.1,134c-36.5,12.5-66.8,0-66.8,0s-0.9-34.7,33.8-33.8C382.9,101,381.1,134,381.1,134z"/>
	<path fill="#FFFFFF" d="M338.5,106.7c0,0.8-1,1.5-2.2,1.5c-1.2,0-2.2-0.7-2.2-1.5c0-0.8,1-1.5,2.2-1.5
		C337.5,105.2,338.5,105.8,338.5,106.7z"/>
	<path fill="#FFFFFF" d="M346.5,109.8c0,0.8-1,1.5-2.2,1.5c-1.2,0-2.2-0.7-2.2-1.5c0-0.8,1-1.5,2.2-1.5
		C345.5,108.3,346.5,109,346.5,109.8z"/>
	<ellipse fill="#FFFFFF" cx="354" cy="109.5" rx="2.2" ry="1.5"/>
	<path fill="#FFFFFF" d="M346.9,104.3c0,0.7-0.8,1.2-1.8,1.2c-1,0-1.8-0.5-1.8-1.2s0.8-1.2,1.8-1.2
		C346.1,103.1,346.9,103.7,346.9,104.3z"/>
	<path fill="#FFFFFF" d="M357.3,104.7c-0.1,0.7-1,1.1-1.9,1c-1-0.1-1.7-0.8-1.6-1.5c0.1-0.7,1-1.1,1.9-1
		C356.7,103.4,357.4,104.1,357.3,104.7z"/>
</g>
<g>
	<path fill="#D35C27" d="M250.9,164.3c-21.4-1-34.5-14.6-28.5-33.5c6.1-18.9,27.4-5.3,27.4-5.3s19.6-12.5,26-0.4
		C282.3,137.3,273.7,165.4,250.9,164.3z"/>
	<polygon fill="#80401C" points="249.2,127 247.4,112 251.7,111.3 250.9,127.3 	"/>
	<path fill="#8EB53F" d="M251.7,111.3c0,0,4.6-13.2,16.4-8.2C268,103.1,269.8,115.6,251.7,111.3z"/>
	<path fill="#FFFFFF" d="M226.5,128.5c-1.8,3.5-1.5,7.2,0.7,8.4c2.2,1.1,5.4-0.8,7.2-4.3c1.8-3.5,1.5-7.2-0.7-8.4
		C231.5,123.1,228.3,125,226.5,128.5z"/>
</g>
<g>
	<path fill="none" stroke="#E77743" d="M425.1,147.6c-3.7,0.5-6.8-1.4-7.6-6.3c3.2-2.9,8.3-3.7,11.8-2c-3.3,3-9.9-4.6-10.8-8.9
		c3.9-4.9,12.5-3.8,15.2,2.6c-2.7,3.6-9.8,2.2-9.5-4.3c0.5-8.9,22.1-3.7,24.3,2.6c-4.1,6.5-21.6,10.1-21.6-2.6
		c0.1-12.5,18.8-7.2,22-0.4c-4.8,7.3-31.9,3.3-31.2-6.9c4.5-5.1,27.1-11.9,24.3,2.5c-1.3,6.4-7,8.2-8,0.6c-1.8-13.4,24.2-8,24.7-0.2
		c0.6,9.1-17.4,6.8-20.6,1.6c2.4-9.3,16.2-11.5,22.5-11.2c-0.5,12.5-18.3,12.2-18.7-1.8c-0.6-19.2,28.5-7.1,13.9,2.6
		c-3.6,2.4-18.4,1.6-20.5-3.6c-3.3-8,5.9-8,11.1-7.1c5.4,0.9,15.7,4.8,11.5,13.9c-1.9,4.1-9.6,7.4-12.7,6.2
		c2.9-5.6,18.3-14.6,21.2-4.7c2.8,9.6-10.7,10.6-14.6,8.8c0.5-10.1,21.8-10.1,24.1-2c3.8,13.5-23.3,10.2-23.2,4.7
		c0.1-9.5,21.3-7.9,19.8,1.4c-1,6.7-19.6,6.7-20,1c4.5-3.4,21.3-0.5,21.7,8.2c0.5,10.9-28.4,0.4-32.1-3.6
		c1.9-12.9,33.4-0.5,38.2,5.6c-3,5.1-24.9,5.6-24.9-4.1c0-10.2,18.2-7,20.9-0.8c-3.6,5-14.5,6.9-19.3,3.4
		c0.6-8.9,10.2-14.9,16.4-16.3c-1,3.3-2.7,11-5.9,11c-3.7,0-4.4-7.7-4-11.2c2.3,0.4,6.3,3.7,6.5,7.1c0.3,6.1-5.9,6.7-9.5,7.2
		c-4.7,0.6-27.5-0.3-14.8-11.6c-0.3,3.3-3.1,5.3-5.5,6.9c0-0.4-0.3-1.3-0.3-2c-0.7,0.4-3.9,2.1-3.3,1.6"/>
	<circle fill="#80401C" cx="430.2" cy="131" r="7.1"/>
	<circle fill="#80401C" cx="448.8" cy="132" r="7.1"/>
	<path fill="#90D8F6" d="M412,134c0,0,5.6,27.2,39.4,27.2c33.8,0,37.3-28.3,37.3-28.3L412,134z"/>
</g>
<g>
	<path fill="#D5B231" d="M16.5,150.8c0,0,7.6-40.5,33.5-42.1c26-1.7,22.7,32.7,22.7,32.7L16.5,150.8z"/>
	<path fill="#80401C" d="M34.4,135.2c-12.4-3.9-17.3,16.1-17.3,16.1l9.7,4.4L34.4,135.2z"/>
	<polygon fill="#D35C27" points="33.3,138 23.6,136.3 24.1,131.9 29.5,131.3 31.1,124.7 38.7,127.5 	"/>
	<polygon fill="#FAEE46" points="49.6,127.7 34.1,125.9 34.3,122.5 41.1,120.7 36.5,117.9 37.8,114.2 62.7,117.5 	"/>
	<polygon fill="#ADD144" points="39.6,128.9 24.4,126.3 28,123 25.5,118.3 33.5,119 57.7,121.7 74.7,113.5 75.8,119 81.5,121.1 
		67.3,131.7 	"/>
	<path fill="#F4CE42" d="M26.8,155.7c0,0,7.6-40.5,33.5-42.1c26-1.7,22.7,32.7,22.7,32.7L26.8,155.7z"/>
	<g>
		<ellipse fill="#B39730" cx="54.4" cy="136.4" rx="1.5" ry="1.8"/>
		<ellipse fill="#B39730" cx="59.9" cy="140.2" rx="1.5" ry="1.8"/>
		<ellipse fill="#B39730" cx="66.5" cy="139.8" rx="1.5" ry="1.8"/>
		<path fill="#B39730" d="M61.7,133.6c0,0.8-0.5,1.5-1.2,1.5c-0.7,0-1.2-0.7-1.2-1.5c0-0.8,0.5-1.5,1.2-1.5
			C61.2,132.1,61.7,132.8,61.7,133.6z"/>
		<path fill="#B39730" d="M68.8,134.1c-0.1,0.8-0.7,1.3-1.3,1.2c-0.7-0.2-1.1-1-1.1-1.8c0.1-0.8,0.7-1.3,1.3-1.2
			C68.4,132.5,68.9,133.3,68.8,134.1z"/>
	</g>
</g>
<g>
	<polyline fill="none" stroke="#231F20" points="7.5,43.6 27.5,47.6 16,55.1 	"/>
	<polyline fill="none" stroke="#231F20" points="86.6,57.1 70.6,49.6 90.6,43.6 	"/>
	<path fill="#C1CBBF" d="M79.1,45.4C79.1,57.9,66.2,68,50.4,68c-15.8,0-28.7-10.2-28.7-22.7c0-12.5,12.8-22.7,28.7-22.7
		C66.2,22.7,79.1,32.8,79.1,45.4z"/>
	<polyline fill="#C1CBBF" points="28.2,31.6 30.5,16.2 43.1,29.2 57.9,29.7 72.3,14.2 74.1,35.1 	"/>
	<polygon fill="#BC79B3" points="43.7,55.6 53.2,56.1 46.7,63.1 	"/>
	<path fill="none" stroke="#231F20" d="M29.7,42.6c0,0-1.5,5,3,5c4.5,0,2.5-5.5,2.5-5.5"/>
	<path fill="none" stroke="#231F20" d="M59.6,42.6c0,0-1.5,5.5,4,6c5.5,0.5,2.5-6,2.5-6"/>
</g>
<g>
	<path fill="#B47B2B" d="M119.9,27.7l20.2,41.5l13.7-1.3l17-46.2C170.8,21.7,135.2,5.6,119.9,27.7z"/>
	<path fill="#80401C" d="M119.9,27.7c0,0-20.2,33.5-5.7,40.8C128.8,75.9,119.9,27.7,119.9,27.7z"/>
	<path fill="#80401C" d="M170.8,21.7c0,0,25.1,41.5,11.3,43.5C168.4,67.2,170.8,21.7,170.8,21.7z"/>
	<path fill="#010101" d="M153.8,67.8c0,0-8.1-12-13.7,1.3L153.8,67.8z"/>
	<path fill="none" stroke="#231F20" d="M129.8,32.9c0,0-1.3,4.5,2.7,4.5c4,0,2.3-4.9,2.3-4.9"/>
	<path fill="none" stroke="#231F20" d="M155.1,32.9c0,0-1.3,4.9,3.6,5.4c4.9,0.4,2.2-5.4,2.2-5.4"/>
</g>
<g>
	<polygon fill="#F4CA69" points="378.4,50.5 396.9,40.1 395.8,64.3 	"/>
	<path fill="#F4CA69" d="M347.1,32.5c0,0,12.8-13.1,23.8-13.1l-8.1,24.2"/>
	<polyline fill="#F4CA69" points="346,56.7 365.1,69.1 358.7,58.1 371.4,65 367.4,53.2 	"/>
	<path fill="#EA9228" d="M378.4,50.5c0,0-33.6-41.5-56.2-2.8C322.2,47.7,337.8,79.5,378.4,50.5z"/>
	<path fill="none" stroke="#231F20" d="M339.3,41.5c0,0-3,6.9,0.8,6.9c3.8,0,3.8-5.5,3.8-5.5"/>
</g>
<g>
	<path fill="#F6D73C" d="M453,26.5c0,0-20.3,11.8-36,24L439.6,61"/>
	<line fill="none" stroke="#231F20" x1="417" y1="50.5" x2="459.2" y2="49.1"/>
	<path fill="#658ECA" d="M439.6,68.2c0,0-8-59,37.5-49.5l-7.5,4.5c0,0,12,5.8,9,45.8L439.6,68.2z"/>
	<path fill="none" stroke="#231F20" d="M456,39.8c0,0-3,6.9,0.8,6.9c3.8,0,3.8-5.5,3.8-5.5"/>
</g>
<g>
	<path fill="#74C26A" d="M228.9,57.9c0,0-6.9,0-6.5-12.4c0.5-12.4-17.6-10.6-12.9,3c4.6,13.6,23.1,23.6,27.7,7.1l-0.9,13.3h9.9
		l-0.7-14.5l20.3,1.2v13.3l9,0.3l-1.2-15.3c0,0,1.8,13.6,11.6,11.8c0,0-10.2-9.4-8.3-18.9C278.9,37.3,233.1,34.3,228.9,57.9z"/>
	<polyline fill="#74C26A" points="249.4,55.6 248.8,68.6 254.8,68.6 254.4,54.4 	"/>
	<polyline fill="#74C26A" points="258.1,55.6 257.6,68.6 263.6,68.6 263.2,54.4 	"/>
	<path fill="#80401C" d="M228.9,57.9c0,0-3.2-39.6,26.4-39.6c29.6,0,25.9,40.1,25.9,40.1L228.9,57.9z"/>
	<path fill="none" stroke="#231F20" d="M213.8,42.1c0,0-2.7,6,0.7,6c3.3,0,3.3-4.8,3.3-4.8"/>
</g>
<g>
	<circle fill="#E14426" cx="48.1" cy="210.1" r="25.8"/>
	<g>
		<path fill="#5E5F5F" d="M36.9,253.8v-9.2H41c0.8,0,1.4,0.1,1.9,0.2s0.8,0.5,1,0.9c0.3,0.4,0.4,0.9,0.4,1.4c0,0.7-0.2,1.2-0.6,1.7
			s-1.1,0.7-2,0.9c0.3,0.2,0.6,0.3,0.7,0.5c0.4,0.3,0.7,0.7,1,1.2l1.6,2.5h-1.5l-1.2-1.9c-0.4-0.6-0.7-1-0.9-1.3
			c-0.2-0.3-0.4-0.5-0.6-0.6c-0.2-0.1-0.4-0.2-0.6-0.2c-0.1,0-0.4,0-0.7,0h-1.4v4.1H36.9z M38.1,248.6h2.6c0.6,0,1-0.1,1.3-0.2
			c0.3-0.1,0.6-0.3,0.7-0.6c0.2-0.3,0.2-0.5,0.2-0.8c0-0.4-0.2-0.8-0.5-1.1c-0.3-0.3-0.8-0.4-1.5-0.4h-2.9V248.6z"/>
		<path fill="#5E5F5F" d="M46.2,253.8v-9.2h6.7v1.1h-5.5v2.8h5.1v1.1h-5.1v3.1h5.7v1.1H46.2z"/>
		<path fill="#5E5F5F" d="M54.8,253.8v-9.2H58c0.7,0,1.3,0,1.6,0.1c0.5,0.1,1,0.3,1.4,0.7c0.5,0.4,0.9,0.9,1.1,1.6s0.4,1.4,0.4,2.2
			c0,0.7-0.1,1.3-0.2,1.9s-0.4,1-0.6,1.3c-0.3,0.4-0.5,0.6-0.8,0.8c-0.3,0.2-0.7,0.4-1.1,0.5c-0.4,0.1-0.9,0.2-1.5,0.2H54.8z
			 M56,252.7h2c0.6,0,1.1-0.1,1.4-0.2c0.3-0.1,0.6-0.3,0.8-0.5c0.3-0.3,0.5-0.7,0.7-1.2s0.2-1.1,0.2-1.8c0-1-0.2-1.7-0.5-2.2
			c-0.3-0.5-0.7-0.9-1.2-1c-0.3-0.1-0.9-0.2-1.6-0.2H56V252.7z"/>
	</g>
</g>
<g>
	<circle fill="#E18928" cx="247" cy="473.1" r="25.8"/>
	<g>
		<path fill="#5E5F5F" d="M219.5,512.3c0-1.5,0.4-2.7,1.2-3.6c0.8-0.9,1.9-1.3,3.2-1.3c0.9,0,1.6,0.2,2.3,0.6s1.2,1,1.6,1.7
			c0.4,0.7,0.5,1.6,0.5,2.5c0,0.9-0.2,1.8-0.6,2.5c-0.4,0.7-0.9,1.3-1.6,1.7c-0.7,0.4-1.4,0.6-2.2,0.6c-0.9,0-1.6-0.2-2.3-0.6
			c-0.7-0.4-1.2-1-1.6-1.7C219.7,513.8,219.5,513.1,219.5,512.3z M220.7,512.3c0,1.1,0.3,2,0.9,2.6c0.6,0.6,1.3,1,2.3,1
			c0.9,0,1.7-0.3,2.3-1c0.6-0.6,0.9-1.6,0.9-2.8c0-0.8-0.1-1.4-0.4-2c-0.3-0.6-0.6-1-1.1-1.3c-0.5-0.3-1-0.5-1.6-0.5
			c-0.9,0-1.6,0.3-2.2,0.9C221.1,509.9,220.7,510.9,220.7,512.3z"/>
		<path fill="#5E5F5F" d="M229.9,516.8v-9.2h4.1c0.8,0,1.4,0.1,1.9,0.2c0.4,0.2,0.8,0.5,1,0.9s0.4,0.9,0.4,1.4
			c0,0.7-0.2,1.2-0.6,1.7c-0.4,0.4-1.1,0.7-2,0.9c0.3,0.2,0.6,0.3,0.7,0.5c0.4,0.3,0.7,0.7,1,1.2l1.6,2.5h-1.5l-1.2-1.9
			c-0.4-0.6-0.7-1-0.9-1.3c-0.2-0.3-0.4-0.5-0.6-0.6s-0.4-0.2-0.6-0.2c-0.1,0-0.4,0-0.7,0h-1.4v4.1H229.9z M231.1,511.6h2.6
			c0.6,0,1-0.1,1.3-0.2c0.3-0.1,0.6-0.3,0.7-0.6c0.2-0.3,0.2-0.5,0.2-0.8c0-0.4-0.2-0.8-0.5-1.1c-0.3-0.3-0.8-0.4-1.5-0.4h-2.9
			V511.6z"/>
		<path fill="#5E5F5F" d="M238.2,516.8l3.5-9.2h1.3l3.8,9.2h-1.4l-1.1-2.8h-3.9l-1,2.8H238.2z M240.9,513h3.1l-1-2.6
			c-0.3-0.8-0.5-1.4-0.7-1.9c-0.1,0.6-0.3,1.2-0.5,1.8L240.9,513z"/>
		<path fill="#5E5F5F" d="M247.8,516.8v-9.2h1.3l4.8,7.2v-7.2h1.2v9.2h-1.3l-4.8-7.3v7.3H247.8z"/>
		<path fill="#5E5F5F" d="M261.4,513.1v-1.1l3.9,0v3.4c-0.6,0.5-1.2,0.8-1.9,1.1s-1.3,0.4-2,0.4c-0.9,0-1.7-0.2-2.5-0.6
			c-0.7-0.4-1.3-0.9-1.7-1.7c-0.4-0.7-0.6-1.6-0.6-2.5c0-0.9,0.2-1.7,0.6-2.5c0.4-0.8,0.9-1.4,1.6-1.7c0.7-0.4,1.5-0.6,2.4-0.6
			c0.7,0,1.3,0.1,1.8,0.3c0.5,0.2,1,0.5,1.3,0.9c0.3,0.4,0.5,0.9,0.7,1.5l-1.1,0.3c-0.1-0.5-0.3-0.8-0.5-1.1
			c-0.2-0.3-0.5-0.5-0.9-0.6c-0.4-0.2-0.8-0.2-1.3-0.2c-0.6,0-1,0.1-1.4,0.3c-0.4,0.2-0.7,0.4-1,0.7c-0.2,0.3-0.4,0.6-0.6,0.9
			c-0.2,0.6-0.4,1.2-0.4,1.9c0,0.8,0.1,1.5,0.4,2.1s0.7,1,1.2,1.2c0.5,0.3,1.1,0.4,1.7,0.4c0.5,0,1-0.1,1.5-0.3
			c0.5-0.2,0.9-0.4,1.1-0.7v-1.7H261.4z"/>
		<path fill="#5E5F5F" d="M267.2,516.8v-9.2h6.7v1.1h-5.5v2.8h5.1v1.1h-5.1v3.1h5.7v1.1H267.2z"/>
	</g>
</g>
<g>
	<circle fill="#4366B0" cx="146.8" cy="473.1" r="25.8"/>
	<g>
		<path fill="#5E5F5F" d="M132.3,516.8v-9.2h3.5c0.7,0,1.3,0.1,1.7,0.3c0.4,0.2,0.8,0.5,1,0.9c0.2,0.4,0.4,0.8,0.4,1.2
			c0,0.4-0.1,0.8-0.3,1.1c-0.2,0.3-0.5,0.6-1,0.8c0.6,0.2,1,0.4,1.3,0.8c0.3,0.4,0.5,0.9,0.5,1.4c0,0.4-0.1,0.8-0.3,1.2
			s-0.4,0.7-0.7,0.9c-0.3,0.2-0.6,0.4-1,0.5c-0.4,0.1-0.9,0.2-1.5,0.2H132.3z M133.5,511.4h2c0.5,0,0.9,0,1.2-0.1
			c0.3-0.1,0.5-0.2,0.7-0.5c0.2-0.2,0.2-0.5,0.2-0.8c0-0.3-0.1-0.6-0.2-0.8s-0.4-0.4-0.6-0.5c-0.3-0.1-0.7-0.1-1.4-0.1h-1.8V511.4z
			 M133.5,515.7h2.3c0.4,0,0.7,0,0.8,0c0.3-0.1,0.5-0.1,0.7-0.3s0.3-0.3,0.5-0.5c0.1-0.2,0.2-0.5,0.2-0.8c0-0.3-0.1-0.6-0.3-0.9
			c-0.2-0.3-0.4-0.4-0.7-0.5c-0.3-0.1-0.8-0.2-1.4-0.2h-2.1V515.7z"/>
		<path fill="#5E5F5F" d="M140.9,516.8v-9.2h1.2v8.1h4.5v1.1H140.9z"/>
		<path fill="#5E5F5F" d="M154.2,507.5h1.2v5.3c0,0.9-0.1,1.7-0.3,2.2s-0.6,1-1.1,1.3s-1.3,0.5-2.2,0.5c-0.9,0-1.6-0.1-2.1-0.4
			s-0.9-0.7-1.2-1.3c-0.2-0.6-0.4-1.3-0.4-2.3v-5.3h1.2v5.3c0,0.8,0.1,1.4,0.2,1.8s0.4,0.7,0.8,0.9c0.4,0.2,0.8,0.3,1.3,0.3
			c0.9,0,1.5-0.2,1.9-0.6c0.4-0.4,0.6-1.2,0.6-2.3V507.5z"/>
		<path fill="#5E5F5F" d="M157.5,516.8v-9.2h6.7v1.1h-5.5v2.8h5.1v1.1h-5.1v3.1h5.7v1.1H157.5z"/>
	</g>
</g>
<g>
	<circle fill="#66B545" cx="448.5" cy="473.1" r="25.8"/>
	<g>
		<path fill="#5E5F5F" d="M430.7,513.1v-1.1l3.9,0v3.4c-0.6,0.5-1.2,0.8-1.9,1.1c-0.6,0.2-1.3,0.4-2,0.4c-0.9,0-1.7-0.2-2.5-0.6
			s-1.3-0.9-1.7-1.7c-0.4-0.7-0.6-1.6-0.6-2.5c0-0.9,0.2-1.7,0.6-2.5c0.4-0.8,0.9-1.4,1.6-1.7c0.7-0.4,1.5-0.6,2.4-0.6
			c0.7,0,1.3,0.1,1.8,0.3c0.5,0.2,1,0.5,1.3,0.9c0.3,0.4,0.5,0.9,0.7,1.5l-1.1,0.3c-0.1-0.5-0.3-0.8-0.5-1.1
			c-0.2-0.3-0.5-0.5-0.9-0.6c-0.4-0.2-0.8-0.2-1.3-0.2c-0.6,0-1,0.1-1.4,0.3c-0.4,0.2-0.7,0.4-1,0.7c-0.2,0.3-0.4,0.6-0.6,0.9
			c-0.2,0.6-0.4,1.2-0.4,1.9c0,0.8,0.1,1.5,0.4,2.1s0.7,1,1.2,1.2c0.5,0.3,1.1,0.4,1.7,0.4c0.5,0,1-0.1,1.5-0.3
			c0.5-0.2,0.9-0.4,1.1-0.7v-1.7H430.7z"/>
		<path fill="#5E5F5F" d="M436.4,516.8v-9.2h4.1c0.8,0,1.4,0.1,1.9,0.2c0.4,0.2,0.8,0.5,1,0.9s0.4,0.9,0.4,1.4
			c0,0.7-0.2,1.2-0.6,1.7c-0.4,0.4-1.1,0.7-2,0.9c0.3,0.2,0.6,0.3,0.7,0.5c0.4,0.3,0.7,0.7,1,1.2l1.6,2.5H443l-1.2-1.9
			c-0.4-0.6-0.7-1-0.9-1.3c-0.2-0.3-0.4-0.5-0.6-0.6s-0.4-0.2-0.6-0.2c-0.1,0-0.4,0-0.7,0h-1.4v4.1H436.4z M437.6,511.6h2.6
			c0.6,0,1-0.1,1.3-0.2c0.3-0.1,0.6-0.3,0.7-0.6c0.2-0.3,0.2-0.5,0.2-0.8c0-0.4-0.2-0.8-0.5-1.1c-0.3-0.3-0.8-0.4-1.5-0.4h-2.9
			V511.6z"/>
		<path fill="#5E5F5F" d="M445.7,516.8v-9.2h6.7v1.1h-5.5v2.8h5.1v1.1h-5.1v3.1h5.7v1.1H445.7z"/>
		<path fill="#5E5F5F" d="M454.3,516.8v-9.2h6.7v1.1h-5.5v2.8h5.1v1.1h-5.1v3.1h5.7v1.1H454.3z"/>
		<path fill="#5E5F5F" d="M462.9,516.8v-9.2h1.3l4.8,7.2v-7.2h1.2v9.2h-1.3l-4.8-7.3v7.3H462.9z"/>
	</g>
</g>
<g>
	<circle fill="#8B60A9" cx="347.2" cy="473.1" r="25.8"/>
	<g>
		<path fill="#5E5F5F" d="M323.9,516.8v-9.2h3.5c0.6,0,1.1,0,1.4,0.1c0.5,0.1,0.8,0.2,1.1,0.4c0.3,0.2,0.6,0.5,0.7,0.9
			c0.2,0.4,0.3,0.8,0.3,1.3c0,0.8-0.2,1.5-0.7,2c-0.5,0.5-1.4,0.8-2.7,0.8h-2.4v3.8H323.9z M325.1,511.9h2.4c0.8,0,1.4-0.1,1.7-0.4
			s0.5-0.7,0.5-1.2c0-0.4-0.1-0.7-0.3-1c-0.2-0.3-0.5-0.5-0.8-0.5c-0.2-0.1-0.6-0.1-1.1-0.1h-2.4V511.9z"/>
		<path fill="#5E5F5F" d="M338.5,507.5h1.2v5.3c0,0.9-0.1,1.7-0.3,2.2s-0.6,1-1.1,1.3s-1.3,0.5-2.2,0.5c-0.9,0-1.6-0.1-2.1-0.4
			c-0.6-0.3-0.9-0.7-1.2-1.3c-0.2-0.6-0.4-1.3-0.4-2.3v-5.3h1.2v5.3c0,0.8,0.1,1.4,0.2,1.8s0.4,0.7,0.8,0.9c0.4,0.2,0.8,0.3,1.3,0.3
			c0.9,0,1.5-0.2,1.9-0.6c0.4-0.4,0.6-1.2,0.6-2.3V507.5z"/>
		<path fill="#5E5F5F" d="M341.8,516.8v-9.2h4.1c0.8,0,1.4,0.1,1.9,0.2c0.4,0.2,0.8,0.5,1,0.9s0.4,0.9,0.4,1.4
			c0,0.7-0.2,1.2-0.6,1.7c-0.4,0.4-1.1,0.7-2,0.9c0.3,0.2,0.6,0.3,0.7,0.5c0.4,0.3,0.7,0.7,1,1.2l1.6,2.5h-1.5l-1.2-1.9
			c-0.4-0.6-0.7-1-0.9-1.3s-0.4-0.5-0.6-0.6s-0.4-0.2-0.6-0.2c-0.1,0-0.4,0-0.7,0H343v4.1H341.8z M343,511.6h2.6
			c0.6,0,1-0.1,1.3-0.2c0.3-0.1,0.6-0.3,0.7-0.6c0.2-0.3,0.2-0.5,0.2-0.8c0-0.4-0.2-0.8-0.5-1.1c-0.3-0.3-0.8-0.4-1.5-0.4H343V511.6
			z"/>
		<path fill="#5E5F5F" d="M351.1,516.8v-9.2h3.5c0.6,0,1.1,0,1.4,0.1c0.5,0.1,0.8,0.2,1.1,0.4c0.3,0.2,0.6,0.5,0.7,0.9
			c0.2,0.4,0.3,0.8,0.3,1.3c0,0.8-0.2,1.5-0.7,2s-1.4,0.8-2.7,0.8h-2.4v3.8H351.1z M352.3,511.9h2.4c0.8,0,1.4-0.1,1.7-0.4
			c0.3-0.3,0.5-0.7,0.5-1.2c0-0.4-0.1-0.7-0.3-1c-0.2-0.3-0.5-0.5-0.8-0.5c-0.2-0.1-0.6-0.1-1.1-0.1h-2.4V511.9z"/>
		<path fill="#5E5F5F" d="M359.6,516.8v-9.2h1.2v8.1h4.5v1.1H359.6z"/>
		<path fill="#5E5F5F" d="M366.9,516.8v-9.2h6.7v1.1h-5.5v2.8h5.1v1.1h-5.1v3.1h5.7v1.1H366.9z"/>
	</g>
</g>
<g>
	<circle fill="#E14426" cx="47.5" cy="473.1" r="25.8"/>
	<g>
		<path fill="#5E5F5F" d="M36.3,516.8v-9.2h4.1c0.8,0,1.4,0.1,1.9,0.2c0.4,0.2,0.8,0.5,1,0.9s0.4,0.9,0.4,1.4c0,0.7-0.2,1.2-0.6,1.7
			c-0.4,0.4-1.1,0.7-2,0.9c0.3,0.2,0.6,0.3,0.7,0.5c0.4,0.3,0.7,0.7,1,1.2l1.6,2.5h-1.5l-1.2-1.9c-0.4-0.6-0.7-1-0.9-1.3
			s-0.4-0.5-0.6-0.6c-0.2-0.1-0.4-0.2-0.6-0.2c-0.1,0-0.4,0-0.7,0h-1.4v4.1H36.3z M37.5,511.6h2.6c0.6,0,1-0.1,1.3-0.2
			c0.3-0.1,0.6-0.3,0.7-0.6c0.2-0.3,0.2-0.5,0.2-0.8c0-0.4-0.2-0.8-0.5-1.1c-0.3-0.3-0.8-0.4-1.5-0.4h-2.9V511.6z"/>
		<path fill="#5E5F5F" d="M45.6,516.8v-9.2h6.7v1.1h-5.5v2.8H52v1.1h-5.1v3.1h5.7v1.1H45.6z"/>
		<path fill="#5E5F5F" d="M54.2,516.8v-9.2h3.2c0.7,0,1.3,0,1.6,0.1c0.5,0.1,1,0.3,1.4,0.7c0.5,0.4,0.9,0.9,1.1,1.6s0.4,1.4,0.4,2.2
			c0,0.7-0.1,1.3-0.2,1.9c-0.2,0.5-0.4,1-0.6,1.3c-0.3,0.4-0.5,0.6-0.8,0.8c-0.3,0.2-0.7,0.4-1.1,0.5c-0.4,0.1-0.9,0.2-1.5,0.2H54.2
			z M55.4,515.7h2c0.6,0,1.1-0.1,1.4-0.2c0.3-0.1,0.6-0.3,0.8-0.5c0.3-0.3,0.5-0.7,0.7-1.2s0.2-1.1,0.2-1.8c0-1-0.2-1.7-0.5-2.2
			c-0.3-0.5-0.7-0.9-1.2-1c-0.3-0.1-0.9-0.2-1.6-0.2h-1.9V515.7z"/>
	</g>
</g>
<g>
	<path fill="#CAB75A" d="M155.7,364.6c0,0-5.7-6.5,0-9.1c5.8-2.5,41.1,14.1,33.1,50.1l-6.3,0.9L155.7,364.6z"/>
	<path fill="#F4CE42" d="M155.7,364.6l-47.8,51.8l74.7-9.8C182.5,406.6,179.9,366.8,155.7,364.6z"/>
	<path fill="#D35C27" d="M146.9,396.5c0.9,2.6-1.8,5.8-6,7.3c-4.2,1.5-8.3,0.6-9.2-2c-0.9-2.5,1.8-5.8,6-7.3
		C141.9,393.1,146,394,146.9,396.5z"/>
	<path fill="#D35C27" d="M161.3,376.8c0.9,2.5-1.6,5.7-5.6,7.1c-4,1.4-7.9,0.5-8.8-2c-0.9-2.5,1.6-5.7,5.6-7.1
		C156.5,373.4,160.4,374.3,161.3,376.8z"/>
	<path fill="#D35C27" d="M174.6,391.5c1.1,3.1-2,7.1-7,8.8c-5,1.7-9.9,0.6-11-2.5c-1.1-3.1,2.1-7.1,7-8.8
		C168.6,387.2,173.5,388.4,174.6,391.5z"/>
</g>
<g>
	<path fill="#E7D37A" d="M316.7,408.1l-0.4,7.6c0,0,29.8,18.7,62.8,0.4l0.4-8.5L316.7,408.1z"/>
	<path fill="#80401C" d="M320.3,398.7l-5.3,4.9l-0.4,4.5c0,0,27.5,15.8,66.3,2.2l-0.9-6.2L320.3,398.7z"/>
	<path fill="#8EB53F" d="M319.8,390.3l-9.4,5.8c0,0-1.3,15.6,69,11.6l6.2,0.4l-4-4.9l6.2-4.9l-4.9-3.6l-11.6-7.6L319.8,390.3z"/>
	<path fill="#D35C27" d="M322.5,393c0,0-11.6,9.8,12.5,11.1c24,1.3,19.1-10.2-1.3-12.9"/>
	<path fill="#D35C27" d="M361.2,391.2c0,0-11.1,8.9-1.8,9.8c9.4,0.9,28.9-3.6,14.3-9.8"/>
	<path fill="#E7D37A" d="M380.8,391.6c-36.5,12.5-66.8,0-66.8,0s-0.9-34.7,33.8-33.8C382.6,358.7,380.8,391.6,380.8,391.6z"/>
	<path fill="#FFFFFF" d="M338.1,364.3c0,0.8-1,1.5-2.2,1.5c-1.2,0-2.2-0.7-2.2-1.5c0-0.8,1-1.5,2.2-1.5
		C337.2,362.8,338.1,363.5,338.1,364.3z"/>
	<path fill="#FFFFFF" d="M346.2,367.5c0,0.8-1,1.5-2.2,1.5c-1.2,0-2.2-0.7-2.2-1.5c0-0.8,1-1.5,2.2-1.5
		C345.2,366,346.2,366.6,346.2,367.5z"/>
	<ellipse fill="#FFFFFF" cx="353.7" cy="367.1" rx="2.2" ry="1.5"/>
	<path fill="#FFFFFF" d="M346.6,362c0,0.7-0.8,1.2-1.8,1.2c-1,0-1.8-0.5-1.8-1.2s0.8-1.2,1.8-1.2C345.8,360.7,346.6,361.3,346.6,362
		z"/>
	<path fill="#FFFFFF" d="M357,362.4c-0.1,0.7-1,1.1-1.9,1c-1-0.1-1.7-0.8-1.6-1.5c0.1-0.7,1-1.1,1.9-1
		C356.4,361.1,357.1,361.7,357,362.4z"/>
</g>
<g>
	<path fill="#D35C27" d="M250.6,422c-21.4-1-34.5-14.6-28.5-33.5c6.1-18.9,27.4-5.3,27.4-5.3s19.6-12.5,26-0.4
		C282,394.9,273.4,423,250.6,422z"/>
	<polygon fill="#80401C" points="248.9,384.6 247.1,369.6 251.3,368.9 250.6,384.9 	"/>
	<path fill="#8EB53F" d="M251.3,368.9c0,0,4.6-13.2,16.4-8.2C267.7,360.7,269.5,373.2,251.3,368.9z"/>
	<path fill="#FFFFFF" d="M226.2,386.1c-1.8,3.5-1.5,7.2,0.7,8.4c2.2,1.1,5.4-0.8,7.2-4.3c1.8-3.5,1.5-7.2-0.7-8.4
		C231.2,380.7,228,382.6,226.2,386.1z"/>
</g>
<g>
	<path fill="none" stroke="#E77743" d="M424.8,405.2c-3.7,0.5-6.8-1.4-7.6-6.3c3.2-2.9,8.3-3.7,11.8-2c-3.3,3-9.9-4.6-10.8-8.9
		c3.9-4.9,12.5-3.8,15.2,2.6c-2.7,3.6-9.8,2.2-9.5-4.3c0.5-8.9,22.1-3.7,24.3,2.6c-4.1,6.5-21.6,10.1-21.6-2.6
		c0.1-12.5,18.8-7.2,22-0.4c-4.8,7.3-31.9,3.3-31.2-6.9c4.5-5.1,27.1-11.9,24.3,2.5c-1.3,6.4-7,8.2-8,0.6c-1.8-13.4,24.2-8,24.7-0.2
		c0.6,9.1-17.4,6.8-20.6,1.6c2.4-9.3,16.2-11.5,22.5-11.2c-0.5,12.5-18.3,12.2-18.7-1.8c-0.6-19.2,28.5-7.1,13.9,2.6
		c-3.6,2.4-18.4,1.6-20.5-3.6c-3.3-8,5.9-8,11.1-7.1c5.4,0.9,15.7,4.8,11.5,13.9c-1.9,4.1-9.6,7.4-12.7,6.2
		c2.9-5.6,18.3-14.6,21.2-4.7c2.8,9.6-10.7,10.6-14.6,8.8c0.5-10.1,21.8-10.1,24.1-2c3.8,13.5-23.3,10.2-23.2,4.7
		c0.1-9.5,21.3-7.9,19.8,1.4c-1,6.7-19.6,6.7-20,1c4.5-3.4,21.3-0.5,21.7,8.2c0.5,10.9-28.4,0.4-32.1-3.6
		c1.9-12.9,33.4-0.5,38.2,5.6c-3,5.1-24.9,5.6-24.9-4.1c0-10.2,18.2-7,20.9-0.8c-3.6,5-14.5,6.9-19.3,3.4
		c0.6-8.9,10.2-14.9,16.4-16.3c-1,3.3-2.7,11-5.9,11c-3.7,0-4.4-7.7-4-11.2c2.3,0.4,6.3,3.7,6.5,7.1c0.3,6.1-5.9,6.7-9.5,7.2
		c-4.7,0.6-27.5-0.3-14.8-11.6c-0.3,3.3-3.1,5.3-5.5,6.9c0-0.4-0.3-1.3-0.3-2c-0.7,0.4-3.9,2.1-3.3,1.6"/>
	<circle fill="#80401C" cx="429.9" cy="388.6" r="7.1"/>
	<circle fill="#80401C" cx="448.5" cy="389.6" r="7.1"/>
	<path fill="#90D8F6" d="M411.7,391.6c0,0,5.6,27.2,39.4,27.2c33.8,0,37.3-28.3,37.3-28.3L411.7,391.6z"/>
</g>
<g>
	<path fill="#D5B231" d="M16.2,408.4c0,0,7.6-40.5,33.5-42.1c26-1.7,22.7,32.7,22.7,32.7L16.2,408.4z"/>
	<path fill="#80401C" d="M34.1,392.9c-12.4-3.9-17.3,16.1-17.3,16.1l9.7,4.4L34.1,392.9z"/>
	<polygon fill="#D35C27" points="33,395.6 23.2,394 23.8,389.5 29.2,389 30.8,382.3 38.4,385.1 	"/>
	<polygon fill="#FAEE46" points="49.3,385.3 33.8,383.5 34,380.1 40.8,378.3 36.2,375.5 37.5,371.9 62.4,375.1 	"/>
	<polygon fill="#ADD144" points="39.3,386.5 24.1,383.9 27.7,380.7 25.2,375.9 33.2,376.6 57.4,379.3 74.4,371.2 75.5,376.6 
		81.2,378.7 67,389.4 	"/>
	<path fill="#F4CE42" d="M26.5,413.4c0,0,7.6-40.5,33.5-42.1c26-1.7,22.7,32.7,22.7,32.7L26.5,413.4z"/>
	<g>
		<ellipse fill="#B39730" cx="54.1" cy="394" rx="1.5" ry="1.8"/>
		<ellipse fill="#B39730" cx="59.6" cy="397.8" rx="1.5" ry="1.8"/>
		<ellipse fill="#B39730" cx="66.2" cy="397.4" rx="1.5" ry="1.8"/>
		<path fill="#B39730" d="M61.4,391.2c0,0.8-0.5,1.5-1.2,1.5c-0.7,0-1.2-0.7-1.2-1.5c0-0.8,0.5-1.5,1.2-1.5
			C60.8,389.7,61.4,390.4,61.4,391.2z"/>
		<path fill="#B39730" d="M68.5,391.7c-0.1,0.8-0.7,1.3-1.3,1.2c-0.7-0.2-1.1-1-1.1-1.8c0.1-0.8,0.7-1.3,1.3-1.2
			C68.1,390.1,68.6,390.9,68.5,391.7z"/>
	</g>
</g>
<g>
	<polyline fill="none" stroke="#231F20" points="7.2,309.2 27.2,313.2 15.7,320.7 	"/>
	<polyline fill="none" stroke="#231F20" points="86.3,322.7 70.3,315.2 90.2,309.2 	"/>
	<path fill="#C1CBBF" d="M78.8,311c0,12.5-12.8,22.7-28.7,22.7c-15.8,0-28.7-10.2-28.7-22.7c0-12.5,12.8-22.7,28.7-22.7
		C65.9,288.3,78.8,298.5,78.8,311z"/>
	<polyline fill="#C1CBBF" points="27.9,297.3 30.2,281.8 42.8,294.8 57.6,295.3 72,279.8 73.8,300.8 	"/>
	<polygon fill="#BC79B3" points="43.4,321.2 52.8,321.7 46.4,328.7 	"/>
	<path fill="none" stroke="#231F20" d="M29.4,308.2c0,0-1.5,5,3,5c4.5,0,2.5-5.5,2.5-5.5"/>
	<path fill="none" stroke="#231F20" d="M59.3,308.2c0,0-1.5,5.5,4,6c5.5,0.5,2.5-6,2.5-6"/>
</g>
<g>
	<path fill="#B47B2B" d="M119.6,293.3l20.2,41.5l13.7-1.3l17-46.2C170.5,287.3,134.9,271.2,119.6,293.3z"/>
	<path fill="#80401C" d="M119.6,293.3c0,0-20.2,33.5-5.7,40.8C128.4,341.5,119.6,293.3,119.6,293.3z"/>
	<path fill="#80401C" d="M170.5,287.3c0,0,25.1,41.5,11.3,43.5C168.1,332.8,170.5,287.3,170.5,287.3z"/>
	<path fill="#010101" d="M153.5,333.5c0,0-8.1-12-13.7,1.3L153.5,333.5z"/>
	<path fill="none" stroke="#231F20" d="M129.5,298.5c0,0-1.3,4.5,2.7,4.5c4,0,2.3-4.9,2.3-4.9"/>
	<path fill="none" stroke="#231F20" d="M154.8,298.5c0,0-1.3,4.9,3.6,5.4c4.9,0.4,2.2-5.4,2.2-5.4"/>
</g>
<g>
	<polygon fill="#F4CA69" points="378.1,316.1 396.6,305.7 395.5,329.9 	"/>
	<path fill="#F4CA69" d="M346.8,298.1c0,0,12.8-13.1,23.8-13.1l-8.1,24.2"/>
	<polyline fill="#F4CA69" points="345.6,322.3 364.8,334.8 358.4,323.7 371.1,330.6 367.1,318.9 	"/>
	<path fill="#EA9228" d="M378.1,316.1c0,0-33.6-41.5-56.2-2.8C321.9,313.3,337.5,345.1,378.1,316.1z"/>
	<path fill="none" stroke="#231F20" d="M339,307.1c0,0-3,6.9,0.8,6.9c3.8,0,3.8-5.5,3.8-5.5"/>
</g>
<g>
	<path fill="#F6D73C" d="M452.7,292.1c0,0-20.3,11.8-36,24l22.6,10.5"/>
	<line fill="none" stroke="#231F20" x1="416.7" y1="316.1" x2="458.9" y2="314.8"/>
	<path fill="#658ECA" d="M439.3,333.9c0,0-8-59,37.5-49.5l-7.5,4.5c0,0,12,5.8,9,45.8L439.3,333.9z"/>
	<path fill="none" stroke="#231F20" d="M455.7,305.4c0,0-3,6.9,0.8,6.9c3.8,0,3.8-5.5,3.8-5.5"/>
</g>
<g>
	<path fill="#74C26A" d="M228.6,323.6c0,0-6.9,0-6.5-12.4c0.5-12.4-17.6-10.6-12.9,3c4.6,13.6,23.1,23.6,27.7,7.1l-0.9,13.3h9.9
		l-0.7-14.5l20.3,1.2v13.3l9,0.3l-1.2-15.3c0,0,1.8,13.6,11.6,11.8c0,0-10.2-9.4-8.3-18.9C278.6,302.9,232.8,300,228.6,323.6z"/>
	<polyline fill="#74C26A" points="249,321.2 248.5,334.2 254.5,334.2 254.1,320 	"/>
	<polyline fill="#74C26A" points="257.8,321.2 257.3,334.2 263.3,334.2 262.9,320 	"/>
	<path fill="#80401C" d="M228.6,323.6c0,0-3.2-39.6,26.4-39.6c29.6,0,25.9,40.1,25.9,40.1L228.6,323.6z"/>
	<path fill="none" stroke="#231F20" d="M213.5,307.7c0,0-2.7,6,0.7,6c3.3,0,3.3-4.8,3.3-4.8"/>
</g>
</svg>
