<?xml version="1.0" standalone="no"?>
<!DOCTYPE svg PUBLIC "-//W3C//DTD SVG 1.1//EN" "http://www.w3.org/Graphics/SVG/1.1/DTD/svg11.dtd" >
<svg xmlns="http://www.w3.org/2000/svg" xmlns:xlink="http://www.w3.org/1999/xlink" version="1.1">
<metadata></metadata>
<defs>
<font id="bodegasansregular" horiz-adv-x="741" >
<font-face units-per-em="2048" ascent="1638" descent="-410" />
<missing-glyph horiz-adv-x="299" />
<glyph horiz-adv-x="0" />
<glyph horiz-adv-x="682" />
<glyph d="M66 1348l120 208q23 -18 50 -30q23 -12 53 -21.5t65 -9.5t66 9t53 22q27 12 49 30l121 -208q-39 -27 -84 -50q-41 -18 -93 -33.5t-112 -15.5q-59 0 -112.5 15.5t-91.5 33.5q-47 23 -84 50z" />
<glyph d="M211 1231v377h287v-377h-287z" />
<glyph d="M123 1411q0 47 18.5 89t50 73t73.5 49t89 18q49 0 92 -18t74 -49t49.5 -73t18.5 -89q0 -49 -18.5 -92t-49.5 -75t-74 -50t-92 -18q-47 0 -89 18t-73.5 50t-50 75t-18.5 92zM287 1409q0 -29 19.5 -48.5t47.5 -19.5q29 0 48.5 19.5t19.5 48.5t-19.5 48.5t-48.5 19.5 t-48 -19.5t-19 -48.5z" />
<glyph unicode="&#xa;" d="M10 1337l228 314l165 -160l-256 -277zM385 1337l227 314l166 -160l-256 -277z" />
<glyph d="M186 -8l203 69l166 -270l-231 -129z" />
<glyph d="M70 1409l112 188l189 -86l188 86l111 -188l-299 -170z" />
<glyph unicode="&#xd;" horiz-adv-x="299" />
<glyph horiz-adv-x="956" d="M51 0l598 1581h256l-598 -1581h-256z" />
<glyph horiz-adv-x="972" d="M31 801v256h82v65q0 154 48 246t120.5 141.5t154.5 64.5t150 15q41 0 77.5 -4t63.5 -8q31 -6 55 -10v-232q-35 10 -77.5 15.5t-96.5 5.5q-111 0 -160 -53.5t-49 -180.5v-65h482v-1057h-287v801h-195v-801h-286v801h-82z" />
<glyph horiz-adv-x="1024" d="M31 801v256h82v65q0 102 24.5 177t64.5 127.5t89 84t99 49t95 23.5t76 6q121 0 208 -24.5t163 -71.5v-1493h-287v1343q-16 4 -37.5 8.5t-44.5 4.5q-76 0 -120 -53.5t-44 -180.5v-65h123v-256h-123v-801h-286v801h-82z" />
<glyph horiz-adv-x="739" d="M-37 561l135 70v950h308v-793l131 68l90 -176l-221 -115v-309h313v-256h-621v408l-45 -23z" />
<glyph horiz-adv-x="471" d="M-37 561l129 62v958h287v-819l43 20l90 -176l-133 -63v-543h-287v403l-39 -18z" />
<glyph horiz-adv-x="819" d="M31 0l315 1325h-283v256h678l-315 -1325h322v-256h-717zM115 1860l112 188l189 -86l188 86l111 -188l-299 -170z" />
<glyph horiz-adv-x="669" d="M14 0l240 801h-225v256h600l-240 -801h248v-256h-623zM35 1329l112 188l189 -86l188 86l111 -188l-299 -170z" />
<glyph unicode=" "  horiz-adv-x="299" />
<glyph unicode="&#x09;" horiz-adv-x="299" />
<glyph unicode="&#xa0;" horiz-adv-x="299" />
<glyph unicode="!" horiz-adv-x="552" d="M170 1581h348l-39 -1018h-270zM209 0v377h270v-377h-270z" />
<glyph unicode="&#x22;" horiz-adv-x="751" d="M51 1075v506h230v-506h-230zM471 1075v506h229v-506h-229z" />
<glyph unicode="#" horiz-adv-x="815" d="M12 451v188h109l22 262h-82v189h99l43 491h205l-43 -491h139l43 491h205l-43 -491h102v-189h-119l-22 -262h92v-188h-111l-39 -451h-204l41 451h-142l-39 -451h-205l41 451h-92zM326 639h139l22 262h-139z" />
<glyph unicode="$" horiz-adv-x="755" d="M16 289l115 229q37 -14 80 -14q37 0 61.5 22.5t24.5 57.5q0 53 -45 90q-57 45 -96 84t-62.5 76.5t-34 78.5t-10.5 93q0 92 44 164.5t118 113.5v297h219v-254q45 0 86 -10t76 -23l-109 -217q-29 12 -65 13q-29 0 -48.5 -19.5t-19.5 -44.5q0 -23 14.5 -46.5t67.5 -57.5 q86 -57 134 -128t48 -190q0 -104 -49 -185t-135 -124v-295h-219v252q-55 0 -104.5 10t-90.5 27z" />
<glyph unicode="%" horiz-adv-x="1576" d="M41 1190q0 131 36 210t85 122t101 56t87 13t87 -13t101.5 -56t85 -122t35.5 -210q0 -133 -35.5 -213t-85 -123t-101.5 -56.5t-87 -13.5t-87 13.5t-101 56.5t-85 123t-36 213zM287 1190q0 -117 18.5 -166t44.5 -49q27 0 45.5 49t18.5 166t-18.5 163t-45.5 46t-45 -46 t-18 -163zM362 0l599 1581h256l-599 -1581h-256zM918 395q0 131 35.5 210t84.5 122t101.5 56.5t87.5 13.5t87 -13.5t101 -56.5t85 -122t36 -210q0 -133 -36 -213t-85 -123t-101 -56t-87 -13t-87.5 13t-101.5 56t-84.5 123t-35.5 213zM1163 395q0 -117 18.5 -166t45.5 -49 t45 49t18 166t-18.5 163t-44.5 46q-27 0 -45.5 -46t-18.5 -163z" />
<glyph unicode="&#x26;" horiz-adv-x="1085" d="M51 506q0 82 18.5 150.5t47 120.5t60.5 88t61 55q-49 29 -96.5 99.5t-47.5 182.5q0 111 36 185.5t96.5 119.5t139 64.5t164.5 19.5q35 0 80 -5t70 -9v-236q-33 8 -62.5 12.5t-72.5 4.5q-20 0 -48 -7.5t-53.5 -24.5t-44 -48t-18.5 -76q0 -51 16.5 -83t39 -50t43 -24.5 t30.5 -6.5v-243q-18 0 -44 -17.5t-49.5 -53.5t-41 -90t-17.5 -128t20.5 -124t51.5 -81t66.5 -44t66.5 -13q23 0 51.5 4t47.5 20v219h-82v256h464v-256h-114v-393q-74 -47 -157 -75.5t-200 -28.5q-80 0 -171 23.5t-169.5 83t-130 158.5t-51.5 251z" />
<glyph unicode="'" horiz-adv-x="331" d="M51 1075v506h230v-506h-230z" />
<glyph unicode="(" horiz-adv-x="559" d="M61 614q0 213 31 390.5t70 306.5q45 150 102 270h254q-43 -133 -76 -291q-29 -135 -51 -309t-22 -367t22.5 -366.5t50.5 -308.5q33 -158 76 -291h-254q-57 121 -102 270q-39 129 -70 305t-31 391z" />
<glyph unicode=")" horiz-adv-x="559" d="M41 -352q41 133 74 291q29 135 52 309t23 366q0 193 -23.5 367t-51.5 309q-33 158 -74 291h254q55 -121 100 -270q39 -129 71 -306.5t32 -390.5q0 -215 -32 -391t-71 -305q-45 -150 -100 -270h-254z" />
<glyph unicode="*" horiz-adv-x="786" d="M20 1278l130 231l139 -88l16 181l262 -52l-41 -159l176 41l33 -265l-166 -12l95 -156l-242 -110l-62 151l-118 -135l-181 195l127 106z" />
<glyph unicode="+" horiz-adv-x="747" d="M92 487v256h152v234h256v-234h155v-256h-155v-233h-256v233h-152z" />
<glyph unicode="," horiz-adv-x="471" d="M92 -350v727l311 -62l-129 -665h-182z" />
<glyph unicode="-" horiz-adv-x="747" d="M92 487v256h563v-256h-563z" />
<glyph unicode="." horiz-adv-x="471" d="M92 0v377h287v-377h-287z" />
<glyph unicode="/" horiz-adv-x="782" d="M20 0l424 1581h318l-424 -1581h-318z" />
<glyph unicode="0" horiz-adv-x="962" d="M72 791q0 254 33.5 411.5t91 243.5t131 115.5t153.5 29.5t154 -29.5t131 -115.5t91 -243.5t34 -411.5q0 -256 -34 -413t-91 -243t-131 -115.5t-154 -29.5t-153.5 29.5t-131 115.5t-91 243t-33.5 413zM379 791q0 -154 7 -258.5t19.5 -168t32 -91t43.5 -27.5 q25 0 44.5 27.5t31.5 91t19.5 168t7.5 258.5t-7.5 258t-19.5 167.5t-31.5 91t-44.5 27.5t-44 -27.5t-31.5 -91t-19.5 -168t-7 -257.5z" />
<glyph unicode="1" horiz-adv-x="591" d="M80 1325l41 256h336v-1581h-287v1315z" />
<glyph unicode="2" horiz-adv-x="708" d="M10 1534q25 16 62 29q31 10 74.5 19t99.5 9q94 0 168.5 -32.5t126 -88t79 -128t27.5 -152.5q0 -45 -6 -91t-23.5 -102.5t-49 -127t-85.5 -164.5q-47 -82 -74.5 -144.5t-43 -114t-20.5 -97.5t-5 -93h305v-256h-592q-23 225 15 426t145 397q45 86 73.5 143.5t43 100.5 t19.5 77t5 68q0 63 -35.5 95t-80.5 32q-29 0 -50.5 -5t-37.5 -9q-18 -8 -31 -14z" />
<glyph unicode="3" horiz-adv-x="729" d="M51 4v254q23 -6 46.5 -9t54.5 -3q37 0 74.5 15t70.5 46t53.5 78t20.5 113q0 72 -22.5 123t-58.5 82.5t-82 47t-93 15.5l61 233q55 0 101.5 45.5t46.5 135.5q0 84 -51.5 125t-120.5 41q-29 0 -53.5 -4.5t-47.5 -10.5v246q49 14 119 14q96 0 179 -23.5t143.5 -73.5 t94.5 -131t34 -196q0 -51 -13.5 -97t-34 -83t-45 -64.5t-49.5 -41.5q27 -14 61.5 -44t65.5 -77t51.5 -111.5t20.5 -150.5q0 -141 -45 -238.5t-117 -158t-163 -86t-185 -25.5q-27 0 -60.5 4t-56.5 10z" />
<glyph unicode="4" horiz-adv-x="843" d="M25 406l159 1175h281l-121 -919h107v200h280v-200h82v-256h-82v-406h-280v406h-426z" />
<glyph unicode="5" d="M66 2v252q20 -4 42.5 -6t49.5 -2q35 0 73.5 13t71.5 47t54.5 93.5t21.5 153.5q0 158 -84 233.5t-217 75.5v719h547v-256h-248v-260q37 -6 89 -35t100 -87t83 -150.5t35 -223.5q0 -162 -42 -272.5t-111.5 -179t-162 -98t-192.5 -29.5q-47 0 -78 6q-18 2 -32 6z" />
<glyph unicode="6" horiz-adv-x="890" d="M61 676q0 223 28 377.5t73 257t102.5 159t117.5 83t116.5 32.5t101.5 6q29 0 51.5 -2t38.5 -6q20 -4 37 -6v-252q-29 6 -52.5 9t-60.5 3q-53 0 -92 -24.5t-65.5 -64.5t-42 -90t-21.5 -103q27 12 58 12q61 0 129.5 -20.5t126 -79t95.5 -160.5t38 -266q0 -172 -38 -279.5 t-96.5 -168t-127 -82t-129.5 -21.5t-130 25.5t-126.5 100t-94.5 209t-37 351.5zM381 700q0 -141 4 -230t13.5 -138t22.5 -67.5t32 -18.5q18 0 33.5 13t26.5 47t17.5 89.5t6.5 139.5t-7.5 137t-19.5 83.5t-27.5 43t-33.5 12.5q-39 0 -66 -45q-2 -16 -2 -31.5v-34.5z" />
<glyph unicode="7" horiz-adv-x="681" d="M0 1325v256h647l-213 -1581h-307l186 1325h-313z" />
<glyph unicode="8" horiz-adv-x="880" d="M53 500q0 143 48.5 236t113.5 143q-20 16 -42.5 41.5t-42 63.5t-32 88t-12.5 116q0 113 32 190.5t82 124.5t113.5 67.5t126.5 20.5q61 0 124 -20.5t114 -67.5t83 -125t32 -190q0 -66 -12.5 -116t-32 -88t-42 -63.5t-40.5 -41.5q66 -47 113.5 -141.5t47.5 -237.5 q0 -137 -32.5 -234.5t-86 -159t-123 -89t-145.5 -27.5q-78 0 -147.5 27.5t-122.5 89t-85 158.5t-32 235zM360 487q0 -113 23 -177t57 -64q35 0 57.5 64t22.5 177t-22.5 177.5t-57.5 64.5t-57.5 -64.5t-22.5 -177.5zM373 1192q0 -86 19.5 -130t47.5 -44q29 0 47.5 44 t18.5 130t-18.5 130t-47.5 44t-48 -44t-19 -130z" />
<glyph unicode="9" horiz-adv-x="890" d="M51 1040q0 172 38 279.5t96.5 168t127 82t129.5 21.5t130 -25.5t126.5 -100t94 -209t36.5 -351.5q0 -223 -27.5 -377.5t-72.5 -257t-102.5 -159t-117.5 -83t-117.5 -32.5t-100.5 -6q-59 0 -92 6q-20 4 -35 8v252q29 -6 52.5 -9t59.5 -3q53 0 92.5 24.5t66 64.5t42 90 t21.5 103q-29 -12 -58 -12q-61 0 -129.5 20.5t-126 79t-95.5 161t-38 265.5zM354 1047q0 -84 7.5 -137.5t19.5 -84t27.5 -43t33.5 -12.5q39 0 66 45q2 16 2 32v34q0 141 -4 230t-13.5 138t-22.5 67.5t-32 18.5q-18 0 -33.5 -13t-26.5 -47t-17.5 -89.5t-6.5 -138.5z" />
<glyph unicode=":" horiz-adv-x="503" d="M113 0v377h286v-377h-286zM113 680v377h286v-377h-286z" />
<glyph unicode=";" horiz-adv-x="503" d="M113 -350v727l311 -62l-129 -665h-182zM113 680v377h286v-377h-286z" />
<glyph unicode="&#x3c;" horiz-adv-x="614" d="M72 608l334 334l147 -143l-170 -191l170 -190l-147 -144z" />
<glyph unicode="=" horiz-adv-x="747" d="M92 283v225h563v-225h-563zM92 723v225h563v-225h-563z" />
<glyph unicode="&#x3e;" horiz-adv-x="614" d="M61 418l170 190l-170 191l148 143l334 -334l-334 -334z" />
<glyph unicode="?" horiz-adv-x="749" d="M51 1540q23 14 58 25q29 10 71.5 18t100.5 8q88 0 166.5 -24.5t138 -75.5t93.5 -129t34 -182q0 -47 -8.5 -88t-25.5 -84t-46 -91.5t-70 -109.5q-27 -39 -43 -77t-24.5 -70.5t-10.5 -57t-2 -39.5h-270q-6 76 5 168t73 182q51 72 75.5 137.5t24.5 133.5q0 49 -30.5 89 t-96.5 40q-29 0 -48 -5t-34 -12l-28 -14zM213 0v377h270v-377h-270z" />
<glyph unicode="@" horiz-adv-x="1050" d="M61 791q0 270 42 429.5t105.5 241.5t140.5 105.5t145 23.5q63 0 139 -24.5t139.5 -107.5t106.5 -241.5t43 -426.5q0 -100 -25 -170t-64.5 -113t-89 -61.5t-96.5 -18.5t-94 18.5t-84 61.5t-59.5 112.5t-22.5 170.5q0 111 24.5 180t58.5 107t68.5 52.5t53.5 14.5q16 0 18 1 t15 -1q-20 117 -52 170t-79 53q-29 0 -58.5 -23.5t-52.5 -88t-37 -176t-14 -289.5q0 -180 15 -293t38 -176.5t51.5 -86t57.5 -22.5q70 0 100 106l256 -57q-31 -86 -75 -140t-92 -83t-97 -39t-92 -10q-68 0 -145 23.5t-140.5 105.5t-105.5 241.5t-42 430.5zM608 786 q0 -82 10.5 -118.5t28.5 -36.5t28.5 36.5t10.5 118.5t-10 119t-29 37q-18 0 -28.5 -37t-10.5 -119z" />
<glyph unicode="A" horiz-adv-x="845" d="M10 0l238 1581h350l238 -1581h-279l-33 256h-205l-32 -256h-277zM350 512h139l-67 604z" />
<glyph unicode="B" horiz-adv-x="946" d="M98 0v1581h246q106 0 196.5 -27.5t157 -79t104.5 -126t38 -166.5q0 -59 -11.5 -104.5t-29 -79t-36 -56t-30.5 -35.5q20 -16 48 -50t51.5 -83t40 -111.5t16.5 -136.5q0 -158 -48 -260t-125 -161.5t-175.5 -82t-196.5 -22.5h-246zM406 256q78 0 123.5 65.5t45.5 204.5 q0 51 -11 94.5t-26.5 76t-33 55t-27.5 30.5q-14 -4 -36.5 -6t-34.5 -2v-518zM406 1040q59 0 95 40.5t36 103.5q0 59 -34 100t-97 41v-285z" />
<glyph unicode="C" horiz-adv-x="731" d="M61 791q0 184 24 314t63.5 219t91 142.5t107.5 81t112.5 35.5t107.5 8q25 0 46.5 -2t37.5 -6q18 -4 35 -6v-250q-23 4 -41 6t-45 2q-31 0 -71 -14t-75.5 -68.5t-60 -163t-24.5 -298.5t24.5 -299t60 -163.5t75.5 -68.5t71 -14q27 0 45.5 2t40.5 6v-250q-16 -4 -35 -8 q-35 -6 -84 -6q-51 0 -107.5 8t-112.5 35.5t-107.5 81t-91 142.5t-63.5 219t-24 315z" />
<glyph unicode="D" horiz-adv-x="946" d="M98 0v1581h215q117 0 221.5 -30.5t182.5 -116.5t123 -240.5t45 -402.5t-45 -403t-123 -241t-182.5 -116.5t-221.5 -30.5h-215zM406 256q37 0 67.5 26.5t54 89t37 165t13.5 254.5t-13.5 254t-37 164.5t-54.5 89t-67 26.5v-1069z" />
<glyph unicode="E" horiz-adv-x="784" d="M16 487v256h82v838h641v-256h-333v-582h270v-256h-270v-231h333v-256h-641v487h-82z" />
<glyph unicode="F" horiz-adv-x="763" d="M16 487v256h82v838h641v-256h-333v-582h270v-256h-270v-487h-308v487h-82z" />
<glyph unicode="G" horiz-adv-x="989" d="M61 791q0 256 51.5 413.5t127 243.5t164 114.5t163.5 28.5q41 0 73 -3t56 -7l52 -10v-248q-61 12 -132 12q-31 0 -72.5 -16t-80.5 -72.5t-66.5 -164t-27.5 -291.5q0 -178 22.5 -286t56 -165t72.5 -75.5t74 -18.5h10q4 0 6 2v254q0 51 -7 81.5t-18.5 47t-24.5 20.5t-23 4 h-23.5t-19.5 -2v250q14 2 30 4q14 2 30.5 3t37.5 1q68 0 123 -25.5t96 -80.5t63.5 -139t22.5 -201v-389q-41 -29 -120 -57.5t-191 -28.5q-78 0 -169 27.5t-170 112.5t-132.5 242.5t-53.5 418.5z" />
<glyph unicode="H" horiz-adv-x="1005" d="M16 487v256h82v838h308v-838h194v838h307v-1581h-307v487h-194v-487h-308v487h-82z" />
<glyph unicode="I" horiz-adv-x="503" d="M98 0v1581h308v-1581h-308z" />
<glyph unicode="J" horiz-adv-x="645" d="M10 0v250q12 -2 24.5 -3t31.5 -1q43 0 74.5 23.5t54 85t34 167t11.5 269.5v790h307v-790q0 -231 -29 -385t-86 -246t-141 -131t-195 -39q-14 0 -29.5 1t-27.5 3q-14 2 -29 6z" />
<glyph unicode="K" horiz-adv-x="907" d="M98 0v1581h308v-520l184 520h297l-228 -629l238 -952h-317l-174 715v-715h-308z" />
<glyph unicode="L" horiz-adv-x="739" d="M98 0v1581h308v-1325h313v-256h-621z" />
<glyph unicode="M" horiz-adv-x="1155" d="M98 0v1581h144l336 -813l335 813h144v-1581h-293v651l-125 -307h-123l-125 307v-651h-293z" />
<glyph unicode="N" horiz-adv-x="1030" d="M98 0v1581h144l397 -770v770h293v-1581h-144l-397 770v-770h-293z" />
<glyph unicode="O" horiz-adv-x="983" d="M61 791q0 242 35 397t93.5 245.5t136 124t166.5 33.5q88 0 165.5 -33.5t136 -124t93.5 -245.5t35 -397q0 -244 -35 -398.5t-93.5 -245t-136 -124t-165.5 -33.5t-166 33.5t-136.5 124t-93.5 245t-35 398.5zM369 791q0 -164 10 -269.5t26.5 -167t39 -85t47.5 -23.5t47 23.5 t38.5 85t26.5 167t10 269.5t-10 269t-26.5 166.5t-39 85t-46.5 23.5q-25 0 -47.5 -23.5t-39 -85t-26.5 -167t-10 -268.5z" />
<glyph unicode="P" horiz-adv-x="897" d="M98 0v1581h236q119 0 219 -34t172 -98.5t112 -156.5t40 -211t-30 -210t-76 -158.5t-102.5 -113.5t-108.5 -74.5t-94 -44t-60 -19.5v-461h-308zM406 758q14 0 41.5 16.5t55 55t47 101t19.5 154.5q0 123 -40 179.5t-123 56.5v-563z" />
<glyph unicode="Q" horiz-adv-x="991" d="M61 791q0 229 35 382.5t94.5 246.5t138.5 132t167 39t166.5 -39t138 -132t94.5 -246.5t35 -382.5q0 -180 -22.5 -313.5t-61.5 -226.5t-92.5 -149.5t-116.5 -83.5q6 -70 35.5 -112.5t85.5 -42.5q10 0 28.5 3t30.5 3v-234q-8 -2 -20 -4q-10 -2 -25.5 -2h-36.5 q-57 0 -121.5 17.5t-121 60.5t-95.5 118t-47 191q-61 29 -114.5 86.5t-92.5 150.5t-60.5 225t-21.5 313zM373 791q0 -164 10 -269.5t26.5 -167t39 -85t47.5 -23.5t47 23.5t38.5 85t26.5 167t10 269.5t-10 269t-26.5 166.5t-39 85t-46.5 23.5q-25 0 -47.5 -23.5t-39 -85 t-26.5 -167t-10 -268.5z" />
<glyph unicode="R" horiz-adv-x="927" d="M92 0v1581h242q111 0 208 -29.5t169.5 -90t115.5 -153.5t43 -218q0 -115 -23.5 -200t-57 -144.5t-70.5 -95.5t-64 -54q35 -41 79 -107.5t75 -144.5q35 -90 45 -176t10 -168h-307q0 59 -8 118.5t-33 121.5q-27 66 -58.5 112.5t-58.5 71.5v-424h-307zM399 758q18 0 46 21.5 t53.5 63.5t45 103t19.5 141q0 113 -43 173.5t-121 60.5v-563z" />
<glyph unicode="S" horiz-adv-x="749" d="M16 53l113 232q27 -16 63.5 -25.5t77.5 -9.5q59 0 98.5 37t39.5 100q0 47 -12.5 91t-36 87t-56.5 89t-76 100q-51 66 -87 121t-59.5 107t-33.5 102.5t-10 105.5q0 186 107.5 293.5t293.5 107.5q59 0 112.5 -13t88.5 -34l-109 -221q-23 8 -43 12t-49 4q-49 0 -77.5 -30.5 t-28.5 -75.5q0 -39 11 -75t34.5 -75t56.5 -83t76 -99q53 -68 91 -125t61.5 -112.5t35 -112.5t11.5 -123q0 -106 -34 -188t-92.5 -137.5t-138 -84t-174.5 -28.5q-78 0 -139 15t-115 48z" />
<glyph unicode="T" horiz-adv-x="800" d="M10 1325v256h781v-256h-238v-1325h-307v1325h-236z" />
<glyph unicode="U" horiz-adv-x="1005" d="M98 453v1128h308v-1175q0 -72 27.5 -116t68.5 -44t69.5 44t28.5 116v1175h307v-1128q0 -117 -34.5 -203t-92 -144.5t-130 -87t-148.5 -28.5t-148.5 28.5t-129 87t-91.5 144.5t-35 203z" />
<glyph unicode="V" horiz-adv-x="843" d="M10 1581h287l125 -1067l125 1067h287l-238 -1581h-348z" />
<glyph unicode="W" horiz-adv-x="1441" d="M10 1581h287l125 -1067l125 1067h348l125 -1067l125 1067h287l-238 -1581h-348l-125 897l-125 -897h-348z" />
<glyph unicode="X" horiz-adv-x="937" d="M31 0l235 803l-227 778h307l123 -432l123 432h307l-227 -778l235 -803h-307l-131 457l-131 -457h-307z" />
<glyph unicode="Y" horiz-adv-x="921" d="M10 1581h297l154 -586l153 586h297l-297 -948v-633h-307v633z" />
<glyph unicode="Z" horiz-adv-x="819" d="M31 0l315 1325h-283v256h678l-315 -1325h322v-256h-717z" />
<glyph unicode="[" horiz-adv-x="675" d="M92 -338v1919h512v-256h-205v-1407h205v-256h-512z" />
<glyph unicode="\" horiz-adv-x="782" d="M20 1581h318l424 -1581h-318z" />
<glyph unicode="]" horiz-adv-x="675" d="M92 -82h205v1407h-205v256h512v-1919h-512v256z" />
<glyph unicode="^" horiz-adv-x="749" d="M41 1247l334 334l334 -334l-144 -147l-190 170l-191 -170z" />
<glyph unicode="_" horiz-adv-x="716" d="M-10 -147h731v-256h-731v256z" />
<glyph unicode="`" d="M131 1460l184 191l295 -295l-143 -142z" />
<glyph unicode="a" horiz-adv-x="765" d="M31 336q0 117 45 194.5t106.5 127t125 71t100.5 25.5v6q0 35 -23 54.5t-70 19.5t-79.5 -5.5t-75.5 -15.5v231q20 4 49 11q23 4 57.5 8t75.5 4q70 0 134.5 -16.5t112.5 -60.5t76.5 -119.5t28.5 -194.5v-676h-266v78l-84 -84q-10 -4 -17.5 -4h-13.5q-53 0 -103 24.5 t-90 68.5t-64.5 108.5t-24.5 144.5zM299 336q0 -53 18.5 -79t38.5 -26q23 0 35 15.5t17 32.5v241q-10 0 -29 -12t-36 -34.5t-30.5 -57.5t-13.5 -80z" />
<glyph unicode="b" horiz-adv-x="870" d="M92 0v1581h287v-526q31 -4 76 -16.5t93 -40t97 -70.5t87 -106.5t62.5 -150.5t24.5 -200q0 -127 -29.5 -217t-78.5 -149.5t-115 -87t-139 -27.5h-11q-12 0 -16 2l-68 69v-61h-270zM379 281q6 -18 23.5 -34t35.5 -16q37 0 65.5 60t28.5 158q0 92 -14 156.5t-36.5 106.5 t-50.5 63.5t-52 25.5v-520z" />
<glyph unicode="c" horiz-adv-x="643" d="M51 528q0 123 25.5 210t66.5 147.5t91.5 96.5t97.5 54.5t87 24.5t60 6q29 0 51.5 -1t38.5 -3q18 -2 33 -4v-232q-16 4 -31.5 5.5t-42.5 1.5q-29 0 -61.5 -15.5t-61 -50.5t-48 -93.5t-19.5 -146.5t19.5 -146t48 -94t61.5 -50.5t61 -14.5q27 0 43.5 1t34.5 5v-231 q-14 -2 -35 -4q-16 -2 -39.5 -3t-52.5 -1q-20 0 -60 6t-87 24.5t-97.5 54.5t-91.5 96t-66.5 147.5t-25.5 209.5z" />
<glyph unicode="d" horiz-adv-x="870" d="M51 471q0 170 51.5 280.5t123 176t145 94.5t121.5 33v526h286v-1581h-270v61l-68 -69q-6 -2 -16 -2h-10q-74 0 -139.5 27.5t-114.5 87t-79 149.5t-30 217zM338 449q0 -98 28.5 -158t65.5 -60q18 0 35.5 15.5t24.5 34.5v520q-25 -4 -52.5 -25.5t-50 -63.5t-37 -106.5 t-14.5 -156.5z" />
<glyph unicode="e" horiz-adv-x="743" d="M51 530q0 168 35 272.5t87 163t115.5 80t119.5 21.5q51 0 104 -18.5t98 -58.5t74 -102.5t29 -152.5q0 -106 -45 -182t-104.5 -124t-120 -71.5t-91.5 -25.5q4 -41 36 -75t79 -34q53 0 92 8v-231q-47 -10 -117 -10q-61 0 -129.5 20.5t-127 80t-96.5 164.5t-38 275zM336 599 q0 -17 2 -34q12 0 31.5 13.5t38 38t32 59.5t13.5 80q0 41 -11.5 63.5t-38.5 22.5q-35 0 -51 -57.5t-16 -145.5v-40z" />
<glyph unicode="f" horiz-adv-x="555" d="M31 801v256h82v65q0 102 20.5 177t54 127.5t75.5 84t85 49t82 23.5t68 6q16 0 31.5 -1t25.5 -3q12 -2 25 -2v-231q-12 2 -22.5 3t-25.5 1q-61 0 -97 -53.5t-36 -180.5v-65h160v-256h-160v-801h-286v801h-82z" />
<glyph unicode="g" horiz-adv-x="849" d="M51 586q0 125 30 216t79 150.5t114.5 87t139.5 27.5h10q4 0 8 -1t8 -1l68 -70v62h270v-955q0 -137 -35.5 -227t-91 -142t-124 -72.5t-134.5 -20.5h-26.5t-26.5 2q-14 2 -29 4v231q8 -2 25.5 -4t34.5 -2q68 0 94.5 35t26.5 65v31q-47 4 -121 32.5t-145.5 94.5t-123 176.5 t-51.5 280.5zM338 608q0 -92 14.5 -156.5t37 -106.5t50 -63.5t52.5 -25.5v520q-6 18 -23.5 33.5t-36.5 15.5q-37 0 -65.5 -59t-28.5 -158z" />
<glyph unicode="h" horiz-adv-x="890" d="M92 0v1581h270v-582l66 66q8 2 29 2q168 0 266 -108.5t98 -340.5v-618h-286v680q0 57 -21.5 94t-56.5 37t-56.5 -37t-21.5 -94v-680h-287z" />
<glyph unicode="i" horiz-adv-x="471" d="M92 0v1057h287v-1057h-287zM100 1204v377h271v-377h-271z" />
<glyph unicode="j" horiz-adv-x="471" d="M-88 -123q10 -2 23.5 -3t27.5 -1q51 0 90 50t39 155v979h287v-938q0 -158 -45 -252t-106.5 -145.5t-127 -66.5t-106.5 -15h-31.5t-25.5 2q-12 2 -25 4v231zM100 1204v377h271v-377h-271z" />
<glyph unicode="k" horiz-adv-x="843" d="M82 0v1581h287v-889l172 365h282l-209 -434l209 -623h-299l-155 487v-487h-287z" />
<glyph unicode="l" horiz-adv-x="471" d="M92 0v1581h287v-1581h-287z" />
<glyph unicode="m" horiz-adv-x="1310" d="M72 0v1057h266v-62l70 70q8 2 28 2q57 0 115.5 -18.5t105.5 -55.5q49 43 104.5 58.5t117.5 15.5q166 0 265 -108.5t99 -340.5v-618h-287v680q0 57 -21.5 94t-55.5 37q-35 0 -56.5 -37t-21.5 -94v-680h-287v680q0 57 -21.5 94t-56.5 37t-56.5 -37t-21.5 -94v-680h-286z " />
<glyph unicode="n" horiz-adv-x="870" d="M72 0v1057h266v-62l70 70q8 2 28 2q168 0 266.5 -108.5t98.5 -340.5v-618h-287v680q0 57 -21.5 94t-56.5 37t-56.5 -37t-21.5 -94v-680h-286z" />
<glyph unicode="o" horiz-adv-x="843" d="M51 528q0 176 41 283t98.5 163t121 74.5t110.5 18.5q45 0 109.5 -18.5t122 -74.5t98.5 -163t41 -283t-41 -282.5t-98.5 -162.5t-122 -74.5t-109.5 -18.5q-47 0 -110.5 18.5t-121 74.5t-98.5 162.5t-41 282.5zM338 528q0 -154 24.5 -218t59.5 -64t59.5 64t24.5 218 t-24.5 218.5t-59.5 64.5t-59.5 -64.5t-24.5 -218.5z" />
<glyph unicode="p" horiz-adv-x="851" d="M72 -350v1407h270v-62l68 70q4 0 8 1t8 1h10q74 0 139.5 -27.5t114.5 -87t79 -150.5t30 -216q0 -113 -24.5 -200t-62.5 -150.5t-87.5 -106.5t-97.5 -70.5t-93 -41t-76 -15.5v-352h-286zM358 256q25 4 52.5 25.5t50 63.5t37 106.5t14.5 156.5q0 98 -28.5 157.5t-65.5 59.5 q-18 0 -35.5 -15t-24.5 -34v-520z" />
<glyph unicode="q" horiz-adv-x="849" d="M51 586q0 125 30 216t79 150.5t114.5 87t139.5 27.5h10q4 0 8 -1t8 -1l68 -70v62h270v-1407h-286v352q-47 4 -121 32.5t-145.5 94.5t-123 176.5t-51.5 280.5zM338 608q0 -92 14.5 -156.5t37 -106.5t50 -63.5t52.5 -25.5v520q-6 18 -23.5 33.5t-36.5 15.5q-37 0 -65.5 -59 t-28.5 -158z" />
<glyph unicode="r" horiz-adv-x="571" d="M72 0v1057h270v-103q6 10 21.5 27.5t40 34t58.5 29t77 12.5h26v-256h-18q-35 0 -69 -13.5t-60.5 -41t-43 -68.5t-16.5 -96v-582h-286z" />
<glyph unicode="s" horiz-adv-x="632" d="M16 27l115 229q37 -14 80 -14q37 0 61.5 22.5t24.5 57.5q0 53 -45 90q-57 45 -96 84t-62.5 76.5t-34 78.5t-10.5 92q0 70 25.5 129.5t72 102.5t109.5 67.5t137 24.5q57 0 107.5 -9t91.5 -26l-109 -217q-29 12 -65 12q-29 0 -48.5 -19.5t-19.5 -43.5q0 -23 14.5 -46.5 t67.5 -58.5q86 -57 134 -127.5t48 -189.5q0 -78 -27.5 -142.5t-76.5 -111.5t-117.5 -72.5t-150.5 -25.5q-131 0 -226 37z" />
<glyph unicode="t" horiz-adv-x="585" d="M20 801v256h82v282h277v-282h168v-256h-158v-363q0 -104 39 -154.5t90 -50.5q14 0 26.5 1.5t24.5 3.5v-232l-24 -4q-10 -2 -25.5 -2h-32.5q-41 0 -106.5 15.5t-126.5 66.5t-106.5 145.5t-45.5 251.5v322h-82z" />
<glyph unicode="u" horiz-adv-x="872" d="M72 438v619h286v-680q0 -57 21.5 -94t56.5 -37t56.5 36.5t21.5 94.5v680h287v-619q0 -115 -28 -199.5t-77 -140t-115.5 -82t-144.5 -26.5t-144.5 26.5t-115.5 82t-76.5 140.5t-27.5 199z" />
<glyph unicode="v" horiz-adv-x="751" d="M10 1057h250l119 -688l119 688h243l-219 -1057h-286z" />
<glyph unicode="w" horiz-adv-x="1230" d="M10 1057h250l119 -688l119 688h241l119 -690l119 690h244l-220 -1057h-268l-119 524l-112 -524h-269z" />
<glyph unicode="x" horiz-adv-x="847" d="M10 0l256 557l-243 500h247l142 -285l131 285h280l-245 -531l260 -526h-252l-156 317l-141 -317h-279z" />
<glyph unicode="y" horiz-adv-x="772" d="M16 1057h250l119 -688l117 688h246l-291 -1407h-279l68 325z" />
<glyph unicode="z" horiz-adv-x="669" d="M14 0l240 801h-225v256h600l-240 -801h248v-256h-623z" />
<glyph unicode="{" horiz-adv-x="614" d="M31 487v254q37 0 59.5 17.5t34.5 47.5t16 68.5t4 81.5v220q0 104 35 181t89.5 126t123 73.5t135.5 24.5h35v-256q-55 0 -82.5 -32.5t-27.5 -90.5v-145q0 -98 -1 -174t-12.5 -130.5t-35 -89t-68.5 -49.5q45 -16 68.5 -50t35 -88t12.5 -130t1 -174v-145q0 -57 27.5 -90 t82.5 -33v-256h-35q-68 0 -136 24.5t-122.5 73.5t-89.5 126t-35 181v219q0 43 -4 82t-16 69t-34.5 47t-59.5 17z" />
<glyph unicode="|" horiz-adv-x="491" d="M92 -350v1931h307v-1931h-307z" />
<glyph unicode="}" horiz-adv-x="614" d="M51 -96q55 0 83 32.5t28 90.5v145q0 98 1 174t12 130t34.5 88t69.5 50q-45 14 -69 49t-35 89.5t-12 130t-1 174.5v145q0 57 -28 90t-83 33v256h35q68 0 136.5 -24.5t122.5 -73.5t89 -126t35 -181v-220q0 -43 4 -81.5t16.5 -68.5t35 -47.5t59.5 -17.5v-254 q-37 0 -59.5 -17t-35 -47t-16.5 -69t-4 -82v-219q0 -104 -35 -181t-89 -126t-122.5 -73.5t-136.5 -24.5h-35v256z" />
<glyph unicode="~" horiz-adv-x="747" d="M49 651q88 111 213 111q39 0 63.5 -7t43 -15.5t39 -15.5t55.5 -7q39 0 72.5 12t52.5 31l123 -174q-47 -55 -102.5 -84t-108.5 -29q-41 0 -65.5 7t-45 14.5t-42 14.5t-58.5 7t-70 -10t-49 -29z" />
<glyph unicode="&#xa1;" horiz-adv-x="552" d="M41 -350l39 1018h270l39 -1018h-348zM80 854v377h270v-377h-270z" />
<glyph unicode="&#xa2;" horiz-adv-x="755" d="M51 791q0 109 21.5 189.5t55.5 139t77 97t86 61.5v303h219v-252q23 0 39 -1t29 -3q14 -2 24 -4v-231q-16 0 -31.5 3t-42.5 3q-29 0 -61.5 -15.5t-61 -50.5t-48 -93t-19.5 -146t19.5 -146.5t48 -94.5t61.5 -50.5t61 -14.5q27 0 43.5 3.5t34.5 3.5v-232q-12 -2 -26 -4 q-12 -2 -30 -3t-40 -1v-252h-219v301q-43 25 -86 62.5t-77 96t-55.5 140.5t-21.5 191z" />
<glyph unicode="&#xa3;" horiz-adv-x="786" d="M27 168q59 35 85.5 94.5t22.5 126.5l-6 98h-98v256h82l-31 449q-8 125 26.5 204t88 122t115 58t106.5 15q59 0 106 -12t78 -29q37 -18 64 -39l-103 -204q-18 12 -44.5 22t-55.5 10q-106 0 -96 -120l32 -476h215v-256h-198l6 -100q4 -41 -7.5 -81t-33.5 -62q35 -10 59 -11 q39 0 73 12.5t52 30.5l123 -174q-47 -55 -102.5 -83.5t-108.5 -28.5q-41 0 -65.5 5t-45 10t-42 10t-58.5 5q-31 0 -64.5 -9t-49.5 -25z" />
<glyph unicode="&#xa4;" horiz-adv-x="860" d="M51 528q0 135 34 235.5t87 168t121.5 101.5t136.5 34t136.5 -34t121.5 -101.5t87 -168t34 -235.5t-34 -235t-87 -168t-121.5 -101.5t-136.5 -33.5t-136.5 33.5t-121.5 101.5t-87 168t-34 235zM143 528q0 -86 12.5 -151.5t32 -113.5t44 -82t49.5 -54q4 16 26.5 78.5 t46.5 134.5q29 82 62 182q-63 27 -117 49q-47 20 -90 38t-59 26q-2 -16 -3.5 -27.5t-2.5 -22t-1 -23.5v-34zM305 952q2 -8 9.5 -29.5t16.5 -51t20 -65.5t22 -71q25 -82 57 -184q35 100 62 182q23 72 44 135.5t27 79.5q-27 18 -59.5 32.5t-73.5 14.5q-45 0 -74.5 -13 t-50.5 -30zM444 522q33 -100 62 -182q12 -35 24.5 -69.5t21.5 -64.5t16 -51.5t12 -29.5q25 23 48 55.5t43.5 81.5t33 114.5t12.5 151.5q0 41 -1 59.5t-5 47.5q-16 -8 -59.5 -25.5t-90.5 -38.5q-53 -23 -117 -49z" />
<glyph unicode="&#xa5;" horiz-adv-x="921" d="M10 1581h297l154 -586l153 586h297l-135 -432h74v-256h-154l-47 -150h201v-256h-236v-487h-307v487h-235v256h200l-47 150h-153v256h73z" />
<glyph unicode="&#xa7;" horiz-adv-x="856" d="M31 1159q0 94 35.5 174t94 137.5t135.5 89t161 31.5q113 0 181.5 -22.5t115.5 -50.5l-113 -218q-27 20 -52.5 27.5t-66.5 7.5q-39 0 -67.5 -36.5t-28.5 -77.5q0 -33 8 -65t27.5 -68.5t55.5 -83t91 -105.5q49 -53 90 -102t69 -104.5t43 -120t15 -150.5q0 -96 -35.5 -175 t-94 -136.5t-136.5 -89t-160 -31.5q-113 0 -181 22.5t-116 50.5l113 218q27 -20 52.5 -27.5t66.5 -7.5q39 0 67.5 36.5t28.5 77.5q0 33 -8 65t-27.5 68.5t-55.5 83t-91 105.5q-49 53 -90 102.5t-69 104.5t-43 119.5t-15 150.5zM207 1165q0 -53 8 -96t27.5 -83t53.5 -83 t83 -96q47 -51 88 -100.5t71.5 -102.5t49 -111.5t18.5 -125.5q0 -31 -7 -68t-30 -70q43 45 62.5 92.5t19.5 100.5t-8 96t-27.5 83t-53.5 83t-83 96q-47 51 -88 100.5t-71.5 102.5t-49 111.5t-18.5 126.5q0 31 7 67.5t30 69.5q-43 -45 -62.5 -92t-19.5 -101z" />
<glyph unicode="&#xa8;" horiz-adv-x="872" d="M150 1274v307h217v-307h-217zM506 1274v307h217v-307h-217z" />
<glyph unicode="&#xa9;" horiz-adv-x="1122" d="M78 528q0 111 36 209.5t100.5 172t153.5 115.5t195 42q104 0 193.5 -42t153 -115.5t99 -172t35.5 -209.5t-35.5 -209t-99 -171.5t-152.5 -115.5t-194 -42q-106 0 -195 42t-153.5 115.5t-100.5 172t-36 208.5zM246 528q0 -88 23.5 -160.5t65.5 -125t100.5 -81t125.5 -28.5 q68 0 126 28.5t100 81t66 125t24 160.5t-24 161t-66 125t-100 81t-126 29t-126 -29t-100 -81t-65.5 -125t-23.5 -161zM381 528q0 104 29.5 164t68.5 90.5t77 38.5t54 8q10 0 17.5 -1t13.5 -1q8 -2 12 -2v-127q-8 2 -22 2t-31.5 -9t-32 -28.5t-23.5 -52t-9 -82.5 q0 -49 9 -81.5t23.5 -52t31.5 -29t32 -9.5q14 0 22 2v-127q-4 -2 -12 -2q-8 -2 -31 -2q-16 0 -54 9.5t-77 40t-68.5 90t-29.5 161.5z" />
<glyph unicode="&#xaa;" horiz-adv-x="645" d="M39 1042q0 88 33.5 146.5t80 95.5t93.5 53.5t76 18.5v6q0 25 -17.5 40t-52.5 15t-59.5 -4t-57.5 -12v176l37 6q18 4 44 6t56 2q53 0 101.5 -12t84.5 -45t57.5 -89t21.5 -145v-509h-199v61l-64 -66q-10 -2 -22 -2q-41 0 -79 17.5t-67.5 51.5t-48 82t-18.5 107zM111 432 v256h442v-256h-442zM240 1042q0 -41 14 -59t29 -18q16 0 25 12t14 22v185q-8 0 -21.5 -9.5t-27 -27t-23.5 -44t-10 -61.5z" />
<glyph unicode="&#xab;" horiz-adv-x="1085" d="M72 608l334 334l147 -143l-170 -191l170 -190l-147 -144zM547 608l334 334l147 -143l-170 -191l170 -190l-147 -144z" />
<glyph unicode="&#xac;" horiz-adv-x="860" d="M51 528q0 135 34 235.5t87 168t121.5 101.5t136.5 34t136.5 -34t121.5 -101.5t87 -168t34 -235.5t-34 -235t-87 -168t-121.5 -101.5t-136.5 -33.5t-136.5 33.5t-121.5 101.5t-87 168t-34 235zM143 528q0 -86 12.5 -151.5t32 -113.5t44 -82t49.5 -54q4 16 26.5 78.5 t46.5 134.5q29 82 62 182q-63 27 -117 49q-47 20 -90 38t-59 26q-2 -16 -3.5 -27.5t-2.5 -22t-1 -23.5v-34zM305 952q2 -8 9.5 -29.5t16.5 -51t20 -65.5t22 -71q25 -82 57 -184q35 100 62 182q23 72 44 135.5t27 79.5q-27 18 -59.5 32.5t-73.5 14.5q-45 0 -74.5 -13 t-50.5 -30zM444 522q33 -100 62 -182q12 -35 24.5 -69.5t21.5 -64.5t16 -51.5t12 -29.5q25 23 48 55.5t43.5 81.5t33 114.5t12.5 151.5q0 41 -1 59.5t-5 47.5q-16 -8 -59.5 -25.5t-90.5 -38.5q-53 -23 -117 -49z" />
<glyph unicode="&#xad;" horiz-adv-x="747" d="M92 487v256h563v-256h-563z" />
<glyph unicode="&#xae;" horiz-adv-x="585" d="M20 1288q0 61 20.5 116.5t56.5 97.5t86 65.5t112 23.5q59 0 108.5 -23.5t85 -65.5t56 -97.5t20.5 -116.5t-20.5 -116.5t-56 -97.5t-85 -65.5t-108.5 -23.5q-61 0 -111.5 23.5t-86.5 65.5t-56.5 97.5t-20.5 116.5zM115 1288q0 -98 50 -159.5t128 -61.5t128 61.5t50 159.5 t-50 159.5t-128 61.5t-128 -61.5t-50 -159.5zM217 1133v321h59q45 0 78 -21.5t33 -68.5q0 -49 -18.5 -73.5t-32.5 -33.5q12 -8 19 -16t20 -29q10 -16 15 -39.5t5 -39.5h-67q0 16 -2 28.5t-13 28.5q-10 16 -18 22.5t-14 10.5v-90h-64zM281 1290q10 4 25.5 19.5t15.5 54.5 q0 33 -41 33v-107z" />
<glyph unicode="&#xaf;" d="M139 1274v256h426v-256h-426z" />
<glyph unicode="&#xb0;" horiz-adv-x="626" d="M51 1333q0 53 20.5 100.5t56.5 82t84 55t103 20.5q53 0 100.5 -20.5t83.5 -55t56 -82t20 -100.5t-20 -100t-56 -82t-83 -55.5t-101 -20.5q-55 0 -103 20.5t-84 55.5t-56.5 82t-20.5 100zM217 1333q0 -41 27.5 -68.5t66.5 -27.5q41 0 68 27.5t27 68.5q0 39 -27 66.5 t-68 27.5q-39 0 -66.5 -27.5t-27.5 -66.5z" />
<glyph unicode="&#xb1;" horiz-adv-x="860" d="M51 528q0 135 34 235.5t87 168t121.5 101.5t136.5 34t136.5 -34t121.5 -101.5t87 -168t34 -235.5t-34 -235t-87 -168t-121.5 -101.5t-136.5 -33.5t-136.5 33.5t-121.5 101.5t-87 168t-34 235zM143 528q0 -86 12.5 -151.5t32 -113.5t44 -82t49.5 -54q4 16 26.5 78.5 t46.5 134.5q29 82 62 182q-63 27 -117 49q-47 20 -90 38t-59 26q-2 -16 -3.5 -27.5t-2.5 -22t-1 -23.5v-34zM305 952q2 -8 9.5 -29.5t16.5 -51t20 -65.5t22 -71q25 -82 57 -184q35 100 62 182q23 72 44 135.5t27 79.5q-27 18 -59.5 32.5t-73.5 14.5q-45 0 -74.5 -13 t-50.5 -30zM444 522q33 -100 62 -182q12 -35 24.5 -69.5t21.5 -64.5t16 -51.5t12 -29.5q25 23 48 55.5t43.5 81.5t33 114.5t12.5 151.5q0 41 -1 59.5t-5 47.5q-16 -8 -59.5 -25.5t-90.5 -38.5q-53 -23 -117 -49z" />
<glyph unicode="&#xb4;" d="M131 1356l295 295l184 -191l-336 -246z" />
<glyph unicode="&#xb5;" horiz-adv-x="860" d="M51 528q0 135 34 235.5t87 168t121.5 101.5t136.5 34t136.5 -34t121.5 -101.5t87 -168t34 -235.5t-34 -235t-87 -168t-121.5 -101.5t-136.5 -33.5t-136.5 33.5t-121.5 101.5t-87 168t-34 235zM143 528q0 -86 12.5 -151.5t32 -113.5t44 -82t49.5 -54q4 16 26.5 78.5 t46.5 134.5q29 82 62 182q-63 27 -117 49q-47 20 -90 38t-59 26q-2 -16 -3.5 -27.5t-2.5 -22t-1 -23.5v-34zM305 952q2 -8 9.5 -29.5t16.5 -51t20 -65.5t22 -71q25 -82 57 -184q35 100 62 182q23 72 44 135.5t27 79.5q-27 18 -59.5 32.5t-73.5 14.5q-45 0 -74.5 -13 t-50.5 -30zM444 522q33 -100 62 -182q12 -35 24.5 -69.5t21.5 -64.5t16 -51.5t12 -29.5q25 23 48 55.5t43.5 81.5t33 114.5t12.5 151.5q0 41 -1 59.5t-5 47.5q-16 -8 -59.5 -25.5t-90.5 -38.5q-53 -23 -117 -49z" />
<glyph unicode="&#xb6;" horiz-adv-x="882" d="M51 1112q0 166 41 260t96.5 140.5t110.5 57.5t86 11h446v-184h-67v-1600h-184v1600h-113v-1600h-184v809q-31 14 -72 52t-76 101.5t-59.5 150.5t-24.5 202z" />
<glyph unicode="&#xb7;" horiz-adv-x="471" d="M92 688v377h287v-377h-287z" />
<glyph unicode="&#xb8;" d="M133 -209l166 270l203 -69l-137 -330z" />
<glyph unicode="&#xba;" horiz-adv-x="645" d="M45 1186q0 131 30.5 210t74 122t91.5 56t83 13t83 -13t91 -56t73.5 -122t30.5 -210q0 -133 -30.5 -213t-73.5 -123t-91.5 -56.5t-82.5 -13.5q-35 0 -83 13.5t-91.5 56.5t-74 123t-30.5 213zM104 432v256h443v-256h-443zM260 1186q0 -117 18.5 -166t45.5 -49t45 49t18 166 t-18.5 163t-44.5 46q-27 0 -45.5 -46t-18.5 -163z" />
<glyph unicode="&#xbb;" horiz-adv-x="1085" d="M61 418l170 190l-170 191l148 143l334 -334l-334 -334zM547 418l170 190l-170 191l147 143l334 -334l-334 -334z" />
<glyph unicode="&#xbf;" horiz-adv-x="749" d="M33 51q0 47 8 88t25.5 84t46 91t69.5 110q27 39 43.5 77t24.5 70.5t10 57t2 39.5h270q6 -76 -5 -168t-72 -183q-51 -72 -76 -137t-25 -133q0 -49 31 -89t96 -40q49 0 82 14q16 8 29 17l102 -258q-23 -16 -57 -27q-29 -10 -72 -17t-100 -7q-90 0 -168 24.5t-137.5 75.5 t-93 129t-33.5 182zM262 854v377h270v-377h-270z" />
<glyph unicode="&#xc0;" horiz-adv-x="845" d="M10 0l238 1581h350l238 -1581h-279l-33 256h-205l-32 -256h-277zM180 1894l184 191l295 -295l-143 -142zM350 512h139l-67 604z" />
<glyph unicode="&#xc1;" horiz-adv-x="845" d="M10 0l238 1581h350l238 -1581h-279l-33 256h-205l-32 -256h-277zM207 1786l295 295l184 -191l-336 -246zM350 512h139l-67 604z" />
<glyph unicode="&#xc2;" horiz-adv-x="845" d="M10 0l238 1581h350l238 -1581h-279l-33 256h-205l-32 -256h-277zM119 1829l301 170l299 -170l-110 -189l-189 86l-188 -86zM350 512h139l-67 604z" />
<glyph unicode="&#xc3;" horiz-adv-x="845" d="M10 0l238 1581h350l238 -1581h-279l-33 256h-205l-32 -256h-277zM96 1837q88 111 213 110q39 0 63.5 -7t43 -15t39 -15.5t55.5 -7.5q39 0 72.5 12.5t52.5 30.5l123 -174q-47 -55 -102.5 -83.5t-108.5 -28.5q-41 0 -65.5 7t-45 14t-42 14.5t-58.5 7.5t-70 -10.5t-49 -28.5 zM350 512h139l-67 604z" />
<glyph unicode="&#xc4;" horiz-adv-x="845" d="M10 0l238 1581h350l238 -1581h-279l-33 256h-205l-32 -256h-277zM136 1659v307h217v-307h-217zM350 512h139l-67 604zM492 1659v307h217v-307h-217z" />
<glyph unicode="&#xc5;" horiz-adv-x="845" d="M10 0l238 1581h350l238 -1581h-279l-33 256h-205l-32 -256h-277zM203 1872q0 45 17.5 85t48 69.5t70.5 47t85 17.5q47 0 87 -17.5t69.5 -47t47 -69.5t17.5 -85q0 -96 -63.5 -159.5t-157.5 -63.5q-45 0 -85 17t-70.5 47t-48 71t-17.5 88zM350 512h139l-67 604zM358 1870 q0 -29 18.5 -46.5t47.5 -17.5t46 17.5t17 46.5t-17 47t-46 18t-47.5 -18.5t-18.5 -46.5z" />
<glyph unicode="&#xc6;" horiz-adv-x="1232" d="M0 0l387 1581h801v-256h-334v-582h270v-256h-270v-231h334v-256h-641v256h-211l-60 -256h-276zM395 512h152v715z" />
<glyph unicode="&#xc7;" horiz-adv-x="731" d="M61 791q0 184 24 314t63.5 219t91 142.5t107.5 81t112.5 35.5t107.5 8q25 0 46.5 -3t37.5 -7q18 -4 35 -8v-248q-23 0 -42 5t-48 5q-31 0 -70 -14t-73.5 -68.5t-59 -163t-24.5 -298.5t24.5 -299t59 -163.5t73.5 -68.5t70 -14q29 0 48.5 5t41.5 5v-248q-16 -6 -35 -10 q-16 -4 -37.5 -6t-46.5 -2q-16 0 -32.5 1t-32.5 1l-137 -330l-232 129l166 270q-49 33 -92 90.5t-75 144.5t-51.5 209t-19.5 286z" />
<glyph unicode="&#xc8;" horiz-adv-x="784" d="M16 487v256h82v838h641v-256h-333v-582h270v-256h-270v-231h333v-256h-641v487h-82zM154 1890l184 191l295 -295l-143 -142z" />
<glyph unicode="&#xc9;" horiz-adv-x="784" d="M16 487v256h82v838h641v-256h-333v-582h270v-256h-270v-231h333v-256h-641v487h-82zM194 1786l295 295l184 -191l-336 -246z" />
<glyph unicode="&#xca;" horiz-adv-x="784" d="M16 487v256h82v838h641v-256h-333v-582h270v-256h-270v-231h333v-256h-641v487h-82zM106 1833l301 170l299 -170l-110 -189l-189 86l-188 -86z" />
<glyph unicode="&#xcb;" horiz-adv-x="784" d="M16 487v256h82v838h641v-256h-333v-582h270v-256h-270v-231h333v-256h-641v487h-82zM127 1651v307h217v-307h-217zM483 1651v307h217v-307h-217z" />
<glyph unicode="&#xcc;" horiz-adv-x="503" d="M14 1890l184 191l295 -295l-143 -142zM98 0v1581h308v-1581h-308z" />
<glyph unicode="&#xcd;" horiz-adv-x="503" d="M33 1800l295 295l184 -191l-336 -246zM98 0v1581h308v-1581h-308z" />
<glyph unicode="&#xce;" horiz-adv-x="503" d="M-49 1846l301 170l299 -170l-110 -189l-189 86l-188 -86zM98 0v1581h308v-1581h-308z" />
<glyph unicode="&#xcf;" horiz-adv-x="503" d="M-34 1659v307h217v-307h-217zM98 0v1581h308v-1581h-308zM322 1659v307h217v-307h-217z" />
<glyph unicode="&#xd0;" horiz-adv-x="946" d="M16 494v243h82v844h215q117 0 221.5 -30.5t182.5 -116.5t123 -240.5t45 -402.5t-45 -403t-123 -241t-182.5 -116.5t-221.5 -30.5h-215v494h-82zM399 256q37 0 70 26.5t58.5 89t41 165t15.5 254.5t-15.5 254t-41 164.5t-58.5 89t-70 26.5v-588h93v-243h-93v-238z" />
<glyph unicode="&#xd1;" horiz-adv-x="1030" d="M98 0v1581h144l397 -770v770h293v-1581h-144l-397 770v-770h-293zM176 1829q88 111 213 110q39 0 63.5 -7t43 -15t39 -15.5t55.5 -7.5q39 0 72.5 12.5t52.5 30.5l123 -174q-47 -55 -102.5 -83.5t-108.5 -28.5q-41 0 -65.5 7t-45 14t-42 14.5t-58.5 7.5t-70 -10.5 t-49 -28.5z" />
<glyph unicode="&#xd2;" horiz-adv-x="983" d="M61 791q0 242 35 397t93.5 245.5t136 124t166.5 33.5q88 0 165.5 -33.5t136 -124t93.5 -245.5t35 -397q0 -244 -35 -398.5t-93.5 -245t-136 -124t-165.5 -33.5t-166 33.5t-136.5 124t-93.5 245t-35 398.5zM240 1894l184 191l295 -295l-143 -142zM369 791 q0 -164 10 -269.5t26.5 -167t39 -85t47.5 -23.5t47 23.5t38.5 85t26.5 167t10 269.5t-10 269t-26.5 166.5t-39 85t-46.5 23.5q-25 0 -47.5 -23.5t-39 -85t-26.5 -167t-10 -268.5z" />
<glyph unicode="&#xd3;" horiz-adv-x="983" d="M61 791q0 242 35 397t93.5 245.5t136 124t166.5 33.5q88 0 165.5 -33.5t136 -124t93.5 -245.5t35 -397q0 -244 -35 -398.5t-93.5 -245t-136 -124t-165.5 -33.5t-166 33.5t-136.5 124t-93.5 245t-35 398.5zM262 1790l295 295l184 -191l-336 -246zM369 791 q0 -164 10 -269.5t26.5 -167t39 -85t47.5 -23.5t47 23.5t38.5 85t26.5 167t10 269.5t-10 269t-26.5 166.5t-39 85t-46.5 23.5q-25 0 -47.5 -23.5t-39 -85t-26.5 -167t-10 -268.5z" />
<glyph unicode="&#xd4;" horiz-adv-x="983" d="M61 791q0 242 35 397t93.5 245.5t136 124t166.5 33.5q88 0 165.5 -33.5t136 -124t93.5 -245.5t35 -397q0 -244 -35 -398.5t-93.5 -245t-136 -124t-165.5 -33.5t-166 33.5t-136.5 124t-93.5 245t-35 398.5zM190 1833l301 170l299 -170l-110 -189l-189 86l-188 -86z M369 791q0 -164 10 -269.5t26.5 -167t39 -85t47.5 -23.5t47 23.5t38.5 85t26.5 167t10 269.5t-10 269t-26.5 166.5t-39 85t-46.5 23.5q-25 0 -47.5 -23.5t-39 -85t-26.5 -167t-10 -268.5z" />
<glyph unicode="&#xd5;" horiz-adv-x="983" d="M61 791q0 242 35 397t93.5 245.5t136 124t166.5 33.5q88 0 165.5 -33.5t136 -124t93.5 -245.5t35 -397q0 -244 -35 -398.5t-93.5 -245t-136 -124t-165.5 -33.5t-166 33.5t-136.5 124t-93.5 245t-35 398.5zM158 1841q88 111 213 110q39 0 63.5 -7t43 -15t39 -15.5 t55.5 -7.5q39 0 72.5 12.5t52.5 30.5l123 -174q-47 -55 -102.5 -83.5t-108.5 -28.5q-41 0 -65.5 7t-45 14t-42 14.5t-58.5 7.5t-70 -10.5t-49 -28.5zM369 791q0 -164 10 -269.5t26.5 -167t39 -85t47.5 -23.5t47 23.5t38.5 85t26.5 167t10 269.5t-10 269t-26.5 166.5t-39 85 t-46.5 23.5q-25 0 -47.5 -23.5t-39 -85t-26.5 -167t-10 -268.5z" />
<glyph unicode="&#xd6;" horiz-adv-x="983" d="M61 791q0 242 35 397t93.5 245.5t136 124t166.5 33.5q88 0 165.5 -33.5t136 -124t93.5 -245.5t35 -397q0 -244 -35 -398.5t-93.5 -245t-136 -124t-165.5 -33.5t-166 33.5t-136.5 124t-93.5 245t-35 398.5zM199 1651v307h217v-307h-217zM369 791q0 -164 10 -269.5 t26.5 -167t39 -85t47.5 -23.5t47 23.5t38.5 85t26.5 167t10 269.5t-10 269t-26.5 166.5t-39 85t-46.5 23.5q-25 0 -47.5 -23.5t-39 -85t-26.5 -167t-10 -268.5zM555 1651v307h217v-307h-217z" />
<glyph unicode="&#xd8;" horiz-adv-x="983" d="M51 0l96 223q-41 92 -63.5 230.5t-22.5 337.5q0 242 35 397t93.5 245.5t136 124t166.5 33.5q59 0 115.5 -15t105.5 -52l24 57h195l-96 -223q41 -92 63.5 -230.5t22.5 -336.5q0 -244 -35 -398.5t-93.5 -245t-136 -124t-165.5 -33.5q-59 0 -116 15t-106 52l-24 -57h-195z M369 733l211 484q-16 66 -39 92t-49 26q-25 0 -47.5 -23.5t-39 -85t-26.5 -167t-10 -268.5v-58zM401 362q16 -66 40 -91t51 -25q25 0 47 23.5t38.5 85t26.5 167t10 269.5v57z" />
<glyph unicode="&#xd9;" horiz-adv-x="1005" d="M98 453v1128h308v-1175q0 -72 27.5 -116t68.5 -44t69.5 44t28.5 116v1175h307v-1128q0 -117 -34.5 -203t-92 -144.5t-130 -87t-148.5 -28.5t-148.5 28.5t-129 87t-91.5 144.5t-35 203zM248 1894l184 191l295 -295l-143 -142z" />
<glyph unicode="&#xda;" horiz-adv-x="1005" d="M98 453v1128h308v-1175q0 -72 27.5 -116t68.5 -44t69.5 44t28.5 116v1175h307v-1128q0 -117 -34.5 -203t-92 -144.5t-130 -87t-148.5 -28.5t-148.5 28.5t-129 87t-91.5 144.5t-35 203zM293 1794l295 295l184 -191l-336 -246z" />
<glyph unicode="&#xdb;" horiz-adv-x="1005" d="M98 453v1128h308v-1175q0 -72 27.5 -116t68.5 -44t69.5 44t28.5 116v1175h307v-1128q0 -117 -34.5 -203t-92 -144.5t-130 -87t-148.5 -28.5t-148.5 28.5t-129 87t-91.5 144.5t-35 203zM198 1833l301 170l299 -170l-110 -189l-189 86l-188 -86z" />
<glyph unicode="&#xdc;" horiz-adv-x="1005" d="M98 453v1128h308v-1175q0 -72 27.5 -116t68.5 -44t69.5 44t28.5 116v1175h307v-1128q0 -117 -34.5 -203t-92 -144.5t-130 -87t-148.5 -28.5t-148.5 28.5t-129 87t-91.5 144.5t-35 203zM216 1657v307h217v-307h-217zM572 1657v307h217v-307h-217z" />
<glyph unicode="&#xdd;" horiz-adv-x="921" d="M10 1581h297l154 -586l153 586h297l-297 -948v-633h-307v633zM248 1829l295 295l184 -191l-336 -246z" />
<glyph unicode="&#xde;" horiz-adv-x="925" d="M98 0v1581h308v-305q96 -10 181 -45t149.5 -96.5t102.5 -150.5t38 -208t-30 -210t-76 -158.5t-102.5 -113.5t-108.5 -75t-94 -44t-60 -19v-156h-308zM406 453q14 0 41.5 16t55 55t47 101.5t19.5 154.5q0 123 -40 179.5t-123 56.5v-563z" />
<glyph unicode="&#xdf;" horiz-adv-x="1011" d="M98 0v1128q0 121 37 208t95.5 144.5t133 84t150.5 26.5q61 0 132 -22.5t131.5 -70.5t101.5 -125t41 -183q0 -119 -41 -200t-91 -109q27 -18 56.5 -50t54.5 -78t40 -109.5t15 -145.5q0 -152 -40 -250t-106.5 -155.5t-152.5 -80t-176 -22.5v254q31 0 60.5 11t53 41t39 79 t15.5 123q0 78 -13 129t-37 80.5t-54.5 42t-67.5 12.5v227q29 0 56.5 10.5t50 35t37 62.5t14.5 93q0 47 -12.5 75.5t-31 44t-39 20.5t-36.5 5q-45 0 -76.5 -44t-31.5 -115v-1176h-308z" />
<glyph unicode="&#xe0;" horiz-adv-x="765" d="M31 336q0 117 45 194.5t106.5 127t125 71t100.5 25.5v6q0 35 -23 54.5t-70 19.5t-79.5 -5.5t-75.5 -15.5v231q20 4 49 11q23 4 57.5 8t75.5 4q70 0 134.5 -16.5t112.5 -60.5t76.5 -119.5t28.5 -194.5v-676h-266v78l-84 -84q-10 -4 -17.5 -4h-13.5q-53 0 -103 24.5 t-90 68.5t-64.5 108.5t-24.5 144.5zM162 1409l184 191l295 -295l-143 -142zM299 336q0 -53 18.5 -79t38.5 -26q23 0 35 15.5t17 32.5v241q-10 0 -29 -12t-36 -34.5t-30.5 -57.5t-13.5 -80z" />
<glyph unicode="&#xe1;" horiz-adv-x="765" d="M31 336q0 117 45 194.5t106.5 127t125 71t100.5 25.5v6q0 35 -23 54.5t-70 19.5t-79.5 -5.5t-75.5 -15.5v231q20 4 49 11q23 4 57.5 8t75.5 4q70 0 134.5 -16.5t112.5 -60.5t76.5 -119.5t28.5 -194.5v-676h-266v78l-84 -84q-10 -4 -17.5 -4h-13.5q-53 0 -103 24.5 t-90 68.5t-64.5 108.5t-24.5 144.5zM160 1307l295 295l184 -191l-336 -246zM299 336q0 -53 18.5 -79t38.5 -26q23 0 35 15.5t17 32.5v241q-10 0 -29 -12t-36 -34.5t-30.5 -57.5t-13.5 -80z" />
<glyph unicode="&#xe2;" horiz-adv-x="765" d="M31 336q0 117 45 194.5t106.5 127t125 71t100.5 25.5v6q0 35 -23 54.5t-70 19.5t-79.5 -5.5t-75.5 -15.5v231q20 4 49 11q23 4 57.5 8t75.5 4q70 0 134.5 -16.5t112.5 -60.5t76.5 -119.5t28.5 -194.5v-676h-266v78l-84 -84q-10 -4 -17.5 -4h-13.5q-53 0 -103 24.5 t-90 68.5t-64.5 108.5t-24.5 144.5zM94 1352l301 170l299 -170l-110 -189l-189 86l-188 -86zM299 336q0 -53 18.5 -79t38.5 -26q23 0 35 15.5t17 32.5v241q-10 0 -29 -12t-36 -34.5t-30.5 -57.5t-13.5 -80z" />
<glyph unicode="&#xe3;" horiz-adv-x="765" d="M31 336q0 117 45 194.5t106.5 127t125 71t100.5 25.5v6q0 35 -23 54.5t-70 19.5t-79.5 -5.5t-75.5 -15.5v231q20 4 49 11q23 4 57.5 8t75.5 4q70 0 134.5 -16.5t112.5 -60.5t76.5 -119.5t28.5 -194.5v-676h-266v78l-84 -84q-10 -4 -17.5 -4h-13.5q-53 0 -103 24.5 t-90 68.5t-64.5 108.5t-24.5 144.5zM65 1360q88 111 213 110q39 0 63.5 -7t43 -15t39 -15.5t55.5 -7.5q39 0 72.5 12.5t52.5 30.5l123 -174q-47 -55 -102.5 -83.5t-108.5 -28.5q-41 0 -65.5 7t-45 14t-42 14.5t-58.5 7.5t-70 -10.5t-49 -28.5zM299 336q0 -53 18.5 -79 t38.5 -26q23 0 35 15.5t17 32.5v241q-10 0 -29 -12t-36 -34.5t-30.5 -57.5t-13.5 -80z" />
<glyph unicode="&#xe4;" horiz-adv-x="765" d="M31 336q0 117 45 194.5t106.5 127t125 71t100.5 25.5v6q0 35 -23 54.5t-70 19.5t-79.5 -5.5t-75.5 -15.5v231q20 4 49 11q23 4 57.5 8t75.5 4q70 0 134.5 -16.5t112.5 -60.5t76.5 -119.5t28.5 -194.5v-676h-266v78l-84 -84q-10 -4 -17.5 -4h-13.5q-53 0 -103 24.5 t-90 68.5t-64.5 108.5t-24.5 144.5zM117 1174v307h217v-307h-217zM299 336q0 -53 18.5 -79t38.5 -26q23 0 35 15.5t17 32.5v241q-10 0 -29 -12t-36 -34.5t-30.5 -57.5t-13.5 -80zM473 1174v307h217v-307h-217z" />
<glyph unicode="&#xe5;" horiz-adv-x="765" d="M31 336q0 117 45 194.5t106.5 127t125 71t100.5 25.5v6q0 35 -23 54.5t-70 19.5t-79.5 -5.5t-75.5 -15.5v231q20 4 49 11q23 4 57.5 8t75.5 4q70 0 134.5 -16.5t112.5 -60.5t76.5 -119.5t28.5 -194.5v-676h-266v78l-84 -84q-10 -4 -17.5 -4h-13.5q-53 0 -103 24.5 t-90 68.5t-64.5 108.5t-24.5 144.5zM164 1393q0 47 18.5 89t50 73t73.5 49t89 18q49 0 92 -18t74 -49t49.5 -73t18.5 -89q0 -49 -18.5 -92t-49.5 -75t-74 -50t-92 -18q-47 0 -89 18t-73.5 50t-50 75t-18.5 92zM299 336q0 -53 18.5 -79t38.5 -26q23 0 35 15.5t17 32.5v241 q-10 0 -29 -12t-36 -34.5t-30.5 -57.5t-13.5 -80zM328 1391q0 -29 19.5 -48.5t47.5 -19.5q29 0 48.5 19.5t19.5 48.5t-19.5 48.5t-48.5 19.5t-48 -19.5t-19 -48.5z" />
<glyph unicode="&#xe6;" horiz-adv-x="1099" d="M31 336q0 117 45 194.5t106.5 127t125 71t100.5 25.5v6q0 35 -23 54.5t-70 19.5t-79.5 -5.5t-75.5 -15.5v231q20 4 49 11q23 4 57.5 8t75.5 4q66 0 124 -13.5t105 -47.5q47 35 96.5 48t96.5 13q51 0 104.5 -18.5t98.5 -58.5t73.5 -102.5t28.5 -152.5q0 -106 -45 -183 t-104.5 -126t-120 -71.5t-90.5 -22.5q0 -41 33.5 -75t80.5 -34q35 0 52.5 2t39.5 11v-234q-23 -6 -49 -9t-67 -3q-53 0 -114.5 15t-115.5 61q-41 -35 -100 -55.5t-139 -20.5q-61 0 -115.5 24.5t-95.5 68.5t-64.5 108.5t-23.5 144.5zM299 336q0 -53 18.5 -79t38.5 -26 q23 0 35 15.5t17 32.5v241q-10 0 -29 -12t-36 -34.5t-30.5 -57.5t-13.5 -80zM692 639q0 -23 1 -40t1 -34q12 0 31.5 13.5t38 38t32 59.5t13.5 80q0 41 -11.5 63.5t-37.5 22.5q-35 0 -51.5 -57.5t-16.5 -145.5z" />
<glyph unicode="&#xe7;" horiz-adv-x="643" d="M51 528q0 123 25.5 210t66.5 147.5t91.5 96.5t97.5 54.5t87 24.5t60 6q29 0 51.5 -2t38.5 -4q18 -2 33 -4v-232q-18 0 -32.5 4.5t-49.5 4.5q-29 0 -60.5 -15.5t-59 -50.5t-45 -93.5t-17.5 -146.5t17.5 -146t45 -94t59.5 -50.5t60 -14.5q29 0 48.5 4t37.5 4v-231 q-14 -4 -35 -6q-16 -2 -39.5 -3t-52.5 -1q-12 0 -30.5 4t-40.5 4l-148 -313l-188 106l174 277q-37 27 -73 66.5t-62.5 95t-43 129t-16.5 169.5z" />
<glyph unicode="&#xe8;" horiz-adv-x="743" d="M51 530q0 168 35 272.5t87 163t115.5 80t119.5 21.5q51 0 104 -18.5t98 -58.5t74 -102.5t29 -152.5q0 -106 -45 -182t-104.5 -124t-120 -71.5t-91.5 -25.5q4 -41 36 -75t79 -34q53 0 92 8v-231q-47 -10 -117 -10q-61 0 -129.5 20.5t-127 80t-96.5 164.5t-38 275z M145 1409l184 191l295 -295l-143 -142zM336 599q0 -17 2 -34q12 0 31.5 13.5t38 38t32 59.5t13.5 80q0 41 -11.5 63.5t-38.5 22.5q-35 0 -51 -57.5t-16 -145.5v-40z" />
<glyph unicode="&#xe9;" horiz-adv-x="743" d="M51 530q0 168 35 272.5t87 163t115.5 80t119.5 21.5q51 0 104 -18.5t98 -58.5t74 -102.5t29 -152.5q0 -106 -45 -182t-104.5 -124t-120 -71.5t-91.5 -25.5q4 -41 36 -75t79 -34q53 0 92 8v-231q-47 -10 -117 -10q-61 0 -129.5 20.5t-127 80t-96.5 164.5t-38 275z M170 1305l295 295l184 -191l-336 -246zM336 599q0 -17 2 -34q12 0 31.5 13.5t38 38t32 59.5t13.5 80q0 41 -11.5 63.5t-38.5 22.5q-35 0 -51 -57.5t-16 -145.5v-40z" />
<glyph unicode="&#xea;" horiz-adv-x="743" d="M51 530q0 168 35 272.5t87 163t115.5 80t119.5 21.5q51 0 104 -18.5t98 -58.5t74 -102.5t29 -152.5q0 -106 -45 -182t-104.5 -124t-120 -71.5t-91.5 -25.5q4 -41 36 -75t79 -34q53 0 92 8v-231q-47 -10 -117 -10q-61 0 -129.5 20.5t-127 80t-96.5 164.5t-38 275zM88 1352 l301 170l299 -170l-110 -189l-189 86l-188 -86zM336 599q0 -17 2 -34q12 0 31.5 13.5t38 38t32 59.5t13.5 80q0 41 -11.5 63.5t-38.5 22.5q-35 0 -51 -57.5t-16 -145.5v-40z" />
<glyph unicode="&#xeb;" horiz-adv-x="743" d="M51 530q0 168 35 272.5t87 163t115.5 80t119.5 21.5q51 0 104 -18.5t98 -58.5t74 -102.5t29 -152.5q0 -106 -45 -182t-104.5 -124t-120 -71.5t-91.5 -25.5q4 -41 36 -75t79 -34q53 0 92 8v-231q-47 -10 -117 -10q-61 0 -129.5 20.5t-127 80t-96.5 164.5t-38 275z M113 1163v307h217v-307h-217zM336 599q0 -17 2 -34q12 0 31.5 13.5t38 38t32 59.5t13.5 80q0 41 -11.5 63.5t-38.5 22.5q-35 0 -51 -57.5t-16 -145.5v-40zM469 1163v307h217v-307h-217z" />
<glyph unicode="&#xec;" horiz-adv-x="299" d="M-8 1409l184 191l295 -295l-143 -142z" />
<glyph unicode="&#xed;" horiz-adv-x="299" d="M14 1305l295 295l184 -191l-336 -246z" />
<glyph unicode="&#xee;" horiz-adv-x="299" d="M-66 1352l301 170l299 -170l-110 -189l-189 86l-188 -86z" />
<glyph unicode="&#xef;" horiz-adv-x="299" d="M-55 1170v307h217v-307h-217zM301 1170v307h217v-307h-217z" />
<glyph unicode="&#xf0;" horiz-adv-x="870" d="M51 471q0 160 51.5 266.5t123 171t145 93t121.5 32.5v80q0 29 -2.5 55.5t-6.5 55.5l-131 -45l-53 123l152 51q-25 70 -61 128t-83 99h287q55 -49 96 -141l137 47l54 -123l-144 -51q41 -135 41 -285v-770q0 -51 -26.5 -99t-74.5 -86t-114.5 -60.5t-148.5 -22.5 q-74 0 -139.5 27.5t-114.5 87t-79 149.5t-30 217zM338 449q0 -98 28.5 -158t65.5 -60q18 0 35.5 15.5t24.5 34.5v499q-25 -4 -52.5 -24.5t-50 -60.5t-37 -100t-14.5 -146z" />
<glyph unicode="&#xf1;" horiz-adv-x="870" d="M61 1344q88 111 213 110q39 0 63.5 -7t43 -15t39 -15.5t55.5 -7.5q39 0 72.5 12.5t52.5 30.5l123 -174q-47 -55 -102.5 -83.5t-108.5 -28.5q-41 0 -65.5 7t-45 14t-42 14.5t-58.5 7.5t-70 -10.5t-49 -28.5zM72 0v1057h266v-62l70 70q8 2 28 2q168 0 266.5 -108.5 t98.5 -340.5v-618h-287v680q0 57 -21.5 94t-56.5 37t-56.5 -37t-21.5 -94v-680h-286z" />
<glyph unicode="&#xf2;" horiz-adv-x="843" d="M51 528q0 176 41 283t98.5 163t121 74.5t110.5 18.5q45 0 109.5 -18.5t122 -74.5t98.5 -163t41 -283t-41 -282.5t-98.5 -162.5t-122 -74.5t-109.5 -18.5q-47 0 -110.5 18.5t-121 74.5t-98.5 162.5t-41 282.5zM168 1403l184 191l295 -295l-143 -142zM338 528 q0 -154 24.5 -218t59.5 -64t59.5 64t24.5 218t-24.5 218.5t-59.5 64.5t-59.5 -64.5t-24.5 -218.5z" />
<glyph unicode="&#xf3;" horiz-adv-x="843" d="M51 528q0 176 41 283t98.5 163t121 74.5t110.5 18.5q45 0 109.5 -18.5t122 -74.5t98.5 -163t41 -283t-41 -282.5t-98.5 -162.5t-122 -74.5t-109.5 -18.5q-47 0 -110.5 18.5t-121 74.5t-98.5 162.5t-41 282.5zM207 1299l295 295l184 -191l-336 -246zM338 528 q0 -154 24.5 -218t59.5 -64t59.5 64t24.5 218t-24.5 218.5t-59.5 64.5t-59.5 -64.5t-24.5 -218.5z" />
<glyph unicode="&#xf4;" horiz-adv-x="843" d="M51 528q0 176 41 283t98.5 163t121 74.5t110.5 18.5q45 0 109.5 -18.5t122 -74.5t98.5 -163t41 -283t-41 -282.5t-98.5 -162.5t-122 -74.5t-109.5 -18.5q-47 0 -110.5 18.5t-121 74.5t-98.5 162.5t-41 282.5zM119 1352l301 170l299 -170l-110 -189l-189 86l-188 -86z M338 528q0 -154 24.5 -218t59.5 -64t59.5 64t24.5 218t-24.5 218.5t-59.5 64.5t-59.5 -64.5t-24.5 -218.5z" />
<glyph unicode="&#xf5;" horiz-adv-x="843" d="M51 528q0 176 41 283t98.5 163t121 74.5t110.5 18.5q45 0 109.5 -18.5t122 -74.5t98.5 -163t41 -283t-41 -282.5t-98.5 -162.5t-122 -74.5t-109.5 -18.5q-47 0 -110.5 18.5t-121 74.5t-98.5 162.5t-41 282.5zM92 1338q88 111 213 110q39 0 63.5 -7t43 -15t39 -15.5 t55.5 -7.5q39 0 72.5 12.5t52.5 30.5l123 -174q-47 -55 -102.5 -83.5t-108.5 -28.5q-41 0 -65.5 7t-45 14t-42 14.5t-58.5 7.5t-70 -10.5t-49 -28.5zM338 528q0 -154 24.5 -218t59.5 -64t59.5 64t24.5 218t-24.5 218.5t-59.5 64.5t-59.5 -64.5t-24.5 -218.5z" />
<glyph unicode="&#xf6;" horiz-adv-x="843" d="M51 528q0 176 41 283t98.5 163t121 74.5t110.5 18.5q45 0 109.5 -18.5t122 -74.5t98.5 -163t41 -283t-41 -282.5t-98.5 -162.5t-122 -74.5t-109.5 -18.5q-47 0 -110.5 18.5t-121 74.5t-98.5 162.5t-41 282.5zM138 1163v307h217v-307h-217zM338 528q0 -154 24.5 -218 t59.5 -64t59.5 64t24.5 218t-24.5 218.5t-59.5 64.5t-59.5 -64.5t-24.5 -218.5zM494 1163v307h217v-307h-217z" />
<glyph unicode="&#xf7;" horiz-adv-x="860" d="M51 528q0 135 34 235.5t87 168t121.5 101.5t136.5 34t136.5 -34t121.5 -101.5t87 -168t34 -235.5t-34 -235t-87 -168t-121.5 -101.5t-136.5 -33.5t-136.5 33.5t-121.5 101.5t-87 168t-34 235zM143 528q0 -86 12.5 -151.5t32 -113.5t44 -82t49.5 -54q4 16 26.5 78.5 t46.5 134.5q29 82 62 182q-63 27 -117 49q-47 20 -90 38t-59 26q-2 -16 -3.5 -27.5t-2.5 -22t-1 -23.5v-34zM305 952q2 -8 9.5 -29.5t16.5 -51t20 -65.5t22 -71q25 -82 57 -184q35 100 62 182q23 72 44 135.5t27 79.5q-27 18 -59.5 32.5t-73.5 14.5q-45 0 -74.5 -13 t-50.5 -30zM444 522q33 -100 62 -182q12 -35 24.5 -69.5t21.5 -64.5t16 -51.5t12 -29.5q25 23 48 55.5t43.5 81.5t33 114.5t12.5 151.5q0 41 -1 59.5t-5 47.5q-16 -8 -59.5 -25.5t-90.5 -38.5q-53 -23 -117 -49z" />
<glyph unicode="&#xf8;" horiz-adv-x="843" d="M41 0l90 160q-35 61 -57.5 150t-22.5 218q0 176 41 283t98.5 163t121 74.5t110.5 18.5q37 0 85 -11.5t97 -43.5l25 45h174l-90 -162q35 -59 57.5 -148.5t22.5 -218.5q0 -176 -41 -282.5t-98.5 -162.5t-122 -74.5t-109.5 -18.5q-37 0 -85 11t-97 42l-25 -43h-174zM338 535 l133 237q-20 39 -49 39q-35 0 -59.5 -63.5t-24.5 -212.5zM373 285q20 -39 49 -39q35 0 59.5 63.5t24.5 212.5z" />
<glyph unicode="&#xf9;" horiz-adv-x="872" d="M72 438v619h286v-680q0 -57 21.5 -94t56.5 -37t56.5 36.5t21.5 94.5v680h287v-619q0 -115 -28 -199.5t-77 -140t-115.5 -82t-144.5 -26.5t-144.5 26.5t-115.5 82t-76.5 140.5t-27.5 199zM199 1409l184 191l295 -295l-143 -142z" />
<glyph unicode="&#xfa;" horiz-adv-x="872" d="M72 438v619h286v-680q0 -57 21.5 -94t56.5 -37t56.5 36.5t21.5 94.5v680h287v-619q0 -115 -28 -199.5t-77 -140t-115.5 -82t-144.5 -26.5t-144.5 26.5t-115.5 82t-76.5 140.5t-27.5 199zM213 1305l295 295l184 -191l-336 -246z" />
<glyph unicode="&#xfb;" horiz-adv-x="872" d="M72 438v619h286v-680q0 -57 21.5 -94t56.5 -37t56.5 36.5t21.5 94.5v680h287v-619q0 -115 -28 -199.5t-77 -140t-115.5 -82t-144.5 -26.5t-144.5 26.5t-115.5 82t-76.5 140.5t-27.5 199zM133 1352l301 170l299 -170l-110 -189l-189 86l-188 -86z" />
<glyph unicode="&#xfc;" horiz-adv-x="872" d="M72 438v619h286v-680q0 -57 21.5 -94t56.5 -37t56.5 36.5t21.5 94.5v680h287v-619q0 -115 -28 -199.5t-77 -140t-115.5 -82t-144.5 -26.5t-144.5 26.5t-115.5 82t-76.5 140.5t-27.5 199zM152 1163v307h217v-307h-217zM508 1163v307h217v-307h-217z" />
<glyph unicode="&#xfd;" horiz-adv-x="772" d="M16 1057h250l119 -688l117 688h246l-291 -1407h-279l68 325zM172 1307l295 295l184 -191l-336 -246z" />
<glyph unicode="&#xfe;" horiz-adv-x="851" d="M72 -350v1931h286v-569l52 53q4 0 8 1t8 1h10q74 0 139.5 -27.5t114.5 -87t79 -150.5t30 -216q0 -113 -24.5 -200t-62.5 -150.5t-87.5 -106.5t-97.5 -70.5t-93 -41t-76 -15.5v-352h-286zM358 256q25 4 52.5 25.5t50 63.5t37 106.5t14.5 156.5q0 98 -28.5 157.5 t-65.5 59.5q-18 0 -35.5 -15t-24.5 -34v-520z" />
<glyph unicode="&#xff;" horiz-adv-x="772" d="M16 1057h250l119 -688l117 688h246l-291 -1407h-279l68 325zM107 1168v307h217v-307h-217zM463 1168v307h217v-307h-217z" />
<glyph unicode="&#x152;" horiz-adv-x="1298" d="M61 791q0 242 35 397t93.5 245.5t136 124t166.5 33.5q59 0 108 -15t86 -52v57h567v-256h-333v-582h270v-256h-270v-231h333v-256h-567v57q-37 -37 -86 -52t-108 -15q-88 0 -166 33.5t-136.5 124t-93.5 245t-35 398.5zM369 791q0 -164 10 -269.5t26.5 -167t39 -85 t47.5 -23.5t47 23.5t38.5 85t26.5 167t10 269.5t-10 269t-26.5 166.5t-39 85t-46.5 23.5q-25 0 -47.5 -23.5t-39 -85t-26.5 -167t-10 -268.5z" />
<glyph unicode="&#x153;" horiz-adv-x="1198" d="M51 528q0 176 41 283t98.5 163t121 74.5t110.5 18.5q45 0 105.5 -16.5t115.5 -67.5q51 49 108.5 66.5t110.5 17.5q51 0 104.5 -18.5t98.5 -58.5t73.5 -102.5t28.5 -152.5q0 -106 -45 -183t-104.5 -126t-119.5 -71.5t-91 -22.5q0 -41 33.5 -75t81.5 -34q35 0 52 2t40 11 v-234q-23 -6 -49.5 -9t-67.5 -3q-59 0 -123.5 18.5t-124.5 71.5q-57 -55 -118.5 -72.5t-108.5 -17.5t-110.5 18.5t-121 74.5t-98.5 162.5t-41 282.5zM338 528q0 -154 24.5 -218t59.5 -64t59.5 64t24.5 218t-24.5 218.5t-59.5 64.5t-59.5 -64.5t-24.5 -218.5zM791 639 q0 -23 1 -40t1 -34q12 0 31.5 13.5t38 38t31.5 59.5t13 80q0 41 -11 63.5t-38 22.5q-35 0 -51 -57.5t-16 -145.5z" />
<glyph unicode="&#x178;" horiz-adv-x="921" d="M10 1581h297l154 -586l153 586h297l-297 -948v-633h-307v633zM181 1655v307h217v-307h-217zM537 1655v307h217v-307h-217z" />
<glyph unicode="&#x2c6;" d="M53 1436l301 170l299 -170l-110 -189l-189 86l-188 -86z" />
<glyph unicode="&#x2dc;" d="M4 1440q88 111 213 110q39 0 63.5 -7t43 -15t39 -15.5t55.5 -7.5q39 0 72.5 12.5t52.5 30.5l123 -174q-47 -55 -102.5 -83.5t-108.5 -28.5q-41 0 -65.5 7t-45 14t-42 14.5t-58.5 7.5t-70 -10.5t-49 -28.5z" />
<glyph unicode="&#x2000;" horiz-adv-x="1062" />
<glyph unicode="&#x2001;" horiz-adv-x="2124" />
<glyph unicode="&#x2002;" horiz-adv-x="1062" />
<glyph unicode="&#x2003;" horiz-adv-x="2124" />
<glyph unicode="&#x2004;" horiz-adv-x="708" />
<glyph unicode="&#x2005;" horiz-adv-x="531" />
<glyph unicode="&#x2006;" horiz-adv-x="354" />
<glyph unicode="&#x2007;" horiz-adv-x="354" />
<glyph unicode="&#x2008;" horiz-adv-x="265" />
<glyph unicode="&#x2009;" horiz-adv-x="424" />
<glyph unicode="&#x200a;" horiz-adv-x="118" />
<glyph unicode="&#x2010;" horiz-adv-x="747" d="M92 487v256h563v-256h-563z" />
<glyph unicode="&#x2011;" horiz-adv-x="747" d="M92 487v256h563v-256h-563z" />
<glyph unicode="&#x2012;" horiz-adv-x="747" d="M92 487v256h563v-256h-563z" />
<glyph unicode="&#x2013;" horiz-adv-x="952" d="M92 487v256h768v-256h-768z" />
<glyph unicode="&#x2014;" horiz-adv-x="1157" d="M92 487v256h973v-256h-973z" />
<glyph unicode="&#x2018;" horiz-adv-x="440" d="M37 915l129 666h182v-727z" />
<glyph unicode="&#x2019;" horiz-adv-x="440" d="M92 854v727l311 -61l-129 -666h-182z" />
<glyph unicode="&#x201a;" horiz-adv-x="440" d="M92 -350v727l311 -62l-129 -665h-182z" />
<glyph unicode="&#x201c;" horiz-adv-x="811" d="M37 995l115 594h163v-649zM401 924l129 665h183v-727z" />
<glyph unicode="&#x201d;" horiz-adv-x="811" d="M98 854v727l312 -61l-129 -666h-183zM496 854v649l278 -55l-115 -594h-163z" />
<glyph unicode="&#x201e;" horiz-adv-x="811" d="M98 -350v727l312 -62l-129 -665h-183zM496 299l278 -55l-115 -594h-163v649z" />
<glyph unicode="&#x2022;" horiz-adv-x="886" d="M20 614q0 43 32 80t87.5 64.5t130 44t158.5 16.5t159 -16.5t130 -44t87 -64.5t32 -80t-32 -79.5t-87 -65.5t-130 -45t-159 -16t-158.5 16t-130 45t-87.5 65.5t-32 79.5z" />
<glyph unicode="&#x2026;" horiz-adv-x="1259" d="M92 0v377h287v-377h-287zM492 0v377h286v-377h-286zM891 0v377h287v-377h-287z" />
<glyph unicode="&#x202f;" horiz-adv-x="424" />
<glyph unicode="&#x2039;" horiz-adv-x="614" d="M72 608l334 334l147 -143l-170 -191l170 -190l-147 -144z" />
<glyph unicode="&#x203a;" horiz-adv-x="614" d="M61 418l170 190l-170 191l148 143l334 -334l-334 -334z" />
<glyph unicode="&#x205f;" horiz-adv-x="531" />
<glyph unicode="&#x2122;" horiz-adv-x="921" d="M61 1446v135h308v-135h-76v-389h-152v389h-80zM399 1057v524h113l106 -225l103 225h113v-524h-136v278l-59 -125h-45l-59 125v-278h-136z" />
<glyph unicode="&#x25fc;" horiz-adv-x="1054" d="M0 0v1055h1055v-1055h-1055z" />
</font>
</defs>
</svg>
