<?xml version="1.0" encoding="UTF-8" standalone="no"?>
<svg width="1024px" height="1024px" viewBox="0 0 1024 1024" version="1.1" xmlns="http://www.w3.org/2000/svg" xmlns:xlink="http://www.w3.org/1999/xlink">
    <!-- Generator: Sketch 41 (35326) - http://www.bohemiancoding.com/sketch -->
    <title>/games/android</title>
    <desc>Created with Sketch.</desc>
    <defs></defs>
    <g id="Page-1" stroke="none" stroke-width="1" fill="none" fill-rule="evenodd">
        <g id="/games/android">
            <rect id="shield-(android)" fill="#00C3F7" x="0" y="0" width="1024" height="1024" rx="100"></rect>
            <g id="PBS-KIDS-LOGO-+-GAMES" transform="translate(151.000000, 67.000000)">
                <g id="PBS-KIDS-LOGO" stroke-width="1">
                    <path d="M361.6742,0.494117647 C171.701,0.494117647 17.716,153.979412 17.716,343.308824 C17.716,532.617647 171.701,686.082353 361.6742,686.082353 C551.5856,686.082353 705.6118,532.617647 705.6118,343.308824 C705.6118,153.979412 551.5856,0.494117647 361.6742,0.494117647" id="Fill-1" fill="#FFFFFF"></path>
                    <path d="M361.4476,21.0411765 C183.4842,21.0411765 39.243,165.014706 39.243,342.629412 C39.243,520.223529 183.4842,664.197059 361.4476,664.197059 C539.3904,664.197059 683.6728,520.223529 683.6728,342.629412 C683.6728,165.014706 539.3904,21.0411765 361.4476,21.0411765" id="Fill-2" fill="#A3CC39"></path>
                    <path d="M126.793,198.655882 C127.0402,158.673529 148.835,122.252941 184.6584,94.4176471 C235.252,57.3176471 297.258,35.6794118 364.1256,36.2352941 C428.5418,36.75 488.117,57.7294118 537.1244,93.1205882 C575.4816,121.902941 598.7802,160.114706 598.5124,201.908824 C598.1828,249.158824 567.839,291.426471 519.7586,320.435294 L519.7998,320.455882 C473.5322,348.744118 419.416,364.782353 361.6742,364.308824 C292.8084,363.794118 229.484,339.85 178.7462,299.908824 C145.9922,272.155882 126.5458,236.867647 126.793,198.655882" id="Fill-3" fill="#FFFFFF"></path>
                    <path d="M405.5316,143.397059 C417.3972,136.870588 419.622,119.329412 419.6426,113.832353 C419.622,89.6205882 400.9172,73.4794118 367.4628,73.4794118 C354.938,73.4588235 341.033,75.0647059 321.6072,79.1 C320.6184,79.3264706 319.8768,80.2323529 319.8562,81.3441176 C319.8768,81.5088235 319.8974,81.7147059 319.918,81.8794118 C325.0474,112.761765 324.8002,160.897059 320.6802,209.588235 C320.6184,209.773529 320.5772,209.917647 320.5772,210.123529 C320.5772,211.235294 321.4218,212.161765 322.4724,212.326471 C334.4822,214.941176 358.234,217.308824 371.4386,217.329412 C403.142,217.308824 426.935,199.932353 426.9144,174.876471 C426.9144,159.147059 419.8486,149.594118 405.5316,143.397059 M367.092,103.064706 C379.0194,103.064706 387.1358,109.261765 387.2594,118.176471 C387.5272,135.120588 359.573,132.505882 357.3894,132.032353 L357.1628,104.3 C357.0186,104.320588 358.646,103.064706 367.092,103.064706 M370.2438,188.938235 C365.6088,188.958824 361.4064,188.547059 357.3276,187.517647 L357.3688,159.229412 C357.3688,159.229412 364.208,158.405882 368.0396,158.426471 C378.4014,158.426471 391.2352,162.05 391.0292,172.364706 C390.885,180.888235 388.0834,188.958824 370.2438,188.938235" id="Fill-4" fill="#0C0E18"></path>
                    <path d="M236.5704,90.2176471 C222.583,93.4088235 207.4214,98.5558824 197.5952,103.435294 C197.5746,103.435294 197.5746,103.455882 197.554,103.455882 C195.3704,104.279412 196.3798,106.214706 196.421,106.255882 C206.309,129.273529 223.5924,207.138235 226.1056,233.182353 C226.085,233.388235 226.1056,233.552941 226.1468,233.758824 C226.4146,234.952941 227.63,235.714706 228.7836,235.426471 C228.8248,235.426471 261.517,225.502941 261.5376,225.502941 C262.7736,225.235294 263.4946,224.041176 263.2474,222.847059 C263.2062,222.785294 263.1856,222.744118 263.1856,222.702941 C263.0208,222.044118 262.8148,221.2 262.5058,219.861765 L260.7548,213.129412 L255.3782,188.691176 C255.3782,188.691176 263.783,186.961765 264.3804,186.838235 C299.8124,178.705882 318.5584,151.858824 312.09,123.591176 C305.4362,94.5205882 275.5662,81.2411765 236.5704,90.2176471 M253.7302,157.644118 C251.114,158.261765 248.2094,158.488235 248.2506,158.488235 L239.8664,121.944118 C239.8664,121.944118 246.479,119.782353 249.26,119.123529 C263.2474,115.952941 273.6298,122.108824 276.1636,133.267647 C278.8416,144.797059 271.6522,153.547059 253.7302,157.644118" id="Fill-5" fill="#0C0E18"></path>
                    <path d="M508.7376,130.014706 C509.1084,130.447059 511.1066,131.455882 511.7246,131.517647 C512.734,131.579412 513.1666,131.044118 513.1666,131.044118 L513.1666,131.044118 C515.2472,129.376471 512.9812,131.332353 531.0268,110.311765 C531.377,109.982353 531.6036,109.55 531.7066,109.014706 C531.9126,108.005882 531.0062,106.997059 530.9444,107.038235 C530.8414,107.161765 513.6816,90.9794118 488.426,88.2823529 C457.011,84.9058824 434.9484,103.6 433.218,130.920588 C431.8172,153.752941 447.5556,166.661765 478.5174,176.811765 C500.6006,184.038235 493.1228,199.232353 479.5062,198.635294 C470.7924,198.244118 457.5054,192.211765 449.2242,184.326471 C449.2242,184.326471 448.8946,183.894118 448.0294,183.770588 C447.226,183.605882 446.4844,183.935294 446.0312,184.511765 L428.3358,204.873529 C428.3358,204.873529 427.8208,205.614706 427.7178,206.108824 C427.5118,207.323529 428.4594,208.044118 428.4594,208.044118 C441.046,221.117647 458.4118,228.488235 475.551,229.558824 C504.9678,231.370588 526.2476,213.973529 528.3694,188.032353 C530.6354,160.485294 506.863,150.397059 490.0534,144.817647 C475.5922,140 469.4534,135.552941 470.0508,129.273529 C470.71,123.014706 482.761,113.894118 508.7376,130.014706" id="Fill-6" fill="#0C0E18"></path>
                    <path d="M575.1314,366.861765 C594.104,374.788235 615.8782,365.852941 623.8092,346.870588 C631.7608,327.929412 622.7998,306.147059 603.8478,298.220588 C584.8752,290.294118 563.0598,299.229412 555.1494,318.170588 C547.2184,337.132353 556.1382,358.955882 575.1314,366.861765" id="Fill-7" fill="#FFFFFF"></path>
                    <path d="M499.859,454.711765 C499.1998,435.997059 483.5438,421.358824 464.8596,422.017647 C446.1548,422.635294 431.5082,438.302941 432.1468,456.997059 C432.806,475.670588 448.4826,490.308824 467.1462,489.691176 C485.851,489.032353 500.4976,473.364706 499.859,454.711765" id="Fill-8" fill="#FFFFFF"></path>
                    <path d="M325.995,562.841176 C358.9138,554.667647 378.9576,521.561765 370.7382,488.847059 C362.56,456.152941 329.2292,436.264706 296.331,444.417647 C263.4328,452.570588 243.4096,485.676471 251.5878,518.411765 C259.766,551.085294 293.0968,570.994118 325.995,562.841176" id="Fill-9" fill="#FFFFFF"></path>
                    <path d="M437.7088,569.779412 C446.4226,563.685294 448.5032,551.641176 442.3644,542.994118 C436.2256,534.367647 424.1128,532.288235 415.4196,538.382353 C406.7058,544.497059 404.6458,556.520588 410.7846,565.188235 C413.7716,569.367647 418.2212,572.167647 423.3094,573.032353 C428.3976,573.897059 433.5064,572.764706 437.7088,569.779412 M421.6202,557.570588 C419.6838,554.832353 420.343,551.085294 423.0622,549.170588 C425.802,547.235294 429.613,547.873529 431.5494,550.611765 C433.4446,553.329412 432.7854,557.097059 430.0868,559.011765 C428.7272,559.917647 427.141,560.267647 425.5342,560.020588 C423.948,559.732353 422.5472,558.888235 421.6202,557.570588" id="Fill-10" fill="#0C0E18"></path>
                    <path d="M468.65,572.311765 C442.8176,603.976471 400.6906,607.579412 400.2786,607.620588 L399.9696,607.641176 L399.6606,607.682353 C350.6326,615.279412 311.9664,591.479412 311.5956,591.211765 C308.1348,589.05 303.541,590.120588 301.378,593.558824 C299.1532,597.017647 300.2038,601.608824 303.644,603.811765 C305.395,604.882353 347.0276,630.720588 401.597,622.402941 C405.0166,622.135294 450.728,617.811765 480.1654,581.679412 C481.2572,580.341176 481.7928,578.755882 481.8546,577.170588 C481.8752,574.967647 480.9276,572.744118 479.0736,571.261765 C475.9218,568.647059 471.225,569.141176 468.65,572.311765" id="Fill-11" fill="#0C0E18"></path>
                    <path d="M294.5388,437.211765 C276.658,441.638235 261.5788,452.755882 252.1028,468.464706 C242.7092,484.111765 239.9488,502.497059 244.3778,520.182353 C253.5448,556.808824 290.9338,579.147059 327.7666,570.047059 C345.6474,565.6 360.7472,554.502941 370.2232,538.732353 C379.6374,523.105882 382.3978,504.720588 377.9482,487.035294 C368.7812,450.45 331.3716,428.070588 294.5388,437.211765 M258.7772,516.579412 C255.337,502.764706 257.4794,488.394118 264.8542,476.144118 C272.2702,463.791176 284.1152,455.061765 298.1644,451.623529 C327.025,444.438235 356.3594,461.979412 363.5282,490.658824 C364.4552,494.385294 365.0114,498.132353 365.135,501.879412 C365.4646,512.070588 362.869,522.179412 357.4924,531.073529 C350.0558,543.447059 338.252,552.176471 324.2028,555.614706 C295.3216,562.779412 265.9666,545.279412 258.7772,516.579412" id="Fill-12" fill="#0C0E18"></path>
                    <path d="M277.3172,533.297059 C289.4506,534.882353 300.5334,526.358824 302.1402,514.314706 C303.7058,502.25 295.198,491.214706 283.044,489.670588 C270.9312,488.085294 259.8072,496.588235 258.221,508.632353 C256.6554,520.697059 265.1838,531.732353 277.3172,533.297059" id="Fill-13" fill="#0C0E18"></path>
                    <path d="M425.5136,457.182353 C426.2758,479.5 445.063,497.020588 467.3522,496.238235 C489.662,495.497059 507.1926,476.741176 506.451,454.444118 C505.6682,432.167647 486.9222,414.626471 464.6124,415.367647 C442.282,416.129412 424.7308,434.905882 425.5136,457.182353 M437.5852,456.811765 C437.0496,441.185294 449.389,427.967647 465.0244,427.452941 C480.701,426.938235 493.885,439.229412 494.4206,454.897059 C494.9562,470.523529 482.6168,483.7 466.9814,484.235294 C451.3048,484.791176 438.1208,472.458824 437.5852,456.811765" id="Fill-14" fill="#0C0E18"></path>
                    <path d="M450.9134,475.032353 C459.0504,476.102941 466.5076,470.358824 467.5376,462.247059 C468.6088,454.094118 462.9026,446.661765 454.7038,445.591176 C446.5874,444.520588 439.1508,450.264706 438.0796,458.397059 C437.0496,466.529412 442.797,473.982353 450.9134,475.032353" id="Fill-15" fill="#0C0E18"></path>
                    <path d="M538.0308,460.579412 C529.1728,416.005882 503.8348,377.382353 466.4458,351.214706 L466.4664,351.214706 C466.4046,351.173529 466.3428,351.132353 466.281,351.091176 C464.839,350.082353 463.4176,349.032353 461.9344,348.064706 C456.3312,344.420588 450.5838,341.105882 444.7128,338.161765 C402.1738,315.35 332.381,293.114706 172.4426,358.152941 L201.9418,385.411765 L143.788,406.185294 L188.6754,435.297059 L136.4338,454.567647 L185.3794,489.279412 C169.1878,497.535294 157.899,514.088235 157.487,533.502941 C156.9102,561.605882 179.3024,584.952941 207.4008,585.508824 C211.6032,585.591176 215.682,585.117647 219.6372,584.232353 C257.3146,642.579412 328.0962,675.829412 400.4022,662.508824 C445.3102,654.211765 484.3678,629.279412 510.4062,592.220588 C537.4128,553.679412 547.239,506.902941 538.0308,460.579412 M207.6892,571.014706 C187.5836,570.602941 171.5568,553.905882 171.9894,533.791176 C172.319,519.194118 181.28,506.738235 193.8666,501.241176 C194.361,508.611765 195.3086,516.023529 196.7918,523.476471 C200.1084,540.338235 205.8764,556.129412 213.6014,570.623529 C211.665,570.891176 209.708,571.055882 207.6892,571.014706 M497.696,583.861765 C473.9854,617.647059 438.4092,640.397059 397.5182,647.932353 C311.2454,663.847059 227.218,606.9 210.12,521.005882 C203.5898,487.920588 207.8952,455.308824 220.6466,426.773529 L447.844,356.917647 C449.6774,358.029412 451.5108,359.161765 453.303,360.314706 C489.8062,384.258824 514.5468,420.864706 522.9722,463.338235 C531.4388,505.811765 522.416,548.655882 497.696,583.861765" id="Fill-16" fill="#0C0E18"></path>
                    <path d="M540.5852,388.438235 C534.8378,397.867647 537.7836,410.179412 547.1566,415.882353 C556.5708,421.688235 568.8484,418.764706 574.637,409.335294 C580.3844,399.926471 577.4592,387.635294 568.045,381.870588 C558.672,376.126471 546.3326,379.070588 540.5852,388.438235" id="Fill-17" fill="#FFFFFF"></path>
                    <path d="M342.5162,300.526471 L342.5574,300.547059 L341.5068,295.152941 L340.7652,285.147059 L339.2614,254.141176 L339.2408,253.708824 L339.0966,243.867647 L339.5704,238.905882 L339.5498,238.823529 C339.5498,238.555882 339.3438,238.35 339.0966,238.35 C339.0966,238.35 334.7088,238.555882 330.5476,238.782353 C326.3246,238.967647 321.978,239.194118 321.978,239.194118 C321.7514,239.194118 321.566,239.420588 321.566,239.688235 L321.5454,239.688235 L321.566,239.770588 L322.5136,244.65 L323.317,254.470588 L323.3582,254.923529 L324.8208,285.558824 L324.8414,285.908824 L325.1092,295.955882 L324.5324,301.432353 L324.5324,301.514706 C324.5324,301.802941 324.7796,302.029412 325.0474,302.008824 L325.8714,301.947059 L341.2802,301.205882 L342.1454,301.164706 C342.4132,301.164706 342.578,300.938235 342.578,300.65 C342.5986,300.608824 342.5162,300.567647 342.5162,300.526471" id="Fill-18" fill="#0C0E18"></path>
                    <path d="M418.4066,271.867647 C417.665,291.838235 398.9808,303.120588 380.0082,302.4 C375.5586,302.214706 374.714,302.091176 370.594,301.761765 C366.4946,301.452941 361.015,301.411765 361.015,301.411765 L360.1498,301.391176 C359.882,301.370588 359.6966,301.123529 359.6966,300.855882 C359.7172,300.794118 359.6966,300.773529 359.7172,300.732353 L359.6966,300.732353 L360.7678,295.214706 L361.4064,285.002941 L361.3858,284.611765 L362.5806,253.4 L362.6424,252.926471 L362.663,242.879412 L362.0862,237.835294 L362.1068,237.752941 C362.1068,237.485294 362.354,237.279412 362.5806,237.279412 C362.5806,237.279412 366.5564,237.464706 368.0602,237.485294 C370.2026,237.485294 377.3302,237.155882 382.0682,237.361765 C402.7712,238.308824 419.1894,251.402941 418.4066,271.867647 M382.3154,251.485294 C380.8322,251.423529 380.1524,251.505882 378.9782,251.691176 L378.8546,253.523529 L378.8546,254.017647 L377.6392,285.25 L377.6392,285.620588 L377.598,288.976471 C378.7104,289.182353 379.6786,289.367647 380.7498,289.408824 C390.6584,289.8 401.391,284.055882 401.8648,272.423529 C402.2974,260.255882 392.018,251.855882 382.3154,251.485294" id="Fill-19" fill="#0C0E18"></path>
                    <path d="M311.9252,301.35 L284.3624,274.811765 C290.3158,267.976471 296.743,261.573529 303.5822,255.705882 L303.5822,255.664706 C303.7058,255.561765 303.7882,255.376471 303.7676,255.211765 C303.7264,255.067647 303.644,254.964706 303.541,254.882353 L292.5406,243.929412 C292.3964,243.826471 292.2934,243.764706 292.1492,243.785294 C292.0874,243.826471 292.005,243.847059 291.9638,243.867647 C291.9638,243.867647 291.9638,243.867647 291.9226,243.867647 C281.396,253.152941 271.3432,263.982353 262.856,275.326471 L260.7342,263.632353 L260.6518,263.179412 L259.2304,253.441176 L259.0862,248.479412 L259.0656,248.376471 C259.0038,248.129412 258.7772,247.944118 258.53,247.964706 C258.53,247.964706 254.2452,248.747059 250.1252,249.508824 C245.964,250.270588 241.6792,251.032353 241.6792,251.032353 C241.432,251.073529 241.2672,251.320588 241.329,251.588235 L241.329,251.691176 L242.8946,256.385294 L244.9958,266.020588 L245.0576,266.452941 L250.5166,296.614706 L250.599,296.985294 L252.1234,306.908824 L252.2882,312.405882 L252.3088,312.405882 C252.3088,312.447059 252.2882,312.467647 252.2882,312.488235 C252.35,312.797059 252.5766,312.982353 252.8238,312.920588 L253.6684,312.776471 L268.8506,310.038235 L269.6952,309.873529 C269.9836,309.811765 270.1072,309.564706 270.066,309.317647 C270.066,309.255882 270.0248,309.235294 270.0248,309.194118 L270.0454,309.194118 L268.2738,304.005882 L267.079,298.158824 L267.2026,297.767647 C269.6128,293.958824 272.1878,290.252941 274.8452,286.629412 L292.9526,305.426471 L292.9526,305.405882 C293.0556,305.529412 293.2204,305.632353 293.344,305.591176 C293.3852,305.591176 293.3852,305.591176 293.4058,305.570588 L293.4058,305.591176 L311.7192,302.276471 L311.7192,302.255882 L311.7398,302.255882 C312.0282,302.235294 312.193,301.947059 312.1518,301.679412 C312.09,301.535294 312.0076,301.432353 311.9252,301.35" id="Fill-20" fill="#0C0E18"></path>
                    <path d="M484.5532,293.629412 C488.3024,266.102941 447.2878,270.817647 448.5444,261.923529 C449.3272,256.035294 465.8278,254.244118 477.6934,267.585294 C477.6934,267.605882 477.6934,267.605882 477.714,267.605882 C477.7964,267.667647 477.8788,267.729412 477.9818,267.75 C478.1672,267.75 478.2908,267.667647 478.4144,267.564706 L478.4144,267.544118 C480.1448,265.732353 486.6132,258.567647 487.9934,257.002941 C488.014,256.982353 488.014,256.982353 487.9934,256.941176 C488.0552,256.879412 488.0758,256.797059 488.0964,256.694118 C488.1376,256.591176 488.1376,256.447059 488.0552,256.364706 L488.0758,256.344118 L488.014,256.344118 L488.014,256.302941 C478.5174,240.408824 435.3192,233.285294 431.6936,259.844118 C428.1092,285.579412 470.298,284.282353 468.2792,292.435294 C466.4046,299.908824 445.0424,298.2 436.4728,284.344118 C436.3698,284.220588 436.2256,284.138235 436.1432,284.117647 C435.9784,284.117647 435.8548,284.138235 435.7312,284.241176 C433.7742,285.785294 426.214,292.229412 424.4424,293.814706 C424.3806,293.855882 424.4012,293.855882 424.3394,293.917647 C424.2982,294 424.257,294.082353 424.2158,294.185294 C424.2364,294.370588 424.2364,294.452941 424.3188,294.576471 C424.3188,294.576471 424.2982,294.597059 424.3188,294.597059 C441.1078,318.994118 480.8452,320.476471 484.5532,293.629412" id="Fill-21" fill="#0C0E18"></path>
                    <path d="M662.8668,576.120588 C672.9814,576.120588 681.4686,584.108824 681.4686,594.732353 C681.4686,605.335294 672.9814,613.323529 662.8668,613.323529 C652.711,613.323529 644.2444,605.335294 644.2444,594.732353 C644.2444,584.108824 652.711,576.120588 662.8668,576.120588 L662.8668,576.120588 Z M662.8668,610.626471 C671.3746,610.626471 678.1726,603.729412 678.1726,594.732353 C678.1726,585.735294 671.3746,578.817647 662.8668,578.817647 C654.2972,578.817647 647.561,585.735294 647.561,594.732353 C647.561,603.729412 654.2972,610.626471 662.8668,610.626471 L662.8668,610.626471 Z M655.7598,583.820588 L663.9586,583.820588 C669.1086,583.820588 671.5806,585.879412 671.5806,590.017647 C671.5806,593.970588 669.0674,595.638235 665.8126,595.988235 L672.075,605.582353 L668.5112,605.582353 L662.6196,596.235294 L659.0558,596.235294 L659.0558,605.582353 L655.7598,605.582353 L655.7598,583.820588 L655.7598,583.820588 Z M659.0558,593.517647 L662.4548,593.517647 C665.4212,593.517647 668.264,593.373529 668.264,589.873529 C668.264,586.888235 665.6684,586.517647 663.4024,586.517647 L659.0558,586.517647 L659.0558,593.517647 L659.0558,593.517647 Z" id="Fill-22" fill="#0C0E18"></path>
                </g>
                <path d="M126.696,793.13 C114.284,792.06 102.728,791.846 90.316,791.846 C85.608,791.846 78.974,792.06 74.266,792.488 L73.838,822.876 C78.546,822.234 82.826,822.234 87.32,822.448 L87.32,838.07 L84.966,838.07 C62.282,838.712 55.648,826.942 55.648,804.9 C55.648,784.57 69.13,774.726 87.534,774.726 C97.592,774.726 106.794,778.792 115.782,783.286 C120.918,768.52 124.128,752.256 126.482,736.848 C113.214,733.21 96.95,730.642 81.542,730.642 C41.096,730.642 6,758.248 6,801.69 C6,860.754 30.396,881.94 86.892,881.94 C100.588,881.94 117.708,875.948 128.622,867.602 L126.696,793.13 Z M262.014,805.97 C257.306,791.418 235.906,732.14 235.906,732.14 C223.922,731.498 192.036,732.996 192.036,732.996 C192.036,732.996 172.562,784.356 164.43,807.254 C158.866,822.448 138.536,877.874 138.536,877.874 L187.756,884.08 C189.682,874.878 192.464,865.89 194.39,857.972 L229.486,858.186 C230.984,866.104 232.696,877.446 233.124,883.01 C233.124,883.224 287.052,878.302 287.052,878.302 C287.052,878.302 266.936,820.522 262.014,805.97 Z M191.452,825.444 L204.934,776.866 L214.992,825.23 L191.452,825.444 Z M469.372,881.084 C471.084,844.062 466.376,733.21 466.376,733.21 L428.712,732.14 L381.846,807.468 C380.134,802.546 337.762,732.14 337.762,732.14 C337.762,732.14 327.062,731.712 319.358,731.712 C310.156,731.926 300.74,732.782 300.74,732.782 C298.814,754.61 295.39,879.8 295.39,879.8 C303.308,880.228 341.4,879.158 341.4,879.158 C341.4,879.158 342.47,828.868 342.256,822.876 C345.68,827.798 367.508,877.018 369.434,880.656 L391.048,880.014 C394.258,875.092 421.436,825.444 422.934,823.09 C422.934,830.58 423.362,880.014 423.362,880.014 C431.922,880.228 469.372,881.084 469.372,881.084 L469.372,881.084 Z M590.562,834.432 C569.804,835.93 543.696,835.288 531.284,834.432 L531.284,821.378 C538.988,820.95 568.306,820.522 574.512,820.522 C574.94,820.522 575.368,811.748 575.368,801.69 C575.368,792.488 574.512,785.426 573.87,783.714 C573.87,783.714 555.038,783.928 549.688,784.142 C546.264,784.356 532.568,784.142 528.93,784.57 L528.716,770.874 C549.474,769.804 568.734,768.306 590.562,770.874 L590.562,732.354 C590.562,732.354 552.256,731.712 540.058,732.14 C526.576,732.568 486.558,732.996 486.558,732.996 C486.986,768.948 488.27,807.04 488.698,833.79 C489.126,860.112 488.912,880.014 488.912,880.014 C488.912,880.014 520.584,880.442 533.852,880.228 C547.334,879.8 590.562,879.8 590.562,879.8 L590.562,834.432 Z M715.102,840.21 C715.102,817.954 699.48,804.472 684.714,795.484 C677.224,790.99 669.948,787.566 664.384,784.57 C659.89,782.002 656.466,780.504 656.466,778.364 C656.466,772.586 665.026,772.8 669.306,772.8 C681.29,772.8 692.846,777.08 706.97,783.286 L714.674,740.272 C698.196,732.996 680.434,730 664.17,730 C634.424,730 604.678,741.77 604.678,776.652 C604.678,798.052 618.802,809.394 632.07,817.098 C638.704,820.95 645.124,823.946 650.046,827.156 C654.968,830.152 657.108,832.72 657.108,835.288 C657.108,839.568 648.976,839.782 645.766,839.782 C642.342,839.782 635.922,838.284 629.074,836.358 C622.226,834.432 615.378,832.078 608.53,829.938 L603.394,875.306 C620.086,881.512 641.7,882.368 657.108,882.368 C682.574,882.368 715.102,872.096 715.102,840.21 L715.102,840.21 Z" id="GAMES" fill="#FFFFFF"></path>
            </g>
        </g>
    </g>
</svg>