<svg xmlns="http://www.w3.org/2000/svg" viewBox="0 0 837 368"><defs><style>.cls-1{fill:#007da3;}.cls-2{fill:#fff;}.cls-3{fill:#a5cd39;}.cls-4{fill:#040516;}</style></defs><g id="Layer_2" data-name="Layer 2"><g id="Logo_for_Adults_Artboard" data-name="Logo for Adults Artboard"><rect class="cls-1" width="837" height="368"/><path class="cls-2" d="M299.67,246h17.9l-.24-32c1.94,5,6.92,8.27,13.33,8.6v.06c.19,0,.37,0,.56,0s.32,0,.49,0a19.78,19.78,0,0,0,7-1.27c11.09-3.64,18.27-14.69,18.27-27.76a34.58,34.58,0,0,0-.44-5.57c-2.28-13.91-13.32-23.67-27.45-23.67-6.09,0-10.4,2.72-14.15,6l-.21-5.83H299.3C300.34,176.13,299.91,219.63,299.67,246Zm30.54-40.29c-5.29,0-9.57-5.86-9.57-13.1s4.28-13.09,9.57-13.09,9.57,5.86,9.57,13.09S335.49,205.71,330.21,205.71Z"/><path class="cls-2" d="M494.22,164.1c-15.79,0-25.81,14-25.81,29.63,0,19,10.54,29.26,28.81,29.26,8.15,0,15.27-4.66,20.12-10.45L508.88,203a20.78,20.78,0,0,1-6.25,3.15,20.13,20.13,0,0,1-5.52.88c-6.31,0-9.26-4.3-10.91-9l34-.44C522.3,179.21,512.59,164.1,494.22,164.1Zm-6.49,22.14a8.45,8.45,0,1,1,16.89,0Z"/><path class="cls-2" d="M443.71,164.61c-.17,2.78-.17,3.65-.16,6.46,0-.32,2.05-1.58,2.35-1.78a27.45,27.45,0,0,1,2.53-1.58,27,27,0,0,1,5.3-2.27,25.62,25.62,0,0,1,11.31-.83,15.73,15.73,0,0,1,4.95,1.24,92.68,92.68,0,0,0-8.81,17.74c-6.22-1.83-11,.25-15.5,4.95a4.65,4.65,0,0,0-1,1.46,5.4,5.4,0,0,0-.28,2c-.13,9.37-.06,21.07.19,30.43H428.21c-.42,0-.62-34.41-.6-37.5l.5-18.49c0-.64,0-1.91,0-1.91Z"/><path class="cls-2" d="M579.39,222.68H562c.11-5.74.32-16.9.32-22.64,0-5.95.5-17.71-7.13-17.71-2.62,0-5.09.39-7.13,2a17,17,0,0,0-3.7,4,7.42,7.42,0,0,0-1.06,4.57c0,2,.1,4,.13,6.07.06,4.13,0,7.86.13,11.91.1,3.79.2,8,.3,11.8H526.91l-.76-58H542.6l-.48,8.83c3.18-6.17,11.29-10,18.07-10,11.34,0,18.78,10.2,18.89,20.51Z"/><path class="cls-2" d="M629.87,216.15c-4.47,4.94-12,6.87-17.13,6.87-13.83,0-19.57-9.72-19.57-21.83,0-6.83.5-14.62.71-21.45l-9.32-.23-.91-15h10.76l.4-22,18.24-1-.72,23H631l-2.17,15.39-17.07,0c-.21,5.08-.48,11-.48,16,0,5.69.5,11.24,4.93,11.33s6.83-2.62,8.61-4.71"/><path class="cls-2" d="M420,164.61H404.55l-.21,5.83c-3.75-3.31-8.06-6-14.15-6-14.13,0-25.17,9.76-27.45,23.67a34.59,34.59,0,0,0-.45,5.57c0,13.07,7.19,24.12,18.28,27.76a19.74,19.74,0,0,0,7,1.27c.17,0,.32,0,.48,0s.38,0,.57,0v-.06c6.41-.33,10.89-3.55,12.83-8.6l.26,8.45h17.9C417.69,211.19,419,176.13,420,164.61Zm-30.9,41.1c-5.29,0-9.57-5.86-9.57-13.1s4.28-13.09,9.57-13.09,9.57,5.86,9.57,13.09S394.39,205.71,389.11,205.71Z"/><path class="cls-2" d="M309.51,128.83a11.31,11.31,0,0,1,3.07.65l.74.23,1.56-6.35-1.07-.31a19.32,19.32,0,0,0-5.89-1,8.77,8.77,0,0,0-6.38,2.45,8,8,0,0,0-2.15,6l0,1.51H295v.46c0,1.87.06,3.48.14,5.33l.05,1.13h4.43c.06,3,.08,6.23.09,9.39,0,2.52,0,5,.07,7.33v.52l.51-.08c1.62-.24,3.52-.4,4.9-.52,2.29-.2,2.33-.21,2.31-.69l-.45-16.08,6.76-.09.19-6.7h-7.1l0-1a1.89,1.89,0,0,1,.48-1.41A2.9,2.9,0,0,1,309.51,128.83Z"/><path class="cls-2" d="M363.76,131.36c-.45-.55-3.36-.48-3.39-.47a14,14,0,0,0-3.79.79,16.74,16.74,0,0,0-2.1.95c-.13.08-.35.25-.6.44l-.52.39c0-.61.08-1.66.13-2.24l.07-1-7.62.28c-.47,0-.57,0-.76,4.17-.13,2.58-.19,5.59-.17,8.25,0,6,.44,12.19.45,12.25l0,.43h8.41v-.47c-.1-3-.19-11.75,0-12.81a7.82,7.82,0,0,1,5.27-2.57,8.78,8.78,0,0,1,2.05.26l.45.12.11-.45c.17-.7.36-1.39.55-2.09s.41-1.48.59-2.23.38-1.44.58-2.16l.39-1.41,0-.28Z"/><path class="cls-2" d="M328.77,130.65h-.43c-4.32-.09-7.79,2.23-9.65,6.46a12.87,12.87,0,0,0-1.36,5.78,1.7,1.7,0,0,0,0,.22v.23c0,.11,0,.22,0,.32,0,6,3.45,12,11.17,12a9.28,9.28,0,0,0,7.62-3.37,12.53,12.53,0,0,0,4.1-9.37C340.22,136.14,335.08,130.65,328.77,130.65Zm4.48,12.3a4.49,4.49,0,1,1-4.48-4.84A4.67,4.67,0,0,1,333.25,143Z"/><path class="cls-2" d="M677.11,171.92a33.37,33.37,0,0,0-17.28-7.57c-6.45-.69-12.32.89-16.55,4.46a19,19,0,0,0-6.52,13.49c-.55,9,5,14.81,18.74,19.31,4,1.33,5.22,3.25,5,4.61-.28,1.51-2.16,2.51-4.28,2.47a16.69,16.69,0,0,1-9.48-3.69c-.08-.11-1.42-1.17-1.42-1.17s-.61.61-1,1.07l-7.22,8.47c-.09.13-1,1.08-1,1.08a14.78,14.78,0,0,0,1.12,1.28c4.16,4.09,9.92,6.66,17.28,7.12.58,0,1.15.05,1.71.05,11.23,0,19.5-7,20.36-17.53.92-11.17-8-15.63-15.93-18.26-6.78-2.26-7.56-4-7.43-5.33a2.8,2.8,0,0,1,1.7-2c1.31-.64,5.12-1.63,12.42,2.9l2.11,1.2,2.14-2.33c.82-1,2.41-2.91,5.78-6.85a16.93,16.93,0,0,0,1.11-1.48s-.92-1-1.19-1.16Z"/><path class="cls-2" d="M219.59,122c-33.74,0-61.09,27.69-61.09,61.86s27.35,61.86,61.09,61.86,61.08-27.7,61.08-61.86S253.32,122,219.59,122"/><path class="cls-2" d="M219.59,128a55.82,55.82,0,1,0,55.81,55.82A55.82,55.82,0,0,0,219.59,128"/><path class="cls-3" d="M219.55,130a53.8,53.8,0,1,0,53.73,53.8A53.76,53.76,0,0,0,219.55,130"/><path class="cls-2" d="M180.42,159.66c0-6.69,3.68-12.78,9.65-17.44a49.66,49.66,0,0,1,58.77-.21c6.4,4.81,10.28,11.2,10.24,18.2-.06,7.9-5.12,15-13.14,19.83h0a49.63,49.63,0,0,1-56.86-3.44c-5.47-4.64-8.71-10.55-8.67-16.94"/><path class="cls-4" d="M226.9,150.42c2-1.09,2.35-4,2.35-4.95,0-4.05-3.12-6.75-8.7-6.75a36.46,36.46,0,0,0-7.64.94h0a.38.38,0,0,0-.29.37.34.34,0,0,0,0,.1c.85,5.16.81,13.21.12,21.36a.29.29,0,0,0,0,.09.39.39,0,0,0,.32.37,49,49,0,0,0,8.16.83c5.29,0,9.26-2.91,9.25-7.1a5.21,5.21,0,0,0-3.56-5.26m-6.41-6.75c2,0,3.34,1,3.36,2.53.05,2.83-4.61,2.4-5,2.32l0-4.64s.24-.21,1.65-.21M221,158a8.77,8.77,0,0,1-2.16-.24v-4.74s1.14-.13,1.78-.13c1.72,0,3.86.61,3.83,2.33,0,1.43-.49,2.78-3.46,2.78"/><path class="cls-4" d="M198.73,141.52a32.22,32.22,0,0,0-6.5,2.21h0a.33.33,0,0,0-.19.47c1.65,3.85,4.53,16.88,4.95,21.24h0a.37.37,0,0,0,.45.37l5.46-1.66a.37.37,0,0,0,.29-.44l0,0c0-.11-.06-.25-.11-.47l-.29-1.13-.9-4.09,1.5-.3c5.91-1.37,9-5.86,8-10.59s-6.09-7.08-12.59-5.58m2.86,11.28a7.68,7.68,0,0,1-.92.14l-1.39-6.11s1.1-.36,1.56-.47c2.33-.54,4.07.5,4.49,2.36s-.76,3.39-3.74,4.08"/><path class="cls-4" d="M244.11,148.18a1.38,1.38,0,0,0,.5.25.28.28,0,0,0,.24-.08h0c.34-.28,0,.05,3-3.47a.4.4,0,0,0,.12-.21.43.43,0,0,0-.13-.34,13.78,13.78,0,0,0-7.09-3.13c-5.24-.57-8.92,2.56-9.21,7.13-.23,3.82,2.4,6,7.56,7.68,3.68,1.21,2.43,3.75.16,3.65a9.22,9.22,0,0,1-5-2.39.28.28,0,0,0-.2-.1.36.36,0,0,0-.33.12l-3,3.41a1,1,0,0,0-.1.21.34.34,0,0,0,.12.32,12,12,0,0,0,7.85,3.6c4.91.3,8.46-2.61,8.81-7,.38-4.6-3.59-6.29-6.39-7.23-2.41-.8-3.43-1.55-3.33-2.6s2.12-2.57,6.45.13"/><path class="cls-2" d="M255.18,187.8a6.22,6.22,0,1,0-3.33-8.14,6.19,6.19,0,0,0,3.33,8.14"/><path class="cls-2" d="M242.63,202.5a5.65,5.65,0,1,0-5.46,5.85,5.66,5.66,0,0,0,5.46-5.85"/><path class="cls-2" d="M213.64,220.59a10.21,10.21,0,1,0-12.41-7.43,10.22,10.22,0,0,0,12.41,7.43"/><path class="cls-4" d="M232.27,221.75a3.22,3.22,0,1,0-4.49-.77,3.15,3.15,0,0,0,2.08,1.31,3.18,3.18,0,0,0,2.41-.54m-2.69-2a1,1,0,0,1,1.66-1.17A1,1,0,0,1,231,220a1.05,1.05,0,0,1-.75.17,1,1,0,0,1-.66-.41"/><path class="cls-4" d="M237.42,222.17c-4.3,5.3-11.33,5.9-11.4,5.91h-.1a23.41,23.41,0,0,1-14.68-2.75,1.24,1.24,0,0,0-1.33,2.1,25.48,25.48,0,0,0,16.33,3.11c.57,0,8.2-.77,13.1-6.81a1.15,1.15,0,0,0,.28-.76,1.24,1.24,0,0,0-2.2-.81"/><path class="cls-4" d="M208.39,199.57a11.45,11.45,0,1,0,13.91,8.34,11.4,11.4,0,0,0-13.91-8.34m-6,13.28A9,9,0,0,1,209,202a9,9,0,0,1,10.89,6.53,8.61,8.61,0,0,1,.27,1.88,9,9,0,0,1-6.82,9,9,9,0,0,1-10.91-6.53"/><path class="cls-4" d="M205.52,215.65a3.68,3.68,0,1,0-3.18-4.13,3.7,3.7,0,0,0,3.18,4.13"/><path class="cls-4" d="M230.23,202.91a6.75,6.75,0,1,0,6.52-7,6.77,6.77,0,0,0-6.52,7m2-.06a4.74,4.74,0,1,1,4.9,4.59,4.76,4.76,0,0,1-4.9-4.59"/><path class="cls-4" d="M234.47,205.9a2.49,2.49,0,1,0-2.14-2.79,2.47,2.47,0,0,0,2.14,2.79"/><path class="cls-4" d="M249,203.48a29.12,29.12,0,0,0-11.93-18.3h0l0,0c-.24-.17-.48-.34-.73-.5a28.45,28.45,0,0,0-2.87-1.66c-7.09-3.82-18.73-7.54-45.39,3.34l4.91,4.57-9.69,3.47,7.48,4.87L182,202.47l8.16,5.81a8.51,8.51,0,0,0,3.67,16.1,8.13,8.13,0,0,0,2-.21A29.57,29.57,0,0,0,226,237.26a28.61,28.61,0,0,0,23-33.78M193.91,222a6.09,6.09,0,0,1-2.3-11.67,29.58,29.58,0,0,0,.48,3.72,28.72,28.72,0,0,0,2.81,7.89,5.43,5.43,0,0,1-1,.06m48.36,2.16a26,26,0,0,1-16.71,10.71,27,27,0,0,1-31.24-21.23,26.2,26.2,0,0,1,1.75-15.76L234,186.14l.91.57a26.69,26.69,0,0,1,11.61,17.23,26.06,26.06,0,0,1-4.21,20.17"/><path class="cls-2" d="M249.42,191.41a3.34,3.34,0,0,0,1.09,4.59,3.31,3.31,0,0,0,4.58-1.09,3.33,3.33,0,1,0-5.67-3.5"/><path class="cls-4" d="M216.39,176.71h0l-.18-.91-.12-1.67v-.06l-.25-5.13v-.07l0-1.64.08-.84h0a.09.09,0,0,0-.08-.08l-1.42.07-1.43.07a.08.08,0,0,0-.07.09h0l.16.82.13,1.64v.08l.24,5.12v.06l0,1.68-.1.92h0a.08.08,0,0,0,.09.08h.14l2.57-.12h.14s.07,0,.07-.09h0"/><path class="cls-4" d="M229.05,171.91c-.13,3.34-3.24,5.23-6.4,5.11-.75,0-.89-.05-1.58-.11s-1.59-.06-1.59-.06h-.15a.1.1,0,0,1-.07-.09v0h0l.18-.93.1-1.7V174l.2-5.22v-1.76l-.09-.84v0a.09.09,0,0,1,.08-.08l.91,0c.36,0,1.55-.06,2.34,0,3.45.15,6.19,2.34,6.06,5.77m-6-3.41a2,2,0,0,0-.56,0l0,.3v.08l-.2,5.23v.62a3.4,3.4,0,0,0,.53.08,3.16,3.16,0,0,0,3.52-2.85,3.44,3.44,0,0,0-3.26-3.5"/><path class="cls-4" d="M211.29,176.84l-4.59-4.44a32.22,32.22,0,0,1,3.2-3.2h0a.11.11,0,0,0,0-.08.09.09,0,0,0,0-.05l-1.84-1.84-.07,0,0,0h0a35.11,35.11,0,0,0-4.85,5.26l-.35-2,0-.07-.23-1.63,0-.83v0a.1.1,0,0,0-.09-.07l-1.4.26-1.41.25a.08.08,0,0,0-.06.1h0l.26.79.35,1.61V171l.91,5.05,0,.06.25,1.66,0,.92h0c0,.06.05.09.09.08h0l.14,0,2.53-.45.14,0a.08.08,0,0,0,.06-.1h0l-.3-.88-.19-1v-.07c.41-.63.84-1.25,1.28-1.86l3,3.14h0s0,0,.06,0h0l3.06-.55h0c.05,0,.07-.05.07-.09s0,0,0-.06"/><path class="cls-4" d="M240.07,175.55c.63-4.61-6.21-3.82-6-5.31.13-1,2.88-1.28,4.86.95h0l0,0a.09.09,0,0,0,.07,0h0c.29-.31,1.37-1.51,1.6-1.77h0s0,0,0,0a.13.13,0,0,0,0-.06h0c-1.58-2.66-8.78-3.86-9.39.59-.6,4.3,6.44,4.09,6.1,5.45s-3.87,1-5.3-1.35c0,0,0,0-.06,0a.1.1,0,0,0-.07,0c-.32.26-1.58,1.33-1.88,1.6v0a.05.05,0,0,0,0,0,.15.15,0,0,0,0,.07h0c2.8,4.08,9.43,4.33,10-.16"/><path class="cls-4" d="M272.74,228.78a6.89,6.89,0,1,1-6.88,6.89A6.83,6.83,0,0,1,272.74,228.78Zm0,12.77a5.9,5.9,0,1,0-5.65-5.88A5.71,5.71,0,0,0,272.74,241.55Zm-2.63-9.92h3c1.9,0,2.81.76,2.81,2.3a2.08,2.08,0,0,1-2.13,2.2l2.31,3.56h-1.31l-2.17-3.47h-1.32v3.47h-1.22Zm1.22,3.59h1.26c1.09,0,2.14-.05,2.14-1.35,0-1.11-1-1.24-1.79-1.24h-1.61Z"/></g></g></svg>