<?xml version="1.0" encoding="utf-8"?>
<!-- Generator: Adobe Illustrator 14.0.0, SVG Export Plug-In . SVG Version: 6.00 Build 43363)  -->
<!DOCTYPE svg PUBLIC "-//W3C//DTD SVG 1.1//EN" "http://www.w3.org/Graphics/SVG/1.1/DTD/svg11.dtd">
<svg version="1.1" id="Layer_1" xmlns="http://www.w3.org/2000/svg" xmlns:xlink="http://www.w3.org/1999/xlink" x="0px" y="0px"
	 width="145.468px" height="145.46px" viewBox="0 0 145.468 145.46" enable-background="new 0 0 145.468 145.46"
	 xml:space="preserve">
<g>
	<path fill="#FFFFFF" d="M72.733,0C32.562,0,0,32.561,0,72.734c0,40.168,32.562,72.726,72.733,72.726
		c40.165,0,72.734-32.558,72.734-72.726C145.468,32.561,112.898,0,72.733,0"/>
	<path fill="#99CC00" d="M73.426,4.723c-37.562,0-68.012,30.447-68.012,68.012c0,37.558,30.45,68.002,68.012,68.002
		c37.558,0,68.009-30.444,68.009-68.002C141.435,35.169,110.983,4.723,73.426,4.723"/>
	<path fill="#FFFFFF" d="M23.862,42.199c0.055-8.442,4.654-16.135,12.212-22.009C46.75,12.356,59.832,7.788,73.945,7.903
		c13.593,0.112,26.156,4.542,36.499,12.012c8.092,6.077,13.007,14.144,12.951,22.968c-0.062,9.973-6.472,18.9-16.614,25.024
		l0.006,0.003c-9.76,5.971-21.178,9.358-33.365,9.262c-14.526-0.111-27.89-5.17-38.596-13.598
		C27.915,57.712,23.811,50.266,23.862,42.199"/>
	<path fill="#0A0B1D" d="M82.675,30.529c2.51-1.377,2.976-5.079,2.981-6.242c-0.006-5.112-3.948-8.52-11.011-8.517
		c-2.643-0.004-5.578,0.332-9.676,1.187v0.002c-0.21,0.044-0.364,0.239-0.367,0.47c0.002,0.037,0.006,0.079,0.014,0.117
		c1.077,6.516,1.026,16.679,0.156,26.961c-0.014,0.034-0.019,0.071-0.019,0.112c0,0.235,0.177,0.431,0.401,0.46
		c2.533,0.56,7.541,1.059,10.327,1.059c6.69-0.004,11.713-3.672,11.704-8.959C87.19,33.856,85.701,31.84,82.675,30.529
		 M74.564,22.014c2.521,0.003,4.232,1.311,4.259,3.192c0.06,3.578-5.844,3.026-6.302,2.926l-0.048-5.854
		C72.439,22.283,72.786,22.014,74.564,22.014 M75.236,40.146c-0.981,0.004-1.87-0.083-2.729-0.3l0.008-5.972
		c0,0,1.444-0.176,2.254-0.172c2.183,0.003,4.892,0.765,4.847,2.946C79.586,38.445,78.996,40.15,75.236,40.146"/>
	<path fill="#0A0B1D" d="M47.027,19.303c-2.95,0.674-6.148,1.762-8.224,2.792c-0.006,0-0.006,0.002-0.01,0.002
		c-0.461,0.175-0.242,0.583-0.24,0.589c2.091,4.862,5.737,21.305,6.265,26.797v0.004c-0.005,0.041,0.004,0.077,0.013,0.123
		c0.057,0.247,0.308,0.409,0.555,0.35c0.007,0,6.905-2.096,6.908-2.1c0.26-0.055,0.417-0.302,0.362-0.557
		c-0.008-0.011-0.013-0.021-0.015-0.029c-0.032-0.14-0.074-0.318-0.14-0.602l-0.372-1.42l-1.133-5.158c0,0,1.773-0.364,1.898-0.391
		c7.476-1.717,11.436-7.388,10.071-13.354C61.557,20.212,55.257,17.408,47.027,19.303 M50.646,33.536
		c-0.548,0.131-1.165,0.181-1.157,0.179l-1.765-7.711c0,0,1.396-0.459,1.983-0.597c2.949-0.673,5.14,0.627,5.677,2.986
		C55.947,30.827,54.426,32.671,50.646,33.536"/>
	<path fill="#0A0B1D" d="M104.455,27.706c0.078,0.091,0.502,0.305,0.627,0.316c0.219,0.014,0.307-0.097,0.307-0.097
		c0-0.005,0-0.005,0-0.005c0.443-0.352-0.039,0.065,3.768-4.375c0.074-0.065,0.122-0.162,0.148-0.272
		c0.04-0.213-0.151-0.428-0.163-0.419c-0.027,0.026-3.646-3.387-8.973-3.958c-6.632-0.713-11.287,3.232-11.648,9
		c-0.295,4.819,3.024,7.544,9.556,9.687c4.663,1.531,3.081,4.739,0.211,4.61c-1.837-0.083-4.643-1.358-6.387-3.02
		c0,0-0.067-0.093-0.256-0.123c-0.166-0.029-0.326,0.039-0.422,0.159l-3.732,4.298c0,0.004-0.104,0.159-0.13,0.262
		c-0.047,0.258,0.155,0.409,0.155,0.413c2.656,2.756,6.316,4.313,9.936,4.54c6.212,0.384,10.697-3.292,11.144-8.766
		c0.48-5.815-4.537-7.946-8.079-9.126c-3.053-1.016-4.347-1.958-4.221-3.28C96.431,26.227,98.974,24.302,104.455,27.706"/>
	<path fill="#FFFFFF" d="M118.463,77.712c4.002,1.667,8.602-0.218,10.271-4.223c1.68-4-0.209-8.6-4.21-10.272
		c-3.999-1.674-8.607,0.212-10.276,4.213C112.573,71.434,114.459,76.036,118.463,77.712"/>
	<path fill="#FFFFFF" d="M102.582,96.256c-0.136-3.947-3.443-7.039-7.384-6.903c-3.944,0.133-7.037,3.442-6.903,7.384
		c0.138,3.944,3.441,7.036,7.383,6.903C99.626,103.503,102.719,100.194,102.582,96.256"/>
	<path fill="#FFFFFF" d="M65.894,119.081c6.947-1.719,11.172-8.711,9.447-15.618c-1.73-6.904-8.761-11.104-15.702-9.379
		c-6.942,1.72-11.171,8.706-9.443,15.618C51.925,116.603,58.953,120.805,65.894,119.081"/>
	<path fill="#0A0B1D" d="M89.473,120.55c1.832-1.287,2.272-3.83,0.977-5.655c-1.294-1.822-3.854-2.264-5.686-0.975
		c-1.838,1.29-2.272,3.83-0.975,5.659c0.628,0.884,1.565,1.473,2.642,1.657C87.501,121.418,88.583,121.178,89.473,120.55
		 M86.074,117.968c-0.41-0.576-0.27-1.365,0.305-1.772c0.575-0.405,1.38-0.272,1.786,0.306c0.403,0.572,0.263,1.371-0.306,1.776
		c-0.284,0.191-0.62,0.265-0.96,0.21C86.563,118.428,86.272,118.247,86.074,117.968"/>
	<path fill="#0A0B1D" d="M95.996,121.082c-5.451,6.688-14.343,7.445-14.428,7.457l-0.063,0.002l-0.066,0.009
		c-10.345,1.608-18.504-3.42-18.581-3.477c-0.73-0.453-1.696-0.232-2.157,0.496c-0.466,0.729-0.245,1.699,0.48,2.161
		c0.369,0.229,9.153,5.686,20.668,3.929c0.72-0.059,10.363-0.969,16.574-8.596c0.236-0.286,0.346-0.618,0.357-0.954
		c0.004-0.468-0.196-0.936-0.585-1.25C97.529,120.31,96.542,120.413,95.996,121.082"/>
	<path fill="#0A0B1D" d="M59.261,92.559c-3.774,0.935-6.955,3.285-8.957,6.602c-1.983,3.307-2.562,7.184-1.631,10.914
		c1.937,7.735,9.828,12.452,17.6,10.531c3.773-0.941,6.956-3.279,8.957-6.612c1.989-3.299,2.567-7.177,1.63-10.911
		C74.923,95.353,67.031,90.633,59.261,92.559 M51.715,109.314c-0.729-2.915-0.277-5.947,1.279-8.538
		c1.565-2.604,4.065-4.445,7.027-5.174c6.089-1.516,12.283,2.185,13.793,8.244c0.201,0.784,0.315,1.579,0.341,2.365
		c0.07,2.154-0.48,4.283-1.611,6.165c-1.573,2.612-4.063,4.454-7.025,5.185C59.425,119.07,53.231,115.376,51.715,109.314"/>
	<path fill="#0A0B1D" d="M55.627,112.85c2.56,0.327,4.894-1.469,5.234-4.011c0.333-2.546-1.464-4.877-4.028-5.203
		c-2.554-0.332-4.901,1.462-5.234,4.004C51.266,110.189,53.067,112.518,55.627,112.85"/>
	<path fill="#0A0B1D" d="M86.892,96.776c0.163,4.709,4.13,8.413,8.831,8.246c4.708-0.158,8.409-4.117,8.251-8.825
		c-0.163-4.701-4.122-8.405-8.832-8.247C90.434,88.109,86.733,92.076,86.892,96.776 M89.442,96.695
		c-0.109-3.298,2.49-6.084,5.789-6.195c3.31-0.111,6.092,2.488,6.202,5.794c0.114,3.302-2.487,6.084-5.788,6.195
		C92.335,102.603,89.554,100.002,89.442,96.695"/>
	<path fill="#0A0B1D" d="M92.254,100.549c1.715,0.22,3.288-0.99,3.51-2.703c0.224-1.719-0.982-3.292-2.705-3.516
		c-1.717-0.226-3.288,0.989-3.517,2.7C89.328,98.748,90.537,100.322,92.254,100.549"/>
	<path fill="#0A0B1D" d="M110.638,97.493c-1.869-9.41-7.219-17.564-15.107-23.092h0.002c-0.014-0.008-0.023-0.015-0.035-0.021
		c-0.307-0.215-0.602-0.432-0.92-0.643c-1.18-0.768-2.395-1.464-3.63-2.089c-8.979-4.814-23.705-9.508-57.45,4.221l6.224,5.757
		L27.453,86.01l9.468,6.144l-11.022,4.073l10.33,7.325c-3.418,1.741-5.801,5.242-5.888,9.343
		c-0.123,5.928,4.604,10.854,10.532,10.978c0.891,0.017,1.747-0.086,2.58-0.271c7.952,12.314,22.889,19.339,38.138,16.522
		c9.481-1.748,17.722-7.018,23.214-14.839C110.508,117.151,112.58,107.278,110.638,97.493 M40.938,120.809
		c-4.246-0.086-7.625-3.612-7.536-7.855c0.067-3.085,1.957-5.713,4.617-6.877c0.103,1.556,0.306,3.123,0.615,4.696
		c0.703,3.562,1.918,6.892,3.544,9.954C41.773,120.786,41.363,120.815,40.938,120.809 M102.128,123.523
		c-5.009,7.132-12.514,11.937-21.139,13.522c-18.205,3.358-35.936-8.663-39.542-26.795c-1.381-6.984-0.468-13.869,2.221-19.896
		l47.941-14.748c0.384,0.236,0.771,0.477,1.151,0.721c7.701,5.055,12.922,12.78,14.699,21.75
		C109.241,107.045,107.345,116.085,102.128,123.523"/>
	<path fill="#FFFFFF" d="M111.175,82.265c-1.214,1.993-0.587,4.59,1.388,5.793c1.989,1.229,4.575,0.605,5.798-1.381
		c1.216-1.987,0.591-4.581-1.392-5.799C114.989,79.663,112.389,80.282,111.175,82.265"/>
	<path fill="#0A0B1D" d="M69.383,63.706l0.008,0.003l-0.222-1.14l-0.156-2.112l-0.004-0.081l-0.313-6.464L68.69,53.82l-0.03-2.078
		l0.1-1.047l-0.002-0.018c-0.002-0.056-0.042-0.1-0.096-0.1c0,0-0.927,0.044-1.804,0.089c-0.89,0.044-1.809,0.092-1.809,0.092
		c-0.047,0-0.086,0.044-0.088,0.103h-0.004l0.006,0.018l0.198,1.029l0.17,2.071l0.007,0.1l0.308,6.464l0.004,0.078l0.055,2.122
		l-0.118,1.15c0,0.011-0.002,0.015,0,0.018c0,0.064,0.05,0.107,0.105,0.107l0.175-0.011l3.253-0.159l0.182-0.01
		c0.057,0,0.092-0.049,0.092-0.11C69.4,63.723,69.383,63.711,69.383,63.706"/>
	<path fill="#0A0B1D" d="M85.398,57.65c-0.162,4.221-4.104,6.601-8.104,6.45c-0.941-0.04-1.118-0.062-1.987-0.134
		c-0.864-0.069-2.022-0.078-2.022-0.078l-0.183-0.006c-0.057,0-0.098-0.053-0.097-0.112c0.001-0.01,0-0.018,0.001-0.021h-0.001
		l0.23-1.17l0.128-2.155l-0.002-0.081l0.253-6.587l0.011-0.103l0.006-2.119l-0.121-1.065l0.004-0.019c0-0.055,0.05-0.104,0.1-0.1
		c0,0,0.836,0.037,1.158,0.042c0.453,0,1.954-0.067,2.954-0.027C82.097,50.565,85.561,53.329,85.398,57.65 M77.775,53.352
		c-0.311-0.015-0.455,0.004-0.702,0.043l-0.025,0.384v0.106l-0.254,6.59v0.081l-0.013,0.709c0.236,0.045,0.441,0.082,0.668,0.092
		c2.089,0.078,4.355-1.133,4.455-3.589C81.996,55.2,79.826,53.429,77.775,53.352"/>
	<path fill="#0A0B1D" d="M62.926,63.878l-5.814-5.604c1.255-1.443,2.611-2.793,4.054-4.036c0,0,0,0,0-0.004
		c0.027-0.022,0.043-0.063,0.038-0.096c-0.005-0.03-0.025-0.056-0.043-0.071l-2.322-2.312c-0.029-0.022-0.053-0.034-0.084-0.03
		c-0.013,0.007-0.032,0.01-0.04,0.018c0,0,0-0.004-0.006,0c-2.221,1.959-4.341,4.248-6.136,6.641l-0.444-2.472l-0.016-0.091
		l-0.304-2.056l-0.03-1.048l-0.004-0.021c-0.017-0.052-0.06-0.097-0.112-0.084c0,0-0.907,0.162-1.774,0.324
		c-0.877,0.159-1.784,0.317-1.784,0.317c-0.05,0.011-0.083,0.066-0.073,0.118v0.022l0.334,0.996l0.438,2.029l0.016,0.093
		l1.152,6.368l0.018,0.078l0.319,2.091l0.038,1.167h0c0,0.006,0,0.01,0,0.014c0.012,0.062,0.064,0.104,0.112,0.087v0.004
		l0.181-0.029l3.199-0.579l0.178-0.037c0.062-0.011,0.095-0.063,0.079-0.114c0.002-0.015-0.004-0.019-0.004-0.025h0.004
		l-0.375-1.101l-0.251-1.232l0.022-0.082c0.513-0.805,1.052-1.586,1.615-2.349l3.821,3.966v-0.004
		c0.018,0.027,0.053,0.045,0.085,0.041c0.003,0,0.003-0.004,0.008-0.008v0.004l3.866-0.696V64.07c0.008-0.004,0.008,0,0.008,0
		c0.054-0.007,0.09-0.066,0.08-0.122C62.963,63.915,62.943,63.893,62.926,63.878"/>
	<path fill="#0A0B1D" d="M99.354,62.247c0.789-5.811-7.863-4.814-7.598-6.696c0.166-1.24,3.646-1.621,6.149,1.198c0,0,0,0,0,0.003
		c0.022,0.012,0.038,0.026,0.06,0.03c0.041,0,0.066-0.014,0.094-0.041v-0.004c0.36-0.379,1.729-1.896,2.018-2.225
		c0.002,0,0.012-0.003,0.002-0.011c0.014-0.014,0.018-0.028,0.023-0.05c0.004-0.027,0.004-0.052-0.01-0.075h0.004
		c0,0-0.004,0-0.008-0.003c-0.005,0,0-0.004-0.005-0.004c-2.004-3.358-11.12-4.864-11.887,0.745
		c-0.755,5.435,8.146,5.158,7.722,6.877c-0.396,1.583-4.904,1.221-6.712-1.705c-0.019-0.027-0.051-0.045-0.074-0.048
		c-0.026,0-0.055,0-0.081,0.026c-0.409,0.325-2.007,1.682-2.384,2.022c-0.012,0.007-0.008,0.012-0.018,0.019
		c-0.016,0.019-0.022,0.032-0.031,0.059c0.004,0.037,0.004,0.055,0.023,0.086c0,0-0.004,0.003,0,0
		C90.182,67.602,98.57,67.915,99.354,62.247"/>
</g>
</svg>
