<?xml version="1.0" encoding="utf-8"?>
<!-- Generator: Adobe Illustrator 16.0.3, SVG Export Plug-In . SVG Version: 6.00 Build 0)  -->
<!DOCTYPE svg PUBLIC "-//W3C//DTD SVG 1.1//EN" "http://www.w3.org/Graphics/SVG/1.1/DTD/svg11.dtd">
<svg version="1.1" id="Layer_1" xmlns="http://www.w3.org/2000/svg" xmlns:xlink="http://www.w3.org/1999/xlink" x="0px" y="0px"
	 width="40px" height="28px" viewBox="0 0 40 28" enable-background="new 0 0 40 28" xml:space="preserve">
<path fill="#FFFFFF" d="M12.596,12.018V3.976c0-0.144,0.07-0.26,0.21-0.348c0.14-0.087,0.322-0.132,0.546-0.132
	s0.412,0.044,0.564,0.132s0.228,0.204,0.228,0.348v3.68c0.136-0.258,0.338-0.476,0.606-0.653c0.268-0.178,0.578-0.267,0.93-0.267
	c0.584,0,1.086,0.24,1.506,0.72s0.63,1.052,0.63,1.716v0.984c0,0.648-0.212,1.22-0.636,1.716c-0.424,0.497-0.912,0.744-1.464,0.744
	c-0.36,0-0.696-0.095-1.008-0.284c-0.312-0.19-0.532-0.414-0.66-0.672v0.352c0,0.121-0.07,0.234-0.21,0.339
	c-0.14,0.105-0.302,0.158-0.486,0.158c-0.216,0-0.396-0.05-0.54-0.15S12.596,12.145,12.596,12.018z M14.145,10.368
	c0,0.151,0.11,0.335,0.33,0.554c0.22,0.218,0.47,0.328,0.75,0.328c0.28,0,0.523-0.113,0.732-0.34
	c0.208-0.226,0.312-0.478,0.312-0.756V9.177c0-0.278-0.104-0.526-0.312-0.745c-0.208-0.218-0.456-0.327-0.744-0.327
	c-0.272,0-0.518,0.099-0.738,0.297c-0.22,0.199-0.33,0.457-0.33,0.774V10.368z"/>
<path fill="#FFFFFF" d="M18.729,4.853c0-0.188,0.085-0.35,0.255-0.483c0.17-0.133,0.379-0.201,0.628-0.201
	c0.223,0,0.414,0.067,0.572,0.201c0.158,0.134,0.237,0.295,0.237,0.483c0,0.181-0.079,0.34-0.237,0.478
	c-0.158,0.138-0.349,0.206-0.572,0.206c-0.249,0-0.458-0.068-0.628-0.206C18.814,5.193,18.729,5.034,18.729,4.853z M18.873,12.017
	V7.289c0-0.144,0.069-0.26,0.208-0.348c0.138-0.088,0.315-0.132,0.53-0.132c0.215,0,0.395,0.044,0.537,0.132
	s0.213,0.204,0.213,0.348v4.728c0,0.12-0.075,0.232-0.225,0.336c-0.15,0.104-0.325,0.156-0.525,0.156
	c-0.208,0-0.382-0.05-0.524-0.15C18.943,12.259,18.873,12.145,18.873,12.017z"/>
<path fill="#FFFFFF" d="M21.141,13.469c0-0.552,0.293-0.976,0.877-1.272c-0.336-0.16-0.506-0.416-0.506-0.768
	s0.205-0.664,0.613-0.936c-0.496-0.384-0.744-0.892-0.744-1.524V8.717c0-0.584,0.217-1.06,0.646-1.428
	c0.434-0.368,0.996-0.552,1.693-0.552c0.526,0,0.983,0.116,1.366,0.348c0.24-0.544,0.483-0.816,0.731-0.816
	c0.185,0,0.332,0.052,0.445,0.156c0.111,0.104,0.168,0.212,0.168,0.324c0,0.128-0.064,0.24-0.192,0.336
	c-0.296,0.208-0.484,0.36-0.564,0.456c0.281,0.328,0.421,0.72,0.421,1.176v0.252c0,0.576-0.222,1.054-0.666,1.434
	c-0.443,0.38-1.015,0.57-1.709,0.57c-0.289,0-0.55-0.036-0.781-0.108c-0.097,0.08-0.144,0.16-0.144,0.24
	c0,0.136,0.123,0.236,0.371,0.3s0.551,0.118,0.906,0.162c0.354,0.044,0.71,0.108,1.062,0.192s0.652,0.254,0.9,0.51
	c0.247,0.256,0.371,0.592,0.371,1.008c0,0.624-0.252,1.094-0.756,1.411c-0.504,0.315-1.125,0.473-1.859,0.473
	c-0.744,0-1.373-0.151-1.885-0.456C21.396,14.401,21.141,13.989,21.141,13.469z M22.604,13.313c0,0.264,0.112,0.472,0.336,0.624
	c0.225,0.152,0.5,0.228,0.828,0.228s0.602-0.076,0.815-0.228c0.217-0.152,0.324-0.356,0.324-0.612c0-0.112-0.021-0.21-0.06-0.294
	c-0.041-0.084-0.111-0.154-0.211-0.21c-0.101-0.056-0.188-0.102-0.264-0.138c-0.076-0.036-0.199-0.068-0.367-0.096
	c-0.168-0.028-0.289-0.046-0.365-0.054c-0.076-0.008-0.205-0.024-0.391-0.048C22.82,12.685,22.604,12.96,22.604,13.313z
	 M22.881,8.957c0,0.312,0.076,0.57,0.229,0.774c0.15,0.204,0.363,0.306,0.636,0.306c0.264,0,0.473-0.098,0.625-0.294
	c0.151-0.196,0.228-0.454,0.228-0.774V8.717c0-0.296-0.078-0.544-0.233-0.744c-0.155-0.2-0.366-0.3-0.63-0.3
	s-0.473,0.098-0.625,0.294c-0.15,0.196-0.228,0.446-0.228,0.75L22.881,8.957L22.881,8.957z"/>
<path fill="#FFFFFF" d="M9.896,24.469c0-0.552,0.292-0.977,0.876-1.271c-0.336-0.16-0.504-0.416-0.504-0.769
	c0-0.354,0.204-0.664,0.612-0.938c-0.496-0.383-0.744-0.891-0.744-1.523v-0.252c0-0.584,0.216-1.061,0.648-1.428
	c0.432-0.368,0.996-0.553,1.692-0.553c0.528,0,0.984,0.117,1.368,0.349c0.24-0.544,0.484-0.815,0.732-0.815
	c0.184,0,0.332,0.051,0.444,0.155s0.168,0.212,0.168,0.324c0,0.128-0.064,0.239-0.192,0.336c-0.296,0.208-0.484,0.36-0.564,0.456
	c0.28,0.328,0.42,0.72,0.42,1.176v0.252c0,0.576-0.222,1.055-0.666,1.434c-0.444,0.382-1.014,0.57-1.71,0.57
	c-0.288,0-0.548-0.035-0.78-0.106c-0.096,0.079-0.144,0.159-0.144,0.239c0,0.136,0.124,0.235,0.372,0.299
	c0.248,0.064,0.55,0.119,0.906,0.162c0.356,0.045,0.71,0.108,1.062,0.192s0.652,0.255,0.9,0.511s0.372,0.592,0.372,1.008
	c0,0.623-0.252,1.095-0.756,1.41c-0.504,0.315-1.124,0.474-1.86,0.474c-0.744,0-1.372-0.151-1.884-0.455
	C10.152,25.4,9.896,24.988,9.896,24.469z M11.36,24.312c0,0.264,0.112,0.473,0.336,0.625c0.224,0.15,0.5,0.227,0.828,0.227
	s0.6-0.075,0.816-0.227c0.216-0.152,0.324-0.357,0.324-0.613c0-0.111-0.02-0.209-0.06-0.293c-0.041-0.084-0.11-0.154-0.21-0.211
	c-0.101-0.057-0.188-0.103-0.264-0.139c-0.076-0.035-0.198-0.066-0.366-0.096s-0.29-0.046-0.366-0.054
	c-0.076-0.009-0.206-0.024-0.39-0.05C11.576,23.686,11.36,23.961,11.36,24.312z M11.636,19.957c0,0.312,0.076,0.57,0.229,0.773
	c0.152,0.203,0.364,0.307,0.636,0.307c0.264,0,0.472-0.098,0.624-0.295c0.152-0.195,0.228-0.453,0.228-0.773v-0.252
	c0-0.296-0.078-0.544-0.234-0.744c-0.156-0.199-0.366-0.3-0.63-0.3c-0.264,0-0.472,0.099-0.624,0.294
	c-0.152,0.196-0.229,0.446-0.229,0.75V19.957z"/>
<path fill="#FFFFFF" d="M15.956,23.018v-4.729c0-0.145,0.07-0.26,0.21-0.348s0.322-0.133,0.546-0.133c0.2,0,0.366,0.045,0.498,0.133
	c0.132,0.09,0.198,0.207,0.198,0.352v0.497c0.128-0.282,0.328-0.528,0.6-0.738s0.564-0.315,0.876-0.315h0.372
	c0.144,0,0.274,0.068,0.39,0.207c0.116,0.138,0.174,0.295,0.174,0.472c0,0.187-0.058,0.349-0.174,0.483
	c-0.116,0.139-0.246,0.207-0.39,0.207h-0.372c-0.368,0-0.69,0.164-0.966,0.49c-0.276,0.327-0.414,0.754-0.414,1.28v2.142
	c0,0.121-0.08,0.232-0.24,0.336c-0.16,0.104-0.344,0.155-0.552,0.155c-0.216,0-0.396-0.05-0.54-0.149
	C16.028,23.259,15.956,23.145,15.956,23.018z"/>
<path fill="#FFFFFF" d="M20.396,15.854c0-0.188,0.085-0.35,0.254-0.483c0.17-0.134,0.379-0.2,0.629-0.2
	c0.223,0,0.414,0.066,0.572,0.2c0.156,0.135,0.235,0.295,0.235,0.483c0,0.181-0.079,0.34-0.235,0.478
	c-0.158,0.14-0.351,0.207-0.572,0.207c-0.25,0-0.459-0.067-0.629-0.207C20.481,16.193,20.396,16.033,20.396,15.854z M20.54,23.018
	v-4.729c0-0.145,0.069-0.26,0.208-0.348c0.138-0.088,0.314-0.133,0.529-0.133c0.217,0,0.396,0.045,0.537,0.133
	c0.143,0.088,0.213,0.203,0.213,0.348v4.729c0,0.119-0.073,0.231-0.225,0.336c-0.15,0.104-0.324,0.155-0.525,0.155
	c-0.207,0-0.381-0.05-0.523-0.149C20.611,23.259,20.54,23.145,20.54,23.018z"/>
<path fill="#FFFFFF" d="M23.023,21.156v-0.983c0-0.664,0.211-1.235,0.631-1.716s0.922-0.721,1.506-0.721
	c0.352,0,0.662,0.09,0.93,0.268s0.475,0.395,0.618,0.652v-3.68c0-0.146,0.073-0.261,0.222-0.349c0.149-0.088,0.334-0.133,0.56-0.133
	c0.224,0,0.407,0.045,0.552,0.133s0.216,0.203,0.216,0.349v8.041c0,0.127-0.073,0.241-0.223,0.342
	c-0.147,0.1-0.329,0.148-0.545,0.148c-0.185,0-0.347-0.053-0.486-0.156c-0.142-0.105-0.21-0.22-0.21-0.341V22.66
	c-0.128,0.259-0.348,0.482-0.654,0.672s-0.646,0.285-1.014,0.285c-0.552,0-1.04-0.248-1.464-0.744
	C23.236,22.377,23.023,21.805,23.023,21.156z M24.572,21.152c0,0.279,0.104,0.531,0.312,0.757c0.208,0.227,0.452,0.34,0.731,0.34
	c0.281,0,0.533-0.108,0.757-0.327s0.336-0.402,0.336-0.555v-1.19c0-0.317-0.11-0.575-0.33-0.774c-0.22-0.197-0.47-0.297-0.75-0.297
	c-0.288,0-0.536,0.108-0.744,0.326c-0.208,0.219-0.312,0.467-0.312,0.745V21.152z"/>
</svg>
