<?xml version="1.0" encoding="utf-8"?>
<!-- Generator: Adobe Illustrator 16.0.3, SVG Export Plug-In . SVG Version: 6.00 Build 0)  -->
<!DOCTYPE svg PUBLIC "-//W3C//DTD SVG 1.1//EN" "http://www.w3.org/Graphics/SVG/1.1/DTD/svg11.dtd">
<svg version="1.1" id="Layer_1" xmlns="http://www.w3.org/2000/svg" xmlns:xlink="http://www.w3.org/1999/xlink" x="0px" y="0px"
	 width="26px" height="20px" viewBox="0 0 26 20" enable-background="new 0 0 26 20" xml:space="preserve">
<path fill="#FFFFFF" d="M1.48,5.209C1.56,5.6,2.192,6.15,2.193,6.151c0.111,0.104,2.701,3.191,3.533,3.435
	c0.107,0.03,0.21,0.045,0.313,0.045c0.413,0,0.739-0.246,0.832-0.628c0.081-0.336,0.114-1.662,0.122-2.328
	c0.617,0.01,12.493,0.037,13.316,0.037c1.834,0,2.496-0.646,2.496-1.555s-0.502-1.784-2.334-1.784
	c-0.797,0-12.652,0.056-13.518,0.08c-0.006-0.557-0.01-1.681,0-1.762C6.99,1.406,6.971,1.179,6.893,0.998
	c-0.129-0.301-0.385-0.365-0.58-0.365c-0.162,0-0.351,0.045-0.556,0.135C5.223,0.997,2.022,4.162,1.785,4.366
	C1.533,4.583,1.422,4.898,1.48,5.209z"/>
<path fill="#FFFFFF" d="M24.494,15.426c-0.078,0.391-0.711,0.941-0.711,0.943c-0.112,0.102-2.701,3.189-3.533,3.434
	c-0.107,0.029-0.211,0.045-0.313,0.045c-0.413,0-0.739-0.246-0.832-0.629c-0.081-0.336-0.115-1.66-0.122-2.328
	c-0.617,0.01-12.493,0.037-13.316,0.037c-1.834,0-2.495-0.865-2.495-1.554s0.501-1.784,2.333-1.784
	c0.797,0,12.652,0.055,13.518,0.08c0.006-0.557-0.016-2.274,0.062-2.456c0.129-0.301,0.385-0.365,0.58-0.365
	c0.162,0,0.352,0.046,0.555,0.135c0.535,0.23,3.735,3.396,3.973,3.601C24.443,14.799,24.555,15.114,24.494,15.426z"/>
</svg>
