<?xml version="1.0" encoding="utf-8"?>
<!-- Generator: Adobe Illustrator 16.0.3, SVG Export Plug-In . SVG Version: 6.00 Build 0)  -->
<!DOCTYPE svg PUBLIC "-//W3C//DTD SVG 1.1//EN" "http://www.w3.org/Graphics/SVG/1.1/DTD/svg11.dtd">
<svg version="1.1" id="Layer_1" xmlns="http://www.w3.org/2000/svg" xmlns:xlink="http://www.w3.org/1999/xlink" x="0px" y="0px"
	 width="26px" height="20px" viewBox="0 0 26 20" enable-background="new 0 0 26 20" xml:space="preserve">
<g>
	<path fill-rule="evenodd" clip-rule="evenodd" fill="#382775" d="M15.27,12.794c0.658-0.02,0.105-0.056,1.104-0.083
		c2.354-0.101,2.029-0.197,2.852-0.35c1.746-0.32,2.396-1.537,2.318-2.424c-0.078-0.908-0.717-2.062-2.105-2.323
		c-0.598-0.125-0.371-0.257-3.143-0.324c-0.688-0.032-0.348-0.049-1.176-0.055L9.686,7.283C9.359,7.288,8.48,7.397,8.48,7.397
		C6.119,7.473,6.361,7.488,5.521,7.65c-1.74,0.312-2.258,1.571-2.182,2.461c0.088,0.908,0.494,1.795,1.877,2.054
		c0.598,0.121,0.504,0.332,3.264,0.417c0.715,0.026,0.451,0.017,1.268,0.024"/>
</g>
</svg>
