<?xml version="1.0" encoding="utf-8"?>
<!-- Generator: Adobe Illustrator 16.0.3, SVG Export Plug-In . SVG Version: 6.00 Build 0)  -->
<!DOCTYPE svg PUBLIC "-//W3C//DTD SVG 1.1//EN" "http://www.w3.org/Graphics/SVG/1.1/DTD/svg11.dtd">
<svg version="1.1" id="Layer_1" xmlns="http://www.w3.org/2000/svg" xmlns:xlink="http://www.w3.org/1999/xlink" x="0px" y="0px"
	 width="26px" height="20px" viewBox="0 0 26 20" enable-background="new 0 0 26 20" xml:space="preserve">
<g>
	<path fill-rule="evenodd" clip-rule="evenodd" fill="#382775" d="M15.623,13.686c0,0,0.014-0.697,0.039-1.025
		c0.66-0.02,0.105-0.056,1.104-0.083c2.355-0.101,2.029-0.197,2.852-0.35c1.746-0.32,2.396-1.537,2.318-2.424
		c-0.078-0.908-0.717-2.062-2.105-2.323c-0.598-0.125-0.371-0.257-3.143-0.324C16,7.124,16.34,7.107,15.512,7.102
		c0.029-0.836,0.01-0.508-0.021-1.197c-0.068-2.773-0.117-2.579-0.24-3.173c-0.264-1.392-1.346-1.74-2.252-1.811
		c-0.889-0.082-2.199,0.411-2.518,2.155c-0.146,0.826-0.252,0.601-0.344,2.965c-0.027,0.993-0.004,0.457-0.057,1.108
		C9.752,7.154,8.875,7.264,8.875,7.264C6.512,7.339,6.754,7.354,5.916,7.517C4.174,7.828,3.658,9.088,3.732,9.978
		c0.088,0.908,0.494,1.795,1.877,2.054c0.6,0.121,0.504,0.332,3.266,0.417c0.713,0.026,0.449,0.017,1.268,0.024
		c-0.037,0.819-0.033,0.494-0.004,1.209c0.082,2.758,0.191,2.937,0.314,3.534c0.256,1.385,1.41,1.808,2.312,1.894
		c0.895,0.077,2.15-0.48,2.465-2.22C15.391,16.05,15.541,16.041,15.623,13.686z"/>
</g>
</svg>
