<?xml version="1.0" encoding="utf-8"?>
<!-- Generator: Adobe Illustrator 16.0.3, SVG Export Plug-In . SVG Version: 6.00 Build 0)  -->
<!DOCTYPE svg PUBLIC "-//W3C//DTD SVG 1.1//EN" "http://www.w3.org/Graphics/SVG/1.1/DTD/svg11.dtd">
<svg version="1.1" id="Layer_1" xmlns="http://www.w3.org/2000/svg" xmlns:xlink="http://www.w3.org/1999/xlink" x="0px" y="0px"
	 width="40px" height="28px" viewBox="0 0 40 28" enable-background="new 0 0 40 28" xml:space="preserve">
<g>
	<path fill="#FFFFFF" d="M2.443,20.316c0-0.211,0.057-0.379,0.168-0.51c0.113-0.13,0.252-0.193,0.42-0.193
		c0.201,0,0.33-0.08,0.391-0.238s0.09-0.396,0.09-0.714v-5.556c0-0.143,0.072-0.258,0.217-0.345
		c0.144-0.087,0.323-0.131,0.539-0.131c0.225,0,0.412,0.044,0.564,0.132c0.152,0.088,0.229,0.204,0.229,0.348v5.604
		c0,0.688-0.156,1.238-0.469,1.65s-0.76,0.617-1.344,0.617C2.712,20.98,2.443,20.76,2.443,20.316z M3.367,10.673
		c0-0.188,0.088-0.35,0.264-0.483c0.176-0.133,0.393-0.201,0.648-0.201c0.232,0,0.431,0.067,0.595,0.201
		c0.163,0.134,0.246,0.295,0.246,0.483c0,0.181-0.083,0.34-0.246,0.478c-0.164,0.138-0.362,0.206-0.595,0.206
		c-0.256,0-0.473-0.068-0.648-0.206C3.456,11.013,3.367,10.854,3.367,10.673z"/>
	<path fill="#FFFFFF" d="M6.056,15.977v-0.983c0-0.656,0.257-1.226,0.769-1.71c0.512-0.484,1.123-0.726,1.836-0.726
		c0.695,0,1.304,0.24,1.824,0.72s0.779,1.052,0.779,1.716v0.983c0,0.648-0.26,1.221-0.779,1.717
		c-0.521,0.496-1.129,0.744-1.824,0.744c-0.696,0-1.305-0.248-1.824-0.744S6.056,16.625,6.056,15.977z M7.604,15.975
		c0,0.285,0.104,0.539,0.312,0.762S8.372,17.07,8.66,17.07c0.279,0,0.525-0.111,0.738-0.334c0.211-0.223,0.317-0.477,0.317-0.762
		v-0.978c0-0.271-0.106-0.516-0.317-0.738c-0.213-0.223-0.459-0.333-0.738-0.333c-0.288,0-0.536,0.109-0.744,0.327
		c-0.209,0.218-0.312,0.466-0.312,0.745V15.975z"/>
	<path fill="#FFFFFF" d="M12.188,16.001v-2.88c0-0.12,0.078-0.232,0.234-0.336c0.156-0.104,0.338-0.156,0.545-0.156
		c0.201,0,0.379,0.052,0.535,0.156c0.155,0.104,0.233,0.215,0.233,0.335v2.873c0,0.278,0.104,0.528,0.312,0.748
		c0.209,0.219,0.457,0.329,0.744,0.329c0.289,0,0.535-0.11,0.738-0.329c0.204-0.22,0.307-0.47,0.307-0.748v-2.884
		c0-0.127,0.078-0.239,0.233-0.335c0.156-0.096,0.338-0.144,0.546-0.144c0.225,0,0.408,0.048,0.553,0.144
		c0.144,0.096,0.215,0.208,0.215,0.336v2.892c0,0.646-0.256,1.216-0.768,1.704c-0.512,0.487-1.12,0.731-1.824,0.731
		c-0.703,0-1.313-0.244-1.83-0.731C12.445,17.217,12.188,16.648,12.188,16.001z"/>
	<path fill="#FFFFFF" d="M18.535,17.837v-4.728c0-0.144,0.07-0.26,0.21-0.348c0.14-0.088,0.321-0.132,0.546-0.132
		c0.199,0,0.366,0.044,0.498,0.133c0.132,0.089,0.197,0.206,0.197,0.352v0.497c0.129-0.282,0.328-0.529,0.601-0.738
		c0.272-0.21,0.563-0.315,0.876-0.315h0.372c0.144,0,0.274,0.068,0.39,0.206c0.116,0.137,0.174,0.294,0.174,0.472
		c0,0.186-0.058,0.347-0.174,0.484c-0.115,0.137-0.246,0.206-0.39,0.206h-0.372c-0.367,0-0.689,0.164-0.966,0.491
		c-0.277,0.327-0.414,0.754-0.414,1.28v2.142c0,0.12-0.08,0.231-0.239,0.336c-0.16,0.104-0.345,0.155-0.553,0.155
		c-0.216,0-0.396-0.051-0.54-0.148C18.607,18.079,18.535,17.965,18.535,17.837z"/>
	<path fill="#FFFFFF" d="M23.059,17.837v-4.728c0-0.144,0.07-0.26,0.211-0.348c0.14-0.088,0.326-0.132,0.559-0.132
		c0.191,0,0.354,0.044,0.484,0.133c0.133,0.089,0.198,0.206,0.198,0.352v0.363c0.128-0.258,0.335-0.476,0.618-0.653
		c0.284-0.178,0.613-0.267,0.99-0.267c0.552,0,1.033,0.24,1.445,0.72s0.619,1.052,0.619,1.716v2.844c0,0.152-0.078,0.272-0.234,0.36
		s-0.338,0.132-0.547,0.132c-0.199,0-0.377-0.044-0.533-0.132s-0.234-0.207-0.234-0.359v-2.836c0-0.279-0.104-0.528-0.312-0.748
		c-0.207-0.22-0.451-0.329-0.731-0.329c-0.264,0-0.494,0.1-0.689,0.299c-0.195,0.2-0.293,0.459-0.293,0.778v2.836
		c0,0.12-0.078,0.232-0.234,0.336s-0.338,0.155-0.546,0.155c-0.216,0-0.397-0.05-0.546-0.149
		C23.133,18.079,23.059,17.965,23.059,17.837z"/>
	<path fill="#FFFFFF" d="M28.999,16.792c0-0.63,0.239-1.073,0.72-1.33c0.48-0.256,1.172-0.385,2.076-0.385h0.492v-0.161
		c0-0.305-0.086-0.569-0.258-0.796c-0.172-0.226-0.438-0.339-0.799-0.339c-0.359,0-0.668,0.068-0.924,0.204
		c-0.257,0.136-0.404,0.204-0.443,0.204c-0.16,0-0.289-0.08-0.385-0.24c-0.097-0.16-0.145-0.336-0.145-0.528
		c0-0.232,0.206-0.434,0.618-0.606s0.846-0.258,1.302-0.258c0.872,0,1.521,0.222,1.944,0.666c0.423,0.444,0.636,1.002,0.636,1.673
		v2.94c0,0.136-0.072,0.252-0.216,0.349c-0.146,0.097-0.324,0.145-0.541,0.145c-0.199,0-0.365-0.053-0.497-0.153
		c-0.132-0.104-0.198-0.227-0.198-0.372v-0.371c-0.552,0.67-1.159,1.006-1.823,1.006c-0.455,0-0.83-0.142-1.121-0.422
		C29.145,17.736,28.999,17.328,28.999,16.792z M30.547,16.598c0,0.205,0.059,0.359,0.174,0.463c0.116,0.103,0.271,0.152,0.463,0.152
		c0.256,0,0.504-0.113,0.743-0.342c0.24-0.227,0.36-0.479,0.36-0.751v-0.239h-0.18c-0.488,0-0.871,0.049-1.146,0.143
		C30.686,16.119,30.547,16.311,30.547,16.598z"/>
	<path fill="#FFFFFF" d="M35.096,17.837V9.785c0-0.144,0.068-0.26,0.209-0.348s0.326-0.132,0.56-0.132
		c0.215,0,0.399,0.044,0.551,0.132s0.229,0.204,0.229,0.348v8.052c0,0.12-0.078,0.231-0.234,0.337
		c-0.155,0.104-0.338,0.155-0.545,0.155c-0.217,0-0.398-0.05-0.547-0.149C35.168,18.079,35.096,17.965,35.096,17.837z"/>
</g>
</svg>
