<?xml version="1.0" encoding="utf-8"?>
<!-- Generator: Adobe Illustrator 16.0.3, SVG Export Plug-In . SVG Version: 6.00 Build 0)  -->
<!DOCTYPE svg PUBLIC "-//W3C//DTD SVG 1.1//EN" "http://www.w3.org/Graphics/SVG/1.1/DTD/svg11.dtd">
<svg version="1.1" id="Layer_1" xmlns="http://www.w3.org/2000/svg" xmlns:xlink="http://www.w3.org/1999/xlink" x="0px" y="0px"
	 width="40px" height="28px" viewBox="0 0 40 28" enable-background="new 0 0 40 28" xml:space="preserve">
<g>
	<path fill="#FFFFFF" d="M9.016,18.184v-4.729c0-0.144,0.069-0.26,0.209-0.348c0.141-0.088,0.326-0.132,0.559-0.132
		c0.191,0,0.354,0.044,0.486,0.133c0.131,0.089,0.197,0.206,0.197,0.352v0.363c0.344-0.613,0.872-0.92,1.584-0.92
		c0.336,0,0.639,0.111,0.906,0.333c0.267,0.222,0.466,0.515,0.594,0.877c0.2-0.395,0.463-0.696,0.786-0.902
		c0.324-0.206,0.666-0.309,1.026-0.309c0.576,0,1.076,0.22,1.5,0.66c0.424,0.44,0.636,1.032,0.636,1.776v2.844
		c0,0.12-0.078,0.232-0.233,0.338c-0.156,0.104-0.339,0.154-0.547,0.154c-0.199,0-0.378-0.052-0.533-0.154
		c-0.156-0.104-0.234-0.217-0.234-0.336v-2.836c0-0.336-0.096-0.601-0.288-0.796c-0.192-0.196-0.42-0.293-0.685-0.293
		c-0.256,0-0.478,0.098-0.666,0.293c-0.188,0.195-0.281,0.457-0.281,0.784v2.859c0,0.16-0.076,0.279-0.229,0.359
		c-0.152,0.079-0.336,0.119-0.552,0.119c-0.2,0-0.378-0.042-0.534-0.126c-0.156-0.084-0.234-0.2-0.234-0.353v-2.85
		c0-0.318-0.098-0.578-0.293-0.777c-0.197-0.199-0.426-0.299-0.69-0.299c-0.257,0-0.476,0.096-0.66,0.288
		c-0.184,0.19-0.276,0.454-0.276,0.789v2.836c0,0.12-0.078,0.232-0.233,0.336c-0.156,0.104-0.338,0.155-0.546,0.155
		c-0.217,0-0.398-0.05-0.547-0.149C9.089,18.425,9.016,18.311,9.016,18.184z"/>
	<path fill="#FFFFFF" d="M18.314,17.139c0-0.631,0.24-1.074,0.721-1.33c0.479-0.257,1.172-0.386,2.076-0.386h0.49v-0.161
		c0-0.304-0.086-0.568-0.258-0.796c-0.172-0.226-0.438-0.339-0.798-0.339c-0.36,0-0.668,0.068-0.924,0.204
		c-0.256,0.136-0.404,0.204-0.444,0.204c-0.16,0-0.288-0.08-0.384-0.24c-0.096-0.16-0.145-0.336-0.145-0.528
		c0-0.232,0.206-0.434,0.618-0.606s0.847-0.258,1.301-0.258c0.873,0,1.521,0.222,1.945,0.666c0.422,0.444,0.635,1.001,0.635,1.674
		v2.94c0,0.135-0.071,0.252-0.215,0.349c-0.145,0.096-0.324,0.144-0.541,0.144c-0.199,0-0.365-0.052-0.498-0.152
		c-0.131-0.104-0.196-0.228-0.196-0.373v-0.371c-0.554,0.67-1.16,1.006-1.824,1.006c-0.456,0-0.83-0.141-1.122-0.421
		S18.314,17.674,18.314,17.139z M19.863,16.943c0,0.205,0.058,0.359,0.174,0.461c0.115,0.104,0.27,0.154,0.461,0.154
		c0.257,0,0.505-0.113,0.744-0.343c0.24-0.227,0.359-0.478,0.359-0.751v-0.238h-0.18c-0.488,0-0.87,0.047-1.146,0.143
		C20.001,16.464,19.863,16.656,19.863,16.943z"/>
	<path fill="#FFFFFF" d="M24.314,20.835v-7.38c0-0.144,0.069-0.26,0.209-0.348c0.141-0.088,0.313-0.132,0.522-0.132
		c0.207,0,0.379,0.044,0.517,0.133c0.137,0.089,0.203,0.206,0.203,0.352v0.363c0.151-0.258,0.37-0.476,0.653-0.653
		c0.285-0.178,0.606-0.267,0.967-0.267c0.601,0,1.107,0.238,1.523,0.714c0.416,0.476,0.625,1.05,0.625,1.722v0.984
		c0,0.647-0.214,1.22-0.638,1.716s-0.912,0.744-1.463,0.744c-0.346,0-0.662-0.096-0.955-0.285c-0.291-0.189-0.498-0.413-0.617-0.672
		v3.008c0,0.128-0.077,0.242-0.233,0.342c-0.155,0.102-0.342,0.15-0.56,0.15c-0.215,0-0.396-0.049-0.539-0.149
		C24.387,21.076,24.314,20.963,24.314,20.835z M25.863,16.534c0,0.159,0.107,0.345,0.322,0.56c0.217,0.215,0.461,0.321,0.731,0.321
		c0.281,0,0.528-0.113,0.744-0.34c0.217-0.226,0.323-0.478,0.323-0.757v-0.977c0-0.277-0.106-0.525-0.323-0.744
		c-0.216-0.219-0.472-0.328-0.769-0.328c-0.271,0-0.512,0.099-0.72,0.296c-0.208,0.199-0.312,0.457-0.312,0.774v1.193H25.863z"/>
</g>
</svg>
