<?xml version="1.0" encoding="utf-8"?>
<!-- Generator: Adobe Illustrator 16.0.3, SVG Export Plug-In . SVG Version: 6.00 Build 0)  -->
<!DOCTYPE svg PUBLIC "-//W3C//DTD SVG 1.1//EN" "http://www.w3.org/Graphics/SVG/1.1/DTD/svg11.dtd">
<svg version="1.1" id="Layer_1" xmlns="http://www.w3.org/2000/svg" xmlns:xlink="http://www.w3.org/1999/xlink" x="0px" y="0px"
	 width="26px" height="20px" viewBox="0 0 26 20" enable-background="new 0 0 26 20" xml:space="preserve">
<g>
	<path fill="#382775" d="M20.186,9.239c0.836-0.323,2.518-0.985,2.633-1.047c0.414-0.214,0.758-0.322,1.061-0.328
		c0.506-0.013,0.705,0.282,0.787,0.533c0.064,0.212,0.078,0.48,0.029,0.8c-0.125,0.83-3.535,6.855-3.742,7.287
		c-0.221,0.452-0.645,0.784-1.135,0.893c-0.617,0.13-1.701-0.361-1.703-0.363c-0.199-0.084-5.881-1.607-6.588-2.544
		c-0.086-0.119-0.152-0.243-0.193-0.378c-0.172-0.534,0.062-1.104,0.596-1.452c0.469-0.304,2.436-1.133,3.428-1.538"/>
	<path fill="none" stroke="#382775" stroke-width="4" stroke-linecap="round" stroke-miterlimit="10" d="M17.92,9.892
		c-1.33-4.193-5.729-6.276-9.818-4.651c-4.088,1.625-6.322,6.341-4.992,10.535"/>
</g>
</svg>
