<?xml version="1.0" encoding="utf-8"?>
<!-- Generator: Adobe Illustrator 16.0.3, SVG Export Plug-In . SVG Version: 6.00 Build 0)  -->
<!DOCTYPE svg PUBLIC "-//W3C//DTD SVG 1.1//EN" "http://www.w3.org/Graphics/SVG/1.1/DTD/svg11.dtd">
<svg version="1.1" id="Layer_1" xmlns="http://www.w3.org/2000/svg" xmlns:xlink="http://www.w3.org/1999/xlink" x="0px" y="0px"
	 width="26px" height="20px" viewBox="0 0 26 20" enable-background="new 0 0 26 20" xml:space="preserve">
<g>
	<path fill="#382775" d="M5.885,9.812C5.031,9.537,3.316,8.968,3.199,8.913c-0.425-0.19-0.776-0.279-1.079-0.27
		C1.617,8.659,1.432,8.964,1.365,9.22c-0.054,0.216-0.051,0.485,0.016,0.801c0.171,0.822,3.909,6.649,4.14,7.069
		c0.245,0.438,0.687,0.748,1.182,0.828c0.621,0.097,1.677-0.455,1.681-0.456c0.192-0.096,5.781-1.93,6.436-2.904
		c0.08-0.123,0.139-0.251,0.173-0.388c0.142-0.544-0.123-1.1-0.677-1.417c-0.484-0.278-2.491-0.998-3.506-1.347"/>
	<path fill="none" stroke="#382775" stroke-width="4" stroke-linecap="round" stroke-miterlimit="10" d="M8.18,10.545
		c1.098-4.261,5.369-6.583,9.544-5.187c4.172,1.396,6.666,5.982,5.566,10.242"/>
</g>
</svg>
