<?xml version="1.0" encoding="utf-8"?>
<!-- Generator: Adobe Illustrator 16.0.3, SVG Export Plug-In . SVG Version: 6.00 Build 0)  -->
<!DOCTYPE svg PUBLIC "-//W3C//DTD SVG 1.1//EN" "http://www.w3.org/Graphics/SVG/1.1/DTD/svg11.dtd">
<svg version="1.1" id="Layer_1" xmlns="http://www.w3.org/2000/svg" xmlns:xlink="http://www.w3.org/1999/xlink" x="0px" y="0px"
	 width="40px" height="28px" viewBox="0 0 40 28" enable-background="new 0 0 40 28" xml:space="preserve">
<path fill="#FFFFFF" d="M6.606,12.1c0-0.144,0.052-0.294,0.158-0.45c0.105-0.156,0.227-0.234,0.364-0.234
	c0.089,0,0.2,0.04,0.334,0.12c0.133,0.081,0.31,0.163,0.528,0.246c0.218,0.084,0.478,0.125,0.777,0.125
	c0.591,0,0.887-0.167,0.887-0.502c0-0.187-0.098-0.334-0.294-0.443c-0.196-0.108-0.432-0.198-0.708-0.268
	c-0.276-0.07-0.554-0.153-0.834-0.251c-0.28-0.097-0.518-0.261-0.714-0.49C6.908,9.723,6.81,9.429,6.81,9.071
	c0-0.497,0.172-0.924,0.516-1.282C7.67,7.431,8.214,7.252,8.958,7.252c0.496,0,0.938,0.076,1.326,0.228
	c0.388,0.152,0.582,0.336,0.582,0.552c0,0.136-0.054,0.294-0.162,0.474c-0.108,0.18-0.242,0.27-0.402,0.27
	c-0.064,0-0.238-0.05-0.522-0.15c-0.284-0.1-0.55-0.15-0.798-0.15c-0.272,0-0.48,0.054-0.624,0.164
	C8.214,8.749,8.142,8.869,8.142,9.001s0.072,0.241,0.216,0.327S8.68,9.48,8.892,9.527c0.212,0.046,0.439,0.111,0.683,0.192
	c0.244,0.081,0.469,0.177,0.676,0.286c0.208,0.109,0.382,0.278,0.523,0.508s0.212,0.508,0.212,0.834c0,0.554-0.194,0.99-0.582,1.308
	c-0.388,0.318-0.93,0.477-1.626,0.477c-0.6,0-1.112-0.104-1.536-0.312C6.818,12.612,6.606,12.372,6.606,12.1z"/>
<path fill="#FFFFFF" d="M11.934,12.532V7.804c0-0.144,0.07-0.26,0.21-0.348s0.326-0.132,0.558-0.132
	c0.192,0,0.354,0.044,0.486,0.133s0.198,0.206,0.198,0.352v0.363c0.344-0.613,0.872-0.92,1.584-0.92
	c0.336,0,0.638,0.111,0.906,0.333S16.342,8.1,16.47,8.462c0.2-0.395,0.462-0.696,0.786-0.902c0.324-0.206,0.666-0.309,1.026-0.309
	c0.576,0,1.076,0.22,1.5,0.66c0.424,0.44,0.636,1.032,0.636,1.776v2.844c0,0.12-0.078,0.232-0.234,0.336
	c-0.156,0.104-0.338,0.156-0.546,0.156c-0.2,0-0.378-0.052-0.534-0.156s-0.234-0.215-0.234-0.335V9.697
	c0-0.335-0.096-0.6-0.288-0.795c-0.192-0.196-0.42-0.293-0.684-0.293c-0.256,0-0.478,0.098-0.666,0.293
	c-0.188,0.195-0.282,0.457-0.282,0.784v2.86c0,0.16-0.076,0.279-0.228,0.359c-0.152,0.08-0.336,0.12-0.552,0.12
	c-0.2,0-0.378-0.042-0.534-0.125c-0.156-0.084-0.234-0.202-0.234-0.353v-2.85c0-0.319-0.098-0.578-0.294-0.778
	c-0.196-0.199-0.426-0.299-0.69-0.299c-0.256,0-0.476,0.096-0.66,0.287c-0.184,0.191-0.276,0.455-0.276,0.79v2.836
	c0,0.12-0.078,0.231-0.234,0.335c-0.156,0.104-0.338,0.155-0.546,0.155c-0.216,0-0.398-0.05-0.546-0.15
	C12.008,12.773,11.934,12.66,11.934,12.532z"/>
<path fill="#FFFFFF" d="M21.234,11.487c0-0.63,0.238-1.073,0.719-1.33c0.48-0.256,1.172-0.385,2.076-0.385h0.492V9.611
	c0-0.304-0.086-0.569-0.258-0.796c-0.173-0.226-0.438-0.339-0.799-0.339c-0.359,0-0.668,0.068-0.925,0.204
	c-0.256,0.136-0.403,0.204-0.442,0.204c-0.16,0-0.289-0.08-0.385-0.24c-0.097-0.16-0.145-0.336-0.145-0.528
	c0-0.232,0.205-0.434,0.617-0.606c0.412-0.172,0.847-0.258,1.304-0.258c0.87,0,1.52,0.222,1.942,0.666
	c0.424,0.444,0.639,1.002,0.639,1.674v2.94c0,0.136-0.072,0.252-0.217,0.348c-0.145,0.096-0.324,0.144-0.541,0.144
	c-0.199,0-0.365-0.051-0.496-0.154c-0.133-0.103-0.199-0.227-0.199-0.372v-0.372c-0.551,0.671-1.16,1.006-1.823,1.006
	c-0.456,0-0.83-0.14-1.122-0.42C21.379,12.431,21.234,12.023,21.234,11.487z M22.781,11.293c0,0.205,0.059,0.359,0.174,0.461
	c0.117,0.103,0.271,0.153,0.463,0.153c0.256,0,0.504-0.114,0.744-0.341s0.359-0.478,0.359-0.751v-0.239h-0.181
	c-0.487,0-0.87,0.048-1.146,0.143C22.92,10.813,22.781,11.005,22.781,11.293z"/>
<path fill="#FFFFFF" d="M27.33,12.532V4.48c0-0.144,0.068-0.26,0.209-0.348C27.68,4.044,27.865,4,28.098,4
	c0.217,0,0.4,0.044,0.553,0.132c0.15,0.088,0.228,0.204,0.228,0.348v8.052c0,0.12-0.077,0.232-0.233,0.336
	c-0.154,0.104-0.338,0.156-0.545,0.156c-0.218,0-0.398-0.05-0.547-0.15C27.402,12.774,27.33,12.66,27.33,12.532z"/>
<path fill="#FFFFFF" d="M30.293,12.532V4.48c0-0.144,0.07-0.26,0.211-0.348C30.645,4.044,30.829,4,31.062,4
	c0.215,0,0.398,0.044,0.552,0.132c0.151,0.088,0.229,0.204,0.229,0.348v8.052c0,0.12-0.077,0.232-0.233,0.336
	s-0.338,0.156-0.547,0.156c-0.215,0-0.396-0.05-0.545-0.15C30.368,12.774,30.293,12.66,30.293,12.532z"/>
<path fill="#FFFFFF" d="M10.062,24.982c0-0.551,0.292-0.976,0.876-1.271c-0.336-0.16-0.504-0.416-0.504-0.769
	s0.204-0.664,0.612-0.937c-0.496-0.384-0.744-0.892-0.744-1.524V20.23c0-0.584,0.216-1.06,0.648-1.428
	c0.432-0.367,0.996-0.552,1.692-0.552c0.528,0,0.984,0.116,1.368,0.349c0.24-0.545,0.484-0.815,0.732-0.815
	c0.184,0,0.332,0.052,0.444,0.155c0.112,0.104,0.168,0.211,0.168,0.324c0,0.127-0.064,0.239-0.192,0.336
	c-0.296,0.207-0.484,0.359-0.564,0.455c0.28,0.328,0.42,0.721,0.42,1.176v0.252c0,0.576-0.222,1.056-0.666,1.436
	s-1.014,0.568-1.71,0.568c-0.288,0-0.548-0.034-0.78-0.106c-0.096,0.08-0.144,0.16-0.144,0.24c0,0.136,0.124,0.235,0.372,0.3
	s0.55,0.118,0.906,0.162s0.71,0.107,1.062,0.191s0.652,0.254,0.9,0.511c0.248,0.256,0.372,0.592,0.372,1.008
	c0,0.624-0.252,1.094-0.756,1.41c-0.504,0.315-1.124,0.474-1.86,0.474c-0.744,0-1.372-0.15-1.884-0.455
	C10.318,25.916,10.062,25.504,10.062,24.982z M11.526,24.828c0,0.264,0.112,0.472,0.336,0.624c0.224,0.151,0.5,0.228,0.828,0.228
	s0.6-0.074,0.816-0.228c0.216-0.153,0.324-0.356,0.324-0.612c0-0.111-0.02-0.21-0.06-0.294c-0.041-0.084-0.11-0.153-0.21-0.21
	c-0.101-0.057-0.188-0.104-0.264-0.138c-0.076-0.036-0.198-0.068-0.366-0.097s-0.29-0.047-0.366-0.055s-0.206-0.023-0.39-0.048
	C11.742,24.2,11.526,24.477,11.526,24.828z M11.802,20.473c0,0.312,0.076,0.569,0.228,0.773c0.152,0.204,0.364,0.306,0.636,0.306
	c0.264,0,0.472-0.098,0.624-0.294c0.152-0.195,0.228-0.453,0.228-0.773v-0.252c0-0.295-0.078-0.543-0.234-0.744
	c-0.156-0.199-0.366-0.299-0.63-0.299c-0.264,0-0.472,0.098-0.624,0.293c-0.152,0.197-0.228,0.447-0.228,0.75V20.473z"/>
<path fill="#FFFFFF" d="M16.122,23.532v-4.729c0-0.144,0.07-0.26,0.21-0.348s0.322-0.133,0.546-0.133c0.2,0,0.366,0.045,0.498,0.134
	s0.198,0.206,0.198,0.353v0.496c0.128-0.283,0.328-0.529,0.6-0.738c0.272-0.211,0.564-0.314,0.876-0.314h0.372
	c0.144,0,0.274,0.068,0.39,0.206s0.174,0.295,0.174,0.472c0,0.188-0.058,0.348-0.174,0.484c-0.116,0.138-0.246,0.206-0.39,0.206
	H19.05c-0.368,0-0.69,0.164-0.966,0.489c-0.276,0.328-0.414,0.754-0.414,1.281v2.143c0,0.119-0.08,0.23-0.24,0.335
	c-0.16,0.104-0.344,0.155-0.552,0.155c-0.216,0-0.396-0.051-0.54-0.149S16.122,23.66,16.122,23.532z"/>
<path fill="#FFFFFF" d="M20.562,16.368c0-0.188,0.084-0.351,0.254-0.483s0.379-0.199,0.629-0.199c0.223,0,0.414,0.065,0.572,0.199
	c0.156,0.135,0.235,0.295,0.235,0.483c0,0.181-0.079,0.34-0.235,0.478c-0.158,0.139-0.351,0.206-0.572,0.206
	c-0.25,0-0.459-0.067-0.629-0.206C20.646,16.708,20.562,16.549,20.562,16.368z M20.706,23.532v-4.729
	c0-0.144,0.069-0.26,0.208-0.348c0.138-0.088,0.314-0.133,0.529-0.133c0.217,0,0.396,0.045,0.537,0.133
	c0.143,0.088,0.213,0.204,0.213,0.348v4.729c0,0.118-0.073,0.231-0.225,0.336c-0.15,0.104-0.324,0.155-0.525,0.155
	c-0.207,0-0.381-0.051-0.523-0.149C20.777,23.773,20.706,23.66,20.706,23.532z"/>
<path fill="#FFFFFF" d="M23.189,21.672v-0.982c0-0.664,0.211-1.236,0.631-1.717c0.42-0.481,0.922-0.721,1.506-0.721
	c0.352,0,0.662,0.089,0.93,0.268c0.268,0.178,0.475,0.395,0.618,0.652v-3.681c0-0.144,0.073-0.261,0.222-0.349
	c0.149-0.088,0.334-0.132,0.559-0.132s0.408,0.044,0.553,0.132s0.216,0.205,0.216,0.349v8.041c0,0.128-0.073,0.241-0.223,0.342
	c-0.147,0.101-0.329,0.149-0.546,0.149c-0.184,0-0.346-0.053-0.485-0.157c-0.142-0.105-0.21-0.218-0.21-0.339v-0.353
	c-0.128,0.259-0.348,0.481-0.654,0.673c-0.308,0.188-0.646,0.283-1.014,0.283c-0.552,0-1.04-0.248-1.464-0.744
	C23.402,22.891,23.189,22.318,23.189,21.672z M24.738,21.669c0,0.276,0.104,0.529,0.312,0.756c0.208,0.228,0.452,0.341,0.731,0.341
	c0.281,0,0.533-0.109,0.757-0.328c0.224-0.22,0.336-0.402,0.336-0.555v-1.189c0-0.318-0.11-0.576-0.33-0.775
	c-0.22-0.197-0.47-0.297-0.75-0.297c-0.288,0-0.536,0.109-0.744,0.327s-0.312,0.466-0.312,0.745V21.669z"/>
</svg>
