<?xml version="1.0" encoding="utf-8"?>
<!-- Generator: Adobe Illustrator 16.0.3, SVG Export Plug-In . SVG Version: 6.00 Build 0)  -->
<!DOCTYPE svg PUBLIC "-//W3C//DTD SVG 1.1//EN" "http://www.w3.org/Graphics/SVG/1.1/DTD/svg11.dtd">
<svg version="1.1" id="Layer_1" xmlns="http://www.w3.org/2000/svg" xmlns:xlink="http://www.w3.org/1999/xlink" x="0px" y="0px"
	 width="40px" height="28px" viewBox="0 0 40 28" enable-background="new 0 0 40 28" xml:space="preserve">
<g>
	<path fill="#FFFFFF" d="M24.828,23.848c0,0.17-0.139,0.309-0.309,0.309L7.577,21.445c-0.186-0.053-0.309-0.139-0.309-0.309v-3.682
		c0-0.172,0.139-0.311,0.309-0.311l16.943,2.711c0.17,0,0.309,0.139,0.309,0.309V23.848z"/>
	<path fill="#FFFFFF" d="M26.178,18.115c-0.285,0.107-0.641,0.125-0.945,0.053c0,0-16.794-2.42-17.037-2.459
		s-0.322-0.338,0.285-0.498c0.238-0.062,6.275-1.604,6.379-1.624c0.441-0.078,0.428-0.035,0.893,0.019
		c0.174,0.021,15.191,2.054,15.443,2.103s0.406,0.354,0.123,0.453S26.463,18.008,26.178,18.115z"/>
	<path fill="#FFFFFF" d="M26.252,23.633c0,0.17,0.098,0.396,0.307,0.309c0.207-0.09,4.912-2.031,4.912-2.031
		c0.23-0.111,0.305-0.279,0.305-0.449v-3.543c0-0.17-0.127-0.383-0.305-0.309c-0.178,0.076-4.783,1.975-4.912,2.033
		c-0.133,0.057-0.307,0.137-0.307,0.307V23.633z"/>
	<path fill="#FFFFFF" d="M18.354,15.631c-0.184-0.387,0.004-4.057-0.221-5.131c-0.225-1.073-0.855-2.232-1.492-3.381
		c-0.363-0.663-0.711-0.915-0.502-2.217c0.041-0.25,0.869-1.71,4.238-1.71c3.369,0,4.131,1.478,4.197,1.737
		c0.23,0.936-0.277,1.5-0.602,2.189C23.455,8.223,22.93,9.352,22.6,10.5c-0.332,1.148,0.248,4.799,0.068,5.131
		c-0.18,0.33-0.625,0.793-2.236,0.793C18.823,16.424,18.534,16.006,18.354,15.631z"/>
</g>
</svg>
