<?xml version="1.0" encoding="utf-8"?>
<!-- Generator: Adobe Illustrator 16.0.3, SVG Export Plug-In . SVG Version: 6.00 Build 0)  -->
<!DOCTYPE svg PUBLIC "-//W3C//DTD SVG 1.1//EN" "http://www.w3.org/Graphics/SVG/1.1/DTD/svg11.dtd">
<svg version="1.1" id="Layer_1" xmlns="http://www.w3.org/2000/svg" xmlns:xlink="http://www.w3.org/1999/xlink" x="0px" y="0px"
	 width="40px" height="28px" viewBox="0 0 40 28" enable-background="new 0 0 40 28" xml:space="preserve">
<g>
	<g>
		<path fill="#FFFFFF" d="M7.288,7.99C6.865,7.869,4.655,7.108,4.087,7.084c-0.568-0.025-1.245,1.069-1.624,2.41
			c-0.381,1.342-0.333,2.346,0.181,2.691c0.548,0.367,2.766,0.782,3.204,0.906c0.442,0.125-0.271-0.368,0.31-2.419
			C6.735,8.62,7.718,8.111,7.288,7.99z"/>
	</g>
	<g>
		<path fill="#FFFFFF" d="M29.531,19.783c-0.834-0.234-21.638-6.113-21.946-6.202c-0.311-0.087-0.314-1.744-0.062-2.632
			c0.25-0.89,1.02-2.506,1.44-2.387c0.423,0.119,21.28,5.913,22.01,6.119c0.359,0.104-0.293,0.172-0.941,2.457
			C29.386,19.425,29.952,19.902,29.531,19.783z"/>
	</g>
	<g>
		<path fill="#FFFFFF" d="M32.648,15.311c0.288-0.131,6.278,3.766,6.112,4.346c-0.165,0.582-7.287,0.732-7.5,0.508
			c-0.221-0.223-0.148-1.492,0.157-2.578C31.728,16.5,32.359,15.441,32.648,15.311z"/>
	</g>
</g>
</svg>
