<?xml version="1.0" encoding="utf-8"?>
<!-- Generator: Adobe Illustrator 16.0.3, SVG Export Plug-In . SVG Version: 6.00 Build 0)  -->
<!DOCTYPE svg PUBLIC "-//W3C//DTD SVG 1.1//EN" "http://www.w3.org/Graphics/SVG/1.1/DTD/svg11.dtd">
<svg version="1.1" id="Layer_1" xmlns="http://www.w3.org/2000/svg" xmlns:xlink="http://www.w3.org/1999/xlink" x="0px" y="0px"
	 width="40px" height="28px" viewBox="0 0 40 28" enable-background="new 0 0 40 28" xml:space="preserve">
<g>
	<rect x="6.303" y="17.355" fill="none" width="28.371" height="10.08"/>
	<g enable-background="new    ">
		<path fill="#FFFFFF" d="M9.644,22.819v-4.843c0-0.138,0.065-0.241,0.197-0.311c0.131-0.068,0.29-0.104,0.476-0.104
			c0.187,0,0.345,0.035,0.476,0.104c0.131,0.069,0.197,0.173,0.197,0.311v4.843c0,0.793,0.379,1.19,1.138,1.19
			s1.138-0.397,1.138-1.19v-4.843c0-0.138,0.065-0.241,0.197-0.311c0.131-0.068,0.29-0.104,0.476-0.104
			c0.186,0,0.345,0.035,0.476,0.104c0.131,0.069,0.196,0.173,0.196,0.311v4.843c0,0.814-0.226,1.412-0.678,1.795
			c-0.452,0.384-1.054,0.575-1.806,0.575s-1.354-0.19-1.806-0.569C9.87,24.24,9.644,23.641,9.644,22.819z"/>
		<path fill="#FFFFFF" d="M15.646,24.703v-4.077c0-0.125,0.06-0.225,0.181-0.301c0.121-0.075,0.281-0.113,0.481-0.113
			c0.166,0,0.305,0.038,0.419,0.114c0.114,0.077,0.171,0.178,0.171,0.304v0.313c0.11-0.223,0.288-0.411,0.533-0.564
			c0.245-0.152,0.529-0.229,0.854-0.229c0.476,0,0.892,0.207,1.247,0.621c0.355,0.414,0.533,0.907,0.533,1.479v2.453
			c0,0.131-0.067,0.234-0.202,0.31c-0.135,0.076-0.292,0.114-0.471,0.114c-0.172,0-0.326-0.038-0.46-0.113
			c-0.134-0.076-0.202-0.179-0.202-0.31v-2.446c0-0.24-0.09-0.456-0.269-0.645c-0.18-0.189-0.39-0.284-0.631-0.284
			c-0.228,0-0.426,0.086-0.595,0.258c-0.169,0.173-0.254,0.396-0.254,0.671v2.446c0,0.104-0.067,0.199-0.202,0.289
			c-0.134,0.089-0.292,0.134-0.471,0.134c-0.187,0-0.343-0.043-0.471-0.129C15.709,24.911,15.646,24.813,15.646,24.703z"/>
		<path fill="#FFFFFF" d="M20.881,23.099V22.25c0-0.572,0.182-1.065,0.544-1.479s0.795-0.621,1.299-0.621
			c0.304,0,0.57,0.077,0.802,0.229c0.231,0.153,0.409,0.342,0.533,0.564V17.77c0-0.124,0.063-0.225,0.191-0.3
			c0.127-0.076,0.288-0.114,0.48-0.114c0.193,0,0.353,0.038,0.477,0.114c0.124,0.075,0.187,0.176,0.187,0.3v6.934
			c0,0.11-0.064,0.209-0.191,0.295c-0.128,0.086-0.285,0.129-0.472,0.129c-0.158,0-0.298-0.045-0.419-0.136
			c-0.12-0.091-0.181-0.188-0.181-0.293v-0.303c-0.11,0.223-0.299,0.416-0.564,0.579c-0.266,0.164-0.557,0.245-0.874,0.245
			c-0.477,0-0.897-0.214-1.263-0.642S20.881,23.657,20.881,23.099z M22.216,23.096c0,0.239,0.09,0.457,0.27,0.652
			s0.39,0.292,0.631,0.292c0.242,0,0.459-0.094,0.652-0.282c0.193-0.188,0.29-0.347,0.29-0.478v-1.026
			c0-0.274-0.095-0.497-0.285-0.668c-0.189-0.171-0.405-0.257-0.646-0.257c-0.248,0-0.462,0.095-0.642,0.282
			c-0.18,0.188-0.27,0.402-0.27,0.643V23.096z"/>
		<path fill="#FFFFFF" d="M26.252,23.099V22.25c0-0.565,0.221-1.057,0.662-1.475c0.441-0.417,0.97-0.626,1.583-0.626
			c0.601,0,1.125,0.207,1.573,0.621s0.673,0.907,0.673,1.479v0.849c0,0.559-0.225,1.052-0.673,1.479s-0.973,0.642-1.573,0.642
			c-0.6,0-1.124-0.214-1.572-0.642S26.252,23.657,26.252,23.099z M27.587,23.096c0,0.246,0.09,0.466,0.269,0.657
			c0.18,0.191,0.394,0.287,0.642,0.287c0.242,0,0.454-0.096,0.637-0.287s0.274-0.411,0.274-0.657v-0.842
			c0-0.233-0.092-0.445-0.274-0.637c-0.183-0.192-0.395-0.288-0.637-0.288c-0.248,0-0.462,0.095-0.642,0.282
			c-0.179,0.188-0.269,0.402-0.269,0.643V23.096z"/>
	</g>
</g>
<path fill="#FFFFFF" d="M11.484,7.73c0.092,0.543,0.834,1.307,0.836,1.309c0.131,0.143,3.17,4.427,4.146,4.765
	c0.125,0.041,0.246,0.062,0.367,0.062c0.484,0,0.867-0.342,0.977-0.873c0.096-0.466,0.135-2.304,0.143-3.229
	c0.725,0.014,7.662,0.052,8.629,0.052c2.152,0,2.928-0.412,2.928-2.156c0-1.764-0.588-2.475-2.738-2.475
	c-0.936,0-7.848,0.076-8.862,0.111c-0.008-0.773-0.012-2.333,0-2.445c0.041-0.396,0.018-0.71-0.074-0.962
	c-0.15-0.418-0.451-0.507-0.68-0.507c-0.191,0-0.412,0.062-0.652,0.187c-0.627,0.319-4.383,4.711-4.662,4.994
	C11.545,6.862,11.414,7.3,11.484,7.73z"/>
</svg>
