<?xml version="1.0" encoding="utf-8"?>
<!-- Generator: Adobe Illustrator 16.0.3, SVG Export Plug-In . SVG Version: 6.00 Build 0)  -->
<!DOCTYPE svg PUBLIC "-//W3C//DTD SVG 1.1//EN" "http://www.w3.org/Graphics/SVG/1.1/DTD/svg11.dtd">
<svg version="1.1" id="Layer_1" xmlns="http://www.w3.org/2000/svg" xmlns:xlink="http://www.w3.org/1999/xlink" x="0px" y="0px"
	 width="40px" height="28px" viewBox="0 0 40 28" enable-background="new 0 0 40 28" xml:space="preserve">
<g>
	<rect x="6.156" y="17.795" fill="none" width="27.688" height="9.568"/>
	<g enable-background="new    ">
		<path fill="#FFFFFF" d="M9.017,23.259v-2.887c0-0.814,0.221-1.413,0.663-1.796c0.441-0.383,1.017-0.574,1.728-0.574
			c0.724,0,1.315,0.18,1.774,0.538c0.459,0.359,0.688,0.835,0.688,1.428c0,0.256-0.051,0.43-0.155,0.523
			c-0.104,0.093-0.276,0.14-0.518,0.14c-0.441,0-0.666-0.142-0.673-0.425c-0.007-0.09-0.015-0.167-0.026-0.232
			c-0.01-0.065-0.038-0.152-0.083-0.259c-0.045-0.107-0.102-0.197-0.171-0.27s-0.172-0.134-0.311-0.186
			c-0.138-0.052-0.3-0.078-0.486-0.078c-0.724,0-1.086,0.396-1.086,1.19v2.887c0,0.793,0.369,1.19,1.107,1.19
			c0.221,0,0.405-0.035,0.554-0.104c0.148-0.069,0.255-0.168,0.321-0.295c0.065-0.128,0.11-0.242,0.134-0.342
			c0.024-0.1,0.04-0.223,0.046-0.367c0.021-0.283,0.242-0.425,0.663-0.425c0.241,0,0.416,0.047,0.522,0.14
			c0.107,0.094,0.16,0.268,0.16,0.523c0,0.62-0.229,1.117-0.688,1.489c-0.459,0.373-1.054,0.56-1.785,0.56
			c-0.71,0-1.285-0.191-1.723-0.575C9.236,24.671,9.017,24.073,9.017,23.259z"/>
		<path fill="#FFFFFF" d="M14.771,25.143v-6.944c0-0.124,0.061-0.224,0.181-0.3c0.121-0.075,0.281-0.113,0.481-0.113
			c0.186,0,0.345,0.038,0.476,0.113c0.131,0.076,0.196,0.176,0.196,0.3v6.944c0,0.104-0.067,0.2-0.202,0.289
			c-0.135,0.09-0.292,0.135-0.471,0.135c-0.187,0-0.343-0.043-0.471-0.129C14.834,25.351,14.771,25.253,14.771,25.143z"/>
		<path fill="#FFFFFF" d="M17.047,23.538v-0.88c0-0.565,0.221-1.052,0.662-1.459c0.441-0.406,0.977-0.61,1.604-0.61
			c0.586,0,1.088,0.186,1.505,0.557c0.418,0.37,0.627,0.837,0.627,1.397c0,0.205-0.026,0.374-0.078,0.508
			c-0.052,0.133-0.131,0.227-0.238,0.281s-0.205,0.089-0.295,0.103s-0.207,0.021-0.352,0.021h-2.101v0.155
			c0,0.297,0.11,0.537,0.331,0.72s0.514,0.274,0.88,0.274c0.262,0,0.521-0.066,0.776-0.197c0.254-0.131,0.42-0.196,0.497-0.196
			c0.145,0,0.266,0.067,0.362,0.202c0.097,0.134,0.146,0.264,0.146,0.388c0,0.193-0.175,0.385-0.523,0.574
			c-0.348,0.189-0.781,0.284-1.298,0.284c-0.738,0-1.34-0.194-1.806-0.584C17.28,24.686,17.047,24.173,17.047,23.538z
			 M18.382,22.669h1.511c0.11,0,0.188-0.018,0.233-0.053c0.045-0.036,0.067-0.105,0.067-0.208c0-0.226-0.088-0.409-0.264-0.551
			c-0.176-0.142-0.392-0.213-0.646-0.213c-0.242,0-0.452,0.069-0.631,0.208c-0.18,0.139-0.269,0.32-0.269,0.546V22.669z"/>
		<path fill="#FFFFFF" d="M21.952,24.241c0-0.544,0.207-0.926,0.621-1.147c0.414-0.221,1.011-0.332,1.79-0.332h0.424v-0.138
			c0-0.263-0.074-0.491-0.222-0.687c-0.148-0.195-0.378-0.293-0.688-0.293s-0.576,0.059-0.797,0.176s-0.349,0.176-0.383,0.176
			c-0.138,0-0.248-0.068-0.331-0.207c-0.083-0.138-0.124-0.289-0.124-0.455c0-0.2,0.178-0.374,0.533-0.522
			c0.354-0.148,0.729-0.223,1.122-0.223c0.752,0,1.311,0.191,1.677,0.574c0.365,0.383,0.548,0.864,0.548,1.443v2.536
			c0,0.117-0.062,0.217-0.186,0.3s-0.279,0.124-0.466,0.124c-0.173,0-0.315-0.044-0.43-0.133c-0.113-0.088-0.171-0.195-0.171-0.32
			v-0.321c-0.476,0.578-1,0.867-1.572,0.867c-0.394,0-0.716-0.12-0.968-0.362S21.952,24.703,21.952,24.241z M23.287,24.074
			c0,0.177,0.05,0.31,0.15,0.397c0.1,0.088,0.232,0.133,0.398,0.133c0.221,0,0.435-0.099,0.642-0.295s0.31-0.412,0.31-0.648v-0.206
			h-0.154c-0.421,0-0.751,0.041-0.988,0.123C23.406,23.66,23.287,23.825,23.287,24.074z"/>
		<path fill="#FFFFFF" d="M27.115,25.143v-4.077c0-0.125,0.061-0.225,0.181-0.301c0.121-0.075,0.278-0.113,0.471-0.113
			c0.173,0,0.316,0.038,0.43,0.114c0.114,0.077,0.171,0.178,0.171,0.304v0.428c0.11-0.243,0.283-0.456,0.518-0.637
			s0.486-0.271,0.755-0.271h0.321c0.124,0,0.236,0.06,0.336,0.178s0.15,0.254,0.15,0.407c0,0.16-0.051,0.299-0.15,0.418
			c-0.1,0.118-0.212,0.177-0.336,0.177H29.64c-0.317,0-0.595,0.142-0.833,0.423c-0.237,0.282-0.356,0.65-0.356,1.104v1.848
			c0,0.104-0.069,0.199-0.207,0.289c-0.139,0.089-0.297,0.134-0.477,0.134c-0.186,0-0.341-0.043-0.465-0.129
			C27.177,25.351,27.115,25.253,27.115,25.143z"/>
	</g>
</g>
<g>
	<path fill="#FFFFFF" d="M23.412,9.538c0,0-0.588-0.703-0.785-0.918c0.393-0.438,0.203-0.256,0.795-0.917
		c1.377-1.582,1.402-1.7,1.809-2.325c0.861-1.322,0.888-2.146,0.265-2.636c-0.631-0.507-1.361-0.472-2.381,0.265
		c-0.445,0.311-0.669,0.359-2.408,2.11c-0.443,0.424-0.248,0.175-0.762,0.708c-0.52-0.533-0.346-0.321-0.789-0.746
		c-1.742-1.75-1.943-1.837-2.385-2.146c-1.023-0.738-1.539-0.659-2.168-0.152c-0.623,0.489-0.814,1.2,0.049,2.522
		c0.41,0.624,0.41,0.78,1.799,2.362c0.59,0.659,0.424,0.517,0.811,0.951c-0.199,0.215-0.811,1.01-0.811,1.01
		c-1.398,1.572-1.486,1.765-1.895,2.403c-0.865,1.315-0.709,2.081-0.088,2.577c0.641,0.498,1.191,0.521,2.205-0.215
		c0.445-0.312,0.725-0.421,2.469-2.152c0.455-0.444,0.295-0.304,0.801-0.826c0.506,0.522,0.312,0.295,0.768,0.739
		c1.74,1.731,2.121,1.991,2.567,2.302c1.015,0.738,1.668,0.715,2.308,0.217c0.623-0.496,0.674-1.262-0.188-2.576
		C24.986,11.454,24.799,11.111,23.412,9.538z"/>
</g>
</svg>
