<?xml version="1.0" encoding="utf-8"?>
<!-- Generator: Adobe Illustrator 16.0.3, SVG Export Plug-In . SVG Version: 6.00 Build 0)  -->
<!DOCTYPE svg PUBLIC "-//W3C//DTD SVG 1.1//EN" "http://www.w3.org/Graphics/SVG/1.1/DTD/svg11.dtd">
<svg version="1.1" id="Layer_1" xmlns="http://www.w3.org/2000/svg" xmlns:xlink="http://www.w3.org/1999/xlink" x="0px" y="0px"
	 width="40px" height="28px" viewBox="0 0 40 28" enable-background="new 0 0 40 28" xml:space="preserve">
<g>
	<g>
		<path fill="#FFFFFF" d="M30.901,13.896c-0.638,0.489-3.482-1.056-5.363-3.381c-2.058-2.536-3.034-5.969-2.272-6.556
			c0.759-0.583,3.343,1.634,5.295,4.232C30.368,10.595,31.542,13.403,30.901,13.896z"/>
	</g>
	<path fill="#FFFFFF" d="M24.023,11.351c-4.375-5.312-1.221-8.055-2.525-7.166c-1.305,0.891-6.271,4.692-7.377,5.542
		c0,0,1.386,1.093,4.052,1.885c2.507,0.745,3.833,0.692,3.833,0.692s0.812,0.084,0.768,0.953c-0.046,0.911-1.031,0.875-1.031,0.875
		c-3.699,0.015-6.361-1.104-9.361-3.104c-0.292,0.198-0.667,0.417-0.841,0.584c-0.963,0.925-2.105,3.87,0.781,7.626
		c2.883,3.754,7.169,4.775,8.072,4.005c1.829-1.562,8.538-6.753,9.82-7.715C31.496,14.562,28.398,16.663,24.023,11.351z"/>
	<path fill="#FFFFFF" d="M18.714,6.351c0,0-7.594-1.625-8.688,1.094c-0.794,1.973,2.354,3.583,2.354,3.583l1.771-1.302
		c0,0-2.438-1.281-2.125-1.812c0.55-0.935,4.875-0.062,4.875-0.062L18.714,6.351z"/>
</g>
</svg>
