<?xml version="1.0" encoding="utf-8"?>
<!-- Generator: Adobe Illustrator 16.0.3, SVG Export Plug-In . SVG Version: 6.00 Build 0)  -->
<!DOCTYPE svg PUBLIC "-//W3C//DTD SVG 1.1//EN" "http://www.w3.org/Graphics/SVG/1.1/DTD/svg11.dtd">
<svg version="1.1" id="Layer_1" xmlns="http://www.w3.org/2000/svg" xmlns:xlink="http://www.w3.org/1999/xlink" x="0px" y="0px"
	 width="40px" height="28px" viewBox="0 0 40 28" enable-background="new 0 0 40 28" xml:space="preserve">
<g>
	<g>
		<path fill="#FFFFFF" d="M24.023,17.013c0.508,2.033-18.158-4.715-21.895-7.59C1.662,9.062,1.743,8.533,1.893,8.22
			c0.148-0.313,0.48-0.582,1.076-0.613c4.688-0.25,23.387,4.445,21.947,6.29C24.467,14.474,23.869,16.396,24.023,17.013z"/>
	</g>
	<g>
		<path fill="#FFFFFF" d="M28.094,19.71c1.365,0.255,3.646-0.783,5.1-0.82c1.738-0.045,3.031,1.049,3.646,0.712
			c0.809-0.442-0.718-3.478-3.234-5.186c-2.857-1.938-6.463-2.011-7.528,1.226C25.344,17.87,26.781,19.466,28.094,19.71z"/>
	</g>
</g>
</svg>
