<?xml version="1.0" encoding="utf-8"?>
<!-- Generator: Adobe Illustrator 16.0.3, SVG Export Plug-In . SVG Version: 6.00 Build 0)  -->
<!DOCTYPE svg PUBLIC "-//W3C//DTD SVG 1.1//EN" "http://www.w3.org/Graphics/SVG/1.1/DTD/svg11.dtd">
<svg version="1.1" id="Layer_1" xmlns="http://www.w3.org/2000/svg" xmlns:xlink="http://www.w3.org/1999/xlink" x="0px" y="0px"
	 width="40px" height="28px" viewBox="0 0 40 28" enable-background="new 0 0 40 28" xml:space="preserve">
<g>
	<path fill="#FFFFFF" d="M7.33,19.51c0.295-0.102,0.707-0.15,1.284-0.213c4.076-0.428,6.653-1.41,11.615-0.523
		c3.888,0.691,8.481,1.736,12.44,1.578v1.227c0,0.625-0.51,1.133-1.135,1.133H8.465c-0.627,0-1.135-0.508-1.135-1.133V19.51z"/>
</g>
<g>
	<path fill="#FFFFFF" d="M13.63,17.252c0.054-1.67,0.657-4.055,0.321-3.998c-0.606,0.106-1.21-0.074-1.37-0.859
		c-0.711,0.747-2.733-0.433-1.988-1.102c-1.172,1.181-1.331-1.368-0.392-1.337c-0.121-0.322-0.18-0.711-0.057-0.942
		c0.111-0.203,0.648-0.423,0.806-0.382c-0.036-0.257,0.087-0.595,0.21-0.76c0.389-0.518,1.173-0.457,1.691-0.319
		c0.085,0.023,0.263,0.104,0.328,0.059c0.107-0.075,0.122-0.349,0.169-0.469c0.114-0.293,0.415-0.364,0.687-0.332
		c0.191,0.021,0.377,0.168,0.57,0.139c0.122-0.018,0.267-0.103,0.389-0.139c0.392-0.119,1.988,0.274,1.387,0.904
		c0.354-0.275,1.241-0.314,1.525,0.078c0.291,0.369,0.217,0.915,0.02,1.398c0.51-0.124,0.878,0.14,1.02,0.562
		c0.139,0.422-0.107,1.07-0.51,1.184c0.248,0.308,0.313,0.544,0.297,0.857c-0.032,0.432-0.889,1.252-1.131,0.861
		c0.037,0.576-1.668,1.604-2.438,0.738c-0.1-0.114,0.047,1.288-0.111,3.681c1.988-0.211,3.234-0.072,5.177,0.225
		c3.907,0.58,8.481,1.736,12.44,1.578V6.422c0-0.626-0.51-1.134-1.135-1.134H8.465c-0.627,0-1.135,0.508-1.135,1.134v11.664
		c0.216-0.068,0.691-0.072,1.318-0.174C11.166,17.504,12.064,17.41,13.63,17.252z"/>
</g>
<g>
</g>
<g>
</g>
<g>
</g>
<g>
</g>
<g>
</g>
<g>
</g>
</svg>
