<?xml version="1.0" encoding="utf-8"?>
<!-- Generator: Adobe Illustrator 16.0.3, SVG Export Plug-In . SVG Version: 6.00 Build 0)  -->
<!DOCTYPE svg PUBLIC "-//W3C//DTD SVG 1.1//EN" "http://www.w3.org/Graphics/SVG/1.1/DTD/svg11.dtd">
<svg version="1.1" id="Layer_1" xmlns="http://www.w3.org/2000/svg" xmlns:xlink="http://www.w3.org/1999/xlink" x="0px" y="0px"
	 width="40px" height="28px" viewBox="0 0 40 28" enable-background="new 0 0 40 28" xml:space="preserve">
<g>
	<g>
		<path fill="#FFFFFF" d="M13.87,8.276c0-0.362,0.084-0.682,0.255-0.958c0.169-0.275,0.417-0.415,0.74-0.415h10.269
			c0.324,0,0.57,0.14,0.741,0.415c0.169,0.276,0.255,0.596,0.255,0.958c0,0.379-0.09,0.705-0.268,0.981s-0.421,0.414-0.729,0.414
			H21.59v10.423c0,0.31-0.158,0.554-0.474,0.732c-0.315,0.18-0.684,0.269-1.104,0.269c-0.438,0-0.811-0.089-1.117-0.269
			c-0.309-0.179-0.461-0.423-0.461-0.732V9.672h-3.569c-0.308,0-0.551-0.135-0.728-0.402C13.958,9.001,13.87,8.671,13.87,8.276z"/>
	</g>
	<rect x="9.943" y="4.167" fill="none" stroke="#FFFFFF" stroke-miterlimit="10" width="20.113" height="19.666"/>
</g>
<g>
</g>
<g>
</g>
<g>
</g>
<g>
</g>
<g>
</g>
<g>
</g>
</svg>
