<?xml version="1.0" encoding="utf-8"?>
<!-- Generator: Adobe Illustrator 17.1.0, SVG Export Plug-In . SVG Version: 6.00 Build 0)  -->
<!DOCTYPE svg PUBLIC "-//W3C//DTD SVG 1.1//EN" "http://www.w3.org/Graphics/SVG/1.1/DTD/svg11.dtd">
<svg version="1.1" id="Layer_1" xmlns="http://www.w3.org/2000/svg" xmlns:xlink="http://www.w3.org/1999/xlink" x="0px" y="0px"
	 viewBox="0 0 80 80" enable-background="new 0 0 80 80" xml:space="preserve">
<g>
	<path fill="#59C9E9" d="M77.5,64.2c0,7.9-6.4,14.3-14.3,14.3H15.8c-7.9,0-14.3-6.4-14.3-14.3V16.8c0-7.9,6.4-14.3,14.3-14.3h47.4
		c7.9,0,14.3,6.4,14.3,14.3V64.2z"/>
	<path fill="#F15E22" d="M32.9,65.4c-5.5,5.8-7.9-0.1-11.6,0c-3.7,0.1-4.4,5.5-4.4,5.5l-8.5-8.4c0,0,2.9-7.5,9.9-7.9
		c7-0.5,8.1,8.9,16.7,3.3L32.9,65.4z"/>
	<path fill="#3A7BBF" d="M51.5,78.7c2.2-19.5-3.5-21-6-22.4c-2.5-1.4-2.2-6.3-2.2-6.3h-4.7c0,0,0.4,4.8-2.2,6.3
		c-2.5,1.4-8.2,2.9-6,22.4H51.5z"/>
	<path fill="#F15E22" d="M34.7,60.9l6.5,2.5l7-2.8l0.8-1.9c-1.2-1.4-2.6-1.9-3.5-2.5c-2.5-1.4-2.2-6.3-2.2-6.3h-4.7
		c0,0,0.4,4.8-2.2,6.3c-0.8,0.5-2,1-3.2,2.1L34.7,60.9z"/>
	<path fill="#231F20" d="M20.5,32c0,0-0.1,4.4-2.6,5.6c-2.5,1.3-5.5-3.7-5.5-3.7s-2,13.1,8.2,13.4c10.2,0.3,8.8-9.7,8.8-9.7L20.5,32
		z"/>
	<path fill="#231F20" d="M60.3,32c0,0-0.1,4.4,2.4,5.6c2.5,1.3,5.5-3.7,5.5-3.7s2,13.1-8.2,13.4c-10.2,0.3-8.8-9.7-8.8-9.7L60.3,32z
		"/>
	<path fill="#DEA92F" d="M20.9,33.6c0,0-0.1,17.9,20.2,17.8s18.7-19.9,18.7-19.9S57,18.6,37.7,19.6S20.9,33.6,20.9,33.6z"/>
	<path fill="#231F20" d="M22.4,20.4c0,0,3.2-12.3,17.9-11.9c14.6,0.4,17.7,11.9,17.7,11.9H22.4z"/>
	<path fill="#231F20" d="M39.4,34.6c-0.1,0-0.2,0-0.2-0.1c-0.1-0.1-0.1-0.3,0-0.4l2.4-2.1L39.2,30c-0.1-0.1-0.1-0.3,0-0.4
		c0.1-0.1,0.3-0.1,0.4,0l2.7,2.2c0.1,0.1,0.1,0.1,0.1,0.2c0,0.1,0,0.2-0.1,0.2l-2.7,2.3C39.5,34.6,39.5,34.6,39.4,34.6z"/>
	<polygon fill="#FDEF36" points="34.7,60.8 48.2,60.7 44.4,67.7 39.6,67.7 	"/>
	<g>
		<path fill="#CB8129" d="M35.3,41.9l1.7-4.2l3,2.4l1.7-3.2l3.2,3.5c0,0,0.3,4.9-4.1,5.4C36.6,46.3,35.3,41.9,35.3,41.9z"/>
		<path fill="#231F20" d="M38.8,41.6c-3,0-5.3-0.9-5.3-0.9c-0.1-0.1-0.2-0.2-0.2-0.4c0.1-0.1,0.2-0.2,0.4-0.2
			c0.1,0,7.1,2.8,12.9-1.7c0.1-0.1,0.3-0.1,0.4,0c0.1,0.1,0.1,0.3,0,0.4C44.3,41,41.3,41.6,38.8,41.6z"/>
	</g>
	<g>
		<g>
			<ellipse fill="#C5992D" cx="28.1" cy="28.1" rx="9.1" ry="9.5"/>
			<path fill="#C5992D" d="M46.4,25.2c-7.5-2.2-13-0.1-13-0.1L26,20.9c0,0,12.3-1.9,28,0"/>
			<ellipse fill="#C5992D" cx="52" cy="28.1" rx="9.3" ry="9.5"/>
		</g>
		<circle fill="#FDEF36" cx="26.4" cy="27.3" r="8.6"/>
		<circle fill="#FDEF36" cx="53.6" cy="27.3" r="8.6"/>
		<path fill="#FDEF36" d="M46.4,23.1c-7.5-2.2-13-0.1-13-0.1L26,18.8c0,0,12.3-1.9,28,0"/>
		<circle fill="#77C043" cx="26.4" cy="27.3" r="5.1"/>
		<circle fill="#77C043" cx="53.6" cy="27.3" r="5.1"/>
		<path fill="#ACD037" d="M30.6,30.2l-7.1-7.1c-0.7,0.5-1.2,1.1-1.6,1.8l7,7C29.6,31.4,30.2,30.9,30.6,30.2z"/>
		<path fill="#ACD037" d="M58,30l-7.1-7.1c-0.7,0.4-1.3,1-1.7,1.7l7.1,7.1C56.9,31.3,57.5,30.7,58,30z"/>
		<path fill="#487838" d="M26.4,22.2c-2.8,0-5.1,2.3-5.1,5.1c0,0.3,0,0.6,0.1,0.9c0.4-2.4,2.5-4.2,5.1-4.2c2.5,0,4.6,1.8,5.1,4.2
			c0.1-0.3,0.1-0.6,0.1-0.9C31.5,24.5,29.2,22.2,26.4,22.2z"/>
		<path fill="#487838" d="M53.6,24.1c2.5,0,4.6,1.8,5.1,4.2c0.1-0.3,0.1-0.6,0.1-0.9c0-2.8-2.3-5.1-5.1-5.1c-2.8,0-5.1,2.3-5.1,5.1
			c0,0.3,0,0.6,0.1,0.9C49,25.9,51.1,24.1,53.6,24.1z"/>
	</g>
	<g>
		<path fill="#FFFFFF" d="M64.7,0.3H15.3c-8.3,0-15,6.7-15,15v49.4c0,8.3,6.7,15,15,15h49.4c8.3,0,15-6.7,15-15V15.3
			C79.7,7,73,0.3,64.7,0.3z M76.1,23.2c0,6.8,0.1,13.6,0.1,20.3c0,2.1-0.7,4-2.1,5.6c-1.5,1.7-3.3,2.7-5.5,3.4
			c-1.3,0.4-2.6,0.5-3.9,0.6c-2,0-3.9,0.4-5.6,1.4c-2.1,1.1-3.7,2.7-4.8,4.8c-0.7,1.3-1.1,2.6-1.4,4.1c-0.1,0.6-0.1,1.2-0.1,1.9
			c-0.1,2.3-0.5,4.5-1.6,6.5c-1.1,2-2.6,3.5-4.7,4.3c-0.9,0.3-1.8,0.5-2.7,0.5c-3.2,0.1-6.4,0-9.6,0c-4.1,0-8.3,0-12.4-0.1
			c-2.3,0-4.6-0.3-6.8-0.9c-2.5-0.7-4.7-2-6.5-3.9C6.9,70,5.7,68.1,4.9,66c-0.2-0.6-0.3-1.2-0.4-1.8c-0.1-0.6-0.3-1.2-0.4-1.8
			C4,61.6,3.9,60.8,3.8,60c-0.1-1.1-0.1-2.2-0.1-3.3c0-2.4-0.1-4.9-0.1-7.3c0-8.1,0-16.2,0-24.3c0-1.2,0-2.3,0.1-3.5
			c0.1-2.4,0.4-4.8,1.1-7c0.4-1.3,1-2.5,1.8-3.6C7.2,10.3,7.8,9.6,8.4,9c2.1-2.1,4.5-3.6,7.4-4.1c1.2-0.3,2.5-0.4,3.8-0.5
			c1.4-0.1,2.9-0.2,4.3-0.2c5.3,0,10.7,0,16,0c0,0,0,0,0-0.1C45,4,50,4,55,4c1.1,0,2.2,0,3.4,0.1c2,0.1,4,0.3,6,0.8
			c1.7,0.4,3.3,1.1,4.7,2.2c0.9,0.7,1.8,1.4,2.5,2.2c1.7,1.7,2.8,3.8,3.5,6.1c0.4,1.5,0.7,3.1,0.8,4.7C76,21.1,76.1,22.2,76.1,23.2z
			"/>
	</g>
	<g>
		<path fill="#FFFFFF" d="M65.5,56.9c-5.1,0-9.2,4.1-9.2,9.2c0,5.1,4.1,9.2,9.2,9.2c5.1,0,9.2-4.1,9.2-9.2
			C74.7,61,70.6,56.9,65.5,56.9"/>
		<path fill="#A5CD39" d="M65.5,57.2c-4.9,0-8.9,4-8.9,8.9c0,4.9,4,8.9,8.9,8.9c4.9,0,8.9-4,8.9-8.9C74.4,61.2,70.4,57.2,65.5,57.2"
			/>
		<path fill="#FFFFFF" d="M59,62.1c0-1.1,0.6-2.1,1.6-2.9c1.4-1,3.1-1.6,4.9-1.6c1.8,0,3.4,0.6,4.8,1.6c1.1,0.8,1.7,1.8,1.7,3
			c0,1.3-0.8,2.5-2.2,3.3l0,0c-1.3,0.8-2.8,1.2-4.4,1.2c-1.9,0-3.6-0.7-5-1.8C59.5,64.1,59,63.1,59,62.1"/>
		<path fill="#0E0F19" d="M66.7,60.6c0.3-0.2,0.4-0.7,0.4-0.8c0-0.7-0.5-1.1-1.4-1.1c-0.3,0-0.7,0-1.3,0.2v0c0,0,0,0,0,0.1
			c0,0,0,0,0,0c0.1,0.9,0.1,2.2,0,3.5c0,0,0,0,0,0c0,0,0,0.1,0.1,0.1c0.3,0.1,1,0.1,1.3,0.1c0.9,0,1.5-0.5,1.5-1.2
			C67.3,61,67.1,60.7,66.7,60.6 M65.6,59.5c0.3,0,0.6,0.2,0.6,0.4c0,0.5-0.8,0.4-0.8,0.4l0-0.8C65.4,59.5,65.4,59.5,65.6,59.5
			 M65.7,61.8c-0.1,0-0.2,0-0.4,0l0-0.8c0,0,0.2,0,0.3,0c0.3,0,0.6,0.1,0.6,0.4C66.3,61.6,66.2,61.8,65.7,61.8"/>
		<path fill="#0E0F19" d="M62,59.1c-0.4,0.1-0.8,0.2-1.1,0.4c0,0,0,0,0,0c-0.1,0,0,0.1,0,0.1c0.3,0.6,0.7,2.8,0.8,3.5v0c0,0,0,0,0,0
			c0,0,0,0.1,0.1,0l0.9-0.3c0,0,0.1,0,0-0.1c0,0,0,0,0,0c0,0,0,0,0-0.1l0-0.2l-0.1-0.7c0,0,0.2,0,0.2-0.1c1-0.2,1.5-1,1.3-1.7
			C63.9,59.2,63.1,58.9,62,59.1 M62.5,61c-0.1,0-0.2,0-0.2,0l-0.2-1c0,0,0.2-0.1,0.3-0.1c0.4-0.1,0.7,0.1,0.7,0.4
			C63.2,60.6,63,60.8,62.5,61"/>
		<path fill="#0E0F19" d="M69.5,60.2C69.5,60.2,69.6,60.2,69.5,60.2c0.1,0,0.1,0,0.1,0v0c0.1,0,0,0,0.5-0.6c0,0,0,0,0,0
			c0,0,0-0.1,0-0.1c0,0-0.5-0.4-1.2-0.5c-0.9-0.1-1.5,0.4-1.5,1.2c0,0.6,0.4,1,1.2,1.3c0.6,0.2,0.4,0.6,0,0.6
			c-0.2,0-0.6-0.2-0.8-0.4c0,0,0,0,0,0c0,0,0,0-0.1,0l-0.5,0.6c0,0,0,0,0,0c0,0,0,0.1,0,0.1c0.3,0.4,0.8,0.6,1.3,0.6
			c0.8,0.1,1.4-0.4,1.5-1.1c0.1-0.8-0.6-1-1.1-1.2c-0.4-0.1-0.6-0.3-0.6-0.4C68.5,60,68.8,59.8,69.5,60.2"/>
		<path fill="#FFFFFF" d="M71.4,66.7c0.5,0.2,1.1,0,1.3-0.6c0.2-0.5,0-1.1-0.5-1.3c-0.5-0.2-1.1,0-1.3,0.5
			C70.6,65.9,70.8,66.5,71.4,66.7"/>
		<path fill="#FFFFFF" d="M69.3,69.1c0-0.5-0.4-0.9-1-0.9c-0.5,0-0.9,0.4-0.9,1c0,0.5,0.4,0.9,1,0.9C68.9,70.1,69.3,69.7,69.3,69.1"
			/>
		<path fill="#FFFFFF" d="M64.5,72.1c0.9-0.2,1.5-1.1,1.2-2c-0.2-0.9-1.1-1.4-2-1.2c-0.9,0.2-1.5,1.1-1.2,2
			C62.7,71.8,63.6,72.3,64.5,72.1"/>
		<path fill="#0E0F19" d="M67.6,72.3c0.2-0.2,0.3-0.5,0.1-0.7c-0.2-0.2-0.5-0.3-0.7-0.1c-0.2,0.2-0.3,0.5-0.1,0.7
			c0.1,0.1,0.2,0.2,0.3,0.2C67.3,72.4,67.5,72.4,67.6,72.3 M67.1,72c-0.1-0.1,0-0.2,0-0.2c0.1-0.1,0.2,0,0.2,0c0.1,0.1,0,0.2,0,0.2
			c0,0-0.1,0-0.1,0C67.2,72,67.2,72,67.1,72"/>
		<path fill="#0E0F19" d="M68.4,72.4c-0.7,0.9-1.9,1-1.9,1l0,0l0,0c-1.3,0.2-2.4-0.4-2.4-0.5c-0.1-0.1-0.2,0-0.3,0.1
			c-0.1,0.1,0,0.2,0.1,0.3c0,0,1.2,0.7,2.7,0.5c0.1,0,1.4-0.1,2.2-1.1c0,0,0-0.1,0-0.1c0-0.1,0-0.1-0.1-0.2
			C68.6,72.3,68.5,72.3,68.4,72.4"/>
		<path fill="#0E0F19" d="M63.6,68.7c-0.5,0.1-0.9,0.4-1.2,0.9c-0.3,0.4-0.3,0.9-0.2,1.4c0.3,1,1.3,1.6,2.3,1.4
			c0.5-0.1,0.9-0.4,1.2-0.9c0.3-0.4,0.3-0.9,0.2-1.4C65.7,69,64.7,68.4,63.6,68.7 M62.7,70.8c-0.1-0.4,0-0.8,0.2-1.1
			c0.2-0.3,0.5-0.6,0.9-0.7c0.8-0.2,1.6,0.3,1.8,1.1c0,0.1,0,0.2,0,0.3c0,0.3-0.1,0.6-0.2,0.8c-0.2,0.3-0.5,0.6-0.9,0.7
			C63.7,72.1,62.9,71.6,62.7,70.8"/>
		<path fill="#0E0F19" d="M63.2,71.3c0.3,0,0.6-0.2,0.7-0.5c0-0.3-0.2-0.6-0.5-0.7c-0.3,0-0.6,0.2-0.7,0.5
			C62.6,71,62.8,71.3,63.2,71.3"/>
		<path fill="#0E0F19" d="M67.2,69.2c0,0.6,0.5,1.1,1.2,1.1c0.6,0,1.1-0.5,1.1-1.2c0-0.6-0.5-1.1-1.2-1.1
			C67.7,68.1,67.2,68.6,67.2,69.2 M67.6,69.2c0-0.4,0.3-0.8,0.8-0.8c0.4,0,0.8,0.3,0.8,0.8c0,0.4-0.3,0.8-0.8,0.8
			C68,70,67.6,69.6,67.6,69.2"/>
		<path fill="#0E0F19" d="M67.9,69.7c0.2,0,0.4-0.1,0.5-0.4c0-0.2-0.1-0.4-0.4-0.5c-0.2,0-0.4,0.1-0.5,0.4
			C67.6,69.5,67.7,69.7,67.9,69.7"/>
		<path fill="#0E0F19" d="M70.3,69.3c-0.2-1.2-0.9-2.3-2-3h0c0,0,0,0,0,0c0,0-0.1-0.1-0.1-0.1c-0.2-0.1-0.3-0.2-0.5-0.3
			c-1.2-0.6-3.1-1.2-7.5,0.6l0.8,0.8l-1.6,0.6l1.2,0.8l-1.4,0.5l1.3,1c-0.4,0.2-0.8,0.7-0.8,1.2c0,0.8,0.6,1.4,1.4,1.4
			c0.1,0,0.2,0,0.3,0c1,1.6,3,2.5,5,2.2c1.2-0.2,2.3-0.9,3-1.9C70.3,71.9,70.6,70.6,70.3,69.3 M61.2,72.3c-0.6,0-1-0.5-1-1
			c0-0.4,0.3-0.7,0.6-0.9c0,0.2,0,0.4,0.1,0.6c0.1,0.5,0.3,0.9,0.5,1.3C61.4,72.3,61.3,72.3,61.2,72.3 M69.2,72.7
			c-0.7,0.9-1.6,1.6-2.8,1.8c-2.4,0.4-4.7-1.1-5.2-3.5c-0.2-0.9-0.1-1.8,0.3-2.6l6.3-1.9c0.1,0,0.1,0.1,0.2,0.1
			c1,0.7,1.7,1.7,1.9,2.8C70.2,70.6,69.9,71.7,69.2,72.7"/>
		<path fill="#FFFFFF" d="M70.4,67.3c-0.2,0.3-0.1,0.6,0.2,0.8c0.3,0.2,0.6,0.1,0.8-0.2c0.2-0.3,0.1-0.6-0.2-0.8
			C70.9,67,70.6,67.1,70.4,67.3"/>
		<path fill="#0E0F19" d="M65,64.9L65,64.9l0-0.1l0-0.3l0,0l0-0.8l0,0l0-0.3l0-0.1l0,0c0,0,0,0,0,0c0,0-0.1,0-0.2,0
			c-0.1,0-0.2,0-0.2,0c0,0,0,0,0,0h0l0,0l0,0.1l0,0.3l0,0l0,0.8l0,0l0,0.3l0,0.2c0,0,0,0,0,0c0,0,0,0,0,0l0,0L65,64.9L65,64.9
			C65,64.9,65,64.9,65,64.9C65,64.9,65,64.9,65,64.9"/>
		<path fill="#0E0F19" d="M67.1,64.1c0,0.6-0.5,0.9-1.1,0.8c-0.1,0-0.1,0-0.3,0c-0.1,0-0.3,0-0.3,0l0,0c0,0,0,0,0,0c0,0,0,0,0,0h0
			l0-0.2l0-0.3l0,0l0-0.9l0,0l0-0.3l0-0.1l0,0c0,0,0,0,0,0c0,0,0.1,0,0.2,0c0.1,0,0.3,0,0.4,0C66.6,63.2,67.1,63.5,67.1,64.1
			 M66.1,63.5C66,63.5,66,63.5,66.1,63.5L66.1,63.5L66.1,63.5l-0.1,0.9v0l0,0.1c0,0,0.1,0,0.1,0c0.3,0,0.6-0.1,0.6-0.5
			C66.6,63.8,66.3,63.6,66.1,63.5"/>
		<path fill="#0E0F19" d="M64.1,64.9l-0.8-0.7c0.2-0.2,0.3-0.4,0.5-0.5v0c0,0,0,0,0,0c0,0,0,0,0,0l-0.3-0.3c0,0,0,0,0,0c0,0,0,0,0,0
			c0,0,0,0,0,0c-0.3,0.3-0.6,0.6-0.8,0.9l-0.1-0.3l0,0l0-0.3l0-0.1l0,0c0,0,0,0,0,0c0,0-0.1,0-0.2,0c-0.1,0-0.2,0-0.2,0c0,0,0,0,0,0
			v0l0,0.1l0.1,0.3l0,0l0.2,0.8l0,0l0,0.3l0,0.2h0c0,0,0,0,0,0c0,0,0,0,0,0l0,0l0,0l0.4-0.1l0,0c0,0,0,0,0,0c0,0,0,0,0,0h0l0-0.1
			l0-0.2l0,0c0.1-0.1,0.1-0.2,0.2-0.3l0.5,0.5v0c0,0,0,0,0,0c0,0,0,0,0,0v0L64.1,64.9L64.1,64.9C64.1,64.9,64.1,64.9,64.1,64.9
			C64.1,64.9,64.1,64.9,64.1,64.9C64.1,64.9,64.1,64.9,64.1,64.9"/>
		<path fill="#0E0F19" d="M68.9,64.7c0.1-0.8-1-0.6-1-0.9c0-0.2,0.5-0.2,0.8,0.2c0,0,0,0,0,0c0,0,0,0,0,0c0,0,0,0,0,0v0
			c0,0,0.2-0.2,0.3-0.3c0,0,0,0,0,0c0,0,0,0,0,0c0,0,0,0,0,0l0,0c0,0,0,0,0,0c0,0,0,0,0,0c-0.3-0.4-1.5-0.6-1.6,0.1
			c-0.1,0.7,1.1,0.7,1,0.9c-0.1,0.2-0.6,0.2-0.9-0.2c0,0,0,0,0,0c0,0,0,0,0,0c-0.1,0-0.3,0.2-0.3,0.3c0,0,0,0,0,0c0,0,0,0,0,0
			c0,0,0,0,0,0c0,0,0,0,0,0C67.7,65.4,68.8,65.4,68.9,64.7"/>
		<g>
			<path fill="#0E0F19" d="M73.2,71.7c0.3,0,0.5,0.2,0.5,0.5c0,0.3-0.2,0.5-0.5,0.5c-0.3,0-0.5-0.2-0.5-0.5
				C72.7,72,72.9,71.7,73.2,71.7z M73.2,72.7c0.2,0,0.4-0.2,0.4-0.4c0-0.2-0.2-0.4-0.4-0.4c-0.2,0-0.4,0.2-0.4,0.4
				C72.8,72.5,73,72.7,73.2,72.7z M73,71.9h0.2c0.1,0,0.2,0.1,0.2,0.2c0,0.1-0.1,0.2-0.2,0.2l0.2,0.3h-0.1l-0.2-0.3h-0.1v0.3H73
				V71.9z M73.1,72.2L73.1,72.2c0.2,0,0.3,0,0.3-0.1c0-0.1-0.1-0.1-0.1-0.1h-0.1V72.2z"/>
		</g>
	</g>
	<path fill="#949392" d="M64.7,80H15.3C6.9,80,0,73.1,0,64.7V15.3C0,6.9,6.9,0,15.3,0h49.4C73.1,0,80,6.9,80,15.3v49.4
		C80,73.1,73.1,80,64.7,80z M15.3,0.6C7.2,0.6,0.6,7.2,0.6,15.3v49.4c0,8.1,6.6,14.7,14.7,14.7h49.4c8.1,0,14.7-6.6,14.7-14.7V15.3
		c0-8.1-6.6-14.7-14.7-14.7H15.3z"/>
</g>
</svg>
