<?xml version="1.0" encoding="utf-8"?>
<!-- Generator: Adobe Illustrator 17.1.0, SVG Export Plug-In . SVG Version: 6.00 Build 0)  -->
<!DOCTYPE svg PUBLIC "-//W3C//DTD SVG 1.1//EN" "http://www.w3.org/Graphics/SVG/1.1/DTD/svg11.dtd">
<svg version="1.1" id="Layer_1" xmlns="http://www.w3.org/2000/svg" xmlns:xlink="http://www.w3.org/1999/xlink" x="0px" y="0px"
	 viewBox="0 0 216 200" enable-background="new 0 0 216 200" xml:space="preserve">
<g>
	<polygon fill="#FFFFFF" points="183.4,14.5 183.4,53.3 214,53.3 213.8,14.5 	"/>
	<polygon fill="#FFFFFF" points="2.3,4.3 2.1,43.5 2.7,63.3 66.8,63.4 63.6,43.5 63.4,4 	"/>
	<path fill="none" stroke="#FFFFFF" stroke-width="2" stroke-miterlimit="10" d="M114.4,37.2c-2,0-3.6-1.6-3.6-3.6s1.6-3.6,3.6-3.6"
		/>
	<path fill="none" stroke="#FFFFFF" stroke-width="2" stroke-miterlimit="10" d="M125.3,29.9c2,0,3.6,1.6,3.6,3.6s-1.6,3.6-3.6,3.6"
		/>
	<g>
		<polygon fill="none" stroke="#7F7779" stroke-miterlimit="10" points="59.4,49.2 8.4,48.8 8.7,57.9 61.2,58.1 		"/>
		<line fill="none" stroke="#7F7779" stroke-miterlimit="10" x1="59.7" y1="51.9" x2="7.9" y2="51.9"/>
		<line fill="none" stroke="#7F7779" stroke-miterlimit="10" x1="8.4" y1="54.9" x2="60.4" y2="54.7"/>
		<line fill="none" stroke="#7F7779" stroke-miterlimit="10" x1="17.8" y1="57.9" x2="16.8" y2="49.2"/>
		<line fill="none" stroke="#7F7779" stroke-miterlimit="10" x1="52.5" y1="49.6" x2="53.5" y2="58.1"/>
		<line fill="none" stroke="#7F7779" stroke-miterlimit="10" x1="27.7" y1="48.8" x2="28" y2="54.7"/>
		<line fill="none" stroke="#7F7779" stroke-miterlimit="10" x1="40.6" y1="49.2" x2="41.1" y2="54.7"/>
	</g>
	<line fill="none" stroke="#FFFFFF" stroke-width="2" stroke-miterlimit="10" x1="128.3" y1="33.8" x2="183.4" y2="33.5"/>
	<line fill="none" stroke="#FFFFFF" stroke-width="2" stroke-miterlimit="10" x1="62.6" y1="33.2" x2="110.1" y2="33.5"/>
	<polygon fill="#CCD6D4" points="187.6,18.5 187.6,44.6 209.9,44.6 209.8,18.6 	"/>
	<circle fill="#CCD6D4" cx="198.4" cy="49.2" r="1.7"/>
	<polygon fill="#CCD6D4" points="8.1,9.2 8.6,38.7 57.5,38.7 57.4,9.2 	"/>
	<line fill="#BBFF00" stroke="#7F7779" stroke-miterlimit="10" x1="2.1" y1="43.5" x2="63.6" y2="43.5"/>
</g>
<g>
	<polygon fill="#FFFFFF" points="183.4,144 183.4,182.8 214,182.8 213.8,144 	"/>
	<polygon fill="#FFFFFF" points="2.3,133.9 2.1,173 2.7,192.9 66.8,193 63.6,173 63.4,133.6 	"/>
	<g>
		<polygon fill="none" stroke="#7F7779" stroke-miterlimit="10" points="59.4,178.8 8.4,178.4 8.7,187.5 61.2,187.7 		"/>
		<line fill="none" stroke="#7F7779" stroke-miterlimit="10" x1="59.7" y1="181.4" x2="7.9" y2="181.4"/>
		<line fill="none" stroke="#7F7779" stroke-miterlimit="10" x1="8.4" y1="184.5" x2="60.4" y2="184.3"/>
		<line fill="none" stroke="#7F7779" stroke-miterlimit="10" x1="17.8" y1="187.5" x2="16.8" y2="178.8"/>
		<line fill="none" stroke="#7F7779" stroke-miterlimit="10" x1="52.5" y1="179.2" x2="53.5" y2="187.7"/>
		<line fill="none" stroke="#7F7779" stroke-miterlimit="10" x1="27.7" y1="178.4" x2="28" y2="184.3"/>
		<line fill="none" stroke="#7F7779" stroke-miterlimit="10" x1="40.6" y1="178.8" x2="41.1" y2="184.3"/>
	</g>
	<line fill="none" stroke="#FFFFFF" stroke-width="2" stroke-miterlimit="10" x1="120" y1="163.4" x2="183.4" y2="163.1"/>
	<line fill="none" stroke="#FFFFFF" stroke-width="2" stroke-miterlimit="10" x1="62.6" y1="162.8" x2="120" y2="163.1"/>
	<polygon fill="#75EA06" points="187.6,148.1 187.6,174.1 209.9,174.1 209.8,148.1 	"/>
	<circle fill="#CCD6D4" cx="198.4" cy="178.8" r="1.7"/>
	<polygon fill="#75EA06" points="8.1,138.7 8.6,168.3 57.5,168.3 57.4,138.7 	"/>
	<line fill="#BBFF00" stroke="#7F7779" stroke-miterlimit="10" x1="2.1" y1="173" x2="63.6" y2="173"/>
	<circle fill="#FFFFFF" cx="120" cy="162.9" r="6.2"/>
	<line fill="none" stroke="#FFFFFF" stroke-width="2" stroke-miterlimit="10" x1="120.5" y1="143.9" x2="120.5" y2="150.9"/>
	<line fill="none" stroke="#FFFFFF" stroke-width="2" stroke-miterlimit="10" x1="108" y1="149.9" x2="111.5" y2="153.4"/>
	<line fill="none" stroke="#FFFFFF" stroke-width="2" stroke-miterlimit="10" x1="133" y1="149.9" x2="129.5" y2="153.4"/>
	<line fill="none" stroke="#FFFFFF" stroke-width="2" stroke-miterlimit="10" x1="120.5" y1="182.4" x2="120.5" y2="175.4"/>
	<line fill="none" stroke="#FFFFFF" stroke-width="2" stroke-miterlimit="10" x1="133" y1="176.4" x2="129.5" y2="172.9"/>
	<line fill="none" stroke="#FFFFFF" stroke-width="2" stroke-miterlimit="10" x1="108" y1="176.4" x2="111.5" y2="172.9"/>
</g>
</svg>
