<?xml version="1.0" encoding="utf-8"?>
<!-- Generator: Adobe Illustrator 19.1.0, SVG Export Plug-In . SVG Version: 6.00 Build 0)  -->
<svg version="1.1" xmlns="http://www.w3.org/2000/svg" xmlns:xlink="http://www.w3.org/1999/xlink" x="0px" y="0px"
	 viewBox="0 0 45.3 66" style="enable-background:new 0 0 45.3 66;" xml:space="preserve">
<style type="text/css">
	.st0{fill:url(#SVGID_1_);}
	.st1{fill:url(#SVGID_2_);}
	.st2{fill:url(#SVGID_3_);}
	.st3{fill:#917F74;}
	.st4{fill:#B3A7A0;}
	.st5{fill:#DBD4D1;}
	.st6{fill:url(#SVGID_4_);}
	.st7{fill:#50433E;}
	.st8{opacity:0.5;fill:#A7A9AC;}
	.st9{fill:url(#SVGID_5_);}
	.st10{fill:url(#SVGID_6_);}
	.st11{fill:#FC9F90;}
	.st12{fill:url(#SVGID_7_);}
	.st13{fill:#FBDD37;}
	.st14{fill:#CB8B5E;}
	.st15{fill:#FCEC88;}
	.st16{fill:#251F1B;}
	.st17{fill:#6D5C50;}
	.st18{fill:#CDC8C5;}
	.st19{fill:#92908F;}
	.st20{fill:url(#SVGID_8_);}
	.st21{fill:url(#SVGID_9_);}
	.st22{fill:url(#SVGID_10_);}
	.st23{fill:url(#SVGID_11_);}
	.st24{fill:url(#SVGID_12_);}
	.st25{fill:url(#SVGID_13_);}
	.st26{fill:url(#SVGID_14_);}
	.st27{fill:url(#SVGID_15_);}
	.st28{fill:url(#SVGID_16_);}
	.st29{fill:url(#SVGID_17_);}
	.st30{fill:url(#SVGID_18_);}
	.st31{fill:url(#SVGID_19_);}
	.st32{fill:url(#SVGID_20_);}
	.st33{fill:url(#SVGID_21_);}
	.st34{fill:url(#SVGID_22_);}
	.st35{fill:url(#SVGID_23_);}
	.st36{fill:#57493F;}
	.st37{fill:url(#SVGID_24_);}
	.st38{fill:url(#SVGID_25_);}
	.st39{fill:url(#SVGID_26_);}
	.st40{fill:url(#SVGID_27_);}
	.st41{fill:url(#SVGID_28_);}
	.st42{fill:url(#SVGID_29_);}
	.st43{fill:url(#SVGID_30_);}
	.st44{fill:url(#SVGID_31_);}
	.st45{fill:url(#SVGID_32_);}
	.st46{fill:url(#SVGID_33_);}
	.st47{fill:url(#SVGID_34_);}
	.st48{fill:url(#SVGID_35_);}
	.st49{fill:url(#SVGID_36_);}
	.st50{fill:#F6735D;}
	.st51{fill:#72130E;}
	.st52{fill:url(#SVGID_37_);}
	.st53{fill:url(#SVGID_38_);}
	.st54{fill:url(#SVGID_39_);}
	.st55{fill:url(#SVGID_40_);}
	.st56{fill:url(#SVGID_41_);}
	.st57{fill:url(#SVGID_42_);}
	.st58{fill:url(#SVGID_43_);}
	.st59{fill:url(#SVGID_44_);}
	.st60{fill:url(#SVGID_45_);}
	.st61{fill:url(#SVGID_46_);}
	.st62{fill:url(#SVGID_47_);}
	.st63{fill:url(#SVGID_48_);}
	.st64{fill:url(#SVGID_49_);}
	.st65{fill:url(#SVGID_50_);}
	.st66{fill:url(#SVGID_51_);}
	.st67{fill:url(#SVGID_52_);}
	.st68{fill:url(#SVGID_53_);}
	.st69{fill:url(#SVGID_54_);}
	.st70{fill:url(#SVGID_55_);}
	.st71{fill:url(#SVGID_56_);}
	.st72{fill:url(#SVGID_57_);}
	.st73{fill:url(#SVGID_58_);}
	.st74{fill:url(#SVGID_59_);}
	.st75{fill:url(#SVGID_60_);}
	.st76{fill:url(#SVGID_61_);}
	.st77{fill:url(#SVGID_62_);}
	.st78{fill:url(#SVGID_63_);}
	.st79{fill:url(#SVGID_64_);}
	.st80{fill:url(#SVGID_65_);}
	.st81{fill:url(#SVGID_66_);}
	.st82{fill:url(#SVGID_67_);}
	.st83{fill:url(#SVGID_68_);}
	.st84{fill:url(#SVGID_69_);}
	.st85{fill:url(#SVGID_70_);}
	.st86{fill:url(#SVGID_71_);}
	.st87{fill:url(#SVGID_72_);}
	.st88{fill:url(#SVGID_73_);}
	.st89{fill:url(#SVGID_74_);}
	.st90{fill:url(#SVGID_75_);}
	.st91{fill:url(#SVGID_76_);}
	.st92{fill:url(#SVGID_77_);}
	.st93{fill:url(#SVGID_78_);}
	.st94{fill:url(#SVGID_79_);}
	.st95{fill:url(#SVGID_80_);}
	.st96{fill:url(#SVGID_81_);}
	.st97{fill:url(#SVGID_82_);}
	.st98{fill:url(#SVGID_83_);}
	.st99{fill:url(#SVGID_84_);}
</style>
<g id="Orig">
</g>
<g id="Layer_1">
	<linearGradient id="SVGID_1_" gradientUnits="userSpaceOnUse" x1="11.2351" y1="15.806" x2="11.2351" y2="50.2524">
		<stop  offset="0" style="stop-color:#42110E"/>
		<stop  offset="1" style="stop-color:#79150E"/>
	</linearGradient>
	<path class="st0" d="M0,15.8l0,1.6h19.2l-0.2,12.3c-1.4,0.5-2.2,2.1-2.2,2.1v5.8c0,0-0.6,0.6-0.6,1c0,0.4-0.4,0.6-0.4,0.6
		S13.6,39.9,13,40c-0.6,0-1.8,0.5-1.7,1.5s1.1,1.6,1.6,1.8c0.5,0.2,1.4,0.9,1.4,1.2s0.4,0.2-1,1.2c-1.4,1-2.1,2.5-2.1,2.5H5.6
		c0.1,0.3,0.4,0.5,0.6,0.6c0.2,0.1,0.8,0.6,1.4,1.2l12.6,0c0.1-0.1,0.3-0.3,0.4-0.4l0-0.4c0,0,1.3-0.4,1.6-1.5l0-0.8
		c-0.3-0.2-1.5-1-2.1-1.4c-0.7-0.4-1.1-1.2-1.1-2c0-0.8,1.1-1.3,1.1-1.3s1.1-0.3,2.1-0.5l0.1-7.1c0,0-0.9-1.5-1.8-1.6l0-0.5h-0.1
		V15.8L0,15.8z"/>
	<rect x="19.3" y="42" class="st17" width="1.5" height="0.4"/>
	<path class="st18" d="M20.6,41.7h-0.9c0,0-0.1,0-0.3,0.2c-0.2,0.2-0.2,0.2-0.2,0.5l0,0h0.2c0,0,0.2-0.3,0.4-0.3c0.2,0,0.9,0,0.9,0
		S20.7,41.8,20.6,41.7z"/>
	<path class="st7" d="M18.9,52.2c0.3-0.8,1.2-1.8,1.8-2.4L7.4,50c0.6,0.6,1.4,1.5,1.7,2.2L18.9,52.2z"/>
	<linearGradient id="SVGID_2_" gradientUnits="userSpaceOnUse" x1="3.3784" y1="40.719" x2="3.3784" y2="41.5297">
		<stop  offset="0" style="stop-color:#42110E"/>
		<stop  offset="1" style="stop-color:#79150E"/>
	</linearGradient>
	<path class="st1" d="M3.2,40.7C3.2,40.7,3.2,40.7,3.2,40.7c0.1,0.3,0.1,0.6,0.4,0.8C3.6,41.1,3.4,40.9,3.2,40.7z"/>
	<path class="st51" d="M23.9,32.7v8.9c0.1,0,0.2-0.1,0.3-0.1c0.5-0.1,0.7-0.4,0.8-0.9c0-0.5,0.6-1.1,0.6-1.1l0.1-6.8c0,0,0,0,0,0
		L23.9,32.7z"/>
	<path class="st19" d="M20.6,41.6c0,0-0.1,0.3,0,0.4c0,0.1,0.1,0.2,0.2,0.3c0.1,0,0.2,0,0.3-0.1l0,0C21.1,42.2,20.6,41.8,20.6,41.6z
		"/>
	<path class="st18" d="M22.2,41.6c-0.1-0.1-0.3-0.2-0.3-0.2s-0.6,0-1,0c-0.4,0-0.3,0.3-0.3,0.3c0.1,0.2,0.4,0.6,0.4,0.6c0,0,0,0,0,0
		c0.4-0.1,0.9-0.2,1.4-0.4C22.4,41.8,22.3,41.7,22.2,41.6z"/>
	<linearGradient id="SVGID_3_" gradientUnits="userSpaceOnUse" x1="21.6315" y1="41.5474" x2="21.6315" y2="42.1315">
		<stop  offset="0" style="stop-color:#F23716"/>
		<stop  offset="0.2478" style="stop-color:#D72F14"/>
		<stop  offset="0.7784" style="stop-color:#911C10"/>
		<stop  offset="1" style="stop-color:#72130E"/>
	</linearGradient>
	<path class="st2" d="M21.1,41.5l0,0.1l0.4,0.5l0.1,0c0.2,0,0.4-0.1,0.6-0.2l-0.3-0.4H21.1z"/>
	<path class="st3" d="M19.2,43.3L19.2,43.3c0.3-0.5,1-0.8,1-0.8s0.1,0,0.4-0.1h-4.2L19.2,43.3z"/>
	<path class="st17" d="M19.2,43.3l-2.8-0.9v1.1l3,1.6l0-0.1c-0.2-0.4-0.3-0.8-0.3-1.2C19.1,43.6,19.2,43.5,19.2,43.3L19.2,43.3z"/>
</g>
</svg>
