<?xml version="1.0" encoding="utf-8"?>
<!-- Generator: Adobe Illustrator 19.1.0, SVG Export Plug-In . SVG Version: 6.00 Build 0)  -->
<svg version="1.1" xmlns="http://www.w3.org/2000/svg" xmlns:xlink="http://www.w3.org/1999/xlink" x="0px" y="0px"
	 viewBox="0 0 126 66" style="enable-background:new 0 0 126 66;" xml:space="preserve">
<style type="text/css">
	.st0{fill:url(#SVGID_1_);}
	.st1{fill:url(#SVGID_2_);}
	.st2{fill:url(#SVGID_3_);}
	.st3{fill:#917F74;}
	.st4{fill:#B3A7A0;}
	.st5{fill:#DBD4D1;}
	.st6{fill:url(#SVGID_4_);}
	.st7{fill:#50433E;}
	.st8{opacity:0.5;fill:#A7A9AC;}
	.st9{fill:url(#SVGID_5_);}
	.st10{fill:url(#SVGID_6_);}
	.st11{fill:#FC9F90;}
	.st12{fill:url(#SVGID_7_);}
	.st13{fill:#FBDD37;}
	.st14{fill:#CB8B5E;}
	.st15{fill:#FCEC88;}
	.st16{fill:#251F1B;}
	.st17{fill:#6D5C50;}
	.st18{fill:#CDC8C5;}
	.st19{fill:#92908F;}
	.st20{fill:url(#SVGID_8_);}
	.st21{fill:url(#SVGID_9_);}
	.st22{fill:url(#SVGID_10_);}
	.st23{fill:url(#SVGID_11_);}
	.st24{fill:url(#SVGID_12_);}
	.st25{fill:url(#SVGID_13_);}
	.st26{fill:url(#SVGID_14_);}
	.st27{fill:url(#SVGID_15_);}
	.st28{fill:url(#SVGID_16_);}
	.st29{fill:url(#SVGID_17_);}
	.st30{fill:url(#SVGID_18_);}
	.st31{fill:url(#SVGID_19_);}
	.st32{fill:url(#SVGID_20_);}
	.st33{fill:url(#SVGID_21_);}
	.st34{fill:url(#SVGID_22_);}
	.st35{fill:url(#SVGID_23_);}
	.st36{fill:#57493F;}
	.st37{fill:url(#SVGID_24_);}
	.st38{fill:url(#SVGID_25_);}
	.st39{fill:url(#SVGID_26_);}
	.st40{fill:url(#SVGID_27_);}
	.st41{fill:url(#SVGID_28_);}
	.st42{fill:url(#SVGID_29_);}
	.st43{fill:url(#SVGID_30_);}
	.st44{fill:url(#SVGID_31_);}
	.st45{fill:url(#SVGID_32_);}
	.st46{fill:url(#SVGID_33_);}
	.st47{fill:url(#SVGID_34_);}
	.st48{fill:url(#SVGID_35_);}
	.st49{fill:url(#SVGID_36_);}
	.st50{fill:#F6735D;}
	.st51{fill:#72130E;}
	.st52{fill:url(#SVGID_37_);}
	.st53{fill:url(#SVGID_38_);}
	.st54{fill:url(#SVGID_39_);}
	.st55{fill:url(#SVGID_40_);}
	.st56{fill:url(#SVGID_41_);}
	.st57{fill:url(#SVGID_42_);}
	.st58{fill:url(#SVGID_43_);}
	.st59{fill:url(#SVGID_44_);}
	.st60{fill:url(#SVGID_45_);}
	.st61{fill:url(#SVGID_46_);}
	.st62{fill:url(#SVGID_47_);}
	.st63{fill:url(#SVGID_48_);}
	.st64{fill:url(#SVGID_49_);}
	.st65{fill:url(#SVGID_50_);}
	.st66{fill:url(#SVGID_51_);}
	.st67{fill:url(#SVGID_52_);}
	.st68{fill:url(#SVGID_53_);}
	.st69{fill:url(#SVGID_54_);}
	.st70{fill:url(#SVGID_55_);}
	.st71{fill:url(#SVGID_56_);}
	.st72{fill:url(#SVGID_57_);}
	.st73{fill:url(#SVGID_58_);}
	.st74{fill:url(#SVGID_59_);}
	.st75{fill:url(#SVGID_60_);}
	.st76{fill:url(#SVGID_61_);}
	.st77{fill:url(#SVGID_62_);}
	.st78{fill:url(#SVGID_63_);}
	.st79{fill:url(#SVGID_64_);}
	.st80{fill:url(#SVGID_65_);}
	.st81{fill:url(#SVGID_66_);}
	.st82{fill:url(#SVGID_67_);}
	.st83{fill:url(#SVGID_68_);}
	.st84{fill:url(#SVGID_69_);}
	.st85{fill:url(#SVGID_70_);}
	.st86{fill:url(#SVGID_71_);}
	.st87{fill:url(#SVGID_72_);}
	.st88{fill:url(#SVGID_73_);}
	.st89{fill:url(#SVGID_74_);}
	.st90{fill:url(#SVGID_75_);}
	.st91{fill:url(#SVGID_76_);}
	.st92{fill:url(#SVGID_77_);}
	.st93{fill:url(#SVGID_78_);}
	.st94{fill:url(#SVGID_79_);}
	.st95{fill:url(#SVGID_80_);}
	.st96{fill:url(#SVGID_81_);}
	.st97{fill:url(#SVGID_82_);}
	.st98{fill:url(#SVGID_83_);}
	.st99{fill:url(#SVGID_84_);}
</style>
<g id="Orig">
</g>
<g id="Layer_1">
	<linearGradient id="SVGID_1_" gradientUnits="userSpaceOnUse" x1="2.1716" y1="55.036" x2="125.5644" y2="55.036">
		<stop  offset="0" style="stop-color:#57493F"/>
		<stop  offset="1.816704e-02" style="stop-color:#625348"/>
		<stop  offset="4.449994e-02" style="stop-color:#6B5A4E"/>
		<stop  offset="9.000000e-02" style="stop-color:#6D5C50"/>
		<stop  offset="0.91" style="stop-color:#6D5C50"/>
		<stop  offset="0.9858" style="stop-color:#57493F"/>
	</linearGradient>
	<path class="st0" d="M8.3,50.5c0,0-4.6,0.9-4.8,3v1.3c0,0-1.3,0.4-1.3,1.1s0,2.3,0,2.3l0.5,0.5c0,0,1.7,0.7,3.2,0.8h116.1
		c0,0,3.4-0.3,3.6-1.4v-2.4c0,0-0.3-0.8-1.4-0.9v-1.5c0,0,0.1-1.5-3.8-2.7L8.3,50.5z"/>
	<linearGradient id="SVGID_2_" gradientUnits="userSpaceOnUse" x1="4.2749" y1="54.3324" x2="6.8113" y2="58.7255">
		<stop  offset="0" style="stop-color:#B3A7A0"/>
		<stop  offset="0.1648" style="stop-color:#A4958D"/>
		<stop  offset="0.3565" style="stop-color:#99897F"/>
		<stop  offset="0.5926" style="stop-color:#938176"/>
		<stop  offset="1" style="stop-color:#917F74"/>
	</linearGradient>
	<path class="st1" d="M3.5,54.9v1.3c0,0,0.9,1.1,5.8,1.2H5.9c0,0-3.5,0.1-3.7-1.2C2,55.3,3.5,54.9,3.5,54.9z"/>
	<path class="st3" d="M120.4,50.7L8.3,50.5c0,0-4.6,0.9-4.8,3c0,0,0.5,1.2,5.7,1.2s103.4,0,109.2,0c5.8,0,5.7-1.4,5.7-1.4
		S124.2,51.9,120.4,50.7z"/>
	<path class="st4" d="M121.4,54.6c2.9-0.4,2.8-1.2,2.8-1.2s0-0.3-0.3-0.7c-0.4-0.5-1.1-1-1.8-1.3c-0.4-0.2-0.8-0.3-1.3-0.5
		c-0.1,0,0,0.1,0.4,0.3c1.7,0.9,2.1,1.2,2.2,2C123.4,53.8,121.9,54.4,121.4,54.6z"/>
	<path class="st4" d="M124.2,54.9v0.8c0,0-0.4,1.3-5.7,1.6h3.4c0,0,3.7,0,3.7-1.2C125.6,55.1,124.2,54.9,124.2,54.9z"/>
	<path class="st5" d="M122.9,57.3c0,0,2.2-0.6,2.3-1.4s-0.8-1-0.8-1s1.1,0.3,1.2,1C125.7,56.7,124.5,57.2,122.9,57.3z"/>
	<linearGradient id="SVGID_3_" gradientUnits="userSpaceOnUse" x1="63.9326" y1="14.4944" x2="63.9326" y2="50.2534">
		<stop  offset="0" style="stop-color:#42110E"/>
		<stop  offset="1" style="stop-color:#79150E"/>
	</linearGradient>
	<path class="st2" d="M110.3,14.5l-92.7,0.6l0.3,1.1h0.9v16.3h2.4V16.2h1.7l2.3,0l0.2,16.8c0,0-0.9-0.2-1.9,1.6v15.4l78.2,0.2
		l0.1-0.8c0,0,1.3-0.4,1.6-1.5l0.2-13.1c0,0-0.9-1.5-1.8-1.6l-0.1-17l4.6,0v16.5h2.4V16.2l1.5,0V14.5z M51.2,29.8l-0.9,0.5l-2.7,8.5
		c0,0-2.5,1.1-3.6,1.3c-1.1,0.2-1,1.4-1,1.4l2.2,6.8h-9.6c0-0.3-1.5-1.9-1.9-2.2c-0.4-0.3-1.6-0.7-1.6-1.4s1.1-1.1,1.1-1.1
		s2.1-0.7,2-2.1c-0.1-1.4-1.9-1.3-2.8-1.5c-0.9-0.2-2.4-0.5-2.5-1.3c-0.1-0.8-0.8-0.9-0.8-0.9V32c-0.1-1.3-2.4-2.4-2.4-2.4
		l-0.2-12.2h24.6V29.8z M75.2,29.9c-1.1,0.4-1.9,2.1-1.9,2.1v5.8c0,0-0.6,0.1-0.6,0.7s-0.6,0.9-0.6,0.9l-3.5,0.8c0,0-1,0.2-1,1.4
		s2.3,2.1,2.3,2.1s2.8,0.5,0.6,1.6c-2.1,1.1-3.2,3.3-3.2,3.3H61c-1.3-2.1-2.5-2.6-2.5-2.6l-1-0.8c0,0-0.1-1.1,1.8-1.8
		c1.9-0.7,1.5-1.6,1.3-2.3c-0.2-0.7-3.1-1.2-3.6-1.3c-0.6-0.1-1.1-0.3-1.2-0.9c-0.1-0.6-0.7-0.9-0.7-0.9v-5.7
		c-0.4-1.8-2.2-2.2-2.2-2.2l-0.2-12.4l22.7-0.2V29.9z M100.1,29.8c-1.4,0.5-2.2,2.1-2.2,2.1v5.8c0,0-0.6,0.6-0.6,1s-0.4,0.6-0.4,0.6
		s-2.2,0.6-2.8,0.7c-0.6,0-1.8,0.5-1.7,1.5s1.1,1.6,1.6,1.8s1.4,0.9,1.4,1.2c0,0.3,0.4,0.2-1,1.2c-1.4,1-2.1,2.5-2.1,2.5h-5.7H85
		l-2.4-0.7l0.2-2.7c0,0,1.9-2.3,1.9-3.4c0-1.1-0.7-1.1-1.7-1.1c-0.9,0-1.9-0.7-1.9-0.7s-2.4-7.6-2.7-8.6c-0.3-1-1.5-1.3-1.5-1.3
		V17.4h23.5L100.1,29.8z"/>
	<path class="st7" d="M8.3,51.9c0,0-0.8,0.7-0.7,1.5c0.1,0.8,1.3,1.4,4.8,1.3c0.5,0,0-0.3,2.1-0.3c11.3-0.1,42.8,0.1,42.8,0.1
		l57.9,0c0,0,0.5,0.4,1.7,0.3c1.2-0.1,3.4-0.2,3.4-2c0-1.8-18.7-3-18.7-3L25,49.9L8.3,51.9z"/>
	<path class="st8" d="M23.5,61.6L6.9,61.7c0,0-0.4-0.5-2.4,0.5c-2,1-3.3,1.7-3.3,1.7s-0.6,0.4-0.6,0.8c0,0.4-0.1,1.3,1,1.3
		s123.1,0,123.1,0s1,0,1.1-1.1s-1-1.8-1.7-1.9c-0.7-0.2-4.2-1.1-4.2-1.1s-16-0.3-20-0.3C95.8,61.6,23.5,61.6,23.5,61.6z"/>
	<g>
		<g>
			<linearGradient id="SVGID_4_" gradientUnits="userSpaceOnUse" x1="63" y1="4.4757" x2="63" y2="16.7302">
				<stop  offset="0" style="stop-color:#931C10"/>
				<stop  offset="7.065164e-02" style="stop-color:#971D10"/>
				<stop  offset="0.1378" style="stop-color:#A22011"/>
				<stop  offset="0.2035" style="stop-color:#B52612"/>
				<stop  offset="0.268" style="stop-color:#D02D14"/>
				<stop  offset="0.331" style="stop-color:#F23716"/>
				<stop  offset="0.4204" style="stop-color:#F6593C"/>
				<stop  offset="0.4966" style="stop-color:#F87055"/>
				<stop  offset="0.5427" style="stop-color:#F9785E"/>
				<stop  offset="0.5915" style="stop-color:#F23716"/>
			</linearGradient>
			<path class="st6" d="M16.1,16.7c0,0-9-1.2-11.2-1.7s-4.5-1-4.8-2.1s0.8-1.4,1.4-1.7c0.6-0.3,1.8-0.9,2.6-1.1
				c0.8-0.2,5-2.1,17.2-3c0,0-0.3-2.7,1.9-2.7c2.2,0,79.4,0,79.4,0s2.1,0,1.8,2.6c0,0,14.4,0.8,21.1,4.4c0,0,1.3,0.9,0,2.1
				c0,0-0.4,0.1-0.6,0.3c-0.2,0.2-2.3,1.8-13.6,2.8H16.1z"/>
			<linearGradient id="SVGID_5_" gradientUnits="userSpaceOnUse" x1="62.7724" y1="4.4757" x2="62.7724" y2="6.8553">
				<stop  offset="0" style="stop-color:#F9785E"/>
				<stop  offset="0.7852" style="stop-color:#F23716"/>
				<stop  offset="1" style="stop-color:#AF2412"/>
			</linearGradient>
			<path class="st9" d="M102.5,4.5c0,0-77.2,0-79.4,0c-1.7,0-1.9,1.7-1.9,2.4h83.1C104.5,4.5,102.5,4.5,102.5,4.5z"/>
			<ellipse class="st11" cx="43.1" cy="11.5" rx="21.9" ry="0.3"/>
			<ellipse class="st11" cx="3.5" cy="11.5" rx="2.6" ry="0.2"/>
			<ellipse class="st11" cx="114" cy="11.4" rx="0.7" ry="0.1"/>
			<ellipse class="st11" cx="119.9" cy="11.4" rx="4.8" ry="0.1"/>
		</g>
		<linearGradient id="SVGID_6_" gradientUnits="userSpaceOnUse" x1="63.2512" y1="12.9465" x2="63.2512" y2="16.7302">
			<stop  offset="0" style="stop-color:#79150E"/>
			<stop  offset="1" style="stop-color:#42110E"/>
		</linearGradient>
		<path class="st10" d="M125.1,12.9L52.5,13c0,0-49.3-0.1-50.9,0c-1.1,0.1-0.7,0.7-0.5,1c0.9,0.5,2.3,0.8,3.7,1.1
			c2.2,0.5,11.2,1.7,11.2,1.7h95.1c11.3-1,13.4-2.7,13.6-2.8c0.1-0.1,0.2-0.1,0.2-0.1c0,0,0,0,0,0C126.2,12.9,125.1,12.9,125.1,12.9
			z"/>
	</g>
	<g>
		<g>
			<path class="st13" d="M33.7,4.5l-0.2-0.3l0.1-3.4c0,0,0.8-0.7,2-0.7s55.4,0,55.4,0s1.2-0.1,2,0.6c0,0,0.3,0.1,0.3,0.8
				s0,3.1,0,3.1H33.7z"/>
			<path class="st14" d="M91.2,0c0.3,0,1.2,0.1,1.8,0.6c0,0,0.3,0.1,0.3,0.8s0,3.1,0,3.1H33.7l-0.2-0.3l0.1-3.4c0,0,0.8-0.7,2-0.7
				s55.4,0,55.4,0S91.1,0,91.2,0 M91.2,0c-0.1,0-0.1,0-0.1,0L35.6,0c-1.3,0-2.1,0.7-2.1,0.7l0,0l0,0l-0.1,3.4l0,0l0,0l0.2,0.3l0,0h0
				h59.6h0v0V1.4c0-0.7-0.2-0.8-0.3-0.9C92.4,0.1,91.6,0,91.2,0L91.2,0z"/>
		</g>
		<path class="st15" d="M91.1,0c0,0-54.1,0-55.4,0s-2,0.7-2,0.7l0,0.1h59.6C93.2,0.6,93,0.6,93,0.6C92.3,0,91.1,0,91.1,0z"/>
	</g>
	<rect x="23.5" y="59.4" class="st16" width="76.4" height="2.2"/>
	<g>
		<polygon class="st3" points="97.5,42.4 101.9,42.4 100.3,43.3 		"/>
		<polygon class="st17" points="100.5,45.1 97.5,43.5 97.5,42.4 100.3,43.3 		"/>
		<rect x="100.4" y="42" class="st17" width="1.5" height="0.4"/>
		<path class="st18" d="M101.6,41.7h-0.9c0,0-0.1,0-0.3,0.2c-0.2,0.2-0.2,0.2-0.2,0.5l0,0h0.2c0,0,0.2-0.3,0.4-0.3
			c0.2,0,0.9,0,0.9,0S101.7,41.8,101.6,41.7z"/>
		<path class="st18" d="M102.1,42.2c0,0-0.4-0.4-0.4-0.6c0,0-0.1-0.3,0.3-0.3c0.4,0,1,0,1,0s0.2,0,0.3,0.2s0.3,0.4,0.3,0.4
			S103.3,42.3,102.1,42.2z"/>
		<path class="st19" d="M101.7,41.6c0,0-0.1,0.3,0,0.4c0.1,0.2,0.2,0.3,0.2,0.3l0.3-0.1C102.2,42.2,101.7,41.8,101.7,41.6z"/>
		<linearGradient id="SVGID_7_" gradientUnits="userSpaceOnUse" x1="102.7318" y1="41.5474" x2="102.7318" y2="42.1315">
			<stop  offset="0" style="stop-color:#F23716"/>
			<stop  offset="0.2478" style="stop-color:#D72F14"/>
			<stop  offset="0.7784" style="stop-color:#911C10"/>
			<stop  offset="1" style="stop-color:#72130E"/>
		</linearGradient>
		<polygon class="st12" points="102.6,42.1 102.2,41.7 102.2,41.5 103,41.5 103.3,42 		"/>
	</g>
	
		<radialGradient id="SVGID_8_" cx="40.3821" cy="59.6688" r="6.1493" gradientTransform="matrix(0.9969 0 0 1 0.1945 0)" gradientUnits="userSpaceOnUse">
		<stop  offset="1.419005e-02" style="stop-color:#3A312C"/>
		<stop  offset="0.5693" style="stop-color:#382F2A"/>
		<stop  offset="0.8222" style="stop-color:#312924"/>
		<stop  offset="1" style="stop-color:#251F1B"/>
	</radialGradient>
	<path class="st20" d="M34.3,58.8c-0.1,0.3-0.1,0.7-0.1,1c0,3.4,2.8,6.2,6.2,6.2c3.4,0,6.2-2.8,6.2-6.2c0-0.3,0-0.7-0.1-1H34.3z"/>
	
		<radialGradient id="SVGID_9_" cx="40.2388" cy="59.8229" r="2.8893" gradientTransform="matrix(0.9969 0 0 1 0.1945 0)" gradientUnits="userSpaceOnUse">
		<stop  offset="0" style="stop-color:#8B8888"/>
		<stop  offset="0.4823" style="stop-color:#8A8686"/>
		<stop  offset="0.7022" style="stop-color:#87817E"/>
		<stop  offset="0.8684" style="stop-color:#817772"/>
		<stop  offset="1" style="stop-color:#796A61"/>
	</radialGradient>
	<path class="st21" d="M37.6,58.8c-0.1,0.3-0.2,0.6-0.2,1c0,1.6,1.3,2.9,2.9,2.9c1.6,0,2.9-1.3,2.9-2.9c0-0.3-0.1-0.7-0.2-1H37.6z"
		/>
	<rect x="33.7" y="59.6" class="st16" width="13" height="1"/>
	<path class="st5" d="M41.7,60.3c0,0-0.1,0.6-0.6,0.7c-0.5,0.1-0.3,0.4-0.1,0.4s0.6-0.1,0.8-0.5C41.9,60.7,42,60.2,41.7,60.3z"/>
	<g>
		<linearGradient id="SVGID_10_" gradientUnits="userSpaceOnUse" x1="11.7746" y1="13.5633" x2="11.7746" y2="32.6396">
			<stop  offset="0" style="stop-color:#42110E"/>
			<stop  offset="0.1123" style="stop-color:#79150E"/>
			<stop  offset="0.2752" style="stop-color:#891A0F"/>
			<stop  offset="0.5949" style="stop-color:#B42612"/>
			<stop  offset="1" style="stop-color:#F23716"/>
		</linearGradient>
		<path class="st22" d="M10.4,13.8v18.8h2.7V13.8C13.1,13.8,11.8,13.2,10.4,13.8z"/>
		
			<radialGradient id="SVGID_11_" cx="11.0497" cy="27.0039" r="0.244" gradientTransform="matrix(0.9969 0 0 43.5112 0.1945 -1147.967)" gradientUnits="userSpaceOnUse">
			<stop  offset="2.040816e-02" style="stop-color:#F9785E;stop-opacity:0.5"/>
			<stop  offset="1" style="stop-color:#F9785E;stop-opacity:0"/>
		</radialGradient>
		<ellipse class="st23" cx="11.2" cy="27" rx="0.3" ry="10.7"/>
		<linearGradient id="SVGID_12_" gradientUnits="userSpaceOnUse" x1="8.322" y1="43.5942" x2="22.555" y2="43.5942">
			<stop  offset="0" style="stop-color:#F34323"/>
			<stop  offset="8.387693e-04" style="stop-color:#F44929"/>
			<stop  offset="4.596106e-03" style="stop-color:#F65D40"/>
			<stop  offset="8.623523e-03" style="stop-color:#F86C51"/>
			<stop  offset="1.307400e-02" style="stop-color:#F9755B"/>
			<stop  offset="1.877392e-02" style="stop-color:#F9785E"/>
			<stop  offset="3.103691e-02" style="stop-color:#F86E53"/>
			<stop  offset="5.238046e-02" style="stop-color:#F55436"/>
			<stop  offset="7.230549e-02" style="stop-color:#F23716"/>
			<stop  offset="0.1128" style="stop-color:#ED3616"/>
			<stop  offset="0.161" style="stop-color:#DF3215"/>
			<stop  offset="0.213" style="stop-color:#C72B13"/>
			<stop  offset="0.2677" style="stop-color:#A52111"/>
			<stop  offset="0.3241" style="stop-color:#7B150F"/>
			<stop  offset="0.3344" style="stop-color:#72130E"/>
		</linearGradient>
		<path class="st24" d="M22.6,32.6H8.3v19.8c0,0-0.2,2.4,4.2,2.1l10.1-5.4V32.6z"/>
	</g>
	<polygon class="st3" points="29.1,41.8 22.6,41.8 23.5,42.3 26.3,42.8 	"/>
	<polygon class="st17" points="26.1,44.6 29.1,43 29.1,41.8 26.3,42.8 	"/>
	<rect x="24.7" y="41.5" class="st17" width="1.5" height="0.4"/>
	<path class="st18" d="M25,41.2h0.9c0,0,0.1,0,0.3,0.2s0.2,0.2,0.2,0.5l0,0h-0.2c0,0-0.2-0.3-0.4-0.3s-0.9,0-0.9,0
		S24.9,41.3,25,41.2z"/>
	<path class="st18" d="M24.5,41.8c0,0,0.4-0.4,0.4-0.6c0,0,0.1-0.3-0.3-0.3c-0.4,0-1,0-1,0s-0.2,0-0.3,0.2S23,41.5,23,41.5
		s-0.1,0.4,0.1,0.6c0.1,0.1,0.7,0.3,1.1,0.1C24.4,42.2,24.4,42,24.5,41.8z"/>
	<path class="st19" d="M25,41.1c0,0,0.1,0.3,0,0.4c-0.1,0.2-0.5,0.8-0.5,0.8l-1-0.2L23.1,42h1.2C24.3,42,25,41.4,25,41.1z"/>
	
		<linearGradient id="SVGID_13_" gradientUnits="userSpaceOnUse" x1="-714.9266" y1="41.0805" x2="-714.9266" y2="41.7737" gradientTransform="matrix(-1 0 0 1 -691.0375 0)">
		<stop  offset="0" style="stop-color:#F23716"/>
		<stop  offset="0.2478" style="stop-color:#D72F14"/>
		<stop  offset="0.7784" style="stop-color:#911C10"/>
		<stop  offset="1" style="stop-color:#72130E"/>
	</linearGradient>
	<polygon class="st25" points="24.1,41.8 24.5,41.2 24.4,41.1 23.7,41.1 23.3,41.8 	"/>
	<g>
		
			<linearGradient id="SVGID_14_" gradientUnits="userSpaceOnUse" x1="1705.6642" y1="13.3604" x2="1705.6642" y2="32.6238" gradientTransform="matrix(-1 0 0 1 1821.9763 0)">
			<stop  offset="0" style="stop-color:#42110E"/>
			<stop  offset="0.1123" style="stop-color:#79150E"/>
			<stop  offset="0.2752" style="stop-color:#891A0F"/>
			<stop  offset="0.5949" style="stop-color:#B42612"/>
			<stop  offset="1" style="stop-color:#F23716"/>
		</linearGradient>
		<path class="st26" d="M117.7,13.6v19H115v-19C115,13.6,116.3,13,117.7,13.6z"/>
		
			<radialGradient id="SVGID_15_" cx="1704.9346" cy="26.801" r="0.244" gradientTransform="matrix(-0.9969 0 0 43.5112 1816.5713 -1139.34)" gradientUnits="userSpaceOnUse">
			<stop  offset="2.040816e-02" style="stop-color:#F9785E;stop-opacity:0.5"/>
			<stop  offset="1" style="stop-color:#F9785E;stop-opacity:0"/>
		</radialGradient>
		<ellipse class="st27" cx="116.9" cy="26.8" rx="0.3" ry="10.7"/>
	</g>
	
		<linearGradient id="SVGID_16_" gradientUnits="userSpaceOnUse" x1="1701.655" y1="43.5741" x2="1717.0006" y2="43.5741" gradientTransform="matrix(-1 0 0 1 1821.9763 0)">
		<stop  offset="0" style="stop-color:#F34323"/>
		<stop  offset="8.387693e-04" style="stop-color:#F44929"/>
		<stop  offset="4.596106e-03" style="stop-color:#F65D40"/>
		<stop  offset="8.623523e-03" style="stop-color:#F86C51"/>
		<stop  offset="1.307400e-02" style="stop-color:#F9755B"/>
		<stop  offset="1.877392e-02" style="stop-color:#F9785E"/>
		<stop  offset="3.103691e-02" style="stop-color:#F86E53"/>
		<stop  offset="5.238046e-02" style="stop-color:#F55436"/>
		<stop  offset="7.230549e-02" style="stop-color:#F23716"/>
		<stop  offset="0.1128" style="stop-color:#ED3616"/>
		<stop  offset="0.161" style="stop-color:#DF3215"/>
		<stop  offset="0.213" style="stop-color:#C72B13"/>
		<stop  offset="0.2677" style="stop-color:#A52111"/>
		<stop  offset="0.3241" style="stop-color:#7B150F"/>
		<stop  offset="0.3344" style="stop-color:#72130E"/>
	</linearGradient>
	<path class="st28" d="M105,32.7l15.3,0c0,0,0,18.9,0,20.2c0,1.5-3.9,1.7-4.7,1.7L105,49.3V32.7z"/>
	<g>
		<g>
			
				<radialGradient id="SVGID_17_" cx="124.0373" cy="39.189" r="1.2186" gradientTransform="matrix(0.9969 0 0 4.3963 0.1945 -133.0987)" gradientUnits="userSpaceOnUse">
				<stop  offset="0" style="stop-color:#FDF6C7"/>
				<stop  offset="0.1126" style="stop-color:#FDF5C2"/>
				<stop  offset="0.2484" style="stop-color:#FDF3B3"/>
				<stop  offset="0.3956" style="stop-color:#FCEF9B"/>
				<stop  offset="0.4872" style="stop-color:#FCEC88"/>
				<stop  offset="1" style="stop-color:#CB8B5E"/>
			</radialGradient>
			<path class="st29" d="M122.8,37.8c0,0,1.4,0,1.3,2.6s-1,2.6-1.3,2.6V37.8z"/>
			<path class="st14" d="M122.8,37.8c0,0,1.4,0,1.3,2.6c0,2.5-1,2.6-1.3,2.6V37.8 M122.8,37.8L122.8,37.8V43v0h0
				c0.1,0,0.5,0,0.8-0.4c0.4-0.4,0.5-1.2,0.5-2.3c0-0.7-0.1-1.7-0.7-2.3C123.2,37.8,122.9,37.8,122.8,37.8L122.8,37.8L122.8,37.8z"
				/>
		</g>
		<linearGradient id="SVGID_18_" gradientUnits="userSpaceOnUse" x1="121.6489" y1="36.6307" x2="121.6489" y2="44.0691">
			<stop  offset="0" style="stop-color:#F23716"/>
			<stop  offset="1.990582e-02" style="stop-color:#F44C2D"/>
			<stop  offset="4.833687e-02" style="stop-color:#F76448"/>
			<stop  offset="7.363910e-02" style="stop-color:#F87358"/>
			<stop  offset="9.305245e-02" style="stop-color:#F9785E"/>
			<stop  offset="0.1558" style="stop-color:#F86B4F"/>
			<stop  offset="0.2754" style="stop-color:#F44829"/>
			<stop  offset="0.3276" style="stop-color:#F23716"/>
			<stop  offset="0.522" style="stop-color:#C42A13"/>
			<stop  offset="0.7363" style="stop-color:#981E10"/>
			<stop  offset="0.9029" style="stop-color:#7C160F"/>
			<stop  offset="1" style="stop-color:#72130E"/>
		</linearGradient>
		<path class="st30" d="M120.3,36.6h1.7l0.8,1.2c0,0,0.2,3.6,0,5.1l-0.8,1.1h-1.7V36.6z"/>
		<linearGradient id="SVGID_19_" gradientUnits="userSpaceOnUse" x1="122.4958" y1="36.6307" x2="122.4958" y2="44.0402">
			<stop  offset="0" style="stop-color:#F23B1B"/>
			<stop  offset="0.223" style="stop-color:#F34020"/>
			<stop  offset="0.4919" style="stop-color:#F44D2F"/>
			<stop  offset="0.7833" style="stop-color:#F76347"/>
			<stop  offset="1" style="stop-color:#F9785E"/>
		</linearGradient>
		<path class="st31" d="M122.1,44L122.1,44l0.8-1c0.2-1.5,0-5.1,0-5.1l-0.8-1.2h0C122.1,36.6,122.3,42.8,122.1,44z"/>
	</g>
	<linearGradient id="SVGID_20_" gradientUnits="userSpaceOnUse" x1="21.597" y1="30.9714" x2="21.597" y2="52.9427">
		<stop  offset="0" style="stop-color:#FCEC88"/>
		<stop  offset="6.922646e-03" style="stop-color:#FCEC87"/>
		<stop  offset="0.2213" style="stop-color:#FCE564"/>
		<stop  offset="0.424" style="stop-color:#FBE14B"/>
		<stop  offset="0.6087" style="stop-color:#FBDE3C"/>
		<stop  offset="0.7591" style="stop-color:#FBDD37"/>
	</linearGradient>
	<path class="st32" d="M27.8,52.6h-0.7c0,0-0.8-1.5-3.1-2.7c0,0-0.8-0.3-0.9-1.3c-0.1-1.1,0.6-1.2,0.9-1.5c0.3-0.3,1.3-1,2-1.4
		c0.7-0.3,1-0.7,1-0.9c0-0.2-0.5-0.7-1-0.8c-0.5-0.1-3.8-0.8-3.9-0.8s-0.6-0.2-0.8-0.7c-0.2-0.5,0,5.4,0,5.4s-0.7,1.8-3,2.3
		l-0.1-1.5c0,0,1.1-0.2,1.8-1.3l-0.3-13.9c0,0-0.5-1-1.7-1.3v-1L17.5,31L17,34.7l-0.6,0.2l0,0.9c0,0,0,0,0,0
		c-0.6,0.2-1.1,1.1-1.2,1.3c0,0,0,0,0,0c0,0,0,0,0,0c0,0,0,0,0,0l0,0.1l0,0L15.3,51c0.8,1.2,1.2,1.2,1.2,1.2v0.4l0.6,0.4H28
		L27.8,52.6z"/>
	<path class="st7" d="M37.5,59.6c0,0.1,0,0.2,0,0.3c0,0.2,0,0.5,0.1,0.7h5.6c0.1-0.2,0.1-0.5,0.1-0.7c0-0.1,0-0.2,0-0.3H37.5z"/>
	
		<radialGradient id="SVGID_21_" cx="85.0307" cy="59.6688" r="6.1493" gradientTransform="matrix(0.9969 0 0 1 0.1945 0)" gradientUnits="userSpaceOnUse">
		<stop  offset="1.419005e-02" style="stop-color:#3A312C"/>
		<stop  offset="0.5693" style="stop-color:#382F2A"/>
		<stop  offset="0.8222" style="stop-color:#312924"/>
		<stop  offset="1" style="stop-color:#251F1B"/>
	</radialGradient>
	<path class="st33" d="M78.8,58.8c-0.1,0.3-0.1,0.7-0.1,1c0,3.4,2.8,6.2,6.2,6.2c3.4,0,6.2-2.8,6.2-6.2c0-0.3,0-0.7-0.1-1H78.8z"/>
	
		<radialGradient id="SVGID_22_" cx="84.8874" cy="59.8229" r="2.8893" gradientTransform="matrix(0.9969 0 0 1 0.1945 0)" gradientUnits="userSpaceOnUse">
		<stop  offset="0" style="stop-color:#8B8888"/>
		<stop  offset="0.4823" style="stop-color:#8A8686"/>
		<stop  offset="0.7022" style="stop-color:#87817E"/>
		<stop  offset="0.8684" style="stop-color:#817772"/>
		<stop  offset="1" style="stop-color:#796A61"/>
	</radialGradient>
	<path class="st34" d="M82.1,58.8c-0.1,0.3-0.2,0.6-0.2,1c0,1.6,1.3,2.9,2.9,2.9c1.6,0,2.9-1.3,2.9-2.9c0-0.3-0.1-0.7-0.2-1H82.1z"
		/>
	<rect x="78.2" y="59.6" class="st16" width="13" height="1"/>
	<path class="st5" d="M86.2,60.3c0,0-0.1,0.6-0.6,0.7c-0.5,0.1-0.3,0.4-0.1,0.4s0.6-0.1,0.8-0.5C86.4,60.7,86.5,60.2,86.2,60.3z"/>
	<path class="st7" d="M82,59.6c0,0.1,0,0.2,0,0.3c0,0.2,0,0.5,0.1,0.7h5.6c0.1-0.2,0.1-0.5,0.1-0.7c0-0.1,0-0.2,0-0.3H82z"/>
	<polygon class="st36" points="118.6,57.3 118.6,54.8 9.4,54.8 9.4,57.3 5.9,57.3 5.9,59.6 121.9,59.6 121.9,57.3 	"/>
	<g>
		<linearGradient id="SVGID_23_" gradientUnits="userSpaceOnUse" x1="44.2963" y1="42.5089" x2="44.2963" y2="52.4841">
			<stop  offset="0" style="stop-color:#FCEC88"/>
			<stop  offset="6.922646e-03" style="stop-color:#FCEC87"/>
			<stop  offset="0.2213" style="stop-color:#FCE564"/>
			<stop  offset="0.424" style="stop-color:#FBE14B"/>
			<stop  offset="0.6087" style="stop-color:#FBDE3C"/>
			<stop  offset="0.7591" style="stop-color:#FBDD37"/>
		</linearGradient>
		<path class="st35" d="M48.5,50.3L48.5,50.3c-2.3-0.5-3.1-2.4-3.1-2.4s0.2-5.9,0-5.4c-0.2,0.5-0.6,0.7-0.8,0.7
			c-0.1,0-3.1,0.8-3.6,0.8c-0.5,0.1-1,0.6-1,0.8c0,0.2,0.3,0.6,1,0.9c0.7,0.3,1.7,1.1,2,1.4c0.3,0.3,1.1,0.4,0.9,1.5
			c-0.1,1.1-0.9,1.3-0.9,1.3c-1.8,1-2.7,2.1-3,2.6l8.4,0.1L48.5,50.3z"/>
		<linearGradient id="SVGID_24_" gradientUnits="userSpaceOnUse" x1="47.5853" y1="32.3599" x2="47.5853" y2="48.7254">
			<stop  offset="0" style="stop-color:#FCEC88"/>
			<stop  offset="6.922646e-03" style="stop-color:#FCEC87"/>
			<stop  offset="0.2213" style="stop-color:#FCE564"/>
			<stop  offset="0.424" style="stop-color:#FBE14B"/>
			<stop  offset="0.6087" style="stop-color:#FBDE3C"/>
			<stop  offset="0.7591" style="stop-color:#FBDD37"/>
		</linearGradient>
		<path class="st37" d="M48.5,48.7l-0.1-16.4c-0.9,0.4-1.4,1.2-1.4,1.2l-0.3,13.9C47.3,48.4,48.4,48.7,48.5,48.7z"/>
		<linearGradient id="SVGID_25_" gradientUnits="userSpaceOnUse" x1="51.0664" y1="32.2473" x2="51.0664" y2="48.7353">
			<stop  offset="0" style="stop-color:#FCEC88"/>
			<stop  offset="6.922646e-03" style="stop-color:#FCEC87"/>
			<stop  offset="0.2213" style="stop-color:#FCE564"/>
			<stop  offset="0.424" style="stop-color:#FBE14B"/>
			<stop  offset="0.6087" style="stop-color:#FBDE3C"/>
			<stop  offset="0.7591" style="stop-color:#FBDD37"/>
		</linearGradient>
		<path class="st38" d="M52.1,47.4l-0.3-13.9c0,0-0.5-0.9-1.7-1.3l0.1,16.5C50.5,48.7,51.5,48.4,52.1,47.4z"/>
		<linearGradient id="SVGID_26_" gradientUnits="userSpaceOnUse" x1="54.4407" y1="42.5089" x2="54.4407" y2="52.4841">
			<stop  offset="0" style="stop-color:#FCEC88"/>
			<stop  offset="6.922646e-03" style="stop-color:#FCEC87"/>
			<stop  offset="0.2213" style="stop-color:#FCE564"/>
			<stop  offset="0.424" style="stop-color:#FBE14B"/>
			<stop  offset="0.6087" style="stop-color:#FBDE3C"/>
			<stop  offset="0.7591" style="stop-color:#FBDD37"/>
		</linearGradient>
		<path class="st39" d="M58.7,52.4c-0.3-0.4-1.2-1.6-3-2.6c0,0-0.8-0.3-0.9-1.3c-0.1-1.1,0.6-1.2,0.9-1.5s1.3-1,2-1.4
			c0.7-0.3,1-0.7,1-0.9c0-0.2-0.5-0.7-1-0.8c-0.5-0.1-3.4-0.8-3.6-0.8c-0.1,0-0.6-0.2-0.8-0.7c-0.2-0.5,0,5.4,0,5.4
			s-0.8,1.8-3.1,2.4l0,2.2L58.7,52.4z"/>
	</g>
	<g>
		<linearGradient id="SVGID_27_" gradientUnits="userSpaceOnUse" x1="78.5331" y1="32.0637" x2="78.5331" y2="48.5464">
			<stop  offset="0" style="stop-color:#FCEC88"/>
			<stop  offset="6.922646e-03" style="stop-color:#FCEC87"/>
			<stop  offset="0.2213" style="stop-color:#FCE564"/>
			<stop  offset="0.424" style="stop-color:#FBE14B"/>
			<stop  offset="0.6087" style="stop-color:#FBDE3C"/>
			<stop  offset="0.7591" style="stop-color:#FBDD37"/>
		</linearGradient>
		<path class="st40" d="M77.8,33.5l-0.1,13.8c0.7,0.9,1.4,1.2,1.6,1.2l0-16.5C78.3,32.5,77.8,33.5,77.8,33.5z"/>
		<linearGradient id="SVGID_28_" gradientUnits="userSpaceOnUse" x1="75.2875" y1="42.3655" x2="75.2875" y2="52.3598">
			<stop  offset="0" style="stop-color:#FCEC88"/>
			<stop  offset="6.922646e-03" style="stop-color:#FCEC87"/>
			<stop  offset="0.2213" style="stop-color:#FCE564"/>
			<stop  offset="0.424" style="stop-color:#FBE14B"/>
			<stop  offset="0.6087" style="stop-color:#FBDE3C"/>
			<stop  offset="0.7591" style="stop-color:#FBDD37"/>
		</linearGradient>
		<path class="st41" d="M79.3,50.1c-2.3-0.6-2.8-2.3-2.8-2.3l0.1-5.4c0,0.3-0.8,0.7-1.1,0.7c-0.3,0-3,0.7-3.5,0.8
			c-0.5,0.1-0.7,0.5-0.6,0.9c0.1,0.4,1.4,1.1,2.4,1.8c1.1,0.7,1.2,1.3,1.2,1.8c0,0.5-0.4,1-0.4,1c-2.2,1.2-3.2,2.7-3.3,2.9l8.1,0
			L79.3,50.1z"/>
		<linearGradient id="SVGID_29_" gradientUnits="userSpaceOnUse" x1="84.9494" y1="42.2795" x2="84.9494" y2="52.2762">
			<stop  offset="0" style="stop-color:#FCEC88"/>
			<stop  offset="6.922646e-03" style="stop-color:#FCEC87"/>
			<stop  offset="0.2213" style="stop-color:#FCE564"/>
			<stop  offset="0.424" style="stop-color:#FBE14B"/>
			<stop  offset="0.6087" style="stop-color:#FBDE3C"/>
			<stop  offset="0.7591" style="stop-color:#FBDD37"/>
		</linearGradient>
		<path class="st42" d="M81,50l0,2.3l7.8,0c-0.2-0.3-1.1-1.8-3.3-2.9c0,0-0.4-0.5-0.4-1c0-0.5,0.1-1,1.2-1.8
			c1.1-0.7,2.4-1.4,2.4-1.8c0.1-0.4-0.1-0.8-0.6-0.9c-0.5-0.1-3.3-0.8-3.5-0.8s-1.1-0.5-1.1-0.7l0.1,5.4C83.6,47.7,83.1,49.3,81,50z
			"/>
		<linearGradient id="SVGID_30_" gradientUnits="userSpaceOnUse" x1="81.6989" y1="32.0642" x2="81.6989" y2="48.3659">
			<stop  offset="0" style="stop-color:#FCEC88"/>
			<stop  offset="6.922646e-03" style="stop-color:#FCEC87"/>
			<stop  offset="0.2213" style="stop-color:#FCE564"/>
			<stop  offset="0.424" style="stop-color:#FBE14B"/>
			<stop  offset="0.6087" style="stop-color:#FBDE3C"/>
			<stop  offset="0.7591" style="stop-color:#FBDD37"/>
		</linearGradient>
		<path class="st43" d="M81,48.4c0.3-0.1,0.9-0.5,1.3-1.1l-0.1-13.8c0,0-0.4-0.9-1.3-1.3L81,48.4z"/>
		<linearGradient id="SVGID_31_" gradientUnits="userSpaceOnUse" x1="87.3251" y1="46.507" x2="87.3251" y2="47.4284">
			<stop  offset="0" style="stop-color:#FCEC88"/>
			<stop  offset="6.922646e-03" style="stop-color:#FCEC87"/>
			<stop  offset="0.2213" style="stop-color:#FCE564"/>
			<stop  offset="0.424" style="stop-color:#FBE14B"/>
			<stop  offset="0.6087" style="stop-color:#FBDE3C"/>
			<stop  offset="0.7591" style="stop-color:#FBDD37"/>
		</linearGradient>
		<path class="st44" d="M87.1,47c0,0-0.2,0.2-0.4,0.4l1.3-0.9C87.5,46.8,87.1,47,87.1,47z"/>
	</g>
	<g>
		<linearGradient id="SVGID_32_" gradientUnits="userSpaceOnUse" x1="105.2972" y1="42.2508" x2="105.2972" y2="52.2403">
			<stop  offset="0" style="stop-color:#FCEC88"/>
			<stop  offset="6.922646e-03" style="stop-color:#FCEC87"/>
			<stop  offset="0.2213" style="stop-color:#FCE564"/>
			<stop  offset="0.424" style="stop-color:#FBE14B"/>
			<stop  offset="0.6087" style="stop-color:#FBDE3C"/>
			<stop  offset="0.7591" style="stop-color:#FBDD37"/>
		</linearGradient>
		<path class="st45" d="M109.3,50c-2.2-0.4-2.8-2.4-2.8-2.4l0.1-5.3c-0.1,0.2-0.6,0.5-0.7,0.5c-0.2,0-3,0.7-3.4,0.7
			c-0.4,0.1-1,0.4-1.1,0.6c-0.1,0.2,0.1,0.4,0.3,0.7c0.1,0.3,2.3,1.7,2.8,2.2c0.5,0.5,0.5,0.8,0.6,1.3c0,0.4-0.5,1-0.5,1
			c-2.2,1.2-3,2.6-3.2,3l8,0L109.3,50z"/>
		<linearGradient id="SVGID_33_" gradientUnits="userSpaceOnUse" x1="111.7983" y1="34.7744" x2="111.7983" y2="51.6153">
			<stop  offset="0" style="stop-color:#FCEC88"/>
			<stop  offset="6.922646e-03" style="stop-color:#FCEC87"/>
			<stop  offset="0.2213" style="stop-color:#FCE564"/>
			<stop  offset="0.424" style="stop-color:#FBE14B"/>
			<stop  offset="0.6087" style="stop-color:#FBDE3C"/>
			<stop  offset="0.7591" style="stop-color:#FBDD37"/>
		</linearGradient>
		<path class="st46" d="M112.3,50.4l0.1-13.8c0,0-0.5-1.1-1.2-1.3l0-0.5l-0.1,16.8C111.3,51.6,111.7,51.3,112.3,50.4z"/>
		<linearGradient id="SVGID_34_" gradientUnits="userSpaceOnUse" x1="108.5549" y1="30.7463" x2="108.5549" y2="48.4675">
			<stop  offset="0" style="stop-color:#FCEC88"/>
			<stop  offset="6.922646e-03" style="stop-color:#FCEC87"/>
			<stop  offset="0.2213" style="stop-color:#FCE564"/>
			<stop  offset="0.424" style="stop-color:#FBE14B"/>
			<stop  offset="0.6087" style="stop-color:#FBDE3C"/>
			<stop  offset="0.7591" style="stop-color:#FBDD37"/>
		</linearGradient>
		<path class="st47" d="M109.4,30.7L109.4,30.7l0,1.2c-0.7,0.1-1.5,1.2-1.5,1.2l-0.2,13.9c0.1,0.3,1.4,1.2,1.6,1.4L109.4,30.7z"/>
	</g>
	<linearGradient id="SVGID_35_" gradientUnits="userSpaceOnUse" x1="63.9205" y1="14.3367" x2="63.9205" y2="54.3739">
		<stop  offset="0" style="stop-color:#AD2412"/>
		<stop  offset="0.2277" style="stop-color:#C62B13"/>
		<stop  offset="0.5159" style="stop-color:#DE3215"/>
		<stop  offset="0.7813" style="stop-color:#ED3616"/>
		<stop  offset="1" style="stop-color:#F23716"/>
	</linearGradient>
	<path class="st48" d="M111.2,33.8l0.1-19.4H16.1l0.1,20.1c-0.5,0.2-1.3,0.7-1.8,1.8l0.2,15.4c0,0,0.5,1.3,1.7,1.7l0,0.9l94.8,0.2
		l0-1.5c1.5-0.2,2-1.8,2-1.8l0.2-15.4C112.6,34.3,111.4,33.8,111.2,33.8z M15.5,51l-0.1-13.8c0,0,0.4-0.7,0.8-1.1l0.1,15.9
		C16.1,51.8,15.9,51.5,15.5,51z M79.3,48.5c-0.2-0.1-0.9-0.4-1.6-1.2l0.1-13.8c0,0,0.4-1,1.5-1.4L79.3,48.5z M18.1,32.2
		c1.2,0.4,1.7,1.3,1.7,1.3l0.3,13.9c-0.6,1-1.6,1.2-1.8,1.3L18.1,32.2z M18.4,52.3l0-2.9l0,0.9c2.3-0.5,3-2.3,3-2.3s-0.2-5.9,0-5.4
		c0.2,0.5,0.6,0.7,0.8,0.7c0.1,0,3.4,0.8,3.9,0.8c0.5,0.1,1,0.6,1,0.8c0,0.2-0.3,0.6-1,0.9s-1.7,1.1-2,1.4c-0.3,0.3-1.1,0.4-0.9,1.5
		c0.1,1.1,0.9,1.3,0.9,1.3c1.7,0.9,2.6,2,2.9,2.5L18.4,52.3z M40.1,52.4c0.3-0.4,1.2-1.5,3-2.6c0,0,0.8-0.3,0.9-1.3
		c0.1-1.1-0.6-1.2-0.9-1.5c-0.3-0.3-1.3-1-2-1.4c-0.7-0.3-1-0.7-1-0.9c0-0.2,0.5-0.7,1-0.8c0.5-0.1,3.4-0.8,3.6-0.8
		c0.1,0,0.6-0.2,0.8-0.7c0.2-0.5,0,5.4,0,5.4s0.7,1.8,3.1,2.4v0l0,2.2L40.1,52.4z M46.7,47.4L47,33.6c0,0,0.4-0.8,1.4-1.2l0.1,16.4
		C48.4,48.7,47.3,48.4,46.7,47.4z M50.1,32.2c1.1,0.4,1.7,1.3,1.7,1.3l0.3,13.9c-0.6,0.9-1.6,1.2-1.8,1.3L50.1,32.2z M50.2,52.5
		l0-2.2c2.3-0.6,3.1-2.4,3.1-2.4s-0.2-5.9,0-5.4c0.2,0.5,0.6,0.7,0.8,0.7c0.1,0,3.1,0.8,3.6,0.8c0.5,0.1,1,0.6,1,0.8
		c0,0.2-0.3,0.6-1,0.9c-0.7,0.3-1.7,1.1-2,1.4s-1.1,0.4-0.9,1.5c0.1,1.1,0.9,1.3,0.9,1.3c1.8,1,2.7,2.1,3,2.6L50.2,52.5z M60.1,52.4
		c-0.8-1.7-2.7-2.9-3.2-3.2c-0.5-0.3-0.8-0.6-0.8-1.2c0-0.6,2.4-1.8,2.7-1.9c0.3-0.1,1.1-0.5,1.1-1.6c0.1-1.1-1.3-1.5-1.3-1.5
		s-2.8-0.7-3.5-0.9c-0.8-0.2-1.1-0.5-1.1-1.1c-0.1-0.6-0.8-1.1-0.8-1.1l-0.2-6.8c-0.6-1.8-2.5-2.6-2.9-2.8L50,15.9l-1.7,0l0.1,14.6
		c-0.7,0.3-2.1,1.2-2.6,2.6l-0.2,6.8c0,0-0.7,0.5-0.8,1.1c-0.1,0.6-0.4,0.9-1.1,1.1c-0.8,0.2-3.5,0.9-3.5,0.9s-1.4,0.4-1.3,1.5
		c0.1,1.1,0.9,1.5,1.1,1.6c0.3,0.1,2.7,1.3,2.7,1.9c0,0.6-0.3,0.9-0.8,1.2c-0.5,0.3-2.4,1.4-3.2,3.1l-10.3-0.1
		c-0.8-1.7-2.7-2.8-3.1-3.1c-0.5-0.3-0.8-0.6-0.8-1.2c0-0.6,2.4-1.8,2.7-1.9c0.3-0.1,1.1-0.5,1.1-1.6C28.3,43.4,27,43,27,43
		s-3.1-0.7-3.9-0.9c-0.8-0.2-1.1-0.5-1.1-1.1c-0.1-0.6-0.8-1.1-0.8-1.1L21,33.2c-0.6-1.8-2.6-2.7-2.9-2.8l-0.2-14.5l61.4-0.1l0,14.5
		h0c0,0-1.8,0.8-2.6,2.6v6.9c0,0-0.7,0.7-0.7,1.1c-0.1,0.4-0.1,0.8-1.1,1.1c-1,0.2-3.3,0.8-3.6,0.9s-1.1,0.6-1.1,1.7
		s0.4,1.2,0.9,1.5c0.5,0.3,1.9,1.2,1.9,1.2s0.6,0.4,0.6,0.9s-0.3,0.9-0.7,1.1c-0.4,0.2-2.3,1.9-3,3.3L60.1,52.4z M71.3,52.4
		c0.1-0.3,1.1-1.8,3.3-2.9c0,0,0.4-0.5,0.4-1c0-0.5-0.1-1-1.2-1.8c-1.1-0.7-2.4-1.4-2.4-1.8c-0.1-0.4,0.1-0.8,0.6-0.9
		c0.5-0.1,3.3-0.8,3.5-0.8c0.3,0,1.1-0.5,1.1-0.7l-0.1,5.4c0,0,0.5,1.7,2.8,2.3l0,2.2L71.3,52.4z M81,32.1c0.9,0.4,1.3,1.3,1.3,1.3
		l0.1,13.8c-0.5,0.6-1,1-1.3,1.1L81,32.1z M81,52.3l0-2.3c2.1-0.7,2.6-2.2,2.6-2.2l-0.1-5.4c0,0.3,0.8,0.7,1.1,0.7s3,0.7,3.5,0.8
		c0.5,0.1,0.7,0.5,0.6,0.9c-0.1,0.4-1.4,1.1-2.4,1.8c-1.1,0.7-1.2,1.3-1.2,1.8c0,0.5,0.4,1,0.4,1c2.2,1.2,3.1,2.6,3.3,2.9L81,52.3z
		 M90.2,52.3c-0.7-1.4-2.5-3-2.9-3.2c-0.4-0.2-0.7-0.6-0.7-1.1s0.6-0.9,0.6-0.9s1.4-0.8,1.9-1.2c0.5-0.3,0.9-0.5,0.9-1.5
		c0.1-1-0.8-1.6-1.1-1.7c-0.3-0.1-2.6-0.7-3.6-0.9c-1-0.2-1-0.6-1.1-1.1c-0.1-0.4-0.7-1.1-0.7-1.1v-6.9c-0.7-1.4-2-2.3-2.4-2.5
		l0-14.5l28.5,0L109.4,30l0,0c0,0-1.9,0.7-2.6,2.6l-0.1,6.8c0,0-0.6,0.5-0.6,1.1c0,0.5-0.3,0.8-0.8,0.9c-0.5,0.1-3.9,1-3.9,1
		s-1.1,0.6-1.1,1.3c0,0.8,0.3,1.5,1.1,2c0.7,0.4,2.2,1.4,2.2,1.4s0.3,0.3,0.3,0.7c0,0.5-0.5,0.8-0.7,0.9c-0.2,0.1-2.3,1.5-3.1,3.4
		L90.2,52.3z M109.3,52.2l-8,0c0.2-0.3,1-1.8,3.2-3c0,0,0.6-0.6,0.5-1c0-0.4,0-0.8-0.6-1.3c-0.5-0.5-2.7-1.9-2.8-2.2
		c-0.1-0.3-0.3-0.5-0.3-0.7c0.1-0.2,0.6-0.6,1.1-0.6c0.4-0.1,3.3-0.7,3.4-0.7c0.2,0,0.6-0.3,0.7-0.5l-0.1,5.3c0,0,0.6,2,2.8,2.4
		L109.3,52.2z M107.7,47.1l0.2-13.9c0,0,0.7-1.1,1.5-1.2l0,0l0,0l-0.1,16.6C109.1,48.3,107.8,47.4,107.7,47.1z M112.3,50.4
		c-0.6,0.9-1,1.1-1.1,1.2l0.1-16.8l0,0.5c0.7,0.3,1.2,1.3,1.2,1.3L112.3,50.4z"/>
	<g>
		<g>
			<path class="st50" d="M18.4,30.6c0,0,1.5,0.5,2.5,2.5v2.3c0,0-0.1,0.1-0.1-0.2c0-0.3,0-1.1-0.1-1.4s0-0.6-0.2-0.9
				c-0.3-0.5-1.1-1.4-1.6-1.8C18.5,30.9,17.9,30.5,18.4,30.6z"/>
			<path class="st50" d="M21.2,40.1c0,0,0.5,0.1,0.7,1.1c0.2,0.9,0.9,0.9,1.2,1s3.5,0.8,3.7,0.9s1.1,0.4,1.1,1c0,0-0.2-0.5-1-0.8
				c-0.4-0.1-3.6-0.9-3.8-1c-0.2-0.1-1.1-0.3-1.2-0.8C21.8,40.9,21.5,40.3,21.2,40.1z"/>
			<path class="st50" d="M24.4,48.5c0,0,0.3,0.4,0.5,0.6c0.3,0.2,2.8,1.7,3.3,3.2c0,0-0.5-0.4-0.9-0.8s-1.2-1.3-1.9-1.8
				S24.4,48.8,24.4,48.5z"/>
		</g>
		<g>
			<path class="st51" d="M19.8,33.6L19.8,33.6c0-0.9-1.7-1.8-1.7-1.8v0.4C19.3,32.6,19.8,33.6,19.8,33.6z"/>
			<path class="st51" d="M18.4,50l0,0.3c2.3-0.5,3-2.3,3-2.3s0-0.1,0-0.2l0,0C20.5,49.4,18.6,49.9,18.4,50z"/>
			<path class="st51" d="M21.2,42l0.1,1.2c0-0.5,0-0.7,0.1-0.6c0.2,0.5,0.6,0.7,0.8,0.7s3.4,0.8,3.9,0.8c0.5,0.1,0.9,0.5,1,0.7
				c0,0,0-0.1,0-0.1c-0.1-0.6-0.8-0.8-0.8-0.8s-3-0.7-3.9-0.8C21.5,42.8,21.2,42,21.2,42z"/>
			<path class="st51" d="M24,49.6c-0.9-0.4-0.9-1.3-0.9-1.3l0,0c0,0.1,0,0.2,0,0.3c0.1,1.1,0.9,1.3,0.9,1.3c2.3,1.3,3.1,2.7,3.1,2.7
				h0.3C26.3,50.7,24.9,50,24,49.6z"/>
			<path class="st51" d="M16.6,35.4v0.4c-0.7,0.3-1.2,1.3-1.2,1.3l0,0.1l0,0C15.4,37.3,15.2,36.4,16.6,35.4z"/>
		</g>
	</g>
	<g>
		<path class="st51" d="M51.7,33.6L51.7,33.6c0-0.9-1.7-1.8-1.7-1.8v0.4C51.2,32.6,51.7,33.6,51.7,33.6z"/>
		<path class="st51" d="M50.2,50l0,0.3c2.3-0.5,3.1-2.4,3.1-2.4s0-0.1,0-0.2l0,0C52.5,49.4,50.4,50,50.2,50z"/>
		<path class="st51" d="M53.2,42l0.1,1.2c0-0.5,0-0.7,0.1-0.6c0.2,0.5,0.6,0.7,0.8,0.7s3.1,0.8,3.6,0.8c0.5,0.1,0.9,0.5,1,0.7
			c0,0,0-0.1,0-0.1c-0.1-0.6-0.8-0.8-0.8-0.8s-2.7-0.7-3.6-0.8S53.2,42,53.2,42z"/>
		<path class="st51" d="M55.6,49.6c-0.9-0.4-0.9-1.3-0.9-1.3l0,0c0,0.1,0,0.2,0,0.3c0.1,1.1,0.9,1.3,0.9,1.3
			c2.3,1.3,3.1,2.7,3.1,2.7h0.3C57.9,50.7,56.5,50,55.6,49.6z"/>
		<path class="st50" d="M50.4,30.6c0,0,1.5,0.5,2.5,2.5v2.3c0,0-0.1,0.1-0.1-0.2s0-1.1-0.1-1.4c-0.1-0.4,0-0.6-0.2-0.9
			c-0.3-0.5-1.1-1.4-1.6-1.8C50.5,30.9,49.8,30.5,50.4,30.6z"/>
		<path class="st50" d="M53.2,40.1c0,0,0.5,0.1,0.7,1.1c0.2,0.9,0.9,0.9,1.2,1c0.3,0.1,3.1,0.8,3.3,0.9c0.2,0.1,1.1,0.4,1.1,1
			c0,0-0.2-0.5-1-0.8c-0.4-0.1-3.2-0.9-3.5-1c-0.2-0.1-1.1-0.3-1.2-0.8C53.7,40.9,53.4,40.3,53.2,40.1z"/>
		<path class="st50" d="M56,48.5c0,0,0.3,0.4,0.5,0.6c0.3,0.2,2.8,1.7,3.3,3.2c0,0-0.5-0.4-0.9-0.8s-1.2-1.3-1.9-1.8
			C56.4,49.2,56,48.8,56,48.5z"/>
		<path class="st51" d="M47,33.6L47,33.6c0-0.9,1.7-1.8,1.7-1.8v0.4C47.5,32.6,47,33.6,47,33.6z"/>
		<path class="st51" d="M48.5,50l0,0.3c-2.3-0.5-3.1-2.4-3.1-2.4s0-0.1,0-0.2l0,0C46.3,49.4,48.3,50,48.5,50z"/>
		<path class="st51" d="M45.6,42l-0.1,1.2c0-0.5,0-0.7-0.1-0.6c-0.2,0.5-0.6,0.7-0.8,0.7c-0.1,0-3.1,0.8-3.6,0.8
			c-0.5,0.1-0.9,0.5-1,0.7c0,0,0-0.1,0-0.1c0.1-0.6,0.8-0.8,0.8-0.8s2.7-0.7,3.6-0.8S45.6,42,45.6,42z"/>
		<path class="st51" d="M43.1,49.6c0.9-0.4,0.9-1.3,0.9-1.3l0,0c0,0.1,0,0.2,0,0.3c-0.1,1.1-0.9,1.3-0.9,1.3
			c-2.3,1.3-3.1,2.7-3.1,2.7h-0.3C40.8,50.7,42.2,50,43.1,49.6z"/>
		<path class="st50" d="M48.4,30.6c0,0-1.5,0.5-2.5,2.5v2.3c0,0,0.1,0.1,0.1-0.2s0-1.1,0.1-1.4c0.1-0.4,0-0.6,0.2-0.9
			c0.3-0.5,1.1-1.4,1.6-1.8C48.3,30.9,48.9,30.5,48.4,30.6z"/>
		<path class="st50" d="M45.6,40.1c0,0-0.5,0.1-0.7,1.1c-0.2,0.9-0.9,0.9-1.2,1S40.5,43,40.3,43c-0.2,0.1-1.1,0.4-1.1,1
			c0,0,0.2-0.5,1-0.8c0.4-0.1,3.2-0.9,3.5-1c0.2-0.1,1.1-0.3,1.2-0.8C45,40.9,45.3,40.3,45.6,40.1z"/>
		<path class="st50" d="M42.8,48.5c0,0-0.3,0.4-0.5,0.6s-2.8,1.7-3.3,3.2c0,0,0.5-0.4,0.9-0.8s1.2-1.3,1.9-1.8S42.8,48.8,42.8,48.5z
			"/>
	</g>
	<g>
		<path class="st50" d="M81.1,30.5c0,0,1.5,0.7,2.3,2.4v2.4c0,0-0.1,0.1-0.1-0.2s0-1.1-0.1-1.4c-0.1-0.4,0-0.6-0.2-0.9
			c-0.3-0.5-1-1.4-1.5-1.8C81.2,30.7,80.6,30.3,81.1,30.5z"/>
		<path class="st50" d="M83.4,39.9c0,0,0.5,0.1,0.7,1.1s0.9,0.9,1.2,1c0.3,0.1,3.1,0.8,3.3,0.9c0.2,0.1,1,0.4,1,1
			c0,0-0.1-0.5-0.9-0.8c-0.4-0.1-3.2-0.9-3.5-1c-0.2-0.1-1.1-0.3-1.2-0.8C84,40.6,83.7,40,83.4,39.9z"/>
		<path class="st50" d="M86.3,48.2c0,0,0.2,0.4,0.5,0.6c0.3,0.2,2.5,1.7,3,3.2c0,0-0.5-0.4-0.8-0.8c-0.3-0.4-1-1.3-1.7-1.8
			C86.7,48.9,86.3,48.5,86.3,48.2z"/>
		<path class="st51" d="M80.7,31.7v0.3l0,0c1,0.3,1.4,1.2,1.5,1.4c0,0,0,0.1,0,0.1C82.3,32.6,81.1,31.9,80.7,31.7z"/>
		<path class="st51" d="M88.1,43.9c0.4,0.1,0.6,0.3,0.6,0.6c0,0,0,0,0,0.1c0,0,0-0.1,0-0.1c-0.1-0.6-0.8-0.8-0.8-0.8
			s-2.6-0.6-3.5-0.9c-0.6-0.2-1-0.5-1.1-1l0.1,0.5c0,0,0,0.1,0,0.1c0,0,0,0,0,0c0.2,0.3,0.8,0.6,1,0.6
			C84.9,43.1,87.6,43.8,88.1,43.9z"/>
		<path class="st51" d="M88.9,52.3h0.3c-1.1-1.8-2.2-2.5-3-2.9c-0.8-0.3-0.9-1.2-0.9-1.3c0,0.1,0,0.1,0,0.2c0,0.5,0.4,1,0.4,1
			C88,50.6,88.9,52.3,88.9,52.3z"/>
		<path class="st51" d="M83.6,47.6c-0.7,1.3-2.2,2-2.8,2.1V50c0.9-0.3,1.6-0.7,2-1.1c0,0,0,0,0.1-0.1c0,0,0,0,0,0
			c0.1-0.1,0.1-0.1,0.2-0.2c0,0,0,0,0,0c0,0,0,0,0,0c0.4-0.5,0.5-0.9,0.5-0.9L83.6,47.6C83.6,47.7,83.6,47.7,83.6,47.6L83.6,47.6z"
			/>
		<path class="st50" d="M79,30.5c0,0-1.5,0.7-2.3,2.4v2.4c0,0,0.1,0.1,0.1-0.2c0-0.3,0-1.1,0.1-1.4c0.1-0.4,0-0.6,0.2-0.9
			c0.3-0.5,1-1.4,1.5-1.8C78.9,30.8,79.5,30.4,79,30.5z"/>
		<path class="st50" d="M76.7,39.9c0,0-0.5,0.1-0.7,1.1s-0.9,0.9-1.2,1s-3.1,0.8-3.3,0.9s-1,0.4-1,1c0,0,0.1-0.5,0.9-0.8
			c0.4-0.1,3.2-0.9,3.5-1c0.2-0.1,1.1-0.3,1.2-0.8C76.1,40.7,76.4,40.1,76.7,39.9z"/>
		<path class="st50" d="M73.8,48.3c0,0-0.2,0.4-0.5,0.6c-0.3,0.2-2.5,1.7-3,3.2c0,0,0.5-0.4,0.8-0.8c0.3-0.4,1-1.3,1.7-1.8
			C73.4,49,73.8,48.6,73.8,48.3z"/>
		<path class="st51" d="M79.4,31.8V32l0,0c-1,0.3-1.4,1.2-1.5,1.4c0,0,0,0.1,0,0.1C77.9,32.7,79,32,79.4,31.8z"/>
		<path class="st51" d="M72,43.9c-0.4,0.1-0.6,0.3-0.6,0.6c0,0,0,0,0,0.1c0,0,0-0.1,0-0.1c0.1-0.6,0.8-0.8,0.8-0.8s2.6-0.6,3.5-0.9
			c0.6-0.2,1-0.5,1.1-1l-0.1,0.5c0,0,0,0.1,0,0.1c0,0,0,0,0,0c-0.2,0.3-0.8,0.6-1,0.6C75.3,43.1,72.5,43.9,72,43.9z"/>
		<path class="st51" d="M71.2,52.4H71c1.1-1.8,2.2-2.5,3-2.9c0.8-0.3,0.9-1.2,0.9-1.3c0,0.1,0,0.1,0,0.2c0,0.5-0.4,1-0.4,1
			C72.1,50.7,71.2,52.4,71.2,52.4z"/>
		<path class="st51" d="M76.6,47.7c0.7,1.3,2.2,2,2.8,2.1v0.3c-0.9-0.3-1.6-0.7-2-1.1c0,0,0,0-0.1-0.1c0,0,0,0,0,0
			c-0.1-0.1-0.1-0.1-0.2-0.2c0,0,0,0,0,0c0,0,0,0,0,0c-0.4-0.5-0.5-0.9-0.5-0.9L76.6,47.7C76.5,47.8,76.5,47.7,76.6,47.7L76.6,47.7z
			"/>
	</g>
	<g>
		<path class="st51" d="M111.2,34.9v0.4c0.7,0.3,1.2,1.3,1.2,1.3l0,0.1l0,0C112.4,36.7,112.6,35.9,111.2,34.9z"/>
		<g>
			<path class="st50" d="M109.2,30.3c0,0-1.6,1.1-1.9,2.1c0,0-0.1,1.4-0.4,1.5v-1.4C107,32.5,107.9,30.5,109.2,30.3z"/>
			<path class="st50" d="M106.7,39.7c0,0-0.6,0.3-0.7,1.2c-0.1,0.9-1.3,0.9-1.3,0.9l-3.2,0.8c0,0-1,0.2-1,0.8c0,0,0.2-0.7,1-0.7
				s4.3-0.7,4.6-1.1C106.3,41,106,40.6,106.7,39.7z"/>
			<path class="st50" d="M103.6,48.3c0,0-0.3,0.5-0.7,0.7c-0.4,0.2-2.4,1.7-2.8,3c0,0,2.4-2.4,2.5-2.5
				C102.8,49.3,103.6,48.8,103.6,48.3z"/>
			<path class="st51" d="M107.9,33.2L107.9,33.2L107.9,33.2c0-0.1,0.8-1.2,1.5-1.3v-0.5C107.8,32.1,107.9,33.2,107.9,33.2z"/>
			<path class="st51" d="M106.6,42.9v-1.3c0,0-0.1,0.7-0.7,0.9c-0.6,0.2-3.4,0.7-3.4,0.7s-1.2,0.1-1.2,1c0,0.1,0,0.2,0.1,0.3
				c-0.1-0.1-0.1-0.2-0.1-0.3c0.1-0.2,0.6-0.6,1.1-0.6c0.4-0.1,3.3-0.7,3.4-0.7c0.2,0,0.6-0.3,0.7-0.5L106.6,42.9L106.6,42.9z"/>
			<path class="st51" d="M106.5,47.4C106.5,47.4,106.5,47.4,106.5,47.4l0,0.2c0,0,0.6,1.9,2.7,2.3v-0.3
				C109.2,49.6,107.5,49.3,106.5,47.4z"/>
			<path class="st51" d="M104.5,49.3c0,0,0.5-0.5,0.5-1c-0.1,0.4-0.4,0.7-0.8,0.8c-1.7,0.7-3.3,3.1-3.3,3.1h0.3
				C101.5,51.9,102.3,50.5,104.5,49.3z"/>
		</g>
	</g>
</g>
</svg>
