<?xml version="1.0" encoding="utf-8"?>
<!-- Generator: Adobe Illustrator 19.1.0, SVG Export Plug-In . SVG Version: 6.00 Build 0)  -->
<svg version="1.1" xmlns="http://www.w3.org/2000/svg" xmlns:xlink="http://www.w3.org/1999/xlink" x="0px" y="0px"
	 viewBox="0 0 56.3 66" style="enable-background:new 0 0 56.3 66;" xml:space="preserve">
<style type="text/css">
	.st0{fill:url(#SVGID_1_);}
	.st1{fill:url(#SVGID_2_);}
	.st2{fill:#917F74;}
	.st3{fill:#B3A7A0;}
	.st4{fill:#DBD4D1;}
	.st5{fill:url(#SVGID_3_);}
	.st6{fill:#50433E;}
	.st7{opacity:0.5;fill:#A7A9AC;}
	.st8{fill:url(#SVGID_4_);}
	.st9{fill:url(#SVGID_5_);}
	.st10{fill:#FC9F90;}
	.st11{fill:url(#SVGID_6_);}
	.st12{fill:#FBDD37;}
	.st13{fill:#CB8B5E;}
	.st14{fill:#FCEC88;}
	.st15{fill:#251F1B;}
	.st16{fill:#6D5C50;}
	.st17{fill:#CDC8C5;}
	.st18{fill:#92908F;}
	.st19{fill:url(#SVGID_7_);}
	.st20{fill:url(#SVGID_8_);}
	.st21{fill:url(#SVGID_9_);}
	.st22{fill:url(#SVGID_10_);}
	.st23{fill:url(#SVGID_11_);}
	.st24{fill:url(#SVGID_12_);}
	.st25{fill:url(#SVGID_13_);}
	.st26{fill:url(#SVGID_14_);}
	.st27{fill:url(#SVGID_15_);}
	.st28{fill:url(#SVGID_16_);}
	.st29{fill:url(#SVGID_17_);}
	.st30{fill:url(#SVGID_18_);}
	.st31{fill:url(#SVGID_19_);}
	.st32{fill:url(#SVGID_20_);}
	.st33{fill:url(#SVGID_21_);}
	.st34{fill:url(#SVGID_22_);}
	.st35{fill:#57493F;}
	.st36{fill:url(#SVGID_23_);}
	.st37{fill:url(#SVGID_24_);}
	.st38{fill:url(#SVGID_25_);}
	.st39{fill:url(#SVGID_26_);}
	.st40{fill:url(#SVGID_27_);}
	.st41{fill:url(#SVGID_28_);}
	.st42{fill:url(#SVGID_29_);}
	.st43{fill:url(#SVGID_30_);}
	.st44{fill:url(#SVGID_31_);}
	.st45{fill:url(#SVGID_32_);}
	.st46{fill:url(#SVGID_33_);}
	.st47{fill:url(#SVGID_34_);}
	.st48{fill:url(#SVGID_35_);}
	.st49{fill:#F6735D;}
	.st50{fill:#72130E;}
	.st51{fill:url(#SVGID_36_);}
	.st52{fill:url(#SVGID_37_);}
	.st53{fill:url(#SVGID_38_);}
	.st54{fill:url(#SVGID_39_);}
	.st55{fill:url(#SVGID_40_);}
	.st56{fill:url(#SVGID_41_);}
	.st57{fill:url(#SVGID_42_);}
	.st58{fill:url(#SVGID_43_);}
	.st59{fill:url(#SVGID_44_);}
	.st60{fill:url(#SVGID_45_);}
	.st61{fill:url(#SVGID_46_);}
	.st62{fill:url(#SVGID_47_);}
	.st63{fill:url(#SVGID_48_);}
	.st64{fill:url(#SVGID_49_);}
	.st65{fill:url(#SVGID_50_);}
	.st66{fill:url(#SVGID_51_);}
	.st67{fill:url(#SVGID_52_);}
	.st68{fill:url(#SVGID_53_);}
	.st69{fill:url(#SVGID_54_);}
	.st70{fill:url(#SVGID_55_);}
	.st71{fill:url(#SVGID_56_);}
	.st72{fill:url(#SVGID_57_);}
	.st73{fill:url(#SVGID_58_);}
	.st74{fill:url(#SVGID_59_);}
	.st75{fill:url(#SVGID_60_);}
	.st76{fill:url(#SVGID_61_);}
	.st77{fill:url(#SVGID_62_);}
	.st78{fill:url(#SVGID_63_);}
	.st79{fill:url(#SVGID_64_);}
	.st80{fill:url(#SVGID_65_);}
	.st81{fill:url(#SVGID_66_);}
	.st82{fill:url(#SVGID_67_);}
	.st83{fill:url(#SVGID_68_);}
	.st84{fill:url(#SVGID_69_);}
	.st85{fill:url(#SVGID_70_);}
	.st86{fill:url(#SVGID_71_);}
	.st87{fill:url(#SVGID_72_);}
	.st88{fill:url(#SVGID_73_);}
	.st89{fill:url(#SVGID_74_);}
	.st90{fill:url(#SVGID_75_);}
	.st91{fill:url(#SVGID_76_);}
	.st92{fill:url(#SVGID_77_);}
	.st93{fill:url(#SVGID_78_);}
	.st94{fill:url(#SVGID_79_);}
	.st95{fill:url(#SVGID_80_);}
	.st96{fill:url(#SVGID_81_);}
	.st97{fill:url(#SVGID_82_);}
	.st98{fill:url(#SVGID_83_);}
	.st99{fill:url(#SVGID_84_);}
</style>
<g id="Orig">
</g>
<g id="Layer_1">
	<rect x="0" y="54.4" class="st35" width="41.1" height="1.5"/>
	<rect x="0" y="59.4" class="st15" width="29.8" height="2.2"/>
	<path class="st2" d="M8.6,53.7L0,54.7c16.4,0,32.2,0,41.1,0v-1L8.6,53.7z"/>
	<polygon class="st6" points="0,52.2 0,54.5 41.1,54.5 41.1,52.2 	"/>
	
		<radialGradient id="SVGID_1_" cx="-7.011" cy="59.6688" r="6.1493" gradientTransform="matrix(0.9936 0 0 1 21.9109 0)" gradientUnits="userSpaceOnUse">
		<stop  offset="1.419005e-02" style="stop-color:#3A312C"/>
		<stop  offset="0.5693" style="stop-color:#382F2A"/>
		<stop  offset="0.8222" style="stop-color:#312924"/>
		<stop  offset="1" style="stop-color:#251F1B"/>
	</radialGradient>
	<path class="st0" d="M8.8,58.8c-0.1,0.3-0.1,0.7-0.1,1c0,3.4,2.7,6.2,6.1,6.2c3.4,0,6.1-2.8,6.1-6.2c0-0.3,0-0.7-0.1-1H8.8z"/>
	
		<radialGradient id="SVGID_2_" cx="-7.1544" cy="59.8229" r="2.8893" gradientTransform="matrix(0.9936 0 0 1 21.9109 0)" gradientUnits="userSpaceOnUse">
		<stop  offset="0" style="stop-color:#8B8888"/>
		<stop  offset="0.4823" style="stop-color:#8A8686"/>
		<stop  offset="0.7022" style="stop-color:#87817E"/>
		<stop  offset="0.8684" style="stop-color:#817772"/>
		<stop  offset="1" style="stop-color:#796A61"/>
	</radialGradient>
	<path class="st1" d="M12.1,58.8c-0.1,0.3-0.2,0.6-0.2,1c0,1.6,1.3,2.9,2.9,2.9c1.6,0,2.9-1.3,2.9-2.9c0-0.3-0.1-0.7-0.2-1H12.1z"/>
	<rect x="8.2" y="59.6" class="st15" width="13" height="1"/>
	<path class="st4" d="M16.2,60.3c0,0-0.1,0.6-0.6,0.7c-0.5,0.1-0.3,0.4-0.1,0.4s0.6-0.1,0.8-0.5C16.4,60.7,16.5,60.2,16.2,60.3z"/>
	<path class="st6" d="M12,59.6c0,0.1,0,0.2,0,0.3c0,0.2,0,0.5,0.1,0.7h5.6c0.1-0.2,0.1-0.5,0.1-0.7c0-0.1,0-0.2,0-0.3H12z"/>
	<g>
		<linearGradient id="SVGID_3_" gradientUnits="userSpaceOnUse" x1="8.5361" y1="32.0637" x2="8.5361" y2="48.5464">
			<stop  offset="0" style="stop-color:#FCEC88"/>
			<stop  offset="6.922646e-03" style="stop-color:#FCEC87"/>
			<stop  offset="0.2213" style="stop-color:#FCE564"/>
			<stop  offset="0.424" style="stop-color:#FBE14B"/>
			<stop  offset="0.6087" style="stop-color:#FBDE3C"/>
			<stop  offset="0.7591" style="stop-color:#FBDD37"/>
		</linearGradient>
		<path class="st5" d="M7.8,33.5L7.8,47.3c0.7,0.9,1.4,1.2,1.6,1.2l0-16.5C8.3,32.5,7.8,33.5,7.8,33.5z"/>
		<linearGradient id="SVGID_4_" gradientUnits="userSpaceOnUse" x1="5.3014" y1="42.3655" x2="5.3014" y2="52.3598">
			<stop  offset="0" style="stop-color:#FCEC88"/>
			<stop  offset="6.922646e-03" style="stop-color:#FCEC87"/>
			<stop  offset="0.2213" style="stop-color:#FCE564"/>
			<stop  offset="0.424" style="stop-color:#FBE14B"/>
			<stop  offset="0.6087" style="stop-color:#FBDE3C"/>
			<stop  offset="0.7591" style="stop-color:#FBDD37"/>
		</linearGradient>
		<path class="st8" d="M9.3,50.1c-2.3-0.6-2.8-2.3-2.8-2.3l0.1-5.4c0,0.3-0.8,0.7-1.1,0.7c-0.3,0-3,0.7-3.5,0.8
			c-0.5,0.1-0.7,0.5-0.6,0.9c0.1,0.4,1.4,1.1,2.4,1.8C4.9,47.4,5,47.9,5,48.4c0,0.5-0.4,1-0.4,1c-2.2,1.2-3.2,2.7-3.3,2.9l8,0
			L9.3,50.1z"/>
		<linearGradient id="SVGID_5_" gradientUnits="userSpaceOnUse" x1="14.9307" y1="42.2795" x2="14.9307" y2="52.2762">
			<stop  offset="0" style="stop-color:#FCEC88"/>
			<stop  offset="6.922646e-03" style="stop-color:#FCEC87"/>
			<stop  offset="0.2213" style="stop-color:#FCE564"/>
			<stop  offset="0.424" style="stop-color:#FBE14B"/>
			<stop  offset="0.6087" style="stop-color:#FBDE3C"/>
			<stop  offset="0.7591" style="stop-color:#FBDD37"/>
		</linearGradient>
		<path class="st9" d="M11,50l0,2.3l7.8,0c-0.2-0.3-1.1-1.8-3.3-2.9c0,0-0.4-0.5-0.4-1c0-0.5,0.1-1,1.2-1.8c1.1-0.7,2.4-1.4,2.4-1.8
			c0.1-0.4-0.1-0.8-0.6-0.9c-0.5-0.1-3.2-0.8-3.5-0.8c-0.3,0-1.1-0.5-1.1-0.7l0.1,5.4C13.6,47.7,13.1,49.3,11,50z"/>
		<linearGradient id="SVGID_6_" gradientUnits="userSpaceOnUse" x1="11.6912" y1="32.0642" x2="11.6912" y2="48.3659">
			<stop  offset="0" style="stop-color:#FCEC88"/>
			<stop  offset="6.922646e-03" style="stop-color:#FCEC87"/>
			<stop  offset="0.2213" style="stop-color:#FCE564"/>
			<stop  offset="0.424" style="stop-color:#FBE14B"/>
			<stop  offset="0.6087" style="stop-color:#FBDE3C"/>
			<stop  offset="0.7591" style="stop-color:#FBDD37"/>
		</linearGradient>
		<path class="st11" d="M11,48.4c0.3-0.1,0.9-0.5,1.3-1.1l-0.1-13.8c0,0-0.4-0.9-1.3-1.3L11,48.4z"/>
		<linearGradient id="SVGID_7_" gradientUnits="userSpaceOnUse" x1="17.2984" y1="46.507" x2="17.2984" y2="47.4284">
			<stop  offset="0" style="stop-color:#FCEC88"/>
			<stop  offset="6.922646e-03" style="stop-color:#FCEC87"/>
			<stop  offset="0.2213" style="stop-color:#FCE564"/>
			<stop  offset="0.424" style="stop-color:#FBE14B"/>
			<stop  offset="0.6087" style="stop-color:#FBDE3C"/>
			<stop  offset="0.7591" style="stop-color:#FBDD37"/>
		</linearGradient>
		<path class="st19" d="M17.1,47c0,0-0.2,0.2-0.4,0.4l1.3-0.9C17.5,46.8,17.1,47,17.1,47z"/>
	</g>
	<g>
		<linearGradient id="SVGID_8_" gradientUnits="userSpaceOnUse" x1="35.2098" y1="42.2508" x2="35.2098" y2="52.2403">
			<stop  offset="0" style="stop-color:#FCEC88"/>
			<stop  offset="6.922646e-03" style="stop-color:#FCEC87"/>
			<stop  offset="0.2213" style="stop-color:#FCE564"/>
			<stop  offset="0.424" style="stop-color:#FBE14B"/>
			<stop  offset="0.6087" style="stop-color:#FBDE3C"/>
			<stop  offset="0.7591" style="stop-color:#FBDD37"/>
		</linearGradient>
		<path class="st20" d="M39.2,50c-2.2-0.4-2.8-2.4-2.8-2.4l0.1-5.3c-0.1,0.2-0.6,0.5-0.7,0.5c-0.2,0-3,0.7-3.4,0.7
			c-0.4,0.1-1,0.4-1.1,0.6c-0.1,0.2,0.1,0.4,0.3,0.7c0.1,0.3,2.3,1.7,2.8,2.2s0.5,0.8,0.6,1.3s-0.5,1-0.5,1c-2.2,1.2-3,2.6-3.2,3
			l8,0L39.2,50z"/>
		<linearGradient id="SVGID_9_" gradientUnits="userSpaceOnUse" x1="41.689" y1="34.7744" x2="41.689" y2="51.6153">
			<stop  offset="0" style="stop-color:#FCEC88"/>
			<stop  offset="6.922646e-03" style="stop-color:#FCEC87"/>
			<stop  offset="0.2213" style="stop-color:#FCE564"/>
			<stop  offset="0.424" style="stop-color:#FBE14B"/>
			<stop  offset="0.6087" style="stop-color:#FBDE3C"/>
			<stop  offset="0.7591" style="stop-color:#FBDD37"/>
		</linearGradient>
		<path class="st21" d="M42.2,50.4l0.1-13.8c0,0-0.5-1.1-1.2-1.3l0-0.5l-0.1,16.8C41.2,51.6,41.6,51.3,42.2,50.4z"/>
		<linearGradient id="SVGID_10_" gradientUnits="userSpaceOnUse" x1="38.4566" y1="30.7463" x2="38.4566" y2="48.4675">
			<stop  offset="0" style="stop-color:#FCEC88"/>
			<stop  offset="6.922646e-03" style="stop-color:#FCEC87"/>
			<stop  offset="0.2213" style="stop-color:#FCE564"/>
			<stop  offset="0.424" style="stop-color:#FBE14B"/>
			<stop  offset="0.6087" style="stop-color:#FBDE3C"/>
			<stop  offset="0.7591" style="stop-color:#FBDD37"/>
		</linearGradient>
		<path class="st22" d="M39.3,30.7L39.3,30.7l0,1.2c-0.7,0.1-1.5,1.2-1.5,1.2l-0.2,13.9c0.1,0.3,1.4,1.2,1.6,1.4L39.3,30.7z"/>
	</g>
	<g>
		<path class="st49" d="M11.1,30.5c0,0,1.5,0.7,2.3,2.4v2.4c0,0-0.1,0.1-0.1-0.2s0-1.1-0.1-1.4c-0.1-0.4,0-0.6-0.2-0.9
			c-0.3-0.5-1-1.4-1.5-1.8C11.2,30.7,10.6,30.3,11.1,30.5z"/>
		<path class="st49" d="M13.4,39.9c0,0,0.5,0.1,0.7,1.1c0.2,0.9,0.9,0.9,1.2,1c0.3,0.1,3.1,0.8,3.3,0.9c0.2,0.1,1,0.4,1,1
			c0,0-0.1-0.5-0.9-0.8c-0.4-0.1-3.2-0.9-3.4-1c-0.2-0.1-1.1-0.3-1.2-0.8C14,40.6,13.7,40,13.4,39.9z"/>
		<path class="st49" d="M16.3,48.2c0,0,0.2,0.4,0.5,0.6c0.3,0.2,2.5,1.7,3,3.2c0,0-0.5-0.4-0.8-0.8c-0.3-0.4-1-1.3-1.7-1.8
			C16.7,48.9,16.3,48.5,16.3,48.2z"/>
		<path class="st50" d="M10.7,31.7v0.3l0,0c1,0.3,1.4,1.2,1.5,1.4c0,0,0,0.1,0,0.1C12.3,32.6,11.1,31.9,10.7,31.7z"/>
		<path class="st50" d="M18.1,43.9c0.4,0.1,0.6,0.3,0.6,0.6c0,0,0,0,0,0.1c0,0,0-0.1,0-0.1c-0.1-0.6-0.8-0.8-0.8-0.8
			s-2.6-0.6-3.4-0.9c-0.6-0.2-1-0.5-1.1-1l0,0.5c0,0,0,0.1,0,0.1c0,0,0,0,0,0c0.2,0.3,0.8,0.6,1,0.6C14.8,43.1,17.6,43.8,18.1,43.9z
			"/>
		<path class="st50" d="M18.9,52.3h0.3c-1.1-1.8-2.2-2.5-3-2.9c-0.8-0.3-0.9-1.2-0.9-1.3c0,0.1,0,0.1,0,0.2c0,0.5,0.4,1,0.4,1
			C18,50.6,18.9,52.3,18.9,52.3z"/>
		<path class="st50" d="M13.6,47.6c-0.7,1.3-2.2,2-2.8,2.1V50c0.9-0.3,1.5-0.7,2-1.1c0,0,0,0,0.1-0.1c0,0,0,0,0,0
			c0.1-0.1,0.1-0.1,0.2-0.2c0,0,0,0,0,0c0,0,0,0,0,0c0.4-0.5,0.5-0.9,0.5-0.9L13.6,47.6C13.6,47.7,13.6,47.7,13.6,47.6L13.6,47.6z"
			/>
		<path class="st49" d="M9,30.5c0,0-1.5,0.7-2.3,2.4v2.4c0,0,0.1,0.1,0.1-0.2c0-0.3,0-1.1,0.1-1.4c0.1-0.4,0-0.6,0.2-0.9
			c0.3-0.5,1-1.4,1.5-1.8C8.9,30.8,9.5,30.4,9,30.5z"/>
		<path class="st49" d="M6.7,39.9c0,0-0.5,0.1-0.7,1.1c-0.2,0.9-0.9,0.9-1.2,1s-3.1,0.8-3.3,0.9s-1,0.4-1,1c0,0,0.1-0.5,0.9-0.8
			c0.4-0.1,3.2-0.9,3.4-1s1.1-0.3,1.2-0.8C6.2,40.7,6.4,40.1,6.7,39.9z"/>
		<path class="st49" d="M3.8,48.3c0,0-0.2,0.4-0.5,0.6c-0.3,0.2-2.5,1.7-3,3.2c0,0,0.5-0.4,0.8-0.8s1-1.3,1.7-1.8S3.8,48.6,3.8,48.3
			z"/>
		<path class="st50" d="M9.4,31.8V32l0,0c-1,0.3-1.4,1.2-1.5,1.4c0,0,0,0.1,0,0.1C7.9,32.7,9,32,9.4,31.8z"/>
		<path class="st50" d="M2,43.9c-0.4,0.1-0.6,0.3-0.6,0.6c0,0,0,0,0,0.1c0,0,0-0.1,0-0.1c0.1-0.6,0.8-0.8,0.8-0.8s2.6-0.6,3.4-0.9
			c0.6-0.2,1-0.5,1.1-1l0,0.5c0,0,0,0.1,0,0.1c0,0,0,0,0,0c-0.2,0.3-0.8,0.6-1,0.6C5.3,43.1,2.6,43.9,2,43.9z"/>
		<path class="st50" d="M1.3,52.4H1c1.1-1.8,2.2-2.5,3-2.9C4.8,49.2,5,48.3,5,48.2c0,0.1,0,0.1,0,0.2c0,0.5-0.4,1-0.4,1
			C2.1,50.7,1.3,52.4,1.3,52.4z"/>
		<path class="st50" d="M6.6,47.7c0.7,1.3,2.2,2,2.8,2.1v0.3c-0.9-0.3-1.5-0.7-2-1.1c0,0,0,0-0.1-0.1c0,0,0,0,0,0
			c-0.1-0.1-0.1-0.1-0.2-0.2c0,0,0,0,0,0c0,0,0,0,0,0c-0.4-0.5-0.5-0.9-0.5-0.9L6.6,47.7C6.5,47.8,6.5,47.7,6.6,47.7L6.6,47.7z"/>
	</g>
	<g>
		<path class="st50" d="M41.1,34.9v0.4c0.7,0.3,1.2,1.3,1.2,1.3l0,0.1l0,0C42.3,36.7,42.5,35.9,41.1,34.9z"/>
		<g>
			<path class="st49" d="M39.1,30.3c0,0-1.6,1.1-1.9,2.1c0,0-0.1,1.4-0.4,1.5v-1.4C36.9,32.5,37.8,30.5,39.1,30.3z"/>
			<path class="st49" d="M36.6,39.7c0,0-0.6,0.3-0.7,1.2c-0.1,0.9-1.3,0.9-1.3,0.9l-3.2,0.8c0,0-1,0.2-1,0.8c0,0,0.2-0.7,1-0.7
				c0.8,0,4.3-0.7,4.6-1.1C36.2,41,35.9,40.6,36.6,39.7z"/>
			<path class="st49" d="M33.5,48.3c0,0-0.3,0.5-0.7,0.7s-2.3,1.7-2.8,3c0,0,2.4-2.4,2.5-2.5C32.7,49.3,33.5,48.8,33.5,48.3z"/>
			<path class="st50" d="M37.8,33.2L37.8,33.2L37.8,33.2c0-0.1,0.8-1.2,1.5-1.3v-0.5C37.7,32.1,37.8,33.2,37.8,33.2z"/>
			<path class="st50" d="M36.5,42.9v-1.3c0,0-0.1,0.7-0.7,0.9c-0.6,0.2-3.4,0.7-3.4,0.7s-1.2,0.1-1.2,1c0,0.1,0,0.2,0.1,0.3
				c-0.1-0.1-0.1-0.2-0.1-0.3c0.1-0.2,0.6-0.6,1.1-0.6c0.4-0.1,3.2-0.7,3.4-0.7c0.2,0,0.6-0.3,0.7-0.5L36.5,42.9L36.5,42.9z"/>
			<path class="st50" d="M36.4,47.4C36.4,47.4,36.4,47.4,36.4,47.4l0,0.2c0,0,0.6,1.9,2.7,2.3v-0.3C39.1,49.6,37.4,49.3,36.4,47.4z"
				/>
			<path class="st50" d="M34.4,49.3c0,0,0.5-0.5,0.5-1c-0.1,0.4-0.4,0.7-0.8,0.8c-1.7,0.7-3.3,3.1-3.3,3.1h0.3
				C31.4,51.9,32.2,50.5,34.4,49.3z"/>
		</g>
	</g>
	<rect x="0" y="54.8" class="st35" width="41.1" height="4.7"/>
	<linearGradient id="SVGID_11_" gradientUnits="userSpaceOnUse" x1="21.6435" y1="14.3367" x2="21.6435" y2="54.3739">
		<stop  offset="0" style="stop-color:#AD2412"/>
		<stop  offset="0.2277" style="stop-color:#C62B13"/>
		<stop  offset="0.5159" style="stop-color:#DE3215"/>
		<stop  offset="0.7813" style="stop-color:#ED3616"/>
		<stop  offset="1" style="stop-color:#F23716"/>
	</linearGradient>
	<path class="st23" d="M41.1,33.8l0.1-19.4H9.3v4.2l0,11.7h0c0,0-1.7,0.8-2.6,2.6v6.9c0,0-0.7,0.7-0.7,1.1c-0.1,0.4-0.1,0.8-1.1,1.1
		c-1,0.2-3.3,0.8-3.6,0.9c-0.3,0.1-1.1,0.6-1.1,1.7c0.1,1,0.4,1.2,0.9,1.5c0.5,0.3,1.9,1.2,1.9,1.2s0.6,0.4,0.6,0.9
		c0,0.5-0.3,0.9-0.7,1.1c-0.4,0.2-2.2,1.8-2.9,3.2v2l41.1,0.1l0-1.5c1.5-0.2,2-1.8,2-1.8l0.2-15.4C42.5,34.3,41.3,33.8,41.1,33.8z
		 M7.8,33.5c0,0,0.4-1,1.5-1.4l0,16.5c-0.2-0.1-0.9-0.4-1.6-1.2L7.8,33.5z M1.3,52.4c0.1-0.3,1.1-1.8,3.3-2.9c0,0,0.4-0.5,0.4-1
		c0-0.5-0.1-1-1.2-1.8c-1.1-0.7-2.4-1.4-2.4-1.8C1.3,44.4,1.5,44,2,43.9c0.5-0.1,3.2-0.8,3.5-0.8s1.1-0.5,1.1-0.7l-0.1,5.4
		c0,0,0.5,1.7,2.8,2.3l0,2.2L1.3,52.4z M11,32.1c0.9,0.4,1.3,1.3,1.3,1.3l0.1,13.8c-0.5,0.6-1,1-1.3,1.1L11,32.1z M11,52.3l0-2.3
		c2.1-0.7,2.6-2.2,2.6-2.2l-0.1-5.4c0,0.3,0.8,0.7,1.1,0.7c0.3,0,3,0.7,3.5,0.8c0.5,0.1,0.7,0.5,0.6,0.9c-0.1,0.4-1.4,1.1-2.4,1.8
		c-1.1,0.7-1.2,1.3-1.2,1.8c0,0.5,0.4,1,0.4,1c2.2,1.2,3.1,2.6,3.3,2.9L11,52.3z M39.2,52.2l-8,0c0.2-0.3,1-1.8,3.2-3
		c0,0,0.6-0.6,0.5-1c0-0.4,0-0.8-0.6-1.3s-2.7-1.9-2.8-2.2c-0.1-0.3-0.3-0.5-0.3-0.7c0.1-0.2,0.6-0.6,1.1-0.6
		c0.4-0.1,3.2-0.7,3.4-0.7c0.2,0,0.6-0.3,0.7-0.5l-0.1,5.3c0,0,0.6,2,2.8,2.4L39.2,52.2z M39.2,48.5c-0.3-0.2-1.6-1.1-1.6-1.4
		l0.2-13.9c0,0,0.7-1.1,1.5-1.2l0,0L39.2,48.5z M39.3,30L39.3,30c0,0-1.9,0.7-2.6,2.6l-0.1,6.8c0,0-0.6,0.5-0.6,1.1
		c0,0.5-0.3,0.8-0.8,0.9c-0.5,0.1-3.9,1-3.9,1s-1.1,0.6-1.1,1.3c0,0.8,0.3,1.5,1.1,2c0.7,0.4,2.2,1.4,2.2,1.4s0.3,0.3,0.3,0.7
		c0,0.5-0.5,0.8-0.7,0.9c-0.2,0.1-2.3,1.5-3.1,3.4l-9.7,0c-0.7-1.4-2.5-3-2.9-3.2c-0.4-0.2-0.7-0.6-0.7-1.1s0.6-0.9,0.6-0.9
		s1.4-0.8,1.9-1.2c0.5-0.3,0.9-0.5,0.9-1.5c0.1-1-0.8-1.6-1.1-1.7c-0.3-0.1-2.6-0.7-3.6-0.9c-1-0.2-1-0.6-1.1-1.1
		c-0.1-0.4-0.7-1.1-0.7-1.1v-6.9c-0.7-1.4-2-2.3-2.4-2.5l0-14.5l28.4,0L39.3,30z M42.2,50.4c-0.6,0.9-1,1.1-1.1,1.2l0.1-16.8l0,0.5
		c0.7,0.3,1.2,1.3,1.2,1.3L42.2,50.4z"/>
</g>
</svg>
