<?xml version="1.0" encoding="utf-8"?>
<!-- Generator: Adobe Illustrator 16.0.3, SVG Export Plug-In . SVG Version: 6.00 Build 0)  -->
<!DOCTYPE svg PUBLIC "-//W3C//DTD SVG 1.1//EN" "http://www.w3.org/Graphics/SVG/1.1/DTD/svg11.dtd">
<svg version="1.1" id="Layer_1" xmlns="http://www.w3.org/2000/svg" xmlns:xlink="http://www.w3.org/1999/xlink" x="0px" y="0px"
	 width="45.544px" height="36.688px" viewBox="0 0 45.544 36.688" enable-background="new 0 0 45.544 36.688" xml:space="preserve">
<g>
	<path fill="#FFFFFF" d="M18.89,19.518c-1.433,0-2.735,1.615-4.273,1.615c-1.823,0-3.022-1.303-3.022-3.36
		c0-2.398,1.383-3.727,3.335-3.727c1.694,0,2.814,1.016,3.805,1.016c0.573,0,1.095-0.365,1.667-1.458
		c0.287-0.548,0.443-0.991,0.443-1.46c0-1.016-0.721-1.625-2.318-2.243c-1.045-0.404-2.788-0.34-3.388-0.34h-0.547
		c-4.013,0-8,2.659-8.625,7.115c-0.104,0.703-0.156,1.148-0.156,1.798c0,5.499,3.491,8.717,8.729,8.717
		c4.091,0,7.244-2.195,7.244-4.331C21.783,21.348,20.038,19.518,18.89,19.518z"/>
	<path fill="#FFFFFF" d="M36.842,19.518c-1.433,0-2.736,1.615-4.273,1.615c-1.823,0-3.021-1.303-3.021-3.36
		c0-2.398,1.381-3.727,3.335-3.727c1.692,0,2.813,1.016,3.804,1.016c0.573,0,1.094-0.365,1.668-1.458
		c0.285-0.548,0.442-0.991,0.442-1.46c0-1.016-0.679-1.747-2.319-2.243c-1.027-0.311-2.787-0.34-3.387-0.34h-0.547
		c-4.013,0-8,2.659-8.626,7.115c-0.103,0.703-0.156,1.148-0.156,1.798c0,5.499,3.491,8.717,8.729,8.717
		c4.092,0,7.244-2.195,7.244-4.331C39.735,21.348,37.989,19.518,36.842,19.518z"/>
</g>
</svg>
