<?xml version="1.0" encoding="utf-8"?>
<!-- Generator: Adobe Illustrator 16.0.3, SVG Export Plug-In . SVG Version: 6.00 Build 0)  -->
<!DOCTYPE svg PUBLIC "-//W3C//DTD SVG 1.1//EN" "http://www.w3.org/Graphics/SVG/1.1/DTD/svg11.dtd">
<svg version="1.1" id="Layer_1" xmlns="http://www.w3.org/2000/svg" xmlns:xlink="http://www.w3.org/1999/xlink" x="0px" y="0px"
	 width="45.543px" height="36.688px" viewBox="0 0 45.543 36.688" enable-background="new 0 0 45.543 36.688" xml:space="preserve">
<g>
	<path fill="#FFFFFF" d="M43.019,20.711c-1.149-1.131-3.039-2.629-3.039-3.532c0-0.76,1.498-2.546,2.278-4.416
		c0.164-0.39,0.228-0.739,0.228-1.047c0-1.027-1.049-1.951-2.465-1.951c-0.903,0-0.86,0.667-1.374,2.042
		c-0.432,1.149-0.781,2.702-1.706,2.702c-1.562,0-2.67-4.312-4.56-4.312c-0.883,0-2.137,1.19-2.137,2.033
		c0,0.432,0.227,0.903,0.698,1.479c1.294,1.562,3.368,3.082,3.368,3.615c0,1.067-3.471,4.147-3.471,5.771
		c0,0.822,1.396,2.075,2.647,2.075c0.74,0,1.191-0.576,1.808-1.932c0.391-0.884,1.231-3.285,2.115-3.285
		c0.885,0,1.746,2.383,2.383,3.306c0.801,1.171,1.396,1.786,2.055,1.786c0.902,0,2.424-1.562,2.424-2.34
		C44.273,22.127,43.861,21.553,43.019,20.711z"/>
	<path fill="#FFFFFF" d="M21.397,5.225c-2.267,0-4.686,2.197-5.667,3c-1.833,1.5-4.583,3.75-5.417,3.917
		c-1.215,0.243-6.272-0.114-7.658,1c-1.995,1.606-1.69,6.799,0,8.916c1.362,1.707,6.366,0.703,7.408,1
		c0.583,0.168,4.632,4.197,5.667,5c1.207,0.938,3.672,2.89,5.667,2.668c3-0.334,3.25-4.834,3.417-12.668
		C24.98,10.225,24.898,5.225,21.397,5.225z"/>
</g>
</svg>
