<?xml version="1.0" encoding="utf-8"?>
<!-- Generator: Adobe Illustrator 16.0.3, SVG Export Plug-In . SVG Version: 6.00 Build 0)  -->
<!DOCTYPE svg PUBLIC "-//W3C//DTD SVG 1.1//EN" "http://www.w3.org/Graphics/SVG/1.1/DTD/svg11.dtd">
<svg version="1.1" id="Layer_1" xmlns="http://www.w3.org/2000/svg" xmlns:xlink="http://www.w3.org/1999/xlink" x="0px" y="0px"
	 width="45.544px" height="36.688px" viewBox="0 0 45.544 36.688" enable-background="new 0 0 45.544 36.688" xml:space="preserve">
<g>
	<path fill="#FFFFFF" d="M20.328,5.091c-0.129-2.33-3.17-4.077-6.017-4.077c-2.072,0-4.789,1.229-4.789,4.336
		c0,1.618,0.872,9.359,0.872,17.707c0,3.301-0.161,6.367-0.161,7.855c0,3.299,2.33,4.658,4.854,4.658
		c2.653,0,5.436-1.553,5.436-3.947c0-1.488-0.379-4.057-0.379-10.398C20.144,13.588,20.328,6.32,20.328,5.091z"/>
	<path fill="#FFFFFF" d="M35.828,5.091c-0.129-2.33-3.17-4.077-6.018-4.077c-2.071,0-4.789,1.229-4.789,4.336
		c0,1.618,0.789,12.192,0.789,20.541c0,3.301-0.076,3.533-0.076,5.021c0,3.299,2.328,4.658,4.852,4.658
		c2.654,0,5.438-1.553,5.438-3.947c0-1.488-0.379-3.391-0.379-9.732C35.644,14.254,35.828,6.32,35.828,5.091z"/>
</g>
</svg>
