<?xml version="1.0" encoding="utf-8"?>
<!-- Generator: Adobe Illustrator 16.0.3, SVG Export Plug-In . SVG Version: 6.00 Build 0)  -->
<!DOCTYPE svg PUBLIC "-//W3C//DTD SVG 1.1//EN" "http://www.w3.org/Graphics/SVG/1.1/DTD/svg11.dtd">
<svg version="1.1" id="Layer_1" xmlns="http://www.w3.org/2000/svg" xmlns:xlink="http://www.w3.org/1999/xlink" x="0px" y="0px"
	 width="45.544px" height="36.688px" viewBox="0 0 45.544 36.688" enable-background="new 0 0 45.544 36.688" xml:space="preserve">
<path fill="#FFFFFF" d="M32.227,14.076C31.678,13.558,18.739,1.377,15.38,0.219C14.958,0.074,14.533,0,14.117,0
	c-1.674,0-2.998,1.183-3.373,3.013c-0.258,1.256-0.086,3.49,0.112,6.079c0.146,1.908,0.312,7.07,0.333,9.176
	c0.048,4.82-0.671,12.264-0.781,13.352c-0.14,1.367-0.056,2.453,0.257,3.32c0.519,1.445,1.561,1.748,2.344,1.748
	c0.666,0,1.427-0.215,2.257-0.641c2.041-1.044,17.653-12.383,18.648-13.398c1.015-1.037,1.471-2.543,1.222-4.029
	C34.82,16.74,32.263,14.112,32.227,14.076z"/>
</svg>
