<?xml version="1.0" encoding="utf-8"?>
<!-- Generator: Adobe Illustrator 16.0.3, SVG Export Plug-In . SVG Version: 6.00 Build 0)  -->
<!DOCTYPE svg PUBLIC "-//W3C//DTD SVG 1.1//EN" "http://www.w3.org/Graphics/SVG/1.1/DTD/svg11.dtd">
<svg version="1.1" id="Layer_1" xmlns="http://www.w3.org/2000/svg" xmlns:xlink="http://www.w3.org/1999/xlink" x="0px" y="0px"
	 width="45.544px" height="36.688px" viewBox="0 0 45.544 36.688" enable-background="new 0 0 45.544 36.688" xml:space="preserve">
<g>
	<path fill="#FFFFFF" d="M20.126,6.383c-2.268,0-4.686,2.197-5.668,3c-1.832,1.5-4.582,3.75-5.416,3.917
		c-1.215,0.243-6.272-0.114-7.658,1c-1.994,1.606-1.689,6.799,0,8.917c1.362,1.707,6.367,0.703,7.408,1
		c0.584,0.168,4.633,4.197,5.666,5c1.207,0.938,3.672,2.889,5.668,2.668c3-0.334,3.25-4.834,3.416-12.668
		C23.708,11.383,23.626,6.383,20.126,6.383z"/>
	<path fill="#FFFFFF" d="M42.07,7.642c-0.882-1.546-2.314-2.626-3.487-2.626c-0.564,0-1.027,0.262-1.27,0.719
		c-0.467,0.881,0.079,2.856,1.268,4.243c3.965,4.628,3.432,13.655,1.761,16.309c-1.118,1.776-1.452,2.94-1.054,3.661
		c0.197,0.357,0.559,0.563,0.993,0.563c0.584,0,1.53-0.152,1.986-0.795c5.882-8.297,2.568-16.993-0.077-21.856L42.07,7.642z
		 M40.281,29.86L40.281,29.86L40.281,29.86L40.281,29.86z"/>
	<path fill="#FFFFFF" d="M36.211,11.38l-0.088-0.16c-0.667-1.17-1.766-1.986-2.673-1.986c-0.477,0-0.868,0.224-1.076,0.615
		c-0.372,0.699-0.069,1.779,0.923,3.247c1.655,2.442,3.744,5.954,1.268,11.564c-0.641,1.451-1.088,2.241-0.766,2.824
		c0.176,0.317,0.474,0.392,0.875,0.5c0.971,0.263,1.466-0.224,1.783-0.769C41.02,19.404,38.141,14.928,36.211,11.38z"/>
	<path fill="#FFFFFF" d="M31.079,14.349c-0.523-0.916-1.362-1.507-2.139-1.507c-0.506,0-0.943,0.255-1.17,0.683
		c-0.34,0.64-0.15,1.478,0.599,2.584c0.933,1.379,2.274,4.051,0.764,6.45c-0.437,0.695-0.888,1.587-0.485,2.316
		c0.209,0.379,0.599,0.604,1.041,0.604c0.47,0,1.033-0.207,1.322-0.688c2.447-4.073,1.296-8.183,0.125-10.334L31.079,14.349z"/>
</g>
</svg>
