<?xml version="1.0" encoding="utf-8"?>
<!-- Generator: Adobe Illustrator 16.0.3, SVG Export Plug-In . SVG Version: 6.00 Build 0)  -->
<!DOCTYPE svg PUBLIC "-//W3C//DTD SVG 1.1//EN" "http://www.w3.org/Graphics/SVG/1.1/DTD/svg11.dtd">
<svg version="1.1" id="Isolation_Mode" xmlns="http://www.w3.org/2000/svg" xmlns:xlink="http://www.w3.org/1999/xlink" x="0px"
	 y="0px" width="21.833px" height="21.834px" viewBox="28.711 15.66 21.833 21.834"
	 enable-background="new 28.711 15.66 21.833 21.834" xml:space="preserve">
<circle opacity="0.15" stroke="#000000" stroke-width="3" stroke-miterlimit="10" cx="39.628" cy="26.579" r="9.417"/>
<path fill="#FFFFFF" d="M39.628,17.161c-5.2,0-9.417,4.217-9.417,9.418s4.217,9.416,9.417,9.416c5.201,0,9.417-4.215,9.417-9.416
	S44.829,17.161,39.628,17.161z M44.059,28.103c-0.324,0.328-5.381,4-6.041,4.34c-0.27,0.137-0.515,0.207-0.73,0.207
	c-0.252,0-0.592-0.098-0.76-0.566c-0.102-0.281-0.127-0.633-0.082-1.076c0.035-0.354,0.27-3.734,0.252-5.295
	c-0.006-0.682-0.059-1.383-0.107-2c-0.064-0.838-0.119-1.562-0.035-1.969c0.12-0.592,0.551-0.975,1.092-0.975
	c0.136,0,0.271,0.023,0.41,0.07c1.086,0.375,5.277,4.318,5.455,4.484c0.012,0.014,0.84,0.863,0.941,1.475
	C44.535,27.278,44.387,27.767,44.059,28.103z"/>
</svg>
