<?xml version="1.0" encoding="utf-8"?>
<!-- Generator: Adobe Illustrator 17.1.0, SVG Export Plug-In . SVG Version: 6.00 Build 0)  -->
<!DOCTYPE svg PUBLIC "-//W3C//DTD SVG 1.1//EN" "http://www.w3.org/Graphics/SVG/1.1/DTD/svg11.dtd">
<svg version="1.1" id="Layer_1" xmlns="http://www.w3.org/2000/svg" xmlns:xlink="http://www.w3.org/1999/xlink" x="0px" y="0px"
	 viewBox="0 0 517 156" enable-background="new 0 0 517 156" xml:space="preserve">
<g>
	<g>
		<g>
			<path fill="#98C93C" d="M421.6,49.1c-0.1,0.1-0.3,0.1-0.5,0.1c-0.8,0.1-1.5-0.5-1.6-1.3l-1.1-9c-0.1-0.8,0.5-1.5,1.3-1.6
				c0.8-0.1,1.5,0.5,1.6,1.3l1.1,9C422.5,48.2,422.2,48.8,421.6,49.1z"/>
		</g>
	</g>
</g>
<g>
	<g>
		<g>
			<path fill="#98C93C" d="M424.4,48.7c-0.3,0.2-0.7,0.2-1.1,0.1c-0.8-0.2-1.2-1.1-1-1.8l2.6-8.6c0.2-0.8,1.1-1.2,1.8-1
				c0.8,0.2,1.2,1.1,1,1.8l-2.6,8.6C425,48.2,424.7,48.5,424.4,48.7z"/>
		</g>
	</g>
</g>
<g>
	<g>
		<g>
			<g>
				<path fill="#FFE634" d="M377,94.6c0.7,12.2,1.5,24.4,1,36.9l21.4-1.3c-2.8-14.2-7.5-26.5-14.2-36.7L377,94.6z"/>
			</g>
		</g>
	</g>
	<g>
		<g>
			<path fill="#98C93C" d="M367,107.6c0,0-0.1,0-0.1,0c-10.4-0.8-12.5-2.1-12.6-4c-0.1-1.7,1.8-3,6.8-4.5c4-1.2,10.1-2.6,18.1-4.1
				c0.7-0.1,1.4,0.3,1.6,1.1c0.1,0.7-0.3,1.4-1.1,1.6c-16.1,3.1-20.9,4.9-22.3,5.8c1,0.4,3.4,1,9.7,1.5c0.7,0.1,1.3,0.7,1.2,1.4
				C368.2,107.1,367.7,107.6,367,107.6z"/>
		</g>
	</g>
	<g>
		<defs>
			<path id="SVGID_1_" d="M374.6,123.7l26.7-15.4l-34.1-59l-26.7,15.5L374.6,123.7z"/>
		</defs>
		<clipPath id="SVGID_2_">
			<use xlink:href="#SVGID_1_"  overflow="visible"/>
		</clipPath>
		<g clip-path="url(#SVGID_2_)">
			<g>
				<path fill="#FFFFFF" d="M367,107.6c0,0-0.1,0-0.1,0c-10.4-0.8-12.5-2.1-12.6-4c-0.1-1.7,1.8-3,6.8-4.5c4-1.2,10.1-2.6,18.1-4.1
					c0.7-0.1,1.4,0.3,1.6,1.1c0.1,0.7-0.3,1.4-1.1,1.6c-16.1,3.1-20.9,4.9-22.3,5.8c1,0.4,3.4,1,9.7,1.5c0.7,0.1,1.3,0.7,1.2,1.4
					C368.2,107.1,367.7,107.6,367,107.6z"/>
			</g>
		</g>
	</g>
	<g>
		<g>
			<path d="M378.1,139.7l2.6-0.6c-0.7-6.2-0.7-12.6-0.1-19.7l-2.7-0.2C377.3,126.5,377.4,133.3,378.1,139.7z"/>
		</g>
	</g>
	<g>
		<g>
			<g>
				<path d="M371.7,142.9c5.4,0.2,8.3-1.3,9.1-3.8C377.6,139.1,372.2,139.6,371.7,142.9z"/>
			</g>
		</g>
	</g>
	<g>
		<g>
			<path d="M391.7,141.5l2.4-1.3c-2.5-5.1-3.6-11.2-3.5-18.6l-2.7,0C387.8,129.4,389.1,136,391.7,141.5z"/>
		</g>
	</g>
	<g>
		<g>
			<g>
				<path d="M386.8,143.2c5.1,0.4,7.3-0.4,7.3-3C391,141.1,386.3,139.8,386.8,143.2z"/>
			</g>
		</g>
	</g>
	<g>
		<g>
			<path d="M390.5,119.6c0.1,1.3,0.1,2.6,0.2,3.8l-12.9-0.2c0-1.5,0-2.9-0.1-4.3L390.5,119.6z"/>
		</g>
		<g>
			<path fill="#FFFFFF" d="M374.3,92.7l9.9,1.2c3.6,8.4,5.7,17,6.3,25.8l-12.7-0.6C377.5,109.6,376.3,100.8,374.3,92.7z"/>
		</g>
	</g>
	<g>
		<g>
			<path fill="#98C93C" d="M384.4,97.2c-0.6,0-1.1-0.4-1.3-1c-0.2-0.7,0.2-1.5,0.9-1.7c15.7-4.7,27.7-15.2,35.7-31.4
				c0.3-0.7,1.1-0.9,1.8-0.6c0.7,0.3,0.9,1.1,0.6,1.8c-8.4,16.9-21,27.9-37.4,32.8C384.7,97.2,384.6,97.2,384.4,97.2z"/>
		</g>
	</g>
	<g>
		<defs>
			<path id="SVGID_3_" d="M407.6,103.7L392.1,77l-59,34.1l15.4,26.7L407.6,103.7z"/>
		</defs>
		<clipPath id="SVGID_4_">
			<use xlink:href="#SVGID_3_"  overflow="visible"/>
		</clipPath>
		<g clip-path="url(#SVGID_4_)">
			<g>
				<path fill="#FFFFFF" d="M384.4,97.2c-0.6,0-1.1-0.4-1.3-1c-0.2-0.7,0.2-1.5,0.9-1.7c15.6-4.7,27.7-15.2,35.7-31.4
					c0.3-0.7,1.2-1,1.9-0.6c0.7,0.3,1,1.2,0.6,1.9c-8.4,16.9-21,27.9-37.4,32.8C384.7,97.2,384.6,97.2,384.4,97.2z"/>
			</g>
		</g>
	</g>
	<g>
		<path d="M351.9,97.1c0.9,0.9,1.8,1.2,2.8,1.1c1-0.2,1.8-0.8,2.4-1.9c0.5-1.1,0.7-2.3,0.5-3.7c0-0.2-0.1-0.5-0.2-0.8l7.1-1.1
			c0.3,0.6,0.4,1.3,0.5,2c0.3,2.3,0,4.3-1.1,6.1c-1.1,1.8-2.6,2.9-4.6,3.2c-1.9,0.3-3.7-0.3-5.2-1.7c-1.2-1-2-2.2-2.6-3.7
			C351.7,96.9,351.8,97,351.9,97.1z"/>
	</g>
	<g>
		<path d="M395.2,84.9c0.2,1.4,0.8,2.5,1.6,3.4c0.9,0.9,1.8,1.2,2.8,1.1c1-0.1,1.8-0.8,2.3-1.9c0.1-0.1,0.2-0.3,0.2-0.4
			c-0.1,1.6-0.5,3-1.3,4.3c-1.1,1.8-2.6,2.9-4.5,3.2c-1.9,0.3-3.7-0.3-5.3-1.6c-1.6-1.4-2.6-3.3-2.9-5.5c-0.1-0.7-0.2-1.4-0.1-2.1
			l7.1-1.1C395.2,84.4,395.2,84.7,395.2,84.9z"/>
	</g>
	<g>
		<path fill="#A5CD39" d="M401.1,68.1c1.1,7.1-0.7,13.5-5.2,19.3c-4.6,5.8-10.7,9.3-18.3,10.5c-7.6,1.2-14.5-0.3-20.6-4.5
			c-6.2-4.1-9.8-9.8-10.9-16.8c-1.1-7.1,0.6-13.5,5.2-19.4c4.6-5.8,10.7-9.3,18.3-10.5c7.6-1.2,14.5,0.3,20.6,4.5
			C396.4,55.4,400.1,61,401.1,68.1z"/>
	</g>
	<g>
		<path fill="#778663" d="M382.6,82.4c0,0.2,0,0.5-0.2,0.7c-0.1,0.2-0.3,0.3-0.6,0.4c-0.3,0-0.5,0-0.7-0.2c-0.2-0.1-0.3-0.3-0.4-0.6
			c0-0.2,0-0.5,0.2-0.7c0.1-0.2,0.4-0.3,0.6-0.4c0.3,0,0.5,0,0.7,0.2C382.4,81.9,382.5,82.1,382.6,82.4z"/>
	</g>
	<g>
		<path fill="#A5CD39" d="M401.1,68.1c1.1,7.1-0.7,13.5-5.2,19.3c-4.6,5.8-10.7,9.3-18.3,10.5c-7.6,1.2-14.5-0.3-20.6-4.5
			c-6.2-4.1-9.8-9.8-10.9-16.8c-1.1-7.1,0.6-13.5,5.2-19.4c4.6-5.8,10.7-9.3,18.3-10.5c7.6-1.2,14.5,0.3,20.6,4.5
			C396.4,55.4,400.1,61,401.1,68.1z"/>
	</g>
	<g>
		<path fill="#778663" d="M385,91.7c-0.9,0.5-1.9,0.9-2.8,1c-1,0.2-2,0.2-3.1-0.1c-1-0.3-2-0.8-2.9-1.6c-0.7-0.6-1.2-1.3-1.6-2.3
			c4.8,0.1,9.4-0.7,13.6-2.1c-0.1,1-0.3,1.9-0.8,2.7C386.7,90.3,385.9,91.2,385,91.7z"/>
	</g>
	<g>
		<path fill="#4B823D" d="M385,91.7c-0.9,0.5-1.9,0.9-2.8,1c-1,0.2-2,0.2-3.1-0.1c-1-0.3-2-0.8-2.9-1.6c-0.7-0.6-1.2-1.3-1.6-2.3
			c4.8,0.1,9.4-0.7,13.6-2.1c-0.1,1-0.3,1.9-0.8,2.7C386.7,90.3,385.9,91.2,385,91.7z"/>
	</g>
	<g>
		<defs>
			<path id="SVGID_5_" d="M385,91.7c-0.9,0.5-1.9,0.9-2.8,1c-1,0.2-2,0.2-3.1-0.1c-1-0.3-2-0.8-2.9-1.6c-0.7-0.6-1.2-1.3-1.6-2.3
				c4.8,0.1,9.4-0.7,13.6-2.1c-0.1,1-0.3,1.9-0.8,2.7C386.7,90.3,385.9,91.2,385,91.7z"/>
		</defs>
		<clipPath id="SVGID_6_">
			<use xlink:href="#SVGID_5_"  overflow="visible"/>
		</clipPath>
		<g clip-path="url(#SVGID_6_)">
			<g>
				<g>
					<path fill="#F28AAF" d="M378.1,90.3c0.8-0.1,1.6,0.1,2.3,0.5c0.6,0.5,1.2,1,1.6,1.8c0.4,0.8,0.2,1.3-0.4,1.6
						c-0.6,0.3-1.4,0.5-2.1,0.5c-0.8,0.1-1.5-0.2-2.3-0.5c-0.7-0.4-1.2-0.8-1.5-1.2c-0.3-0.4-0.2-0.9,0.3-1.5
						C376.6,90.9,377.3,90.5,378.1,90.3z"/>
				</g>
			</g>
		</g>
	</g>
	<g>
		<path d="M365.7,59.3l15-3.5c0.2,4.1-1,8.5-3.4,13.3C374.8,66,370.9,62.7,365.7,59.3z"/>
	</g>
	<g>
		<g>
			<path d="M396.2,61.5c0,0.1,0.1,0.2,0.1,0.2c2.8,6.6,4.9,14,6.2,22.1L354,91.4l-1.8-24.4l43.4-6.7C395.8,60.6,396,61.1,396.2,61.5
				z"/>
		</g>
		<g>
			<path fill="#A9A8A3" d="M396.2,61.5c-0.2-0.4-0.4-0.9-0.6-1.3l4.3-0.7c3.3,7,5.6,14.9,7,23.6l-4.4,0.7
				c-1.4-8.1-3.4-15.5-6.2-22.1C396.3,61.7,396.2,61.6,396.2,61.5z"/>
		</g>
	</g>
	<g>
		<g>
			<path fill="#FFFFFF" d="M344.8,68.1c0.3-5.3,2.2-10.2,5.5-14.7c4.7-6.3,10.9-10.2,18.7-11.4c7.8-1.2,14.9,0.5,21.3,5.2
				c4.5,3.3,7.8,7.4,9.7,12.3L344.8,68.1z"/>
		</g>
	</g>
	<g>
		<defs>
			<path id="SVGID_7_" d="M377.7,98.5c-7.8,1.2-14.9-0.5-21.3-5.2c-6.3-4.6-10.1-10.9-11.3-18.7c-1.2-7.8,0.5-14.9,5.2-21.3
				c4.7-6.3,10.9-10.1,18.7-11.3c7.8-1.2,14.9,0.5,21.3,5.2c6.3,4.7,10.1,10.9,11.3,18.7c1.2,7.8-0.5,14.9-5.2,21.3
				C391.7,93.5,385.5,97.3,377.7,98.5z"/>
		</defs>
		<clipPath id="SVGID_8_">
			<use xlink:href="#SVGID_7_"  overflow="visible"/>
		</clipPath>
		<g clip-path="url(#SVGID_8_)">
			<g>
				<g>
					<path fill="#FFFFFF" d="M337.2,54.5l14-2.2l3.4,46.7l-10.3,1.6L337.2,54.5z"/>
				</g>
			</g>
		</g>
	</g>
	<g>
		<defs>
			<path id="SVGID_9_" d="M344.8,68.1c0.3-5.3,2.2-10.2,5.5-14.7c4.7-6.3,10.9-10.2,18.7-11.4c7.8-1.2,14.9,0.5,21.3,5.2
				c4.5,3.3,7.8,7.4,9.7,12.3L344.8,68.1z"/>
		</defs>
		<clipPath id="SVGID_10_">
			<use xlink:href="#SVGID_9_"  overflow="visible"/>
		</clipPath>
		<g clip-path="url(#SVGID_10_)">
			<g>
				<g>
					<path fill="#5CBCEA" d="M391.7,60.8c0,0.1,0.1,0.1,0.1,0.2c2.8,6.8,5,14.5,6.4,23c0.1,0.2,0.1,0.3,0.1,0.5
						c0.2,1.4,0.4,2.8,0.6,4.2L377.7,92c-0.1-1.4-0.2-2.9-0.3-4.3c-0.1-0.6-0.1-1.2-0.2-1.8c-0.7-6.8-2-13.1-3.8-18.9
						c-0.3-1.1-0.7-2.2-1-3.2c-2.7-7.4-6.3-14-11-19.7c-1.2-1.5-2.6-3-4-4.4L375,37c1.9,1.7,3.7,3.5,5.4,5.5
						C385,47.7,388.8,53.8,391.7,60.8z"/>
				</g>
			</g>
		</g>
	</g>
	<g>
		<g>
			<path fill="#FFFFFF" d="M364.1,76.6c0.1,0.6,0.3,1,0.8,1.4c0.4,0.3,0.9,0.5,1.4,0.4c0.5-0.1,0.9-0.3,1.2-0.8
				c0.3-0.5,0.4-1,0.3-1.6c-0.1-0.6-0.3-1-0.8-1.4c-0.4-0.3-0.9-0.5-1.4-0.4c-0.5,0.1-0.9,0.4-1.2,0.8
				C364.1,75.5,363.9,76,364.1,76.6z"/>
		</g>
	</g>
	<g>
		<g>
			<path fill="#FFFFFF" d="M396.6,71.6c0.1,0.6,0,1.1-0.3,1.6c-0.3,0.5-0.7,0.8-1.2,0.8c-0.5,0.1-0.9-0.1-1.3-0.4
				c-0.4-0.3-0.7-0.8-0.8-1.4c-0.1-0.6,0-1.1,0.3-1.6c0.3-0.5,0.7-0.8,1.2-0.8c0.5-0.1,1,0.1,1.4,0.4
				C396.2,70.5,396.5,71,396.6,71.6z"/>
		</g>
	</g>
	<g>
		<g>
			<g>
				<g>
					<path fill="#A5CD39" d="M366.3,101.2c-1.5,0.6-2.5,1.6-3.2,3.1c-0.6,1.5-0.7,2.9-0.1,4.4c0.6,1.5,1.6,2.5,3,3.2
						c1.5,0.6,3,0.6,4.4,0.1c1.5-0.6,2.5-1.6,3.2-3.1c0.6-1.4,0.7-2.9,0.1-4.4c-0.6-1.5-1.6-2.6-3.1-3.2
						C369.3,100.6,367.8,100.6,366.3,101.2z"/>
				</g>
			</g>
		</g>
	</g>
	<g>
		<g>
			<g>
				<path fill="#A5CD39" d="M424.5,56c-1.4,0.7-2.9,0.8-4.4,0.3c-1.5-0.5-2.6-1.5-3.3-2.9c-0.7-1.4-0.8-2.9-0.3-4.4
					c0.5-1.5,1.5-2.6,2.9-3.3c1.5-0.7,2.9-0.8,4.4-0.2c1.5,0.5,2.6,1.5,3.3,2.9c0.7,1.5,0.8,2.9,0.3,4.4
					C426.9,54.2,425.9,55.3,424.5,56z"/>
			</g>
		</g>
	</g>
	<g>
		<defs>
			<path id="SVGID_11_" d="M426.2,62c-0.5,1.5-1.5,2.6-2.9,3.3c-1.4,0.7-2.9,0.8-4.4,0.3c-1.5-0.5-2.6-1.5-3.3-2.9
				c-0.7-1.4-0.8-2.9-0.3-4.4c0.5-1.5,1.5-2.6,2.9-3.3c1.5-0.7,2.9-0.8,4.4-0.2c1.5,0.5,2.6,1.5,3.3,2.9
				C426.7,59,426.7,60.5,426.2,62z"/>
		</defs>
		<clipPath id="SVGID_12_">
			<use xlink:href="#SVGID_11_"  overflow="visible"/>
		</clipPath>
	</g>
</g>
<g>
	<g>
		<g>
			<g>
				<path fill="#D3953B" d="M429.8,137.2c13.9,0.7,21.2-4.9,22.2-17C438.2,118.2,430.8,123.9,429.8,137.2z"/>
			</g>
		</g>
	</g>
	<g>
		<defs>
			<path id="SVGID_13_" d="M429.8,137.2c13.9,0.7,21.2-4.9,22.2-17C438.2,118.2,430.8,123.9,429.8,137.2z"/>
		</defs>
		<clipPath id="SVGID_14_">
			<use xlink:href="#SVGID_13_"  overflow="visible"/>
		</clipPath>
		<g clip-path="url(#SVGID_14_)">
			<g>
				<g>
					<g>
						<g>
							<path d="M438,116l-2.9,3.7l12,17.6l3.6-4.8L438,116z"/>
						</g>
					</g>
				</g>
			</g>
			<g>
				<g>
					<g>
						<g>
							<path d="M454.4,132.1l4-7.3l-8.3-11.2l-7.6,1L454.4,132.1z"/>
						</g>
					</g>
				</g>
			</g>
			<g>
				<g>
					<g>
						<g>
							<path d="M435,146.1l9.1-7.4L428.8,123l-6.1,9.6L435,146.1z"/>
						</g>
					</g>
				</g>
			</g>
		</g>
	</g>
	<g>
		<g>
			<path fill="#FFFFFF" d="M472.7,106.8c-0.3,0-0.6-0.1-0.9-0.3c-6.8-5.9-13.9-9.2-20.9-9.9c-0.7-0.1-1.3-0.7-1.2-1.5
				s0.7-1.3,1.5-1.2c7.6,0.7,15.1,4.3,22.4,10.5c0.6,0.5,0.6,1.3,0.1,1.9C473.5,106.6,473.1,106.8,472.7,106.8z"/>
		</g>
	</g>
	<g>
		<g>
			<g>
				<g>
					<path fill="#A5CD39" d="M474.5,114.1c1.5,0.5,3,0.5,4.4-0.2c1.5-0.7,2.4-1.7,3-3.2c0.6-1.5,0.5-3-0.2-4.4
						c-0.7-1.5-1.8-2.5-3.3-3c-1.5-0.5-3-0.5-4.4,0.2c-1.5,0.7-2.4,1.7-3,3.2c-0.6,1.5-0.5,3,0.2,4.4
						C471.9,112.6,473,113.6,474.5,114.1z"/>
				</g>
			</g>
		</g>
	</g>
	<g>
		<g>
			<path fill="#5CBCEA" d="M469.2,139.2c-0.6,0-1.1-0.4-1.3-1c-1.7-6.5-4.3-12.5-8.4-19c-0.4-0.6-0.2-1.5,0.4-1.9
				c0.6-0.4,1.5-0.2,1.9,0.4c4.2,6.8,7,13,8.8,19.8c0.2,0.7-0.2,1.5-1,1.6C469.4,139.1,469.3,139.2,469.2,139.2z"/>
		</g>
	</g>
	<g>
		<g>
			<g>
				<path d="M467.9,138.6c2.2,1.5,4.5,1.7,7.2,0.7C472.8,137,470.4,136.8,467.9,138.6z"/>
			</g>
		</g>
	</g>
	<g>
		<g>
			<path fill="#5CBCEA" d="M446.1,140.3c-0.2,0-0.3,0-0.5-0.1c-0.7-0.3-1-1.1-0.8-1.7c2.5-6.4,3.7-12.4,3.7-19.4
				c0-0.7,0.6-1.3,1.3-1.3c0,0,0,0,0,0c0.7,0,1.3,0.6,1.3,1.4c-0.1,7.4-1.3,13.7-3.9,20.4C447.1,139.9,446.6,140.3,446.1,140.3z"/>
		</g>
	</g>
	<g>
		<g>
			<g>
				<path d="M444.5,139.4c2.1,1.5,4.5,1.7,7.1,0.7C449.4,137.8,447,137.6,444.5,139.4z"/>
			</g>
		</g>
	</g>
	<g>
		<g>
			<polygon fill="#5CBCEA" points="448.1,117.9 449,122.3 464.1,122.3 462,117.2 			"/>
		</g>
		<g>
			<polygon fill="#FFFFFF" points="451.2,91.2 442.5,91.2 448.1,117.9 462,117.2 			"/>
		</g>
	</g>
	<g>
		<g>
			<path fill="#A5CD39" d="M456.8,64.6c1-1.2,2.1-2,3.3-2.4c1.2-0.4,2.2-0.2,3.1,0.6c0.8,0.8,1.5,2,1.9,3.8c0.4,1.7,0.3,3.3-0.2,4.5
				c-0.6,1.2-1.7,2-3.3,2.3c-1.6,0.3-3,0.1-4.2-0.8c-1.1-0.8-1.8-2-1.9-3.7C455.5,67.2,455.9,65.8,456.8,64.6z"/>
		</g>
	</g>
	<g>
		<g>
			<path fill="#A5CD39" d="M450.8,48.8c-6.9-2.9-13.8-3-21.1-0.4c-7.2,2.6-12.5,7.2-15.9,13.8c-3.4,6.6-3.9,13.2-1.4,19.9
				c2.4,6.7,7.1,11.5,13.9,14.4c6.9,2.9,13.9,3,21.1,0.4c7.2-2.6,12.5-7.2,15.9-13.8c3.4-6.6,3.9-13.2,1.4-19.9
				C462.2,56.5,457.6,51.7,450.8,48.8z"/>
		</g>
	</g>
	<g>
		<g>
			<path fill="#A5CD39" d="M414.3,83.4c-1.5-0.3-2.9-0.2-4.1,0.2c-1.2,0.5-1.8,1.3-2,2.4c-0.1,1.1,0.2,2.5,1,4.1
				c0.8,1.6,1.8,2.7,3,3.3c1.2,0.6,2.6,0.5,4-0.3c1.5-0.8,2.3-1.9,2.7-3.3c0.3-1.4,0.1-2.7-0.9-4C417,84.6,415.8,83.8,414.3,83.4z"
				/>
		</g>
	</g>
	<g>
		<g>
			<path fill="#A5CD39" d="M450.8,48.8c-6.9-2.9-13.8-3-21.1-0.4c-7.2,2.6-12.5,7.2-15.9,13.8c-3.4,6.6-3.9,13.2-1.4,19.9
				c2.4,6.7,7.1,11.5,13.9,14.4c6.9,2.9,13.9,3,21.1,0.4c7.2-2.6,12.5-7.2,15.9-13.8c3.4-6.6,3.9-13.2,1.4-19.9
				C462.2,56.5,457.6,51.7,450.8,48.8z"/>
		</g>
	</g>
	<g>
		<g>
			<g>
				<path fill="#FFFFFF" d="M416.6,72.4c-1,3-0.9,6.1,0.5,9.2c1.3,3.1,3.5,5.3,6.5,6.6c3,1.3,5.9,1.3,8.7,0c2.8-1.3,4.8-3.5,5.9-6.5
					c1-3.1,0.9-6.2-0.5-9.2c-1.3-3.1-3.5-5.3-6.5-6.5c-3-1.3-5.9-1.3-8.7-0.1C419.6,67.2,417.7,69.3,416.6,72.4z"/>
			</g>
		</g>
	</g>
	<g>
		<g>
			<path fill="#5CBCEA" d="M436.6,72.6c-0.9-0.6-1.9-0.7-2.9-0.3c-0.9,0.3-1.6,1-2,2.1c-0.4,1-0.4,2.1,0,3.2c0.4,1.1,1.1,1.9,2,2.5
				c0.9,0.6,1.9,0.7,2.8,0.3c0.9-0.3,1.6-1,2-2.1c0.4-1,0.4-2.1,0-3.2C438.2,73.9,437.6,73.1,436.6,72.6z"/>
		</g>
	</g>
	<g>
		<g>
			<g>
				<g>
					<path fill="#A5CD39" d="M422.2,65.4c-3,1.3-5.1,3.6-6.2,6.8c-1.1,3.2-0.9,6.5,0.5,9.7c1.5,3.2,3.7,5.5,6.9,6.9
						c3.1,1.3,6.2,1.4,9.2,0c3-1.3,5-3.6,6.2-6.8c1.1-3.2,0.9-6.4-0.5-9.7c-1.5-3.3-3.7-5.6-6.8-6.9C428.3,64,425.2,64,422.2,65.4z
						 M416.6,72.4c1-3.1,3-5.2,5.9-6.5c2.8-1.3,5.8-1.2,8.7,0.1c3,1.3,5.2,3.5,6.5,6.5c1.4,3.1,1.5,6.2,0.5,9.2
						c-1,3.1-3,5.2-5.8,6.5c-2.8,1.2-5.8,1.2-8.8,0c-3-1.3-5.2-3.5-6.5-6.6C415.7,78.6,415.6,75.5,416.6,72.4z"/>
				</g>
			</g>
		</g>
	</g>
	<g>
		<defs>
			<path id="SVGID_15_" d="M450.8,48.8c-6.9-2.9-13.8-3-21.1-0.4c-7.2,2.6-12.5,7.2-15.9,13.8c-3.4,6.6-3.9,13.2-1.4,19.9
				c2.4,6.7,7.1,11.5,13.9,14.4c6.9,2.9,13.9,3,21.1,0.4c7.2-2.6,12.5-7.2,15.9-13.8c3.4-6.6,3.9-13.2,1.4-19.9
				C462.2,56.5,457.6,51.7,450.8,48.8z"/>
		</defs>
		<clipPath id="SVGID_16_">
			<use xlink:href="#SVGID_15_"  overflow="visible"/>
		</clipPath>
		<g clip-path="url(#SVGID_16_)">
			<g>
				<path d="M441.6,31c-5.6-0.2-12,1-18.9,3.7c-6.9,2.7-12.4,6-16.6,10.1c-4.1,4-5.7,7.5-4.6,10.5c1.1,3,4.5,4.6,10.1,4.8
					c5.7,0.2,12-1,18.9-3.7c6.9-2.7,12.5-6,16.6-10.1c4.1-4,5.6-7.6,4.6-10.6C450.6,32.8,447.3,31.2,441.6,31z"/>
			</g>
		</g>
	</g>
	<g>
		<g>
			<path fill="#4B823D" d="M447.5,80.7c-0.2-0.1-0.5-0.1-0.7,0s-0.4,0.2-0.5,0.5c-0.1,0.2-0.1,0.5,0,0.7c0.1,0.2,0.3,0.4,0.5,0.5
				c0.2,0.1,0.5,0.1,0.7,0.1c0.2-0.1,0.4-0.2,0.5-0.5c0.1-0.2,0.1-0.5,0-0.7C448,80.9,447.8,80.8,447.5,80.7z"/>
		</g>
	</g>
	<g>
		<path fill="#778663" d="M454.9,87.5c0.4-1.1,0.6-2.4,0.5-3.8c-4.5,2.3-9.5,3.4-14.9,3.6c0.6,1.3,1.3,2.4,2.2,3.2
			c1.1,1.1,2.3,1.7,3.6,2.1c1.2,0.3,2.3,0.3,3.4-0.1c1.1-0.2,2.2-0.7,3.1-1.5C453.6,90.2,454.4,89,454.9,87.5z"/>
	</g>
	<g>
		<path fill="#778663" d="M454.9,87.5c0.4-1.1,0.6-2.4,0.5-3.8c-4.5,2.3-9.5,3.4-14.9,3.6c0.6,1.3,1.3,2.4,2.2,3.2
			c1.1,1.1,2.3,1.7,3.6,2.1c1.2,0.3,2.3,0.3,3.4-0.1c1.1-0.2,2.2-0.7,3.1-1.5C453.6,90.2,454.4,89,454.9,87.5z"/>
	</g>
	<g>
		<g>
			<g>
				<path fill="#4B823D" d="M454.9,87.5c0.4-1.1,0.6-2.4,0.5-3.8c-4.5,2.3-9.5,3.4-14.9,3.6c0.6,1.3,1.3,2.4,2.2,3.2
					c1.1,1.1,2.3,1.7,3.6,2.1c1.2,0.3,2.3,0.3,3.4-0.1c1.1-0.2,2.2-0.7,3.1-1.5C453.6,90.2,454.4,89,454.9,87.5z"/>
			</g>
		</g>
	</g>
	<g>
		<defs>
			<path id="SVGID_17_" d="M454.9,87.5c0.4-1.1,0.6-2.4,0.5-3.8c-4.5,2.3-9.5,3.4-14.9,3.6c0.6,1.3,1.3,2.4,2.2,3.2
				c1.1,1.1,2.3,1.7,3.6,2.1c1.2,0.3,2.3,0.3,3.4-0.1c1.1-0.2,2.2-0.7,3.1-1.5C453.6,90.2,454.4,89,454.9,87.5z"/>
		</defs>
		<clipPath id="SVGID_18_">
			<use xlink:href="#SVGID_17_"  overflow="visible"/>
		</clipPath>
		<g clip-path="url(#SVGID_18_)">
			<g>
				<g>
					<path fill="#F28AAF" d="M442.9,91.6c-0.5,0.7-0.6,1.3-0.3,1.7c0.3,0.4,0.9,0.8,1.8,1.2c0.9,0.4,1.7,0.5,2.6,0.4
						c0.9-0.1,1.6-0.3,2.3-0.7c0.7-0.4,0.8-1,0.3-1.8c-0.5-0.8-1.1-1.4-1.9-1.8c-0.8-0.5-1.6-0.6-2.6-0.4
						C444.1,90.4,443.4,90.8,442.9,91.6z"/>
				</g>
			</g>
		</g>
	</g>
	<g>
		<path d="M452.1,37.5c-2.6,2.6-5.7,4.8-9.4,6.7c1.7-2.4,2.7-5.2,2.9-8.4c-5,5.3-10.7,10-17.2,14l2.3,6.4
			C443.1,51.4,450.2,45.2,452.1,37.5z"/>
	</g>
	<g>
		<g>
			<path fill="#FFFFFF" d="M447,100.6c-0.5,0-1-0.3-1.2-0.8c-0.3-0.7,0-1.5,0.6-1.8c11.9-5.7,21.6-13.6,28.9-23.4
				c0.4-0.6,1.3-0.7,1.9-0.3c0.6,0.4,0.7,1.3,0.3,1.9c-7.6,10.1-17.6,18.3-29.9,24.2C447.4,100.5,447.2,100.6,447,100.6z"/>
		</g>
	</g>
	<g>
		<g>
			<g>
				<g>
					<path fill="#A5CD39" d="M474.8,68.7c1-1.2,2.4-1.8,4-1.9c1.6-0.1,3,0.4,4.2,1.5c1.2,1.1,1.8,2.4,1.9,4c0.1,1.6-0.4,3-1.5,4.2
						s-2.4,1.8-4,1.9c-1.6,0.1-3-0.4-4.2-1.5c-1.2-1.1-1.8-2.4-1.9-4C473.3,71.3,473.7,69.9,474.8,68.7z"/>
				</g>
			</g>
		</g>
	</g>
	<g>
		<defs>
			<path id="SVGID_19_" d="M450.8,48.8c-6.9-2.9-13.8-3-21.1-0.4c-7.2,2.6-12.5,7.2-15.9,13.8c-3.4,6.6-3.9,13.2-1.4,19.9
				c2.4,6.7,7.1,11.5,13.9,14.4c6.9,2.9,13.9,3,21.1,0.4c7.2-2.6,12.5-7.2,15.9-13.8c3.4-6.6,3.9-13.2,1.4-19.9
				C462.2,56.5,457.6,51.7,450.8,48.8z"/>
		</defs>
		<clipPath id="SVGID_20_">
			<use xlink:href="#SVGID_19_"  overflow="visible"/>
		</clipPath>
		<g clip-path="url(#SVGID_20_)">
			<g>
				<g>
					<g>
						<path fill="#FFFFFF" d="M445,59.8c-1,3-0.9,5.9,0.5,8.9c1.3,3,3.4,5.1,6.2,6.3c2.9,1.2,5.7,1.3,8.4,0.1
							c2.7-1.2,4.6-3.3,5.6-6.2c1-3,0.9-5.9-0.4-8.9c-1.3-3-3.4-5.1-6.3-6.3c-2.9-1.2-5.7-1.2-8.4,0C447.9,54.8,446,56.9,445,59.8z"
							/>
					</g>
				</g>
			</g>
			<g>
				<g>
					<path fill="#5CBCEA" d="M462.7,61.2c-0.9-0.6-1.9-0.6-2.8-0.3c-0.9,0.3-1.6,1-2,2.1c-0.4,1-0.4,2.1,0,3.2
						c0.4,1.1,1.1,1.9,2,2.5c0.9,0.5,1.9,0.7,2.8,0.3c0.9-0.3,1.6-1,2-2.1c0.4-1,0.3-2.1-0.1-3.2C464.3,62.6,463.7,61.8,462.7,61.2z
						"/>
				</g>
			</g>
			<g>
				<g>
					<g>
						<g>
							<path fill="#A5CD39" d="M450.4,53.1c2.9-1.3,5.8-1.3,8.8,0c3,1.3,5.2,3.5,6.6,6.6c1.4,3.1,1.5,6.2,0.5,9.3
								c-1,3.1-3,5.3-5.9,6.6c-2.9,1.3-5.8,1.3-8.8,0c-3-1.3-5.2-3.5-6.6-6.6c-1.4-3.1-1.6-6.2-0.5-9.3
								C445.6,56.5,447.5,54.3,450.4,53.1z M459.1,53.6c-2.9-1.2-5.7-1.2-8.4,0c-2.7,1.2-4.6,3.3-5.6,6.2c-1,2.9-0.9,5.9,0.5,8.9
								c1.3,3,3.4,5.1,6.3,6.3c2.9,1.2,5.6,1.3,8.4,0.1c2.7-1.2,4.6-3.3,5.6-6.3c1-2.9,0.9-5.9-0.5-8.8
								C464,57,461.9,54.8,459.1,53.6z"/>
						</g>
					</g>
				</g>
			</g>
		</g>
	</g>
</g>
<g>
	<g>
		<g>
			<path d="M341.7,132.8l4.3,1.9c4.2-3.5,7.1-7,8.6-10.3c1.5-3.2,1.8-6.5,0.9-9.8c-1.4-6.3-7.7-12.1-19-17.4l-1.6,3.5
				c9.9,4.6,15.5,9.6,16.9,14.8c0.5,2.6-0.1,5.3-1.9,8.3C348.2,126.8,345.5,129.8,341.7,132.8z"/>
		</g>
	</g>
	<g>
		<g>
			<g>
				<path fill="#FFFFFF" d="M352.3,130.9c-2.4-0.7-4.6-0.8-6.7-0.3c-2.1,0.5-3.6,1.5-4.5,2.9c4.9,2.6,9.2,3.6,12.8,3.1
					c1.1-0.2,2.1-0.4,3-0.8l1-0.5C356.6,133.1,354.7,131.7,352.3,130.9z"/>
			</g>
		</g>
	</g>
	<g>
		<g>
			<path d="M331.1,101.2l-2.9-2.6l-41.8,46.8l3.8,2.3L331.1,101.2z"/>
		</g>
	</g>
	<g>
		<g>
			<g>
				<path fill="#FFFFFF" d="M279,145.1c2.4-0.7,4.6-0.8,6.7-0.3c2.1,0.5,3.6,1.5,4.5,2.9c-4.9,2.6-9.2,3.6-12.8,3.1
					c-1.1-0.1-2.1-0.4-3-0.8l-0.9-0.5C274.7,147.3,276.6,145.8,279,145.1z"/>
			</g>
		</g>
	</g>
	<g>
		<g>
			<path fill="#A5CD39" d="M322.4,65.4c-0.3,0-0.6-0.1-0.8-0.2c-0.9-0.5-1.3-1.6-0.8-2.5c7.4-14.9,13.2-26.2,17.3-33.6
				c6.4-11.3,7.9-12,9.5-11.8c1,0.1,1.7,1.1,1.6,2.1c-0.1,0.8-0.7,1.4-1.4,1.6c-1.3,1-6,7.5-23.7,43.4
				C323.7,65,323.1,65.4,322.4,65.4z"/>
		</g>
	</g>
	<g>
		<defs>
			<path id="SVGID_21_" d="M327.9,75.6l7.3-7.6V45.9h-31.2L327.9,75.6z"/>
		</defs>
		<clipPath id="SVGID_22_">
			<use xlink:href="#SVGID_21_"  overflow="visible"/>
		</clipPath>
		<g clip-path="url(#SVGID_22_)">
			<g>
				<path fill="#FFFFFF" d="M322.4,65.4c-0.3,0-0.6-0.1-0.8-0.2c-0.9-0.5-1.3-1.6-0.8-2.5c7.4-14.9,13.2-26.2,17.3-33.6
					c6.4-11.3,7.9-12,9.5-11.8c1,0.1,1.7,1.1,1.6,2.1c-0.1,0.8-0.7,1.4-1.4,1.6c-1.3,1-6,7.5-23.7,43.4
					C323.7,65,323.1,65.4,322.4,65.4z"/>
			</g>
		</g>
	</g>
	<g>
		<g>
			<g>
				<path fill="#A5CD39" d="M349.1,11.8c-0.2,0-0.4,0-0.6-0.1c-1-0.3-1.5-1.4-1.2-2.3l2.7-8.1c0.3-1,1.4-1.5,2.3-1.2
					c1,0.3,1.5,1.4,1.2,2.3l-2.7,8.1C350.6,11.3,349.9,11.8,349.1,11.8z"/>
			</g>
		</g>
	</g>
	<g>
		<g>
			<g>
				<path fill="#A5CD39" d="M353.2,14.1c-0.5,0-0.9-0.2-1.3-0.5c-0.7-0.7-0.7-1.9,0-2.6l6-6.1c0.7-0.7,1.9-0.7,2.6,0
					c0.7,0.7,0.7,1.9,0,2.6l-6,6.1C354.1,13.9,353.6,14.1,353.2,14.1z"/>
			</g>
		</g>
	</g>
	<g>
		<g>
			<g>
				<path fill="#A5CD39" d="M355.3,18.1c-0.7,0-1.4-0.5-1.7-1.2c-0.4-1,0.1-2,1.1-2.4l8-3c1-0.4,2,0.1,2.4,1.1c0.4,1-0.1,2-1.1,2.4
					l-8,3C355.7,18,355.5,18.1,355.3,18.1z"/>
			</g>
		</g>
	</g>
	<g>
		<g>
			<g>
				<path fill="#A5CD39" d="M344.1,15.7c-0.4,0-0.9-0.2-1.2-0.5l-4.1-3.7c-0.8-0.7-0.8-1.8-0.1-2.6c0.7-0.8,1.8-0.8,2.6-0.1l4.1,3.7
					c0.8,0.7,0.8,1.8,0.1,2.6C345.1,15.5,344.6,15.7,344.1,15.7z"/>
			</g>
		</g>
	</g>
	<g>
		<g>
			<g>
				<g>
					<g>
						<path fill="#A5CD39" d="M355.7,19.8c1.1-1.7,1.5-3.5,1.1-5.6c-0.4-2-1.5-3.5-3.2-4.7c-1.7-1.1-3.5-1.5-5.5-1.1
							c-2,0.4-3.6,1.5-4.7,3.2c-1.1,1.7-1.5,3.6-1.1,5.6c0.4,2,1.5,3.6,3.2,4.7c1.7,1.1,3.5,1.5,5.5,1.1
							C353.1,22.6,354.6,21.6,355.7,19.8z"/>
					</g>
				</g>
			</g>
		</g>
	</g>
	<g>
		<defs>
			<path id="SVGID_23_" d="M355.7,19.8c1.1-1.7,1.5-3.5,1.1-5.6c-0.4-2-1.5-3.5-3.2-4.7c-1.7-1.1-3.5-1.5-5.5-1.1
				c-2,0.4-3.6,1.5-4.7,3.2c-1.1,1.7-1.5,3.6-1.1,5.6c0.4,2,1.5,3.6,3.2,4.7c1.7,1.1,3.5,1.5,5.5,1.1
				C353.1,22.6,354.6,21.6,355.7,19.8z"/>
		</defs>
		<clipPath id="SVGID_24_">
			<use xlink:href="#SVGID_23_"  overflow="visible"/>
		</clipPath>
		<g clip-path="url(#SVGID_24_)">
			<g>
				<g>
					<path fill="#4B823D" d="M348,19.7c-0.6,0-1.2-0.1-1.8-0.4c-0.3-0.1-0.5-0.3-0.7-0.4c-0.2-0.1-0.2-0.4-0.1-0.5
						c0.1-0.2,0.4-0.2,0.5-0.1c0.2,0.1,0.4,0.3,0.6,0.4c0.8,0.4,1.6,0.5,2.5,0.2c0.8-0.3,1.5-0.8,1.9-1.6c0.4-0.8,0.4-1.6,0.2-2.4
						c0,0,0,0,0,0c-0.1-0.3-0.2-0.5-0.4-0.8c-0.1-0.2-0.1-0.4,0.1-0.5c0.2-0.1,0.4-0.1,0.5,0.1c0.2,0.3,0.4,0.6,0.5,1
						c0.3,1,0.3,2-0.2,3c-0.5,1-1.3,1.7-2.3,2C348.9,19.6,348.5,19.7,348,19.7z"/>
				</g>
			</g>
		</g>
	</g>
	<g>
		<g>
			<path d="M311.1,61.4c1.4,2,2.7,4,3.9,5.9v-5.9H311.1z"/>
		</g>
		<g>
			<path d="M338.9,90.6c-4.1,0.7-8.3,1.7-12.6,3.1c0.2,1,0.4,1.9,0.5,2.8c0.8,4.8,2.5,7.5,5.3,8.1c6.9,0.6,9.2-3.9,6.9-13.4
				C339,91.1,338.9,90.8,338.9,90.6z"/>
		</g>
		<g>
			<path fill="#FFFFFF" d="M320.3,61.4h-5.4v5.9c3,4.8,5.3,9.3,7.1,13.4c2,4.7,3.4,9,4.3,13c4.3-1.4,8.4-2.4,12.6-3.1
				C336.4,81.3,330.2,71.6,320.3,61.4z"/>
		</g>
	</g>
	<g>
		<g>
			<path fill="#A5CD39" d="M293.9,102.9c-0.3,0-0.7-0.1-1-0.3c-0.9-0.6-1.1-1.7-0.5-2.6l22.3-33.7c0.6-0.9,1.7-1.1,2.6-0.5
				c0.9,0.6,1.1,1.7,0.5,2.6l-22.3,33.7C295.1,102.7,294.5,102.9,293.9,102.9z"/>
		</g>
	</g>
	<g>
		<defs>
			<path id="SVGID_25_" d="M330.1,60v22.1h-15.2L299,60H330.1z"/>
		</defs>
		<clipPath id="SVGID_26_">
			<use xlink:href="#SVGID_25_"  overflow="visible"/>
		</clipPath>
		<g clip-path="url(#SVGID_26_)">
			<g>
				<path fill="#FFFFFF" d="M293.9,103c-0.4,0-0.7-0.1-1.1-0.3c-0.9-0.6-1.1-1.8-0.5-2.7l22.3-33.7c0.6-0.9,1.8-1.1,2.7-0.5
					c0.9,0.6,1.1,1.8,0.5,2.7l-22.3,33.7C295.1,102.7,294.5,103,293.9,103z"/>
			</g>
		</g>
	</g>
	<g>
		<path d="M324.5,47.1c0.1,1.5,0.6,3.1,1.6,4.8c1.4,2.5,3.4,4.5,5.9,5.9c2.5,1.5,4.8,2,7,1.5c2.1-0.4,3.4-1.7,3.9-3.8
			c0.4-1.6,0.2-3.5-0.7-5.4c-0.1-0.2-0.2-0.3-0.2-0.5c0,0.4,0,0.8,0,1.1c-0.1,0.6-0.3,1.1-0.5,1.5c-0.3,0.4-0.7,0.7-1.3,0.8
			c-1,0.2-2.2-0.2-3.5-1.2c-1.3-1-2.4-2.4-3.1-4.1c-0.2-0.4-0.3-0.7-0.4-1c-0.2-0.5-0.3-1-0.4-1.4L324.5,47.1z"/>
	</g>
	<g>
		<g>
			<path fill="#A5CD39" d="M328.2,8.4C320.4,3.6,312,2.1,302.9,4c-9.1,1.9-16.3,6.6-21.4,14.2c-5.2,7.5-6.8,15.7-5,24.5
				c1.8,8.8,6.6,15.6,14.4,20.4c7.7,4.8,16.2,6.3,25.3,4.4c9.1-1.9,16.2-6.6,21.4-14.2c5.2-7.5,6.8-15.7,5-24.5
				C340.7,20.1,336,13.3,328.2,8.4z"/>
		</g>
	</g>
	<g>
		<defs>
			<path id="SVGID_27_" d="M320.3,61.4h-5.4v5.9c3,4.8,5.3,9.3,7.1,13.4c2,4.7,3.4,9,4.3,13c4.3-1.4,8.4-2.4,12.6-3.1
				C336.4,81.3,330.2,71.6,320.3,61.4z"/>
		</defs>
		<clipPath id="SVGID_28_">
			<use xlink:href="#SVGID_27_"  overflow="visible"/>
		</clipPath>
		<g clip-path="url(#SVGID_28_)">
			<g>
				<g>
					<g>
						<path fill="#AADFF0" d="M326.3,74.3c-0.2,0-0.4-0.1-0.6-0.3l-6.3-10.8c-0.2-0.3-0.1-0.7,0.2-0.9c0.3-0.2,0.7-0.1,0.9,0.2
							l6.3,10.8c0.2,0.3,0.1,0.7-0.2,0.9C326.5,74.3,326.4,74.3,326.3,74.3z"/>
					</g>
				</g>
				<g>
					<g>
						<g>
							<path fill="#AADFF0" d="M329.1,71.4c-0.3,0-0.7-0.2-1.1-0.5c-0.6-0.5-1.2-1.1-1.7-2c-0.5-0.9-0.8-1.8-0.9-2.5
								c-0.1-0.8,0.1-1.3,0.5-1.6c0.4-0.2,1-0.1,1.6,0.4c0.6,0.4,1.2,1.1,1.7,2c0.5,0.9,0.8,1.7,0.9,2.5c0.1,0.8-0.1,1.3-0.5,1.6
								C329.5,71.4,329.3,71.4,329.1,71.4z M326.4,65c-0.1,0-0.2,0-0.3,0.1c-0.3,0.2-0.5,0.7-0.4,1.3c0.1,0.7,0.4,1.5,0.8,2.4
								c0.5,0.9,1.1,1.5,1.7,1.9c0.5,0.4,1,0.5,1.3,0.3c0.3-0.2,0.5-0.7,0.4-1.4c-0.1-0.7-0.3-1.5-0.8-2.4c-0.5-0.9-1-1.5-1.7-1.9
								C327,65.2,326.6,65,326.4,65z"/>
						</g>
						<g>
							<path fill="#AADFF0" d="M329.1,71.9L329.1,71.9c-0.5,0-0.9-0.2-1.4-0.6c-0.7-0.5-1.3-1.2-1.9-2.1c-0.6-1-0.9-1.9-1-2.7
								c-0.1-1.3,0.3-1.8,0.8-2.1c0.7-0.4,1.4-0.2,2.2,0.4c0.7,0.5,1.3,1.2,1.9,2.2c0.6,1,0.9,1.8,0.9,2.7c0.2,1.2-0.3,1.8-0.7,2.1
								C329.6,71.9,329.4,71.9,329.1,71.9z M326.4,65.5C326.3,65.5,326.3,65.5,326.4,65.5c-0.2,0.1-0.3,0.4-0.2,0.9
								c0.1,0.6,0.3,1.4,0.8,2.2c0.5,0.8,1,1.4,1.5,1.8c0.4,0.3,0.6,0.3,0.7,0.3l0,0c0,0,0.1,0,0.1,0c0.1-0.1,0.2-0.4,0.1-0.8
								c-0.1-0.7-0.3-1.4-0.8-2.2c-0.5-0.8-1-1.4-1.5-1.8C326.6,65.5,326.4,65.5,326.4,65.5z"/>
						</g>
					</g>
				</g>
			</g>
		</g>
	</g>
	<g>
		<g>
			<path fill="#A5CD39" d="M328.2,8.4C320.4,3.6,312,2.1,302.9,4c-9.1,1.9-16.3,6.6-21.4,14.2c-5.2,7.5-6.8,15.7-5,24.5
				c1.8,8.8,6.6,15.6,14.4,20.4c7.7,4.8,16.2,6.3,25.3,4.4c9.1-1.9,16.2-6.6,21.4-14.2c5.2-7.5,6.8-15.7,5-24.5
				C340.7,20.1,336,13.3,328.2,8.4z"/>
		</g>
	</g>
	<g>
		<g>
			<path fill="#A5CD39" d="M328.2,8.4C320.4,3.6,312,2.1,302.9,4c-9.1,1.9-16.3,6.6-21.4,14.2c-5.2,7.5-6.8,15.7-5,24.5
				c1.8,8.8,6.6,15.6,14.4,20.4c7.7,4.8,16.2,6.3,25.3,4.4c9.1-1.9,16.2-6.6,21.4-14.2c5.2-7.5,6.8-15.7,5-24.5
				C340.7,20.1,336,13.3,328.2,8.4z"/>
		</g>
	</g>
	<g>
		<g>
			<path fill="#E35AA0" d="M336.9,29.8c-0.8-0.8-1.7-1.1-2.6-1c-0.9,0.2-1.6,0.8-2,1.9c-0.5,1.1-0.5,2.3-0.2,3.6
				c0.3,1.4,0.8,2.4,1.7,3.3c0.8,0.8,1.7,1.1,2.6,0.9c0.9-0.2,1.6-0.8,2-1.9c0.4-1.1,0.5-2.3,0.2-3.6
				C338.3,31.7,337.8,30.6,336.9,29.8z"/>
		</g>
	</g>
	<g>
		<g>
			<path fill="#A5CD39" d="M328.2,8.4C320.4,3.6,312,2.1,302.9,4c-9.1,1.9-16.3,6.6-21.4,14.2c-5.2,7.5-6.8,15.7-5,24.5
				c1.8,8.8,6.6,15.6,14.4,20.4c7.7,4.8,16.2,6.3,25.3,4.4c9.1-1.9,16.2-6.6,21.4-14.2c5.2-7.5,6.8-15.7,5-24.5
				C340.7,20.1,336,13.3,328.2,8.4z"/>
		</g>
	</g>
	<g>
		<g>
			<path fill="#A5CD39" d="M328.2,8.4C320.4,3.6,312,2.1,302.9,4c-9.1,1.9-16.3,6.6-21.4,14.2c-5.2,7.5-6.8,15.7-5,24.5
				c1.8,8.8,6.6,15.6,14.4,20.4c7.7,4.8,16.2,6.3,25.3,4.4c9.1-1.9,16.2-6.6,21.4-14.2c5.2-7.5,6.8-15.7,5-24.5
				C340.7,20.1,336,13.3,328.2,8.4z"/>
		</g>
	</g>
	<g>
		<g>
			<path fill="#FFFFFF" d="M311.1,29.1c-2.9-2.2-5.9-2.9-9.1-2.2c-3.2,0.7-5.6,2.7-7.2,5.9c-1.7,3.2-2,6.7-1.1,10.6
				c0.9,3.9,2.7,6.9,5.6,9.1c2.9,2.2,5.9,2.9,9.1,2.2c3.2-0.7,5.6-2.7,7.2-5.9c1.6-3.2,2-6.8,1.1-10.6
				C315.8,34.3,313.9,31.3,311.1,29.1z"/>
		</g>
	</g>
	<g>
		<g>
			<path fill="#E35AA0" d="M307.4,36c-1.1-1-2.3-1.3-3.6-1c-1.3,0.3-2.2,1.1-2.9,2.4c-0.7,1.3-0.9,2.8-0.5,4.4
				c0.3,1.6,1,2.9,2.2,3.8c1.1,1,2.3,1.3,3.6,1c1.3-0.3,2.2-1,2.9-2.3c0.7-1.4,0.8-2.8,0.5-4.4C309.3,38.2,308.5,36.9,307.4,36z"/>
		</g>
	</g>
	<g>
		<g>
			<g>
				<g>
					<path fill="#A5CD39" d="M311.3,28.7c-3-2.3-6.1-3.1-9.4-2.3c-3.3,0.8-5.8,2.8-7.5,6.1c-1.7,3.3-2.1,7-1.2,11
						c0.9,4,2.9,7.1,5.8,9.4c3,2.3,6.1,3,9.4,2.3c3.3-0.8,5.8-2.8,7.5-6.1c1.7-3.3,2.1-7,1.1-11C316.2,34.1,314.3,30.9,311.3,28.7z
						 M302,27.2c3.1-0.7,6.1,0,8.9,2.2c2.8,2.1,4.6,5.1,5.5,8.8c0.8,3.8,0.5,7.2-1.1,10.4c-1.6,3.2-4,5.1-7.1,5.8
						c-3.1,0.7-6.1,0-8.9-2.2c-2.8-2.1-4.6-5.1-5.5-8.8c-0.9-3.7-0.5-7.2,1.1-10.4C296.6,29.8,298.9,27.9,302,27.2z"/>
				</g>
			</g>
		</g>
	</g>
	<g>
		<g>
			<path fill="#4B823D" d="M327.6,50.6c-0.2-0.1-0.4-0.2-0.6-0.1c-0.3,0.1-0.5,0.2-0.6,0.4c-0.1,0.2-0.2,0.5-0.1,0.7
				c0.1,0.2,0.2,0.4,0.4,0.6c0.2,0.2,0.4,0.2,0.7,0.1c0.2-0.1,0.4-0.2,0.5-0.4c0.2-0.2,0.2-0.4,0.1-0.7
				C327.9,50.9,327.8,50.7,327.6,50.6z"/>
		</g>
	</g>
	<g>
		<defs>
			<path id="SVGID_29_" d="M328.2,8.4C320.4,3.6,312,2.1,302.9,4c-9.1,1.9-16.3,6.6-21.4,14.2c-5.2,7.5-6.8,15.7-5,24.5
				c1.8,8.8,6.6,15.6,14.4,20.4c7.7,4.8,16.2,6.3,25.3,4.4c9.1-1.9,16.2-6.6,21.4-14.2c5.2-7.5,6.8-15.7,5-24.5
				C340.7,20.1,336,13.3,328.2,8.4z"/>
		</defs>
		<clipPath id="SVGID_30_">
			<use xlink:href="#SVGID_29_"  overflow="visible"/>
		</clipPath>
		<g clip-path="url(#SVGID_30_)">
			<g>
				<g>
					<path fill="#FFFFFF" d="M345.1,21.9c-2.7-2.1-5.6-2.8-8.7-2.1c-3,0.7-5.4,2.6-6.9,5.7c-1.6,3.1-1.9,6.5-1.1,10.1
						c0.9,3.7,2.7,6.6,5.4,8.7c2.7,2.1,5.6,2.8,8.7,2.1c3.1-0.7,5.4-2.6,7-5.7c1.6-3.1,1.9-6.5,1.1-10.1
						C349.6,26.9,347.8,24,345.1,21.9z"/>
				</g>
			</g>
			<g>
				<g>
					<g>
						<g>
							<path fill="#A5CD39" d="M328.8,25.3c1.6-3.2,4-5.2,7.2-5.9c3.2-0.7,6.2,0,9.1,2.2c2.9,2.2,4.7,5.2,5.6,9
								c0.9,3.8,0.5,7.3-1.1,10.5c-1.6,3.2-4.1,5.2-7.2,5.9c-3.2,0.7-6.2,0-9.1-2.2c-2.8-2.2-4.7-5.2-5.6-9
								C326.8,32,327.2,28.4,328.8,25.3z M336.2,20.1c-3,0.7-5.3,2.6-6.8,5.6c-1.5,3-1.9,6.3-1.1,9.9c0.8,3.6,2.6,6.5,5.3,8.5
								c2.7,2.1,5.6,2.8,8.6,2.1c3-0.7,5.3-2.5,6.8-5.5c1.6-3,1.9-6.3,1.1-9.9c-0.8-3.6-2.6-6.5-5.3-8.5
								C342,20.2,339.2,19.4,336.2,20.1z"/>
						</g>
					</g>
				</g>
			</g>
			<g>
				<g>
					<path fill="#E35AA0" d="M338.7,28.3c-1.1-1-2.3-1.3-3.6-1c-1.3,0.3-2.2,1.1-2.9,2.4c-0.7,1.3-0.9,2.8-0.5,4.4
						c0.3,1.6,1,2.9,2.2,3.8c1.1,1,2.3,1.3,3.6,1c1.3-0.3,2.2-1,2.9-2.3c0.7-1.4,0.8-2.8,0.5-4.4C340.6,30.5,339.8,29.2,338.7,28.3z
						"/>
				</g>
			</g>
		</g>
	</g>
	<g>
		<path fill="#778663" d="M328.3,59.6c0.8-0.8,1.4-1.8,1.9-3.1c-4.8,0.2-9.6-0.6-14.4-2.5c0,1.4,0.2,2.6,0.7,3.6
			c0.6,1.4,1.4,2.4,2.3,3.2c1,0.7,2,1.1,3,1.2c1.1,0.3,2.1,0.2,3.3-0.2C326.2,61.4,327.3,60.7,328.3,59.6z"/>
	</g>
	<g>
		<path fill="#778663" d="M328.3,59.6c0.8-0.8,1.4-1.8,1.9-3.1c-4.8,0.2-9.6-0.6-14.4-2.5c0,1.4,0.2,2.6,0.7,3.6
			c0.6,1.4,1.4,2.4,2.3,3.2c1,0.7,2,1.1,3,1.2c1.1,0.3,2.1,0.2,3.3-0.2C326.2,61.4,327.3,60.7,328.3,59.6z"/>
	</g>
	<g>
		<g>
			<g>
				<path fill="#4B823D" d="M328.3,59.6c0.8-0.8,1.4-1.8,1.9-3.1c-4.8,0.2-9.6-0.6-14.4-2.5c0,1.4,0.2,2.6,0.7,3.6
					c0.6,1.4,1.4,2.4,2.3,3.2c1,0.7,2,1.1,3,1.2c1.1,0.3,2.1,0.2,3.3-0.2C326.2,61.4,327.3,60.7,328.3,59.6z"/>
			</g>
		</g>
	</g>
	<g>
		<defs>
			<path id="SVGID_31_" d="M328.3,59.6c0.8-0.8,1.4-1.8,1.9-3.1c-4.8,0.2-9.6-0.6-14.4-2.5c0,1.4,0.2,2.6,0.7,3.6
				c0.6,1.4,1.4,2.4,2.3,3.2c1,0.7,2,1.1,3,1.2c1.1,0.3,2.1,0.2,3.3-0.2C326.2,61.4,327.3,60.7,328.3,59.6z"/>
		</defs>
		<clipPath id="SVGID_32_">
			<use xlink:href="#SVGID_31_"  overflow="visible"/>
		</clipPath>
		<g clip-path="url(#SVGID_32_)">
			<g>
				<g>
					<path fill="#F28AAF" d="M316.3,58.6c-0.7,0.4-1,0.9-0.9,1.4c0.1,0.5,0.5,1.1,1.1,1.7c0.6,0.6,1.3,1,2.1,1.3
						c0.8,0.2,1.5,0.3,2.3,0.2c0.8-0.1,1-0.6,0.9-1.5c-0.2-0.8-0.5-1.6-1-2.3c-0.5-0.7-1.2-1.1-2.1-1.3
						C317.8,58,317,58.1,316.3,58.6z"/>
				</g>
			</g>
		</g>
	</g>
	<g>
		<path d="M280.3,16.1c-0.1,0.2-0.2,0.3-0.3,0.5c-2.3,3.6-3.8,7.2-4.4,11c-0.1,0.4-0.1,0.8-0.2,1.2c-0.1,0.8-0.2,1.7-0.2,2.4
			c-0.2,3.1-0.1,6.1,0.4,8.9c0.1,1.1,0.2,2.3,0.4,3.4c0.9,6.1,3.2,11.8,6.6,16.9c1.6,2.3,3.4,4.1,5.4,5.3c0.7,0.4,1.5,0.7,2.5,0.9
			c2.1,0.4,3.7-0.1,4.9-1.3c1.2-1.2,1.7-2.9,1.3-5c-0.2-1.4-0.8-2.8-1.7-4c-0.4,1.5-1.1,2.6-2,3c-0.9,0.5-1.8,0.5-2.6,0.2
			c-0.8-0.3-1.6-1.2-2.2-2.8c-0.6-1.5-1.2-3.3-1.8-5.4c-0.4-1.1-0.7-2.3-0.9-3.6c-0.4-1.8-0.8-3.7-1.2-5.8
			c-0.7-3.5-1.3-7.4-1.9-11.7L280.3,16.1z"/>
	</g>
	<g>
		<path d="M338.8,16c-2.5-3.5-5.8-6.5-9.8-8.9c-8-4.8-16.9-6-26.9-3.7c-1,0.2-1.9,0.4-2.8,0.7c-3.2,0.9-6.7,2.3-10.4,4.3
			c-3.5,1.9-6.4,4.5-8.7,7.8c-0.1,0.2-0.2,0.3-0.3,0.5c-2.3,3.6-3.8,7.2-4.4,11c-0.1,0.4-0.1,0.8-0.2,1.2c-0.1,0.8-0.2,1.7-0.2,2.4
			c-0.1,0.7-0.1,1.8-0.1,3.2l8.1-4.7l-0.1,0c0.1-0.1,0.2-0.1,0.3-0.2c0.1,0,0.1-0.1,0.2-0.1C297.4,21.6,315.8,17.1,338.8,16z"/>
	</g>
	<g>
		<g>
			<g>
				<path fill="#A5CD39" d="M279.6,111.7c-0.5,0-1-0.2-1.4-0.6c-0.7-0.8-0.6-1.9,0.2-2.6l8.1-7c0.8-0.7,1.9-0.6,2.6,0.2
					c0.7,0.8,0.6,1.9-0.2,2.6l-8.1,7C280.5,111.5,280,111.7,279.6,111.7z"/>
			</g>
		</g>
	</g>
	<g>
		<g>
			<g>
				<path fill="#A5CD39" d="M287.4,117.9c-0.3,0-0.6-0.1-0.8-0.2c-0.9-0.5-1.3-1.6-0.8-2.5l4.7-9.5c0.5-0.9,1.6-1.3,2.5-0.8
					c0.9,0.5,1.3,1.6,0.8,2.5l-4.7,9.5C288.7,117.6,288.1,117.9,287.4,117.9z"/>
			</g>
		</g>
	</g>
	<g>
		<g>
			<g>
				<path fill="#A5CD39" d="M296.7,120c0,0-0.1,0-0.1,0c-1-0.1-1.8-1-1.7-2l0.8-10.7c0.1-1,1-1.8,2-1.7c1,0.1,1.8,1,1.7,2l-0.8,10.7
					C298.5,119.3,297.7,120,296.7,120z"/>
			</g>
		</g>
	</g>
	<g>
		<g>
			<g>
				<path fill="#A5CD39" d="M290.1,97.2c-0.3,0-0.5-0.1-0.8-0.2l-6.2-3c-0.9-0.4-1.3-1.5-0.9-2.5c0.4-0.9,1.5-1.3,2.5-0.9l6.2,3
					c0.9,0.4,1.3,1.5,0.9,2.5C291.5,96.8,290.8,97.2,290.1,97.2z"/>
			</g>
		</g>
	</g>
	<g>
		<g>
			<g>
				<g>
					<g>
						<path fill="#A5CD39" d="M302.1,106.3c-1.5,2-3.5,3.3-6,3.6c-2.5,0.4-4.8-0.2-6.8-1.7c-2.1-1.5-3.3-3.5-3.7-6
							c-0.4-2.5,0.2-4.8,1.7-6.8c1.5-2.1,3.5-3.3,6-3.7c2.5-0.4,4.8,0.2,6.9,1.7c2.1,1.5,3.3,3.5,3.6,6
							C304.2,101.9,303.6,104.2,302.1,106.3z"/>
					</g>
				</g>
			</g>
		</g>
	</g>
	<g>
		<defs>
			<path id="SVGID_33_" d="M302.1,106.3c-1.5,2-3.5,3.3-6,3.6c-2.5,0.4-4.8-0.2-6.8-1.7c-2.1-1.5-3.3-3.5-3.7-6
				c-0.4-2.5,0.2-4.8,1.7-6.8c1.5-2.1,3.5-3.3,6-3.7c2.5-0.4,4.8,0.2,6.9,1.7c2.1,1.5,3.3,3.5,3.6,6
				C304.2,101.9,303.6,104.2,302.1,106.3z"/>
		</defs>
		<clipPath id="SVGID_34_">
			<use xlink:href="#SVGID_33_"  overflow="visible"/>
		</clipPath>
		<g clip-path="url(#SVGID_34_)">
			<g>
				<g>
					<path fill="#4B823D" d="M293.9,104.1c-0.3,0-0.6,0-0.9-0.1l-0.2,0c-0.3,0-0.4-0.3-0.4-0.5c0-0.3,0.3-0.4,0.5-0.4l0.2,0
						c0.3,0,0.6,0.1,0.9,0.1c1.1,0,2-0.5,2.9-1.3c0.7-0.8,1.1-1.8,1-2.9c0-1.1-0.4-2-1.3-2.8c-0.2-0.2-0.5-0.4-0.7-0.5
						c-0.2-0.1-0.3-0.4-0.2-0.6c0.1-0.2,0.4-0.3,0.6-0.2c0.3,0.2,0.6,0.4,0.9,0.7c1,0.9,1.6,2.1,1.6,3.5c0.1,1.3-0.4,2.5-1.3,3.5
						c-1,1-2.1,1.6-3.5,1.6C294,104.1,293.9,104.1,293.9,104.1z"/>
				</g>
			</g>
		</g>
	</g>
</g>
</svg>
