<?xml version="1.0" encoding="utf-8"?>
<!-- Generator: Adobe Illustrator 16.0.3, SVG Export Plug-In . SVG Version: 6.00 Build 0)  -->
<!DOCTYPE svg PUBLIC "-//W3C//DTD SVG 1.1//EN" "http://www.w3.org/Graphics/SVG/1.1/DTD/svg11.dtd">
<svg version="1.1" id="Layer_1" xmlns="http://www.w3.org/2000/svg" xmlns:xlink="http://www.w3.org/1999/xlink" x="0px" y="0px"
	 width="43.364px" height="30.865px" viewBox="0 0 43.364 30.865" enable-background="new 0 0 43.364 30.865" xml:space="preserve">
<path fill-rule="evenodd" clip-rule="evenodd" fill="#FFFFFF" d="M43.364,14.418c0,3.644-0.621,6.459-1.868,8.445
	c-2.822,4.717-5.562,7.368-8.227,7.947c-0.746,0.165-1.241-0.041-1.494-0.62l-0.121-0.871c0-0.165,0.951-1.118,2.862-2.854
	c2.081-1.988,3.41-3.52,3.987-4.596c1.246-2.401,1.873-4.885,1.873-7.451c0-3.228-0.874-6.25-2.62-9.062
	c-1.741-2.236-2.614-3.561-2.614-3.976c0-1.406,0.621-1.739,1.867-0.992c0.582,0.413,1.329,0.992,2.246,1.737
	c1.159,1.408,2.076,2.732,2.74,3.975C42.908,7.671,43.364,10.445,43.364,14.418z M30.408,4.237c0.83-0.333,1.658,0,2.488,0.991
	c0.252,0.168,0.955,1.201,2.119,3.104c0.582,1.077,0.873,3.189,0.873,6.335c0,1.654,0,2.566,0,2.731
	c-0.082,0.827-0.416,1.862-0.998,3.104c-1.742,3.56-3.406,5.34-4.982,5.34c-0.664,0-1.12-0.25-1.372-0.747
	c-0.165-0.247-0.247-0.536-0.247-0.868c0-0.662,0.538-1.447,1.619-2.359c1.164-1.159,1.867-1.986,2.12-2.483
	c0.577-1.654,0.868-3.27,0.868-4.844c0-2.398-0.577-4.552-1.741-6.456c-1.164-1.406-1.746-2.277-1.746-2.607
	C29.409,4.899,29.744,4.484,30.408,4.237z M29.535,15.163c0,0.912-0.291,1.947-0.873,3.104c-0.83,1.656-1.994,2.483-3.488,2.483
	c-0.664,0-1.125-0.247-1.372-0.745c-0.165-0.329-0.247-0.62-0.247-0.868c0-0.662,0.455-1.2,1.367-1.615
	c0.917-0.329,1.373-0.909,1.373-1.738c0-1.324-0.417-2.357-1.246-3.104c-0.83-0.662-1.247-1.201-1.247-1.613
	c0-0.994,0.582-1.532,1.746-1.615c1.247-0.082,2.202,0.539,2.866,1.863C29.162,12.556,29.535,13.839,29.535,15.163z M20.809,3.616
	c0,9.022,0,13.948,0,14.777c0,1.241-0.165,3.187-0.495,5.835c0,1.904,0,2.98,0,3.229c-0.169,1.491-0.665,2.236-1.499,2.236
	c-0.665,0-2.241-0.995-4.734-2.981c-3.57-2.98-5.563-4.635-5.981-4.967c-1.576,0.083-2.619-0.041-3.114-0.373H1.12
	C0.374,21.289,0,20.627,0,19.386l0.126-1.118v-6.333c0-0.991,0-1.738,0-2.233c0.083-0.912,0.539-1.574,1.368-1.988l7.228-0.124
	c0.582-0.497,1.911-1.324,3.992-2.483c1.824-1.077,3.114-1.986,3.861-2.731C19.397-0.441,20.809-0.026,20.809,3.616z"/>
</svg>
