<?xml version="1.0" encoding="utf-8"?>
<!-- Generator: Adobe Illustrator 16.0.3, SVG Export Plug-In . SVG Version: 6.00 Build 0)  -->
<!DOCTYPE svg PUBLIC "-//W3C//DTD SVG 1.1//EN" "http://www.w3.org/Graphics/SVG/1.1/DTD/svg11.dtd">
<svg version="1.1" id="Layer_1" xmlns="http://www.w3.org/2000/svg" xmlns:xlink="http://www.w3.org/1999/xlink" x="0px" y="0px"
	 width="40px" height="40px" viewBox="0 0 40 40" enable-background="new 0 0 40 40" xml:space="preserve">
<path fill="#FFFFFF" d="M27.608,16.316c4.948,2.255,7.424,3.675,7.424,4.257c0,0.727-1.638,2.073-4.911,4.036
	c-2.837,1.748-5.386,3.095-7.641,4.039c-0.653,0.22-3.057,1.603-7.203,4.146c-3.711,2.33-6.039,3.493-6.984,3.493
	c-1.02,0-1.673-0.292-1.965-0.874c-0.072-0.582-0.108-0.908-0.108-0.982V10.313c-0.145-0.29-0.218-0.872-0.218-1.746
	c0-2.91,1.637-3.347,4.911-1.309c1.817,1.164,4.547,2.91,8.186,5.238C19.535,12.789,22.373,14.061,27.608,16.316z"/>
</svg>
