<?xml version="1.0" encoding="utf-8"?>
<!-- Generator: Adobe Illustrator 16.0.3, SVG Export Plug-In . SVG Version: 6.00 Build 0)  -->
<!DOCTYPE svg PUBLIC "-//W3C//DTD SVG 1.1//EN" "http://www.w3.org/Graphics/SVG/1.1/DTD/svg11.dtd">
<svg version="1.1" id="Layer_1" xmlns="http://www.w3.org/2000/svg" xmlns:xlink="http://www.w3.org/1999/xlink" x="0px" y="0px"
	 width="40px" height="40px" viewBox="0 0 40 40" enable-background="new 0 0 40 40" xml:space="preserve">
<path fill="#FFFFFF" d="M30.414,5.333c0.991,0,1.862,0.495,2.606,1.489c0.332,0.248,0.498,0.415,0.498,0.497
	c0.082,0.248,0.082,0.786,0,1.613V17.5c0,0.415,0,3.561,0,9.437c-0.166,2.484-0.291,4.886-0.375,7.203v0.125
	c-0.082,1.82-2.067,2.732-5.959,2.732c-2.567,0-3.852-0.621-3.852-1.862V35.01l-0.123-0.124c-0.164-0.164-0.248-0.621-0.248-1.365
	l0.992-26.45c0.086-0.083,0.168-0.124,0.25-0.124c0.33-1.654,2.359-2.233,6.086-1.739C30.373,5.207,30.414,5.248,30.414,5.333z
	 M18.12,12.907c0,1.654-0.042,3.27-0.124,4.844l0.371,15.77c0,1.242-0.206,2.109-0.621,2.606c-0.909,0.995-2.937,1.492-6.083,1.492
	c-2.318,0-3.519-0.58-3.602-1.739c0.083-0.332,0.083-7.244,0-20.738c-0.083-0.413-0.083-1.572,0-3.476
	c0.083-1.821,0.206-3.044,0.371-3.665V7.196c0.17-0.08,0.334-0.163,0.497-0.25c1.118-1.834,3.063-2.372,5.838-1.613
	c0.09,0.013,0.172,0.032,0.248,0.061c0.056,0.015,0.116,0.034,0.187,0.063c0.711,0.201,1.477,0.49,2.297,0.868
	C18.079,7.484,18.285,9.68,18.12,12.907z"/>
</svg>
