<?xml version="1.0" encoding="utf-8"?>
<!-- Generator: Adobe Illustrator 16.0.3, SVG Export Plug-In . SVG Version: 6.00 Build 0)  -->
<!DOCTYPE svg PUBLIC "-//W3C//DTD SVG 1.1//EN" "http://www.w3.org/Graphics/SVG/1.1/DTD/svg11.dtd">
<svg version="1.1" id="Layer_1" xmlns="http://www.w3.org/2000/svg" xmlns:xlink="http://www.w3.org/1999/xlink" x="0px" y="0px"
	 width="38.742px" height="33.791px" viewBox="0 0 38.742 33.791" enable-background="new 0 0 38.742 33.791" xml:space="preserve">
<path fill-rule="evenodd" clip-rule="evenodd" fill="#FFFFFF" d="M25.33,31.195c-0.166,1.482-0.66,2.225-1.49,2.225
	c-0.659,0-2.235-0.99-4.719-2.967c-3.556-2.969-5.544-4.617-5.957-4.947c-1.577,0.082-2.61-0.041-3.104-0.371H6.208
	c-0.747-0.083-1.116-0.742-1.116-1.977l0.122-1.113v-6.306c0-0.989,0-1.731,0-2.227c0.083-0.907,0.538-1.566,1.368-1.979
	l7.203-0.123c0.577-0.495,1.901-1.319,3.973-2.472c1.819-1.072,3.104-1.979,3.847-2.722c2.817-2.803,4.225-2.391,4.225,1.237
	c0,8.985,0,13.89,0,14.715c0,1.236-0.165,3.172-0.499,5.811C25.33,29.876,25.33,30.948,25.33,31.195z"/>
<path fill-rule="evenodd" clip-rule="evenodd" fill="#FFFFFF" d="M7.324,3.188c3.075,2.132,7.174,5.449,12.296,9.953
	c6.374,5.688,12.747,11.704,19.122,18.054c0,0.575-0.287,1.152-0.869,1.729c-0.577,0.577-1.115,0.866-1.615,0.866
	c-1.818,0-8.357-5.44-19.621-16.322c-1.406-1.383-2.813-2.763-4.22-4.143c-1.363-1.074-3.265-2.743-5.714-5.006
	C2.236,4.197,0,2.177,0,2.259C0-0.13,1.324-0.624,3.973,0.777C5.166,1.479,6.286,2.281,7.324,3.188z"/>
</svg>
