<?xml version="1.0" encoding="utf-8"?>
<!-- Generator: Adobe Illustrator 16.0.3, SVG Export Plug-In . SVG Version: 6.00 Build 0)  -->
<!DOCTYPE svg PUBLIC "-//W3C//DTD SVG 1.1//EN" "http://www.w3.org/Graphics/SVG/1.1/DTD/svg11.dtd">
<svg version="1.1" id="Layer_1" xmlns="http://www.w3.org/2000/svg" xmlns:xlink="http://www.w3.org/1999/xlink" x="0px" y="0px"
	 width="38.663px" height="37.732px" viewBox="0 0 38.663 37.732" enable-background="new 0 0 38.663 37.732" xml:space="preserve">
<path fill-rule="evenodd" clip-rule="evenodd" fill="#FFFFFF" d="M37.909,16.363c0.062,0.062,0.122,0.118,0.172,0.175
	c0,0.155-0.078,0.348-0.231,0.583c-0.232,0.31-0.505,0.466-0.814,0.466c-3.185-2.564-5.009-3.844-5.474-3.844
	c-3.338,3.648-5.281,5.473-5.822,5.473c-0.469,0-1.205-0.544-2.215-1.629c-1.01-1.165-1.593-1.826-1.747-1.981
	c-2.253-2.017-3.375-3.221-3.375-3.609c0-0.5,0.232-0.792,0.696-0.874c0.177-0.339,0.491-0.707,0.933-1.105
	c0.391-0.389,0.973-0.894,1.747-1.515c0.778-0.698,1.593-1.746,2.446-3.143c-2.482-2.175-3.725-3.533-3.725-4.077
	C20.499,0.427,25.739,0,36.22,0c1.63,0,2.443,0.894,2.443,2.679l-0.35,9.084c0,0.31-0.037,1.358-0.114,3.144
	C38.14,15.515,38.04,15.998,37.909,16.363z M4.309,21.663c1.319,1.241,2.061,1.862,2.215,1.862c0.387,0,1.433-0.894,3.144-2.679
	c0.541-0.545,1.01-1.049,1.396-1.514c0.778-0.854,1.283-1.282,1.515-1.282c5.354,4.893,8.034,7.454,8.034,7.688
	c0,0.465-1.01,1.474-3.025,3.027c-2.174,1.709-3.262,2.6-3.262,2.678c0.386,0.232,1.124,1.047,2.211,2.447
	c1.165,1.396,1.747,2.249,1.747,2.561c0,0.854-0.386,1.28-1.165,1.28L1.046,37.617C0.428,37.15,0.078,36.49,0,35.637
	c0.078-0.855,0.078-1.516,0-1.98c0-2.561,0-3.922,0-4.076l0.232-5.125c-0.077-1.084-0.077-1.979,0-2.678
	c0-1.398,0.428-2.098,1.283-2.098C2.057,19.68,2.989,20.341,4.309,21.663z"/>
</svg>
