<?xml version="1.0" encoding="utf-8"?>
<!-- Generator: Adobe Illustrator 16.0.3, SVG Export Plug-In . SVG Version: 6.00 Build 0)  -->
<!DOCTYPE svg PUBLIC "-//W3C//DTD SVG 1.1//EN" "http://www.w3.org/Graphics/SVG/1.1/DTD/svg11.dtd">
<svg version="1.1" id="Layer_1" xmlns="http://www.w3.org/2000/svg" xmlns:xlink="http://www.w3.org/1999/xlink" x="0px" y="0px"
	 width="44.117px" height="29.555px" viewBox="0 0 44.117 29.555" enable-background="new 0 0 44.117 29.555" xml:space="preserve">
<path fill-rule="evenodd" clip-rule="evenodd" fill="#FFFFFF" d="M43.736,10.682c0,0.495-0.165,0.786-0.495,0.868
	c-0.087,0-0.955,0-2.619,0c-1.746-0.247-2.949-0.373-3.614-0.373c-0.499-2.648-1.328-4.097-2.492-4.347
	c-1.994-0.412-2.988,2.61-2.988,9.066c0,1.573,0.082,2.771,0.247,3.602c0.165,1.406,0.874,2.318,2.12,2.73h1.246
	c0.747-0.992,1.247-2.151,1.494-3.476c0.082-0.579,0.747-0.87,1.994-0.87c3.657,0,5.486,0.497,5.486,1.491
	c0,1.489-0.665,3.311-1.999,5.462c-1.741,2.65-3.778,4.14-6.103,4.472c-0.999,0.33-2.201,0.33-3.613,0
	c-2.91-0.662-5.234-2.483-6.98-5.464c-1.411-2.565-2.119-5.299-2.119-8.195c0-1.159,0.209-2.815,0.625-4.967
	c0.248-1.988,0.495-3.23,0.748-3.726c1.658-2.98,3.157-4.926,4.486-5.837c1.159-0.745,2.905-1.118,5.234-1.118
	c3.152,0,5.607,1.491,7.348,4.472C43.072,6.624,43.736,8.693,43.736,10.682z M20.312,10.682c0,0.495-0.169,0.786-0.5,0.868
	c-0.083,0-0.956,0-2.619,0c-1.742-0.247-2.949-0.373-3.614-0.373c-0.412-2.648-1.247-4.097-2.488-4.347
	c-1.999-0.412-2.993,2.61-2.993,9.066c0,1.573,0.083,2.771,0.248,3.602c0.17,1.406,0.873,2.318,2.12,2.73h1.247
	c0.83-0.992,1.329-2.151,1.494-3.476c0.083-0.579,0.747-0.87,1.994-0.87c3.657,0,5.486,0.497,5.486,1.491
	c0,1.489-0.665,3.311-1.994,5.462c-1.746,2.65-3.783,4.14-6.107,4.472c-0.999,0.33-2.158,0.33-3.492,0
	c-2.988-0.662-5.316-2.483-6.975-5.464c-1.412-2.565-2.12-5.299-2.12-8.195c0-1.159,0.165-2.815,0.5-4.967
	c0.33-1.988,0.582-3.23,0.747-3.726c1.659-2.98,3.196-4.926,4.613-5.837c1.077-0.745,2.823-1.118,5.234-1.118
	c3.07,0,5.481,1.491,7.228,4.472C19.647,6.624,20.312,8.693,20.312,10.682z"/>
</svg>
