<?xml version="1.0" encoding="utf-8"?>
<!-- Generator: Adobe Illustrator 16.0.3, SVG Export Plug-In . SVG Version: 6.00 Build 0)  -->
<!DOCTYPE svg PUBLIC "-//W3C//DTD SVG 1.1//EN" "http://www.w3.org/Graphics/SVG/1.1/DTD/svg11.dtd">
<svg version="1.1" id="Layer_1" xmlns="http://www.w3.org/2000/svg" xmlns:xlink="http://www.w3.org/1999/xlink" x="0px" y="0px"
	 width="40.289px" height="21.693px" viewBox="0 0 40.289 21.693" enable-background="new 0 0 40.289 21.693" xml:space="preserve">
<path fill="#7BAFBB" d="M28.057,5.052c-3-3.698-6.379-5.051-7.152-5.051c-0.967,0-2.76,1.224-5.371,3.67
	c-2.325,2.12-4.114,4.023-5.373,5.709c-0.29,0.489-2.129,2.284-5.515,5.384C1.547,17.536,0,19.275,0,19.983
	c0,0.763,0.387,1.25,1.161,1.469c0.774,0.055,1.208,0.081,1.307,0.081H34.55c0.388,0.107,1.16,0.162,2.322,0.162
	c3.871,0,4.451-1.223,1.74-3.67c-1.548-1.358-2.379-3.895-5.477-6.613C32.748,11.085,31.057,8.965,28.057,5.052z"/>
</svg>
