<?xml version="1.0" encoding="utf-8"?>
<!-- Generator: Adobe Illustrator 14.0.0, SVG Export Plug-In . SVG Version: 6.00 Build 43363)  -->
<!DOCTYPE svg PUBLIC "-//W3C//DTD SVG 1.1//EN" "http://www.w3.org/Graphics/SVG/1.1/DTD/svg11.dtd">
<svg version="1.1" id="Layer_1" xmlns="http://www.w3.org/2000/svg" xmlns:xlink="http://www.w3.org/1999/xlink" x="0px" y="0px"
	 width="438px" height="175px" viewBox="0 0 438 175" enable-background="new 0 0 438 175" xml:space="preserve">
<g>
	<g>
		<polygon fill="#62C5BD" points="397.793,101 397.242,116.721 414.871,116.717 414.871,101 		"/>
		<polyline fill="none" stroke="#FFFFFF" stroke-miterlimit="10" points="1,0 2.095,125.393 45.041,126 47.47,119.559 49.9,129.046 
			54.152,119.559 57.069,129.046 60.106,119.559 63.75,130.261 67.275,118.951 70.432,129.653 72.742,123.818 90.382,124.059 
			89.975,93.942 		"/>
		<polyline fill="none" stroke="#FFFFFF" stroke-miterlimit="10" points="293.371,91 293.371,126.5 344.891,126.5 343.254,100.5 
			381.371,100.5 381.371,65.5 402.371,65.5 402.371,109.173 436.371,109.993 436.371,100.5 427.371,100.5 427.371,175 		"/>
		<polygon fill="#ED2272" points="257.32,59.193 71.771,57.544 71.476,107.15 258.357,107.719 		"/>
		<rect x="270.871" y="52" fill="#FFFFFF" width="46" height="62"/>
		<rect x="275.871" y="57" fill="#62C5BD" width="36" height="49"/>
		<circle fill="none" stroke="#D3D3D3" stroke-miterlimit="10" cx="293.809" cy="109.636" r="1.984"/>
		<rect x="329.871" y="75" fill="#FFFFFF" width="28" height="39"/>
		<rect x="333.871" y="78" fill="#ABD037" width="20" height="32"/>
		<g>
			<path fill="#222020" d="M284.625,46.129c8.139,5.372,16.402,0.73,16.402,0.73l-0.461-1.496c0,0-8.619,4.526-15.371-0.686
				L284.625,46.129z"/>
			<path fill="#222020" d="M297.207,47.176c0,0,0.201-7.636-0.9-8.004c-1.98-0.661-1.334,1.814-2.932,1.781
				s-1.104-2.052-2.742-1.916c-1.637,0.136-1.385,7.146-1.295,8.237C289.428,48.365,296.041,49.03,297.207,47.176"/>
		</g>
		<polygon fill="#ED2272" points="335.871,64.319 335.871,70.273 350.871,64.815 350.871,70.273 		"/>
		<g>
			<g>
				<path fill="#FFFFFF" d="M38.479,54.713c-14.747,0-26.701,11.92-26.701,26.626c0,14.704,11.954,26.624,26.701,26.624
					c14.744,0,26.7-11.92,26.7-26.624C65.179,66.633,53.223,54.713,38.479,54.713"/>
				<path fill="#A5CD39" d="M38.462,55.621c-14.194,0-25.7,11.49-25.7,25.664c0,14.173,11.505,25.662,25.7,25.662
					c14.191,0,25.7-11.489,25.7-25.662C64.162,67.111,52.654,55.621,38.462,55.621"/>
				<path fill="#FFFFFF" d="M19.745,69.796c0.021-3.19,1.759-6.098,4.617-8.318c4.034-2.962,8.98-4.688,14.314-4.645
					c5.138,0.043,9.888,1.717,13.797,4.54c3.059,2.297,4.917,5.347,4.896,8.682c-0.025,3.771-2.447,7.145-6.281,9.46l0.003,0.002
					c-3.689,2.257-8.006,3.537-12.612,3.5c-5.492-0.043-10.543-1.953-14.589-5.14C21.277,75.661,19.726,72.846,19.745,69.796"/>
				<path fill="#0E0F19" d="M41.977,65.385c0.947-0.52,1.125-1.919,1.126-2.358c-0.002-1.933-1.493-3.22-4.162-3.22
					c-0.999-0.002-2.108,0.126-3.658,0.448l0,0c-0.079,0.018-0.137,0.091-0.139,0.179c0.001,0.014,0.002,0.029,0.005,0.043
					c0.408,2.464,0.389,6.306,0.06,10.191c-0.005,0.015-0.008,0.027-0.008,0.042c0,0.09,0.067,0.163,0.151,0.176
					c0.958,0.21,2.852,0.399,3.905,0.399c2.528-0.002,4.426-1.388,4.424-3.387C43.683,66.643,43.12,65.881,41.977,65.385
					 M38.912,62.167c0.951,0,1.599,0.495,1.608,1.206c0.021,1.354-2.208,1.145-2.382,1.106l-0.018-2.213
					C38.107,62.268,38.238,62.167,38.912,62.167 M39.164,69.021c-0.37,0-0.706-0.032-1.031-0.114l0.004-2.259
					c0,0,0.545-0.064,0.851-0.063c0.826,0.001,1.85,0.289,1.834,1.112C40.81,68.378,40.586,69.021,39.164,69.021"/>
				<path fill="#0E0F19" d="M28.501,61.142c-1.115,0.255-2.325,0.666-3.109,1.056c-0.001,0-0.001,0.001-0.003,0.001
					c-0.175,0.066-0.093,0.221-0.091,0.223c0.79,1.837,2.167,8.053,2.368,10.13v0.001c-0.002,0.016,0.001,0.028,0.004,0.046
					c0.021,0.094,0.117,0.155,0.21,0.132c0.002,0,2.61-0.792,2.611-0.792c0.099-0.021,0.157-0.115,0.137-0.211
					c-0.003-0.005-0.005-0.009-0.006-0.012c-0.013-0.053-0.029-0.119-0.054-0.228l-0.14-0.537l-0.428-1.949
					c0,0,0.67-0.138,0.716-0.147c2.827-0.649,4.323-2.793,3.807-5.049C33.994,61.485,31.612,60.426,28.501,61.142 M29.87,66.522
					c-0.208,0.049-0.439,0.068-0.437,0.067l-0.668-2.916c0,0,0.527-0.173,0.75-0.225c1.115-0.254,1.943,0.238,2.146,1.129
					C31.874,65.497,31.299,66.195,29.87,66.522"/>
				<path fill="#0E0F19" d="M50.209,64.318c0.029,0.034,0.189,0.115,0.238,0.119c0.081,0.006,0.115-0.037,0.115-0.037s0,0,0.001,0
					c0.166-0.134-0.016,0.022,1.423-1.654c0.028-0.025,0.046-0.062,0.054-0.104c0.018-0.081-0.055-0.162-0.061-0.158
					c-0.009,0.01-1.377-1.281-3.392-1.496c-2.505-0.27-4.266,1.222-4.404,3.402c-0.111,1.821,1.145,2.852,3.613,3.661
					c1.763,0.578,1.166,1.791,0.079,1.742c-0.695-0.03-1.754-0.514-2.414-1.141c0,0-0.026-0.035-0.096-0.046
					c-0.063-0.012-0.123,0.014-0.159,0.06l-1.412,1.624c0,0.002-0.04,0.061-0.049,0.099c-0.016,0.098,0.059,0.155,0.059,0.155
					c1.004,1.043,2.389,1.631,3.756,1.717c2.348,0.145,4.045-1.244,4.213-3.313c0.181-2.198-1.716-3.004-3.055-3.449
					c-1.153-0.384-1.644-0.74-1.597-1.24C47.176,63.759,48.137,63.032,50.209,64.318"/>
				<path fill="#FFFFFF" d="M55.504,83.22c1.513,0.632,3.251-0.082,3.883-1.596c0.634-1.512-0.081-3.251-1.592-3.883
					c-1.512-0.633-3.253,0.081-3.884,1.593C53.278,80.848,53.991,82.588,55.504,83.22"/>
				<path fill="#FFFFFF" d="M49.501,90.229c-0.052-1.492-1.301-2.66-2.792-2.608c-1.492,0.05-2.66,1.3-2.609,2.791
					c0.052,1.491,1.302,2.659,2.792,2.609C48.384,92.969,49.552,91.718,49.501,90.229"/>
				<path fill="#FFFFFF" d="M35.634,98.858c2.625-0.651,4.224-3.293,3.569-5.904c-0.651-2.609-3.311-4.196-5.935-3.545
					c-2.624,0.65-4.221,3.292-3.568,5.904C30.352,97.921,33.009,99.51,35.634,98.858"/>
				<path fill="#0E0F19" d="M44.545,99.414c0.694-0.487,0.86-1.448,0.371-2.139c-0.49-0.689-1.457-0.855-2.149-0.368
					c-0.695,0.488-0.86,1.447-0.37,2.139c0.239,0.333,0.593,0.558,1,0.627C43.801,99.741,44.209,99.65,44.545,99.414 M43.261,98.438
					c-0.154-0.218-0.101-0.519,0.116-0.671c0.218-0.153,0.522-0.103,0.675,0.115c0.152,0.217,0.1,0.519-0.115,0.671
					c-0.108,0.072-0.235,0.101-0.363,0.08C43.447,98.611,43.335,98.543,43.261,98.438"/>
				<path fill="#0E0F19" d="M47.012,99.614c-2.061,2.528-5.421,2.815-5.453,2.818l-0.024,0.001l-0.026,0.004
					c-3.91,0.607-6.994-1.293-7.024-1.314c-0.275-0.172-0.641-0.088-0.815,0.187c-0.176,0.277-0.093,0.644,0.182,0.818
					c0.139,0.087,3.459,2.148,7.811,1.484c0.273-0.021,3.92-0.366,6.267-3.249c0.088-0.107,0.131-0.233,0.135-0.361
					c0.002-0.176-0.074-0.353-0.221-0.471C47.591,99.322,47.217,99.362,47.012,99.614"/>
				<path fill="#0E0F19" d="M33.126,88.834c-1.426,0.352-2.63,1.24-3.386,2.494c-0.749,1.249-0.968,2.715-0.616,4.126
					c0.732,2.924,3.714,4.707,6.652,3.979c1.426-0.354,2.63-1.24,3.386-2.498c0.751-1.247,0.97-2.714,0.616-4.125
					C39.046,89.889,36.063,88.104,33.126,88.834 M30.273,95.167c-0.275-1.103-0.104-2.249,0.484-3.228
					c0.591-0.984,1.537-1.682,2.656-1.956c2.302-0.574,4.643,0.826,5.213,3.115c0.075,0.297,0.119,0.597,0.129,0.896
					c0.026,0.813-0.182,1.619-0.61,2.33c-0.593,0.987-1.535,1.684-2.656,1.959C33.188,98.854,30.846,97.458,30.273,95.167"/>
				<path fill="#0E0F19" d="M31.752,96.502c0.968,0.125,1.852-0.555,1.979-1.516c0.125-0.962-0.554-1.843-1.522-1.967
					c-0.966-0.126-1.854,0.553-1.979,1.513C30.104,95.496,30.784,96.377,31.752,96.502"/>
				<path fill="#0E0F19" d="M43.571,90.427c0.062,1.78,1.56,3.18,3.338,3.118c1.779-0.061,3.177-1.557,3.118-3.337
					c-0.062-1.777-1.558-3.178-3.337-3.117C44.909,87.15,43.51,88.65,43.571,90.427 M44.534,90.397
					c-0.042-1.247,0.942-2.302,2.188-2.343c1.251-0.042,2.302,0.94,2.345,2.189c0.043,1.248-0.941,2.3-2.189,2.342
					C45.628,92.63,44.577,91.646,44.534,90.397"/>
				<path fill="#0E0F19" d="M45.598,91.853c0.648,0.084,1.243-0.374,1.325-1.021c0.086-0.65-0.37-1.244-1.023-1.329
					c-0.647-0.086-1.241,0.373-1.327,1.021C44.491,91.173,44.949,91.768,45.598,91.853"/>
				<path fill="#0E0F19" d="M52.546,90.697c-0.706-3.556-2.728-6.639-5.71-8.728h0.001c-0.004-0.003-0.009-0.006-0.013-0.009
					c-0.116-0.081-0.229-0.164-0.348-0.242c-0.446-0.291-0.905-0.555-1.374-0.79c-3.394-1.82-8.959-3.595-21.715,1.595L25.74,84.7
					l-4.638,1.657l3.579,2.322l-4.167,1.539l3.905,2.77c-1.292,0.658-2.191,1.98-2.226,3.53c-0.046,2.243,1.741,4.104,3.98,4.149
					c0.336,0.008,0.661-0.031,0.977-0.102c3.005,4.655,8.65,7.311,14.417,6.247c3.583-0.663,6.698-2.653,8.774-5.61
					C52.497,98.128,53.28,94.396,52.546,90.697 M26.199,99.511c-1.604-0.032-2.882-1.365-2.848-2.97
					c0.025-1.166,0.741-2.158,1.746-2.599c0.038,0.589,0.115,1.181,0.232,1.775c0.266,1.346,0.726,2.605,1.341,3.763
					C26.515,99.502,26.359,99.514,26.199,99.511 M49.329,100.537c-1.892,2.696-4.729,4.512-7.991,5.113
					c-6.881,1.269-13.583-3.275-14.946-10.13c-0.522-2.64-0.177-5.243,0.839-7.52l18.122-5.575c0.146,0.088,0.291,0.179,0.435,0.271
					c2.911,1.911,4.884,4.831,5.556,8.221C52.019,94.309,51.301,97.727,49.329,100.537"/>
				<path fill="#FFFFFF" d="M52.75,84.941c-0.458,0.753-0.224,1.735,0.524,2.189c0.75,0.465,1.729,0.229,2.191-0.521
					c0.459-0.751,0.225-1.732-0.525-2.192C54.191,83.958,53.208,84.192,52.75,84.941"/>
				<path fill="#0E0F19" d="M36.952,77.926l0.003,0.001l-0.083-0.431l-0.059-0.798l-0.001-0.03l-0.12-2.444l-0.001-0.034
					l-0.012-0.786l0.038-0.396l-0.001-0.006c0-0.021-0.016-0.038-0.036-0.037c0,0-0.35,0.017-0.683,0.034
					c-0.336,0.015-0.683,0.033-0.683,0.033c-0.018,0-0.033,0.018-0.034,0.039h0l0.001,0.007l0.074,0.39l0.065,0.783l0.003,0.036
					l0.116,2.444l0.002,0.029l0.021,0.801l-0.045,0.438c0,0.003,0,0.005,0,0.007c0,0.023,0.019,0.04,0.04,0.039l0.066-0.005
					l1.229-0.06l0.069-0.003c0.021,0,0.034-0.019,0.034-0.042C36.958,77.932,36.952,77.93,36.952,77.926"/>
				<path fill="#0E0F19" d="M43.005,75.638c-0.06,1.595-1.549,2.494-3.062,2.438c-0.355-0.016-0.423-0.024-0.751-0.051
					c-0.327-0.025-0.764-0.028-0.764-0.028l-0.07-0.002c-0.021-0.002-0.036-0.021-0.035-0.043c0-0.004,0-0.006,0.001-0.01h-0.001
					l0.086-0.44l0.05-0.814l-0.001-0.031l0.095-2.49l0.004-0.038l0.002-0.801l-0.045-0.403l0.001-0.007
					c0-0.021,0.02-0.039,0.039-0.038c0,0,0.317,0.015,0.437,0.016c0.171,0,0.739-0.026,1.117-0.009
					C41.757,72.96,43.067,74.005,43.005,75.638 M40.125,74.012c-0.118-0.005-0.172,0.002-0.267,0.018l-0.009,0.146l0,0.039
					l-0.097,2.492v0.03l-0.004,0.268c0.089,0.017,0.167,0.031,0.253,0.035c0.79,0.029,1.645-0.429,1.683-1.357
					C41.72,74.711,40.9,74.041,40.125,74.012"/>
				<path fill="#0E0F19" d="M34.512,77.991l-2.198-2.118c0.475-0.545,0.988-1.057,1.533-1.525v-0.002
					c0.01-0.009,0.017-0.024,0.014-0.037c-0.002-0.011-0.009-0.02-0.017-0.026l-0.877-0.874c-0.012-0.008-0.02-0.013-0.032-0.012
					c-0.004,0.004-0.012,0.006-0.016,0.008c0,0,0-0.001-0.002,0c-0.84,0.74-1.642,1.604-2.319,2.511l-0.168-0.935l-0.006-0.035
					l-0.114-0.776l-0.011-0.397l-0.002-0.009c-0.006-0.019-0.024-0.034-0.043-0.031c0,0-0.342,0.062-0.67,0.123
					c-0.333,0.06-0.675,0.12-0.675,0.12c-0.019,0.004-0.032,0.024-0.028,0.045v0.008l0.126,0.376l0.167,0.769l0.005,0.034
					l0.436,2.407l0.006,0.029l0.122,0.791l0.013,0.44h0.002c0,0.003-0.002,0.004-0.002,0.006c0.005,0.024,0.024,0.039,0.043,0.034
					l0,0.001l0.068-0.012l1.209-0.219l0.067-0.013c0.023-0.005,0.034-0.024,0.03-0.045c0-0.005-0.002-0.007-0.002-0.009h0.002
					l-0.142-0.416l-0.095-0.466l0.009-0.031c0.193-0.304,0.398-0.599,0.61-0.889l1.445,1.5v-0.002
					c0.006,0.011,0.02,0.018,0.031,0.016c0.002,0,0.002-0.001,0.005-0.002v0.001l1.459-0.264v-0.002c0.003,0,0.003,0,0.003,0
					c0.021-0.003,0.034-0.024,0.031-0.046C34.525,78.006,34.518,77.998,34.512,77.991"/>
				<path fill="#0E0F19" d="M48.28,77.375c0.299-2.197-2.972-1.82-2.871-2.53c0.062-0.471,1.378-0.613,2.325,0.452
					c0,0.001,0,0.001,0.001,0.002c0.007,0.004,0.013,0.01,0.021,0.011c0.015,0,0.025-0.006,0.035-0.015v-0.002
					c0.138-0.145,0.654-0.717,0.764-0.842c0.001,0,0.002-0.002,0-0.004c0.006-0.005,0.007-0.011,0.008-0.02
					c0.002-0.009,0.002-0.02-0.002-0.027h0.001c0,0-0.001,0-0.004-0.001c-0.001-0.001,0-0.003-0.001-0.003
					c-0.756-1.269-4.202-1.837-4.491,0.283c-0.286,2.053,3.079,1.949,2.918,2.6c-0.149,0.598-1.853,0.461-2.537-0.646
					c-0.008-0.01-0.02-0.016-0.027-0.018c-0.012,0-0.022,0.001-0.033,0.009c-0.155,0.125-0.759,0.638-0.9,0.766
					c-0.004,0.003-0.003,0.003-0.007,0.008c-0.004,0.006-0.008,0.012-0.01,0.021c0.001,0.014,0.002,0.021,0.007,0.031
					c0,0-0.001,0.001,0,0C44.814,79.398,47.985,79.518,48.28,77.375"/>
				<g>
					<path fill="#0E0F19" d="M60.858,97.728c0.806,0,1.484,0.639,1.484,1.484c0,0.847-0.678,1.484-1.484,1.484
						c-0.81,0-1.485-0.638-1.485-1.484C59.373,98.366,60.048,97.728,60.858,97.728z M60.858,100.481c0.678,0,1.222-0.551,1.222-1.27
						c0-0.718-0.543-1.27-1.222-1.27c-0.683,0-1.221,0.552-1.221,1.27C59.637,99.931,60.176,100.481,60.858,100.481z M60.292,98.342
						h0.654c0.411,0,0.607,0.164,0.607,0.495c0,0.315-0.2,0.448-0.459,0.476l0.499,0.766H61.31l-0.471-0.746h-0.283v0.746h-0.264
						V98.342z M60.556,99.116h0.271c0.235,0,0.463-0.012,0.463-0.291c0-0.239-0.208-0.268-0.388-0.268h-0.346V99.116z"/>
				</g>
			</g>
		</g>
		<g>
			<path fill="#FFFFFF" d="M91.645,92.116c-0.052-0.672-0.259-2.043-0.439-3l-4.241-0.025c-0.232,0.956-0.569,2.043-0.802,3.154
				l-5.948-0.75c0,0,2.457-6.697,3.129-8.533c0.983-2.767,3.336-8.973,3.336-8.973s3.853-0.182,5.301-0.104
				c0,0,2.586,7.163,3.155,8.922c0.595,1.759,3.026,8.74,3.026,8.74S91.645,92.143,91.645,92.116z M90.663,85.134l-1.216-5.844
				l-1.629,5.87L90.663,85.134z"/>
			<path fill="#FFFFFF" d="M107.008,87.229c-0.439,0-1.086-0.053-1.526-0.104c0.026,1.578-0.026,3.077,0.233,4.604
				c-1.034,0.078-2.043,0.104-3.103,0.104c-0.905,0-1.81-0.025-2.715-0.104L100,74.04h1.371c2.042,0,4.267-0.207,6.258-0.207
				c3.336,0,5.896,2.638,5.896,5.974C113.524,84.358,111.171,87.229,107.008,87.229z M106.698,78.721
				c-0.362,0-0.905,0.026-1.268,0.077v3.491c0.336,0.052,0.879,0.104,1.189,0.104c1.19,0,1.526-0.982,1.526-2.017
				C108.146,79.523,107.551,78.721,106.698,78.721z"/>
			<path fill="#FFFFFF" d="M122.5,87.229c-0.439,0-1.086-0.053-1.525-0.104c0.026,1.578-0.026,3.077,0.232,4.604
				c-1.034,0.078-2.042,0.104-3.103,0.104c-0.905,0-1.81-0.025-2.715-0.104l0.104-17.688h1.371c2.043,0,4.267-0.207,6.258-0.207
				c3.335,0,5.896,2.638,5.896,5.974C129.016,84.358,126.663,87.229,122.5,87.229z M122.189,78.721
				c-0.362,0-0.905,0.026-1.268,0.077v3.491c0.336,0.052,0.879,0.104,1.19,0.104c1.189,0,1.526-0.982,1.526-2.017
				C123.638,79.523,123.042,78.721,122.189,78.721z"/>
			<path fill="#FFFFFF" d="M137.19,92.038c-1.862,0-4.474-0.103-6.491-0.853l0.621-5.482c0.828,0.259,1.655,0.543,2.482,0.776
				c0.828,0.231,1.603,0.413,2.017,0.413c0.388,0,1.371-0.025,1.371-0.543c0-0.311-0.259-0.62-0.854-0.982
				c-0.595-0.388-1.371-0.75-2.172-1.216c-1.604-0.931-3.31-2.302-3.31-4.888c0-4.215,3.594-5.637,7.189-5.637
				c1.965,0,4.111,0.362,6.103,1.241l-0.931,5.198c-1.707-0.75-3.103-1.269-4.551-1.269c-0.517,0-1.552-0.024-1.552,0.673
				c0,0.259,0.414,0.439,0.957,0.75c0.673,0.362,1.552,0.775,2.457,1.319c1.784,1.086,3.672,2.715,3.672,5.404
				C144.198,90.797,140.268,92.038,137.19,92.038z"/>
			<path fill="#FFFFFF" d="M163.768,92.168l-1.474-1.629c-1.474,0.956-3.052,1.604-4.5,1.604c-3.595,0-6.439-2.405-6.439-5.638
				c0-2.38,1.474-3.879,3.206-4.939c-0.827-1.061-1.448-2.224-1.448-3.724c0-3.052,3.31-4.138,5.792-4.138
				c2.353,0,5.224,1.759,5.224,4.319c0,1.836-1.5,3.336-3.207,4.499c0.543,0.646,1.112,1.293,1.707,1.966
				c0.492-0.596,0.879-1.216,1.189-1.785l3.905,1.811c-0.466,1.009-1.216,2.146-2.173,3.207c1.19,1.318,2.173,2.353,2.561,2.793
				L163.768,92.168z M159.371,87.229c-0.75-0.854-1.474-1.707-2.198-2.561c-0.517,0.311-1.06,0.775-1.06,1.293
				c0,0.956,0.621,1.577,1.888,1.577C158.44,87.539,158.906,87.436,159.371,87.229z M158.518,79.574
				c0.724-0.414,1.241-0.827,1.241-1.344c0-0.492-0.388-0.957-0.879-0.957c-0.517,0-1.215,0.154-1.215,0.827
				C157.665,78.333,157.975,78.876,158.518,79.574z"/>
			<path fill="#FFFFFF" d="M189.793,91.754c0,0-0.052-5.974-0.052-6.879c-0.181,0.285-3.465,6.284-3.853,6.879l-2.612,0.078
				c-0.233-0.439-2.871-6.388-3.284-6.982c0.026,0.725-0.104,6.802-0.104,6.802s-4.603,0.129-5.56,0.077
				c0,0,0.414-15.128,0.646-17.766c0,0,1.138-0.104,2.25-0.13c0.931,0,2.224,0.052,2.224,0.052s5.12,8.508,5.327,9.104l5.663-9.104
				l4.551,0.129c0,0,0.569,13.396,0.362,17.87C195.353,91.884,190.827,91.78,189.793,91.754z"/>
			<path fill="#FFFFFF" d="M205.286,92.014c-5.378,0-7.603-4.5-7.603-8.716c0-5.817,3.517-9.723,8.585-9.723
				c5.819,0,7.81,4.474,7.81,9.697C214.078,88.703,211.027,92.014,205.286,92.014z M205.984,79.16c-1.009,0-2.767,0.932-2.767,3.078
				c0,2.663,1.267,3.672,2.637,3.672c1.552,0,2.586-1.604,2.586-3.518C208.441,80.557,207.225,79.16,205.984,79.16z"/>
			<path fill="#FFFFFF" d="M225.406,92.297l-3.361-5.715c-0.182,0-0.361,0-0.543-0.025c0.025,1.681-0.026,3.802,0.104,5.197
				c-1.035,0.053-1.758,0.104-2.819,0.104c-0.905,0-1.81-0.025-2.715-0.104l0.103-17.765h0.776c2.224,0.051,4.602-0.156,6.801-0.156
				c3.102,0,5.973,2.69,5.973,5.871c0,2.663-0.957,4.577-2.611,5.688c1.086,1.914,2.25,3.854,3.594,5.56
				C229.389,91.573,226.906,92.09,225.406,92.297z M222.949,78.721c-0.361,0-1.111,0.026-1.473,0.077v3.259
				c0.336,0.052,1.059,0.078,1.422,0.078c1.189,0,1.525-0.828,1.525-1.888C224.424,79.497,223.828,78.721,222.949,78.721z"/>
			<path fill="#FFFFFF" d="M245.27,91.729c0,0-5.225,0-6.854,0.052c-1.604,0.026-5.432-0.026-5.432-0.026s0.027-2.404-0.025-5.586
				c-0.051-3.231-0.207-7.835-0.258-12.179c0,0,4.836-0.052,6.465-0.104c1.473-0.052,6.104,0.026,6.104,0.026v4.655
				c-2.639-0.312-4.967-0.13-7.475,0l0.025,1.654c0.439-0.052,2.096-0.025,2.51-0.052c0.646-0.025,2.922-0.052,2.922-0.052
				c0.078,0.207,0.18,1.061,0.18,2.172c0,1.216-0.051,2.276-0.102,2.276c-0.75,0-4.293,0.052-5.225,0.104v1.577
				c1.5,0.104,4.654,0.181,7.164,0V91.729z"/>
		</g>
	</g>
	<g>
		<rect x="278.871" y="61" fill="#FFFFFF" width="7" height="7"/>
		<rect x="289.871" y="61" fill="#ED2272" width="7" height="7"/>
		<rect x="300.871" y="61" fill="#ABD037" width="7" height="7"/>
		<rect x="278.871" y="72" fill="#FEE000" width="7" height="7"/>
		<rect x="289.871" y="72" fill="#23C2F2" width="7" height="7"/>
		<rect x="300.871" y="72" fill="#D363A6" width="7" height="7"/>
		<rect x="278.871" y="83" fill="#ED2272" width="7" height="7"/>
		<rect x="289.871" y="83" fill="#FFFFFF" width="7" height="7"/>
	</g>
	<g>
		<rect x="336.871" y="82" fill="#ED2272" width="6" height="5"/>
		<rect x="345.871" y="82" fill="#FFFFFF" width="5" height="5"/>
		<rect x="336.871" y="91" fill="#62C5BD" width="6" height="5"/>
		<rect x="345.871" y="91" fill="#FEE000" width="5" height="5"/>
		<rect x="336.871" y="100" fill="#FFFFFF" width="6" height="5"/>
	</g>
</g>
</svg>
