<?xml version="1.0" encoding="utf-8"?>
<!-- Generator: Adobe Illustrator 14.0.0, SVG Export Plug-In . SVG Version: 6.00 Build 43363)  -->
<!DOCTYPE svg PUBLIC "-//W3C//DTD SVG 1.1//EN" "http://www.w3.org/Graphics/SVG/1.1/DTD/svg11.dtd">
<svg version="1.1" id="Layer_1" xmlns="http://www.w3.org/2000/svg" xmlns:xlink="http://www.w3.org/1999/xlink" x="0px" y="0px"
	 width="520px" height="91.102px" viewBox="0.75 0 520 91.102" enable-background="new 0.75 0 520 91.102" xml:space="preserve">
<polyline fill="none" stroke="#FFFFFF" stroke-width="2" stroke-miterlimit="10" points="241.369,6.069 241.271,54.101 
	272.746,54.101 272.846,28.819 303.271,27.959 303.271,88.101 "/>
<polyline fill="none" stroke="#FFFFFF" stroke-width="2" stroke-miterlimit="10" points="192.602,0.101 194.791,62.101 
	210.209,62.101 210.115,47.101 130.209,47.101 130.209,91.101 "/>
<polygon fill="#FFFFFF" points="95.951,39.311 95.951,23.255 68.445,47.043 95.951,69.846 95.951,53.604 109.941,53.604 
	109.941,39.311 "/>
<polygon fill="#FFFFFF" points="24.195,53.79 24.195,69.846 51.701,46.058 24.195,23.255 24.195,39.497 10.205,39.497 10.205,53.79 
	"/>
<polyline fill="none" stroke="#FFFFFF" stroke-width="2" stroke-miterlimit="10" points="343,23.101 413,22.101 412,88.101 
	396,88.101 396,74.101 479,74.101 479.032,-41.899 "/>
</svg>
