<?xml version="1.0" encoding="utf-8"?>
<!-- Generator: Adobe Illustrator 14.0.0, SVG Export Plug-In . SVG Version: 6.00 Build 43363)  -->
<!DOCTYPE svg PUBLIC "-//W3C//DTD SVG 1.1//EN" "http://www.w3.org/Graphics/SVG/1.1/DTD/svg11.dtd">
<svg version="1.1" id="Layer_1" xmlns="http://www.w3.org/2000/svg" xmlns:xlink="http://www.w3.org/1999/xlink" x="0px" y="0px"
	 width="71.185px" height="87.078px" viewBox="0 0 71.185 87.078" enable-background="new 0 0 71.185 87.078" xml:space="preserve">
<polygon fill="#F41971" points="16.554,0 5.723,0.338 0,14.185 9.815,14.523 5.077,25.692 22,9.446 11.846,9.107 "/>
<polygon fill="#EDEDED" points="40.738,0 29.907,0.338 24.185,14.185 34,14.523 29.262,25.692 46.185,9.446 36.03,9.107 "/>
<polygon fill="#EDEDED" points="65.738,0 54.907,0.338 49.185,14.185 59,14.523 54.262,25.692 71.185,9.446 61.03,9.107 "/>
<polygon fill="#F41971" points="16.554,30.691 5.723,31.029 0,44.877 9.815,45.215 5.077,56.385 22,40.139 11.846,39.799 "/>
<polygon fill="#F41971" points="40.738,30.691 29.907,31.029 24.185,44.877 34,45.215 29.262,56.385 46.185,40.139 36.03,39.799 "/>
<polygon fill="#EDEDED" points="65.738,30.691 54.907,31.029 49.185,44.877 59,45.215 54.262,56.385 71.185,40.139 61.03,39.799 "/>
<polygon fill="#F41971" points="16.554,61.385 5.723,61.723 0,75.57 9.815,75.908 5.077,87.078 22,70.832 11.846,70.492 "/>
<polygon fill="#F41971" points="40.738,61.385 29.907,61.723 24.185,75.57 34,75.908 29.262,87.078 46.185,70.832 36.03,70.492 "/>
<polygon fill="#F41971" points="65.738,61.385 54.907,61.723 49.185,75.57 59,75.908 54.262,87.078 71.185,70.832 61.03,70.492 "/>
</svg>
