<?xml version="1.0" encoding="utf-8"?>
<!-- Generator: Adobe Illustrator 14.0.0, SVG Export Plug-In . SVG Version: 6.00 Build 43363)  -->
<!DOCTYPE svg PUBLIC "-//W3C//DTD SVG 1.1//EN" "http://www.w3.org/Graphics/SVG/1.1/DTD/svg11.dtd">
<svg version="1.1" id="Layer_1" xmlns="http://www.w3.org/2000/svg" xmlns:xlink="http://www.w3.org/1999/xlink" x="0px" y="0px"
	 width="52.5px" height="183.66px" viewBox="0 0 52.5 183.66" enable-background="new 0 0 52.5 183.66" xml:space="preserve">
<path fill="#FFFFFF" d="M48.348,40.418C40.524,52.617,24.29,56.17,12.085,48.346c-12.205-7.823-15.755-24.054-7.932-36.26
	c7.82-12.205,24.056-15.755,36.259-7.933C52.618,11.974,56.17,28.211,48.348,40.418z"/>
<path fill="#F41971" d="M36.114,45.142c6.779-3.509,11.174-10.36,11.527-17.985c0.354-7.622-3.385-14.857-9.811-18.977
	L26.305,26.164L36.114,45.142z"/>
<path fill="#00C3F7" d="M4.965,25.174c-0.354,7.623,3.386,14.856,9.811,18.979c6.426,4.115,14.561,4.494,21.34,0.989l-9.811-18.978
	L4.965,25.174z"/>
<path fill="#FFE000" d="M37.831,8.179C31.407,4.061,23.274,3.686,16.494,7.19C9.713,10.695,5.318,17.55,4.965,25.174l21.34,0.99
	L37.831,8.179z"/>
<g>
	<g>
		<polygon fill="#FFFFFF" points="19.813,148.889 20.771,168.025 37.036,157.021 		"/>
	</g>
	<path fill="#FFFFFF" d="M40.012,136.079c-12.008-7.699-27.986-4.204-35.687,7.805c-7.699,12.017-4.204,27.989,7.806,35.688
		c12.012,7.701,27.986,4.203,35.685-7.805C55.518,159.755,52.024,143.775,40.012,136.079z M43.344,168.898
		c-6.113,9.539-18.804,12.313-28.343,6.197c-9.541-6.113-12.315-18.803-6.201-28.343c6.115-9.54,18.803-12.315,28.342-6.201
		C46.684,146.667,49.458,159.357,43.344,168.898z"/>
</g>
</svg>
