<?xml version="1.0" encoding="utf-8"?>
<!-- Generator: Adobe Illustrator 14.0.0, SVG Export Plug-In . SVG Version: 6.00 Build 43363)  -->
<!DOCTYPE svg PUBLIC "-//W3C//DTD SVG 1.1//EN" "http://www.w3.org/Graphics/SVG/1.1/DTD/svg11.dtd">
<svg version="1.1" id="Layer_1" xmlns="http://www.w3.org/2000/svg" xmlns:xlink="http://www.w3.org/1999/xlink" x="0px" y="0px"
	 width="50px" height="255.723px" viewBox="0 0 50 255.723" enable-background="new 0 0 50 255.723" xml:space="preserve">
<g>
	<circle fill="#FFFFFF" cx="19.437" cy="13.799" r="4.113"/>
	<path fill="#FFFFFF" d="M15.653,38.314c0,0-3.62-19.086,3.455-20.401c7.074-1.316,5.1,20.401,5.1,20.401H15.653z"/>
	<circle fill="#FFFFFF" cx="31.283" cy="21.368" r="3.785"/>
	<path fill="#FFFFFF" d="M28.032,38.314c0,0-2.802-12.333,3.315-13.183c6.118-0.852,4.082,13.183,4.082,13.183H28.032z"/>
</g>
<path fill="#FFFFFF" d="M26.838,225.865l4.578-1.388l-12.586-7.686l-4.774,12.944l4.588-1.39l5.358,16.972l10.533-3.716
	L26.838,225.865z M24.472,232.63c-0.575,0-1.041-0.466-1.041-1.041c0-0.577,0.466-1.043,1.041-1.043
	c0.577,0,1.043,0.466,1.043,1.043C25.516,232.164,25.049,232.63,24.472,232.63z"/>
<path fill="#FFFFFF" d="M24.55,114.445c-7.732,0-14,6.268-14,14s6.268,14,14,14s14-6.268,14-14S32.282,114.445,24.55,114.445z
	 M24.233,136.185h-5.008c0,0-2.117-11.17,2.023-11.94c0.035-0.007,0.067-0.005,0.102-0.009c-1.288-0.05-2.316-1.102-2.316-2.399
	c0-1.329,1.076-2.407,2.408-2.407c1.328,0,2.404,1.078,2.404,2.407c0,1.243-0.945,2.256-2.154,2.383
	C25.302,124.419,24.233,136.185,24.233,136.185z M30.801,136.185h-4.329c0,0-1.623-7.152,1.9-7.704
	c-1.223-0.002-2.213-0.992-2.213-2.214c0-1.224,0.992-2.215,2.215-2.215c1.224,0,2.215,0.991,2.215,2.215
	c0,1.185-0.934,2.144-2.104,2.203C31.97,128.101,30.801,136.185,30.801,136.185z"/>
</svg>
