<?xml version="1.0" encoding="utf-8"?>
<!-- Generator: Adobe Illustrator 17.1.0, SVG Export Plug-In . SVG Version: 6.00 Build 0)  -->
<!DOCTYPE svg PUBLIC "-//W3C//DTD SVG 1.1//EN" "http://www.w3.org/Graphics/SVG/1.1/DTD/svg11.dtd">
<svg version="1.1" id="Layer_1" xmlns="http://www.w3.org/2000/svg" xmlns:xlink="http://www.w3.org/1999/xlink" x="0px" y="0px"
	 width="890px" height="40px" viewBox="0 0 890 40" enable-background="new 0 0 890 40" xml:space="preserve">
<g>
	<g>
		<g>
			<circle cx="177" cy="20" r="13.4"/>
			
				<radialGradient id="SVGID_1_" cx="402.4813" cy="656.5312" r="26.6363" gradientTransform="matrix(-0.5076 0.8616 0.8616 0.5076 -190.9006 -670.2147)" gradientUnits="userSpaceOnUse">
				<stop  offset="0.7" style="stop-color:#010101"/>
				<stop  offset="0.768" style="stop-color:#040404"/>
				<stop  offset="0.8089" style="stop-color:#0C0C0C"/>
				<stop  offset="0.8427" style="stop-color:#1A1A1A"/>
				<stop  offset="0.8725" style="stop-color:#2F2F2F"/>
				<stop  offset="0.8998" style="stop-color:#494949"/>
				<stop  offset="0.9252" style="stop-color:#696969"/>
				<stop  offset="0.9492" style="stop-color:#909090"/>
				<stop  offset="0.972" style="stop-color:#BCBCBC"/>
				<stop  offset="0.9932" style="stop-color:#EDEDED"/>
				<stop  offset="1" style="stop-color:#FFFFFF"/>
			</radialGradient>
			<circle fill="url(#SVGID_1_)" cx="177.2" cy="20.1" r="12.8"/>
			<defs>
				<filter id="Adobe_OpacityMaskFilter" filterUnits="userSpaceOnUse" x="164" y="7.1" width="24" height="22.5">
					<feColorMatrix  type="matrix" values="1 0 0 0 0  0 1 0 0 0  0 0 1 0 0  0 0 0 1 0"/>
				</filter>
			</defs>
			<mask maskUnits="userSpaceOnUse" x="164" y="7.1" width="24" height="22.5" id="SVGID_2_">
				<g filter="url(#Adobe_OpacityMaskFilter)">
					
						<linearGradient id="SVGID_3_" gradientUnits="userSpaceOnUse" x1="-129.9039" y1="980.2794" x2="-129.9039" y2="1002.1249" gradientTransform="matrix(0.8836 -0.4684 -0.4684 -0.8836 755.0563 833.2827)">
						<stop  offset="0" style="stop-color:#000000"/>
						<stop  offset="0.2481" style="stop-color:#020202"/>
						<stop  offset="0.3852" style="stop-color:#0A0A0A"/>
						<stop  offset="0.4953" style="stop-color:#181818"/>
						<stop  offset="0.591" style="stop-color:#2C2C2C"/>
						<stop  offset="0.6774" style="stop-color:#454545"/>
						<stop  offset="0.7571" style="stop-color:#646464"/>
						<stop  offset="0.8317" style="stop-color:#898989"/>
						<stop  offset="0.9022" style="stop-color:#B5B5B5"/>
						<stop  offset="0.9671" style="stop-color:#E4E4E4"/>
						<stop  offset="1" style="stop-color:#FFFFFF"/>
					</linearGradient>
					<path fill="url(#SVGID_3_)" d="M186.8,12.6c2.8,5.3,0.3,12.2-5.7,15.4c-6,3.2-13.1,1.4-16-3.9c-2.8-5.3-0.3-12.2,5.7-15.4
						C176.9,5.5,184,7.2,186.8,12.6z"/>
					
						<linearGradient id="SVGID_4_" gradientUnits="userSpaceOnUse" x1="-129.9039" y1="980.2794" x2="-129.9039" y2="1002.1249" gradientTransform="matrix(0.8836 -0.4684 -0.4684 -0.8836 755.0563 833.2827)">
						<stop  offset="0" style="stop-color:#000000"/>
						<stop  offset="0.2481" style="stop-color:#020202"/>
						<stop  offset="0.3852" style="stop-color:#0A0A0A"/>
						<stop  offset="0.4953" style="stop-color:#181818"/>
						<stop  offset="0.591" style="stop-color:#2C2C2C"/>
						<stop  offset="0.6774" style="stop-color:#454545"/>
						<stop  offset="0.7571" style="stop-color:#646464"/>
						<stop  offset="0.8317" style="stop-color:#898989"/>
						<stop  offset="0.9022" style="stop-color:#B5B5B5"/>
						<stop  offset="0.9671" style="stop-color:#E4E4E4"/>
						<stop  offset="1" style="stop-color:#FFFFFF"/>
					</linearGradient>
					<path fill="url(#SVGID_4_)" d="M186.8,12.6c2.8,5.3,0.3,12.2-5.7,15.4c-6,3.2-13.1,1.4-16-3.9c-2.8-5.3-0.3-12.2,5.7-15.4
						C176.9,5.5,184,7.2,186.8,12.6z"/>
				</g>
			</mask>
			
				<linearGradient id="SVGID_5_" gradientUnits="userSpaceOnUse" x1="-1136.4474" y1="-405.1961" x2="-1136.4474" y2="-372.2867" gradientTransform="matrix(0.8873 -0.4612 -0.4612 -0.8873 1001.2762 -858.0676)">
				<stop  offset="0.2582" style="stop-color:#404040"/>
				<stop  offset="0.2638" style="stop-color:#3B3B3B"/>
				<stop  offset="0.2947" style="stop-color:#252525"/>
				<stop  offset="0.3311" style="stop-color:#141414"/>
				<stop  offset="0.3762" style="stop-color:#090909"/>
				<stop  offset="0.4396" style="stop-color:#020202"/>
				<stop  offset="0.6154" style="stop-color:#000000"/>
			</linearGradient>
			<path mask="url(#SVGID_2_)" fill="url(#SVGID_5_)" d="M186.8,12.6c2.8,5.3,0.3,12.2-5.7,15.4c-6,3.2-13.1,1.4-16-3.9
				c-2.8-5.3-0.3-12.2,5.7-15.4C176.9,5.5,184,7.2,186.8,12.6z"/>
			<defs>
				<filter id="Adobe_OpacityMaskFilter_1_" filterUnits="userSpaceOnUse" x="165.1" y="7.4" width="18.7" height="16">
					<feColorMatrix  type="matrix" values="1 0 0 0 0  0 1 0 0 0  0 0 1 0 0  0 0 0 1 0"/>
				</filter>
			</defs>
			<mask maskUnits="userSpaceOnUse" x="165.1" y="7.4" width="18.7" height="16" id="SVGID_6_">
				<g filter="url(#Adobe_OpacityMaskFilter_1_)">
					
						<linearGradient id="SVGID_7_" gradientUnits="userSpaceOnUse" x1="-129.8771" y1="987.0836" x2="-129.8771" y2="1001.9092" gradientTransform="matrix(0.8836 -0.4684 -0.4684 -0.8836 755.0563 833.2827)">
						<stop  offset="0" style="stop-color:#000000"/>
						<stop  offset="0.2481" style="stop-color:#020202"/>
						<stop  offset="0.3852" style="stop-color:#0A0A0A"/>
						<stop  offset="0.4953" style="stop-color:#181818"/>
						<stop  offset="0.591" style="stop-color:#2C2C2C"/>
						<stop  offset="0.6774" style="stop-color:#454545"/>
						<stop  offset="0.7571" style="stop-color:#646464"/>
						<stop  offset="0.8317" style="stop-color:#898989"/>
						<stop  offset="0.9022" style="stop-color:#B5B5B5"/>
						<stop  offset="0.9671" style="stop-color:#E4E4E4"/>
						<stop  offset="1" style="stop-color:#FFFFFF"/>
					</linearGradient>
					<path fill="url(#SVGID_7_)" d="M183.1,10.8c1.9,3.6-0.4,8.6-5.2,11.1c-4.8,2.5-10.2,1.7-12.1-2c-1.9-3.6,0.4-8.6,5.2-11.1
						S181.2,7.2,183.1,10.8z"/>
					
						<linearGradient id="SVGID_8_" gradientUnits="userSpaceOnUse" x1="-129.8771" y1="987.0836" x2="-129.8771" y2="1001.9092" gradientTransform="matrix(0.8836 -0.4684 -0.4684 -0.8836 755.0563 833.2827)">
						<stop  offset="0" style="stop-color:#000000"/>
						<stop  offset="0.2481" style="stop-color:#020202"/>
						<stop  offset="0.3852" style="stop-color:#0A0A0A"/>
						<stop  offset="0.4953" style="stop-color:#181818"/>
						<stop  offset="0.591" style="stop-color:#2C2C2C"/>
						<stop  offset="0.6774" style="stop-color:#454545"/>
						<stop  offset="0.7571" style="stop-color:#646464"/>
						<stop  offset="0.8317" style="stop-color:#898989"/>
						<stop  offset="0.9022" style="stop-color:#B5B5B5"/>
						<stop  offset="0.9671" style="stop-color:#E4E4E4"/>
						<stop  offset="1" style="stop-color:#FFFFFF"/>
					</linearGradient>
					<path fill="url(#SVGID_8_)" d="M183.1,10.8c1.9,3.6-0.4,8.6-5.2,11.1c-4.8,2.5-10.2,1.7-12.1-2c-1.9-3.6,0.4-8.6,5.2-11.1
						S181.2,7.2,183.1,10.8z"/>
				</g>
			</mask>
			
				<linearGradient id="SVGID_9_" gradientUnits="userSpaceOnUse" x1="545.5882" y1="543.6742" x2="533.8766" y2="559.1606" gradientTransform="matrix(0.9824 0.1866 0.1866 -0.9824 -459.8044 454.0528)">
				<stop  offset="0.4011" style="stop-color:#000000"/>
				<stop  offset="0.427" style="stop-color:#282828"/>
				<stop  offset="0.4606" style="stop-color:#545454"/>
				<stop  offset="0.4978" style="stop-color:#7D7D7D"/>
				<stop  offset="0.5374" style="stop-color:#A0A0A0"/>
				<stop  offset="0.5804" style="stop-color:#BEBEBE"/>
				<stop  offset="0.6277" style="stop-color:#D6D6D6"/>
				<stop  offset="0.6812" style="stop-color:#E8E8E8"/>
				<stop  offset="0.7444" style="stop-color:#F5F5F5"/>
				<stop  offset="0.8269" style="stop-color:#FDFDFD"/>
				<stop  offset="1" style="stop-color:#FFFFFF"/>
			</linearGradient>
			<path mask="url(#SVGID_6_)" fill="url(#SVGID_9_)" d="M183.1,10.8c1.9,3.6-0.4,8.6-5.2,11.1c-4.8,2.5-10.2,1.7-12.1-2
				c-1.9-3.6,0.4-8.6,5.2-11.1S181.2,7.2,183.1,10.8z"/>
			<path fill="#FFFFFF" d="M178.4,12.6c0,0-2,0-4,0c-3.3,0-6,2.3-6,5.7c0,2.9,1.7,4.9,4.3,5.3v4h5.4v-3.9h0.7
				c0.9-0.1,1.5-0.7,1.5-1.5v-2.2h1.5L178.4,12.6z M177.3,19c-0.7,0-1.3-0.6-1.3-1.3c0-0.7,0.6-1.3,1.3-1.3s1.3,0.6,1.3,1.3
				C178.7,18.5,178.1,19,177.3,19z M182.9,12.6h-2.2l3.3,7.5h-1.5v2c0,1.2-0.5,1.7-2.1,1.7v3.9h2.2v-3.9h0.7c0.6,0,1.5-0.5,1.5-1.5
				v-2.2h1.5L182.9,12.6z"/>
		</g>
		<g>
			<g>
				<g>
					<g>
						<g>
							<path fill="#FFFFFF" d="M193.9,17.6H193v-1.1h3c1.6,0,2.5,0.8,2.5,2.1c0,1.3-1,2.1-2.5,2.1c-0.1,0-0.8,0-0.8,0v1.7h1.1v1.1
								H193v-1.1h0.9L193.9,17.6L193.9,17.6z M195.2,19.6c0,0,0.6,0,0.9,0c0.7,0,1.1-0.5,1.1-1c0-0.6-0.4-1-1.1-1
								c-0.1,0-0.9,0-0.9,0V19.6z"/>
							<path fill="#FFFFFF" d="M199.8,17.6H199v-1.1h2.9c1.8,0,2.3,1.1,2.3,1.8c0,0.7-0.3,1.2-0.9,1.4c0.7,0.3,1.1,1,1.1,1.7
								c0,1.6-1.2,2.2-2.4,2.2h-3.2v-1.1h0.9V17.6z M201.1,22.5c0,0,0.8,0,0.8,0c0.7,0,1.1-0.4,1.1-1c0-0.5-0.4-1-1.1-1
								c-0.3,0-0.8,0-0.8,0V22.5z M201.1,19.3h0.8c0.6,0,1-0.3,1-0.9c0-0.5-0.4-0.9-1-0.9c-0.2,0-0.8,0-0.8,0V19.3z"/>
							<path fill="#FFFFFF" d="M208.7,17.6c-0.2-0.1-0.5-0.2-0.8-0.2c-0.9,0-1.2,0.5-1.2,0.9c0,0.5,0.3,0.7,0.7,0.8l0.8,0.2
								c0.9,0.3,2,0.6,2,2.1c0,1.3-0.8,2.3-2.6,2.3c-0.7,0-1.4-0.1-2.3-0.4v-1.9h1.3v0.9c0.3,0.2,0.7,0.2,1.1,0.2
								c0.8,0,1.1-0.4,1.1-0.9c0-0.4-0.2-0.6-1-0.9l-0.7-0.2c-1.3-0.4-1.7-0.9-1.7-2c0-1.1,0.7-2.1,2.5-2.1c0.8,0,1.5,0.1,2.1,0.4
								v1.7h-1.2L208.7,17.6L208.7,17.6z"/>
						</g>
					</g>
				</g>
			</g>
		</g>
		<g>
			<path fill="#FFFFFF" d="M271.8,18.4v0.7h-0.2v-0.7h-0.3v-0.2h0.7v0.2H271.8z M273,19.1v-0.6h0l-0.2,0.6h-0.1l-0.2-0.6l0,0v0.6
				h-0.2v-0.8h0.3l0.2,0.6l0.2-0.6h0.3v0.8C273.2,19.1,273,19.1,273,19.1z"/>
		</g>
		<g>
			<path fill="#FFFFFF" d="M217.2,23.6h-3.3v-7.2h1.4v5.9h2.2L217.2,23.6z"/>
			<path fill="#FFFFFF" d="M219.1,21.3L219.1,21.3c0,0.4,0,0.6,0.2,0.9c0.1,0.3,0.4,0.4,0.7,0.4c0.4,0,0.8-0.2,1.2-0.5l0.6,0.9
				c-0.6,0.5-1.1,0.7-1.8,0.7c-1.4,0-2.2-1-2.2-2.8c0-0.9,0.2-1.6,0.6-2.1c0.4-0.5,0.9-0.7,1.5-0.7c0.6,0,1.1,0.2,1.4,0.5
				c0.4,0.5,0.6,1.2,0.6,2.3v0.3L219.1,21.3L219.1,21.3z M220.3,19.5c-0.1-0.2-0.2-0.4-0.5-0.4c-0.4,0-0.6,0.3-0.7,1.2h1.3
				C220.4,20,220.4,19.7,220.3,19.5z"/>
			<path fill="#FFFFFF" d="M225.6,23.8c-0.2-0.1-0.5-0.4-0.6-0.6c-0.3,0.3-0.7,0.5-1.2,0.5c-1.1,0-1.5-0.8-1.5-1.7
				c0-1,0.8-1.8,2.1-1.8c0.1,0,0.2,0,0.3,0v-0.4c0-0.2,0-0.4-0.1-0.5c-0.1-0.1-0.2-0.1-0.4-0.1c-0.5,0-1,0.2-1.3,0.6l-0.5-0.9
				c0.6-0.4,1.3-0.7,2-0.7c0.8,0,1.4,0.3,1.6,0.9c0.1,0.2,0.1,0.5,0.1,0.9l0,1.9c0,0.5,0.1,0.8,0.4,1L225.6,23.8z M224.7,21.3
				C224.6,21.3,224.6,21.3,224.7,21.3c-0.8,0-1,0.3-1,0.7c0,0.4,0.2,0.6,0.5,0.6c0.2,0,0.5-0.1,0.5-0.3L224.7,21.3L224.7,21.3z"/>
			<path fill="#FFFFFF" d="M229.7,19.6c-0.1-0.1-0.2-0.1-0.4-0.1c-0.3,0-0.6,0.2-0.6,0.6v3.6h-1.4v-3.8c0-0.6-0.1-1-0.2-1.4l1.3-0.3
				c0,0.1,0.1,0.4,0.1,0.6v0.1c0.2-0.4,0.5-0.7,1-0.7c0.2,0,0.4,0.1,0.5,0.1L229.7,19.6z"/>
			<path fill="#FFFFFF" d="M233.1,23.6v-3.5c0-0.3,0-0.5-0.1-0.6c-0.1-0.1-0.2-0.1-0.3-0.1c-0.2,0-0.4,0.1-0.7,0.4v3.8h-1.4v-3.8
				c0-0.6-0.1-1-0.2-1.4l1.3-0.3c0,0.1,0.1,0.3,0.1,0.6c0.3-0.3,0.8-0.6,1.4-0.6c0.4,0,0.7,0.1,0.9,0.4c0.2,0.2,0.3,0.6,0.3,1v4
				C234.4,23.6,233.1,23.6,233.1,23.6z"/>
			<path fill="#FFFFFF" d="M236.2,17.7c-0.5,0-0.8-0.4-0.8-0.8s0.4-0.8,0.9-0.8c0.5,0,0.8,0.4,0.8,0.8
				C237,17.3,236.7,17.7,236.2,17.7z M235.5,23.6v-5.2l1.4-0.2v5.4L235.5,23.6L235.5,23.6z"/>
			<path fill="#FFFFFF" d="M240.6,23.6v-3.5c0-0.3,0-0.5-0.1-0.6c-0.1-0.1-0.2-0.1-0.3-0.1c-0.2,0-0.4,0.1-0.7,0.4v3.8h-1.4v-3.8
				c0-0.6-0.1-1-0.2-1.4l1.3-0.3c0,0.1,0.1,0.3,0.1,0.6c0.3-0.3,0.8-0.6,1.4-0.6c0.4,0,0.7,0.1,0.9,0.4c0.2,0.2,0.3,0.6,0.3,1v4
				C242,23.6,240.6,23.6,240.6,23.6z"/>
			<path fill="#FFFFFF" d="M246.8,19.4c-0.1,0-0.1,0-0.2,0c0.1,0.2,0.2,0.5,0.2,0.7c0,1.2-1,1.7-2.1,1.7c-0.1,0-0.2,0-0.3,0
				c0,0.1-0.1,0.2-0.1,0.3c0,0.2,0.3,0.2,0.5,0.2c0.3,0,0.6,0,0.8,0c0.9,0,1.5,0.5,1.5,1.4c0,1.4-1.1,2-2.3,2
				c-0.9,0-2.1-0.3-2.1-1.4c0-0.2,0-0.4,0.1-0.6h1.3c0,0.1,0,0.3,0,0.4c0,0.5,0.5,0.6,0.9,0.6c0.5,0,0.9-0.2,0.9-0.7
				c0-0.5-0.5-0.6-0.9-0.6c-0.3,0-0.5,0-0.8,0c-0.6,0-1.1-0.3-1.1-0.9c0-0.4,0.3-0.7,0.7-0.9c-0.6-0.3-0.8-0.8-0.8-1.4
				c0-1.2,0.9-1.8,2.1-1.8c0.2,0,0.5,0,0.7,0.1c0.2,0.1,0.3,0.1,0.5,0.1c0.3,0,0.6,0,0.9-0.2l0.4,0.9
				C247.2,19.3,247,19.4,246.8,19.4z M244.8,19.2c-0.5,0-0.6,0.4-0.6,0.8s0.2,0.8,0.6,0.8s0.6-0.4,0.6-0.8
				C245.4,19.5,245.3,19.2,244.8,19.2z"/>
			<path fill="#FFFFFF" d="M253.5,23.6l-0.2-3.8c0-0.5,0-1.4,0-1.4c0,0-0.2,1-0.3,1.3l-0.9,3.9h-1.3l-0.8-3.7
				c-0.1-0.5-0.3-1.3-0.3-1.5c0,0.1,0,1.1,0,1.5l-0.2,3.7h-1.4l0.5-7.2h1.9l0.7,3.8c0.1,0.4,0.2,1,0.2,1.4c0.1-0.4,0.1-0.9,0.2-1.4
				l0.8-3.8h1.8l0.5,7.2C254.9,23.6,253.5,23.6,253.5,23.6z"/>
			<path fill="#FFFFFF" d="M256.9,21.3L256.9,21.3c0,0.4,0,0.6,0.2,0.9c0.1,0.3,0.4,0.4,0.7,0.4c0.4,0,0.8-0.2,1.2-0.5l0.6,0.9
				c-0.6,0.5-1.1,0.7-1.8,0.7c-1.4,0-2.2-1-2.2-2.8c0-0.9,0.2-1.6,0.6-2.1c0.4-0.5,0.9-0.7,1.5-0.7c0.6,0,1.1,0.2,1.4,0.5
				c0.4,0.5,0.6,1.2,0.6,2.3v0.3L256.9,21.3L256.9,21.3z M258.1,19.5c-0.1-0.2-0.2-0.4-0.5-0.4c-0.4,0-0.6,0.3-0.7,1.2h1.3
				C258.2,20,258.2,19.7,258.1,19.5z"/>
			<path fill="#FFFFFF" d="M263.1,23.6c0-0.1-0.1-0.2-0.1-0.4c-0.2,0.3-0.5,0.5-1,0.5c-1.2,0-1.9-1-1.9-2.7c0-1.4,0.5-2.8,1.9-2.8
				c0.3,0,0.6,0.1,0.8,0.3c0-0.1-0.1-0.5-0.1-0.8v-1.6l1.4,0.2v5.9c0,0.6,0,1,0.1,1.4H263.1z M262.8,19.6c-0.1-0.2-0.3-0.3-0.5-0.3
				c-0.6,0-0.7,0.8-0.7,1.7c0,0.6,0,1.5,0.7,1.5c0.2,0,0.4-0.1,0.5-0.3V19.6z"/>
			<path fill="#FFFFFF" d="M265.9,17.7c-0.5,0-0.8-0.4-0.8-0.8s0.4-0.8,0.9-0.8c0.5,0,0.8,0.4,0.8,0.8
				C266.8,17.3,266.4,17.7,265.9,17.7z M265.3,23.6v-5.2l1.4-0.2v5.4L265.3,23.6L265.3,23.6z"/>
			<path fill="#FFFFFF" d="M270.6,23.8c-0.2-0.1-0.5-0.4-0.6-0.6c-0.3,0.3-0.7,0.5-1.2,0.5c-1.1,0-1.5-0.8-1.5-1.7
				c0-1,0.8-1.8,2.1-1.8c0.1,0,0.2,0,0.3,0v-0.4c0-0.2,0-0.4-0.1-0.5c-0.1-0.1-0.2-0.1-0.4-0.1c-0.5,0-1,0.2-1.3,0.6l-0.5-0.9
				c0.6-0.4,1.3-0.7,2-0.7c0.8,0,1.4,0.3,1.6,0.9c0.1,0.2,0.1,0.5,0.1,0.9l0,1.9c0,0.5,0.1,0.8,0.4,1L270.6,23.8z M269.7,21.3
				C269.7,21.3,269.6,21.3,269.7,21.3c-0.8,0-1,0.3-1,0.7c0,0.4,0.2,0.6,0.5,0.6c0.2,0,0.5-0.1,0.5-0.3L269.7,21.3L269.7,21.3z"/>
		</g>
	</g>
</g>
<g>
	<g>
		<g>
			<path fill="#0E0F19" d="M518.5,19.4c0,1.9-0.9,3.2-2.8,3.8c-0.8,0.3-1.7,0.4-2.8,0.3c0.2,0.5,0.5,1.6,1,2.9
				c0.1,0.2,0.1,0.4,0.1,0.6c0,0.6-0.5,1.1-1.6,1.6c-1.2,0.5-1.9,0.8-2.3,0.8c-0.5,0-0.8-0.3-1-0.8c-0.2-0.7-0.5-2.3-0.7-4.2
				c-0.2-2.2-0.4-4.3-0.4-6.2c0-1.1,0-2.2,0.1-3c0-0.6,0.4-0.9,1-0.9c0.2,0,3.6,0.2,3.7,0.2c1.5,0.2,2.8,0.6,3.7,1.2
				C517.8,16.5,518.5,17.7,518.5,19.4z M514,18.9c0-0.5-0.3-0.9-0.8-1.2c-0.4-0.2-0.8-0.4-1.2-0.3c-0.1,0-0.2,0-0.2,0.1
				c0,0.5,0.2,3.1,0.3,3.5c0,0.1,0,0.3,0.2,0.3c0.3,0,0.6-0.3,1-0.8C513.8,20,514,19.5,514,18.9z"/>
			<path fill="#0E0F19" d="M529.4,26.1c0,0.5-0.2,0.9-0.5,1.2c-0.2,0.2-0.6,0.4-1.2,0.5c-1.2,0.3-2.7,0.6-4.5,0.8
				c-0.5,0-0.8,0.1-1.1,0.1c-0.7,0-1.1-0.1-1.5-0.4c-0.3-0.3-0.4-1.1-0.4-1.8c0-0.6,0-2.5,0-5c0-2.5,0.1-4.3,0.1-5
				c0-0.8,0.2-1.4,0.7-1.7c0.4-0.2,0.9-0.4,1.3-0.6c0.9-0.4,1.4-0.4,1.7-0.5c0.6,0,0.9,0.4,0.9,1.1c0,1.2,0,5.4-0.4,9
				c0.6-0.1,1.7-0.4,3-0.8c0.3-0.1,0.5-0.1,0.8-0.1c0.5,0,0.7,0.3,0.8,0.9C529.2,24.7,529.4,25.9,529.4,26.1z"/>
			<path fill="#0E0F19" d="M552.2,15c-0.2,2.1-1.1,4.2-3.3,6.6c0.1,1.1,0.2,3.6,0.4,5.6c0.1,0.6-0.2,0.8-1.2,0.9
				c-0.7,0.1-1.6,0-2.4-0.1c-0.5-0.1-0.7-0.5-0.8-1.5c0-0.5,0-1.4,0-2.4s0.1-1.5,0.1-1.8c0-0.6-0.5-1.5-1.4-2.8
				c-1.1-1.6-1.9-2.9-2.2-3.5c-0.1-0.2-0.1-0.4-0.2-0.5c0-0.4,0.2-0.7,0.7-1c0.3-0.2,1-0.4,2-0.8c0.1,0,0.2,0,0.3,0
				c0.5,0,0.9,0.3,1.3,1c0.2,0.3,0.6,1.2,0.9,2.3c0.2,0.7,0.5,1.8,0.6,1.8c0.3,0,1-2.3,1.3-3.6c0.2-1,0.7-1.5,1.5-1.5
				c0.1,0,0.3,0,0.7,0c0.4,0,0.7,0,1.1,0c0.4,0.1,0.7,0.4,0.7,1C552.2,14.7,552.2,14.9,552.2,15z"/>
			<path fill="#0E0F19" d="M554.3,24.9c0.4-0.3,0.9-0.5,1.6-0.4c1.4,0.1,2.2,0.8,2.2,2c0,0.5-0.2,0.9-0.6,1.2
				c-0.4,0.3-0.9,0.4-1.6,0.4c-1.3-0.1-2-0.7-2.1-1.8C553.8,25.7,554,25.2,554.3,24.9z M557.5,21.8c-0.2,0.8-0.4,1.6-1.3,1.8
				c-0.4,0.1-0.7,0-1-0.1c-0.4-0.2-0.7-1.1-0.9-3.2c-0.1-1.6-0.4-3.4-0.5-5c-0.1-1,0.3-1.5,0.9-1.8c0.7-0.3,1,0.1,2.5-0.2
				c0.3-0.1,1.4-0.1,1.5,0.6C558.8,14.5,558.3,17.6,557.5,21.8z"/>
			<path fill="#0E0F19" d="M542.6,25.3c0.1,0.5,0.2,0.9,0.2,1.1c0.1,0.8-0.7,1.1-1.4,1.3c-1.5,0.5-2.3,0.6-2.5,0.6
				c-0.6,0-1-0.4-1-1.1c0-1.5-0.3-2.2-0.8-2.2c-0.1,0-0.2,0-0.3,0c-0.5,0.1-0.8,0.2-0.8,1.2c0,1-0.3,2-0.8,2.2
				c-1,0.3-1.1,0.2-2.1,0.3c-0.2,0-0.4,0-0.8,0c-0.6-0.1-0.9-0.1-0.9-0.2c-0.2-0.1-0.3-0.2-0.3-0.5c0-0.1,0-0.3,0.1-0.5
				c0.1-0.6,0.4-2.5,0.9-5.8c0.5-3.3,0.8-5.3,0.9-6c0.1-0.7,0.2-1.1,0.4-1.4c0.2-0.3,0.6-0.4,1.1-0.6c0.8-0.2,1.8,0.1,3-0.2
				c0.5,0,0.7,0,0.6,0c0.5,0,0.9,0.4,1.2,1.3C540.9,19.7,542,23.2,542.6,25.3z M537.3,21c0-0.3-0.1-0.8-0.4-1.5
				c-0.2-0.8-0.4-1.2-0.6-1.2c-0.2,0-0.4,0.4-0.5,1.1c-0.1,0.6-0.1,1.1-0.1,1.6c-0.1,0.4-0.1,0.8,0,0.9c0.1,0.2,0.3,0.3,0.7,0.3
				C537,22.2,537.3,21.8,537.3,21z"/>
			<path fill="#FFFFFF" d="M517.5,18.6c0,1.9-0.9,3.2-2.8,3.8c-0.8,0.3-1.7,0.4-2.8,0.3c0.2,0.5,0.5,1.6,1,2.9
				c0.1,0.2,0.1,0.4,0.1,0.6c0,0.6-0.5,1.1-1.6,1.6c-1.2,0.5-1.9,0.8-2.3,0.8c-0.5,0-0.8-0.3-1-0.8c-0.2-0.7-0.5-2.3-0.7-4.2
				c-0.2-2.2-0.4-4.3-0.4-6.2c0-1.1,0-2.2,0.1-3c0-0.6,0.4-0.9,1-0.9c0.2,0,3.6,0.2,3.7,0.2c1.5,0.2,2.8,0.6,3.7,1.2
				C516.8,15.7,517.5,16.9,517.5,18.6z M513,18.2c0-0.5-0.3-0.9-0.8-1.2c-0.4-0.2-0.8-0.4-1.2-0.3c-0.1,0-0.2,0-0.2,0.1
				c0,0.5,0.2,3.1,0.3,3.5c0,0.1,0,0.3,0.2,0.3c0.3,0,0.6-0.3,1-0.8C512.8,19.2,513,18.7,513,18.2z"/>
			<path fill="#FFFFFF" d="M528.4,25.3c0,0.5-0.2,0.9-0.5,1.2c-0.2,0.2-0.6,0.4-1.2,0.5c-1.2,0.3-2.7,0.6-4.5,0.8
				c-0.5,0-0.8,0.1-1.1,0.1c-0.7,0-1.1-0.1-1.5-0.4s-0.4-1.1-0.4-1.8c0-0.6,0-2.5,0-5c0-2.5,0.1-4.3,0.1-5c0-0.8,0.2-1.4,0.7-1.7
				c0.4-0.2,0.9-0.4,1.3-0.6c0.9-0.4,1.4-0.4,1.7-0.5c0.6,0,0.9,0.4,0.9,1.1c0,1.2,0,5.4-0.4,9c0.6-0.1,1.7-0.4,3-0.8
				c0.3-0.1,0.6-0.1,0.8-0.1c0.5,0,0.7,0.3,0.8,0.9C528.2,24,528.4,25.1,528.4,25.3z"/>
			<path fill="#FFFFFF" d="M551.2,14.3c-0.2,2.1-1.1,4.2-3.3,6.6c0.1,1.1,0.2,3.6,0.4,5.6c0.1,0.6-0.2,0.8-1.2,0.9
				c-0.7,0.1-1.6,0-2.4-0.1c-0.5-0.1-0.7-0.5-0.8-1.5c0-0.5,0-1.4,0-2.4c0-0.9,0.1-1.5,0.1-1.8c0-0.6-0.5-1.5-1.4-2.8
				c-1.1-1.6-1.9-2.9-2.2-3.5c-0.1-0.2-0.1-0.4-0.2-0.5c0-0.4,0.2-0.7,0.7-1c0.3-0.2,1-0.4,2-0.8c0.1,0,0.2,0,0.3,0
				c0.5,0,0.9,0.3,1.3,1c0.2,0.3,0.6,1.2,0.9,2.3c0.2,0.7,0.5,1.8,0.6,1.8c0.3,0,1-2.3,1.3-3.6c0.2-1,0.7-1.5,1.5-1.5
				c0.1,0,0.3,0,0.7,0s0.7,0,1.1,0c0.4,0.1,0.7,0.4,0.7,1C551.2,13.9,551.2,14.1,551.2,14.3z"/>
			<path fill="#FFFFFF" d="M553.3,24.1c0.4-0.3,0.9-0.5,1.6-0.4c1.4,0.1,2.2,0.8,2.2,2c0,0.5-0.2,0.9-0.6,1.2
				c-0.4,0.3-0.9,0.4-1.6,0.4c-1.3-0.1-2-0.7-2.1-1.8C552.8,24.9,552.9,24.5,553.3,24.1z M556.5,21.1c-0.2,0.8-0.4,1.6-1.3,1.8
				c-0.4,0.1-0.7,0-1-0.1c-0.4-0.2-0.7-1.1-0.9-3.2c-0.1-1.6-0.4-3.4-0.5-5c-0.1-1,0.3-1.5,0.9-1.8c0.7-0.3,1,0.1,2.5-0.2
				c0.3-0.1,1.4-0.1,1.5,0.6C557.8,13.7,557.3,16.9,556.5,21.1z"/>
			<path fill="#FFFFFF" d="M541.5,24.5c0.1,0.5,0.2,0.9,0.2,1.1c0.1,0.8-0.7,1.1-1.4,1.3c-1.5,0.5-2.3,0.6-2.5,0.6
				c-0.6,0-1-0.4-1-1.1c0-1.5-0.3-2.2-0.8-2.2c-0.1,0-0.2,0-0.3,0c-0.5,0.1-0.8,0.2-0.8,1.2c0,1-0.3,2-0.8,2.2
				c-1,0.3-1.1,0.2-2.1,0.3c-0.2,0-0.4,0-0.8,0c-0.6-0.1-0.9-0.1-0.9-0.2c-0.2-0.1-0.3-0.2-0.3-0.5c0-0.1,0-0.3,0.1-0.5
				c0.1-0.6,0.4-2.5,0.9-5.8c0.5-3.3,0.8-5.3,0.9-6c0.1-0.7,0.2-1.1,0.4-1.4c0.2-0.3,0.6-0.4,1.1-0.6c0.8-0.2,1.8,0.1,3-0.2
				c0.5,0,0.7,0,0.6,0c0.5,0,0.9,0.4,1.2,1.3C539.9,18.9,541,22.4,541.5,24.5z M536.3,20.2c0-0.3-0.1-0.8-0.4-1.5
				c-0.2-0.8-0.4-1.2-0.6-1.2c-0.2,0-0.4,0.4-0.5,1.1c-0.1,0.6-0.1,1.1-0.1,1.6c-0.1,0.4-0.1,0.8,0,0.9c0.1,0.2,0.3,0.3,0.7,0.3
				C536,21.4,536.3,21,536.3,20.2z"/>
		</g>
		<g>
			<path fill="#231F20" d="M560.4,13.3c0.5,0,1,0.4,1,1c0,0.6-0.4,1-1,1c-0.5,0-1-0.4-1-1C559.4,13.7,559.9,13.3,560.4,13.3z
				 M560.4,15.1c0.4,0,0.8-0.4,0.8-0.8c0-0.5-0.4-0.8-0.8-0.8c-0.4,0-0.8,0.4-0.8,0.8C559.6,14.7,560,15.1,560.4,15.1z M560,13.7
				h0.4c0.3,0,0.4,0.1,0.4,0.3c0,0.2-0.1,0.3-0.3,0.3l0.3,0.5h-0.2l-0.3-0.5h-0.2v0.5H560L560,13.7L560,13.7z M560.2,14.2h0.2
				c0.2,0,0.3,0,0.3-0.2c0-0.2-0.1-0.2-0.3-0.2h-0.2L560.2,14.2L560.2,14.2z"/>
		</g>
		<g>
			<g>
				<path fill="#FFFFFF" d="M490.8,7.6c-7.1,0-12.9,5.8-12.9,12.9s5.8,12.9,12.9,12.9c7.1,0,12.9-5.8,12.9-12.9
					C503.8,13.4,498,7.6,490.8,7.6"/>
				<path fill="#A5CD39" d="M491,8.2c-6.9,0-12.4,5.6-12.4,12.4c0,6.9,5.6,12.4,12.4,12.4c6.9,0,12.4-5.6,12.4-12.4
					C503.4,13.7,497.8,8.2,491,8.2"/>
				<path fill="#FFFFFF" d="M481.9,15c0-1.5,0.9-2.9,2.2-4c2-1.4,4.3-2.3,6.9-2.2c2.5,0,4.8,0.8,6.7,2.2c1.5,1.1,2.4,2.6,2.4,4.2
					c0,1.8-1.2,3.5-3,4.6l0,0c-1.8,1.1-3.9,1.7-6.1,1.7c-2.7,0-5.1-0.9-7.1-2.5C482.6,17.9,481.9,16.5,481.9,15"/>
				<path fill="#0E0F19" d="M492.6,12.9c0.5-0.3,0.5-0.9,0.5-1.1c0-0.9-0.7-1.6-2-1.6c-0.5,0-1,0.1-1.8,0.2l0,0c0,0-0.1,0-0.1,0.1
					c0,0,0,0,0,0c0.2,1.2,0.2,3,0,4.9c0,0,0,0,0,0c0,0,0,0.1,0.1,0.1c0.5,0.1,1.4,0.2,1.9,0.2c1.2,0,2.1-0.7,2.1-1.6
					C493.5,13.5,493.2,13.1,492.6,12.9 M491.2,11.3c0.5,0,0.8,0.2,0.8,0.6c0,0.7-1.1,0.6-1.2,0.5l0-1.1
					C490.8,11.4,490.8,11.3,491.2,11.3 M491.3,14.7c-0.2,0-0.3,0-0.5-0.1l0-1.1c0,0,0.3,0,0.4,0c0.4,0,0.9,0.1,0.9,0.5
					C492.1,14.3,492,14.7,491.3,14.7"/>
				<path fill="#0E0F19" d="M486.1,10.8c-0.5,0.1-1.1,0.3-1.5,0.5c0,0,0,0,0,0c-0.1,0,0,0.1,0,0.1c0.4,0.9,1,3.9,1.1,4.9l0,0
					c0,0,0,0,0,0c0,0,0.1,0.1,0.1,0.1c0,0,1.3-0.4,1.3-0.4c0,0,0.1-0.1,0.1-0.1c0,0,0,0,0,0c0,0,0-0.1,0-0.1l-0.1-0.3l-0.2-0.9
					c0,0,0.3-0.1,0.3-0.1c1.4-0.3,2.1-1.4,1.8-2.4C488.8,11,487.6,10.5,486.1,10.8 M486.8,13.4c-0.1,0-0.2,0-0.2,0l-0.3-1.4
					c0,0,0.3-0.1,0.4-0.1c0.5-0.1,0.9,0.1,1,0.5C487.8,13,487.5,13.3,486.8,13.4"/>
				<path fill="#0E0F19" d="M496.6,12.4c0,0,0.1,0.1,0.1,0.1c0,0,0.1,0,0.1,0l0,0c0.1-0.1,0,0,0.7-0.8c0,0,0,0,0-0.1
					c0,0,0-0.1,0-0.1c0,0-0.7-0.6-1.6-0.7c-1.2-0.1-2.1,0.6-2.1,1.6c-0.1,0.9,0.6,1.4,1.7,1.8c0.9,0.3,0.6,0.9,0,0.8
					c-0.3,0-0.8-0.2-1.2-0.6c0,0,0,0,0,0c0,0-0.1,0-0.1,0l-0.7,0.8c0,0,0,0,0,0c0,0,0,0.1,0,0.1c0.5,0.5,1.2,0.8,1.8,0.8
					c1.1,0.1,2-0.6,2-1.6c0.1-1.1-0.8-1.5-1.5-1.7c-0.6-0.2-0.8-0.4-0.8-0.6C495.2,12.1,495.6,11.8,496.6,12.4"/>
				<path fill="#FFFFFF" d="M499.2,21.5c0.7,0.3,1.6,0,1.9-0.8c0.3-0.7,0-1.6-0.8-1.9c-0.7-0.3-1.6,0-1.9,0.8
					C498.1,20.4,498.5,21.2,499.2,21.5"/>
				<path fill="#FFFFFF" d="M496.3,24.9c0-0.7-0.6-1.3-1.4-1.3c-0.7,0-1.3,0.6-1.3,1.4c0,0.7,0.6,1.3,1.4,1.3
					C495.7,26.2,496.3,25.6,496.3,24.9"/>
				<path fill="#FFFFFF" d="M489.6,29.1c1.3-0.3,2-1.6,1.7-2.9c-0.3-1.3-1.6-2-2.9-1.7c-1.3,0.3-2,1.6-1.7,2.9
					C487,28.6,488.3,29.4,489.6,29.1"/>
				<path fill="#0E0F19" d="M493.9,29.4c0.3-0.2,0.4-0.7,0.2-1c-0.2-0.3-0.7-0.4-1-0.2c-0.3,0.2-0.4,0.7-0.2,1
					c0.1,0.2,0.3,0.3,0.5,0.3C493.5,29.5,493.7,29.5,493.9,29.4 M493.3,28.9c-0.1-0.1,0-0.2,0.1-0.3s0.3,0,0.3,0.1
					c0.1,0.1,0,0.3-0.1,0.3c-0.1,0-0.1,0-0.2,0C493.4,29,493.3,28.9,493.3,28.9"/>
				<path fill="#0E0F19" d="M495.1,29.4c-1,1.2-2.6,1.4-2.6,1.4h0l0,0c-1.9,0.3-3.4-0.6-3.4-0.6c-0.1-0.1-0.3,0-0.4,0.1
					c-0.1,0.1,0,0.3,0.1,0.4c0.1,0,1.7,1,3.8,0.7c0.1,0,1.9-0.2,3-1.6c0-0.1,0.1-0.1,0.1-0.2c0-0.1,0-0.2-0.1-0.2
					C495.4,29.3,495.2,29.3,495.1,29.4"/>
				<path fill="#0E0F19" d="M488.4,24.2c-0.7,0.2-1.3,0.6-1.6,1.2c-0.4,0.6-0.5,1.3-0.3,2c0.4,1.4,1.8,2.3,3.2,1.9
					c0.7-0.2,1.3-0.6,1.6-1.2c0.4-0.6,0.5-1.3,0.3-2C491.2,24.7,489.8,23.9,488.4,24.2 M487,27.3c-0.1-0.5,0-1.1,0.2-1.6
					c0.3-0.5,0.7-0.8,1.3-0.9c1.1-0.3,2.2,0.4,2.5,1.5c0,0.1,0.1,0.3,0.1,0.4c0,0.4-0.1,0.8-0.3,1.1c-0.3,0.5-0.7,0.8-1.3,0.9
					C488.4,29.1,487.3,28.4,487,27.3"/>
				<path fill="#0E0F19" d="M487.7,27.9c0.5,0.1,0.9-0.3,1-0.7c0.1-0.5-0.3-0.9-0.7-1c-0.5-0.1-0.9,0.3-1,0.7
					C486.9,27.5,487.2,27.9,487.7,27.9"/>
				<path fill="#0E0F19" d="M493.4,25c0,0.9,0.8,1.5,1.6,1.5s1.5-0.8,1.5-1.6c0-0.9-0.8-1.5-1.6-1.5S493.4,24.1,493.4,25 M493.9,25
					c0-0.6,0.5-1.1,1.1-1.1s1.1,0.5,1.1,1.1c0,0.6-0.5,1.1-1.1,1.1C494.4,26.1,493.9,25.6,493.9,25"/>
				<path fill="#0E0F19" d="M494.4,25.7c0.3,0,0.6-0.2,0.6-0.5c0-0.3-0.2-0.6-0.5-0.6c-0.3,0-0.6,0.2-0.6,0.5
					C493.9,25.4,494.1,25.7,494.4,25.7"/>
				<path fill="#0E0F19" d="M497.8,25.1c-0.3-1.7-1.3-3.2-2.8-4.2l0,0c0,0,0,0,0,0c-0.1,0-0.1-0.1-0.2-0.1c-0.2-0.1-0.4-0.3-0.7-0.4
					c-1.6-0.9-4.3-1.7-10.5,0.8l1.1,1.1l-2.2,0.8l1.7,1.1l-2,0.7l1.9,1.3c-0.6,0.3-1.1,1-1.1,1.7c0,1.1,0.8,2,1.9,2
					c0.2,0,0.3,0,0.5,0c1.5,2.2,4.2,3.5,7,3c1.7-0.3,3.2-1.3,4.2-2.7C497.7,28.7,498.1,26.9,497.8,25.1 M485,29.4
					c-0.8,0-1.4-0.7-1.4-1.4c0-0.6,0.4-1,0.8-1.3c0,0.3,0.1,0.6,0.1,0.9c0.1,0.7,0.4,1.3,0.6,1.8C485.2,29.4,485.1,29.4,485,29.4
					 M496.2,29.9c-0.9,1.3-2.3,2.2-3.9,2.5c-3.3,0.6-6.6-1.6-7.2-4.9c-0.3-1.3-0.1-2.5,0.4-3.6l8.8-2.7c0.1,0,0.1,0.1,0.2,0.1
					c1.4,0.9,2.4,2.3,2.7,4C497.5,26.9,497.2,28.5,496.2,29.9"/>
				<path fill="#FFFFFF" d="M497.9,22.4c-0.2,0.4-0.1,0.8,0.3,1.1c0.4,0.2,0.8,0.1,1.1-0.3c0.2-0.4,0.1-0.8-0.3-1.1
					C498.6,21.9,498.1,22,497.9,22.4"/>
				<path fill="#0E0F19" d="M490.2,19L490.2,19l0-0.2l0-0.4v0l-0.1-1.2v0l0-0.4l0-0.2v0c0,0,0,0,0,0c0,0-0.2,0-0.3,0
					c-0.2,0-0.3,0-0.3,0c0,0,0,0,0,0l0,0v0l0,0.2l0,0.4l0,0l0.1,1.2l0,0l0,0.4l0,0.2c0,0,0,0,0,0c0,0,0,0,0,0l0,0L490.2,19L490.2,19
					C490.2,19,490.2,19,490.2,19C490.2,19,490.2,19,490.2,19"/>
				<path fill="#0E0F19" d="M493.1,17.9c0,0.8-0.7,1.2-1.5,1.2c-0.2,0-0.2,0-0.4,0c-0.2,0-0.4,0-0.4,0l0,0c0,0,0,0,0,0c0,0,0,0,0,0
					l0,0l0-0.2l0-0.4v0l0-1.2l0,0v-0.4l0-0.2v0c0,0,0,0,0,0c0,0,0.2,0,0.2,0c0.1,0,0.4,0,0.5,0C492.5,16.6,493.2,17.1,493.1,17.9
					 M491.8,17.1c-0.1,0-0.1,0-0.1,0l0,0.1v0l0,1.2v0l0,0.1c0,0,0.1,0,0.1,0c0.4,0,0.8-0.2,0.8-0.7
					C492.5,17.4,492.1,17.1,491.8,17.1"/>
				<path fill="#0E0F19" d="M489,19l-1.1-1c0.2-0.3,0.5-0.5,0.7-0.7l0,0c0,0,0,0,0,0c0,0,0,0,0,0l-0.4-0.4c0,0,0,0,0,0c0,0,0,0,0,0
					c0,0,0,0,0,0c-0.4,0.4-0.8,0.8-1.1,1.2l-0.1-0.5l0,0l-0.1-0.4l0-0.2l0,0c0,0,0,0,0,0c0,0-0.2,0-0.3,0.1c-0.2,0-0.3,0.1-0.3,0.1
					c0,0,0,0,0,0v0l0.1,0.2l0.1,0.4l0,0l0.2,1.2l0,0l0.1,0.4l0,0.2h0c0,0,0,0,0,0c0,0,0,0,0,0l0,0l0,0l0.6-0.1l0,0c0,0,0,0,0,0
					c0,0,0,0,0,0h0l-0.1-0.2l0-0.2l0,0c0.1-0.1,0.2-0.3,0.3-0.4l0.7,0.7v0c0,0,0,0,0,0c0,0,0,0,0,0l0,0L489,19L489,19
					C489,19,489,19,489,19C489,19,489.1,19,489,19C489,19,489,19,489,19"/>
				<path fill="#0E0F19" d="M495.7,18.7c0.1-1.1-1.4-0.9-1.4-1.2c0-0.2,0.7-0.3,1.1,0.2c0,0,0,0,0,0c0,0,0,0,0,0c0,0,0,0,0,0v0
					c0.1-0.1,0.3-0.3,0.4-0.4c0,0,0,0,0,0c0,0,0,0,0,0c0,0,0,0,0,0l0,0c0,0,0,0,0,0c0,0,0,0,0,0c-0.4-0.6-2-0.9-2.2,0.1
					c-0.1,1,1.5,0.9,1.4,1.3c-0.1,0.3-0.9,0.2-1.2-0.3c0,0,0,0,0,0c0,0,0,0,0,0c-0.1,0.1-0.4,0.3-0.4,0.4c0,0,0,0,0,0c0,0,0,0,0,0
					c0,0,0,0,0,0c0,0,0,0,0,0C494,19.7,495.6,19.7,495.7,18.7"/>
			</g>
		</g>
	</g>
</g>
<g>
	<g>
		<g>
			<g>
				<g>
					<circle fill="#FFFFFF" cx="27.7" cy="18.5" r="1.8"/>
					<path fill="#FFFFFF" d="M20.3,23.9c1.7-0.4,2.8-2.1,2.4-3.8c-0.4-1.7-2.1-2.8-3.8-2.4c-1.7,0.4-2.8,2.1-2.4,3.8
						C16.9,23.2,18.6,24.3,20.3,23.9z"/>
				</g>
				<path fill="#010101" d="M26.1,24.4c0.5-0.3,0.6-0.9,0.3-1.4c-0.3-0.5-0.9-0.6-1.4-0.3c-0.5,0.3-0.6,0.9-0.3,1.4
					c0.2,0.2,0.4,0.4,0.6,0.4C25.6,24.6,25.9,24.6,26.1,24.4z M25.3,23.8c-0.1-0.1-0.1-0.3,0.1-0.4c0.1-0.1,0.3-0.1,0.4,0.1
					c0.1,0.1,0.1,0.3-0.1,0.4c-0.1,0-0.2,0.1-0.2,0C25.4,23.9,25.4,23.8,25.3,23.8z"/>
				<path fill="#010101" d="M27.7,24.6c-1.4,1.6-3.6,1.8-3.6,1.8h0l0,0c-2.6,0.3-4.6-0.9-4.6-1c-0.2-0.1-0.4-0.1-0.5,0.1
					c-0.1,0.2-0.1,0.4,0.1,0.5c0.1,0.1,2.2,1.5,5.1,1.1c0.2,0,2.6-0.2,4.1-2c0.1-0.1,0.1-0.1,0.1-0.2c0-0.1,0-0.2-0.1-0.3
					C28.1,24.4,27.9,24.4,27.7,24.6z"/>
				<path fill="#010101" d="M18.8,17.3c-0.9,0.2-1.7,0.8-2.2,1.6c-0.5,0.8-0.7,1.8-0.5,2.7c0.4,1.9,2.4,3.1,4.3,2.7l0,0
					c0.9-0.2,1.7-0.8,2.2-1.6c0.5-0.8,0.7-1.8,0.5-2.7C22.7,18.1,20.7,16.9,18.8,17.3z M16.9,21.4c-0.2-0.7,0-1.5,0.4-2.1
					c0.4-0.6,1-1.1,1.8-1.2c1.5-0.3,3,0.6,3.4,2.1c0,0.2,0.1,0.4,0.1,0.6c0,0.5-0.1,1.1-0.4,1.5c-0.4,0.6-1,1.1-1.8,1.2
					C18.7,23.9,17.2,22.9,16.9,21.4z"/>
				<ellipse transform="matrix(0.9885 0.151 -0.151 0.9885 3.3406 -2.9927)" fill="#010101" cx="21.4" cy="20.5" rx="1" ry="1"/>
				<path fill="#010101" d="M25.6,18.5c0,1.2,1,2.1,2.1,2.1c1.2,0,2.1-1,2.1-2.1s-1-2.1-2.1-2.1C26.5,16.4,25.6,17.4,25.6,18.5z
					 M26.3,18.5c0-0.8,0.6-1.5,1.5-1.5c0.8,0,1.5,0.6,1.5,1.5c0,0.8-0.6,1.5-1.5,1.5C26.9,20,26.3,19.3,26.3,18.5z"/>
				<circle fill="#010101" cx="28.5" cy="18.3" r="0.7"/>
				<path fill="#010101" d="M31.5,18.8c-0.4-2.3-1.7-4.4-3.6-5.8h0c0,0,0,0,0,0c-0.1-0.1-0.1-0.1-0.2-0.2c-0.3-0.2-0.6-0.4-0.9-0.5
					c-2.2-1.2-6.2-2.5-14.6,0.7l1.9,1.5l-3.1,1l2.3,1.6l-2.7,0.9l2.5,1.9c-0.9,0.4-1.5,1.3-1.5,2.3c-0.1,1.5,1.1,2.7,2.5,2.8
					c0.2,0,0.4,0,0.6-0.1c1.9,3.1,5.6,4.9,9.3,4.3c2.4-0.4,4.4-1.6,5.8-3.5C31.4,23.7,31.9,21.2,31.5,18.8z M14.1,24.2
					c-1,0-1.9-0.9-1.8-2c0-0.8,0.5-1.4,1.2-1.7c0,0.4,0.1,0.8,0.1,1.2c0.2,0.9,0.4,1.7,0.8,2.5C14.3,24.2,14.2,24.2,14.1,24.2z
					 M29.2,25.2c-1.3,1.7-3.2,2.9-5.3,3.2c-4.5,0.7-8.8-2.3-9.6-6.8c-0.3-1.7,0-3.4,0.7-4.9l11.9-3.4c0.1,0.1,0.2,0.1,0.3,0.2
					c1.9,1.3,3.1,3.2,3.5,5.5C31.1,21.2,30.6,23.4,29.2,25.2z"/>
			</g>
		</g>
		<g>
			<g>
				<path fill="#010101" d="M48.4,20.2c0.9-0.5,1.1-1.8,1.1-2.2c0-1.8-1.5-3-4.1-3c-1,0-2,0.1-3.5,0.4l0,0c-0.1,0-0.1,0.1-0.1,0.2
					c0,0,0,0,0,0c0.4,2.3,0.4,6,0.1,9.6c0,0,0,0,0,0c0,0.1,0.1,0.1,0.1,0.2c0.9,0.2,2.8,0.4,3.8,0.4c2.5,0,4.3-1.3,4.3-3.2
					C50.1,21.3,49.5,20.6,48.4,20.2z M45.4,17.1c0.9,0,1.6,0.5,1.6,1.1c0,1.3-2.1,1.1-2.3,1.1l0-2.1C44.6,17.2,44.8,17.1,45.4,17.1z
					 M45.7,23.6c-0.4,0-0.7,0-1-0.1l0-2.1c0,0,0.5-0.1,0.8-0.1c0.8,0,1.8,0.3,1.8,1C47.3,23,47.1,23.6,45.7,23.6z"/>
				<path fill="#010101" d="M35.9,15c-1.1,0-2.3,0.1-3.2,0.4c0,0,0,0,0,0c-0.2,0-0.1,0.2-0.1,0.2c0.2,1.1,0.5,2.9,0.5,4.9
					c0,2-0.2,4.2-0.3,5.1c0,0,0,0,0,0c0,0,0,0,0,0c0,0.1,0.1,0.2,0.2,0.2c0,0,2.7,0,2.7,0c0.1,0,0.2-0.1,0.2-0.2c0,0,0,0,0,0
					c0,0,0-0.1,0-0.2l0-0.6l0-2.1c0,0,0.7,0,0.8,0c2.8-0.1,4.6-1.8,4.5-4C41,16.4,39,14.9,35.9,15z M36.2,20.3c-0.2,0-0.4,0-0.4,0
					c0,0,0-0.9,0-1.3c0-0.4-0.1-1.5-0.1-1.5s0.5-0.1,0.7-0.1c1.1,0,1.8,0.6,1.8,1.5C38.3,19.8,37.6,20.3,36.2,20.3z"/>
				<path fill="#010101" d="M56.6,18.2c0,0,0.2,0.1,0.2,0.1c0.1,0,0.1,0,0.1,0c0,0,0,0,0,0c0.2-0.1,0,0,1.3-1.6c0,0,0-0.1,0-0.1
					c0-0.1-0.1-0.2-0.1-0.2c0,0-1.4-1.2-3.3-1.4c-2.4-0.2-4.1,1.3-4.1,3.4c-0.1,1.7,1.2,2.7,3.5,3.4c1.7,0.5,1.2,1.7,0.1,1.7
					c-0.7,0-1.7-0.4-2.3-1c0,0,0,0-0.1,0c-0.1,0-0.1,0-0.2,0.1h0l-1.3,1.6c0,0,0,0.1,0,0.1c0,0.1,0.1,0.1,0.1,0.1
					c1,1,2.3,1.5,3.6,1.6c2.3,0.1,3.8-1.3,4-3.3c0.1-2.1-1.7-2.8-3-3.2c-1.1-0.3-1.6-0.7-1.6-1.1C53.7,17.7,54.6,17,56.6,18.2z"/>
			</g>
			<path fill="#FFFFFF" d="M59.7,15.4h2.8v1.3h0c0.5-0.7,1.7-1.6,3.1-1.6c3,0,4.9,2.1,4.9,5.2c0,2.8-1.7,5.3-4.6,5.3
				c-1.3,0-2.5-0.4-3.2-1.3h0l0,5.4l-3.1,0L59.7,15.4z M65,23c1.5,0,2.5-1,2.5-2.5s-0.9-2.5-2.5-2.5c-1.5,0-2.5,1-2.5,2.5
				C62.5,21.9,63.5,23,65,23z"/>
			<path fill="#FFFFFF" d="M78.1,24.2L78.1,24.2c-0.7,1.1-2,1.5-3.2,1.5c-1.9,0-3.6-1.1-3.6-3.1c0-3.5,4.2-3.5,6.8-3.5
				c0-1.1-0.9-1.8-2-1.8c-1,0-1.9,0.5-2.5,1.2L72,16.8c1.1-1.1,2.8-1.6,4.4-1.6c3.6,0,4.6,1.8,4.6,5.2v5.1h-2.8L78.1,24.2L78.1,24.2
				z M77.4,21c-0.9,0-3,0.1-3,1.4c0,0.7,0.8,1.1,1.5,1.1c1.2,0,2.3-0.6,2.3-1.9V21C78.1,21,77.4,21,77.4,21z"/>
			<path fill="#FFFFFF" d="M82.6,15.4h3.1V17h0c0.7-1.2,1.5-1.9,2.9-1.9c0.3,0,0.7,0,1,0.1v2.8c-0.4-0.1-0.9-0.2-1.3-0.2
				c-2.3,0-2.6,1.4-2.6,3.4v4.2h-3.1V15.4z"/>
			<path fill="#FFFFFF" d="M100.1,23.7c-1,1.3-2.6,2-4.2,2c-3.1,0-5.6-2.1-5.6-5.3c0-3.2,2.5-5.3,5.6-5.3c2.9,0,4.7,2.1,4.7,5.3v1
				h-7.2c0.2,1.2,1.1,1.9,2.3,1.9c1,0,1.7-0.5,2.2-1.2L100.1,23.7z M97.5,19.3c0-1-0.8-1.9-1.9-1.9c-1.4,0-2.1,0.9-2.2,1.9H97.5z"/>
			<path fill="#FFFFFF" d="M102,15.4h3v1.4h0c0.4-0.8,1.4-1.6,2.9-1.6c3.1,0,3.7,2.1,3.7,4.7v5.5h-3.1v-4.9c0-1.2,0-2.6-1.6-2.6
				c-1.6,0-1.9,1.3-1.9,2.6v5H102L102,15.4L102,15.4z"/>
			<path fill="#FFFFFF" d="M120.4,17.9h-2.7v3.3c0,1.1,0.1,1.9,1.5,1.9c0.3,0,1,0,1.3-0.3v2.6c-0.7,0.2-1.4,0.3-2.2,0.3
				c-2.1,0-3.6-0.8-3.6-3v-4.8h-2v-2.5h2v-3.4h3.1v3.4h2.7L120.4,17.9L120.4,17.9z"/>
			<path fill="#FFFFFF" d="M127.9,18.4c-0.5-0.6-1.1-0.8-1.8-0.8c-0.5,0-1.1,0.2-1.1,0.8c0,1.5,5.2,0.2,5.2,4c0,2.6-2.5,3.3-4.6,3.3
				c-1.4,0-2.9-0.4-3.9-1.4l1.9-2.1c0.6,0.7,1.3,1.1,2.2,1.1c0.7,0,1.4-0.2,1.4-0.7c0-1.6-5.2-0.2-5.2-4.1c0-2.3,2.1-3.4,4.2-3.4
				c1.3,0,2.8,0.3,3.7,1.3L127.9,18.4z"/>
		</g>
	</g>
</g>
<g>
	<g>
		<path fill="#275C6C" d="M381.9,34.7c0.2,0.5,0.3,1,0.5,1.5c1.1-0.1,2.1-0.2,3.1-0.5c0-0.5,0-1.1,0-1.6c1.5-0.4,3-1.1,4.3-2
			c0.4,0.3,0.8,0.7,1.3,1c0.9-0.6,1.6-1.3,2.4-2.1c-0.3-0.5-0.6-0.9-0.9-1.3c1-1.1,1.8-2.4,2.5-3.9c0-0.1,0-0.1,0.1-0.2
			c0.5,0.1,1.1,0.1,1.6,0.2c0.4-1,0.7-2,0.9-3c-0.5-0.2-1-0.5-1.5-0.7c0.2-1.6,0.2-3.2,0-4.8c0.5-0.2,1-0.5,1.4-0.7
			c-0.2-1-0.5-2-0.9-3c-0.5,0.1-1.1,0.1-1.6,0.2c-0.6-1.4-1.5-2.8-2.6-4c0.3-0.5,0.6-0.9,0.8-1.4c-0.7-0.8-1.5-1.4-2.4-2
			c-0.4,0.3-0.8,0.7-1.2,1.1c-0.7-0.4-1.4-0.8-2.2-1.2c-0.7-0.3-1.4-0.6-2.2-0.8c0-0.5,0-1.1-0.1-1.6c-1-0.2-2.1-0.4-3.1-0.4
			c-0.2,0.5-0.3,1-0.4,1.5c-1.6,0-3.2,0.2-4.7,0.7c-0.3-0.4-0.6-0.9-0.9-1.3c-1,0.4-2,0.8-2.9,1.3c0.1,0.5,0.3,1,0.5,1.5
			c-1.3,0.8-2.5,1.9-3.6,3.1c-0.5-0.2-1-0.4-1.5-0.6c-0.6,0.8-1.2,1.7-1.7,2.7c0.4,0.4,0.8,0.7,1.2,1c-0.1,0.1-0.1,0.2-0.2,0.3
			c-0.6,1.4-1,2.8-1.2,4.2c-0.5,0.1-1.1,0.2-1.6,0.3c-0.1,1.1-0.1,2.1,0,3.2c0.5,0.1,1.1,0.2,1.6,0.2c0.2,1.6,0.7,3.1,1.4,4.6
			c-0.4,0.4-0.8,0.7-1.2,1.1c0.5,0.9,1.1,1.8,1.7,2.6c0.5-0.2,1-0.4,1.5-0.7c1,1.2,2.2,2.2,3.6,3.1c-0.1,0.5-0.3,1-0.4,1.6
			c0.9,0.5,1.9,0.9,2.9,1.3c0.3-0.4,0.6-0.9,0.9-1.4C378.7,34.6,380.3,34.8,381.9,34.7"/>
		<path fill="#339ECB" d="M381.1,10.3c3-0.1,5.6,1.2,7.4,3.3l2.2-0.1c-1.1-1.5-2.5-2.8-4.3-3.6c-5.3-2.5-11.7-0.5-14.6,4.5l2.2-0.1
			C375.5,12,378.1,10.5,381.1,10.3"/>
		<path fill="#339ECB" d="M388.7,25.9c-1.6,2-4,3.4-6.8,3.5c-2.8,0.1-5.3-1-7.1-2.9l-2.5,0.1c1.1,1.5,2.5,2.8,4.3,3.6
			c5.3,2.5,11.7,0.5,14.6-4.5L388.7,25.9z"/>
		<path fill="#339ECB" d="M393.1,14.1l-31.6,1.5c-1.5,3.7-1.2,7.7,0.5,11l31.6-1.5C395.1,21.4,394.8,17.4,393.1,14.1"/>
		<path fill="#FFFFFF" d="M370.1,17.4c0-0.5,0.4-0.9,0.9-0.9s0.9,0.4,0.9,0.9l0.3,5.7l3.3-0.1c0.5,0,0.8,0.3,0.9,0.8
			c0,0.5-0.3,0.8-0.8,0.9l-4.2,0.2c-0.5,0-0.9-0.4-0.9-0.9L370.1,17.4z"/>
		<path fill="#FFFFFF" d="M377.4,23.3l2.6-6.6c0.2-0.5,0.5-0.7,1-0.8l0.1,0c0.5,0,0.9,0.2,1.1,0.7l3.1,6.3c0.1,0.1,0.1,0.2,0.1,0.4
			c0,0.5-0.3,0.9-0.8,0.9c-0.4,0-0.7-0.2-0.9-0.6l-0.6-1.3l-3.6,0.2l-0.5,1.4c-0.1,0.4-0.4,0.6-0.8,0.6c-0.5,0-0.8-0.3-0.9-0.8
			C377.3,23.5,377.4,23.4,377.4,23.3 M382.4,20.8l-1.3-2.7l-1,2.8L382.4,20.8z"/>
		<path fill="#FFFFFF" d="M386.1,16.7c0-0.5,0.4-0.9,0.9-0.9l2.9-0.1c0.9,0,1.7,0.2,2.2,0.6c0.4,0.4,0.6,0.8,0.6,1.4l0,0
			c0,0.9-0.4,1.5-1,1.8c1,0.3,1.6,0.8,1.6,1.9l0,0c0.1,1.5-1.1,2.3-3,2.4l-3,0.1c-0.5,0-0.9-0.4-0.9-0.9L386.1,16.7z M389.7,19
			c0.8,0,1.3-0.3,1.3-0.9l0,0c0-0.5-0.5-0.8-1.2-0.8l-1.8,0.1l0.1,1.7L389.7,19z M390.3,22.3c0.8,0,1.3-0.3,1.2-0.9l0,0
			c0-0.5-0.4-0.9-1.4-0.8l-2.1,0.1l0.1,1.8L390.3,22.3z"/>
		<g>
			<path fill="#FFFFFF" d="M367.9,21c-0.4,7.2-6.5,12.8-13.7,12.4c-7.2-0.3-12.8-6.5-12.4-13.7c0.4-7.2,6.5-12.8,13.7-12.4
				C362.7,7.6,368.3,13.8,367.9,21"/>
			<path fill="#9FC73B" d="M355.6,7.8c-6.9-0.3-12.7,5-13,11.8c-0.3,6.9,5,12.7,11.8,13c6.9,0.3,12.7-5,13-11.8
				C367.7,14,362.4,8.2,355.6,7.8"/>
			<path fill="#FFFFFF" d="M346.2,14.3c0.1-1.5,1-2.9,2.4-3.9c2-1.3,4.5-2.1,7-1.9c2.5,0.1,4.7,1.1,6.6,2.5c1.4,1.2,2.3,2.7,2.2,4.3
				c-0.1,1.8-1.4,3.4-3.3,4.4h0c-1.8,1-4,1.5-6.2,1.4c-2.7-0.1-5.1-1.2-6.9-2.8C346.8,17.1,346.1,15.7,346.2,14.3"/>
			<path fill="#010101" d="M357,12.6c0.5-0.2,0.6-0.9,0.6-1.1c0-0.9-0.6-1.6-1.9-1.7c-0.5,0-1,0-1.8,0.1c0,0-0.1,0-0.1,0.1
				c0,0,0,0,0,0c0.1,1.2,0,3.1-0.2,4.9l0,0c0,0,0,0.1,0.1,0.1c0.5,0.1,1.4,0.3,1.9,0.3c1.2,0.1,2.2-0.6,2.2-1.5
				C357.8,13.3,357.6,12.9,357,12.6 M355.6,11c0.5,0,0.8,0.3,0.7,0.6c0,0.7-1.1,0.5-1.2,0.5l0-1.1C355.2,11,355.3,11,355.6,11
				 M355.6,14.3c-0.2,0-0.3,0-0.5-0.1l0.1-1.1c0,0,0.3,0,0.4,0c0.4,0,0.9,0.2,0.9,0.6C356.4,14.1,356.3,14.4,355.6,14.3"/>
			<path fill="#010101" d="M350.6,10.3c-0.5,0.1-1.1,0.3-1.5,0.4v0c-0.1,0,0,0.1,0,0.1c0.3,0.9,0.9,3.9,0.9,5c0,0,0,0,0,0
				c0,0,0.1,0.1,0.1,0.1c0,0,1.3-0.3,1.3-0.3c0.1,0,0.1-0.1,0.1-0.1c0,0,0,0,0,0c0,0,0-0.1,0-0.1l-0.1-0.3l-0.2-1
				c0,0,0.3-0.1,0.4-0.1c1.4-0.2,2.2-1.2,2-2.3C353.3,10.6,352.1,10,350.6,10.3 M351.2,12.9c-0.1,0-0.2,0-0.2,0l-0.3-1.4
				c0,0,0.3-0.1,0.4-0.1c0.5-0.1,0.9,0.2,1,0.6C352.2,12.5,351.9,12.8,351.2,12.9"/>
			<path fill="#010101" d="M361,12.3c0,0,0.1,0.1,0.1,0.1c0,0,0.1,0,0.1,0c0.1-0.1,0,0,0.7-0.8c0,0,0,0,0,0c0,0,0-0.1,0-0.1
				c0,0-0.6-0.7-1.6-0.8c-1.2-0.2-2.1,0.5-2.2,1.5c-0.1,0.9,0.5,1.4,1.7,1.9c0.8,0.3,0.5,0.9,0,0.8c-0.3,0-0.8-0.3-1.1-0.6
				c0,0,0,0,0,0c0,0-0.1,0-0.1,0l-0.7,0.8c0,0,0,0,0,0c0,0,0,0.1,0,0.1c0.5,0.5,1.1,0.8,1.8,0.9c1.1,0.1,2-0.5,2.1-1.5
				c0.1-1.1-0.8-1.5-1.4-1.7c-0.6-0.2-0.8-0.4-0.7-0.6C359.6,12,360.1,11.7,361,12.3"/>
			<path fill="#FFFFFF" d="M363.2,21.6c0.7,0.3,1.6,0,1.9-0.7c0.3-0.7,0-1.6-0.7-1.9c-0.7-0.3-1.6,0-1.9,0.7
				C362.1,20.4,362.4,21.2,363.2,21.6"/>
			<path fill="#FFFFFF" d="M360.1,24.8c0-0.7-0.6-1.3-1.3-1.3c-0.7,0-1.3,0.6-1.3,1.3c0,0.7,0.6,1.3,1.3,1.3
				C359.5,26.1,360.1,25.6,360.1,24.8"/>
			<path fill="#FFFFFF" d="M353.2,28.7c1.3-0.3,2.1-1.5,1.9-2.8c-0.3-1.3-1.5-2.1-2.8-1.9c-1.3,0.3-2.1,1.5-1.9,2.8
				C350.7,28.1,351.9,28.9,353.2,28.7"/>
			<path fill="#010101" d="M357.5,29.2c0.3-0.2,0.4-0.7,0.2-1c-0.2-0.3-0.7-0.4-1-0.2c-0.3,0.2-0.4,0.7-0.2,1
				c0.1,0.2,0.3,0.3,0.5,0.3C357.1,29.3,357.3,29.3,357.5,29.2 M356.9,28.7c-0.1-0.1,0-0.2,0.1-0.3c0.1-0.1,0.3,0,0.3,0.1
				c0.1,0.1,0,0.2-0.1,0.3c-0.1,0-0.1,0-0.2,0C357,28.7,356.9,28.7,356.9,28.7"/>
			<path fill="#010101" d="M358.7,29.3c-1.1,1.2-2.7,1.2-2.7,1.2l0,0h0c-1.9,0.2-3.4-0.8-3.4-0.8c-0.1-0.1-0.3-0.1-0.4,0.1
				c-0.1,0.1-0.1,0.3,0.1,0.4c0.1,0,1.6,1.1,3.7,0.9c0.1,0,1.9-0.1,3.1-1.4c0,0,0.1-0.1,0.1-0.2c0-0.1,0-0.2-0.1-0.2
				C359,29.2,358.8,29.2,358.7,29.3"/>
			<path fill="#010101" d="M352.2,23.8c-0.7,0.1-1.3,0.5-1.7,1.1c-0.4,0.6-0.5,1.3-0.4,2c0.3,1.4,1.7,2.4,3.1,2.1
				c0.7-0.1,1.3-0.5,1.7-1.1c0.4-0.6,0.5-1.3,0.4-2C355,24.4,353.6,23.5,352.2,23.8 M350.7,26.8c-0.1-0.5,0-1.1,0.3-1.5
				c0.3-0.5,0.8-0.8,1.3-0.9c1.1-0.2,2.2,0.5,2.4,1.6c0,0.1,0,0.3,0,0.4c0,0.4-0.1,0.8-0.3,1.1c-0.3,0.5-0.8,0.8-1.3,0.9
				C352,28.6,350.9,27.9,350.7,26.8"/>
			<path fill="#010101" d="M351.4,27.4c0.5,0.1,0.9-0.2,1-0.7c0.1-0.5-0.2-0.9-0.7-1c-0.5-0.1-0.9,0.2-1,0.7
				C350.6,26.9,350.9,27.4,351.4,27.4"/>
			<path fill="#010101" d="M357.2,24.8c0,0.9,0.7,1.6,1.5,1.6c0.9,0,1.6-0.7,1.6-1.5c0-0.9-0.7-1.6-1.5-1.6
				C357.9,23.2,357.2,23.9,357.2,24.8 M357.7,24.8c0-0.6,0.5-1.1,1.1-1.1c0.6,0,1.1,0.5,1.1,1.1c0,0.6-0.5,1.1-1.1,1.1
				C358.2,25.9,357.7,25.4,357.7,24.8"/>
			<path fill="#010101" d="M358.2,25.5c0.3,0.1,0.6-0.2,0.7-0.5c0.1-0.3-0.1-0.6-0.5-0.7c-0.3-0.1-0.6,0.1-0.7,0.5
				C357.7,25.2,357.9,25.5,358.2,25.5"/>
			<path fill="#010101" d="M361.6,25.1c-0.3-1.7-1.2-3.3-2.6-4.4c0,0,0,0,0,0c-0.1,0-0.1-0.1-0.2-0.1c-0.2-0.1-0.4-0.3-0.6-0.4
				c-1.6-1-4.2-1.9-10.5,0.3l1.1,1.1l-2.3,0.7l1.7,1.2l-2.1,0.6l1.8,1.4c-0.6,0.3-1.1,0.9-1.2,1.7c-0.1,1.1,0.7,2,1.8,2.1
				c0.2,0,0.3,0,0.5,0c1.3,2.3,4,3.7,6.8,3.4c1.7-0.2,3.3-1.1,4.4-2.5C361.4,28.7,361.8,26.9,361.6,25.1 M348.6,28.8
				c-0.8-0.1-1.4-0.7-1.3-1.5c0-0.6,0.4-1,0.9-1.2c0,0.3,0,0.6,0.1,0.9c0.1,0.7,0.3,1.3,0.6,1.9C348.8,28.8,348.7,28.8,348.6,28.8
				 M359.8,29.8c-1,1.3-2.4,2.1-4,2.3c-3.4,0.5-6.5-1.9-7-5.2c-0.2-1.3,0-2.5,0.6-3.6l8.9-2.3c0.1,0,0.1,0.1,0.2,0.1
				c1.4,1,2.2,2.5,2.5,4.1C361.2,26.9,360.8,28.5,359.8,29.8"/>
			<path fill="#FFFFFF" d="M361.8,22.4c-0.2,0.4-0.1,0.8,0.2,1.1c0.4,0.2,0.8,0.1,1.1-0.2c0.2-0.4,0.1-0.8-0.2-1.1
				C362.5,21.9,362,22,361.8,22.4"/>
			<path fill="#010101" d="M354.3,18.6L354.3,18.6l0-0.2l0-0.4l0,0l0-1.2l0,0l0-0.4l0-0.2l0,0c0,0,0,0,0,0c0,0-0.2,0-0.3,0
				c-0.2,0-0.3,0-0.3,0c0,0,0,0,0,0l0,0l0,0.2l0,0.4l0,0l0,1.2v0l0,0.4l0,0.2v0c0,0,0,0,0,0h0L354.3,18.6L354.3,18.6
				C354.3,18.6,354.3,18.6,354.3,18.6C354.3,18.6,354.3,18.6,354.3,18.6"/>
			<path fill="#010101" d="M357.3,17.6c-0.1,0.8-0.8,1.2-1.5,1.1c-0.2,0-0.2,0-0.4,0c-0.2,0-0.4,0-0.4,0l0,0c0,0,0,0,0,0v0l0.1-0.2
				l0-0.4l0,0l0.1-1.2l0,0l0-0.4l0-0.2l0,0c0,0,0,0,0,0c0,0,0.2,0,0.2,0c0.1,0,0.4,0,0.5,0C356.8,16.3,357.4,16.8,357.3,17.6
				 M355.9,16.8c-0.1,0-0.1,0-0.1,0l0,0.1l0,0l-0.1,1.2l0,0l0,0.1c0,0,0.1,0,0.1,0c0.4,0,0.8-0.2,0.8-0.6
				C356.7,17.1,356.3,16.8,355.9,16.8"/>
			<path fill="#010101" d="M353.1,18.6l-1-1.1c0.2-0.3,0.5-0.5,0.8-0.7c0,0,0,0,0,0c0,0,0,0,0,0l-0.4-0.4c0,0,0,0,0,0c0,0,0,0,0,0
				c-0.4,0.3-0.8,0.7-1.2,1.2l-0.1-0.5v0l0-0.4l0-0.2v0c0,0,0,0,0,0c0,0-0.2,0-0.3,0c-0.2,0-0.3,0-0.3,0c0,0,0,0,0,0l0,0l0.1,0.2
				l0.1,0.4v0l0.2,1.2v0l0,0.4l0,0.2v0c0,0,0,0,0,0l0,0l0.6-0.1l0,0c0,0,0,0,0,0c0,0,0,0,0,0l-0.1-0.2l0-0.2l0,0
				c0.1-0.1,0.2-0.3,0.3-0.4l0.7,0.8c0,0,0,0,0,0h0L353.1,18.6L353.1,18.6L353.1,18.6C353.1,18.6,353.1,18.6,353.1,18.6
				C353.1,18.6,353.1,18.6,353.1,18.6"/>
			<path fill="#010101" d="M359.8,18.6c0.2-1.1-1.4-0.9-1.3-1.3c0-0.2,0.7-0.3,1.1,0.3c0,0,0,0,0,0c0,0,0,0,0,0v0
				c0.1-0.1,0.3-0.3,0.4-0.4c0,0,0,0,0,0c0,0,0,0,0,0c0,0,0,0,0,0h0h0c-0.3-0.6-2-1-2.2,0c-0.2,1,1.4,1,1.3,1.3
				c-0.1,0.3-0.9,0.2-1.2-0.4c0,0,0,0,0,0c0,0,0,0,0,0c-0.1,0.1-0.4,0.3-0.5,0.3c0,0,0,0,0,0c0,0,0,0,0,0c0,0,0,0,0,0
				C358.1,19.5,359.6,19.6,359.8,18.6"/>
			<g>
				<g>
					<path fill="#275C6C" d="M365.7,28.6c0.4,0,0.8,0.4,0.8,0.9s-0.4,0.8-0.9,0.8c-0.4,0-0.8-0.4-0.8-0.9
						C364.9,28.9,365.3,28.6,365.7,28.6z M365.6,30.1c0.4,0,0.7-0.3,0.7-0.7c0-0.4-0.3-0.7-0.6-0.7c-0.4,0-0.7,0.3-0.7,0.7
						C365,29.8,365.3,30.1,365.6,30.1z M365.4,29l0.4,0c0.2,0,0.3,0.1,0.3,0.3c0,0.2-0.1,0.2-0.3,0.2l0.2,0.4l-0.2,0l-0.2-0.4
						l-0.2,0l0,0.4l-0.1,0L365.4,29z M365.5,29.4l0.1,0c0.1,0,0.3,0,0.3-0.1c0-0.1-0.1-0.2-0.2-0.2l-0.2,0L365.5,29.4z"/>
				</g>
			</g>
		</g>
	</g>
</g>
<g>
	<g>
		<path fill="#F79358" d="M693.6,4.5c8.4,0,15.2,6.8,15.2,15.2c0,8.4-6.8,15.2-15.2,15.2h-50.8c-8.4,0-15.2-6.8-15.2-15.2
			c0-8.4,6.8-15.2,15.2-15.2C642.9,4.5,693.6,4.5,693.6,4.5z"/>
		<g>
			<g>
				<g>
					<path fill="#FFFFFF" d="M658.4,23.9L658.4,23.9l1.6-1.5l0.1,0.1c0.7,0.6,1.4,1.2,2.5,1.2l0,0c1,0,2.1-0.4,2.1-1.2l0,0
						c0-1.1-1.6-1.3-2.5-1.5l0,0c-1.7-0.4-3.4-1-3.4-3.2l0,0c0-2.3,2.1-3.4,4.2-3.4l0,0c1.5,0,3,0.5,3.8,1.8l0,0l0.1,0.1l-1.7,1.3
						l-0.1,0.1l-0.1-0.1c-0.5-0.6-1.1-1-2.1-1l0,0c-0.9,0-1.7,0.4-1.7,1.1l0,0c0,1.2,1.7,1.4,2.7,1.6l0,0c1.8,0.4,3.2,1.1,3.2,3.2
						l0,0c0,2.5-2.3,3.5-4.5,3.5l0,0c0,0,0,0,0,0l0,0C660.8,25.8,659.5,25.4,658.4,23.9L658.4,23.9z M665.1,17.4L665.1,17.4
						L665.1,17.4L665.1,17.4z"/>
				</g>
				<g>
					<path fill="#FFFFFF" d="M676.1,25.6v-6.5c0-2-1.1-2.6-2.3-2.6l0,0c-1.6,0-2.9,1-2.9,3.5l0,0v5.6h-2.3V7.9V7.7h2.3V16
						c0.6-1,1.9-1.7,3.5-1.7l0,0c2.1,0,4,1.3,4,4.2l0,0v7L676.1,25.6L676.1,25.6z"/>
				</g>
				<g>
					<path fill="#FFFFFF" d="M685.7,14.6L685.7,14.6v-0.1v-0.1c3.3,0,5.8,2.6,5.8,5.7l0,0c0,3.2-2.6,5.7-5.8,5.7l0,0
						c-3.2,0-5.8-2.6-5.8-5.7l0,0c0-3.2,2.6-5.7,5.8-5.7l0,0v0.1 M685.7,23.9L685.7,23.9v-0.1v-0.1c2.1,0,3.4-1.5,3.4-3.6l0,0
						c0-2.1-1.3-3.6-3.4-3.6l0,0c-2.1,0-3.4,1.5-3.4,3.6l0,0c0,2.1,1.3,3.6,3.4,3.6l0,0v0.1V23.9"/>
				</g>
				<g>
					<path fill="#FFFFFF" d="M693.1,32.4V14.7v-0.1h2.3V16c0.8-1.1,2.3-1.6,3.7-1.6l0,0c3.4,0,5.6,2.5,5.6,5.7l0,0
						c0,3.3-2.2,5.7-5.6,5.7l0,0c-1.5,0-2.9-0.6-3.7-1.6l0,0v8.2L693.1,32.4L693.1,32.4z M699.1,23.7c2.1,0,3.4-1.5,3.4-3.6l0,0
						c0-2.1-1.3-3.6-3.4-3.6l0,0c-2.1,0-3.4,1.5-3.4,3.6l0,0C695.7,22.2,697,23.7,699.1,23.7L699.1,23.7z"/>
				</g>
			</g>
			<g>
				<g>
					<circle fill="#FFFFFF" cx="642.8" cy="19.9" r="13.1"/>
					<path fill="#A5CD39" d="M642.9,7.5c-6.8,0-12.4,5.5-12.4,12.4c0,6.8,5.5,12.4,12.4,12.4c6.8,0,12.4-5.5,12.4-12.4
						C655.2,13,649.7,7.5,642.9,7.5"/>
					<path fill="#FFFFFF" d="M633.8,14.3c0-1.5,0.8-2.9,2.2-4c1.9-1.4,4.3-2.3,6.9-2.2c2.5,0,4.8,0.8,6.6,2.2
						c1.5,1.1,2.4,2.6,2.4,4.2c0,1.8-1.2,3.4-3,4.6l0,0c-1.8,1.1-3.9,1.7-6.1,1.7c-2.6,0-5.1-0.9-7-2.5
						C634.6,17.1,633.8,15.8,633.8,14.3"/>
					<path fill="#0E0F19" d="M644.5,12.2c0.5-0.2,0.5-0.9,0.5-1.1c0-0.9-0.7-1.6-2-1.6c-0.5,0-1,0.1-1.8,0.2v0c0,0-0.1,0-0.1,0.1
						c0,0,0,0,0,0c0.2,1.2,0.2,3,0,4.9c0,0,0,0,0,0c0,0,0,0.1,0.1,0.1c0.5,0.1,1.4,0.2,1.9,0.2c1.2,0,2.1-0.7,2.1-1.6
						C645.4,12.8,645.1,12.4,644.5,12.2 M643.1,10.6c0.5,0,0.8,0.2,0.8,0.6c0,0.7-1.1,0.6-1.1,0.5l0-1.1
						C642.7,10.7,642.7,10.6,643.1,10.6 M643.2,13.9c-0.2,0-0.3,0-0.5-0.1l0-1.1c0,0,0.3,0,0.4,0c0.4,0,0.9,0.1,0.9,0.5
						C644,13.6,643.9,13.9,643.2,13.9"/>
					<path fill="#0E0F19" d="M638,10.2c-0.5,0.1-1.1,0.3-1.5,0.5c0,0,0,0,0,0c-0.1,0,0,0.1,0,0.1c0.4,0.9,1,3.9,1.1,4.9l0,0
						c0,0,0,0,0,0c0,0,0.1,0.1,0.1,0.1c0,0,1.3-0.4,1.3-0.4c0,0,0.1-0.1,0.1-0.1c0,0,0,0,0,0c0,0,0-0.1,0-0.1l-0.1-0.3l-0.2-0.9
						c0,0,0.3-0.1,0.3-0.1c1.4-0.3,2.1-1.3,1.8-2.4C640.7,10.3,639.5,9.8,638,10.2 M638.7,12.7c-0.1,0-0.2,0-0.2,0l-0.3-1.4
						c0,0,0.3-0.1,0.4-0.1c0.5-0.1,0.9,0.1,1,0.5C639.7,12.2,639.4,12.6,638.7,12.7"/>
					<path fill="#0E0F19" d="M648.5,11.7c0,0,0.1,0.1,0.1,0.1c0,0,0.1,0,0.1,0l0,0c0.1-0.1,0,0,0.7-0.8c0,0,0,0,0-0.1
						c0,0,0-0.1,0-0.1c0,0-0.7-0.6-1.6-0.7c-1.2-0.1-2.1,0.6-2.1,1.6c-0.1,0.9,0.6,1.4,1.7,1.8c0.8,0.3,0.6,0.9,0,0.8
						c-0.3,0-0.8-0.2-1.2-0.6c0,0,0,0,0,0c0,0-0.1,0-0.1,0l-0.7,0.8c0,0,0,0,0,0c0,0,0,0.1,0,0.1c0.5,0.5,1.2,0.8,1.8,0.8
						c1.1,0.1,1.9-0.6,2-1.6c0.1-1.1-0.8-1.4-1.5-1.7c-0.6-0.2-0.8-0.4-0.8-0.6C647,11.4,647.5,11.1,648.5,11.7"/>
					<path fill="#FFFFFF" d="M651.1,20.8c0.7,0.3,1.6,0,1.9-0.8c0.3-0.7,0-1.6-0.8-1.9c-0.7-0.3-1.6,0-1.9,0.8
						C650,19.6,650.3,20.5,651.1,20.8"/>
					<path fill="#FFFFFF" d="M648.2,24.2c0-0.7-0.6-1.3-1.3-1.3c-0.7,0-1.3,0.6-1.3,1.3c0,0.7,0.6,1.3,1.3,1.3
						C647.6,25.5,648.2,24.9,648.2,24.2"/>
					<path fill="#FFFFFF" d="M641.5,28.3c1.3-0.3,2-1.6,1.7-2.8c-0.3-1.3-1.6-2-2.9-1.7c-1.3,0.3-2,1.6-1.7,2.8
						C638.9,27.9,640.2,28.6,641.5,28.3"/>
					<path fill="#0E0F19" d="M645.8,28.6c0.3-0.2,0.4-0.7,0.2-1s-0.7-0.4-1-0.2c-0.3,0.2-0.4,0.7-0.2,1c0.1,0.2,0.3,0.3,0.5,0.3
						C645.4,28.8,645.6,28.7,645.8,28.6 M645.2,28.1c-0.1-0.1,0-0.2,0.1-0.3c0.1-0.1,0.3,0,0.3,0.1c0.1,0.1,0,0.2-0.1,0.3
						c-0.1,0-0.1,0-0.2,0C645.3,28.2,645.2,28.2,645.2,28.1"/>
					<path fill="#0E0F19" d="M647,28.7c-1,1.2-2.6,1.4-2.6,1.4l0,0l0,0c-1.9,0.3-3.4-0.6-3.4-0.6c-0.1-0.1-0.3,0-0.4,0.1
						c-0.1,0.1,0,0.3,0.1,0.4c0.1,0,1.7,1,3.8,0.7c0.1,0,1.9-0.2,3-1.6c0-0.1,0.1-0.1,0.1-0.2c0-0.1,0-0.2-0.1-0.2
						C647.2,28.5,647.1,28.6,647,28.7"/>
					<path fill="#0E0F19" d="M640.3,23.5c-0.7,0.2-1.3,0.6-1.6,1.2c-0.4,0.6-0.5,1.3-0.3,2c0.4,1.4,1.8,2.3,3.2,1.9
						c0.7-0.2,1.3-0.6,1.6-1.2c0.4-0.6,0.5-1.3,0.3-2C643.1,24,641.7,23.1,640.3,23.5 M638.9,26.5c-0.1-0.5-0.1-1.1,0.2-1.6
						c0.3-0.5,0.7-0.8,1.3-0.9c1.1-0.3,2.2,0.4,2.5,1.5c0,0.1,0.1,0.3,0.1,0.4c0,0.4-0.1,0.8-0.3,1.1c-0.3,0.5-0.7,0.8-1.3,0.9
						C640.3,28.3,639.2,27.6,638.9,26.5"/>
					<path fill="#0E0F19" d="M639.6,27.2c0.5,0.1,0.9-0.3,1-0.7c0.1-0.5-0.3-0.9-0.7-0.9c-0.5-0.1-0.9,0.3-1,0.7
						C638.8,26.7,639.2,27.1,639.6,27.2"/>
					<path fill="#0E0F19" d="M645.3,24.3c0,0.9,0.8,1.5,1.6,1.5c0.9,0,1.5-0.7,1.5-1.6c0-0.9-0.8-1.5-1.6-1.5
						C646,22.7,645.3,23.4,645.3,24.3 M645.8,24.2c0-0.6,0.5-1.1,1.1-1.1c0.6,0,1.1,0.5,1.1,1.1c0,0.6-0.5,1.1-1.1,1.1
						C646.3,25.3,645.8,24.9,645.8,24.2"/>
					<path fill="#0E0F19" d="M646.3,25c0.3,0,0.6-0.2,0.6-0.5c0-0.3-0.2-0.6-0.5-0.6c-0.3,0-0.6,0.2-0.6,0.5
						C645.8,24.6,646,24.9,646.3,25"/>
					<path fill="#0E0F19" d="M649.6,24.4c-0.3-1.7-1.3-3.2-2.8-4.2h0c0,0,0,0,0,0c-0.1,0-0.1-0.1-0.2-0.1c-0.2-0.1-0.4-0.3-0.7-0.4
						c-1.6-0.9-4.3-1.7-10.5,0.8l1.1,1l-2.2,0.8l1.7,1.1l-2,0.7l1.9,1.3c-0.6,0.3-1.1,1-1.1,1.7c0,1.1,0.8,2,1.9,2
						c0.2,0,0.3,0,0.5-0.1c1.4,2.2,4.2,3.5,6.9,3c1.7-0.3,3.2-1.3,4.2-2.7C649.6,28,650,26.2,649.6,24.4 M636.9,28.6
						c-0.8,0-1.4-0.7-1.4-1.4c0-0.6,0.4-1,0.8-1.3c0,0.3,0.1,0.6,0.1,0.9c0.1,0.6,0.3,1.3,0.6,1.8C637.1,28.6,637,28.6,636.9,28.6
						 M648.1,29.1c-0.9,1.3-2.3,2.2-3.9,2.5c-3.3,0.6-6.5-1.6-7.2-4.9c-0.3-1.3-0.1-2.5,0.4-3.6l8.7-2.7c0.1,0,0.1,0.1,0.2,0.1
						c1.4,0.9,2.4,2.3,2.7,4C649.4,26.1,649,27.8,648.1,29.1"/>
					<path fill="#FFFFFF" d="M649.7,21.6c-0.2,0.4-0.1,0.8,0.3,1.1c0.4,0.2,0.8,0.1,1.1-0.3c0.2-0.4,0.1-0.8-0.3-1.1
						C650.4,21.1,650,21.3,649.7,21.6"/>
					<path fill="#0E0F19" d="M642.1,18.2L642.1,18.2l0-0.2l0-0.4v0l-0.1-1.2v0l0-0.4l0-0.2v0c0,0,0,0,0,0c0,0-0.2,0-0.3,0
						c-0.2,0-0.3,0-0.3,0c0,0,0,0,0,0l0,0l0,0l0,0.2l0,0.4l0,0l0.1,1.2v0l0,0.4l0,0.2c0,0,0,0,0,0c0,0,0,0,0,0l0,0L642.1,18.2
						L642.1,18.2C642.1,18.3,642.1,18.3,642.1,18.2C642.1,18.2,642.1,18.2,642.1,18.2"/>
					<path fill="#0E0F19" d="M645,17.1c0,0.8-0.7,1.2-1.5,1.2c-0.2,0-0.2,0-0.4,0c-0.2,0-0.4,0-0.4,0l0,0c0,0,0,0,0,0c0,0,0,0,0,0
						l0,0l0-0.2l0-0.4v0l0-1.2l0,0l0-0.4l0-0.2l0,0c0,0,0,0,0,0c0,0,0.2,0,0.2,0c0.1,0,0.4,0,0.5,0C644.4,15.8,645.1,16.3,645,17.1
						 M643.6,16.4c-0.1,0-0.1,0-0.1,0l0,0.1v0l0,1.2v0l0,0.1c0,0,0.1,0,0.1,0c0.4,0,0.8-0.2,0.8-0.7C644.4,16.7,644,16.4,643.6,16.4
						"/>
					<path fill="#0E0F19" d="M640.9,18.3l-1.1-1c0.2-0.3,0.5-0.5,0.7-0.7v0c0,0,0,0,0,0c0,0,0,0,0,0l-0.4-0.4c0,0,0,0,0,0
						c0,0,0,0,0,0c0,0,0,0,0,0c-0.4,0.4-0.8,0.8-1.1,1.2l-0.1-0.5l0,0l-0.1-0.4l0-0.2l0,0c0,0,0,0,0,0c0,0-0.2,0-0.3,0.1
						c-0.2,0-0.3,0.1-0.3,0.1c0,0,0,0,0,0v0l0.1,0.2l0.1,0.4l0,0l0.2,1.2l0,0l0.1,0.4l0,0.2l0,0c0,0,0,0,0,0c0,0,0,0,0,0l0,0l0,0
						l0.6-0.1l0,0c0,0,0,0,0,0c0,0,0,0,0,0l0,0l-0.1-0.2l0-0.2l0,0c0.1-0.1,0.2-0.3,0.3-0.4l0.7,0.7l0,0c0,0,0,0,0,0c0,0,0,0,0,0
						l0,0L640.9,18.3L640.9,18.3C640.9,18.3,640.9,18.3,640.9,18.3C640.9,18.3,641,18.3,640.9,18.3C641,18.3,640.9,18.3,640.9,18.3"
						/>
					<path fill="#0E0F19" d="M647.6,18c0.1-1.1-1.4-0.9-1.4-1.2c0-0.2,0.7-0.3,1.1,0.2l0,0c0,0,0,0,0,0c0,0,0,0,0,0v0
						c0.1-0.1,0.3-0.3,0.4-0.4c0,0,0,0,0,0c0,0,0,0,0,0c0,0,0,0,0,0l0,0c0,0,0,0,0,0c0,0,0,0,0,0c-0.4-0.6-2-0.9-2.2,0.1
						c-0.1,1,1.5,0.9,1.4,1.3c-0.1,0.3-0.9,0.2-1.2-0.3c0,0,0,0,0,0s0,0,0,0c-0.1,0.1-0.4,0.3-0.4,0.4c0,0,0,0,0,0c0,0,0,0,0,0
						c0,0,0,0,0,0l0,0C645.9,18.9,647.4,19,647.6,18"/>
				</g>
				<path fill="#FFFFFF" d="M654.7,27.9c0.5,0,1,0.4,1,1s-0.4,1-1,1c-0.5,0-1-0.4-1-1C653.7,28.3,654.1,27.9,654.7,27.9z
					 M654.7,29.7c0.4,0,0.8-0.4,0.8-0.8c0-0.5-0.4-0.8-0.8-0.8c-0.5,0-0.8,0.4-0.8,0.8S654.2,29.7,654.7,29.7z M654.3,28.3h0.4
					c0.3,0,0.4,0.1,0.4,0.3c0,0.2-0.1,0.3-0.3,0.3l0.3,0.5H655l-0.3-0.5h-0.2v0.5h-0.2L654.3,28.3L654.3,28.3z M654.5,28.8h0.2
					c0.2,0,0.3,0,0.3-0.2c0-0.2-0.1-0.2-0.3-0.2h-0.2L654.5,28.8L654.5,28.8z"/>
			</g>
		</g>
	</g>
</g>
<g>
	<g>
		<g>
			<circle fill="#FFFFFF" cx="773.9" cy="20.3" r="12.6"/>
			<path fill="#A5CD39" d="M773.9,8.4c-6.6,0-11.9,5.3-11.9,11.9c0,6.6,5.3,11.9,11.9,11.9c6.6,0,11.9-5.3,11.9-11.9
				C785.8,13.8,780.5,8.4,773.9,8.4"/>
			<path fill="#FFFFFF" d="M765.2,15c0-1.5,0.8-2.8,2.1-3.9c1.9-1.4,4.2-2.2,6.6-2.2c2.4,0,4.6,0.8,6.4,2.1c1.4,1.1,2.3,2.5,2.3,4
				c0,1.8-1.1,3.3-2.9,4.4l0,0c-1.7,1-3.7,1.6-5.8,1.6c-2.5,0-4.9-0.9-6.8-2.4C765.9,17.7,765.2,16.4,765.2,15"/>
			<path fill="#0E0F19" d="M775.5,13c0.4-0.2,0.5-0.9,0.5-1.1c0-0.9-0.7-1.5-1.9-1.5c-0.5,0-1,0.1-1.7,0.2v0c0,0-0.1,0-0.1,0.1
				c0,0,0,0,0,0c0.2,1.1,0.2,2.9,0,4.7c0,0,0,0,0,0c0,0,0,0.1,0.1,0.1c0.4,0.1,1.3,0.2,1.8,0.2c1.2,0,2.1-0.6,2.1-1.6
				C776.3,13.5,776.1,13.2,775.5,13 M774.1,11.5c0.4,0,0.7,0.2,0.7,0.6c0,0.6-1,0.5-1.1,0.5l0-1C773.7,11.5,773.8,11.5,774.1,11.5
				 M774.2,14.6c-0.2,0-0.3,0-0.5-0.1l0-1c0,0,0.3,0,0.4,0c0.4,0,0.9,0.1,0.8,0.5C775,14.3,774.9,14.6,774.2,14.6"/>
			<path fill="#0E0F19" d="M769.3,11c-0.5,0.1-1.1,0.3-1.4,0.5c0,0,0,0,0,0c-0.1,0,0,0.1,0,0.1c0.4,0.9,1,3.7,1.1,4.7l0,0
				c0,0,0,0,0,0c0,0,0.1,0.1,0.1,0.1c0,0,1.2-0.4,1.2-0.4c0,0,0.1-0.1,0.1-0.1c0,0,0,0,0,0c0,0,0-0.1,0-0.1l-0.1-0.2l-0.2-0.9
				c0,0,0.3-0.1,0.3-0.1c1.3-0.3,2-1.3,1.8-2.3C771.8,11.1,770.7,10.7,769.3,11 M769.9,13.5c-0.1,0-0.2,0-0.2,0l-0.3-1.4
				c0,0,0.2-0.1,0.3-0.1c0.5-0.1,0.9,0.1,1,0.5C770.8,13,770.6,13.3,769.9,13.5"/>
			<path fill="#0E0F19" d="M779.3,12.5c0,0,0.1,0.1,0.1,0.1c0,0,0.1,0,0.1,0l0,0c0.1-0.1,0,0,0.7-0.8c0,0,0,0,0,0c0,0,0-0.1,0-0.1
				c0,0-0.6-0.6-1.6-0.7c-1.2-0.1-2,0.6-2,1.6c-0.1,0.8,0.5,1.3,1.7,1.7c0.8,0.3,0.5,0.8,0,0.8c-0.3,0-0.8-0.2-1.1-0.5c0,0,0,0,0,0
				c0,0-0.1,0-0.1,0l-0.7,0.8c0,0,0,0,0,0c0,0,0,0.1,0,0.1c0.5,0.5,1.1,0.8,1.7,0.8c1.1,0.1,1.9-0.6,2-1.5c0.1-1-0.8-1.4-1.4-1.6
				c-0.5-0.2-0.8-0.3-0.7-0.6C777.9,12.2,778.4,11.9,779.3,12.5"/>
			<path fill="#FFFFFF" d="M781.8,21.2c0.7,0.3,1.5,0,1.8-0.7c0.3-0.7,0-1.5-0.7-1.8c-0.7-0.3-1.5,0-1.8,0.7
				C780.8,20.1,781.1,20.9,781.8,21.2"/>
			<path fill="#FFFFFF" d="M779,24.5c0-0.7-0.6-1.2-1.3-1.2c-0.7,0-1.2,0.6-1.2,1.3c0,0.7,0.6,1.2,1.3,1.2
				C778.5,25.7,779,25.2,779,24.5"/>
			<path fill="#FFFFFF" d="M772.6,28.5c1.2-0.3,2-1.5,1.7-2.7c-0.3-1.2-1.5-1.9-2.8-1.6c-1.2,0.3-2,1.5-1.7,2.7
				C770.1,28,771.4,28.8,772.6,28.5"/>
			<path fill="#0E0F19" d="M776.7,28.7c0.3-0.2,0.4-0.7,0.2-1c-0.2-0.3-0.7-0.4-1-0.2c-0.3,0.2-0.4,0.7-0.2,1
				c0.1,0.2,0.3,0.3,0.5,0.3C776.4,28.9,776.6,28.8,776.7,28.7 M776.1,28.3c-0.1-0.1,0-0.2,0.1-0.3c0.1-0.1,0.2,0,0.3,0.1
				c0.1,0.1,0,0.2-0.1,0.3c-0.1,0-0.1,0-0.2,0C776.2,28.4,776.2,28.3,776.1,28.3"/>
			<path fill="#0E0F19" d="M777.9,28.8c-1,1.2-2.5,1.3-2.5,1.3l0,0l0,0c-1.8,0.3-3.2-0.6-3.3-0.6c-0.1-0.1-0.3,0-0.4,0.1
				c-0.1,0.1,0,0.3,0.1,0.4c0.1,0,1.6,1,3.6,0.7c0.1,0,1.8-0.2,2.9-1.5c0,0,0.1-0.1,0.1-0.2c0-0.1,0-0.2-0.1-0.2
				C778.1,28.7,778,28.7,777.9,28.8"/>
			<path fill="#0E0F19" d="M771.4,23.8c-0.7,0.2-1.2,0.6-1.6,1.2c-0.3,0.6-0.4,1.3-0.3,1.9c0.3,1.4,1.7,2.2,3.1,1.8
				c0.7-0.2,1.2-0.6,1.6-1.2c0.3-0.6,0.4-1.3,0.3-1.9C774.2,24.3,772.8,23.5,771.4,23.8 M770.1,26.8c-0.1-0.5,0-1,0.2-1.5
				c0.3-0.5,0.7-0.8,1.2-0.9c1.1-0.3,2.2,0.4,2.4,1.4c0,0.1,0.1,0.3,0.1,0.4c0,0.4-0.1,0.7-0.3,1.1c-0.3,0.5-0.7,0.8-1.2,0.9
				C771.5,28.5,770.4,27.8,770.1,26.8"/>
			<path fill="#0E0F19" d="M770.8,27.4c0.4,0.1,0.9-0.3,0.9-0.7c0.1-0.4-0.3-0.9-0.7-0.9c-0.4-0.1-0.9,0.3-0.9,0.7
				C770,26.9,770.3,27.3,770.8,27.4"/>
			<path fill="#0E0F19" d="M776.3,24.6c0,0.8,0.7,1.5,1.5,1.4c0.8,0,1.5-0.7,1.4-1.5c0-0.8-0.7-1.5-1.5-1.4
				C776.9,23,776.2,23.7,776.3,24.6 M776.7,24.5c0-0.6,0.4-1.1,1-1.1c0.6,0,1.1,0.4,1.1,1c0,0.6-0.4,1.1-1,1.1
				C777.2,25.6,776.7,25.1,776.7,24.5"/>
			<path fill="#0E0F19" d="M777.2,25.2c0.3,0,0.6-0.2,0.6-0.5c0-0.3-0.2-0.6-0.5-0.6c-0.3,0-0.6,0.2-0.6,0.5
				C776.7,24.9,776.9,25.2,777.2,25.2"/>
			<path fill="#0E0F19" d="M780.4,24.7c-0.3-1.6-1.3-3.1-2.6-4h0c0,0,0,0,0,0c-0.1,0-0.1-0.1-0.2-0.1c-0.2-0.1-0.4-0.3-0.6-0.4
				c-1.6-0.8-4.2-1.7-10.1,0.7l1.1,1l-2.1,0.8l1.7,1.1l-1.9,0.7l1.8,1.3c-0.6,0.3-1,0.9-1,1.6c0,1,0.8,1.9,1.8,1.9
				c0.2,0,0.3,0,0.5,0c1.4,2.2,4,3.4,6.7,2.9c1.7-0.3,3.1-1.2,4.1-2.6C780.4,28.1,780.8,26.4,780.4,24.7 M768.2,28.8
				c-0.7,0-1.3-0.6-1.3-1.4c0-0.5,0.3-1,0.8-1.2c0,0.3,0.1,0.5,0.1,0.8c0.1,0.6,0.3,1.2,0.6,1.7C768.4,28.8,768.3,28.8,768.2,28.8
				 M778.9,29.3c-0.9,1.2-2.2,2.1-3.7,2.4c-3.2,0.6-6.3-1.5-6.9-4.7c-0.2-1.2-0.1-2.4,0.4-3.5l8.4-2.6c0.1,0,0.1,0.1,0.2,0.1
				c1.3,0.9,2.3,2.2,2.6,3.8C780.2,26.4,779.9,27.9,778.9,29.3"/>
			<path fill="#FFFFFF" d="M780.5,22c-0.2,0.3-0.1,0.8,0.2,1c0.3,0.2,0.8,0.1,1-0.2c0.2-0.3,0.1-0.8-0.2-1
				C781.2,21.6,780.7,21.7,780.5,22"/>
			<path fill="#0E0F19" d="M773.2,18.8L773.2,18.8l0-0.2l0-0.4v0l-0.1-1.1l0,0l0-0.4l0-0.2v0c0,0,0,0,0,0c0,0-0.2,0-0.3,0
				c-0.2,0-0.3,0-0.3,0c0,0,0,0,0,0h0l0,0l0,0.2l0,0.4l0,0l0.1,1.1v0l0,0.4l0,0.2c0,0,0,0,0,0c0,0,0,0,0,0l0,0L773.2,18.8
				L773.2,18.8C773.2,18.8,773.2,18.8,773.2,18.8C773.2,18.8,773.2,18.8,773.2,18.8"/>
			<path fill="#0E0F19" d="M776,17.7c0,0.7-0.7,1.2-1.4,1.1c-0.2,0-0.2,0-0.3,0c-0.2,0-0.4,0-0.4,0l0,0c0,0,0,0,0,0c0,0,0,0,0,0l0,0
				l0-0.2l0-0.4v0l0-1.2l0,0l0-0.4l0-0.2l0,0c0,0,0,0,0,0c0,0,0.1,0,0.2,0c0.1,0,0.3,0,0.5,0C775.4,16.5,776,16.9,776,17.7
				 M774.7,17c-0.1,0-0.1,0-0.1,0l0,0.1v0l0,1.2v0l0,0.1c0,0,0.1,0,0.1,0c0.4,0,0.8-0.2,0.8-0.6C775.4,17.3,775,17,774.7,17"/>
			<path fill="#0E0F19" d="M772.1,18.8l-1-1c0.2-0.3,0.5-0.5,0.7-0.7v0c0,0,0,0,0,0c0,0,0,0,0,0l-0.4-0.4c0,0,0,0,0,0c0,0,0,0,0,0
				c0,0,0,0,0,0c-0.4,0.3-0.8,0.7-1.1,1.2l-0.1-0.4l0,0l-0.1-0.4l0-0.2l0,0c0,0,0,0,0,0c0,0-0.2,0-0.3,0.1c-0.2,0-0.3,0.1-0.3,0.1
				c0,0,0,0,0,0v0l0.1,0.2l0.1,0.4l0,0l0.2,1.1l0,0l0.1,0.4l0,0.2l0,0c0,0,0,0,0,0c0,0,0,0,0,0l0,0l0,0l0.6-0.1l0,0c0,0,0,0,0,0
				c0,0,0,0,0,0h0l-0.1-0.2l0-0.2l0,0c0.1-0.1,0.2-0.3,0.3-0.4l0.7,0.7v0c0,0,0,0,0,0c0,0,0,0,0,0l0,0L772.1,18.8L772.1,18.8
				C772.1,18.8,772.1,18.8,772.1,18.8C772.1,18.8,772.1,18.8,772.1,18.8C772.1,18.8,772.1,18.8,772.1,18.8"/>
			<path fill="#0E0F19" d="M778.5,18.5c0.1-1-1.4-0.8-1.3-1.2c0-0.2,0.6-0.3,1.1,0.2l0,0c0,0,0,0,0,0c0,0,0,0,0,0v0
				c0.1-0.1,0.3-0.3,0.4-0.4c0,0,0,0,0,0c0,0,0,0,0,0c0,0,0,0,0,0l0,0c0,0,0,0,0,0c0,0,0,0,0,0c-0.4-0.6-2-0.9-2.1,0.1
				c-0.1,1,1.4,0.9,1.4,1.2c-0.1,0.3-0.9,0.2-1.2-0.3c0,0,0,0,0,0s0,0,0,0c-0.1,0.1-0.4,0.3-0.4,0.4c0,0,0,0,0,0c0,0,0,0,0,0
				c0,0,0,0,0,0l0,0C776.8,19.4,778.3,19.5,778.5,18.5"/>
		</g>
		<path fill="#FFFFFF" d="M785.3,28.1c0.5,0,0.9,0.4,0.9,0.9s-0.4,0.9-0.9,0.9c-0.5,0-0.9-0.4-0.9-0.9S784.8,28.1,785.3,28.1z
			 M785.3,29.8c0.4,0,0.8-0.3,0.8-0.8c0-0.5-0.3-0.8-0.8-0.8c-0.4,0-0.8,0.4-0.8,0.8C784.5,29.5,784.8,29.8,785.3,29.8z M784.9,28.5
			h0.4c0.3,0,0.4,0.1,0.4,0.3c0,0.2-0.1,0.3-0.3,0.3l0.3,0.5h-0.2l-0.3-0.5h-0.2v0.5h-0.2L784.9,28.5L784.9,28.5z M785.1,28.9h0.2
			c0.2,0,0.3,0,0.3-0.2c0-0.2-0.1-0.2-0.2-0.2h-0.2V28.9z"/>
	</g>
	<g>
		<path fill="#FFFFFF" d="M798.4,25.5c-2.9,0-4.5-2.5-4.5-5.2c0-3.7,2.1-6.1,5.2-6.1c3.4,0,4.7,2.5,4.7,6
			C803.7,23.2,801.9,25.5,798.4,25.5z M798.8,16.7c-1.1,0.1-1.8,0.9-2,2.6c-0.2,2.1,0.8,3,1.9,3.1c1.4,0.1,1.9-1.5,1.9-2.8
			C800.7,18.4,800,16.6,798.8,16.7z"/>
		<path fill="#FFFFFF" d="M814.7,14.2c0,0.3,0,0.5-0.1,0.8c0,0.5-0.3,4.9-0.3,6.6c0,1.3,0,3,0,3.7c-0.3,0.1-0.7,0.2-1,0.2l-0.8,0.1
			l-0.7-1.1c-0.4-0.6-2.4-3.4-3.8-5.4c0,0,0.1,2.8,0.2,3.3c0,0.5,0.1,1.9,0.1,2.3v0.5c-0.8,0-2.4,0.1-3.2,0.2c0-1.2,0.1-5.1,0.1-5.8
			l-0.1-4.9c0.3-0.1,0.8-0.2,1.2-0.2l1.5-0.2c0.3,0.5,1.3,1.8,1.4,2c0.3,0.5,2.3,3,2.3,3s0.1-3.3,0.1-3.9c0-0.4,0-0.8,0-1.1
			L814.7,14.2z"/>
		<path fill="#FFFFFF" d="M823.7,14.3l-0.2,11.1h-2.7c0-1.1-0.1-4.4-0.1-5.2l-0.1-4.8c0-0.3,0-0.8,0-1.1L823.7,14.3z"/>
		<path fill="#FFFFFF" d="M834.6,16.9c-1.2,0-2.4,0.1-3.6,0.1c0,2.8,0,5.6,0.1,8.3h-2.9l0.1-8.3c-1.3,0-2.2,0-3.5-0.1
			c0-0.7,0-1.8,0.1-2.7c1.6,0.1,3.1,0.1,4.6,0.1c1.7,0,3.3,0,5.1-0.1L834.6,16.9L834.6,16.9z"/>
		<path fill="#FFFFFF" d="M844.4,14.3c0,2.4,0.1,4.6-0.1,7.3c-0.1,2.3-2.6,4-4.7,4c-2.9,0-4.1-1.6-4.1-4.3c0-2.3,0.1-4.6,0-6.8
			c0.8,0,1.6-0.1,2.4-0.1h0.7v0.3c0,1.6-0.1,3.1-0.1,4.7c0,1-0.3,3.2,1.2,3.2c1.7,0,1.7-2.3,1.7-3.9c0-1.4-0.1-2.8-0.2-4.3
			L844.4,14.3z"/>
		<path fill="#FFFFFF" d="M855.7,14.2c0,0.3,0,0.5-0.1,0.8c0,0.5-0.3,4.9-0.3,6.6c0,1.3,0,3,0,3.7c-0.3,0.1-0.7,0.2-1,0.2l-0.8,0.1
			l-0.7-1.1c-0.4-0.6-2.4-3.4-3.8-5.4c0,0,0.1,2.8,0.2,3.3c0,0.5,0.1,1.9,0.1,2.3v0.5c-0.8,0-2.4,0.1-3.2,0.2c0-1.2,0.1-5.1,0.1-5.8
			l-0.1-4.9c0.3-0.1,0.8-0.2,1.2-0.2l1.5-0.2c0.3,0.5,1.3,1.8,1.4,2c0.3,0.5,2.3,3,2.3,3s0.1-3.3,0.1-3.9c0-0.4,0-0.8,0-1.1
			L855.7,14.2z"/>
		<path fill="#FFFFFF" d="M864.6,25.4c-0.9,0-3.5,0-4.4,0l-2.9,0c0-0.6,0-1.8,0-3.3c0-2,0-5-0.1-7.7c2.4-0.1,4.8-0.1,7.3-0.1v2.6
			c-0.5,0-2.1-0.1-2.6,0c-0.5,0-2,0.1-2,0.1l0,1.8c0,0,1.3-0.1,1.8-0.1c0.3,0,0.8,0,1.1,0l0.1,2.2c-0.6,0.1-2,0.2-2.8,0.2v1.6h4.5
			L864.6,25.4L864.6,25.4z"/>
		<path fill="#FFFFFF" d="M873.3,17.3c-1.1-0.4-1.8-0.7-2.9-0.7c-0.5,0-1.5,0-1.5,0.8c0,1.4,4.9,1.8,4.9,5c0,2.1-2,3.1-3.9,3.1
			c-1.4,0-3-0.2-4.3-0.6l0.4-2.6c0.8,0.3,1.7,0.7,2.6,0.7c0.5,0,1.5,0,1.5-0.7c0-1.2-4.4-1.7-4.4-4.7c0-2.5,2.2-3.5,4.4-3.5
			c1.2,0,2.5,0.2,3.6,0.7L873.3,17.3z"/>
	</g>
</g>
</svg>
