<?xml version="1.0" encoding="utf-8"?>
<!-- Generator: Adobe Illustrator 14.0.0, SVG Export Plug-In . SVG Version: 6.00 Build 43363)  -->
<!DOCTYPE svg PUBLIC "-//W3C//DTD SVG 1.1//EN" "http://www.w3.org/Graphics/SVG/1.1/DTD/svg11.dtd">
<svg version="1.1" id="Layer_1" xmlns="http://www.w3.org/2000/svg" xmlns:xlink="http://www.w3.org/1999/xlink" x="0px" y="0px"
	 width="194px" height="18px" viewBox="0 0 194 18" enable-background="new 0 0 194 18" xml:space="preserve">
<path fill="#FFFFFF" d="M18,10.305V7.693h-2.036c-0.202-0.973-0.603-1.871-1.156-2.654l1.48-1.48L14.44,1.711l-1.507,1.508
	c-0.781-0.52-1.671-0.887-2.627-1.066V0H7.693v2.152c-0.956,0.18-1.846,0.547-2.627,1.066L3.56,1.711L1.712,3.559l1.48,1.48
	C2.639,5.822,2.238,6.721,2.036,7.693H0v2.612h1.983c0.166,1.014,0.545,1.952,1.09,2.771l-1.361,1.361l1.848,1.849l1.336-1.336
	c0.821,0.582,1.771,0.991,2.798,1.184V18h2.613v-1.865c1.027-0.191,1.977-0.602,2.798-1.184l1.336,1.336l1.848-1.85l-1.362-1.36
	c0.546-0.819,0.925-1.759,1.091-2.772H18z M9,12.773c-2.005,0-3.629-1.625-3.629-3.629c0-2.006,1.624-3.629,3.629-3.629
	s3.628,1.623,3.628,3.629C12.628,11.148,11.005,12.773,9,12.773z"/>
<path fill="#00C3F7" d="M40,10.305V7.693h-2.036c-0.202-0.973-0.603-1.871-1.156-2.654l1.48-1.48L36.44,1.711l-1.507,1.508
	c-0.781-0.52-1.671-0.887-2.627-1.066V0h-2.613v2.152c-0.956,0.18-1.846,0.547-2.627,1.066L25.56,1.711l-1.848,1.848l1.48,1.48
	c-0.553,0.783-0.954,1.682-1.156,2.654H22v2.612h1.983c0.166,1.014,0.545,1.952,1.09,2.771l-1.361,1.361l1.848,1.849l1.336-1.336
	c0.821,0.582,1.771,0.991,2.798,1.184V18h2.613v-1.865c1.027-0.191,1.977-0.602,2.798-1.184l1.336,1.336l1.848-1.85l-1.362-1.36
	c0.546-0.819,0.925-1.759,1.091-2.772H40z M31,12.773c-2.005,0-3.629-1.625-3.629-3.629c0-2.006,1.624-3.629,3.629-3.629
	s3.628,1.623,3.628,3.629C34.628,11.148,33.005,12.773,31,12.773z"/>
<path fill="#008791" d="M62,10.305V7.693h-2.036c-0.202-0.973-0.603-1.871-1.156-2.654l1.48-1.48L58.44,1.711l-1.507,1.508
	c-0.781-0.52-1.671-0.887-2.627-1.066V0h-2.613v2.152c-0.956,0.18-1.846,0.547-2.627,1.066L47.56,1.711l-1.848,1.848l1.48,1.48
	c-0.554,0.783-0.954,1.682-1.156,2.654H44v2.612h1.983c0.166,1.014,0.545,1.952,1.09,2.771l-1.361,1.361l1.848,1.849l1.336-1.336
	c0.821,0.582,1.771,0.991,2.798,1.184V18h2.613v-1.865c1.027-0.191,1.977-0.602,2.798-1.184l1.336,1.336l1.848-1.85l-1.362-1.36
	c0.546-0.819,0.925-1.759,1.091-2.772H62z M53,12.773c-2.005,0-3.629-1.625-3.629-3.629c0-2.006,1.624-3.629,3.629-3.629
	s3.628,1.623,3.628,3.629C56.628,11.148,55.005,12.773,53,12.773z"/>
<path fill="#0869B2" d="M84,10.305V7.693h-2.036c-0.202-0.973-0.603-1.871-1.156-2.654l1.48-1.48L80.44,1.711l-1.507,1.508
	c-0.781-0.52-1.671-0.887-2.627-1.066V0h-2.613v2.152c-0.956,0.18-1.846,0.547-2.627,1.066L69.56,1.711l-1.848,1.848l1.48,1.48
	c-0.554,0.783-0.954,1.682-1.156,2.654H66v2.612h1.983c0.166,1.014,0.545,1.952,1.09,2.771l-1.361,1.361l1.848,1.849l1.336-1.336
	c0.821,0.582,1.771,0.991,2.798,1.184V18h2.613v-1.865c1.027-0.191,1.977-0.602,2.798-1.184l1.336,1.336l1.848-1.85l-1.362-1.36
	c0.546-0.819,0.925-1.759,1.091-2.772H84z M75,12.773c-2.005,0-3.629-1.625-3.629-3.629c0-2.006,1.624-3.629,3.629-3.629
	s3.628,1.623,3.628,3.629C78.628,11.148,77.005,12.773,75,12.773z"/>
<path fill="#21AD09" d="M106,10.305V7.693h-2.035c-0.201-0.973-0.604-1.871-1.156-2.654l1.48-1.48l-1.85-1.848l-1.506,1.508
	c-0.781-0.52-1.672-0.887-2.627-1.066V0h-2.615v2.152c-0.956,0.18-1.846,0.547-2.627,1.066L91.56,1.711l-1.848,1.848l1.48,1.48
	c-0.554,0.783-0.954,1.682-1.156,2.654H88v2.612h1.983c0.166,1.014,0.545,1.952,1.09,2.771l-1.361,1.361l1.848,1.849l1.336-1.336
	c0.821,0.582,1.771,0.991,2.798,1.184V18h2.613v-1.865c1.026-0.191,1.979-0.602,2.799-1.184l1.336,1.336l1.849-1.85l-1.36-1.36
	c0.547-0.819,0.926-1.759,1.092-2.772H106z M97,12.773c-2.004,0-3.628-1.625-3.628-3.629c0-2.006,1.625-3.629,3.628-3.629
	c2.006,0,3.629,1.623,3.629,3.629C100.629,11.148,99.006,12.773,97,12.773z"/>
<path fill="#FF8B00" d="M128,10.305V7.693h-2.035c-0.203-0.973-0.604-1.871-1.156-2.654l1.48-1.48l-1.85-1.848l-1.506,1.508
	c-0.781-0.52-1.672-0.887-2.627-1.066V0h-2.613v2.152c-0.957,0.18-1.846,0.547-2.627,1.066l-1.506-1.507l-1.85,1.848l1.479,1.48
	c-0.555,0.783-0.955,1.682-1.154,2.654H110v2.612h1.982c0.166,1.014,0.545,1.952,1.092,2.771l-1.361,1.361l1.848,1.849l1.336-1.336
	c0.82,0.582,1.771,0.991,2.797,1.184V18h2.613v-1.865c1.027-0.191,1.979-0.602,2.799-1.184l1.336,1.336l1.85-1.85l-1.359-1.36
	c0.545-0.819,0.924-1.759,1.09-2.772H128z M119,12.773c-2.004,0-3.629-1.625-3.629-3.629c0-2.006,1.625-3.629,3.629-3.629
	c2.006,0,3.629,1.623,3.629,3.629C122.629,11.148,121.006,12.773,119,12.773z"/>
<path fill="#F26C11" d="M150,10.305V7.693h-2.035c-0.203-0.973-0.604-1.871-1.156-2.654l1.48-1.48l-1.85-1.848l-1.506,1.508
	c-0.781-0.52-1.674-0.887-2.627-1.066V0h-2.613v2.152c-0.957,0.18-1.846,0.547-2.627,1.066l-1.506-1.507l-1.85,1.848l1.479,1.48
	c-0.553,0.783-0.953,1.682-1.153,2.654H132v2.612h1.982c0.166,1.014,0.545,1.952,1.092,2.771l-1.361,1.361l1.848,1.849l1.336-1.336
	c0.82,0.582,1.771,0.991,2.797,1.184V18h2.613v-1.865c1.027-0.191,1.979-0.602,2.799-1.184l1.336,1.336l1.85-1.85l-1.359-1.36
	c0.545-0.819,0.924-1.759,1.09-2.772H150z M141,12.773c-2.004,0-3.629-1.625-3.629-3.629c0-2.006,1.625-3.629,3.629-3.629
	c2.006,0,3.629,1.623,3.629,3.629C144.629,11.148,143.006,12.773,141,12.773z"/>
<path fill="#C11AA1" d="M172,10.305V7.693h-2.035c-0.203-0.973-0.604-1.871-1.156-2.654l1.48-1.48l-1.85-1.848l-1.506,1.508
	c-0.781-0.52-1.674-0.887-2.627-1.066V0h-2.613v2.152c-0.957,0.18-1.846,0.547-2.627,1.066l-1.506-1.507l-1.85,1.848l1.479,1.48
	c-0.553,0.783-0.953,1.682-1.153,2.654H154v2.612h1.982c0.166,1.014,0.545,1.952,1.092,2.771l-1.361,1.361l1.848,1.849l1.336-1.336
	c0.82,0.582,1.771,0.991,2.797,1.184V18h2.613v-1.865c1.027-0.191,1.979-0.602,2.799-1.184l1.336,1.336l1.85-1.85l-1.359-1.36
	c0.545-0.819,0.924-1.759,1.09-2.772H172z M163,12.773c-2.004,0-3.629-1.625-3.629-3.629c0-2.006,1.625-3.629,3.629-3.629
	c2.006,0,3.629,1.623,3.629,3.629C166.629,11.148,165.006,12.773,163,12.773z"/>
<path fill="#B20654" d="M194,10.305V7.693h-2.035c-0.203-0.973-0.604-1.871-1.156-2.654l1.48-1.48l-1.85-1.848l-1.506,1.508
	c-0.781-0.52-1.674-0.887-2.627-1.066V0h-2.613v2.152c-0.957,0.18-1.846,0.547-2.627,1.066l-1.506-1.507l-1.85,1.848l1.479,1.48
	c-0.553,0.783-0.953,1.682-1.153,2.654H176v2.612h1.982c0.166,1.014,0.545,1.952,1.092,2.771l-1.361,1.361l1.848,1.849l1.336-1.336
	c0.82,0.582,1.771,0.991,2.797,1.184V18h2.613v-1.865c1.027-0.191,1.979-0.602,2.799-1.184l1.336,1.336l1.85-1.85l-1.359-1.36
	c0.545-0.819,0.924-1.759,1.09-2.772H194z M185,12.773c-2.004,0-3.629-1.625-3.629-3.629c0-2.006,1.625-3.629,3.629-3.629
	c2.006,0,3.629,1.623,3.629,3.629C188.629,11.148,187.006,12.773,185,12.773z"/>
</svg>
