<?xml version="1.0" encoding="utf-8"?>
<!-- Generator: Adobe Illustrator 14.0.0, SVG Export Plug-In . SVG Version: 6.00 Build 43363)  -->
<!DOCTYPE svg PUBLIC "-//W3C//DTD SVG 1.1//EN" "http://www.w3.org/Graphics/SVG/1.1/DTD/svg11.dtd">
<svg version="1.1" id="Layer_1" xmlns="http://www.w3.org/2000/svg" xmlns:xlink="http://www.w3.org/1999/xlink" x="0px" y="0px"
	 width="2310px" height="70px" viewBox="0 0 2310 70" enable-background="new 0 0 2310 70" xml:space="preserve">
<g id="circles" display="none">
	<circle display="inline" fill="#FFFFFF" cx="35" cy="35" r="35"/>
	<circle display="inline" fill="#FFFFFF" cx="105" cy="35" r="35"/>
	<circle display="inline" fill="#FFFFFF" cx="175" cy="35" r="35"/>
	<circle display="inline" fill="#FFFFFF" cx="245" cy="35" r="35"/>
	<circle display="inline" fill="#FFFFFF" cx="315" cy="35" r="35"/>
	<circle display="inline" fill="#FFFFFF" cx="385" cy="35" r="35"/>
	<circle display="inline" fill="#FFFFFF" cx="455" cy="35" r="35"/>
	<circle display="inline" fill="#FFFFFF" cx="525" cy="35" r="35"/>
	<circle display="inline" fill="#FFFFFF" cx="595" cy="35" r="35"/>
	<circle display="inline" fill="#FFFFFF" cx="665" cy="35" r="35"/>
	<circle display="inline" fill="#FFFFFF" cx="735" cy="35" r="35"/>
	<circle display="inline" fill="#FFFFFF" cx="805" cy="35" r="35"/>
	<circle display="inline" fill="#FFFFFF" cx="875" cy="35" r="35"/>
	<circle display="inline" fill="#FFFFFF" cx="945" cy="35" r="35"/>
	<circle display="inline" fill="#FFFFFF" cx="1015" cy="35" r="35"/>
	<circle display="inline" fill="#FFFFFF" cx="1085" cy="35" r="35"/>
	<circle display="inline" fill="#FFFFFF" cx="1155" cy="35" r="35"/>
	<circle display="inline" fill="#FFFFFF" cx="1225" cy="35" r="35"/>
	<circle display="inline" fill="#FFFFFF" cx="1295" cy="35" r="35"/>
	<circle display="inline" fill="#FFFFFF" cx="1365" cy="35" r="35"/>
	<circle display="inline" fill="#FFFFFF" cx="1435" cy="35" r="35"/>
	<circle display="inline" fill="#FFFFFF" cx="1505" cy="35" r="35"/>
	<circle display="inline" fill="#FFFFFF" cx="1575" cy="35" r="35"/>
	<circle display="inline" fill="#FFFFFF" cx="1645" cy="35" r="35"/>
	<circle display="inline" fill="#FFFFFF" cx="1715" cy="35" r="35"/>
	<circle display="inline" fill="#FFFFFF" cx="1785" cy="35" r="35"/>
	<circle display="inline" fill="#FFFFFF" cx="1855" cy="35" r="35"/>
	<circle display="inline" fill="#FFFFFF" cx="1925" cy="35" r="35"/>
	<circle display="inline" fill="#FFFFFF" cx="1995" cy="35" r="35"/>
	<circle display="inline" fill="#FFFFFF" cx="2065" cy="35" r="35"/>
	<circle display="inline" fill="#FFFFFF" cx="2204.998" cy="35" r="35"/>
	<circle display="inline" fill="#FFFFFF" cx="2274.994" cy="35" r="35"/>
	<circle display="inline" fill="#FFFFFF" cx="2135" cy="35.002" r="35"/>
</g>
<g id="Layer_1_1_">
	<g id="background">
	</g>
	<path fill="#A6EF18" d="M174.77,35.492c0,0,12.533,10.889,5.936,25.205l4.128,1.042c0,0,6.016-13.41-9.068-28.806L174.77,35.492z"
		/>
	<path fill="#A6EF18" d="M184.73,53.532c0,0,2.542-11.476,15.67-8.517C200.4,45.016,199.672,57.652,184.73,53.532z"/>
	<path fill="#4BD8F9" d="M173.092,31.959c0,0,13.448,18.873,3.135,21.533c-10.311,2.658-6.884-21.1-6.884-21.1L173.092,31.959z"/>
	<path fill="#4BD8F9" d="M169.512,31.191c0,0-13.444-18.874-3.135-21.533c10.31-2.658,6.886,21.098,6.886,21.098L169.512,31.191z"/>
	<path fill="#4BD8F9" d="M171.887,33.31c0,0-9.375,21.192-16.922,13.683c-7.546-7.515,14.634-16.686,14.634-16.686L171.887,33.31z"
		/>
	<path fill="#4BD8F9" d="M170.72,29.84c0,0,9.375-21.193,16.92-13.682c7.548,7.512-14.633,16.685-14.633,16.685L170.72,29.84z"/>
	<path fill="#4BD8F9" d="M170.135,32.986c0,0-22.95,3.213-20.546-7.16c2.4-10.373,21.893,3.632,21.893,3.632L170.135,32.986z"/>
	<path fill="#4BD8F9" d="M172.47,30.164c0,0,22.949-3.214,20.547,7.16c-2.401,10.371-21.894-3.634-21.894-3.634L172.47,30.164z"/>
	<path fill="#FFDF00" d="M178.25,30.048c0.814,3.698-1.521,7.354-5.221,8.167c-3.696,0.812-7.353-1.523-8.167-5.221
		c-0.814-3.698,1.525-7.354,5.221-8.166C173.783,24.014,177.436,26.352,178.25,30.048z"/>
	<polygon fill="#FFE000" points="225.814,29.729 229.904,34.33 233.995,28.705 	"/>
	<polygon fill="#FFE000" points="237.574,41.488 233.484,36.887 229.394,42.511 	"/>
	<path fill="#B9E500" d="M252.916,14.82l-32.217,0.551v14.867l21.523,0.551v10.463l-17.082,0.551v8.26h13.324l0.443,8.812
		l26.445,0.475C265.354,59.346,270.238,13.718,252.916,14.82z"/>
	<circle fill="#FFFFFF" cx="253.937" cy="27.683" r="7.175"/>
	<circle fill="#F953D2" cx="253.936" cy="27.683" r="3.083"/>
	<polygon fill="#1AE8CF" points="326.49,13.06 304.047,13.06 304.047,19.942 326.793,19.942 	"/>
	<polygon fill="#1AE8CF" points="308.257,17.075 307.648,27.875 292.454,48.234 297.924,57.698 332.566,57.698 337.732,48.521 
		322.843,28.449 322.234,16.501 	"/>
	<polygon fill="#F953D2" points="297.965,47.758 311.295,31.507 318.285,31.507 332.094,48.427 328.098,54.066 301.352,54.066 	"/>
	<path fill="#FFFFFF" d="M311.914,47.611c-0.076,1.25-1.212,2.207-2.539,2.135c-1.324-0.071-2.338-1.143-2.262-2.395
		c0.075-1.252,1.21-2.207,2.537-2.138C310.975,45.287,311.988,46.359,311.914,47.611z"/>
	<path fill="#FFFFFF" d="M319.678,41.465c-0.123,2.033-1.97,3.588-4.124,3.471c-2.15-0.117-3.8-1.856-3.679-3.892
		c0.126-2.032,1.972-3.586,4.124-3.47C318.154,37.689,319.801,39.434,319.678,41.465z"/>
	<polygon fill="#A6EF18" points="400.557,23.411 400.557,35.262 403.385,35.262 403.385,22.872 	"/>
	<path fill="#00C3F7" d="M471.163,17.292l-28.035,1.458l0.25,26.807c0,0-12.015-5.344-12.015,3.887
		c0,9.229,15.018,6.314,15.521-1.457l0.547-15.603l19.207-0.852l-0.229,14.022c0,0-12.019-5.345-12.019,3.887
		c0,9.229,15.021,6.313,15.521-1.457L471.163,17.292z"/>
	<polygon fill="#FFE000" points="34.33,13.556 39.427,29.245 55.924,29.245 43.578,38.941 48.676,54.632 34.33,44.936 
		20.983,54.632 25.081,38.941 12.735,29.245 28.232,29.245 	"/>
	<polygon fill="#00C3F7" points="92.977,26.747 92.977,60.75 104.594,54.518 116.494,61.602 115.36,25.614 	"/>
	<circle fill="#00C3F7" cx="104.31" cy="26.747" r="17"/>
	<line fill="none" stroke="#0287A5" stroke-miterlimit="10" x1="87.31" y1="26.747" x2="121.31" y2="26.747"/>
	<line fill="none" stroke="#0287A5" stroke-miterlimit="10" x1="104.31" y1="9.747" x2="104.31" y2="43.747"/>
	<line fill="none" stroke="#0287A5" stroke-miterlimit="10" x1="92.289" y1="14.727" x2="116.331" y2="38.768"/>
	<line fill="none" stroke="#0287A5" stroke-miterlimit="10" x1="116.331" y1="14.727" x2="92.289" y2="38.768"/>
	<circle fill="#FFE000" cx="104.31" cy="26.747" r="9.633"/>
	<path fill="none" stroke="#0287A5" stroke-miterlimit="10" d="M115.443,39.594c-2.982,2.588-6.875,4.152-11.133,4.152
		c-4.478,0-8.551-1.73-11.587-4.561"/>
	<g>
		<path fill="#F953D2" d="M526.09,41.027c16.938-6.271,25.404-0.568,25.404-0.568s0,14.248-12.375,15.959
			C526.741,58.127,526.09,41.027,526.09,41.027z"/>
		<path fill="#F953D2" d="M516.32,41.461c0,0,8.467-4.811,16.285,0.533l3.906,5.344c0,0-12.378-6.412-24.104,0.535"/>
		<path d="M530.65,43.283c10.854-4.02,16.281-0.364,16.281-0.364s0,9.133-7.933,10.229C531.068,54.244,530.65,43.283,530.65,43.283z
			"/>
		<path fill="#F953D2" d="M522.832,41.027c-16.934-6.271-25.403-0.568-25.403-0.568s-1.188,14.248,11.19,15.959
			C520.993,58.127,522.832,41.027,522.832,41.027z"/>
		<path d="M518.274,43.283c-11.729-4.02-17.591-0.364-17.591-0.364s0,9.133,8.57,10.229
			C517.824,54.244,518.274,43.283,518.274,43.283z"/>
		<polygon fill="#FFE000" points="542.205,31.604 507.247,31.604 505.347,15.056 513.076,24.186 518.426,10.49 524.967,23.615 
			530.91,10.49 536.262,24.756 545.178,13.343 		"/>
		<path d="M507.247,31.604h34.958C542.205,31.604,523.918,22.852,507.247,31.604z"/>
	</g>
	<g>
		<circle fill="#FFDF00" cx="593.946" cy="28.244" r="17.357"/>
		<polyline fill="#FFDF00" points="586.981,40.76 586.981,58.924 601.312,58.924 601.312,39.951 		"/>
		<polyline fill="#00C3F7" points="586.182,49.262 586.182,58.924 602.113,58.924 602.113,48.832 		"/>
		<path fill="none" stroke="#00C3F7" stroke-miterlimit="10" d="M592.149,51.04l-0.479-14.532c0,0,0.959-6.457-3.354-6.457
			c0,0-6.23,2.824,0.479,6.861s19.17-2.422,10.544-6.861c-3.682-1.895-3.354,6.457-3.354,6.457l0.479,14.532"/>
	</g>
	<path fill="#F41971" d="M689.5,27.088l-1.417-5.133l-4.003,1.104c-0.924-1.802-2.2-3.351-3.714-4.589l2.105-3.714l-4.634-2.629
		l-2.144,3.782c-1.819-0.598-3.769-0.836-5.743-0.672l-1.168-4.231l-5.138,1.418l1.168,4.23c-1.781,0.872-3.332,2.077-4.585,3.521
		l-3.779-2.146l-2.63,4.634l3.713,2.107c-0.664,1.84-0.963,3.824-0.833,5.844l-4.003,1.105l1.417,5.132l3.896-1.076
		c0.877,1.9,2.131,3.545,3.646,4.857l-1.938,3.414l4.639,2.635l1.897-3.354c1.933,0.695,4.021,0.988,6.145,0.811l1.012,3.666
		l5.136-1.416l-1.011-3.668c1.916-0.936,3.559-2.258,4.857-3.846l3.351,1.898l2.629-4.637l-3.417-1.938
		c0.629-1.907,0.864-3.96,0.641-6.041L689.5,27.088z M673.146,36.824c-3.941,1.088-8.017-1.227-9.104-5.165
		c-1.087-3.942,1.223-8.014,5.164-9.102c3.943-1.088,8.013,1.222,9.101,5.166C679.396,31.662,677.089,35.736,673.146,36.824z"/>
	<path fill="#00C3F7" d="M660.824,49.18l-0.229-3.01l-2.346,0.178c-0.318-1.103-0.858-2.102-1.565-2.957l1.577-1.836l-2.291-1.967
		l-1.604,1.87c-0.946-0.53-2.005-0.874-3.121-0.999l-0.189-2.48l-3.011,0.23l0.189,2.479c-1.085,0.293-2.08,0.793-2.938,1.461
		l-1.867-1.604l-1.968,2.292l1.835,1.575c-0.566,0.948-0.953,2.021-1.1,3.157l-2.348,0.183l0.229,3.007l2.286-0.173
		c0.279,1.151,0.798,2.202,1.498,3.103l-1.451,1.688l2.293,1.968l1.421-1.657c0.997,0.603,2.127,0.989,3.329,1.119l0.162,2.15
		l3.011-0.229l-0.164-2.149c1.168-0.312,2.229-0.866,3.12-1.609l1.656,1.423l1.967-2.293l-1.688-1.447
		c0.557-0.99,0.908-2.105,1.014-3.291L660.824,49.18z M650.617,52.105c-1.92,0.146-3.595-1.293-3.74-3.211
		c-0.146-1.92,1.292-3.595,3.211-3.738c1.919-0.146,3.592,1.289,3.738,3.21C653.972,50.285,652.536,51.96,650.617,52.105z"/>
	<polygon fill="#F41971" points="715.401,56.695 715.405,21.342 725.741,21.229 726.584,56.411 	"/>
	<polyline fill="#CE0661" points="717.732,22.081 719.502,13.265 721.788,13.213 723.362,22.058 	"/>
	<polygon fill="#CE0661" points="726.521,53.906 715.401,54.003 715.401,56.695 726.584,56.411 	"/>
	<polygon fill="#CE0661" points="715.405,21.342 715.405,23.935 725.812,24.115 725.741,21.229 	"/>
	<path fill="#CE0661" d="M715.403,43.809c0.562,1.41,1.333,2.28,2.179,2.28c1.75,0,3.167-3.698,3.167-8.262
		c0-4.564-1.417-8.263-3.167-8.263c-0.845,0-1.612,0.869-2.178,2.279L715.403,43.809z"/>
	<polygon fill="#FFE000" points="728.358,56.695 728.364,21.342 738.699,21.229 739.542,56.411 	"/>
	<polyline fill="#EDC003" points="730.69,22.081 732.46,13.265 734.746,13.213 736.32,22.058 	"/>
	<polygon fill="#EDC003" points="739.479,53.906 728.358,54.003 728.358,56.695 739.542,56.411 	"/>
	<polygon fill="#EDC003" points="728.364,21.342 728.362,23.935 738.77,24.115 738.699,21.229 	"/>
	<path fill="#EDC003" d="M728.36,43.809c0.563,1.41,1.334,2.28,2.18,2.28c1.749,0,3.166-3.698,3.166-8.262
		c0-4.564-1.417-8.263-3.166-8.263c-0.846,0-1.612,0.869-2.178,2.279L728.36,43.809z"/>
	<polygon fill="#00C3F7" points="741.316,56.695 741.321,21.342 751.656,21.229 752.5,56.411 	"/>
	<polyline fill="#00A6CC" points="743.646,22.081 745.417,13.265 747.703,13.213 749.277,22.058 	"/>
	<polygon fill="#00A6CC" points="752.436,53.906 741.316,54.003 741.316,56.695 752.5,56.411 	"/>
	<polygon fill="#00A6CC" points="741.321,21.342 741.319,23.935 751.729,24.115 751.656,21.229 	"/>
	<path fill="#00A6CC" d="M741.317,43.809c0.563,1.41,1.335,2.28,2.18,2.28c1.749,0,3.166-3.698,3.166-8.262
		c0-4.564-1.417-8.263-3.166-8.263c-0.845,0-1.612,0.869-2.178,2.279L741.317,43.809z"/>
	<path d="M793.816,21.382c0,0,0.403-6.52-6.113-6.52c-6.521,0,0.812,8.15-9.373,8.558c0,0-2.852,4.889,9.373,3.667"/>
	<path d="M815.128,21.382c0,0-0.406-6.52,6.111-6.52c6.521,0-0.814,8.15,9.374,8.558c0,0,2.853,4.889-9.374,3.667"/>
	<ellipse fill="#FFDF00" cx="804.002" cy="39.045" rx="22.176" ry="22.406"/>
	<ellipse fill="#FFFFFF" cx="804.001" cy="50.151" rx="12.963" ry="8.747"/>
	<ellipse cx="804.002" cy="47.329" rx="6.789" ry="3.43"/>
	<rect x="802.718" y="49.426" width="2.156" height="9.188"/>
	<circle cx="789.291" cy="38.125" r="2.264"/>
	<circle cx="819.167" cy="38.125" r="2.264"/>
	<line fill="none" stroke="#222020" stroke-miterlimit="10" x1="846.661" y1="45.328" x2="902.681" y2="50.578"/>
	<line fill="none" stroke="#222020" stroke-miterlimit="10" x1="902.681" y1="45.328" x2="846.661" y2="50.578"/>
	<ellipse fill="#1AE8CF" cx="874.836" cy="43.429" rx="20.396" ry="16.184"/>
	<ellipse fill="#FFFFFF" cx="874.836" cy="48.962" rx="10.756" ry="8.032"/>
	<ellipse cx="874.837" cy="45.948" rx="3.13" ry="2.542"/>
	<ellipse cx="861.307" cy="38.328" rx="2.081" ry="2.341"/>
	<ellipse cx="888.163" cy="38.328" rx="2.081" ry="2.341"/>
	<polygon fill="#1AE8CF" points="865.326,29.806 850.16,27.278 855.217,39.495 	"/>
	<polygon fill="#1AE8CF" points="883.992,28.639 899.158,26.112 894.104,38.329 	"/>
	<g>
		<path fill="#222020" d="M887.82,21.627c0,0-13.812,7.33-26.664-1.154c-1.207-2.206,0.899-3.05,0.899-3.05
			c10.662,8.23,25.032,1.082,25.032,1.082S889.59,19.059,887.82,21.627z"/>
		<path fill="#222020" d="M880.649,22.127c0,0,0.308-12.061-1.383-12.642c-3.028-1.043-2.042,2.865-4.484,2.814
			c-2.446-0.052-1.69-3.242-4.199-3.027c-2.511,0.215-2.124,11.286-1.984,13.01C868.738,24.004,878.865,25.056,880.649,22.127"/>
	</g>
	<path fill="#F41971" d="M939.561,50.251c-0.092-1.202-0.461-3.651-0.784-5.364l-7.582-0.045c-0.416,1.711-1.019,3.652-1.437,5.641
		l-10.635-1.342c0,0,4.395-11.975,5.596-15.258c1.756-4.948,5.965-16.045,5.965-16.045s6.894-0.323,9.479-0.186
		c0,0,4.625,12.808,5.641,15.954c1.063,3.144,5.694,16.376,5.694,16.376S939.561,50.297,939.561,50.251z M937.803,37.768
		l-2.172-10.45l-2.913,10.495L937.803,37.768z"/>
	<path fill="#00C3F7" d="M955.596,32.22c-2.271,0-4.737-0.291-6.962-0.653l-0.05-15.905c1.812-0.581,4.811-0.847,6.744-0.847
		c2.804,0,5.826,0.869,5.826,4.254c0,1.886-0.85,3.095-2.271,4.23c1.689,1.063,2.826,2.298,2.826,4.4
		C961.709,31.349,958.64,32.22,955.596,32.22z M954.096,24.824l-0.701,0.023c-0.096,1.016-0.096,2.054-0.096,3.095
		c0.338,0.072,0.7,0.097,1.062,0.097c1.185,0,2.104-0.411,2.104-1.742C956.465,24.992,955.137,24.799,954.096,24.824z
		 M954.482,19.095c-0.363,0-0.728,0.023-1.062,0.072l-0.049,2.876c1.4-0.048,2.876-0.145,2.876-1.957
		C956.247,19.142,955.184,19.095,954.482,19.095z"/>
	<path fill="#FFE000" d="M966.604,50.463c-1.191,0.812-3.196,1.695-4.634,1.695c-5.54,0-8.812-3.129-8.812-8.836
		c0-4.609,3.678-8.024,8.264-8.024c1.623,0,3.271,0.358,4.869,0.789c-0.141,1.29-0.524,4.011-1.264,5.134
		c-0.668-0.285-1.791-0.955-2.865-0.955c-1.696,0-3.178,1.409-3.178,3.033c0,2.055,1.072,3.439,2.816,3.439
		c0.979,0,2.079-0.452,2.865-0.955L966.604,50.463z"/>
	<polygon fill="#F41971" points="993.929,15.19 993.31,33.78 1016.238,33.78 1015.619,14.57 	"/>
	<polygon fill="#A6EF18" points="1026.771,23.865 1015.619,46.793 1041.645,46.793 	"/>
	<circle fill="#1AE8CF" cx="1002.516" cy="46.793" r="8.057"/>
	<polygon fill="#1AE8CF" points="1080.479,27.2 1055.163,26.005 1063.163,50.005 1089.163,49.339 1112.83,42.339 1103.163,20.339 	
		"/>
	<path fill="#FFFFFF" d="M1078.688,25.333c-14.523-8.994-20.488,0.625-20.488,0.625l8.09,20.301
		c10.428-9.088,22.73,0.304,22.73,0.304L1078.688,25.333z"/>
	<path fill="#FFFFFF" d="M1078.688,25.333l10.332,21.229c0,0,8.812-9.892,20.368-5.603l-10.062-19.205
		C1099.326,21.757,1089.996,15.171,1078.688,25.333z"/>
	<path fill="none" stroke="#B6C5CC" d="M1078.688,25.333c-14.523-8.994-20.488,0.625-20.488,0.625"/>
	<path fill="none" stroke="#B6C5CC" d="M1099.326,21.757c0,0-9.33-6.586-20.639,3.576"/>
	<line fill="none" stroke="#B6C5CC" x1="1079.12" y1="24.122" x2="1089.02" y2="46.562"/>
	<polygon fill="#F41971" points="1222.479,27.2 1197.163,26.005 1205.163,50.005 1231.163,49.339 1254.83,42.339 1245.163,20.339 	
		"/>
	<path fill="#FFFFFF" d="M1220.688,25.333c-14.523-8.994-20.488,0.625-20.488,0.625l8.09,20.301
		c10.428-9.088,22.73,0.304,22.73,0.304L1220.688,25.333z"/>
	<path fill="#FFFFFF" d="M1220.688,25.333l10.332,21.229c0,0,8.812-9.892,20.368-5.603l-10.062-19.205
		C1241.326,21.757,1231.996,15.171,1220.688,25.333z"/>
	<path fill="none" stroke="#B6C5CC" d="M1220.688,25.333c-14.523-8.994-20.488,0.625-20.488,0.625"/>
	<path fill="none" stroke="#B6C5CC" d="M1241.326,21.757c0,0-9.33-6.586-20.639,3.576"/>
	<line fill="none" stroke="#B6C5CC" x1="1221.12" y1="24.122" x2="1231.02" y2="46.562"/>
	<path fill="#00C3F7" d="M1141.218,45.497h-6.58l0.274-10.004l-0.153,0.241c-0.271,0.427-0.572,0.789-0.999,1.396
		c-1.093-0.637-1.729-1-2.335-1.424c-0.604-0.426-1.148-0.91-1.849-1.85c2.029-2.305,4.639-6.609,6.154-9.914l5.184,0.667
		L1141.218,45.497z"/>
	<path fill="#00C3F7" d="M1156.404,37.251c-0.853,0.728-1.729,1.396-2.521,1.97c-0.454,0.334-1.147,0.939-1.481,1.213l7.062-0.604
		c0,0,0.062,1.24,0.062,2.396c0,1.182-0.273,3.271-0.273,3.271l-13.461,0.304c0,0-1.001-4.426-1.062-4.426l0.638-0.667
		c0.546-0.576,1.303-1.334,2.061-2.151c1.576-1.638,3.729-4.155,4.308-4.974c1.184-1.667-0.092-3.092-0.999-3.092
		c-2.79,0-4.55,1.516-4.854,1.697l-1.971-4.941c0,0,4.213-3.122,8.457-3.122c4.365,0,7.276,3.668,7.276,7.427
		C1159.646,33.946,1158.102,35.795,1156.404,37.251z"/>
	<path fill="#00C3F7" d="M1170.377,46.012c-2.85,0-5.76-0.879-7.7-1.818l1.485-5.518c0.365,0.151,3.639,1.484,5.095,1.424
		c1.333-0.029,1.697-1.091,1.575-1.787c-0.182-1.123-1.396-1.517-2.606-1.455l-2.729,0.15c0-1.484-0.092-3.001-0.121-4.486h3.819
		c1.303,0,1.759-1.122,1.637-1.637c-0.09-0.485-0.818-1.395-2.91-1.031c-2.152,0.334-4.305,1.637-4.305,1.637l-1.428-5.062
		c0,0,3.52-2.031,7.579-2.364c4.002-0.334,8.215,1.304,8.215,5.941c0,2.485-1.604,4.396-2.516,4.851
		c0.938,0.516,2.607,2.334,2.607,5.215C1178.078,44.92,1172.289,46.012,1170.377,46.012z"/>
	<path fill="#F41971" d="M1293.61,24.486h-6.772v7.259h-4.777v-7.259h-6.77v-4.771h6.77v-7.301h4.777v7.301h6.772V24.486z"/>
	<path fill="#00C3F7" d="M1311.936,54.305l-5.77-5.769l-6.001,6.003l-3.583-3.581l6.004-6.004l-6.336-6.334l3.947-3.947l6.334,6.335
		l6.037-6.037l3.584,3.582l-6.037,6.037l5.766,5.768L1311.936,54.305z"/>
	<g>
		<path fill="#1AE8CF" d="M1290.877,48.59h-14.716v-4.304h14.716V48.59z"/>
		<path fill="#1AE8CF" d="M1283.35,55.21c-1.332,0-2.415-0.971-2.415-2.233c0-1.287,1.083-2.394,2.415-2.394
			c1.354,0,2.438,1.104,2.438,2.394C1285.787,54.239,1284.704,55.21,1283.35,55.21z"/>
		<path fill="#1AE8CF" d="M1283.35,42.066c-1.332,0-2.415-0.969-2.415-2.231c0-1.287,1.083-2.394,2.415-2.394
			c1.354,0,2.438,1.104,2.438,2.394C1285.787,41.098,1284.704,42.066,1283.35,42.066z"/>
	</g>
	<path fill="#A6EF18" d="M1313.662,25.009h-14.43v-5.057h14.43V25.009z"/>
	<path fill="#F41971" d="M1349.154,42.105c-1.568,0-2.879-0.771-3.877-1.881l0.058,1.625l-4.22,0.198l-0.883-21.15l4.529-0.256
		l0.198,7.296c0.885-1.168,2.142-1.938,3.792-1.938c5.33,0,6.128,4.732,6.242,8.152C1355.082,37.489,1353.43,42.105,1349.154,42.105
		z M1347.957,29.907c-1.91,0-2.537,1.652-2.65,3.677c-0.111,2.109,1.025,4.048,2.622,4.048c1.538,0,2.679-1.511,2.679-3.82
		C1350.607,32.045,1350.066,29.907,1347.957,29.907z"/>
	<path fill="#FFE000" d="M1368.621,35.706l-0.288-2.884c-1.091,1.667-2.853,2.947-4.103,2.947c-4.104,0-6.826-3.75-6.826-8.778
		c0-5.224,2.562-9.262,7.628-9.262c1.891,0,3.333,0.481,4.454,1.025l3.522-1.089c0.099,3.173,0.674,14.198,1.282,17.691
		L1368.621,35.706z M1365.576,22.213c-1.762,0-3.141,1.666-3.141,4.23c0,2.019,0.735,4.23,3.074,4.23
		c1.729,0,2.854-1.667,2.981-3.974C1368.621,24.36,1367.34,22.213,1365.576,22.213z"/>
	<path fill="#00C3F7" d="M1388.875,33.141c-0.665,0.853-2.875,2.77-5.245,2.77c-4.604,0-6.311-3.808-6.311-7.322
		c0-4.18,1.811-8.014,6.55-7.935c1.971,0.027,3.834,0.825,4.873,1.917l-2.557,2.503c-0.588-0.666-1.893-0.932-2.449-0.879
		c-1.521,0.187-2.187,1.518-2.29,3.515c-0.079,1.944,1.013,3.834,2.29,3.834c1.012,0,1.729-0.187,2.822-1.118L1388.875,33.141z"/>
	<path fill="#A6EF18" d="M1361.027,54.236c-4.721,0-6.322-3.828-6.322-6.77c0-3.458,1.9-7.459,6.224-7.385
		c4.371,0.074,5.854,4.227,5.927,7.111C1366.954,50.087,1365.67,54.236,1361.027,54.236z M1360.78,43.469
		c-1.63,0-2.321,1.408-2.421,3.235c-0.101,1.877,1.014,3.532,2.371,3.532c1.334,0,2.52-1.284,2.52-3.334
		C1363.25,45.296,1362.582,43.469,1360.78,43.469z"/>
	<path fill="#1AE8CF" d="M1383.715,54.752l-4.135-0.081c0.025-1.45,0.08-4.001,0.08-5.452c0-1.503,0.135-4.645-1.799-4.645
		c-1.346,0-2.525,1.074-3.035,2.256l0.215,8.055l-4.35,0.055l-0.027-14.82l4.002,0.158l0.08,2.229
		c0.806-1.558,2.658-2.524,4.377-2.524c2.873,0,4.481,2.578,4.512,5.186L1383.715,54.752z"/>
	<circle fill="#F41971" cx="1434.496" cy="34.009" r="21.5"/>
	<path fill="none" stroke="#000000" stroke-linecap="round" stroke-miterlimit="10" d="M1425.01,42.23
		c0,0,10.75-14.544,22.135-4.426"/>
	<polyline fill="none" stroke="#000000" stroke-linecap="round" stroke-miterlimit="10" points="1421.217,25.789 1426.275,28.95 
		1419.953,30.848 	"/>
	<polyline fill="none" stroke="#000000" stroke-linecap="round" stroke-miterlimit="10" points="1445.246,22.627 1438.923,25.789 
		1445.879,27.686 	"/>
	<path fill="#00C3F7" d="M1501.662,41.988c0,0-8.258,18.535,13.5,17.5c0,0-8.662-5.746-4-13"/>
	<path fill="#00C3F7" d="M1525.107,45.999c0,2.86-2.32,5.181-5.185,5.181h-31.082c-2.858,0-5.182-2.32-5.182-5.181v-23.83
		c0-2.861,2.317-5.181,5.182-5.181h31.082c2.861,0,5.185,2.319,5.185,5.181V45.999z"/>
	<path fill="#FFFFFF" d="M1499.846,42.215c-0.092-1.154-0.297-1.984-0.576-3.115l-5.004-0.047c0,0-0.74,2.7-0.854,3.276
		l-3.945-0.854l2.562-7.245c0.807-2.307,2.487-6.991,2.948-8.306c0.882,0,3.05,0,4.179,0.046c1.246,3.807,3.646,11.121,5.008,15.644
		C1502.732,41.867,1501.277,41.982,1499.846,42.215z M1498.809,35.708l-1.637-6.645l-2.24,6.645H1498.809z"/>
	<path fill="#FFFFFF" d="M1514.113,41.771l-0.209-2.062c-0.777,1.188-2.037,2.104-2.933,2.104c-2.93,0-4.875-2.68-4.875-6.271
		c0-3.73,1.83-6.615,5.449-6.615c1.353,0,2.379,0.345,3.185,0.733l2.518-0.777c0.07,2.265,0.479,10.141,0.914,12.635
		L1514.113,41.771z M1511.947,31.758c-1.418,0-2.525,1.338-2.525,3.399c0,1.62,0.594,3.397,2.473,3.397
		c1.394,0,2.291-1.34,2.396-3.195C1514.395,33.482,1513.363,31.758,1511.947,31.758z"/>
	<g>
		<path fill="#F41971" d="M1563.287,28.519c0,0.698,0,1.947-0.064,3.09c-0.149,6.159-0.044,10.517-0.218,12.062
			c-0.218,0.042-2.72,0-3.479-0.085c0.087-1.587,0.087-4.316,0-5.564h-2.61c-0.062,1.205,0.044,4.908,0,5.438
			c-0.195,0.063-2.914,0.147-3.521,0.127c0.021-2.285-0.108-5.163-0.151-10.665c-0.021-3.28-0.043-3.979-0.064-4.254
			c0.608-0.063,2.871-0.169,3.697-0.063c-0.021,2.434-0.043,3.936,0,5.883l2.74,0.106c-0.043-1.968-0.087-3.978-0.087-5.946
			C1559.524,28.646,1562.439,28.498,1563.287,28.519z"/>
		<path fill="#F41971" d="M1569.312,43.756c-3.523,0-5.068-3.365-5.068-7.089c0-4.994,2.284-8.253,5.655-8.253
			c3.872,0,5.308,3.365,5.308,8.042C1575.207,40.709,1573.184,43.756,1569.312,43.756z M1569.878,31.905
			c-1.001,0-1.979,1.185-2.021,3.492c0,2.792,0.823,4.063,1.848,4.126c1.154,0,1.784-1.926,1.828-3.787
			C1571.531,33.725,1570.857,31.905,1569.878,31.905z"/>
		<path fill="#F41971" d="M1585.041,41.131l-0.088,2.498c-0.893-0.062-1.805-0.105-2.631-0.105c-0.853,0-4.199,0.062-5.678,0.127
			c0.021-1.969-0.021-5.521-0.065-7.64c-0.022-2.433-0.065-5.227-0.065-7.322l3.916-0.085l-0.088,2.074
			c-0.131,3.958-0.261,7.344-0.192,8.719c0.892-0.127,3.589-0.104,4.938-0.168C1585.084,39.883,1585.062,40.581,1585.041,41.131z"/>
		<path fill="#F41971" d="M1593.59,43.926c-0.043-1.08-0.195-1.842-0.326-2.9l-3.063-0.041c-0.109,0-0.414,2.521-0.566,3.049
			l-3.763-0.782c1.063-3.958,3.394-10.962,4.308-14.56c0.151,0,2.522,0,3.479,0.042c0.936,3.577,3.132,10.433,4.064,14.645
			C1597.483,43.607,1594.068,43.861,1593.59,43.926z M1592.895,37.852l-0.911-6.222l-1.222,6.222H1592.895z"/>
		<path fill="#F41971" d="M1545.828,45.637l0.621-12.896l3.547,0.302l0.957,12.343L1545.828,45.637z M1548.262,26.871
			c1.113,0,2.021,0.932,2.021,2.116c0,1.209-0.906,2.292-2.021,2.292c-1.113,0-2.045-1.083-2.045-2.292
			C1546.217,27.803,1547.146,26.871,1548.262,26.871z"/>
		<path fill="#F41971" d="M1603.952,26.872l-0.621,12.896l-3.548-0.302l-0.957-12.343L1603.952,26.872z M1601.52,45.637
			c-1.111,0-2.021-0.932-2.021-2.115c0-1.209,0.906-2.293,2.021-2.293c1.113,0,2.047,1.084,2.047,2.293
			C1603.562,44.705,1602.633,45.637,1601.52,45.637z"/>
	</g>
	<g>
		<circle fill="#00C3F7" cx="1784.521" cy="35.609" r="24.215"/>
		<path fill="#A6EF18" d="M1787.854,26.945l-5.332-0.223l-0.44-5.109l-6.221-3.332l-3.214-3.777
			c-1.408,0.796-2.731,1.727-3.948,2.779l2.72,2.33l-0.444,12.664c0,0,5.109,8.663,4.89,12.663h3.106l1.334,3.332
			c0,0,4.222-0.666,5.998,1.998c0,0-3.108,1.777-2,6.224c0,0,2.439,1.373,2.394,3.231c2.596-0.229,5.072-0.869,7.367-1.854
			l0.018-0.047c3.998-6.889-4.221-8.223-4.221-8.223s-5.776-2.666-5.776-5.998s5.331-1.998,5.331-1.998l1.555,1.557l2.226-0.444
			c-2-4.222,2.44-9.997,2.44-9.997h2.666V26.5l-9.553-6.442L1787.854,26.945z"/>
		<path fill="#A6EF18" d="M1780.793,11.682l1.285,3.712l4.443-0.889l7.993,5.776c0,0,1.951-2.406,1.286-6.101
			c-3.369-1.778-7.208-2.786-11.279-2.786C1783.254,11.395,1782.008,11.493,1780.793,11.682z"/>
	</g>
	<circle fill="#F41971" cx="1840.02" cy="39.966" r="13.18"/>
	<path d="M1830.766,39.828h17.946c0,0-1.796,7.46-8.974,7.46S1830.766,39.828,1830.766,39.828z"/>
	<circle cx="1833.423" cy="34.164" r="1.616"/>
	<circle cx="1846.471" cy="34.164" r="1.617"/>
	<circle fill="#FFE000" cx="1870.305" cy="39.633" r="13.18"/>
	<path d="M1861.051,39.828h17.947c0,0-1.796,7.46-8.975,7.46C1862.846,47.288,1861.051,39.828,1861.051,39.828z"/>
	<circle cx="1863.708" cy="34.164" r="1.617"/>
	<circle cx="1876.756" cy="34.164" r="1.617"/>
	<polygon fill="#FFE000" points="1853.711,10.624 1855.646,16.584 1861.91,16.584 1856.844,20.264 1858.781,26.222 1853.711,22.539 
		1848.645,26.222 1850.58,20.264 1845.512,16.584 1851.775,16.584 	"/>
	<path fill="#00C3F7" d="M1992.662,29.457l30.5-0.535c0,0,1,26.219-14.5,26.754S1992.662,29.457,1992.662,29.457z"/>
	<path d="M2015.662,48.719l-15,0.535c0,0,1.5-7.49,8-7.49S2015.662,48.719,2015.662,48.719z"/>
	<path fill="#A6EF18" d="M1966.662,23.711l30.5-0.535c0,0,1,26.219-14.5,26.754S1966.662,23.711,1966.662,23.711z"/>
	<path d="M1973.662,37.623l15-0.535c0,0-1.5,7.491-8,7.491S1973.662,37.623,1973.662,37.623z"/>
	
		<ellipse transform="matrix(-0.0582 0.9983 -0.9983 -0.0582 2120.3645 -1938.4395)" cx="1974.557" cy="30.97" rx="1.519" ry="1.503"/>
	
		<ellipse transform="matrix(-0.0582 0.9983 -0.9983 -0.0582 2135.3325 -1952.4891)" cx="1988.668" cy="31.006" rx="1.519" ry="1.504"/>
	<g>
		<path d="M2002.133,39.158c1.072-0.42,1.596-1.637,1.17-2.719l-3.879,1.521C1999.85,39.043,2001.062,39.578,2002.133,39.158z"/>
	</g>
	<g>
		<path d="M2014.604,39.492c-1.069-0.42-1.596-1.637-1.17-2.719l3.879,1.521C2016.887,39.377,2015.674,39.912,2014.604,39.492z"/>
	</g>
	<g>
		<polygon fill="#FFE000" points="2059.611,29.879 2048.229,19.855 2057.925,11.879 2065.093,29.879 2070.785,11.879 
			2082.592,19.242 2070.152,29.47 		"/>
		<polygon fill="#F41971" points="2047.119,28.955 2047.119,56.854 2080.744,57.037 2080.744,29.141 		"/>
		<polygon fill="#FFE000" points="2061.051,28.4 2061.168,57.407 2067.768,57.223 2067.535,28.031 		"/>
		<polygon fill="#FFE000" points="2080.66,39.361 2046.389,39.479 2046.605,46.077 2081.097,45.846 		"/>
	</g>
	<path fill="#F41971" d="M2157.479,21.777c-9.8-10.779-21.858,5.94-23.586,8.023c-1.728-2.083-13.787-18.802-23.586-8.023
		c-9.76,10.735,18.741,30.922,23.221,33.987l0.146,0.396c0,0,0.075-0.051,0.219-0.146c0.143,0.096,0.219,0.146,0.219,0.146v-0.293
		C2138.044,53.188,2167.355,32.642,2157.479,21.777z"/>
	<g>
		<path fill="#FFDF00" d="M1937.966,56.361c-36.233,8.628-34.508-18.547-34.508-18.547l10.784-3.882l2.156-10.352l17.255-3.882
			l-1.726-8.627c0,0,15.529,0.431,15.96,22.43C1948.318,55.499,1937.966,56.361,1937.966,56.361z"/>
		<path fill="#FFFFFF" d="M1920.582,32.188l14.12-2.8c0,0-3.866,8.76-9.07,8.995C1920.427,38.618,1918.219,31.977,1920.582,32.188z"
			/>
		<path fill="#F7E8A6" d="M1903.458,37.814c-0.863,18.979,18.117,20.273,18.117,20.273c3.451-16.822-13.372-21.999-13.372-21.999
			L1903.458,37.814z"/>
		<circle fill="#231F20" cx="1932.358" cy="52.048" r="2.588"/>
		<circle fill="#231F20" cx="1940.985" cy="46.009" r="2.588"/>
		<circle fill="#231F20" cx="1934.083" cy="42.702" r="2.013"/>
		<circle fill="#231F20" cx="1940.698" cy="36.807" r="2.013"/>
		<path fill="#231F20" d="M1908.202,36.088l-7.333,1.794c0,0,1.725,8.523,4.312,9.421L1908.202,36.088z"/>
		<path fill="#F41971" d="M1922.554,33.625c0.296,1.883,2.062,3.17,3.946,2.875s3.17-2.062,2.875-3.946
			c-0.119-0.757-0.479-1.415-0.984-1.915l-5.604,1.111C1922.545,32.323,1922.451,32.966,1922.554,33.625z"/>
	</g>
	<g>
		<polygon fill="#FFDF00" points="1724.396,22.38 1697.637,49.359 1704.243,54.637 1729.468,26.56 		"/>
		<path d="M1739.115,26.736c-13.15-20.943-26.786-4.627-26.786-4.627s12.419-2.435,19.48,11.689L1739.115,26.736z"/>
		<path fill="#00C3F7" d="M1706.749,17.334c-2.36-2.149-5.596-2.724-8.426-1.792l5.155,4.692l-5.225,5.741l-5.391-4.908
			c-0.975,3.078-0.154,6.578,2.391,8.894c3.487,3.175,8.887,2.922,12.062-0.566C1710.49,25.908,1710.236,20.508,1706.749,17.334z"/>
		<path fill="#00C3F7" d="M1722.936,55.16c2.36,2.148,5.598,2.724,8.427,1.792l-5.156-4.692l5.225-5.74l5.392,4.907
			c0.974-3.077,0.152-6.577-2.392-8.894c-3.486-3.176-8.887-2.922-12.061,0.566C1719.195,46.586,1719.449,51.986,1722.936,55.16z"/>
		<polyline fill="#00C3F7" points="1706.87,23.631 1730.537,44.879 1725.068,51.213 1702.316,29.611 		"/>
	</g>
	<g>
		<path fill="#F7E8A6" d="M1666.039,28.169c0,0-13.242,8.458-6.41,23.748l-15.061-0.325V24.915
			C1644.568,24.915,1663.111,24.265,1666.039,28.169z"/>
		<path fill="#F41971" d="M1647,39c1-15,14.009-11.797,19.057-10.51c-0.006-0.107-0.011-0.214-0.019-0.322
			c-0.976-14.964-20.82-5.205-20.82-5.205s-21.145-11.061-22.446,6.832c-1.303,17.893,9.117,25.215,21.471,25.7
			c5.1,0.2,13.215-0.894,16.441-2.935C1654.642,50.102,1646.407,47.895,1647,39z"/>
		<polygon fill="#B9E500" points="1643.917,22.964 1641.965,12.553 1647.496,12.553 1645.218,22.964 		"/>
	</g>
	<g>
		<g>
			<polygon fill="#FFE000" points="407.858,21.375 361.589,21.375 361.589,50.018 408.408,50.35 			"/>
		</g>
		<g>
			<polygon fill="#222020" points="378.473,21.041 376.164,21.041 376.164,34.345 378.5,34.5 			"/>
		</g>
		<g>
			<polygon fill="#222020" points="369.997,21.041 367.977,21.041 367.977,26.263 370.021,26.324 			"/>
		</g>
		<g>
			<polygon fill="#222020" points="385.997,21.041 383.977,21.041 383.977,26.263 386.021,26.324 			"/>
		</g>
		<g>
			<polygon fill="#222020" points="401.33,21.041 399.31,21.041 399.31,26.263 401.354,26.324 			"/>
		</g>
		<g>
			<polygon fill="#222020" points="393.473,21.041 391.164,21.041 391.164,34.345 393.5,34.5 			"/>
		</g>
		<polygon points="378.298,39.945 376.536,39.719 376.165,47.045 378.401,47.045 		"/>
		<path d="M394.768,44.242c-0.289,0.247-0.587,0.474-0.854,0.67c-0.154,0.113-0.391,0.318-0.505,0.412l2.399-0.206
			c0,0,0.021,0.422,0.021,0.813c0,0.402-0.093,1.113-0.093,1.113l-4.575,0.104c0,0-0.34-1.504-0.36-1.504l0.216-0.228
			c0.186-0.196,0.443-0.453,0.701-0.731c0.536-0.557,1.268-1.412,1.463-1.69c0.402-0.567-0.03-1.052-0.34-1.052
			c-0.948,0-1.545,0.516-1.647,0.578l-0.669-1.68c0,0,1.432-1.061,2.875-1.061c1.483,0,2.473,1.246,2.473,2.523
			C395.871,43.119,395.345,43.748,394.768,44.242z"/>
	</g>
</g>
<g>
	<polygon fill="#FFE000" points="2217.672,37.828 2223.214,36.58 2224.654,19.109 2191.854,17.004 2190.947,21.476 2195.958,23.865 
		2190.23,25.01 2184.87,51.449 2221.479,57.641 2222.771,41.941 	"/>
	<polygon fill="#F41971" points="2208.738,43.095 2217.12,51.977 2218.93,50.609 2211.28,41.259 	"/>
	<polygon fill="#F41971" points="2217.764,41.542 2208.883,49.925 2210.25,51.734 2219.6,44.084 	"/>
	<polygon points="2198.674,38.739 2205.237,47.584 2195.797,48.594 	"/>
	<path d="M2197.051,44.674c-0.216,0.023-0.439-0.016-0.645-0.126c-1.414-0.757-2.555-1.664-3.389-2.692
		c-0.39-0.479-0.315-1.182,0.162-1.57c0.479-0.389,1.183-0.315,1.571,0.164c0.806,0.992,1.918,1.707,2.71,2.131
		c0.544,0.291,0.748,0.968,0.457,1.512C2197.737,44.43,2197.406,44.636,2197.051,44.674z M2214.367,36.364
		c-0.01,0.001-0.018,0.002-0.025,0.003c-1.156,0.124-2.447-0.066-3.947-0.581c-0.584-0.2-0.895-0.836-0.693-1.419
		c0.199-0.584,0.835-0.894,1.419-0.693c1.19,0.409,2.177,0.585,3.006,0.47c0.092-0.01,0.178-0.022,0.264-0.038
		c0.603-0.113,1.189,0.289,1.302,0.896c0.111,0.607-0.289,1.189-0.896,1.301C2214.653,36.328,2214.51,36.35,2214.367,36.364z
		 M2192.686,38.671c-0.043,0.005-0.086,0.007-0.129,0.007c-0.616-0.005-1.112-0.508-1.108-1.125c0.01-1.355,0.437-2.784,1.269-4.244
		c0.305-0.536,0.987-0.723,1.522-0.418c0.536,0.306,0.723,0.988,0.417,1.523c-0.64,1.124-0.968,2.186-0.975,3.154
		C2193.677,38.143,2193.242,38.611,2192.686,38.671z M2217.881,34.2c-0.269,0.029-0.548-0.039-0.783-0.212
		c-0.496-0.367-0.601-1.066-0.233-1.562c0.288-0.389,0.562-0.85,0.815-1.372c0.297-0.612,0.509-1.195,0.631-1.733
		c0.136-0.602,0.732-0.98,1.336-0.843c0.601,0.136,0.979,0.734,0.843,1.336c-0.159,0.704-0.428,1.45-0.8,2.215
		c-0.313,0.645-0.659,1.225-1.028,1.724C2218.467,34.015,2218.181,34.168,2217.881,34.2z M2207.298,34.265
		c-0.205,0.022-0.419-0.012-0.616-0.112l-0.832-0.418c-0.871-0.44-1.773-0.896-2.639-1.283c-0.562-0.252-0.814-0.913-0.562-1.476
		c0.252-0.563,0.914-0.814,1.476-0.562c0.912,0.409,1.837,0.876,2.732,1.327l0.822,0.414c0.553,0.275,0.776,0.946,0.5,1.498
		C2208.003,34.007,2207.664,34.226,2207.298,34.265z M2196.324,32.031c-0.406,0.044-0.822-0.139-1.06-0.506
		c-0.334-0.518-0.184-1.209,0.334-1.544c1.283-0.826,2.798-1.115,4.525-0.856c0.61,0.092,1.03,0.66,0.938,1.27
		c-0.091,0.61-0.66,1.03-1.27,0.939c-1.192-0.178-2.152-0.012-2.985,0.524C2196.658,31.957,2196.492,32.013,2196.324,32.031z
		 M2218.95,26.932c-0.401,0.043-0.812-0.134-1.05-0.493c-0.502-0.756-1.369-1.408-2.578-1.938c-0.565-0.248-0.823-0.906-0.575-1.471
		c0.248-0.565,0.906-0.821,1.471-0.575c1.608,0.704,2.8,1.629,3.543,2.749c0.341,0.514,0.201,1.207-0.312,1.548
		C2219.293,26.855,2219.122,26.914,2218.95,26.932z M2212.135,23.505c-0.103,0.011-0.209,0.008-0.316-0.012
		c-2.01-0.361-3.692-0.374-3.709-0.374c-0.616-0.003-1.114-0.505-1.111-1.122c0.002-0.616,0.499-1.117,1.121-1.111
		c0.076,0,1.884,0.012,4.094,0.409c0.607,0.109,1.012,0.69,0.902,1.297C2213.025,23.091,2212.616,23.453,2212.135,23.505z"/>
</g>
<polygon fill="#AA5900" points="2271.626,20.015 2271.622,10.196 2278.84,10.196 2278.833,21.241 "/>
<ellipse fill="#FF8B00" cx="2275.104" cy="36.723" rx="22.176" ry="22.406"/>
<polygon fill="#FFCE00" points="2259.021,36.669 2264.805,26.777 2269.564,36.955 "/>
<polygon fill="#FFCE00" points="2290.676,36.669 2284.893,26.777 2280.132,36.955 "/>
<path fill="#FFCE00" d="M2290.296,42.854h-30.146c0,0,4.027,10.155,13.567,10.554C2285.779,53.91,2290.296,42.854,2290.296,42.854z"
	/>
<polyline fill="#FF8B00" points="2272.211,42.854 2272.211,47.377 2277.23,47.377 2277.236,41.85 "/>
<path fill="none" stroke="#AA5900" stroke-miterlimit="10" d="M2262.156,18.734c0,0,12.064,7.03,26.638,0.497"/>
</svg>
