<?xml version="1.0" encoding="utf-8"?>
<!-- Generator: Adobe Illustrator 19.0.0, SVG Export Plug-In . SVG Version: 6.00 Build 0)  -->
<svg version="1.1" id="Layer_1" xmlns="http://www.w3.org/2000/svg" xmlns:xlink="http://www.w3.org/1999/xlink" x="0px" y="0px"
	 viewBox="377.7 209.5 88.4 51.7" style="enable-background:new 377.7 209.5 88.4 51.7;" xml:space="preserve">
<style type="text/css">
	.st0{fill:#275C6C;}
	.st1{fill:#339ECB;}
	.st2{fill:#FFFFFF;}
	.st3{fill:#9FC73B;}
	.st4{fill:#010101;}
</style>
<g>
	<g>
		<path class="st0" d="M441.1,258.8c0.3,0.8,0.5,1.6,0.8,2.4c1.7-0.2,3.3-0.3,4.9-0.8c0-0.8,0-1.7,0-2.5c2.4-0.6,4.7-1.7,6.8-3.2
			c0.6,0.5,1.3,1.1,2.1,1.6c1.4-0.9,2.5-2.1,3.8-3.3c-0.5-0.8-0.9-1.4-1.4-2.1c1.6-1.7,2.8-3.8,4-6.2c0-0.2,0-0.2,0.2-0.3
			c0.8,0.2,1.7,0.2,2.5,0.3c0.6-1.6,1.1-3.2,1.4-4.7c-0.8-0.3-1.6-0.8-2.4-1.1c0.3-2.5,0.3-5.1,0-7.6c0.8-0.3,1.6-0.8,2.2-1.1
			c-0.3-1.6-0.8-3.2-1.4-4.7c-0.8,0.2-1.7,0.2-2.5,0.3c-0.9-2.2-2.4-4.4-4.1-6.3c0.5-0.8,0.9-1.4,1.3-2.2c-1.1-1.3-2.4-2.2-3.8-3.2
			c-0.6,0.5-1.3,1.1-1.9,1.7c-1.1-0.6-2.2-1.3-3.5-1.9c-1.1-0.5-2.2-0.9-3.5-1.3c0-0.8,0-1.7-0.2-2.5c-1.6-0.3-3.3-0.6-4.9-0.6
			c-0.3,0.8-0.5,1.6-0.6,2.4c-2.5,0-5.1,0.3-7.4,1.1c-0.5-0.6-0.9-1.4-1.4-2.1c-1.6,0.6-3.2,1.3-4.6,2.1c0.2,0.8,0.5,1.6,0.8,2.4
			c-2.1,1.3-4,3-5.7,4.9c-0.8-0.3-1.6-0.6-2.4-0.9c-0.9,1.3-1.9,2.7-2.7,4.3c0.6,0.6,1.3,1.1,1.9,1.6c-0.2,0.2-0.2,0.3-0.3,0.5
			c-0.9,2.2-1.6,4.4-1.9,6.6c-0.8,0.2-1.7,0.3-2.5,0.5c-0.2,1.7-0.2,3.3,0,5.1c0.8,0.2,1.7,0.3,2.5,0.3c0.3,2.5,1.1,4.9,2.2,7.3
			c-0.6,0.6-1.3,1.1-1.9,1.7c0.8,1.4,1.7,2.8,2.7,4.1c0.8-0.3,1.6-0.6,2.4-1.1c1.6,1.9,3.5,3.5,5.7,4.9c-0.2,0.8-0.5,1.6-0.6,2.5
			c1.4,0.8,3,1.4,4.6,2.1c0.5-0.6,0.9-1.4,1.4-2.2C436.1,258.7,438.6,259,441.1,258.8"/>
		<path class="st1" d="M439.9,220.2c4.7-0.2,8.9,1.9,11.7,5.2l3.5-0.2c-1.7-2.4-4-4.4-6.8-5.7c-8.4-4-18.5-0.8-23.1,7.1l3.5-0.2
			C431,222.9,435.1,220.6,439.9,220.2"/>
		<path class="st1" d="M451.9,244.9c-2.5,3.2-6.3,5.4-10.8,5.5c-4.4,0.2-8.4-1.6-11.2-4.6l-4,0.2c1.7,2.4,4,4.4,6.8,5.7
			c8.4,4,18.5,0.8,23.1-7.1L451.9,244.9z"/>
		<path class="st1" d="M458.9,226.3l-50,2.4c-2.4,5.9-1.9,12.2,0.8,17.4l50-2.4C462,237.8,461.5,231.5,458.9,226.3"/>
		<path class="st2" d="M422.5,231.5c0-0.8,0.6-1.4,1.4-1.4c0.8,0,1.4,0.6,1.4,1.4l0.5,9l5.2-0.2c0.8,0,1.3,0.5,1.4,1.3
			c0,0.8-0.5,1.3-1.3,1.4l-6.6,0.3c-0.8,0-1.4-0.6-1.4-1.4L422.5,231.5z"/>
		<path class="st2" d="M434,240.8l4.1-10.4c0.3-0.8,0.8-1.1,1.6-1.3h0.2c0.8,0,1.4,0.3,1.7,1.1l4.9,10c0.2,0.2,0.2,0.3,0.2,0.6
			c0,0.8-0.5,1.4-1.3,1.4c-0.6,0-1.1-0.3-1.4-0.9l-0.9-2.1l-5.7,0.3l-0.8,2.2c-0.2,0.6-0.6,0.9-1.3,0.9c-0.8,0-1.3-0.5-1.4-1.3
			C433.9,241.1,434,241,434,240.8 M441.9,236.8l-2.1-4.3l-1.6,4.4L441.9,236.8z"/>
		<path class="st2" d="M447.8,230.4c0-0.8,0.6-1.4,1.4-1.4l4.6-0.2c1.4,0,2.7,0.3,3.5,0.9c0.6,0.6,0.9,1.3,0.9,2.2l0,0
			c0,1.4-0.6,2.4-1.6,2.8c1.6,0.5,2.5,1.3,2.5,3l0,0c0.2,2.4-1.7,3.6-4.7,3.8l-4.7,0.2c-0.8,0-1.4-0.6-1.4-1.4L447.8,230.4z
			 M453.5,234c1.3,0,2.1-0.5,2.1-1.4l0,0c0-0.8-0.8-1.3-1.9-1.3l-2.8,0.2l0.2,2.7L453.5,234z M454.4,239.2c1.3,0,2.1-0.5,1.9-1.4
			l0,0c0-0.8-0.6-1.4-2.2-1.3l-3.3,0.2l0.2,2.8L454.4,239.2z"/>
		<g>
			<path class="st2" d="M419,237.2c-0.6,11.4-10.3,20.2-21.7,19.6c-11.4-0.5-20.2-10.3-19.6-21.7c0.6-11.4,10.3-20.2,21.7-19.6
				C410.8,216,419.6,225.8,419,237.2"/>
			<path class="st3" d="M399.6,216.3c-10.9-0.5-20.1,7.9-20.6,18.7c-0.5,10.9,7.9,20.1,18.7,20.6c10.9,0.5,20.1-7.9,20.6-18.7
				C418.7,226.1,410.3,216.9,399.6,216.3"/>
			<path class="st2" d="M384.7,226.6c0.2-2.4,1.6-4.6,3.8-6.2c3.2-2.1,7.1-3.3,11.1-3c4,0.2,7.4,1.7,10.4,4c2.2,1.9,3.6,4.3,3.5,6.8
				c-0.2,2.8-2.2,5.4-5.2,7l0,0c-2.8,1.6-6.3,2.4-9.8,2.2c-4.3-0.2-8.1-1.9-10.9-4.4C385.6,231,384.5,228.8,384.7,226.6"/>
			<path class="st4" d="M401.8,223.9c0.8-0.3,0.9-1.4,0.9-1.7c0-1.4-0.9-2.5-3-2.7c-0.8,0-1.6,0-2.8,0.2c0,0-0.2,0-0.2,0.2l0,0
				c0.2,1.9,0,4.9-0.3,7.7l0,0c0,0,0,0.2,0.2,0.2c0.8,0.2,2.2,0.5,3,0.5c1.9,0.2,3.5-0.9,3.5-2.4C403,225,402.7,224.4,401.8,223.9
				 M399.6,221.3c0.8,0,1.3,0.5,1.1,0.9c0,1.1-1.7,0.8-1.9,0.8v-1.7C398.9,221.3,399.1,221.3,399.6,221.3 M399.6,226.6
				c-0.3,0-0.5,0-0.8-0.2l0.2-1.7c0,0,0.5,0,0.6,0c0.6,0,1.4,0.3,1.4,0.9C400.8,226.3,400.7,226.7,399.6,226.6"/>
			<path class="st4" d="M391.7,220.2c-0.8,0.2-1.7,0.5-2.4,0.6l0,0c-0.2,0,0,0.2,0,0.2c0.5,1.4,1.4,6.2,1.4,7.9l0,0l0.2,0.2l2.1-0.5
				c0.2,0,0.2-0.2,0.2-0.2l0,0v-0.2l-0.2-0.5l-0.3-1.6c0,0,0.5-0.2,0.6-0.2c2.2-0.3,3.5-1.9,3.2-3.6
				C395.9,220.7,394,219.8,391.7,220.2 M392.6,224.4c-0.2,0-0.3,0-0.3,0l-0.5-2.2c0,0,0.5-0.2,0.6-0.2c0.8-0.2,1.4,0.3,1.6,0.9
				C394.2,223.7,393.7,224.2,392.6,224.4"/>
			<path class="st4" d="M408.1,223.4l0.2,0.2h0.2c0.2-0.2,0,0,1.1-1.3l0,0v-0.2c0,0-0.9-1.1-2.5-1.3c-1.9-0.3-3.3,0.8-3.5,2.4
				c-0.2,1.4,0.8,2.2,2.7,3c1.3,0.5,0.8,1.4,0,1.3c-0.5,0-1.3-0.5-1.7-0.9l0,0h-0.2l-1.1,1.3l0,0v0.2c0.8,0.8,1.7,1.3,2.8,1.4
				c1.7,0.2,3.2-0.8,3.3-2.4c0.2-1.7-1.3-2.4-2.2-2.7s-1.3-0.6-1.1-0.9C405.9,222.9,406.7,222.5,408.1,223.4"/>
			<path class="st2" d="M411.6,238.1c1.1,0.5,2.5,0,3-1.1c0.5-1.1,0-2.5-1.1-3c-1.1-0.5-2.5,0-3,1.1
				C409.8,236.2,410.3,237.5,411.6,238.1"/>
			<path class="st2" d="M406.7,243.2c0-1.1-0.9-2.1-2.1-2.1c-1.1,0-2.1,0.9-2.1,2.1c0,1.1,0.9,2.1,2.1,2.1S406.7,244.4,406.7,243.2"
				/>
			<path class="st2" d="M395.8,249.3c2.1-0.5,3.3-2.4,3-4.4c-0.5-2.1-2.4-3.3-4.4-3c-2.1,0.5-3.3,2.4-3,4.4
				C391.8,248.4,393.7,249.7,395.8,249.3"/>
			<path class="st4" d="M402.6,250.1c0.5-0.3,0.6-1.1,0.3-1.6c-0.3-0.5-1.1-0.6-1.6-0.3c-0.5,0.3-0.6,1.1-0.3,1.6
				c0.2,0.3,0.5,0.5,0.8,0.5C401.9,250.3,402.2,250.3,402.6,250.1 M401.6,249.3c-0.2-0.2,0-0.3,0.2-0.5s0.5,0,0.5,0.2
				c0.2,0.2,0,0.3-0.2,0.5c-0.2,0-0.2,0-0.3,0C401.8,249.3,401.6,249.3,401.6,249.3"/>
			<path class="st4" d="M404.5,250.3c-1.7,1.9-4.3,1.9-4.3,1.9l0,0l0,0c-3,0.3-5.4-1.3-5.4-1.3c-0.2-0.2-0.5-0.2-0.6,0.2
				c-0.2,0.2-0.2,0.5,0.2,0.6c0.2,0,2.5,1.7,5.9,1.4c0.2,0,3-0.2,4.9-2.2c0,0,0.2-0.2,0.2-0.3s0-0.3-0.2-0.3
				C404.9,250.1,404.6,250.1,404.5,250.3"/>
			<path class="st4" d="M394.2,241.6c-1.1,0.2-2.1,0.8-2.7,1.7c-0.6,0.9-0.8,2.1-0.6,3.2c0.5,2.2,2.7,3.8,4.9,3.3
				c1.1-0.2,2.1-0.8,2.7-1.7c0.6-0.9,0.8-2.1,0.6-3.2C398.6,242.5,396.4,241.1,394.2,241.6 M391.8,246.3c-0.2-0.8,0-1.7,0.5-2.4
				c0.5-0.8,1.3-1.3,2.1-1.4c1.7-0.3,3.5,0.8,3.8,2.5c0,0.2,0,0.5,0,0.6c0,0.6-0.2,1.3-0.5,1.7c-0.5,0.8-1.3,1.3-2.1,1.4
				C393.9,249.2,392.1,248.1,391.8,246.3"/>
			<path class="st4" d="M392.9,247.3c0.8,0.2,1.4-0.3,1.6-1.1s-0.3-1.4-1.1-1.6c-0.8-0.2-1.4,0.3-1.6,1.1
				C391.7,246.5,392.1,247.3,392.9,247.3"/>
			<path class="st4" d="M402.1,243.2c0,1.4,1.1,2.5,2.4,2.5c1.4,0,2.5-1.1,2.5-2.4c0-1.4-1.1-2.5-2.4-2.5
				C403.2,240.6,402.1,241.7,402.1,243.2 M402.9,243.2c0-0.9,0.8-1.7,1.7-1.7c0.9,0,1.7,0.8,1.7,1.7c0,0.9-0.8,1.7-1.7,1.7
				C403.7,244.9,402.9,244.1,402.9,243.2"/>
			<path class="st4" d="M403.7,244.3c0.5,0.2,0.9-0.3,1.1-0.8s-0.2-0.9-0.8-1.1c-0.5-0.2-0.9,0.2-1.1,0.8
				C402.9,243.8,403.2,244.3,403.7,244.3"/>
			<path class="st4" d="M409,243.6c-0.5-2.7-1.9-5.2-4.1-7l0,0c-0.2,0-0.2-0.2-0.3-0.2c-0.3-0.2-0.6-0.5-0.9-0.6
				c-2.5-1.6-6.6-3-16.6,0.5l1.7,1.7l-3.6,1.1l2.7,1.9l-3.3,0.9l2.8,2.2c-0.9,0.5-1.7,1.4-1.9,2.7c-0.2,1.7,1.1,3.2,2.8,3.3
				c0.3,0,0.5,0,0.8,0c2.1,3.6,6.3,5.9,10.8,5.4c2.7-0.3,5.2-1.7,7-4C408.7,249.3,409.4,246.5,409,243.6 M388.5,249.5
				c-1.3-0.2-2.2-1.1-2.1-2.4c0-0.9,0.6-1.6,1.4-1.9c0,0.5,0,0.9,0.2,1.4c0.2,1.1,0.5,2.1,0.9,3
				C388.8,249.5,388.6,249.5,388.5,249.5 M406.2,251.1c-1.6,2.1-3.8,3.3-6.3,3.6c-5.4,0.8-10.3-3-11.1-8.2c-0.3-2.1,0-4,0.9-5.7
				l14.1-3.6c0.2,0,0.2,0.2,0.3,0.2c2.2,1.6,3.5,4,4,6.5C408.4,246.5,407.8,249,406.2,251.1"/>
			<path class="st2" d="M409.4,239.4c-0.3,0.6-0.2,1.3,0.3,1.7c0.6,0.3,1.3,0.2,1.7-0.3c0.3-0.6,0.2-1.3-0.3-1.7
				C410.5,238.6,409.7,238.7,409.4,239.4"/>
			<path class="st4" d="M397.5,233.4L397.5,233.4v-0.3v-0.6l0,0v-1.9l0,0v-0.6v-0.3l0,0l0,0c0,0-0.3,0-0.5,0c-0.3,0-0.5,0-0.5,0l0,0
				l0,0v0.3v0.6l0,0v1.9l0,0v0.6v0.3l0,0l0,0l0,0H397.5L397.5,233.4L397.5,233.4L397.5,233.4"/>
			<path class="st4" d="M402.2,231.8c-0.2,1.3-1.3,1.9-2.4,1.7c-0.3,0-0.3,0-0.6,0c-0.3,0-0.6,0-0.6,0l0,0l0,0l0,0l0.2-0.3v-0.6l0,0
				l0.2-1.9l0,0V230v-0.3l0,0l0,0h0.3c0.2,0,0.6,0,0.8,0C401.5,229.7,402.4,230.5,402.2,231.8 M400,230.5c-0.2,0-0.2,0-0.2,0v0.2
				l0,0l-0.2,1.9l0,0v0.2h0.2c0.6,0,1.3-0.3,1.3-0.9C401.3,231,400.7,230.5,400,230.5"/>
			<path class="st4" d="M395.6,233.4l-1.6-1.7c0.3-0.5,0.8-0.8,1.3-1.1l0,0l0,0l-0.6-0.6l0,0l0,0c-0.6,0.5-1.3,1.1-1.9,1.9l-0.2-0.8
				l0,0v-0.6V230l0,0l0,0c0,0-0.3,0-0.5,0c-0.3,0-0.5,0-0.5,0l0,0l0,0l0.2,0.3l0.2,0.6l0,0l0.3,1.9l0,0v0.6v0.3l0,0l0,0l0,0l0.9-0.2
				l0,0l0,0l0,0l-0.2-0.3v-0.3l0,0c0.2-0.2,0.3-0.5,0.5-0.6l1.1,1.3l0,0l0,0L395.6,233.4L395.6,233.4L395.6,233.4L395.6,233.4
				L395.6,233.4"/>
			<path class="st4" d="M406.2,233.4c0.3-1.7-2.2-1.4-2.1-2.1c0-0.3,1.1-0.5,1.7,0.5l0,0l0,0l0,0c0.2-0.2,0.5-0.5,0.6-0.6l0,0l0,0
				l0,0l0,0l0,0c-0.5-0.9-3.2-1.6-3.5,0s2.2,1.6,2.1,2.1s-1.4,0.3-1.9-0.6l0,0l0,0c-0.2,0.2-0.6,0.5-0.8,0.5l0,0l0,0l0,0
				C403.5,234.8,405.9,234.9,406.2,233.4"/>
			<g>
				<g>
					<path class="st0" d="M415.5,249.2c0.6,0,1.3,0.6,1.3,1.4s-0.6,1.3-1.4,1.3c-0.6,0-1.3-0.6-1.3-1.4
						C414.3,249.7,414.9,249.2,415.5,249.2z M415.4,251.6c0.6,0,1.1-0.5,1.1-1.1c0-0.6-0.5-1.1-0.9-1.1c-0.6,0-1.1,0.5-1.1,1.1
						C414.4,251.1,414.9,251.6,415.4,251.6z M415.1,249.8h0.6c0.3,0,0.5,0.2,0.5,0.5s-0.2,0.3-0.5,0.3l0.3,0.6h-0.3l-0.3-0.6h-0.3
						v0.6h-0.2L415.1,249.8z M415.2,250.4h0.2c0.2,0,0.5,0,0.5-0.2c0-0.2-0.2-0.3-0.3-0.3h-0.3L415.2,250.4z"/>
				</g>
			</g>
		</g>
	</g>
</g>
</svg>
