<?xml version="1.0" encoding="utf-8"?>
<!-- Generator: Adobe Illustrator 23.0.6, SVG Export Plug-In . SVG Version: 6.00 Build 0)  -->
<svg version="1.1" id="Layer_1" xmlns="http://www.w3.org/2000/svg" xmlns:xlink="http://www.w3.org/1999/xlink" x="0px" y="0px"
	 viewBox="0 0 864 288" style="enable-background:new 0 0 864 288;" xml:space="preserve">
<style type="text/css">
	.st0{fill:#FFFFFF;}
	.st1{fill:#2638C4;}
</style>
<g>
	<g>
		<polygon class="st0" points="230.72,193.21 241.4,193.21 241.4,244.39 264.18,244.39 264.18,253.73 230.72,253.73 		"/>
		<g>
			<path class="st0" d="M309.46,234.06h-30.61c0.95,8.01,5.64,12.01,14.06,12.01c5.4,0,10.17-1.19,14.33-3.56v9.17
				c-1.78,0.89-4.02,1.62-6.72,2.18c-2.7,0.56-5.47,0.84-8.32,0.84c-4.92,0-9.21-0.96-12.86-2.89c-3.65-1.93-6.45-4.66-8.41-8.19
				c-1.96-3.53-2.94-7.67-2.94-12.42c0-4.63,0.92-8.71,2.76-12.24c1.84-3.53,4.4-6.26,7.7-8.19c3.29-1.93,7.08-2.89,11.35-2.89
				c4.1,0,7.67,0.93,10.73,2.8c3.05,1.87,5.38,4.42,6.99,7.65c1.6,3.24,2.4,6.87,2.4,10.9
				C309.91,231.39,309.76,232.99,309.46,234.06 M282.89,219.11c-1.93,1.72-3.19,4.15-3.78,7.3h21.01c-0.24-2.79-1.25-5.13-3.03-7.03
				c-1.78-1.9-4.15-2.85-7.12-2.85C287.18,216.53,284.82,217.39,282.89,219.11"/>
			<path class="st0" d="M349.05,212.48c3.12,3.06,4.67,7.43,4.67,13.13v28.12h-8.1l-1.25-4.09c-1.6,1.42-3.61,2.62-6.01,3.6
				c-2.4,0.98-5.03,1.47-7.88,1.47c-4.45,0-8-1.24-10.64-3.74c-2.64-2.49-3.96-5.87-3.96-10.15c0-5.1,1.87-8.81,5.61-11.12
				c3.74-2.31,8.54-3.47,14.42-3.47c2.73,0,5.28,0.27,7.65,0.8v-0.44c0-3.14-0.65-5.59-1.96-7.34c-1.3-1.75-3.92-2.63-7.83-2.63
				c-2.31,0-4.7,0.3-7.16,0.89c-2.46,0.59-4.79,1.42-6.99,2.49v-9.26c4.98-1.9,10.15-2.85,15.49-2.85
				C341.29,207.9,345.94,209.42,349.05,212.48 M328.14,244.48c1.16,1.07,2.77,1.6,4.85,1.6c3.62,0,7.15-1.21,10.59-3.65v-8.28
				c-1.84-0.36-3.86-0.53-6.05-0.53c-3.09,0-5.71,0.5-7.88,1.51c-2.17,1.01-3.25,2.79-3.25,5.34
				C326.4,242.07,326.98,243.41,328.14,244.48"/>
			<path class="st0" d="M389.81,208.7v9.79c-1.9-0.53-3.65-0.8-5.25-0.8c-4.33,0-7.8,1.93-10.41,5.79v30.26H364v-44.86h8.72
				l1.24,5.61c1.13-1.9,2.64-3.43,4.54-4.58c1.9-1.16,4.18-1.74,6.85-1.74C387.26,208.16,388.74,208.34,389.81,208.7"/>
			<path class="st0" d="M433.19,211.99c2.82,2.73,4.23,6.59,4.23,11.57v30.17h-10.15v-28.21c0-2.73-0.68-4.86-2.05-6.41
				c-1.37-1.54-3.44-2.31-6.23-2.31c-2.26,0-4.24,0.47-5.96,1.42c-1.72,0.95-3.32,2.14-4.8,3.56v31.95h-10.15v-44.86h8.72l0.89,4.09
				c2.02-1.6,4.12-2.85,6.32-3.74c2.19-0.89,4.77-1.33,7.74-1.33C426.57,207.9,430.38,209.26,433.19,211.99"/>
			<path class="st0" d="M449.01,200.6c-1.22-1.13-1.83-2.55-1.83-4.27c0-1.72,0.59-3.14,1.78-4.27c1.19-1.13,2.67-1.69,4.45-1.69
				c1.72,0,3.2,0.57,4.45,1.69c1.25,1.13,1.87,2.55,1.87,4.27c0,1.72-0.62,3.15-1.87,4.27c-1.25,1.13-2.73,1.69-4.45,1.69
				C451.7,202.29,450.23,201.73,449.01,200.6 M448.35,208.88h10.15v44.86h-10.15V208.88z"/>
			<path class="st0" d="M504.79,211.99c2.82,2.73,4.23,6.59,4.23,11.57v30.17h-10.15v-28.21c0-2.73-0.68-4.86-2.05-6.41
				c-1.37-1.54-3.44-2.31-6.23-2.31c-2.26,0-4.24,0.47-5.96,1.42c-1.72,0.95-3.32,2.14-4.81,3.56v31.95h-10.15v-44.86h8.72
				l0.89,4.09c2.02-1.6,4.12-2.85,6.32-3.74c2.2-0.89,4.78-1.33,7.74-1.33C498.16,207.9,501.97,209.26,504.79,211.99"/>
			<path class="st0" d="M557.4,211.37v41.03c0,6.23-1.86,11.21-5.56,14.95c-3.71,3.74-9.48,5.61-17.31,5.61
				c-5.1,0-9.67-0.65-13.71-1.96v-9.35c4.92,1.78,9.43,2.67,13.53,2.67c4.33,0,7.57-1.01,9.7-3.03c2.14-2.02,3.2-4.84,3.2-8.45
				v-0.53c-2.55,1.19-5.55,1.78-8.99,1.78c-4.27,0-8.07-0.89-11.39-2.67c-3.32-1.78-5.92-4.36-7.79-7.74
				c-1.87-3.38-2.8-7.42-2.8-12.11c0-7.3,2.14-13.07,6.41-17.31c4.27-4.24,10.17-6.36,17.71-6.36
				C546.75,207.9,552.42,209.05,557.4,211.37 M547.25,243.5v-25.72c-2.02-0.71-4.36-1.07-7.03-1.07c-4.15,0-7.4,1.35-9.74,4.05
				c-2.35,2.7-3.52,6.27-3.52,10.72c0,4.39,1.05,7.79,3.16,10.19c2.11,2.4,5.03,3.6,8.77,3.6
				C541.5,245.28,544.29,244.68,547.25,243.5"/>
			<polygon class="st0" points="627.67,193.21 627.67,253.73 617.61,253.73 617.61,212.52 599.01,241.98 596.34,241.98 
				577.56,212.26 577.56,253.73 567.59,253.73 567.59,193.21 577.21,193.21 598.03,227.03 618.86,193.21 			"/>
			<path class="st0" d="M677.84,234.06h-30.62c0.95,8.01,5.64,12.01,14.06,12.01c5.4,0,10.17-1.19,14.33-3.56v9.17
				c-1.78,0.89-4.02,1.62-6.72,2.18c-2.7,0.56-5.47,0.84-8.32,0.84c-4.93,0-9.21-0.96-12.86-2.89c-3.65-1.93-6.45-4.66-8.41-8.19
				c-1.96-3.53-2.94-7.67-2.94-12.42c0-4.63,0.92-8.71,2.76-12.24c1.84-3.53,4.4-6.26,7.7-8.19c3.29-1.93,7.08-2.89,11.35-2.89
				c4.09,0,7.67,0.93,10.72,2.8c3.05,1.87,5.39,4.42,6.99,7.65c1.6,3.24,2.4,6.87,2.4,10.9
				C678.29,231.39,678.14,232.99,677.84,234.06 M651.27,219.11c-1.93,1.72-3.19,4.15-3.78,7.3h21c-0.24-2.79-1.25-5.13-3.03-7.03
				c-1.78-1.9-4.15-2.85-7.12-2.85C655.56,216.53,653.2,217.39,651.27,219.11"/>
			<path class="st0" d="M726.16,189.03v62.3c-6.11,2.26-12.05,3.38-17.8,3.38c-7.06,0-12.71-2.02-16.95-6.05
				c-4.24-4.03-6.36-9.82-6.36-17.35c0-4.57,0.93-8.62,2.8-12.15c1.87-3.53,4.52-6.29,7.97-8.28c3.44-1.99,7.42-2.98,11.93-2.98
				c3.14,0,5.9,0.57,8.28,1.69v-20.56H726.16z M716.01,244.83v-26.25c-2.2-1.18-4.66-1.78-7.39-1.78c-3.86,0-6.97,1.35-9.35,4.05
				c-2.37,2.7-3.56,6.27-3.56,10.72c0,4.57,1.2,8.12,3.61,10.64c2.4,2.52,5.5,3.78,9.3,3.78
				C711.47,245.99,713.94,245.6,716.01,244.83"/>
			<path class="st0" d="M738.02,200.6c-1.22-1.13-1.83-2.55-1.83-4.27c0-1.72,0.59-3.14,1.78-4.27c1.19-1.13,2.67-1.69,4.45-1.69
				c1.72,0,3.2,0.57,4.45,1.69c1.25,1.13,1.87,2.55,1.87,4.27c0,1.72-0.62,3.15-1.87,4.27c-1.25,1.13-2.73,1.69-4.45,1.69
				C740.7,202.29,739.23,201.73,738.02,200.6 M737.35,208.88h10.15v44.86h-10.15V208.88z"/>
			<path class="st0" d="M789.43,212.48c3.11,3.06,4.67,7.43,4.67,13.13v28.12h-8.1l-1.25-4.09c-1.6,1.42-3.6,2.62-6.01,3.6
				c-2.4,0.98-5.03,1.47-7.88,1.47c-4.45,0-8-1.24-10.64-3.74c-2.64-2.49-3.96-5.87-3.96-10.15c0-5.1,1.87-8.81,5.61-11.12
				c3.74-2.31,8.54-3.47,14.42-3.47c2.73,0,5.28,0.27,7.65,0.8v-0.44c0-3.14-0.65-5.59-1.96-7.34c-1.3-1.75-3.92-2.63-7.83-2.63
				c-2.31,0-4.7,0.3-7.16,0.89c-2.46,0.59-4.79,1.42-6.99,2.49v-9.26c4.98-1.9,10.15-2.85,15.49-2.85
				C781.67,207.9,786.32,209.42,789.43,212.48 M768.52,244.48c1.16,1.07,2.77,1.6,4.85,1.6c3.62,0,7.15-1.21,10.59-3.65v-8.28
				c-1.84-0.36-3.86-0.53-6.05-0.53c-3.09,0-5.71,0.5-7.88,1.51c-2.17,1.01-3.25,2.79-3.25,5.34
				C766.78,242.07,767.36,243.41,768.52,244.48"/>
		</g>
		<g>
			<path class="st0" d="M451.59,103.65c-10.63-5.51-19.22-9.99-19.22-18.52c0-6.03,5.16-9.77,13.84-9.77
				c10.32,0,19.47,3.33,26.48,7.5V60.91c-7.35-3.16-17.46-5.82-26.5-5.82c-25.64,0-37.12,15.27-37.12,31.8
				c0,19.39,13.06,28.7,27.46,36.32c14.2,7.51,19.58,10.76,19.58,18.87c0,6.86-5.95,10.79-15.92,10.79
				c-13.85,0-23.67-6.4-30.05-11.52l0.02,23.33c5.97,4.17,18.81,9.19,29.88,9.19c24.89,0,40.59-12.99,40.59-33.89
				C480.64,118.38,462.22,109.15,451.59,103.65"/>
			<path class="st0" d="M261.82,56.16h-30.74v116.61h22.95v-37.1h4.62c28.73,0,46.58-15.28,46.58-39.87
				C305.22,70.99,289,56.16,261.82,56.16 M254.02,75.6h6.75c13.47,0,22.18,7.79,22.18,19.86c0,13.07-8.02,20.56-22,20.56h-6.92V75.6
				z"/>
			<path class="st0" d="M378.47,109.98c7.77-5.45,11.55-13.32,11.55-23.98c0-18.4-13.53-29.84-35.3-29.84h-35.6v116.61h37.18
				c28.5,0,41.48-18.3,41.48-35.3C397.78,124.02,390.42,113.63,378.47,109.98 M353.08,75.81c8.98,0,14.78,5.59,14.78,14.25
				c0,8.76-6.29,14.43-16.01,14.43h-9.77V75.81H353.08z M342.08,153.31v-30.44h14.52c11.57,0,18.48,5.66,18.48,15.13
				c0,10.16-6.93,15.31-20.6,15.31H342.08z"/>
			<path class="st0" d="M208.13,114.47c0,53.67-43.51,97.18-97.18,97.18s-97.18-43.51-97.18-97.18c0-53.67,43.51-97.18,97.18-97.18
				S208.13,60.8,208.13,114.47"/>
			<path class="st1" d="M181.72,115.42l-10.79,2.19v19.94c0,6.69-5.51,12.04-12.64,12.04h-5.52v23.19h-17.75v-23.19h5.52
				c7.13,0,12.63-5.34,12.63-12.04v-19.94l10.79-2.19c2.34-0.48,3.57-3.06,2.46-5.17l-28.29-54.08h17.75l28.29,54.08
				C185.29,112.36,184.06,114.94,181.72,115.42"/>
			<path class="st1" d="M145.37,110.25l-28.28-54.08H87.81c-26.63,0-49.24,21.79-48.6,48.41c0.47,19.86,13.29,34.74,31.1,40.34
				v27.86h43.67v-23.19h5.52c7.13,0,12.63-5.34,12.63-12.03v-19.94l10.79-2.19C145.25,114.94,146.48,112.36,145.37,110.25
				 M108.56,107.16c-6.13,0-11.11-4.97-11.11-11.11c0-6.13,4.97-11.11,11.11-11.11c6.13,0,11.11,4.97,11.11,11.11
				C119.67,102.18,114.69,107.16,108.56,107.16"/>
		</g>
	</g>
</g>
</svg>
