<?xml version="1.0" encoding="utf-8"?>
<!-- Generator: Adobe Illustrator 19.0.0, SVG Export Plug-In . SVG Version: 6.00 Build 0)  -->
<svg version="1.1" id="Layer_1" xmlns="http://www.w3.org/2000/svg" xmlns:xlink="http://www.w3.org/1999/xlink" x="0px" y="0px"
	 viewBox="593 216 132 40.8" style="enable-background:new 593 216 132 40.8;" xml:space="preserve">
<style type="text/css">
	.st0{fill:#0E0F19;}
	.st1{fill:#FFFFFF;}
	.st2{fill:#231F20;}
	.st3{fill:#A5CD39;}
</style>
<g>
	<g>
		<g>
			<path class="st0" d="M657.2,234.6c0,3-1.4,5.1-4.4,6c-1.3,0.5-2.7,0.6-4.4,0.5c0.3,0.8,0.8,2.5,1.6,4.6c0.2,0.3,0.2,0.6,0.2,0.9
				c0,0.9-0.8,1.7-2.5,2.5c-1.9,0.8-3,1.3-3.6,1.3c-0.8,0-1.3-0.5-1.6-1.3c-0.3-1.1-0.8-3.6-1.1-6.6c-0.3-3.5-0.6-6.8-0.6-9.8
				c0-1.7,0-3.5,0.2-4.7c0-0.9,0.6-1.4,1.6-1.4c0.3,0,5.7,0.3,5.9,0.3c2.4,0.3,4.4,0.9,5.9,1.9C656,230,657.2,231.9,657.2,234.6z
				 M650,233.8c0-0.8-0.5-1.4-1.3-1.9c-0.6-0.3-1.3-0.6-1.9-0.5c-0.2,0-0.3,0-0.3,0.2c0,0.8,0.3,4.9,0.5,5.5c0,0.2,0,0.5,0.3,0.5
				c0.5,0,0.9-0.5,1.6-1.3C649.7,235.6,650,234.8,650,233.8z"/>
			<path class="st0" d="M674.4,245.2c0,0.8-0.3,1.4-0.8,1.9c-0.3,0.3-0.9,0.6-1.9,0.8c-1.9,0.5-4.3,0.9-7.1,1.3
				c-0.8,0-1.3,0.2-1.7,0.2c-1.1,0-1.7-0.2-2.4-0.6c-0.5-0.5-0.6-1.7-0.6-2.8c0-0.9,0-4,0-7.9s0.2-6.8,0.2-7.9
				c0-1.3,0.3-2.2,1.1-2.7c0.6-0.3,1.4-0.6,2.1-0.9c1.4-0.6,2.2-0.6,2.7-0.8c0.9,0,1.4,0.6,1.4,1.7c0,1.9,0,8.5-0.6,14.2
				c0.9-0.2,2.7-0.6,4.7-1.3c0.5-0.2,0.8-0.2,1.3-0.2c0.8,0,1.1,0.5,1.3,1.4C674.1,243,674.4,244.9,674.4,245.2z"/>
			<path class="st0" d="M710.4,227.7c-0.3,3.3-1.7,6.6-5.2,10.4c0.2,1.7,0.3,5.7,0.6,8.9c0.2,0.9-0.3,1.3-1.9,1.4
				c-1.1,0.2-2.5,0-3.8-0.2c-0.8-0.2-1.1-0.8-1.3-2.4c0-0.8,0-2.2,0-3.8c0-1.6,0.2-2.4,0.2-2.8c0-0.9-0.8-2.4-2.2-4.4
				c-1.7-2.5-3-4.6-3.5-5.5c-0.2-0.3-0.2-0.6-0.3-0.8c0-0.6,0.3-1.1,1.1-1.6c0.5-0.3,1.6-0.6,3.2-1.3c0.2,0,0.3,0,0.5,0
				c0.8,0,1.4,0.5,2.1,1.6c0.3,0.5,0.9,1.9,1.4,3.6c0.3,1.1,0.8,2.8,0.9,2.8c0.5,0,1.6-3.6,2.1-5.7c0.3-1.6,1.1-2.4,2.4-2.4
				c0.2,0,0.5,0,1.1,0s1.1,0,1.7,0c0.6,0.2,1.1,0.6,1.1,1.6C710.4,227.2,710.4,227.5,710.4,227.7z"/>
			<path class="st0" d="M713.8,243.3c0.6-0.5,1.4-0.8,2.5-0.6c2.2,0.2,3.5,1.3,3.5,3.2c0,0.8-0.3,1.4-0.9,1.9
				c-0.6,0.5-1.4,0.6-2.5,0.6c-2.1-0.2-3.2-1.1-3.3-2.8C713,244.6,713.3,243.8,713.8,243.3z M718.8,238.4c-0.3,1.3-0.6,2.5-2.1,2.8
				c-0.6,0.2-1.1,0-1.6-0.2c-0.6-0.3-1.1-1.7-1.4-5.1c-0.2-2.5-0.6-5.4-0.8-7.9c-0.2-1.6,0.5-2.4,1.4-2.8c1.1-0.5,1.6,0.2,4-0.3
				c0.5-0.2,2.2-0.2,2.4,0.9C720.9,226.9,720.1,231.8,718.8,238.4z"/>
			<path class="st0" d="M695.3,244c0.2,0.8,0.3,1.4,0.3,1.7c0.2,1.3-1.1,1.7-2.2,2.1c-2.4,0.8-3.6,0.9-4,0.9c-0.9,0-1.6-0.6-1.6-1.7
				c0-2.4-0.5-3.5-1.3-3.5c-0.2,0-0.3,0-0.5,0c-0.8,0.2-1.3,0.3-1.3,1.9c0,1.6-0.5,3.2-1.3,3.5c-1.6,0.5-1.7,0.3-3.3,0.5
				c-0.3,0-0.6,0-1.3,0c-0.9-0.2-1.4-0.2-1.4-0.3c-0.3-0.2-0.5-0.3-0.5-0.8c0-0.2,0-0.5,0.2-0.8c0.2-0.9,0.6-4,1.4-9.2
				c0.8-5.2,1.3-8.4,1.4-9.5s0.3-1.7,0.6-2.2s0.9-0.6,1.7-0.9c1.3-0.3,2.8,0.2,4.7-0.3c0.8,0,1.1,0,0.9,0c0.8,0,1.4,0.6,1.9,2.1
				C692.6,235.1,694.3,240.6,695.3,244z M686.9,237.2c0-0.5-0.2-1.3-0.6-2.4c-0.3-1.3-0.6-1.9-0.9-1.9c-0.3,0-0.6,0.6-0.8,1.7
				c-0.2,0.9-0.2,1.7-0.2,2.5c-0.2,0.6-0.2,1.3,0,1.4c0.2,0.3,0.5,0.5,1.1,0.5C686.4,239.1,686.9,238.4,686.9,237.2z"/>
			<path class="st1" d="M655.6,233.4c0,3-1.4,5.1-4.4,6c-1.3,0.5-2.7,0.6-4.4,0.5c0.3,0.8,0.8,2.5,1.6,4.6c0.2,0.3,0.2,0.6,0.2,0.9
				c0,0.9-0.8,1.7-2.5,2.5c-1.9,0.8-3,1.3-3.6,1.3c-0.8,0-1.3-0.5-1.6-1.3c-0.3-1.1-0.8-3.6-1.1-6.6c-0.3-3.5-0.6-6.8-0.6-9.8
				c0-1.7,0-3.5,0.2-4.7c0-0.9,0.6-1.4,1.6-1.4c0.3,0,5.7,0.3,5.9,0.3c2.4,0.3,4.4,0.9,5.9,1.9C654.5,228.8,655.6,230.7,655.6,233.4
				z M648.5,232.7c0-0.8-0.5-1.4-1.3-1.9c-0.6-0.3-1.3-0.6-1.9-0.5c-0.2,0-0.3,0-0.3,0.2c0,0.8,0.3,4.9,0.5,5.5c0,0.2,0,0.5,0.3,0.5
				c0.5,0,0.9-0.5,1.6-1.3C648.1,234.3,648.5,233.5,648.5,232.7z"/>
			<path class="st1" d="M672.8,244c0,0.8-0.3,1.4-0.8,1.9c-0.3,0.3-0.9,0.6-1.9,0.8c-1.9,0.5-4.3,0.9-7.1,1.3
				c-0.8,0-1.3,0.2-1.7,0.2c-1.1,0-1.7-0.2-2.4-0.6s-0.6-1.7-0.6-2.8c0-0.9,0-4,0-7.9s0.2-6.8,0.2-7.9c0-1.3,0.3-2.2,1.1-2.7
				c0.6-0.3,1.4-0.6,2.1-0.9c1.4-0.6,2.2-0.6,2.7-0.8c0.9,0,1.4,0.6,1.4,1.7c0,1.9,0,8.5-0.6,14.2c0.9-0.2,2.7-0.6,4.7-1.3
				c0.5-0.2,0.9-0.2,1.3-0.2c0.8,0,1.1,0.5,1.3,1.4C672.5,241.9,672.8,243.6,672.8,244z"/>
			<path class="st1" d="M708.9,226.6c-0.3,3.3-1.7,6.6-5.2,10.4c0.2,1.7,0.3,5.7,0.6,8.9c0.2,0.9-0.3,1.3-1.9,1.4
				c-1.1,0.2-2.5,0-3.8-0.2c-0.8-0.2-1.1-0.8-1.3-2.4c0-0.8,0-2.2,0-3.8c0-1.4,0.2-2.4,0.2-2.8c0-0.9-0.8-2.4-2.2-4.4
				c-1.7-2.5-3-4.6-3.5-5.5c-0.2-0.3-0.2-0.6-0.3-0.8c0-0.6,0.3-1.1,1.1-1.6c0.5-0.3,1.6-0.6,3.2-1.3c0.2,0,0.3,0,0.5,0
				c0.8,0,1.4,0.5,2.1,1.6c0.3,0.5,0.9,1.9,1.4,3.6c0.3,1.1,0.8,2.8,0.9,2.8c0.5,0,1.6-3.6,2.1-5.7c0.3-1.6,1.1-2.4,2.4-2.4
				c0.2,0,0.5,0,1.1,0s1.1,0,1.7,0c0.6,0.2,1.1,0.6,1.1,1.6C708.9,225.9,708.9,226.3,708.9,226.6z"/>
			<path class="st1" d="M712.2,242.1c0.6-0.5,1.4-0.8,2.5-0.6c2.2,0.2,3.5,1.3,3.5,3.2c0,0.8-0.3,1.4-0.9,1.9
				c-0.6,0.5-1.4,0.6-2.5,0.6c-2.1-0.2-3.2-1.1-3.3-2.8C711.4,243.3,711.6,242.7,712.2,242.1z M717.2,237.3
				c-0.3,1.3-0.6,2.5-2.1,2.8c-0.6,0.2-1.1,0-1.6-0.2c-0.6-0.3-1.1-1.7-1.4-5.1c-0.2-2.5-0.6-5.4-0.8-7.9c-0.2-1.6,0.5-2.4,1.4-2.8
				c1.1-0.5,1.6,0.2,4-0.3c0.5-0.2,2.2-0.2,2.4,0.9C719.3,225.6,718.5,230.7,717.2,237.3z"/>
			<path class="st1" d="M693.5,242.7c0.2,0.8,0.3,1.4,0.3,1.7c0.2,1.3-1.1,1.7-2.2,2.1c-2.4,0.8-3.6,0.9-4,0.9
				c-0.9,0-1.6-0.6-1.6-1.7c0-2.4-0.5-3.5-1.3-3.5c-0.2,0-0.3,0-0.5,0c-0.8,0.2-1.3,0.3-1.3,1.9c0,1.6-0.5,3.2-1.3,3.5
				c-1.6,0.5-1.7,0.3-3.3,0.5c-0.3,0-0.6,0-1.3,0c-0.9-0.2-1.4-0.2-1.4-0.3c-0.3-0.2-0.5-0.3-0.5-0.8c0-0.2,0-0.5,0.2-0.8
				c0.2-0.9,0.6-4,1.4-9.2c0.8-5.2,1.3-8.4,1.4-9.5c0.2-1.1,0.3-1.7,0.6-2.2s0.9-0.6,1.7-0.9c1.3-0.3,2.8,0.2,4.7-0.3
				c0.8,0,1.1,0,0.9,0c0.8,0,1.4,0.6,1.9,2.1C691,233.8,692.7,239.4,693.5,242.7z M685.3,235.9c0-0.5-0.2-1.3-0.6-2.4
				c-0.3-1.3-0.6-1.9-0.9-1.9c-0.3,0-0.6,0.6-0.8,1.7c-0.2,0.9-0.2,1.7-0.2,2.5c-0.2,0.6-0.2,1.3,0,1.4c0.2,0.3,0.5,0.5,1.1,0.5
				C684.8,237.8,685.3,237.2,685.3,235.9z"/>
		</g>
		<g>
			<path class="st2" d="M723.4,225c0.8,0,1.6,0.6,1.6,1.6s-0.6,1.6-1.6,1.6c-0.8,0-1.6-0.6-1.6-1.6S722.6,225,723.4,225z
				 M723.4,227.8c0.6,0,1.3-0.6,1.3-1.3c0-0.8-0.6-1.3-1.3-1.3c-0.6,0-1.3,0.6-1.3,1.3C722.1,227.2,722.8,227.8,723.4,227.8z
				 M722.8,225.6h0.6c0.5,0,0.6,0.2,0.6,0.5s-0.2,0.5-0.5,0.5l0.5,0.8h-0.3l-0.5-0.8h-0.3v0.8h-0.2V225.6L722.8,225.6z M723.1,226.4
				h0.3c0.3,0,0.5,0,0.5-0.3s-0.2-0.3-0.5-0.3h-0.3V226.4L723.1,226.4z"/>
		</g>
		<g>
			<g>
				<path class="st1" d="M613.4,216c-11.2,0-20.4,9.2-20.4,20.4c0,11.2,9.2,20.4,20.4,20.4s20.4-9.2,20.4-20.4
					C633.9,225.1,624.7,216,613.4,216"/>
				<path class="st3" d="M613.7,216.9c-10.9,0-19.6,8.9-19.6,19.6c0,10.9,8.9,19.6,19.6,19.6c10.9,0,19.6-8.9,19.6-19.6
					C633.3,225.6,624.4,216.9,613.7,216.9"/>
				<path class="st1" d="M599.3,227.7c0-2.4,1.4-4.6,3.5-6.3c3.2-2.2,6.8-3.6,10.9-3.5c4,0,7.6,1.3,10.6,3.5
					c2.4,1.7,3.8,4.1,3.8,6.6c0,2.8-1.9,5.5-4.7,7.3l0,0c-2.8,1.7-6.2,2.7-9.6,2.7c-4.3,0-8.1-1.4-11.2-4
					C600.4,232.3,599.3,230,599.3,227.7"/>
				<path class="st0" d="M616.2,224.4c0.8-0.5,0.8-1.4,0.8-1.7c0-1.4-1.1-2.5-3.2-2.5c-0.8,0-1.6,0.2-2.8,0.3l0,0c0,0-0.2,0-0.2,0.2
					l0,0c0.3,1.9,0.3,4.7,0,7.7l0,0c0,0,0,0.2,0.2,0.2c0.8,0.2,2.2,0.3,3,0.3c1.9,0,3.3-1.1,3.3-2.5
					C617.6,225.3,617.1,224.7,616.2,224.4 M614,221.8c0.8,0,1.3,0.3,1.3,0.9c0,1.1-1.7,0.9-1.9,0.8v-1.7
					C613.4,222,613.4,221.8,614,221.8 M614.1,227.2c-0.3,0-0.5,0-0.8-0.2v-1.7c0,0,0.5,0,0.6,0c0.6,0,1.4,0.2,1.4,0.8
					C615.4,226.6,615.2,227.2,614.1,227.2"/>
				<path class="st0" d="M605.9,221c-0.8,0.2-1.7,0.5-2.4,0.8l0,0c-0.2,0,0,0.2,0,0.2c0.6,1.4,1.6,6.2,1.7,7.7l0,0l0,0l0.2,0.2
					l2.1-0.6l0.2-0.2l0,0v-0.2l-0.2-0.5l-0.3-1.4l0.5-0.2c2.2-0.5,3.3-2.2,2.8-3.8C610.2,221.3,608.3,220.6,605.9,221 M607,225.1
					c-0.2,0-0.3,0-0.3,0l-0.5-2.2c0,0,0.5-0.2,0.6-0.2c0.8-0.2,1.4,0.2,1.6,0.8C608.6,224.5,608.1,225,607,225.1"/>
				<path class="st0" d="M622.5,223.6l0.2,0.2h0.2l0,0c0.2-0.2,0,0,1.1-1.3c0,0,0,0,0-0.2v-0.2c0,0-1.1-0.9-2.5-1.1
					c-1.9-0.2-3.3,0.9-3.3,2.5c-0.2,1.4,0.9,2.2,2.7,2.8c1.4,0.5,0.9,1.4,0,1.3c-0.5,0-1.3-0.3-1.9-0.9l0,0h-0.2l-1.1,1.3l0,0v0.2
					c0.8,0.8,1.9,1.3,2.8,1.3c1.7,0.2,3.2-0.9,3.2-2.5c0.2-1.7-1.3-2.4-2.4-2.7c-0.9-0.3-1.3-0.6-1.3-0.9
					C620.3,223.1,620.9,222.6,622.5,223.6"/>
				<path class="st1" d="M626.6,238c1.1,0.5,2.5,0,3-1.3c0.5-1.1,0-2.5-1.3-3c-1.1-0.5-2.5,0-3,1.3
					C624.9,236.2,625.5,237.5,626.6,238"/>
				<path class="st1" d="M622,243.3c0-1.1-0.9-2.1-2.2-2.1c-1.1,0-2.1,0.9-2.1,2.2c0,1.1,0.9,2.1,2.2,2.1
					C621.1,245.4,622,244.4,622,243.3"/>
				<path class="st1" d="M611.5,250c2.1-0.5,3.2-2.5,2.7-4.6c-0.5-2.1-2.5-3.2-4.6-2.7c-2.1,0.5-3.2,2.5-2.7,4.6
					C607.3,249.2,609.4,250.4,611.5,250"/>
				<path class="st0" d="M618.3,250.4c0.5-0.3,0.6-1.1,0.3-1.6c-0.3-0.5-1.1-0.6-1.6-0.3c-0.5,0.3-0.6,1.1-0.3,1.6
					c0.2,0.3,0.5,0.5,0.8,0.5C617.6,250.6,617.9,250.6,618.3,250.4 M617.3,249.7c-0.2-0.2,0-0.3,0.2-0.5c0.2-0.2,0.5,0,0.5,0.2
					c0.2,0.2,0,0.5-0.2,0.5s-0.2,0-0.3,0C617.5,249.8,617.3,249.7,617.3,249.7"/>
				<path class="st0" d="M620.2,250.4c-1.6,1.9-4.1,2.2-4.1,2.2l0,0l0,0c-3,0.5-5.4-0.9-5.4-0.9c-0.2-0.2-0.5,0-0.6,0.2
					c-0.2,0.2,0,0.5,0.2,0.6c0.2,0,2.7,1.6,6,1.1c0.2,0,3-0.3,4.7-2.5c0-0.2,0.2-0.2,0.2-0.3s0-0.3-0.2-0.3
					C620.6,250.3,620.3,250.3,620.2,250.4"/>
				<path class="st0" d="M609.6,242.2c-1.1,0.3-2.1,0.9-2.5,1.9c-0.6,0.9-0.8,2.1-0.5,3.2c0.6,2.2,2.8,3.6,5.1,3
					c1.1-0.3,2.1-0.9,2.5-1.9c0.6-0.9,0.8-2.1,0.5-3.2C614,243,611.8,241.7,609.6,242.2 M607.3,247.1c-0.2-0.8,0-1.7,0.3-2.5
					c0.5-0.8,1.1-1.3,2.1-1.4c1.7-0.5,3.5,0.6,4,2.4c0,0.2,0.2,0.5,0.2,0.6c0,0.6-0.2,1.3-0.5,1.7c-0.5,0.8-1.1,1.3-2.1,1.4
					C609.6,250,607.8,248.9,607.3,247.1"/>
				<path class="st0" d="M608.5,248.1c0.8,0.2,1.4-0.5,1.6-1.1c0.2-0.8-0.5-1.4-1.1-1.6c-0.8-0.2-1.4,0.5-1.6,1.1
					C607.2,247.4,607.7,248.1,608.5,248.1"/>
				<path class="st0" d="M617.5,243.5c0,1.4,1.3,2.4,2.5,2.4c1.3,0,2.4-1.3,2.4-2.5c0-1.4-1.3-2.4-2.5-2.4
					C618.6,241,617.5,242.1,617.5,243.5 M618.3,243.5c0-0.9,0.8-1.7,1.7-1.7c0.9,0,1.7,0.8,1.7,1.7s-0.8,1.7-1.7,1.7
					C619,245.2,618.3,244.4,618.3,243.5"/>
				<path class="st0" d="M619,244.6c0.5,0,0.9-0.3,0.9-0.8s-0.3-0.9-0.8-0.9s-0.9,0.3-0.9,0.8S618.6,244.6,619,244.6"/>
				<path class="st0" d="M624.4,243.6c-0.5-2.7-2.1-5.1-4.4-6.6l0,0l0,0c-0.2,0-0.2-0.2-0.3-0.2c-0.3-0.2-0.6-0.5-1.1-0.6
					c-2.5-1.4-6.8-2.7-16.6,1.3l1.7,1.7l-3.5,1.3l2.7,1.7l-3.2,1.1l3,2.1c-0.9,0.5-1.7,1.6-1.7,2.7c0,1.7,1.3,3.2,3,3.2
					c0.3,0,0.5,0,0.8,0c2.4,3.5,6.6,5.5,11.1,4.7c2.7-0.5,5.1-2.1,6.6-4.3C624.3,249.3,624.9,246.5,624.4,243.6 M604.2,250.4
					c-1.3,0-2.2-1.1-2.2-2.2c0-0.9,0.6-1.6,1.3-2.1c0,0.5,0.2,0.9,0.2,1.4c0.2,1.1,0.6,2.1,0.9,2.8
					C604.5,250.4,604.3,250.4,604.2,250.4 M621.9,251.2c-1.4,2.1-3.6,3.5-6.2,4c-5.2,0.9-10.4-2.5-11.4-7.7c-0.5-2.1-0.2-4,0.6-5.7
					l13.9-4.3c0.2,0,0.2,0.2,0.3,0.2c2.2,1.4,3.8,3.6,4.3,6.3C623.9,246.5,623.5,249,621.9,251.2"/>
				<path class="st1" d="M624.6,239.4c-0.3,0.6-0.2,1.3,0.5,1.7c0.6,0.3,1.3,0.2,1.7-0.5c0.3-0.6,0.2-1.3-0.5-1.7
					C625.7,238.6,624.9,238.7,624.6,239.4"/>
				<path class="st0" d="M612.4,234L612.4,234v-0.3v-0.6l0,0l-0.2-1.9l0,0v-0.6v-0.3l0,0l0,0c0,0-0.3,0-0.5,0c-0.3,0-0.5,0-0.5,0
					l0,0l0,0l0,0v0.3v0.6l0,0l0.2,1.9l0,0v0.6v0.3l0,0l0,0l0,0H612.4L612.4,234L612.4,234L612.4,234"/>
				<path class="st0" d="M617,232.3c0,1.3-1.1,1.9-2.4,1.9c-0.3,0-0.3,0-0.6,0c-0.3,0-0.6,0-0.6,0l0,0l0,0l0,0l0,0v-0.3v-0.6l0,0
					v-1.9l0,0v-0.6v-0.3l0,0l0,0h0.3c0.2,0,0.6,0,0.8,0C616,230.2,617.1,231,617,232.3 M614.9,231c-0.2,0-0.2,0-0.2,0v0.2l0,0v1.9
					l0,0v0.2h0.2c0.6,0,1.3-0.3,1.3-1.1C616,231.5,615.4,231,614.9,231"/>
				<path class="st0" d="M610.5,234l-1.7-1.6c0.3-0.5,0.8-0.8,1.1-1.1l0,0l0,0l0,0l-0.6-0.6l0,0l0,0l0,0c-0.6,0.6-1.3,1.3-1.7,1.9
					l-0.2-0.8l0,0l-0.2-0.6v-0.3l0,0l0,0c0,0-0.3,0-0.5,0.2c-0.3,0-0.5,0.2-0.5,0.2l0,0l0,0l0.2,0.3l0.2,0.6l0,0l0.3,1.9l0,0
					l0.2,0.6v0.3l0,0l0,0l0,0l0,0l0,0l0.9-0.2l0,0l0,0l0,0l0,0l-0.2-0.3v-0.3l0,0c0.2-0.2,0.3-0.5,0.5-0.6l1.1,1.1l0,0l0,0l0,0l0,0
					L610.5,234L610.5,234L610.5,234C610.5,234,610.7,234,610.5,234L610.5,234"/>
				<path class="st0" d="M621.1,233.5c0.2-1.7-2.2-1.4-2.2-1.9c0-0.3,1.1-0.5,1.7,0.3l0,0l0,0l0,0l0,0c0.2-0.2,0.5-0.5,0.6-0.6l0,0
					l0,0l0,0l0,0l0,0l0,0c-0.6-0.9-3.2-1.4-3.5,0.2c-0.2,1.6,2.4,1.4,2.2,2.1c-0.2,0.5-1.4,0.3-1.9-0.5l0,0l0,0
					c-0.2,0.2-0.6,0.5-0.6,0.6l0,0l0,0l0,0l0,0C618.4,235.1,620.9,235.1,621.1,233.5"/>
			</g>
		</g>
	</g>
</g>
</svg>
