<?xml version="1.0" encoding="utf-8"?>
<!-- Generator: Adobe Illustrator 19.0.0, SVG Export Plug-In . SVG Version: 6.00 Build 0)  -->
<svg version="1.1" id="Layer_1" xmlns="http://www.w3.org/2000/svg" xmlns:xlink="http://www.w3.org/1999/xlink" x="0px" y="0px"
	 viewBox="0 0 528 64" style="enable-background:new 0 0 528 64;" xml:space="preserve">
<style type="text/css">
	.st0{fill:#FFFFFF;}
	.st1{fill:#38C5FC;}
	.st2{clip-path:url(#SVGID_2_);}
	.st3{fill:#FF5B00;}
	.st4{fill:#231F20;}
	.st5{fill:#DDA831;}
	.st6{fill:#C69806;}
	.st7{fill:#FFF031;}
	.st8{fill:#76BF22;}
	.st9{fill:#A4FF22;}
	.st10{fill:#477708;}
	.st11{fill:#CC8011;}
</style>
<g>
	<polygon class="st0" points="290.2,13.2 279.4,38.5 290.7,38.5 291.3,58.5 302,31.4 290.7,31.4 	"/>
	<path class="st0" d="M90.9,60c-4.8,0.2-11.6,0.2-17-1.7l0.7-16.1c2.2,0.7,4.4,1.4,6.6,2s4.2,1,5.3,1c1,0,3.5-0.2,3.5-1.8
		c0-0.9-0.8-1.8-2.4-2.8c-1.6-1.1-3.7-2-5.8-3.3c-4.3-2.5-8.9-6.3-9.4-13.9C71.8,11.1,80.9,6.5,90.2,6.1c5.1-0.2,10.7,0.6,16,2.9
		l-1.6,15.3c-4.5-2-8.2-3.3-12-3.2c-1.3,0.1-4,0.1-3.9,2.2c0,0.8,1.1,1.2,2.6,2.1c1.8,1,4.1,2.1,6.6,3.6c4.8,3,10,7.5,10.4,15.4
		C108.9,55.5,98.9,59.7,90.9,60z"/>
	<path class="st0" d="M150.7,11.1c0.3,10.1,0.5,20.3-0.1,29.7c-0.6,9.8-11.4,17.5-20.7,17.5c-9.8,0-17.8-5.3-18.1-15.7
		c-0.2-10.1,0.3-20-0.3-30.9c5.3-0.3,10.4-0.5,15.7-0.4c-0.1,3.1-0.3,9.5-0.3,15.6c0,3.3-1.3,15.4,4,15.4c5.2,0,5-7.5,5-11.2
		c0-5.8-0.2-13-0.5-19.5L150.7,11.1z"/>
	<path class="st0" d="M174.9,46c-1.1,0-2.8-0.1-4-0.3c0.1,4.1-0.1,8,0.6,11.9c-2.7,0.2-5.3,0.3-8.1,0.3c-2.4,0-4.7-0.1-7-0.3
		l0.3-45.9h3.6c5.3,0,11.1-0.5,16.2-0.5c8.7,0,15.3,6.8,15.3,15.5C191.8,38.6,185.7,46,174.9,46z M174.1,23.9
		c-0.9,0-2.4,0.1-3.3,0.2v9.1c0.9,0.1,2.3,0.3,3.1,0.3c3.1,0,4-2.5,4-5.2C177.8,26,176.3,23.9,174.1,23.9z"/>
	<path class="st0" d="M229.1,57.7c0,0-13.6,0-17.8,0.1c-4.2,0.1-14.1-0.1-14.1-0.1s0.1-6.2-0.1-14.5c-0.1-8.4-0.5-20.3-0.7-31.6
		c0,0,12.6-0.1,16.8-0.3c3.8-0.1,15.8,0.1,15.8,0.1v12.1c-6.8-0.8-12.9-0.3-19.4,0l0.1,4.3c1.1-0.1,5.4-0.1,6.5-0.1
		c1.7-0.1,7.6-0.1,7.6-0.1c0.2,0.5,0.5,2.8,0.5,5.6c0,3.2-0.1,5.9-0.3,5.9c-1.9,0-11.1,0.1-13.6,0.3v4.1c3.9,0.3,12.1,0.5,18.6,0
		V57.7z"/>
	<path class="st0" d="M261.2,60.2L252,44.7c-0.5,0-1,0-1.5-0.1c0.1,4.6-0.1,10.3,0.3,14.1c-2.8,0.1-4.8,0.3-7.8,0.3
		c-2.5,0-5-0.1-7.5-0.3l0.3-48.3h2.1c6.1,0.1,12.7-0.4,18.7-0.4c8.5,0,16.5,7.3,16.5,15.9c0,7.2-2.6,12.4-7.2,15.5
		c3,5.2,6.2,10.5,9.9,15.1C272.2,58.2,265.4,59.6,261.2,60.2z M254.5,23.3c-1,0-3.1,0.1-4.1,0.2v8.9c0.9,0.1,2.9,0.2,3.9,0.2
		c3.3,0,4.2-2.2,4.2-5.1C258.5,25.4,256.9,23.3,254.5,23.3z"/>
	<path class="st0" d="M350.2,9.6c0,0-5.9,19.1-7.4,24.3c-2.4,7.8-7.9,25.3-7.9,25.3s-11.3,0.4-15,0.3c0,0-6.1-18.6-7.7-23.4
		c-1.6-4.9-8.4-25.9-8.4-25.9l17-0.5c1.4,8.4,4.9,21.6,6.6,28.7l7.2-28.8L350.2,9.6z"/>
	<path class="st0" d="M368.1,50.5c0,1.7,0.2,7.2,0.2,7.2h-14.2c0,0-0.2-18.1-0.4-21.7c-0.2-3.6-0.5-15.8-0.6-18.3
		c-0.1-2.3-0.1-6.4-0.1-6.4l15.2-0.1c0.2,2.1,0.3,5.8,0.3,9.7C368.4,30.9,368.1,40.7,368.1,50.5z"/>
	<path class="st0" d="M391.5,58.5c-4.8,0-11.6-0.3-16.8-2.2l1.6-14.2c2.1,0.7,4.3,1.4,6.4,2c2.1,0.6,4.2,1.1,5.2,1.1
		c1,0,3.6-0.1,3.6-1.4c0-0.8-0.7-1.6-2.2-2.5c-1.5-1-3.6-1.9-5.6-3.2c-4.2-2.4-8.6-6-8.6-12.7c0-10.9,9.3-14.6,18.7-14.6
		c5.1,0,10.7,0.9,15.8,3.2l-2.4,13.5c-4.4-1.9-8.1-3.3-11.8-3.3c-1.3,0-4-0.1-4,1.7c0,0.7,1.1,1.1,2.5,1.9c1.7,0.9,4,2,6.4,3.4
		c4.6,2.8,9.5,7,9.5,14C409.7,55.3,399.5,58.5,391.5,58.5z"/>
	<path class="st0" d="M430.3,50.5c0,1.7,0.2,7.2,0.2,7.2h-14.2c0,0-0.2-18.1-0.4-21.7c-0.2-3.6-0.5-15.8-0.6-18.3
		c-0.1-2.3-0.1-6.4-0.1-6.4l15.2-0.1c0.2,2.1,0.3,5.8,0.3,9.7C430.6,30.9,430.3,40.7,430.3,50.5z"/>
	<path class="st0" d="M456.3,58.4c-14,0-19.7-11.7-19.7-22.6c0-15.1,9.1-25.2,22.3-25.2c15.1,0,20.3,11.6,20.3,25.2
		C479.1,49.8,471.2,58.4,456.3,58.4z M458.1,25.1c-2.6,0-7.2,2.4-7.2,8c0,6.9,3.3,9.5,6.8,9.5c4,0,6.7-4.2,6.7-9.1
		C464.5,28.7,461.3,25.1,458.1,25.1z"/>
	<path class="st0" d="M528,9.5c-0.3,2-0.3,3.6-0.3,4.6c-0.1,1.9-0.8,20.7-0.9,27.6c-0.1,5.4-0.2,12.6-0.2,16.4
		c-3,1-7.2,1.3-10.1,1.7l-3.6-5.2c-1.5-2.1-7.5-10.9-13.1-18.5l0.5,9.4c0.1,2,0.3,7.8,0.3,9.5v3.2c-4.6,0.3-11.5,0.7-16.1,0.9
		c0.2-6.6,0.7-22.5,0.6-25.6l-0.3-21.7c4.2-0.8,6.6-1.1,12.9-1.8c1.8,2.7,6.1,8.1,6.8,9.1c0.9,1.4,4.9,6.5,7.4,9.7
		c0.2-4.4,0.5-9,0.5-10.7c0-1.6,0-5.2-0.3-7.9L528,9.5z"/>
</g>
<g>
	<circle class="st1" cx="32" cy="32" r="32"/>
	<g>
		<defs>
			<circle id="SVGID_1_" cx="32" cy="32" r="32"/>
		</defs>
		<clipPath id="SVGID_2_">
			<use xlink:href="#SVGID_1_"  style="overflow:visible;"/>
		</clipPath>
		<g class="st2">
			<path class="st3" d="M23.3,59.8c1.4-1.1,2.9-1.1,4.3-2.6c2.4-2.6,4.5-9,4.5-9l2.2,0.2c0,0-2.1,5,2,8.9c1,0.9,1.8,1.9,2.5,2.6
				c3.6,3.7,3.9,4.6,3.6,20.6H17.1C19.1,64.6,21.2,61.3,23.3,59.8z"/>
			<g>
				<path class="st4" d="M13.1,39.4c0,0-0.5,5-5.6,1.1c0,0-0.2,10.4,9.5,9.3c9.7-1.1,6.8-6.8,6.8-6.8S12,37.6,13.1,39.4z"/>
				<circle class="st5" cx="32.1" cy="29.5" r="21.9"/>
				<path class="st4" d="M28.9,34.7c0.1,0,0.2,0,0.2-0.1c0.1-0.1,0.1-0.3,0-0.4l-2.3-2l2.3-1.8c0.1-0.1,0.1-0.3,0-0.4
					c-0.1-0.1-0.3-0.1-0.4,0l-2.5,2c-0.1,0-0.1,0.1-0.1,0.2c0,0.1,0,0.2,0.1,0.2l2.5,2.2C28.8,34.7,28.9,34.7,28.9,34.7z"/>
				<path class="st4" d="M57.2,25c0,0,3.8,24.3-9.5,24.8c-6.8,0.2-6.1-7.7-6.1-7.7s4.7,2.5,6.4,0.2c2.2-2.9,2.9-19,2.9-19l-38.7-2.3
					c0,0,3-13,21.3-13.4C54.8,7,57.2,25,57.2,25z"/>
				<g>
					<g>
						<ellipse class="st6" cx="17.1" cy="28.9" rx="8.4" ry="8.7"/>
						<path class="st6" d="M34.9,26.2c-6.9-2-11.9-0.1-11.9-0.1l-6.8-3.9c0,0,11.3-1.7,25.7,0"/>
						<path class="st6" d="M48.3,23.5c1.1,1.5,1.8,3.3,1.8,5.4c0,4.8-3.8,8.7-8.5,8.7s-8.5-3.9-8.5-8.7c0-2.2,0.8-4.2,2.1-5.7
							L48.3,23.5z"/>
					</g>
					<circle class="st7" cx="15.6" cy="28.1" r="7.9"/>
					<circle class="st7" cx="40.5" cy="28.1" r="7.9"/>
					<path class="st7" d="M33.9,24.3C27,22.3,22,24.2,22,24.2l-6.8-3.9c0,0,11.3-1.7,25.7,0"/>
					<circle class="st8" cx="15.6" cy="28.1" r="4.7"/>
					<circle class="st8" cx="40.5" cy="28.1" r="4.7"/>
					<path class="st9" d="M19.4,30.8l-6.6-6.6c-0.6,0.4-1.1,1-1.5,1.6l6.4,6.4C18.5,31.9,19,31.4,19.4,30.8z"/>
					<path class="st9" d="M44.5,30.6L38,24.1c-0.6,0.4-1.2,0.9-1.6,1.6l6.5,6.5C43.6,31.8,44.1,31.2,44.5,30.6z"/>
					<path class="st10" d="M13.8,23.8c-2.4,1-3.6,3.7-2.6,6.1c0.1,0.3,0.2,0.5,0.4,0.8c-0.4-2.2,0.7-4.4,2.9-5.3
						c2.1-0.9,4.5,0,5.7,1.8c-0.1-0.3-0.1-0.6-0.2-0.8C19,24,16.2,22.8,13.8,23.8z"/>
					<path class="st10" d="M39.2,25.5c2.1-1,4.5-0.4,5.9,1.4c-0.1-0.3-0.2-0.5-0.3-0.8c-1.2-2.3-4-3.3-6.3-2.1s-3.3,4-2.1,6.3
						c0.1,0.3,0.3,0.5,0.5,0.7C36.1,28.8,37.1,26.5,39.2,25.5z"/>
				</g>
				<g>
					<path class="st11" d="M25.7,42.1c0-0.1-0.1-0.2-0.1-0.2l1.6-4l2.9,2.3l1.6-3l3.1,3.3c0,0,0,0.1,0,0.4
						C31.2,42.8,27.6,42.5,25.7,42.1z"/>
					<path class="st11" d="M25.6,43.3l10.2-0.9c0,0-1.6,5.1-4.7,5.4C28,48.1,25.6,43.3,25.6,43.3z"/>
					<path class="st0" d="M23,41.7l14.6-2C37.6,39.7,32.9,51.8,23,41.7z"/>
				</g>
			</g>
		</g>
	</g>
</g>
</svg>
