<?xml version="1.0" encoding="utf-8"?>
<!-- Generator: Adobe Illustrator 19.0.0, SVG Export Plug-In . SVG Version: 6.00 Build 0)  -->
<svg version="1.1" id="Layer_1" xmlns="http://www.w3.org/2000/svg" xmlns:xlink="http://www.w3.org/1999/xlink" x="0px" y="0px"
	 viewBox="1041.1 216.1 177.9 39.8" style="enable-background:new 1041.1 216.1 177.9 39.8;" xml:space="preserve">
<style type="text/css">
	.st0{fill:#FFFFFF;}
	.st1{fill:#A5CD39;}
	.st2{fill:#0E0F19;}
</style>
<g>
	<g>
		<g>
			<circle class="st0" cx="1061" cy="236.1" r="19.9"/>
			<path class="st1" d="M1061,217.2c-10.4,0-18.8,8.4-18.8,18.8c0,10.4,8.4,18.8,18.8,18.8c10.4,0,18.8-8.4,18.8-18.8
				C1079.8,225.8,1071.5,217.2,1061,217.2"/>
			<path class="st0" d="M1047.3,227.7c0-2.4,1.3-4.4,3.3-6.2c3-2.2,6.6-3.5,10.4-3.5s7.3,1.3,10.1,3.3c2.2,1.7,3.6,4,3.6,6.3
				c0,2.8-1.7,5.2-4.6,7l0,0c-2.7,1.6-5.9,2.5-9.2,2.5c-4,0-7.7-1.4-10.8-3.8C1048.4,231.9,1047.3,229.9,1047.3,227.7"/>
			<path class="st2" d="M1063.6,224.5c0.6-0.3,0.8-1.4,0.8-1.7c0-1.4-1.1-2.4-3-2.4c-0.8,0-1.6,0.2-2.7,0.3l0,0c0,0-0.2,0-0.2,0.2
				l0,0c0.3,1.7,0.3,4.6,0,7.4l0,0c0,0,0,0.2,0.2,0.2c0.6,0.2,2.1,0.3,2.8,0.3c1.9,0,3.3-0.9,3.3-2.5
				C1064.8,225.3,1064.5,224.8,1063.6,224.5 M1061.3,222.1c0.6,0,1.1,0.3,1.1,0.9c0,0.9-1.6,0.8-1.7,0.8v-1.6
				C1060.7,222.1,1060.9,222.1,1061.3,222.1 M1061.5,227c-0.3,0-0.5,0-0.8-0.2v-1.6c0,0,0.5,0,0.6,0c0.6,0,1.4,0.2,1.3,0.8
				C1062.8,226.6,1062.6,227,1061.5,227"/>
			<path class="st2" d="M1053.8,221.3c-0.8,0.2-1.7,0.5-2.2,0.8l0,0c-0.2,0,0,0.2,0,0.2c0.6,1.4,1.6,5.9,1.7,7.4l0,0l0,0l0.2,0.2
				l1.9-0.6l0.2-0.2l0,0v-0.2l-0.2-0.3l-0.3-1.4l0.5-0.2c2.1-0.5,3.2-2.1,2.8-3.6C1057.7,221.5,1056,220.9,1053.8,221.3
				 M1054.7,225.3c-0.2,0-0.3,0-0.3,0l-0.5-2.2c0,0,0.3-0.2,0.5-0.2c0.8-0.2,1.4,0.2,1.6,0.8C1056.1,224.5,1055.8,225,1054.7,225.3"
				/>
			<path class="st2" d="M1069.6,223.7l0.2,0.2h0.2l0,0c0.2-0.2,0,0,1.1-1.3l0,0v-0.2c0,0-0.9-0.9-2.5-1.1c-1.9-0.2-3.2,0.9-3.2,2.5
				c-0.2,1.3,0.8,2.1,2.7,2.7c1.3,0.5,0.8,1.3,0,1.3c-0.5,0-1.3-0.3-1.7-0.8l0,0h-0.2l-1.1,1.3l0,0v0.2c0.8,0.8,1.7,1.3,2.7,1.3
				c1.7,0.2,3-0.9,3.2-2.4c0.2-1.6-1.3-2.2-2.2-2.5c-0.8-0.3-1.3-0.5-1.1-0.9C1067.4,223.2,1068.1,222.8,1069.6,223.7"/>
			<path class="st0" d="M1073.5,237.5c1.1,0.5,2.4,0,2.8-1.1s0-2.4-1.1-2.8s-2.4,0-2.8,1.1C1071.9,235.7,1072.4,237,1073.5,237.5"/>
			<path class="st0" d="M1069.1,242.7c0-1.1-0.9-1.9-2.1-1.9s-1.9,0.9-1.9,2.1c0,1.1,0.9,1.9,2.1,1.9
				C1068.3,244.6,1069.1,243.8,1069.1,242.7"/>
			<path class="st0" d="M1059,249c1.9-0.5,3.2-2.4,2.7-4.3c-0.5-1.9-2.4-3-4.4-2.5c-1.9,0.5-3.2,2.4-2.7,4.3
				C1055,248.2,1057.1,249.5,1059,249"/>
			<path class="st2" d="M1065.5,249.3c0.5-0.3,0.6-1.1,0.3-1.6s-1.1-0.6-1.6-0.3s-0.6,1.1-0.3,1.6c0.2,0.3,0.5,0.5,0.8,0.5
				C1065,249.7,1065.3,249.5,1065.5,249.3 M1064.5,248.7c-0.2-0.2,0-0.3,0.2-0.5c0.2-0.2,0.3,0,0.5,0.2c0.2,0.2,0,0.3-0.2,0.5
				c-0.2,0-0.2,0-0.3,0C1064.7,248.9,1064.7,248.7,1064.5,248.7"/>
			<path class="st2" d="M1067.4,249.5c-1.6,1.9-4,2.1-4,2.1l0,0l0,0c-2.8,0.5-5.1-0.9-5.2-0.9c-0.2-0.2-0.5,0-0.6,0.2
				c-0.2,0.2,0,0.5,0.2,0.6c0.2,0,2.5,1.6,5.7,1.1c0.2,0,2.8-0.3,4.6-2.4c0,0,0.2-0.2,0.2-0.3c0-0.2,0-0.3-0.2-0.3
				C1067.7,249.3,1067.5,249.3,1067.4,249.5"/>
			<path class="st2" d="M1057.1,241.6c-1.1,0.3-1.9,0.9-2.5,1.9c-0.5,0.9-0.6,2.1-0.5,3c0.5,2.2,2.7,3.5,4.9,2.8
				c1.1-0.3,1.9-0.9,2.5-1.9c0.5-0.9,0.6-2.1,0.5-3C1061.5,242.4,1059.3,241.1,1057.1,241.6 M1055,246.3c-0.2-0.8,0-1.6,0.3-2.4
				c0.5-0.8,1.1-1.3,1.9-1.4c1.7-0.5,3.5,0.6,3.8,2.2c0,0.2,0.2,0.5,0.2,0.6c0,0.6-0.2,1.1-0.5,1.7c-0.5,0.8-1.1,1.3-1.9,1.4
				C1057.2,249,1055.5,247.9,1055,246.3"/>
			<path class="st2" d="M1056.1,247.3c0.6,0.2,1.4-0.5,1.4-1.1c0.2-0.6-0.5-1.4-1.1-1.4c-0.6-0.2-1.4,0.5-1.4,1.1
				C1054.9,246.5,1055.3,247.1,1056.1,247.3"/>
			<path class="st2" d="M1064.8,242.9c0,1.3,1.1,2.4,2.4,2.2c1.3,0,2.4-1.1,2.2-2.4c0-1.3-1.1-2.4-2.4-2.2
				C1065.8,240.3,1064.7,241.4,1064.8,242.9 M1065.5,242.7c0-0.9,0.6-1.7,1.6-1.7c0.9,0,1.7,0.6,1.7,1.6c0,0.9-0.6,1.7-1.6,1.7
				C1066.2,244.4,1065.5,243.6,1065.5,242.7"/>
			<path class="st2" d="M1066.2,243.8c0.5,0,0.9-0.3,0.9-0.8s-0.3-0.9-0.8-0.9s-0.9,0.3-0.9,0.8S1065.8,243.8,1066.2,243.8"/>
			<path class="st2" d="M1071.3,243c-0.5-2.5-2.1-4.9-4.1-6.3l0,0l0,0c-0.2,0-0.2-0.2-0.3-0.2c-0.3-0.2-0.6-0.5-0.9-0.6
				c-2.5-1.3-6.6-2.7-16,1.1l1.7,1.6l-3.3,1.3l2.7,1.7l-3,1.1l2.8,2.1c-0.9,0.5-1.6,1.4-1.6,2.5c0,1.6,1.3,3,2.8,3
				c0.3,0,0.5,0,0.8,0c2.2,3.5,6.3,5.4,10.6,4.6c2.7-0.5,4.9-1.9,6.5-4.1C1071.3,248.4,1071.9,245.7,1071.3,243 M1052,249.5
				c-1.1,0-2.1-0.9-2.1-2.2c0-0.8,0.5-1.6,1.3-1.9c0,0.5,0.2,0.8,0.2,1.3c0.2,0.9,0.5,1.9,0.9,2.7
				C1052.3,249.5,1052.2,249.5,1052,249.5 M1068.9,250.3c-1.4,1.9-3.5,3.3-5.9,3.8c-5.1,0.9-10-2.4-10.9-7.4
				c-0.3-1.9-0.2-3.8,0.6-5.5l13.3-4.1c0.2,0,0.2,0.2,0.3,0.2c2.1,1.4,3.6,3.5,4.1,6S1070.5,248.1,1068.9,250.3"/>
			<path class="st0" d="M1071.5,238.7c-0.3,0.5-0.2,1.3,0.3,1.6s1.3,0.2,1.6-0.3c0.3-0.5,0.2-1.3-0.3-1.6
				C1072.6,238.1,1071.8,238.3,1071.5,238.7"/>
			<path class="st2" d="M1059.9,233.7L1059.9,233.7v-0.3v-0.6l0,0l-0.2-1.7l0,0v-0.6V230l0,0l0,0c0,0-0.3,0-0.5,0
				c-0.3,0-0.5,0-0.5,0l0,0l0,0l0,0v0.3v0.6l0,0l0.2,1.7l0,0v0.6v0.3l0,0l0,0l0,0H1059.9L1059.9,233.7L1059.9,233.7L1059.9,233.7"/>
			<path class="st2" d="M1064.3,231.9c0,1.1-1.1,1.9-2.2,1.7c-0.3,0-0.3,0-0.5,0c-0.3,0-0.6,0-0.6,0l0,0l0,0l0,0l0,0v-0.3v-0.6l0,0
				v-1.9l0,0v-0.6v-0.3l0,0l0,0c0,0,0.2,0,0.3,0c0.2,0,0.5,0,0.8,0C1063.4,230,1064.3,230.7,1064.3,231.9 M1062.3,230.8
				c-0.2,0-0.2,0-0.2,0v0.2l0,0v1.9l0,0v0.2h0.2c0.6,0,1.3-0.3,1.3-0.9C1063.4,231.3,1062.8,230.8,1062.3,230.8"/>
			<path class="st2" d="M1058.2,233.7l-1.6-1.6c0.3-0.5,0.8-0.8,1.1-1.1l0,0l0,0l0,0l-0.6-0.6l0,0l0,0l0,0c-0.6,0.5-1.3,1.1-1.7,1.9
				l-0.2-0.6l0,0l-0.2-0.6v-0.3l0,0l0,0c0,0-0.3,0-0.5,0.2c-0.3,0-0.5,0.2-0.5,0.2l0,0l0,0l0.2,0.3l0.2,0.6l0,0l0.3,1.7l0,0l0.2,0.6
				v0.3l0,0l0,0l0,0l0,0l0,0l0.9-0.2l0,0l0,0l0,0l0,0l-0.2-0.3v-0.3l0,0c0.2-0.2,0.3-0.5,0.5-0.6l1.1,1.1l0,0l0,0l0,0l0,0
				L1058.2,233.7L1058.2,233.7L1058.2,233.7L1058.2,233.7L1058.2,233.7"/>
			<path class="st2" d="M1068.3,233.2c0.2-1.6-2.2-1.3-2.1-1.9c0-0.3,0.9-0.5,1.7,0.3l0,0l0,0l0,0l0,0c0.2-0.2,0.5-0.5,0.6-0.6l0,0
				l0,0l0,0l0,0l0,0l0,0c-0.6-0.9-3.2-1.4-3.3,0.2c-0.2,1.6,2.2,1.4,2.2,1.9c-0.2,0.5-1.4,0.3-1.9-0.5l0,0l0,0
				c-0.2,0.2-0.6,0.5-0.6,0.6l0,0l0,0l0,0l0,0C1065.6,234.6,1068,234.8,1068.3,233.2"/>
		</g>
		<path class="st0" d="M1079.1,248.4c0.8,0,1.4,0.6,1.4,1.4s-0.6,1.4-1.4,1.4c-0.8,0-1.4-0.6-1.4-1.4S1078.3,248.4,1079.1,248.4z
			 M1079.1,251.1c0.6,0,1.3-0.5,1.3-1.3s-0.5-1.3-1.3-1.3c-0.6,0-1.3,0.6-1.3,1.3C1077.8,250.6,1078.3,251.1,1079.1,251.1z
			 M1078.4,249h0.6c0.5,0,0.6,0.2,0.6,0.5s-0.2,0.5-0.5,0.5l0.5,0.8h-0.3l-0.5-0.8h-0.3v0.8h-0.3L1078.4,249L1078.4,249z
			 M1078.7,249.7h0.3c0.3,0,0.5,0,0.5-0.3c0-0.3-0.2-0.3-0.3-0.3h-0.3v0.6H1078.7z"/>
	</g>
	<g>
		<path class="st0" d="M1099.8,244.3c-4.6,0-7.1-4-7.1-8.2c0-5.9,3.3-9.6,8.2-9.6c5.4,0,7.4,4,7.4,9.5
			C1108.1,240.6,1105.3,244.3,1099.8,244.3z M1100.4,230.4c-1.7,0.2-2.8,1.4-3.2,4.1c-0.3,3.3,1.3,4.7,3,4.9c2.2,0.2,3-2.4,3-4.4
			C1103.4,233.1,1102.3,230.2,1100.4,230.4z"/>
		<path class="st0" d="M1125.5,226.4c0,0.5,0,0.8-0.2,1.3c0,0.8-0.5,7.7-0.5,10.4c0,2.1,0,4.7,0,5.9c-0.5,0.2-1.1,0.3-1.6,0.3
			l-1.3,0.2l-1.1-1.7c-0.6-0.9-3.8-5.4-6-8.5c0,0,0.2,4.4,0.3,5.2c0,0.8,0.2,3,0.2,3.6v0.8c-1.3,0-3.8,0.2-5.1,0.3
			c0-1.9,0.2-8.1,0.2-9.2l-0.2-7.7c0.5-0.2,1.3-0.3,1.9-0.3l2.4-0.3c0.5,0.8,2.1,2.8,2.2,3.2c0.5,0.8,3.6,4.7,3.6,4.7
			s0.2-5.2,0.2-6.2c0-0.6,0-1.3,0-1.7L1125.5,226.4z"/>
		<path class="st0" d="M1139.8,226.6l-0.3,17.6h-4.3c0-1.7-0.2-7-0.2-8.2l-0.2-7.6c0-0.5,0-1.3,0-1.7H1139.8z"/>
		<path class="st0" d="M1157,230.7c-1.9,0-3.8,0.2-5.7,0.2c0,4.4,0,8.9,0.2,13.1h-4.6l0.2-13.1c-2.1,0-3.5,0-5.5-0.2
			c0-1.1,0-2.8,0.2-4.3c2.5,0.2,4.9,0.2,7.3,0.2c2.7,0,5.2,0,8.1-0.2L1157,230.7L1157,230.7z"/>
		<path class="st0" d="M1172.5,226.6c0,3.8,0.2,7.3-0.2,11.5c-0.2,3.6-4.1,6.3-7.4,6.3c-4.6,0-6.5-2.5-6.5-6.8c0-3.6,0.2-7.3,0-10.8
			c1.3,0,2.5-0.2,3.8-0.2h1.1v0.5c0,2.5-0.2,4.9-0.2,7.4c0,1.6-0.5,5.1,1.9,5.1c2.7,0,2.7-3.6,2.7-6.2c0-2.2-0.2-4.4-0.3-6.8
			L1172.5,226.6z"/>
		<path class="st0" d="M1190.4,226.4c0,0.5,0,0.8-0.2,1.3c0,0.8-0.5,7.7-0.5,10.4c0,2.1,0,4.7,0,5.9c-0.5,0.2-1.1,0.3-1.6,0.3
			l-1.3,0.2l-1.1-1.7c-0.6-0.9-3.8-5.4-6-8.5c0,0,0.2,4.4,0.3,5.2c0,0.8,0.2,3,0.2,3.6v0.8c-1.3,0-3.8,0.2-5.1,0.3
			c0-1.9,0.2-8.1,0.2-9.2l-0.2-7.7c0.5-0.2,1.3-0.3,1.9-0.3l2.4-0.3c0.5,0.8,2.1,2.8,2.2,3.2c0.5,0.8,3.6,4.7,3.6,4.7
			s0.2-5.2,0.2-6.2c0-0.6,0-1.3,0-1.7L1190.4,226.4z"/>
		<path class="st0" d="M1204.5,244.1c-1.4,0-5.5,0-7,0h-4.6c0-0.9,0-2.8,0-5.2c0-3.2,0-7.9-0.2-12.2c3.8-0.2,7.6-0.2,11.5-0.2v4.1
			c-0.8,0-3.3-0.2-4.1,0c-0.8,0-3.2,0.2-3.2,0.2v2.8c0,0,2.1-0.2,2.8-0.2c0.5,0,1.3,0,1.7,0l0.2,3.5c-0.9,0.2-3.2,0.3-4.4,0.3v2.5
			h7.1L1204.5,244.1L1204.5,244.1z"/>
		<path class="st0" d="M1218.2,231.3c-1.7-0.6-2.8-1.1-4.6-1.1c-0.8,0-2.4,0-2.4,1.3c0,2.2,7.7,2.8,7.7,7.9c0,3.3-3.2,4.9-6.2,4.9
			c-2.2,0-4.7-0.3-6.8-0.9l0.6-4.1c1.3,0.5,2.7,1.1,4.1,1.1c0.8,0,2.4,0,2.4-1.1c0-1.9-7-2.7-7-7.4c0-4,3.5-5.5,7-5.5
			c1.9,0,4,0.3,5.7,1.1L1218.2,231.3z"/>
	</g>
</g>
</svg>
