<svg xmlns="http://www.w3.org/2000/svg" width="427.1" height="367.4" viewBox="0 0 427.1 367.4"><path opacity=".4" fill="#E28825" d="M197.6 367.4c-2.9-6.7-5.3-13.6-7.6-20.5-4.4-13.2-8.4-26.6-10.2-40.4-2.3-17.8-.8-35.9 0-53.9.8-17.7.9-35.6-1.8-53.2-3.6-23.6-6.9-46.7-10.5-70.4-.8-5.5-2.8-12.1-8.2-13.2-6-1.2-10.3 5.4-12.8 10.9-14.5-7.4-29.4-7.5-45.7-6.9-13.1.5-26.4 1-39.2-1.7-9.2-1.9-17.9-5.4-27.1-7.3-9.4-2-25.1-3.2-29 8.2-1.5 4.4-1.1 9.2-.4 13.8 1.1 7.1 2.9 14.1 5.1 20.9-6.8 2.8-6.1 14.1-7.2 20.6-1.2 6.7-.5 14.8 5.2 18.5-8.4 9-10.4 23.3-5 34.3C6.8 234.3 13 239.8 19 245c8.5 7.4 17 14.8 25.6 22.2C53 274.5 61.4 281.8 69 290c20.5 22 29.2 48.6 34.9 77.1h93.7z"/><path fill="#E28825" d="M27.1 47v196h122V47h-122zm108 85h-93v-22h93v22z"/><path fill="none" stroke="#FFF" stroke-width="2" stroke-linejoin="round" stroke-miterlimit="10" stroke-dasharray="6" d="M427.1 135.1h-220V10H88.4v113.8"/></svg>