<?xml version="1.0" encoding="utf-8"?>
<!-- Generator: Adobe Illustrator 14.0.0, SVG Export Plug-In . SVG Version: 6.00 Build 43363)  -->
<!DOCTYPE svg PUBLIC "-//W3C//DTD SVG 1.1//EN" "http://www.w3.org/Graphics/SVG/1.1/DTD/svg11.dtd">
<svg version="1.1" id="Layer_1" xmlns="http://www.w3.org/2000/svg" xmlns:xlink="http://www.w3.org/1999/xlink" x="0px" y="0px"
	 width="492.938px" height="121.279px" viewBox="0 0 492.938 121.279" enable-background="new 0 0 492.938 121.279"
	 xml:space="preserve">
<rect fill="#FFBC00" width="492.938" height="121.279"/>
<g>
	
		<linearGradient id="SVGID_1_" gradientUnits="userSpaceOnUse" x1="767.4141" y1="171.3887" x2="767.4141" y2="-56.4502" gradientTransform="matrix(-1 0 0 1 888.9375 0)">
		<stop  offset="0" style="stop-color:#FFE000;stop-opacity:0"/>
		<stop  offset="0.1682" style="stop-color:#FFCE00;stop-opacity:0.1682"/>
		<stop  offset="0.383" style="stop-color:#FFBF00;stop-opacity:0.383"/>
		<stop  offset="0.6333" style="stop-color:#FFB600;stop-opacity:0.6333"/>
		<stop  offset="1" style="stop-color:#FFB300"/>
	</linearGradient>
	<path fill="url(#SVGID_1_)" d="M208.485,168.497l-173.924,2.891V71.784c4.87,0.795,10.619,0.878,17.467,0.028
		c56.426-7.014,10.259-131.697,44.114-128.19c33.859,3.504,1.54,119.17,35.397,118.673c33.854-0.503,6.156-60.111,38.473-59.111
		c32.316,1.002,1.539,63.117,37.96,65.621c0.168,0.01,0.343,0.016,0.514,0.023V168.497z"/>
	<path fill="#FFAA00" d="M-0.756-41.139c76.632,0-23.992,128.54,115.95,124.635c139.939-3.907,83.297-72.884,127.94-71.577
		c44.649,1.298,21.124,77.342,93.961,65.068c49.359-8.316,19.766-60.523,58.061-60.523c38.287,0,16.533,47.857,45.23,48.163
		c43.98,0.469,7.99-68.024,49.973-66.723c41.984,1.301,2.002,71.929,49.314,75.178c47.312,3.253,59.971-63.765,59.971-63.765h93.295
		l1.867,267.468L-3.956,277.01L-0.756-41.139z"/>
	<path fill="none" d="M440.387,64.627c-4.25,0.06-7.699-1.412-10.498-4.121l24.576-0.149
		C451.018,62.97,446.467,64.529,440.387,64.627z"/>
	<path fill="#FFAA00" d="M589.535,38.365l104.092-0.927l0.383,15.502L580.383,53.14C584.021,48.451,587.045,43.355,589.535,38.365z"
		/>
	<path fill="#F95AF5" d="M-0.756-41.139c24.179,0,30.713,13.8,32.719,32.566l-33.472,0.39L-0.756-41.139z"/>
	<path fill="#FF8500" d="M594.422,27.078l98.949-0.178l0.256,10.538l-104.092,0.927C591.477,34.463,593.094,30.625,594.422,27.078z"
		/>
	<path fill="#FFAA00" d="M425.061,53.418c1.34,2.867,2.941,5.263,4.828,7.088l-66.627,0.409c1.539-2.276,2.904-4.752,4.113-7.396
		L425.061,53.418z"/>
	<path fill="#FFAA00" d="M490.359-2.096c20.148,0.622,21.418,9.465,22.52,29.319l-46.922,0.082
		C467.801,7.431,468.715-2.77,490.359-2.096z"/>
	<path fill="#FF8500" d="M-3.366,63.173l51.086-0.319C58.968,76.013,79.061,84.5,115.194,83.496
		c48.091-1.342,72.968-10.371,86.713-21.589l85.515-0.522c8.895,11.2,22.695,18.956,49.674,15.603
		c11.895-1.478,20.279-7.33,26.166-16.072l66.627-0.409c2.799,2.709,6.248,4.181,10.498,4.121c6.08-0.098,10.631-1.657,14.078-4.271
		l64.102-0.394c3.67,7.302,9.971,12.357,21.107,13.119c14.855,1.021,26.291-4.887,34.996-13.466l119.48-0.739l0.689,45.387
		l-698.957,9.237L-3.366,63.173z"/>
	<path fill="#F95AF5" d="M580.383,53.14L694.01,52.94l0.141,5.937l-119.48,0.739C576.727,57.589,578.623,55.408,580.383,53.14z"/>
	<path fill="#FF8500" d="M464.49,39.476c0.658-3.911,1.086-8.03,1.467-12.17l46.922-0.082c0.217,3.944,0.434,7.927,0.783,11.816
		L464.49,39.476z"/>
	<path fill="#FFAA00" d="M47.72,62.854l-51.086,0.319l0.203-8.991l44.954-0.083C43.427,57.19,45.378,60.125,47.72,62.854z"/>
	<path fill="#FF8500" d="M41.791,54.099l-44.954,0.083l0.242-10.544l40.343-0.357C38.545,47.041,39.971,50.667,41.791,54.099z"/>
	<path fill="#FFAA00" d="M37.422,43.28l-40.343,0.357l0.356-15.493l36.943-0.064C35.008,33.287,35.964,38.396,37.422,43.28z"/>
	<path fill="#FFAA00" d="M460.242,53.355c2.117-3.977,3.389-8.749,4.248-13.88l49.172-0.436c0.449,4.998,1.135,9.836,2.365,14.22
		L460.242,53.355z"/>
	<path fill="#F95AF5" d="M460.242,53.355l55.785-0.096c0.67,2.378,1.498,4.63,2.539,6.703l-64.102,0.394
		C456.896,58.502,458.777,56.121,460.242,53.355z"/>
	<path fill="#FFAA00" d="M209.837,53.803l72.405-0.129c1.553,2.68,3.25,5.274,5.18,7.711l-85.515,0.522
		C205.103,59.298,207.691,56.577,209.837,53.803z"/>
	<path fill="#FF8500" d="M366.215,53.52c1.895-4.04,3.424-8.479,4.656-13.221l49.965-0.435c1.049,5.203,2.418,9.786,4.225,13.554
		L366.215,53.52z"/>
	<path fill="#FFAA00" d="M216.776,41.681c2.07-4.934,3.415-9.705,4.881-13.936l47.234-0.085c2.562,4.128,4.752,8.759,6.99,13.495
		L216.776,41.681z"/>
	<path fill="#FF8500" d="M243.134,11.919c13.098,0.381,20.288,6.922,25.756,15.741l-47.234,0.085
		C224.957,18.243,228.892,11.5,243.134,11.919z"/>
	<path fill="#FFDA00" d="M-2.564,28.145l1.056-36.328l33.472-0.39c1.506,14.027,0.486,20.763,2.416,36.653L-2.564,28.145z"/>
	<path fill="#F95AF5" d="M275.881,41.155c1.977,4.184,4.002,8.447,6.361,12.519l-72.405,0.129c3.098-4.007,5.259-8.118,6.939-12.122
		L275.881,41.155z"/>
	<path fill="#FFAA00" d="M695.613,105.662c0,0-29.963-0.839-69.719-13.724c-39.752-12.881-45.871,14.285-120.482,15.404
		c-74.605,1.118-66.658-27.728-145.549-11.201c-78.893,16.524-89.902,18.901-151.67,12.175
		c-61.772-6.716-105.801-21.28-211.605,4.483v15.599l699.025-8.452V105.662z"/>
	<path fill="#FFDA00" d="M-5.408,141.012c5.952-0.024,12.379,0.005,19.325,0.091c43.59,0.556,102.621,15.021,236.558,5.141
		c58.039-4.281,174.59-8.331,225.902-6.38c51.314,1.951,85.961,9.924,184.586,3.724c12.865-0.811,24.605-1.396,35.318-1.81v6.65
		c-9.225-0.168-19.201-0.255-29.986-0.233c-100.621,0.177-116.35-2.899-307.201,4.784c-189.25,7.622-239.223-7.442-329.853,0.533
		c-12.175,1.071-23.867,1.597-34.649,1.713V141.012z"/>
</g>
<g>
	<g>
		<path fill="#FFFFFF" d="M65.932,18.386c-20.154,0-36.493,16.336-36.493,36.492c0,20.152,16.339,36.489,36.493,36.489
			c20.152,0,36.492-16.337,36.492-36.489C102.424,34.722,86.084,18.386,65.932,18.386"/>
		<path fill="#99CC00" d="M66.275,21.261c-18.565,0-33.616,15.05-33.616,33.617c0,18.563,15.051,33.611,33.616,33.611
			c18.562,0,33.614-15.048,33.614-33.611C99.889,36.311,84.836,21.261,66.275,21.261"/>
		<path fill="#FFFFFF" d="M41.777,39.784c0.027-4.171,2.299-7.973,6.035-10.877c5.277-3.873,11.745-6.131,18.72-6.073
			c6.717,0.056,12.928,2.245,18.039,5.935c4.001,3.005,6.429,6.994,6.401,11.355c-0.029,4.93-3.196,9.34-8.213,12.37h0.004
			c-4.823,2.952-10.468,4.626-16.491,4.577c-7.18-0.056-13.786-2.557-19.077-6.721C43.78,47.453,41.75,43.773,41.777,39.784"/>
		<path fill="#0A0B1D" d="M70.845,34.018c1.24-0.68,1.472-2.511,1.473-3.087c-0.001-2.525-1.949-4.211-5.441-4.209
			c-1.305-0.002-2.757,0.163-4.782,0.588l0,0c-0.104,0.021-0.179,0.119-0.183,0.232c0.004,0.018,0.005,0.039,0.007,0.058
			c0.535,3.222,0.508,8.243,0.077,13.325c-0.005,0.018-0.007,0.035-0.007,0.056c0,0.115,0.086,0.212,0.196,0.229
			c1.253,0.274,3.728,0.523,5.107,0.523c3.306-0.004,5.788-1.818,5.782-4.43C73.078,35.661,72.341,34.665,70.845,34.018
			 M66.834,29.807c1.248,0.005,2.094,0.647,2.108,1.579c0.027,1.769-2.89,1.497-3.118,1.446l-0.021-2.895
			C65.788,29.943,65.956,29.807,66.834,29.807 M67.168,38.769c-0.484,0.003-0.924-0.04-1.348-0.146l0.003-2.953
			c0,0,0.713-0.087,1.116-0.084c1.075,0.003,2.418,0.38,2.395,1.456C69.319,37.93,69.026,38.771,67.168,38.769"/>
		<path fill="#0A0B1D" d="M53.225,28.468c-1.458,0.333-3.039,0.871-4.063,1.381c-0.003,0-0.003,0-0.007,0
			c-0.228,0.088-0.119,0.289-0.119,0.289c1.036,2.406,2.839,10.535,3.1,13.246v0.005c-0.004,0.02,0,0.037,0.006,0.061
			c0.027,0.121,0.149,0.203,0.273,0.173c0.002,0,3.414-1.038,3.414-1.038c0.13-0.027,0.208-0.15,0.182-0.276
			c-0.006-0.006-0.009-0.011-0.009-0.011c-0.016-0.071-0.038-0.16-0.071-0.299l-0.182-0.705l-0.562-2.549
			c0,0,0.877-0.18,0.939-0.194c3.695-0.847,5.651-3.649,4.977-6.6C60.408,28.918,57.293,27.532,53.225,28.468 M55.014,35.504
			c-0.271,0.063-0.575,0.088-0.571,0.087l-0.872-3.811c0,0,0.689-0.227,0.98-0.295c1.459-0.332,2.538,0.311,2.805,1.477
			C57.635,34.163,56.882,35.076,55.014,35.504"/>
		<path fill="#0A0B1D" d="M81.612,32.622c0.037,0.044,0.248,0.151,0.309,0.156c0.108,0.006,0.152-0.049,0.152-0.049v-0.002
			c0.22-0.175-0.019,0.034,1.862-2.162c0.035-0.033,0.06-0.081,0.071-0.137c0.019-0.105-0.072-0.211-0.08-0.204
			c-0.011,0.011-1.803-1.675-4.436-1.956c-3.276-0.354-5.578,1.596-5.76,4.447c-0.143,2.381,1.5,3.73,4.727,4.787
			c2.304,0.756,1.524,2.344,0.104,2.279c-0.906-0.041-2.294-0.671-3.157-1.494c0,0-0.034-0.044-0.125-0.061
			c-0.083-0.013-0.16,0.021-0.208,0.08l-1.847,2.123c0,0.003-0.049,0.08-0.064,0.131c-0.023,0.127,0.078,0.202,0.078,0.202
			c1.312,1.363,3.121,2.133,4.91,2.245c3.07,0.19,5.29-1.627,5.508-4.334c0.237-2.873-2.242-3.926-3.993-4.51
			c-1.508-0.503-2.148-0.967-2.085-1.621C77.645,31.892,78.902,30.939,81.612,32.622"/>
		<path fill="#FFFFFF" d="M88.533,57.34c1.979,0.824,4.254-0.11,5.078-2.09c0.83-1.976-0.103-4.25-2.079-5.076
			c-1.979-0.827-4.256,0.104-5.081,2.083C85.623,54.234,86.554,56.51,88.533,57.34"/>
		<path fill="#FFFFFF" d="M80.685,66.504c-0.069-1.951-1.7-3.479-3.649-3.411c-1.95,0.064-3.479,1.701-3.412,3.65
			c0.067,1.947,1.702,3.476,3.648,3.411C79.224,70.086,80.751,68.451,80.685,66.504"/>
		<path fill="#FFFFFF" d="M62.55,77.788c3.435-0.853,5.524-4.309,4.671-7.721c-0.856-3.415-4.33-5.49-7.763-4.637
			c-3.43,0.849-5.521,4.303-4.665,7.721C55.648,76.562,59.121,78.638,62.55,77.788"/>
		<path fill="#0A0B1D" d="M74.206,78.513c0.904-0.638,1.123-1.894,0.484-2.798c-0.641-0.898-1.905-1.116-2.812-0.479
			c-0.908,0.639-1.123,1.892-0.481,2.798c0.311,0.436,0.774,0.726,1.306,0.817C73.231,78.939,73.766,78.819,74.206,78.513
			 M72.525,77.236c-0.202-0.288-0.132-0.674,0.151-0.876c0.283-0.199,0.682-0.134,0.884,0.15c0.198,0.282,0.129,0.676-0.153,0.877
			c-0.139,0.094-0.306,0.133-0.473,0.105C72.768,77.462,72.624,77.373,72.525,77.236"/>
		<path fill="#0A0B1D" d="M77.429,78.775c-2.693,3.302-7.091,3.678-7.132,3.685l-0.029,0.001l-0.034,0.005
			c-5.112,0.795-9.144-1.691-9.185-1.72c-0.359-0.225-0.836-0.113-1.064,0.246c-0.23,0.36-0.119,0.841,0.237,1.069
			c0.183,0.113,4.522,2.809,10.217,1.941c0.352-0.029,5.12-0.479,8.19-4.25c0.115-0.141,0.172-0.304,0.177-0.471
			c0.002-0.23-0.097-0.463-0.288-0.617C78.188,78.391,77.699,78.442,77.429,78.775"/>
		<path fill="#0A0B1D" d="M59.273,64.677c-1.865,0.462-3.438,1.623-4.426,3.262c-0.981,1.635-1.269,3.551-0.81,5.395
			c0.959,3.824,4.857,6.154,8.699,5.206c1.866-0.466,3.439-1.622,4.43-3.267c0.982-1.631,1.267-3.549,0.804-5.396
			C67.013,66.058,63.112,63.724,59.273,64.677 M55.543,72.96c-0.362-1.441-0.138-2.939,0.631-4.221
			c0.775-1.289,2.011-2.197,3.474-2.559c3.01-0.748,6.071,1.08,6.817,4.073c0.102,0.391,0.156,0.782,0.168,1.171
			c0.037,1.064-0.236,2.117-0.796,3.046c-0.773,1.294-2.008,2.202-3.47,2.564C59.353,77.779,56.293,75.956,55.543,72.96"/>
		<path fill="#0A0B1D" d="M57.477,74.706c1.265,0.163,2.416-0.727,2.587-1.982c0.164-1.26-0.724-2.412-1.99-2.572
			c-1.263-0.164-2.424,0.724-2.587,1.979C55.323,73.391,56.211,74.542,57.477,74.706"/>
		<path fill="#0A0B1D" d="M72.929,66.762c0.081,2.326,2.042,4.157,4.365,4.074c2.327-0.078,4.156-2.032,4.076-4.361
			c-0.079-2.323-2.035-4.155-4.363-4.075C74.681,62.478,72.851,64.438,72.929,66.762 M74.188,66.722
			c-0.053-1.63,1.232-3.01,2.865-3.062c1.635-0.053,3.01,1.23,3.063,2.863c0.057,1.632-1.229,3.008-2.858,3.061
			C75.62,69.642,74.246,68.354,74.188,66.722"/>
		<path fill="#0A0B1D" d="M75.581,68.625c0.846,0.108,1.624-0.488,1.734-1.335c0.109-0.849-0.485-1.629-1.337-1.738
			c-0.849-0.11-1.625,0.489-1.738,1.335C74.133,67.735,74.733,68.513,75.581,68.625"/>
		<path fill="#0A0B1D" d="M84.666,67.116c-0.922-4.652-3.569-8.683-7.466-11.414h0.003c-0.009-0.006-0.015-0.008-0.021-0.01
			c-0.149-0.107-0.298-0.216-0.453-0.319c-0.584-0.378-1.184-0.723-1.795-1.03c-4.437-2.381-11.717-4.7-28.395,2.086l3.075,2.844
			l-6.062,2.167l4.68,3.036l-5.45,2.014l5.107,3.62c-1.69,0.861-2.868,2.591-2.91,4.618c-0.062,2.931,2.273,5.366,5.206,5.427
			c0.44,0.009,0.863-0.042,1.272-0.136c3.933,6.087,11.314,9.561,18.852,8.168c4.687-0.863,8.759-3.471,11.476-7.334
			C84.603,76.832,85.625,71.95,84.666,67.116 M50.217,78.638c-2.1-0.039-3.769-1.784-3.726-3.882
			c0.033-1.526,0.968-2.823,2.281-3.398c0.05,0.769,0.152,1.544,0.304,2.321c0.348,1.758,0.948,3.407,1.751,4.92
			C50.628,78.628,50.425,78.645,50.217,78.638 M80.46,79.98c-2.478,3.526-6.185,5.901-10.448,6.683
			c-8.998,1.662-17.763-4.28-19.545-13.24c-0.683-3.453-0.23-6.857,1.098-9.833l23.698-7.293c0.188,0.117,0.379,0.238,0.567,0.356
			c3.805,2.498,6.386,6.317,7.264,10.75C83.977,71.837,83.039,76.305,80.46,79.98"/>
		<path fill="#FFFFFF" d="M84.933,59.587c-0.601,0.985-0.291,2.271,0.687,2.864c0.979,0.607,2.257,0.3,2.864-0.683
			c0.601-0.982,0.292-2.264-0.688-2.866C86.816,58.304,85.533,58.608,84.933,59.587"/>
		<path fill="#0A0B1D" d="M64.278,50.416l0.002,0.002l-0.11-0.564l-0.078-1.044v-0.041l-0.156-3.193l-0.003-0.048l-0.013-1.025
			l0.05-0.517l-0.004-0.01c0-0.028-0.02-0.051-0.046-0.051c0,0-0.459,0.022-0.892,0.045c-0.439,0.021-0.894,0.047-0.894,0.047
			c-0.023,0-0.044,0.019-0.044,0.05h-0.002l0.002,0.01l0.098,0.507l0.086,1.025l0.003,0.049l0.152,3.194l0.003,0.038l0.026,1.05
			l-0.058,0.569c0,0.004,0,0.006,0,0.006c0,0.033,0.024,0.056,0.053,0.056l0.085-0.006l1.607-0.078l0.091-0.005
			c0.027,0,0.045-0.025,0.045-0.058c0.003-0.001-0.004-0.006-0.004-0.006"/>
		<path fill="#0A0B1D" d="M72.19,47.422c-0.078,2.085-2.026,3.263-4.003,3.19c-0.467-0.021-0.553-0.031-0.982-0.066
			c-0.428-0.036-1-0.04-1-0.04l-0.09-0.004c-0.03,0-0.048-0.026-0.048-0.056c0.001-0.004,0-0.008,0.001-0.011h-0.001l0.114-0.576
			l0.062-1.065l-0.002-0.04l0.125-3.257l0.006-0.051l0.006-1.045l-0.062-0.529l0.003-0.006c0-0.029,0.024-0.053,0.046-0.051
			c0,0,0.415,0.018,0.576,0.02c0.224,0,0.967-0.035,1.46-0.013C70.56,43.92,72.269,45.286,72.19,47.422 M68.423,45.297
			c-0.151-0.007-0.225,0.001-0.347,0.022l-0.013,0.19v0.052l-0.124,3.257v0.041l-0.008,0.349c0.118,0.024,0.22,0.042,0.33,0.049
			c1.032,0.035,2.152-0.562,2.201-1.777C70.509,46.21,69.437,45.337,68.423,45.297"/>
		<path fill="#0A0B1D" d="M61.083,50.501L58.21,47.73c0.619-0.712,1.293-1.38,2.004-1.997l0,0c0.014-0.012,0.022-0.032,0.019-0.048
			c-0.003-0.015-0.014-0.028-0.02-0.035l-1.148-1.144c-0.015-0.011-0.028-0.016-0.041-0.014c-0.008,0.003-0.017,0.003-0.021,0.009
			c0,0,0-0.001-0.003,0c-1.1,0.968-2.147,2.101-3.034,3.284l-0.219-1.224l-0.006-0.045l-0.151-1.015l-0.013-0.52l-0.004-0.01
			c-0.01-0.027-0.029-0.049-0.055-0.044c0,0-0.45,0.08-0.879,0.162c-0.434,0.079-0.883,0.156-0.883,0.156
			c-0.024,0.007-0.038,0.031-0.035,0.06v0.008l0.165,0.496l0.215,1l0.009,0.047l0.568,3.148l0.013,0.038l0.156,1.031l0.019,0.581
			l0,0c0,0,0,0.003,0,0.005c0.006,0.031,0.032,0.051,0.054,0.043v0.001l0.092-0.013l1.579-0.286l0.09-0.017
			c0.03-0.008,0.047-0.033,0.038-0.058c0.003-0.008-0.002-0.008-0.002-0.015h0.002l-0.185-0.542l-0.125-0.61l0.013-0.039
			c0.252-0.398,0.519-0.786,0.796-1.162l1.89,1.962v-0.005c0.009,0.015,0.026,0.023,0.042,0.022c0.002,0,0.002-0.002,0.004-0.005
			v0.003l1.908-0.345v-0.001c0.006-0.004,0.006,0,0.006,0c0.026-0.004,0.043-0.037,0.041-0.062
			C61.103,50.519,61.093,50.509,61.083,50.501"/>
		<path fill="#0A0B1D" d="M79.089,49.693c0.391-2.871-3.887-2.379-3.755-3.31c0.081-0.612,1.801-0.799,3.038,0.595v0.001
			c0.014,0.006,0.019,0.012,0.031,0.016c0.018,0,0.033-0.008,0.046-0.022l0,0c0.18-0.189,0.855-0.938,0.996-1.101
			c0,0,0.006,0,0.002-0.006c0.007-0.007,0.008-0.016,0.012-0.023c0-0.014,0-0.027-0.005-0.038h0.001c0,0-0.001,0-0.004-0.003
			c-0.002,0,0-0.002-0.002-0.002c-0.991-1.658-5.497-2.403-5.875,0.37c-0.373,2.684,4.025,2.55,3.815,3.397
			c-0.195,0.783-2.423,0.605-3.316-0.84c-0.01-0.016-0.024-0.023-0.037-0.024c-0.011,0-0.026,0-0.04,0.01
			c-0.202,0.163-0.992,0.834-1.177,1.001c-0.008,0.005-0.005,0.007-0.011,0.012c-0.007,0.006-0.011,0.015-0.013,0.025
			c0,0.02,0,0.031,0.009,0.046l0,0C74.557,52.34,78.702,52.495,79.089,49.693"/>
	</g>
	<path fill="#FFFFFF" d="M143.31,69.816l-10.429,0.36l-4.06-13.411l-4.698,13.171l-10.358-0.077l-7.725-34.077l10.216-0.318
		l3.987,15.959l5.98-16.078h5.766l5.518,16.195l4.629-16.514l9.858,0.838L143.31,69.816z"/>
	<path fill="#FFFFFF" d="M198.276,68.027l-5.255-8.272c-0.712,0.024-1.527,0.019-2.097,0l0.387,8.19l-9.615,0.226l-1.48-27.613
		c3.292-0.256,8.289-0.57,13.362-0.743c7.946-0.274,12.542,3.296,12.761,9.681c0.139,4.008-1.698,6.346-4.207,7.782l6.99,9.132
		L198.276,68.027z M193.368,47.138c-1.03,0.033-2.373,0.152-3.295,0.218l0.429,6.308c1.03,0,2.238-0.008,3.335-0.08
		c2.234-0.147,3.404-1.218,3.334-3.275C197.101,48.321,195.708,47.056,193.368,47.138z"/>
	<path fill="#FFFFFF" d="M231.102,72.821l-18.397,0.422l-1.744-31.399l10.432-0.107l1.709,23.78l8.225-0.493L231.102,72.821z"/>
	<path fill="#FFFFFF" d="M245.822,67.925c-3.742,0-9.09-0.139-11.328-0.244l-0.312-26.845h11.184c9.752,0,15.59,4.474,15.59,14.191
		C260.955,64.044,255.223,67.925,245.822,67.925z M246.52,49.048c-1.26,0-2.166,0.038-2.936,0.105l0.244,10.697
		c0.943,0.07,1.746,0.141,2.9,0.141c3.146,0,4.896-2.168,4.896-5.313C251.625,51.321,249.736,49.048,246.52,49.048z"/>
	<path fill="#FFFFFF" d="M164.776,44.825c-8.1-0.043-13.561,5.33-13.598,12.508c-0.041,7.78,5.014,12.985,13.082,13.028
		c8.861,0.045,13.719-5.106,13.758-13.111C178.057,49.912,173.096,44.868,164.776,44.825z M165.549,59.886l1.213,4.154l-4.298,0.175
		l1.269-4.29c-1.762-0.34-2.852-1.771-2.842-3.693c0.01-2.204,1.456-3.746,3.705-3.735c2.18,0.013,3.63,1.501,3.619,3.749
		C168.206,58.062,167.238,59.489,165.549,59.886z"/>
</g>
<ellipse fill="#FF8500" cx="329.945" cy="111.678" rx="21.774" ry="4.248"/>
<g>
	<circle fill="#75EFF9" cx="344.201" cy="90.544" r="11.532"/>
	<path d="M336.456,92.207c0,0-0.145,11.492-0.854,17.535l-1.578-0.174c0,0,1.058-13.894,0.813-18.317L336.456,92.207z"/>
	<path d="M322.316,110.218c1.502-5.828,2.487-16.32,2.691-17.378l1.791-0.623c0,0-2.026,15.254-2.677,17.638L322.316,110.218z"/>
	<path d="M334.024,109.568c0,0,2.458-2.748,5.247,0.492C339.271,110.061,337.03,112.01,334.024,109.568z"/>
	<path d="M322.054,110.229c0,0,2.46-2.746,5.248,0.494C327.302,110.724,325.063,112.674,322.054,110.229z"/>
	<path fill="#FFFFFF" d="M333.222,62.108c0,0,2.715,11.335,3.234,30.099l-11.448,0.633c0,0,0.667-25.614-0.922-30.746
		L333.222,62.108z"/>
	<g>
		<defs>
			<path id="SVGID_2_" d="M333.222,62.108c0,0,2.715,11.335,3.234,30.099l-11.448,0.633c0,0,0.667-25.614-0.922-30.746
				L333.222,62.108z"/>
		</defs>
		<clipPath id="SVGID_3_">
			<use xlink:href="#SVGID_2_"  overflow="visible"/>
		</clipPath>
		<polygon clip-path="url(#SVGID_3_)" points="322.212,88.771 338.698,88.886 339.515,95.783 321.397,96.914 		"/>
	</g>
	<path fill="#FFFFFF" d="M335.594,65.056l-2.117,0.237c0,0,1.924,2.814,3.616,6.532l2.15-0.379
		C338.351,69.467,337.174,67.303,335.594,65.056z"/>
	<path fill="#75EFF9" d="M337.093,71.825c1.322,2.909,2.501,6.37,2.501,9.469h2.353c0,0-0.135-4.148-2.703-9.848L337.093,71.825z"/>
	<circle fill="#75EFF9" cx="314.063" cy="90.544" r="11.532"/>
	<path fill="#FFFFFF" d="M322.671,65.056l2.12,0.237c0,0-1.927,2.814-3.62,6.532l-2.151-0.379
		C319.912,69.467,321.091,67.303,322.671,65.056z"/>
	<path fill="#75EFF9" d="M321.171,71.825c-1.321,2.909-2.502,6.37-2.502,9.469h-2.353c0,0,0.137-4.148,2.703-9.848L321.171,71.825z"
		/>
	<ellipse fill="#75EFF9" cx="328.481" cy="39.385" rx="28.322" ry="26.395"/>
	<path d="M334.673,50.754c0,0.471-0.406,0.854-0.911,0.854c-0.506,0-0.914-0.383-0.914-0.854c0-0.469,0.408-0.85,0.914-0.85
		C334.267,49.904,334.673,50.285,334.673,50.754z"/>
	<ellipse fill="#FFFFFF" cx="316.301" cy="39.588" rx="11.575" ry="12.441"/>
	<path fill="#FFFFFF" d="M353.521,26.931c-1.707-1.183-3.729-1.878-5.903-1.878c-6.081,0-11.017,5.371-11.017,11.998
		c0,6.627,4.936,11.999,11.017,11.999c3.695,0,6.958-1.987,8.957-5.031c0.216-1.356,0.332-2.744,0.332-4.161
		C356.907,35.196,355.679,30.801,353.521,26.931z"/>
	<path fill="none" stroke="#000000" stroke-width="2" stroke-linecap="round" stroke-linejoin="round" stroke-miterlimit="10" d="
		M329.804,57.457c0,0,4.263,2.232,7.712-1.829"/>
	<ellipse fill="#00C3F7" cx="316.707" cy="39.486" rx="3.777" ry="4.362"/>
	<ellipse fill="#00C3F7" cx="347.177" cy="36.814" rx="3.776" ry="4.362"/>
	<path fill="#75EFF9" d="M300.77,40.604c0,0-6.09-2.842-6.499,3.249c-0.403,6.089,3.454,9.744,9.544,5.682
		C309.905,45.477,300.77,40.604,300.77,40.604z"/>
	<path d="M309.346,19.58c0,0,16.307,10.69,33.144,2.672l-5.078-2.94l6.147-2.405C343.559,16.906,326.988,5.946,309.346,19.58z"/>
</g>
</svg>
