<?xml version="1.0" encoding="utf-8"?>
<!-- Generator: Adobe Illustrator 14.0.0, SVG Export Plug-In . SVG Version: 6.00 Build 43363)  -->
<!DOCTYPE svg PUBLIC "-//W3C//DTD SVG 1.1//EN" "http://www.w3.org/Graphics/SVG/1.1/DTD/svg11.dtd">
<svg version="1.1" id="Layer_1" xmlns="http://www.w3.org/2000/svg" xmlns:xlink="http://www.w3.org/1999/xlink" x="0px" y="0px"
	 width="342px" height="589px" viewBox="0 0 342 589" enable-background="new 0 0 342 589" xml:space="preserve">
<rect fill="#FFFFFF" width="342" height="589"/>
<rect x="11" y="10" fill="#FFBC00" width="320" height="549"/>
<g>
	<g>
		<defs>
			<rect id="SVGID_1_" x="11" y="10" width="320" height="569"/>
		</defs>
		<clipPath id="SVGID_2_">
			<use xlink:href="#SVGID_1_"  overflow="visible"/>
		</clipPath>
		<g clip-path="url(#SVGID_2_)">
			
				<linearGradient id="SVGID_3_" gradientUnits="userSpaceOnUse" x1="265.9648" y1="225.4214" x2="265.9648" y2="565.0015" gradientTransform="matrix(-1 0 0 -1 63.4375 667)">
				<stop  offset="0" style="stop-color:#FFE000;stop-opacity:0"/>
				<stop  offset="0.1682" style="stop-color:#FFCE00;stop-opacity:0.1682"/>
				<stop  offset="0.383" style="stop-color:#FFBF00;stop-opacity:0.383"/>
				<stop  offset="0.6333" style="stop-color:#FFB600;stop-opacity:0.6333"/>
				<stop  offset="1" style="stop-color:#FFB300"/>
			</linearGradient>
			<path fill="url(#SVGID_3_)" d="M-72.916,437.27l-259.222,4.31V293.126c7.259,1.185,15.827,1.309,26.033,0.042
				c84.099-10.454,15.29-196.285,65.749-191.06c50.464,5.223,2.295,177.615,52.756,176.874c50.458-0.749,9.176-89.592,57.342-88.102
				c48.165,1.494,2.293,94.072,56.577,97.804c0.251,0.016,0.51,0.022,0.765,0.036V437.27L-72.916,437.27z"/>
			<path fill="#FFAA00" d="M-384.775,124.82c114.215,0-35.759,191.581,172.815,185.76C-3.391,304.758-87.811,201.953-21.274,203.901
				c66.546,1.934,31.485,115.271,140.044,96.979c73.567-12.396,29.458-90.207,86.535-90.207c57.064,0,24.644,71.329,67.412,71.784
				c65.553,0.698,11.91-101.385,74.483-99.446c62.571,1.94,2.981,107.205,73.497,112.048c70.517,4.851,89.383-95.037,89.383-95.037
				h139.05l2.782,398.643L-389.544,599L-384.775,124.82z"/>
			<path fill="none" d="M272.717,282.458c-6.333,0.089-11.475-2.104-15.646-6.142l36.629-0.224
				C288.562,279.988,281.779,282.312,272.717,282.458z"/>
			<path fill="#FFAA00" d="M495.014,243.316l155.144-1.38l0.566,23.103l-169.351,0.298
				C486.795,258.349,491.303,250.754,495.014,243.316z"/>
			<path fill="#F95AF5" d="M-384.775,124.82c36.037,0,45.776,20.568,48.766,48.538l-49.887,0.581L-384.775,124.82z"/>
			<path fill="#FF8500" d="M502.297,226.494l147.477-0.265l0.384,15.707l-155.144,1.38
				C497.906,237.501,500.317,231.78,502.297,226.494z"/>
			<path fill="#FFAA00" d="M249.875,265.752c1.998,4.273,4.385,7.844,7.195,10.564l-99.301,0.608
				c2.292-3.393,4.326-7.081,6.129-11.021L249.875,265.752z"/>
			<path fill="#FFAA00" d="M347.2,183.012c30.028,0.928,31.921,14.107,33.563,43.699l-69.937,0.123
				C313.575,197.212,314.938,182.009,347.2,183.012z"/>
			<path fill="#FF8500" d="M-388.666,280.291l76.141-0.477c16.765,19.612,46.711,32.264,100.565,30.766
				c71.677-1.999,108.753-15.456,129.239-32.176l127.454-0.778c13.257,16.693,33.825,28.253,74.036,23.255
				c17.729-2.203,30.225-10.926,39-23.956l99.301-0.608c4.172,4.037,9.312,6.23,15.646,6.142c9.062-0.146,15.848-2.47,20.982-6.365
				l95.54-0.585c5.471,10.882,14.859,18.416,31.458,19.552c22.143,1.522,39.187-7.282,52.161-20.069l178.077-1.101l1.024,67.646
				l-1041.746,13.767L-388.666,280.291z"/>
			<path fill="#F95AF5" d="M481.373,265.337l169.351-0.298l0.212,8.85l-178.076,1.101
				C475.922,271.968,478.749,268.719,481.373,265.337z"/>
			<path fill="#FF8500" d="M308.643,244.972c0.981-5.829,1.616-11.969,2.187-18.138l69.937-0.123
				c0.321,5.88,0.646,11.814,1.166,17.612L308.643,244.972z"/>
			<path fill="#FFAA00" d="M-312.525,279.814l-76.141,0.477l0.303-13.401l67.001-0.122
				C-318.924,271.375-316.016,275.748-312.525,279.814z"/>
			<path fill="#FF8500" d="M-321.362,266.768l-67.001,0.122l0.361-15.714l60.128-0.533
				C-326.199,256.247-324.074,261.652-321.362,266.768z"/>
			<path fill="#FFAA00" d="M-327.874,250.643l-60.128,0.533l0.531-23.092l55.061-0.096
				C-331.471,235.748-330.046,243.362-327.874,250.643z"/>
			<path fill="#FFAA00" d="M302.312,265.658c3.154-5.927,5.049-13.04,6.33-20.687l73.287-0.648c0.67,7.448,1.691,14.66,3.525,21.192
				L302.312,265.658z"/>
			<path fill="#F95AF5" d="M302.312,265.658l83.144-0.143c0.998,3.544,2.231,6.9,3.784,9.992l-95.54,0.585
				C297.322,273.329,300.127,269.78,302.312,265.658z"/>
			<path fill="#FFAA00" d="M-70.9,266.326l107.914-0.193c2.314,3.994,4.846,7.861,7.72,11.493l-127.454,0.778
				C-77.957,274.517-74.1,270.46-70.9,266.326z"/>
			<path fill="#FF8500" d="M162.17,265.904c2.824-6.022,5.104-12.64,6.94-19.705l74.468-0.648
				c1.564,7.755,3.604,14.587,6.297,20.201L162.17,265.904z"/>
			<path fill="#FFAA00" d="M-60.559,248.258c3.084-7.353,5.09-14.465,7.273-20.77l70.399-0.127
				c3.819,6.153,7.081,13.054,10.42,20.114L-60.559,248.258z"/>
			<path fill="#FF8500" d="M-21.274,203.901c19.521,0.566,30.238,10.315,38.389,23.46l-70.399,0.127
				C-48.366,213.326-42.502,203.276-21.274,203.901z"/>
			<path fill="#FFDA00" d="M-387.471,228.084l1.574-54.145l49.887-0.581c2.244,20.907,0.725,30.945,3.6,54.63L-387.471,228.084z"/>
			<path fill="#F95AF5" d="M27.534,247.476c2.945,6.235,5.962,12.59,9.479,18.657L-70.9,266.326
				c4.616-5.974,7.838-12.101,10.342-18.068L27.534,247.476z"/>
			<path fill="#FFAA00" d="M653.113,343.619c0,0-44.656-1.252-103.908-20.455c-59.248-19.198-68.367,21.291-179.57,22.958
				c-111.195,1.668-99.352-41.325-216.931-16.693C35.119,354.057,18.709,357.6-73.352,347.574
				c-92.066-10.01-157.689-31.717-315.382,6.682v23.25l1041.847-12.598V343.619L653.113,343.619z"/>
			<path fill="#FFDA00" d="M-391.709,396.305c8.871-0.036,18.45,0.006,28.803,0.136c64.968,0.826,152.949,22.39,352.572,7.661
				c86.504-6.381,260.215-12.418,336.693-9.509c76.479,2.907,128.118,14.79,275.11,5.55c19.177-1.208,36.674-2.082,52.642-2.695
				v9.911c-13.75-0.25-28.619-0.38-44.693-0.349c-149.968,0.265-173.41-4.32-457.861,7.13
				c-282.064,11.36-356.545-11.092-491.624,0.794c-18.146,1.599-35.571,2.382-51.642,2.556V396.305z"/>
		</g>
	</g>
</g>
<g>
	<rect x="64.605" y="430.332" fill="none" width="210.334" height="65.668"/>
	<g enable-background="new    ">
		<path fill="#FFFFFF" d="M88.743,451.422c-0.96,0.6-3.15,1.829-4.92,1.829c-5.61,0-10.919-3.329-10.919-11.339
			c0-5.76,4.65-10.14,9.18-10.14c2.19,0,4.14,0.21,6.36,0.75c-0.12,0.93-1.05,4.859-1.05,4.859l-0.9-0.3
			c-0.96-0.3-2.25-0.69-3.3-0.54c-2.55,0.42-4.89,2.04-4.89,5.34c0,2.91,1.8,4.83,3.84,5.46c1.59,0.479,3.36-0.09,4.59-0.721
			L88.743,451.422z"/>
		<path fill="#FFFFFF" d="M102.902,453.762c-0.48-0.511-1.44-1.62-2.28-3.12c-0.93-1.59-1.83-3.63-2.43-5.04l-1.47-0.09
			c0.03,2.28,0.15,5.22,0.42,7.199l-5.459,0.24c-0.24-3-0.33-10.68-0.39-14.939c-0.03-1.14,0.06-4.26,0.09-5.67
			c1.65,0,4.74-0.09,6.87-0.21c0.66-0.029,1.83-0.06,2.43-0.06c4.47,0,6.18,3.93,6.18,6.149c0,3.15-1.44,5.73-3.63,6.66l-0.36,0.149
			c0.33,0.75,0.81,1.801,1.26,2.7c0.72,1.38,1.95,3.27,3.42,4.59C106.292,452.861,103.743,453.491,102.902,453.762z M99.603,436.302
			c-0.99-0.09-2.07,0-3.06,0.03c0,0,0.03,4.47,0.18,5.189c0.9,0.33,2.04,0.181,2.49,0.15c1.47-0.09,2.4-1.08,2.4-2.58
			C101.613,438.792,101.373,436.482,99.603,436.302z"/>
		<path fill="#FFFFFF" d="M123.542,452.951c-1.709-0.03-6.569-0.09-8.25-0.06l-5.4,0.09c0.03-1.11,0.06-3.36,0-6.21
			c-0.06-3.689-0.03-9.449-0.12-14.43c4.59-0.149,9.06-0.239,13.619-0.239v4.8c-0.99-0.061-3.96-0.12-4.86-0.091
			c-1.02,0.061-3.75,0.15-3.75,0.15l0.06,3.36c0,0,2.52-0.181,3.3-0.24c0.54-0.03,1.5-0.09,2.13-0.061l0.21,4.2
			c-1.05,0.27-3.6,0.33-5.19,0.3v3.061c2.94,0.239,5.55,0.149,8.43-0.36C123.723,448.722,123.723,450.701,123.542,452.951z"/>
		<path fill="#FFFFFF" d="M138.573,453.371c-0.12-1.5-0.39-2.58-0.75-4.05l-6.51-0.06c0,0-0.96,3.51-1.11,4.26l-5.13-1.11
			l3.33-9.419c1.05-3,3.24-9.09,3.84-10.8c1.14,0,3.96,0,5.43,0.06c1.62,4.95,4.74,14.46,6.509,20.34
			C142.322,452.921,140.433,453.071,138.573,453.371z M137.223,444.912l-2.13-8.64l-2.91,8.64H137.223z"/>
		<path fill="#FFFFFF" d="M161.342,437.082c-2.25,0.09-4.47,0.12-6.72,0.18c0.09,5.22,0.03,10.41,0.18,15.6l-6.51,0.24
			c0.48-5.25,0.93-10.5,1.2-15.779c-2.49,0-4.11-0.061-6.6-0.15c0.09-1.05,0.27-3.359,0.51-5.13c2.91,0.15,5.55,0.181,8.459,0.181
			c3.24,0,6.209-0.15,9.479-0.271V437.082z"/>
		<path fill="#FFFFFF" d="M177.482,452.951c-1.71-0.03-6.57-0.09-8.25-0.06l-5.4,0.09c0.03-1.11,0.06-3.36,0-6.21
			c-0.06-3.689-0.03-9.449-0.12-14.43c4.59-0.149,9.06-0.239,13.619-0.239v4.8c-0.99-0.061-3.96-0.12-4.859-0.091
			c-1.021,0.061-3.75,0.15-3.75,0.15l0.06,3.36c0,0,2.52-0.181,3.299-0.24c0.541-0.03,1.5-0.09,2.131-0.061l0.209,4.2
			c-1.05,0.27-3.6,0.33-5.189,0.3v3.061c2.939,0.239,5.55,0.149,8.43-0.36C177.662,448.722,177.662,450.701,177.482,452.951z"/>
		<path fill="#FFFFFF" d="M199.562,452.892c-0.811,0.029-2.01,0.09-2.431,0.09c-0.479,0-1.89-0.061-2.85-0.09l0.271-7.44
			c-0.57-1.529-2.551-5.039-3.36-6.689l-3.239-6.539c0.479-0.03,4.409-0.15,5.699-0.12c0.811,3.149,2.76,7.199,3.39,8.759
			c0.899-2.55,3.36-8.819,3.36-8.819c0.869,0.061,5.069,0.061,5.67,0.15c-0.66,1.29-2.7,5.369-3.301,6.51l-3.39,6.659
			L199.562,452.892z"/>
		<path fill="#FFFFFF" d="M216.723,453.131c-5.49,0-8.4-4.68-8.4-9.869c0-6.93,4.02-11.46,9.689-11.46c6.36,0,8.73,4.681,8.73,11.19
			C226.742,448.901,223.412,453.131,216.723,453.131z M217.592,436.662c-1.979,0.12-3.449,1.74-3.719,4.859
			c-0.361,3.87,1.529,5.64,3.569,5.73c2.579,0.119,3.63-2.761,3.63-5.28C221.072,439.842,219.842,436.512,217.592,436.662z"/>
		<path fill="#FFFFFF" d="M245.611,432.042c0.03,4.56,0.15,8.7-0.119,13.59c-0.24,4.229-4.86,7.56-8.79,7.56
			c-5.489,0-7.649-2.94-7.649-8.1c0-4.23,0.209-8.58,0-12.81c1.5-0.06,2.97-0.15,4.47-0.15h1.29v0.57c0,2.91-0.24,5.88-0.24,8.819
			c0,1.891-0.63,5.97,2.189,5.97c3.12,0,3.15-4.35,3.15-7.26c0-2.64-0.21-5.34-0.33-7.979L245.611,432.042z"/>
		<path fill="#FFFFFF" d="M260.162,453.762c-0.48-0.511-1.44-1.62-2.28-3.12c-0.93-1.59-1.83-3.63-2.43-5.04l-1.47-0.09
			c0.029,2.28,0.149,5.22,0.42,7.199l-5.46,0.24c-0.24-3-0.33-10.68-0.39-14.939c-0.03-1.14,0.06-4.26,0.09-5.67
			c1.649,0,4.739-0.09,6.869-0.21c0.66-0.029,1.83-0.06,2.43-0.06c4.471,0,6.18,3.93,6.18,6.149c0,3.15-1.439,5.73-3.629,6.66
			l-0.36,0.149c0.33,0.75,0.81,1.801,1.26,2.7c0.72,1.38,1.95,3.27,3.42,4.59C263.552,452.861,261.002,453.491,260.162,453.762z
			 M256.861,436.302c-0.989-0.09-2.069,0-3.059,0.03c0,0,0.029,4.47,0.18,5.189c0.899,0.33,2.039,0.181,2.49,0.15
			c1.469-0.09,2.399-1.08,2.399-2.58C258.872,438.792,258.632,436.482,256.861,436.302z"/>
	</g>
	<g enable-background="new    ">
		<path fill="#FFFFFF" d="M90.963,481.371c-0.12-1.5-0.39-2.58-0.75-4.05l-6.51-0.06c0,0-0.96,3.51-1.11,4.26l-5.13-1.11l3.33-9.419
			c1.05-3,3.24-9.09,3.84-10.8c1.14,0,3.96,0,5.43,0.06c1.62,4.95,4.74,14.46,6.509,20.34
			C94.712,480.921,92.823,481.071,90.963,481.371z M89.613,472.912l-2.13-8.64l-2.91,8.64H89.613z"/>
		<path fill="#FFFFFF" d="M110.703,470.512l-3.36,10.38c-0.78,0.149-2.49,0.149-3.39,0.18c-0.75,0.03-1.59-0.06-2.13-0.12
			c-0.51-2.22-2.37-7.68-3.27-10.35l-3.42-10.289c0.51-0.061,4.65-0.24,6-0.181c0.12,0.721,0.3,1.92,0.39,2.34
			c0.87,4.141,1.62,7.8,3.06,12.66c1.44-6.3,2.67-9.72,3.42-13.89c0.06-0.36,0.12-0.81,0.15-1.2c0.93,0.061,5.37,0.061,6,0.24
			C113.462,462.292,111.303,468.682,110.703,470.512z"/>
		<path fill="#FFFFFF" d="M125.133,481.371c-0.12-1.5-0.39-2.58-0.75-4.05l-6.51-0.06c0,0-0.96,3.51-1.11,4.26l-5.13-1.11
			l3.33-9.419c1.05-3,3.24-9.09,3.84-10.8c1.14,0,3.96,0,5.43,0.06c1.62,4.95,4.74,14.46,6.509,20.34
			C128.882,480.921,126.993,481.071,125.133,481.371z M123.783,472.912l-2.13-8.64l-2.91,8.64H123.783z"/>
		<path fill="#FFFFFF" d="M147.902,465.082c-2.25,0.09-4.47,0.12-6.72,0.18c0.09,5.22,0.03,10.41,0.18,15.6l-6.51,0.24
			c0.48-5.25,0.93-10.5,1.2-15.779c-2.49,0-4.11-0.061-6.6-0.15c0.09-1.05,0.27-3.359,0.51-5.13c2.91,0.15,5.55,0.181,8.459,0.181
			c3.24,0,6.209-0.15,9.479-0.271V465.082z"/>
		<path fill="#FFFFFF" d="M160.083,481.371c-0.12-1.5-0.39-2.58-0.75-4.05l-6.51-0.06c0,0-0.96,3.51-1.11,4.26l-5.13-1.11
			l3.33-9.419c1.05-3,3.24-9.09,3.84-10.8c1.14,0,3.96,0,5.43,0.06c1.62,4.95,4.74,14.46,6.51,20.34
			C163.832,480.921,161.942,481.071,160.083,481.371z M158.732,472.912l-2.13-8.64l-2.91,8.64H158.732z"/>
		<path fill="#FFFFFF" d="M179.162,481.762c-0.48-0.511-1.44-1.62-2.28-3.12c-0.93-1.59-1.83-3.63-2.43-5.04l-1.47-0.09
			c0.029,2.28,0.149,5.22,0.42,7.199l-5.46,0.24c-0.24-3-0.33-10.68-0.39-14.939c-0.03-1.14,0.06-4.26,0.09-5.67
			c1.65,0,4.741-0.09,6.87-0.21c0.66-0.029,1.83-0.06,2.43-0.06c4.471,0,6.18,3.93,6.18,6.149c0,3.15-1.439,5.73-3.629,6.66
			l-0.36,0.149c0.33,0.75,0.81,1.801,1.26,2.7c0.72,1.38,1.95,3.27,3.42,4.59C182.552,480.861,180.002,481.491,179.162,481.762z
			 M175.861,464.302c-0.989-0.09-2.069,0-3.059,0.03c0,0,0.029,4.47,0.18,5.189c0.899,0.33,2.039,0.181,2.49,0.15
			c1.469-0.09,2.399-1.08,2.399-2.58C177.872,466.792,177.632,464.482,175.861,464.302z"/>
		<path fill="#FFFFFF" d="M206.432,481.371c-0.119-1.5-0.39-2.58-0.75-4.05l-6.51-0.06c0,0-0.959,3.51-1.109,4.26l-5.13-1.11
			l3.329-9.419c1.051-3,3.24-9.09,3.84-10.8c1.141,0,3.961,0,5.43,0.06c1.621,4.95,4.74,14.46,6.51,20.34
			C210.182,480.921,208.292,481.071,206.432,481.371z M205.082,472.912l-2.13-8.64l-2.91,8.64H205.082z"/>
		<path fill="#FFFFFF" d="M232.291,459.952c-0.061,0.48-0.09,0.93-0.119,1.41c-0.061,0.87-0.48,9.209-0.541,12.359
			c-0.06,2.46-0.09,5.7-0.09,6.96c-0.54,0.18-1.38,0.39-1.8,0.449l-1.53,0.24l-1.229-2.069c-0.69-1.17-4.5-6.3-7.2-10.08
			c0,0,0.271,5.31,0.301,6.27c0.029,0.9,0.149,3.51,0.149,4.26v0.87c-1.47,0.09-4.56,0.271-5.97,0.33
			c0.061-2.31,0.24-9.51,0.21-10.919l-0.18-9.21c0.54-0.12,1.47-0.33,2.19-0.42l2.879-0.3c0.631,0.899,2.37,3.329,2.67,3.81
			c0.631,0.99,4.381,5.64,4.381,5.64s0.119-6.21,0.119-7.319c0-0.75,0-1.44-0.061-2.01L232.291,459.952z"/>
		<path fill="#FFFFFF" d="M239.371,481.102c-1.17,0-2.729-0.03-3.869-0.15c0.119-2.31,0.15-4.59,0.15-6.899
			c0-4.71-0.091-9.18-0.211-13.89c1.23-0.12,2.82-0.18,4.051-0.18c7.289,0,11.849,3.119,11.849,10.739
			C251.341,477.441,245.342,481.102,239.371,481.102z M241.621,465.502c-0.27,0-0.539,0.03-0.779,0.06l0.09,9.69
			c3.15,0,5.22-1.801,5.22-5.07C246.151,467.032,244.832,465.502,241.621,465.502z"/>
	</g>
</g>
<g>
	<rect x="41.605" y="540.765" fill="#00A0D1" width="263.334" height="11.235"/>
	<rect x="41.605" y="495.417" fill="#00C3F7" width="263.334" height="49.295"/>
	<g>
		<rect x="54.271" y="508.666" fill="none" width="233.334" height="24.334"/>
		<g enable-background="new    ">
			<path fill="#FFFFFF" d="M72.959,516.076c-1.98-0.811-3.33-1.2-5.49-1.2c-1.02,0-2.79,0.09-2.79,1.41
				c0,2.699,9.12,3.449,9.12,9.359c0,3.93-3.78,5.85-7.23,5.85c-2.55,0-5.58-0.3-7.979-1.14l0.81-4.92c1.59,0.6,3.21,1.29,4.92,1.29
				c0.87,0,2.91-0.09,2.91-1.26c0-2.28-8.31-3.18-8.31-8.85c0-4.68,4.05-6.51,8.16-6.51c2.22,0,4.77,0.479,6.81,1.38L72.959,516.076
				z"/>
			<path fill="#FFFFFF" d="M93.929,515.416c-2.25,0.09-4.47,0.12-6.72,0.18c0.09,5.22,0.03,10.41,0.18,15.6l-6.51,0.24
				c0.48-5.25,0.93-10.5,1.2-15.779c-2.49,0-4.11-0.061-6.6-0.15c0.09-1.05,0.27-3.359,0.51-5.13c2.91,0.15,5.549,0.181,8.459,0.181
				c3.24,0,6.21-0.15,9.479-0.271V515.416z"/>
			<path fill="#FFFFFF" d="M106.109,531.705c-0.12-1.5-0.39-2.58-0.75-4.05l-6.51-0.06c0,0-0.96,3.51-1.11,4.26l-5.13-1.11
				l3.33-9.419c1.05-3,3.24-9.09,3.84-10.8c1.14,0,3.96,0,5.43,0.06c1.62,4.95,4.74,14.46,6.509,20.34
				C109.858,531.255,107.969,531.405,106.109,531.705z M104.759,523.246l-2.13-8.64l-2.91,8.64H104.759z"/>
			<path fill="#FFFFFF" d="M125.188,532.096c-0.48-0.511-1.44-1.62-2.28-3.12c-0.93-1.59-1.83-3.63-2.43-5.04l-1.47-0.09
				c0.03,2.28,0.15,5.22,0.42,7.199l-5.459,0.24c-0.24-3-0.33-10.68-0.39-14.939c-0.03-1.14,0.06-4.26,0.09-5.67
				c1.65,0,4.74-0.09,6.87-0.21c0.66-0.029,1.83-0.06,2.43-0.06c4.47,0,6.18,3.93,6.18,6.149c0,3.15-1.44,5.73-3.63,6.66
				l-0.36,0.149c0.33,0.75,0.81,1.801,1.26,2.7c0.72,1.38,1.95,3.27,3.42,4.59C128.579,531.195,126.029,531.825,125.188,532.096z
				 M121.889,514.636c-0.99-0.09-2.07,0-3.06,0.03c0,0,0.03,4.47,0.18,5.189c0.9,0.33,2.04,0.181,2.49,0.15
				c1.47-0.09,2.4-1.08,2.4-2.58C123.899,517.126,123.659,514.816,121.889,514.636z"/>
			<path fill="#FFFFFF" d="M149.308,515.416c-2.25,0.09-4.47,0.12-6.72,0.18c0.09,5.22,0.03,10.41,0.18,15.6l-6.51,0.24
				c0.48-5.25,0.93-10.5,1.2-15.779c-2.49,0-4.11-0.061-6.6-0.15c0.09-1.05,0.27-3.359,0.51-5.13c2.91,0.15,5.55,0.181,8.459,0.181
				c3.24,0,6.209-0.15,9.479-0.271V515.416z"/>
			<path fill="#FFFFFF" d="M167.249,525.016c-0.93,0-1.89-0.09-2.82-0.3c0.03,2.159,0.06,4.319,0.3,6.479
				c-1.44,0.21-2.88,0.3-4.35,0.27l-0.72-0.029c-0.12-2.641-0.15-5.28-0.15-7.95c0-4.319,0.12-8.64,0.27-12.989
				c2.73,0,5.46-0.18,8.19-0.18c3.84,0,6.75,2.67,6.75,6.569C174.719,521.716,172.139,525.016,167.249,525.016z M166.918,514.546
				c-0.81,0-1.62,0.12-2.4,0.15l-0.09,5.819c0.69,0.271,1.44,0.3,2.19,0.3c2.25,0,3.24-0.989,3.24-3.329
				C169.858,515.536,168.838,514.546,166.918,514.546z"/>
			<path fill="#FFFFFF" d="M190.408,527.506l-0.18,3.81c-1.381-0.09-2.73-0.21-4.11-0.21c-1.44,0-7.59,0.12-9.659,0.21
				c0.119-2.73,0.149-7.68,0.209-10.62c0.061-3.39,0.031-7.26-0.029-10.169l5.76-0.12l-0.15,2.88c-0.09,1.71-0.3,6.42-0.33,7.59
				c-0.029,1.14,0,4.529,0,4.529s3.45-0.33,4.92-0.39c0.96-0.03,2.641-0.12,3.6-0.15
				C190.438,525.796,190.438,526.756,190.408,527.506z"/>
			<path fill="#FFFFFF" d="M205.258,531.705c-0.12-1.5-0.391-2.58-0.75-4.05l-6.51-0.06c0,0-0.96,3.51-1.109,4.26l-5.131-1.11
				l3.33-9.419c1.051-3,3.24-9.09,3.84-10.8c1.141,0,3.96,0,5.43,0.06c1.62,4.95,4.74,14.46,6.51,20.34
				C209.008,531.255,207.117,531.405,205.258,531.705z M203.908,523.246l-2.131-8.64l-2.91,8.64H203.908z"/>
			<path fill="#FFFFFF" d="M223.828,531.226c-0.811,0.029-2.01,0.09-2.431,0.09c-0.479,0-1.89-0.061-2.85-0.09l0.271-7.44
				c-0.57-1.529-2.551-5.039-3.36-6.689l-3.239-6.539c0.479-0.03,4.409-0.15,5.699-0.12c0.811,3.149,2.76,7.199,3.39,8.759
				c0.899-2.55,3.36-8.819,3.36-8.819c0.869,0.061,5.069,0.061,5.67,0.15c-0.66,1.29-2.7,5.369-3.301,6.51l-3.39,6.659
				L223.828,531.226z"/>
			<path fill="#FFFFFF" d="M238.768,510.466l-0.33,20.729h-5.04c-0.03-2.1-0.18-8.189-0.21-9.659c-0.029-2.04-0.15-7.771-0.18-9.06
				c0-0.631-0.03-1.44,0-1.98L238.768,510.466z"/>
			<path fill="#FFFFFF" d="M260.486,510.286c-0.06,0.48-0.09,0.93-0.119,1.41c-0.061,0.87-0.48,9.209-0.54,12.359
				c-0.06,2.46-0.091,5.7-0.091,6.96c-0.539,0.18-1.379,0.39-1.799,0.449l-1.53,0.24l-1.229-2.069c-0.69-1.17-4.5-6.3-7.2-10.08
				c0,0,0.271,5.31,0.3,6.27c0.03,0.9,0.15,3.51,0.15,4.26v0.87c-1.471,0.09-4.561,0.271-5.971,0.33
				c0.061-2.31,0.24-9.51,0.211-10.919l-0.18-9.21c0.539-0.12,1.469-0.33,2.189-0.42l2.88-0.3c0.63,0.899,2.37,3.329,2.67,3.81
				c0.63,0.99,4.38,5.64,4.38,5.64s0.119-6.21,0.119-7.319c0-0.75,0-1.44-0.06-2.01L260.486,510.286z"/>
			<path fill="#FFFFFF" d="M279.896,529.815c-1.529,1.05-3.72,1.71-5.58,1.71c-7.079,0-11.129-3.12-11.129-10.949
				c0-6.12,4.89-10.5,10.74-10.5c1.979,0,3.93,0.42,5.85,0.81c-0.24,1.65-0.601,3.33-1.08,4.95c-1.32-0.54-3.18-1.08-4.59-1.08
				c-3.03,0-5.641,2.61-5.641,5.7c0,3.54,1.891,6.3,5.76,6.3c0.48,0,0.961-0.03,1.44-0.091l-0.09-3.539l-3.36-0.03
				c0-1.17,0.03-2.7,0.061-3.87c2.459-0.03,4.92,0,7.35,0.12L279.896,529.815z"/>
		</g>
	</g>
</g>
<g>
	<g>
		<path fill="#FFFFFF" d="M69.062,41.934c-25.623,0-46.396,20.77-46.396,46.396c0,25.62,20.772,46.391,46.396,46.391
			c25.621,0,46.395-20.771,46.395-46.391C115.456,62.703,94.683,41.934,69.062,41.934"/>
		<path fill="#99CC00" d="M69.497,45.589c-23.603,0-42.737,19.134-42.737,42.74c0,23.601,19.135,42.731,42.737,42.731
			c23.599,0,42.735-19.131,42.735-42.731C112.232,64.723,93.096,45.589,69.497,45.589"/>
		<path fill="#FFFFFF" d="M38.352,69.141c0.035-5.304,2.924-10.139,7.673-13.829c6.709-4.924,14.932-7.796,23.799-7.722
			c8.54,0.069,16.437,2.854,22.935,7.544c5.087,3.821,8.174,8.893,8.139,14.438c-0.038,6.268-4.064,11.873-10.441,15.726h0.005
			c-6.133,3.752-13.308,5.881-20.966,5.819c-9.129-0.07-17.526-3.249-24.254-8.545C40.898,78.89,38.318,74.211,38.352,69.141"/>
		<path fill="#0A0B1D" d="M75.308,61.808c1.577-0.864,1.871-3.191,1.873-3.924c-0.002-3.212-2.479-5.354-6.918-5.352
			c-1.659-0.003-3.505,0.208-6.08,0.747l0,0c-0.131,0.027-0.229,0.151-0.231,0.297c0.003,0.021,0.005,0.049,0.008,0.073
			c0.68,4.094,0.646,10.479,0.098,16.94c-0.005,0.021-0.008,0.043-0.008,0.07c0,0.147,0.109,0.27,0.249,0.292
			c1.593,0.349,4.74,0.665,6.493,0.665c4.203-0.004,7.358-2.311,7.352-5.631C78.146,63.898,77.209,62.631,75.308,61.808
			 M70.21,56.455c1.585,0.005,2.661,0.823,2.679,2.008c0.036,2.247-3.674,1.901-3.963,1.838l-0.028-3.68
			C68.878,56.627,69.092,56.455,70.21,56.455 M70.634,67.849c-0.616,0.003-1.175-0.052-1.714-0.188l0.004-3.754
			c0,0,0.907-0.11,1.418-0.107c1.368,0.004,3.075,0.483,3.046,1.852C73.368,66.781,72.995,67.852,70.634,67.849"/>
		<path fill="#0A0B1D" d="M52.907,54.752c-1.854,0.425-3.864,1.107-5.167,1.756c-0.004,0-0.004,0-0.008,0
			c-0.289,0.111-0.152,0.367-0.152,0.37c1.317,3.057,3.609,13.392,3.94,16.839v0.005c-0.005,0.025,0.001,0.047,0.008,0.077
			c0.035,0.153,0.19,0.258,0.349,0.22c0.003,0,4.339-1.319,4.341-1.32c0.164-0.034,0.263-0.19,0.229-0.351
			c-0.006-0.008-0.01-0.014-0.01-0.018c-0.021-0.087-0.049-0.2-0.09-0.377l-0.232-0.896l-0.713-3.24c0,0,1.114-0.229,1.194-0.246
			c4.697-1.077,7.185-4.642,6.327-8.391C62.038,55.324,58.079,53.563,52.907,54.752 M55.182,63.697
			c-0.345,0.082-0.731,0.112-0.727,0.111l-1.108-4.845c0,0,0.877-0.288,1.245-0.376c1.854-0.421,3.228,0.396,3.567,1.877
			C58.515,61.992,57.556,63.154,55.182,63.697"/>
		<path fill="#0A0B1D" d="M88.996,60.033c0.047,0.056,0.316,0.193,0.393,0.199c0.138,0.008,0.193-0.062,0.193-0.062
			c0-0.002,0-0.002,0-0.002c0.279-0.223-0.023,0.043,2.367-2.748c0.045-0.042,0.076-0.104,0.092-0.174
			c0.023-0.135-0.093-0.269-0.103-0.261c-0.015,0.014-2.292-2.128-5.639-2.486c-4.165-0.449-7.091,2.028-7.322,5.653
			c-0.182,3.028,1.906,4.742,6.008,6.086c2.93,0.962,1.938,2.979,0.134,2.898c-1.153-0.052-2.917-0.854-4.014-1.898
			c0,0-0.044-0.057-0.16-0.077c-0.105-0.018-0.203,0.025-0.265,0.103l-2.347,2.697c0,0.004-0.063,0.103-0.082,0.167
			c-0.03,0.162,0.099,0.256,0.099,0.256c1.669,1.733,3.969,2.713,6.242,2.855c3.903,0.242,6.726-2.069,7.003-5.511
			c0.302-3.652-2.851-4.99-5.077-5.732c-1.916-0.64-2.731-1.229-2.65-2.062C83.953,59.104,85.551,57.896,88.996,60.033"/>
		<path fill="#FFFFFF" d="M97.795,91.459c2.518,1.048,5.408-0.14,6.456-2.657c1.056-2.513-0.131-5.403-2.644-6.453
			c-2.515-1.052-5.41,0.132-6.459,2.647C94.096,87.511,95.28,90.403,97.795,91.459"/>
		<path fill="#FFFFFF" d="M87.817,103.11c-0.087-2.481-2.161-4.424-4.641-4.338c-2.478,0.083-4.42,2.163-4.336,4.641
			c0.085,2.478,2.163,4.42,4.638,4.337C85.961,107.663,87.902,105.585,87.817,103.11"/>
		<path fill="#FFFFFF" d="M64.762,117.455c4.367-1.083,7.023-5.477,5.938-9.815c-1.088-4.341-5.505-6.979-9.868-5.896
			c-4.361,1.08-7.02,5.471-5.932,9.816C55.986,115.897,60.402,118.536,64.762,117.455"/>
		<path fill="#0A0B1D" d="M79.58,118.377c1.149-0.812,1.429-2.407,0.615-3.557c-0.813-1.144-2.423-1.419-3.575-0.61
			c-1.154,0.812-1.428,2.404-0.612,3.557c0.396,0.555,0.984,0.923,1.661,1.04C78.341,118.92,79.021,118.768,79.58,118.377
			 M77.442,116.754c-0.256-0.365-0.167-0.856,0.194-1.114c0.359-0.253,0.865-0.169,1.123,0.192c0.251,0.358,0.163,0.858-0.194,1.114
			c-0.177,0.12-0.389,0.17-0.602,0.134C77.752,117.041,77.568,116.929,77.442,116.754"/>
		<path fill="#0A0B1D" d="M83.679,118.711c-3.425,4.198-9.015,4.676-9.067,4.685l-0.037,0.001l-0.043,0.006
			c-6.5,1.012-11.626-2.15-11.677-2.186c-0.458-0.285-1.063-0.145-1.354,0.312c-0.292,0.457-0.151,1.068,0.302,1.359
			c0.232,0.145,5.751,3.571,12.989,2.469c0.447-0.038,6.51-0.609,10.413-5.404c0.147-0.177,0.218-0.386,0.225-0.599
			c0.004-0.293-0.122-0.587-0.366-0.785C84.644,118.222,84.021,118.288,83.679,118.711"/>
		<path fill="#0A0B1D" d="M60.595,100.786c-2.37,0.588-4.37,2.062-5.626,4.147c-1.248,2.078-1.612,4.514-1.029,6.858
			c1.22,4.862,6.177,7.824,11.061,6.618c2.372-0.591,4.371-2.062,5.63-4.154c1.25-2.071,1.612-4.51,1.023-6.857
			C70.437,102.542,65.477,99.575,60.595,100.786 M55.854,111.317c-0.46-1.833-0.174-3.738,0.803-5.366
			c0.985-1.64,2.556-2.794,4.416-3.252c3.827-0.952,7.719,1.372,8.668,5.179c0.128,0.496,0.198,0.994,0.214,1.487
			c0.045,1.354-0.302,2.692-1.013,3.874c-0.984,1.644-2.553,2.799-4.412,3.26C60.697,117.444,56.808,115.126,55.854,111.317"/>
		<path fill="#0A0B1D" d="M58.313,113.537c1.606,0.207,3.071-0.924,3.287-2.52c0.209-1.602-0.92-3.067-2.529-3.271
			c-1.606-0.209-3.082,0.919-3.288,2.517C55.572,111.864,56.703,113.329,58.313,113.537"/>
		<path fill="#0A0B1D" d="M77.958,103.438c0.102,2.957,2.596,5.285,5.549,5.18c2.959-0.099,5.284-2.585,5.183-5.546
			c-0.101-2.953-2.587-5.282-5.547-5.18C80.185,97.991,77.858,100.483,77.958,103.438 M79.559,103.386
			c-0.068-2.071,1.566-3.825,3.641-3.894c2.079-0.067,3.827,1.563,3.896,3.641c0.073,2.075-1.562,3.824-3.634,3.892
			C81.378,107.098,79.631,105.463,79.559,103.386"/>
		<path fill="#0A0B1D" d="M81.329,105.807c1.075,0.137,2.064-0.621,2.204-1.698c0.14-1.078-0.617-2.069-1.699-2.21
			c-1.078-0.141-2.066,0.622-2.21,1.697C79.487,104.675,80.25,105.664,81.329,105.807"/>
		<path fill="#0A0B1D" d="M92.879,103.888c-1.173-5.913-4.537-11.038-9.491-14.512h0.003c-0.012-0.006-0.019-0.009-0.026-0.013
			c-0.189-0.135-0.378-0.273-0.576-0.405c-0.742-0.48-1.504-0.919-2.281-1.311c-5.642-3.026-14.896-5.975-36.101,2.652l3.91,3.616
			l-7.708,2.754l5.95,3.86l-6.929,2.562l6.492,4.602c-2.147,1.095-3.646,3.294-3.699,5.871c-0.078,3.726,2.892,6.822,6.618,6.898
			c0.561,0.013,1.099-0.053,1.619-0.171c4.999,7.738,14.385,12.153,23.967,10.383c5.957-1.097,11.136-4.411,14.588-9.323
			C92.799,116.24,94.099,110.034,92.879,103.888 M49.083,118.537c-2.67-0.052-4.792-2.27-4.737-4.937
			c0.043-1.939,1.23-3.589,2.9-4.32c0.063,0.977,0.193,1.962,0.387,2.951c0.442,2.234,1.206,4.331,2.226,6.254
			C49.604,118.523,49.348,118.544,49.083,118.537 M87.532,120.243c-3.148,4.483-7.862,7.502-13.283,8.496
			c-11.439,2.113-22.583-5.442-24.849-16.834c-0.868-4.39-0.294-8.717,1.396-12.501l30.128-9.271
			c0.239,0.148,0.483,0.301,0.723,0.452c4.838,3.176,8.119,8.031,9.234,13.668C92.003,109.89,90.81,115.57,87.532,120.243"/>
		<path fill="#FFFFFF" d="M93.218,94.315c-0.764,1.253-0.369,2.886,0.873,3.642c1.247,0.772,2.87,0.38,3.642-0.867
			c0.765-1.25,0.371-2.879-0.875-3.645C95.612,92.684,93.98,93.071,93.218,94.315"/>
		<path fill="#0A0B1D" d="M66.959,82.655l0.002,0.003l-0.141-0.717l-0.099-1.327l-0.001-0.053l-0.197-4.06l-0.005-0.061
			l-0.016-1.304l0.063-0.658l-0.004-0.012c0-0.035-0.025-0.063-0.06-0.063c0,0-0.583,0.028-1.134,0.056
			c-0.559,0.028-1.136,0.061-1.136,0.061c-0.03,0-0.057,0.024-0.057,0.063h-0.003l0.003,0.012l0.125,0.646l0.109,1.303l0.004,0.062
			l0.192,4.062l0.005,0.048l0.033,1.335l-0.074,0.724c0,0.005,0,0.008,0,0.009c0,0.04,0.032,0.068,0.067,0.068l0.109-0.007
			l2.043-0.1l0.115-0.006c0.035,0,0.058-0.032,0.058-0.073C66.967,82.665,66.959,82.658,66.959,82.655"/>
		<path fill="#0A0B1D" d="M77.019,78.849c-0.1,2.652-2.576,4.148-5.09,4.056c-0.593-0.025-0.702-0.039-1.25-0.083
			c-0.544-0.046-1.271-0.051-1.271-0.051l-0.115-0.005c-0.038,0-0.06-0.033-0.06-0.071c0.001-0.004,0-0.01,0.001-0.013h-0.001
			l0.145-0.733l0.079-1.355l-0.003-0.05l0.16-4.14l0.007-0.065l0.006-1.328l-0.077-0.672l0.004-0.01c0-0.036,0.03-0.067,0.059-0.063
			c0,0,0.527,0.022,0.731,0.025c0.285,0,1.229-0.045,1.856-0.017C74.945,74.397,77.119,76.134,77.019,78.849 M72.229,76.148
			c-0.193-0.009-0.286,0.001-0.44,0.028l-0.018,0.241v0.066l-0.158,4.142v0.051l-0.009,0.444c0.15,0.03,0.279,0.053,0.419,0.061
			c1.313,0.046,2.737-0.714,2.799-2.259C74.881,77.31,73.518,76.198,72.229,76.148"/>
		<path fill="#0A0B1D" d="M62.897,82.764l-3.653-3.521c0.788-0.904,1.645-1.756,2.549-2.539l0,0
			c0.017-0.015,0.027-0.042,0.023-0.061c-0.005-0.019-0.018-0.036-0.025-0.045l-1.46-1.453c-0.019-0.015-0.036-0.021-0.052-0.019
			c-0.01,0.004-0.021,0.004-0.028,0.012c0,0,0-0.002-0.003,0c-1.397,1.229-2.73,2.669-3.856,4.174l-0.278-1.555l-0.009-0.058
			l-0.192-1.289l-0.016-0.66l-0.005-0.013c-0.013-0.035-0.038-0.063-0.07-0.056c0,0-0.571,0.102-1.116,0.205
			c-0.552,0.101-1.122,0.199-1.122,0.199c-0.032,0.008-0.05,0.04-0.046,0.074v0.012l0.211,0.629l0.272,1.272l0.011,0.061
			l0.724,4.002l0.015,0.049l0.199,1.312l0.024,0.738l0,0c0,0.002,0,0.004,0,0.007c0.007,0.039,0.04,0.063,0.068,0.054v0.002
			l0.115-0.017l2.009-0.364l0.113-0.021c0.039-0.009,0.06-0.041,0.049-0.071c0.004-0.011-0.003-0.013-0.003-0.02h0.003l-0.234-0.689
			l-0.158-0.775l0.016-0.051c0.319-0.506,0.658-0.998,1.013-1.477l2.4,2.493V83.3c0.012,0.018,0.034,0.029,0.054,0.028
			c0.003,0,0.003-0.003,0.006-0.006v0.003l2.427-0.438v-0.002c0.007-0.004,0.007,0,0.007,0c0.033-0.004,0.055-0.046,0.051-0.078
			C62.923,82.786,62.91,82.774,62.897,82.764"/>
		<path fill="#0A0B1D" d="M85.789,81.737c0.496-3.65-4.941-3.024-4.774-4.207c0.104-0.778,2.29-1.016,3.863,0.755v0.001
			c0.017,0.008,0.024,0.016,0.039,0.021c0.023,0,0.042-0.01,0.059-0.028l0,0c0.229-0.241,1.087-1.193,1.267-1.399
			c0,0,0.008,0,0.002-0.008c0.009-0.008,0.011-0.02,0.016-0.029c0.001-0.018,0.001-0.035-0.007-0.049h0.002c0,0-0.002,0-0.005-0.002
			c-0.003,0,0-0.003-0.003-0.003c-1.26-2.11-6.989-3.057-7.47,0.469c-0.474,3.414,5.119,3.242,4.853,4.321
			c-0.249,0.994-3.082,0.769-4.218-1.069c-0.012-0.02-0.03-0.028-0.047-0.03c-0.013,0-0.034,0-0.051,0.013
			c-0.257,0.207-1.261,1.061-1.496,1.272c-0.011,0.006-0.006,0.009-0.013,0.014c-0.01,0.009-0.014,0.02-0.018,0.034
			c0,0.023,0,0.038,0.012,0.057c0,0-0.001,0.002,0,0C80.027,85.103,85.297,85.299,85.789,81.737"/>
	</g>
	<path fill="#FFFFFF" d="M167.436,107.321l-13.259,0.456l-5.16-17.049l-5.974,16.745l-13.169-0.098l-9.82-43.324l12.987-0.404
		l5.07,20.288l7.603-20.441h7.331l7.014,20.592l5.885-20.995l12.535,1.063L167.436,107.321z"/>
	<path fill="#FFFFFF" d="M237.316,105.047l-6.682-10.518c-0.904,0.03-1.941,0.023-2.664,0l0.491,10.412l-12.226,0.287l-1.883-35.105
		c4.187-0.326,10.539-0.726,16.988-0.945c10.102-0.348,15.945,4.19,16.225,12.308c0.177,5.096-2.159,8.067-5.35,9.894l8.889,11.61
		L237.316,105.047z M231.077,78.487c-1.312,0.043-3.019,0.193-4.188,0.277l0.545,8.02c1.312,0,2.846-0.009,4.24-0.102
		c2.84-0.188,4.327-1.548,4.237-4.165C235.823,79.993,234.053,78.384,231.077,78.487z"/>
	<path fill="#FFFFFF" d="M279.05,111.14l-23.389,0.537l-2.218-39.918l13.265-0.139l2.171,30.233l10.457-0.627L279.05,111.14z"/>
	<path fill="#FFFFFF" d="M297.764,104.917c-4.756,0-11.555-0.178-14.399-0.311l-0.398-34.129h14.222
		c12.396,0,19.817,5.687,19.817,18.042C317.004,99.982,309.716,104.917,297.764,104.917z M298.652,80.917
		c-1.603,0-2.754,0.048-3.733,0.134l0.312,13.6c1.199,0.09,2.222,0.179,3.688,0.179c4.001,0,6.224-2.756,6.224-6.754
		C305.143,83.808,302.74,80.917,298.652,80.917z"/>
	<path fill="#FFFFFF" d="M194.727,75.548c-10.297-0.054-17.238,6.776-17.287,15.903c-0.051,9.891,6.375,16.508,16.633,16.562
		c11.267,0.058,17.441-6.492,17.49-16.669C211.611,82.016,205.307,75.603,194.727,75.548z M195.711,94.696l1.541,5.28l-5.465,0.223
		l1.613-5.453c-2.239-0.433-3.625-2.252-3.612-4.697c0.013-2.801,1.853-4.762,4.71-4.748c2.771,0.015,4.616,1.908,4.602,4.767
		C199.088,92.376,197.855,94.191,195.711,94.696z"/>
</g>
<g>
	<rect x="198" y="281" fill="#FFFFFF" width="115" height="93"/>
	<rect x="198" y="190" fill="#FFFFFF" width="115" height="86"/>
	<rect x="198" y="144" fill="#FFFFFF" width="115" height="41"/>
	<g enable-background="new    ">
		<path fill="#9B9989" d="M244.858,289.057c0,0.513,0,1.441-0.048,2.291c-0.064,1.266-0.129,5.015-0.129,5.752
			c0,0.721-0.047,1.923-0.047,2.451c0,0.256-0.017,0.545-0.033,0.753c-0.896,0.032-1.891,0-2.787-0.064
			c0.016-0.528,0.031-1.474,0.031-1.891c0-0.593-0.047-2.211-0.047-2.211h-2.82c0,0-0.016,2.436,0,2.916
			c0.016,0.289,0.016,0.77,0.016,1.09c-0.736,0.048-2.275,0.112-2.756,0.096c0.033-0.593,0.033-2.867,0-4.31
			c-0.016-0.657-0.063-2.195-0.096-3.604c-0.048-1.442-0.08-2.756-0.112-2.933c0-0.08-0.016-0.16-0.032-0.224
			c1.025-0.08,1.939-0.08,2.948-0.049c0,0.722-0.016,2.243-0.016,2.5c0,0.353,0.032,1.826,0.032,1.826l2.883,0.08l-0.031-4.374
			L244.858,289.057z"/>
		<path fill="#9B9989" d="M252.721,300.496c-0.064-0.801-0.209-1.378-0.4-2.163l-3.477-0.032c0,0-0.514,1.875-0.594,2.275
			l-2.739-0.593l1.778-5.031c0.561-1.602,1.73-4.854,2.051-5.768c0.609,0,2.115,0,2.9,0.032c0.865,2.644,2.531,7.723,3.477,10.862
			C254.723,300.256,253.714,300.336,252.721,300.496z M252,295.978l-1.138-4.614l-1.554,4.614H252z"/>
		<path fill="#9B9989" d="M259.99,289.152l-0.177,11.071h-2.691c-0.017-1.121-0.097-4.374-0.112-5.159
			c-0.016-1.089-0.08-4.149-0.096-4.839c0-0.336-0.017-0.769,0-1.057L259.99,289.152z"/>
		<path fill="#9B9989" d="M267.967,300.704c-0.256-0.272-0.77-0.865-1.218-1.666c-0.497-0.85-0.978-1.938-1.298-2.691l-0.785-0.049
			c0.017,1.218,0.08,2.788,0.225,3.846l-2.916,0.128c-0.128-1.602-0.176-5.703-0.208-7.979c-0.017-0.609,0.032-2.275,0.048-3.028
			c0.881,0,2.531-0.048,3.669-0.112c0.353-0.016,0.978-0.032,1.298-0.032c2.387,0,3.301,2.1,3.301,3.285
			c0,1.682-0.77,3.06-1.939,3.557l-0.191,0.08c0.176,0.4,0.432,0.961,0.672,1.442c0.385,0.736,1.042,1.746,1.827,2.451
			C269.777,300.224,268.416,300.561,267.967,300.704z M266.205,291.38c-0.529-0.048-1.105,0-1.635,0.016
			c0,0,0.016,2.388,0.096,2.771c0.48,0.177,1.09,0.097,1.33,0.08c0.785-0.048,1.281-0.576,1.281-1.377
			C267.277,292.709,267.15,291.476,266.205,291.38z"/>
	</g>
	<g enable-background="new    ">
		<path fill="#9B9989" d="M244.152,202.148c-1.058-0.433-1.779-0.641-2.933-0.641c-0.544,0-1.489,0.048-1.489,0.753
			c0,1.442,4.87,1.843,4.87,4.999c0,2.099-2.019,3.124-3.861,3.124c-1.362,0-2.979-0.16-4.262-0.608l0.433-2.628
			c0.85,0.32,1.715,0.688,2.627,0.688c0.465,0,1.555-0.048,1.555-0.673c0-1.217-4.438-1.698-4.438-4.726
			c0-2.5,2.162-3.478,4.357-3.478c1.186,0,2.547,0.257,3.637,0.737L244.152,202.148z"/>
		<path fill="#9B9989" d="M255.348,210.048l-3.316,0.336c-0.049,0-2.756-4.422-2.756-4.422l0.111,4.229
			c-0.432,0.032-1.153,0.08-1.682,0.08c-0.497,0-1.138-0.048-1.522-0.08l0.128-10.927l2.26-0.176l-0.049,4.005l3.717-4.245
			l2.756,1.009l-3.845,4.278L255.348,210.048z"/>
		<path fill="#9B9989" d="M259.748,199.152l-0.176,11.071h-2.691c-0.016-1.121-0.096-4.374-0.112-5.159
			c-0.017-1.089-0.08-4.149-0.097-4.839c0-0.336-0.016-0.769,0-1.057L259.748,199.152z"/>
		<path fill="#9B9989" d="M271.346,199.057c-0.031,0.256-0.048,0.496-0.063,0.753c-0.032,0.465-0.257,4.919-0.288,6.601
			c-0.033,1.314-0.049,3.044-0.049,3.718c-0.288,0.096-0.736,0.208-0.961,0.24l-0.817,0.128l-0.657-1.105
			c-0.368-0.625-2.402-3.364-3.845-5.384c0,0,0.144,2.836,0.16,3.349c0.017,0.48,0.08,1.875,0.08,2.275v0.465
			c-0.785,0.048-2.435,0.144-3.188,0.176c0.032-1.233,0.129-5.079,0.112-5.832l-0.097-4.918c0.289-0.064,0.785-0.177,1.17-0.225
			l1.539-0.16c0.336,0.48,1.266,1.778,1.426,2.034c0.336,0.529,2.339,3.013,2.339,3.013s0.063-3.316,0.063-3.909
			c0-0.4,0-0.77-0.031-1.074L271.346,199.057z"/>
	</g>
	<rect x="205.883" y="152.417" fill="#00C3F7" width="46.551" height="23.827"/>
	<g enable-background="new    ">
		<path fill="#FFFFFF" d="M218.036,170.218c-1.19,0-2.507-0.048-3.634-0.349c-0.048-3.555-0.032-7.126-0.159-10.681
			c1.349-0.333,2.825-0.46,4.206-0.46c1.682,0,3.586,0.477,3.586,2.57c0,1.54-0.968,2.254-2.143,3.079
			c1.317,0.286,2.508,1.587,2.508,2.952C222.4,169.853,220.004,170.218,218.036,170.218z M217.814,160.935
			c-0.413,0-0.826,0.048-1.238,0.079l0.079,2.412c1.063-0.031,2.841-0.016,2.841-1.508
			C219.496,161.062,218.465,160.935,217.814,160.935z M216.672,165.314l0.127,2.65c0.206,0.031,0.412,0.047,0.618,0.047
			c1,0,2.016-0.222,2.016-1.443C219.433,165.346,217.544,165.33,216.672,165.314z"/>
		<path fill="#FFFFFF" d="M228.129,170.043c-2.904,0-4.443-2.476-4.443-5.221c0-3.666,2.127-6.062,5.126-6.062
			c3.364,0,4.618,2.477,4.618,5.92C233.43,167.806,231.668,170.043,228.129,170.043z M228.589,161.331
			c-1.047,0.063-1.825,0.921-1.968,2.571c-0.19,2.047,0.81,2.982,1.889,3.03c1.365,0.063,1.92-1.46,1.92-2.793
			C230.43,163.014,229.779,161.252,228.589,161.331z"/>
		<path fill="#FFFFFF" d="M240.475,169.916c-0.428,0.016-1.062,0.048-1.285,0.048c-0.254,0-1-0.032-1.508-0.048l0.143-3.936
			c-0.301-0.809-1.349-2.666-1.777-3.539l-1.713-3.459c0.254-0.016,2.332-0.079,3.015-0.063c0.429,1.666,1.46,3.809,1.793,4.634
			c0.477-1.349,1.777-4.666,1.777-4.666c0.46,0.032,2.683,0.032,2.999,0.08c-0.349,0.682-1.428,2.84-1.745,3.443l-1.793,3.523
			L240.475,169.916z"/>
	</g>
	<rect x="258.449" y="152.417" fill="#F95AF5" width="46.551" height="23.827"/>
	<g enable-background="new    ">
		<path fill="#FFFFFF" d="M274.182,169.17c-0.809,0.556-1.968,0.905-2.951,0.905c-3.745,0-5.888-1.65-5.888-5.792
			c0-3.238,2.587-5.555,5.681-5.555c1.048,0,2.079,0.223,3.095,0.429c-0.127,0.872-0.317,1.761-0.571,2.618
			c-0.698-0.285-1.682-0.571-2.428-0.571c-1.603,0-2.983,1.381-2.983,3.015c0,1.873,1,3.333,3.047,3.333
			c0.254,0,0.508-0.016,0.762-0.048l-0.048-1.872l-1.777-0.017c0-0.618,0.016-1.428,0.032-2.047c1.301-0.016,2.603,0,3.888,0.063
			L274.182,169.17z"/>
		<path fill="#FFFFFF" d="M279.196,158.935l-0.175,10.966h-2.666c-0.016-1.111-0.095-4.332-0.111-5.109
			c-0.016-1.08-0.079-4.11-0.095-4.793c0-0.333-0.016-0.762,0-1.047L279.196,158.935z"/>
		<path fill="#FFFFFF" d="M287.1,170.377c-0.254-0.271-0.762-0.857-1.207-1.65c-0.491-0.842-0.968-1.921-1.285-2.666l-0.777-0.048
			c0.016,1.206,0.079,2.761,0.223,3.809l-2.889,0.127c-0.127-1.587-0.175-5.649-0.206-7.903c-0.017-0.603,0.031-2.253,0.048-2.999
			c0.872,0,2.507-0.048,3.634-0.111c0.349-0.016,0.968-0.031,1.285-0.031c2.364,0,3.269,2.079,3.269,3.253
			c0,1.666-0.762,3.031-1.92,3.523l-0.19,0.079c0.175,0.396,0.429,0.952,0.667,1.428c0.381,0.73,1.031,1.729,1.809,2.429
			C288.893,169.9,287.543,170.233,287.1,170.377z M285.354,161.141c-0.523-0.048-1.095,0-1.619,0.016c0,0,0.017,2.365,0.096,2.746
			c0.477,0.174,1.079,0.095,1.317,0.079c0.777-0.048,1.27-0.571,1.27-1.365C286.417,162.458,286.29,161.236,285.354,161.141z"/>
		<path fill="#FFFFFF" d="M297.62,167.948l-0.095,2.016c-0.73-0.048-1.444-0.111-2.175-0.111c-0.762,0-4.015,0.063-5.109,0.111
			c0.063-1.444,0.079-4.062,0.11-5.618c0.032-1.793,0.017-3.84-0.016-5.379l3.047-0.063l-0.079,1.523
			c-0.048,0.904-0.159,3.396-0.175,4.015c-0.016,0.604,0,2.396,0,2.396s1.825-0.175,2.603-0.207
			c0.508-0.016,1.396-0.062,1.904-0.079C297.636,167.044,297.636,167.552,297.62,167.948z"/>
	</g>
	<g>
		<g>
			<g>
				<path fill="#9B9989" d="M277.666,311.946l4.764,4.501l0.581-2.922l3.099,3.005l1.728-2.979l2.631,2.765l1.917-4.04
					C292.384,312.275,286.453,307.306,277.666,311.946z"/>
				<polygon fill="#9B9989" points="280.477,311.059 285.068,307.115 285.146,310.825 				"/>
			</g>
		</g>
		<circle fill="none" stroke="#9B9989" stroke-width="1.5" stroke-miterlimit="10" cx="223.873" cy="351.091" r="11.185"/>
		<path fill="none" stroke="#9B9989" stroke-width="1.5" stroke-miterlimit="10" d="M235.059,321.054
			c0,6.18-5.009,11.188-11.186,11.188c-6.178,0-11.186-5.009-11.186-11.188c0-6.176,5.008-11.184,11.186-11.184
			C230.05,309.87,235.059,314.878,235.059,321.054z"/>
		<path fill="#9B9989" d="M247.977,310.474c0,0,2.722,8.77,11.188,9.675l-0.909-4.232l6.046-0.302
			C264.301,315.613,261.277,306.544,247.977,310.474z"/>
		<path fill="none" stroke="#9B9989" stroke-width="1.5" stroke-miterlimit="10" d="M265.208,321.054
			c0,6.18-5.008,11.188-11.187,11.188c-6.176,0-11.186-5.009-11.186-11.188c0-6.176,5.01-11.184,11.186-11.184
			C260.2,309.87,265.208,314.878,265.208,321.054z"/>
		<circle fill="none" stroke="#9B9989" stroke-width="1.5" stroke-miterlimit="10" cx="255.195" cy="351.527" r="11.186"/>
		<path fill="none" stroke="#9B9989" stroke-width="1.5" stroke-miterlimit="10" d="M296.529,351.527
			c0,6.18-5.006,11.187-11.184,11.187c-6.181,0-11.187-5.007-11.187-11.187c0-6.178,5.006-11.185,11.187-11.185
			C291.523,340.344,296.529,345.351,296.529,351.527z"/>
		<circle fill="none" stroke="#9B9989" stroke-width="1.5" stroke-miterlimit="10" cx="284.771" cy="321.366" r="11.186"/>
		<polygon fill="#9B9989" points="223.57,342.022 226.593,334.466 228.105,343.533 		"/>
		<polygon fill="#9B9989" points="218.13,341.419 219.036,336.581 221.152,340.207 		"/>
		<polygon fill="#9B9989" points="215.711,343.533 212.688,341.72 213.896,345.35 		"/>
		<path fill="#9B9989" d="M245.779,345.496c1.988-3.1,5.461-5.152,9.416-5.152c4.322,0,8.07,2.454,9.934,6.044l0.043,0.003v-8.466
			l-19.951-0.302l0.299,7.859L245.779,345.496z"/>
		<path fill="#9B9989" d="M281.114,344.576l1.932,5.977l14.996-0.535c0,0-1.813-13.302-13.903-12.395
			c-12.097,0.906-11.492,13.3-11.492,13.3l7.25-0.257L281.114,344.576z"/>
	</g>
	<rect x="207" y="220" fill="#F41971" width="19.654" height="19.655"/>
	<rect x="232.115" y="220" fill="#75EFF9" width="19.654" height="19.655"/>
	<rect x="257.229" y="220" fill="#F95AF5" width="19.655" height="19.655"/>
	<rect x="282.346" y="220" fill="#FA5D00" width="19.654" height="19.655"/>
	<rect x="207" y="245.115" fill="#B8EA03" width="19.654" height="19.655"/>
	<rect x="232.115" y="245.115" fill="#FF9100" width="19.654" height="19.655"/>
	<rect x="257.229" y="245.115" fill="#CC05E8" width="19.655" height="19.655"/>
	<rect x="282.346" y="245.115" fill="#FFDB00" width="19.654" height="19.655"/>
	<g>
		<polygon fill="#FFFFFF" points="234.811,226.615 246.564,235.817 248.738,232.707 237.496,224.191 		"/>
		<polygon fill="#FFFFFF" points="244.621,223.679 235.704,233.852 239.395,236.076 247.979,226.225 		"/>
	</g>
</g>
<ellipse fill="#FF8500" cx="107" cy="370" rx="41" ry="8"/>
<g>
	<path fill="#75EFF9" d="M152.327,341.606c-6.293,10.205-19.675,13.379-29.881,7.086c-10.209-6.301-13.377-19.682-7.081-29.887
		c6.294-10.209,19.67-13.38,29.881-7.083C155.454,318.018,158.627,331.397,152.327,341.606z"/>
	<path d="M119.262,333.337c0,0-0.273,21.64-1.607,33.02l-2.972-0.327c0,0,1.991-26.161,1.533-34.49L119.262,333.337z"/>
	<path d="M92.637,367.251c2.829-10.972,4.684-30.729,5.069-32.722l3.37-1.174c0,0-3.814,28.723-5.039,33.213L92.637,367.251z"/>
	<path d="M114.683,366.028c0,0,4.628-5.175,9.883,0.929C124.565,366.957,120.344,370.626,114.683,366.028z"/>
	<path d="M92.144,367.275c0,0,4.633-5.173,9.881,0.93C102.024,368.205,97.811,371.876,92.144,367.275z"/>
	<path fill="#FFFFFF" d="M113.172,276.664c0,0,5.112,21.342,6.09,56.673l-21.556,1.192c0,0,1.255-48.23-1.737-57.896
		L113.172,276.664z"/>
	<g>
		<g>
			<defs>
				<path id="SVGID_4_" d="M113.172,276.664c0,0,5.112,21.342,6.09,56.673l-21.556,1.192c0,0,1.255-48.23-1.737-57.896
					L113.172,276.664z"/>
			</defs>
			<clipPath id="SVGID_5_">
				<use xlink:href="#SVGID_4_"  overflow="visible"/>
			</clipPath>
			<polygon clip-path="url(#SVGID_5_)" points="92.439,326.866 123.483,327.083 125.02,340.072 90.906,342.201 			"/>
		</g>
	</g>
	<path fill="#FFFFFF" d="M117.64,282.213l-3.989,0.446c0,0,3.623,5.301,6.811,12.3l4.05-0.713
		C122.831,290.519,120.614,286.445,117.64,282.213z"/>
	<path fill="#75EFF9" d="M120.461,294.959c2.49,5.479,4.709,11.995,4.709,17.83h4.431c0,0-0.254-7.812-5.09-18.543L120.461,294.959z
		"/>
	<path fill="#75EFF9" d="M58.614,341.606c6.296,10.205,19.675,13.379,29.88,7.086c10.212-6.301,13.38-19.682,7.085-29.887
		c-6.295-10.209-19.677-13.38-29.883-7.083C55.487,318.018,52.317,331.397,58.614,341.606z"/>
	<path fill="#FFFFFF" d="M93.306,282.213l3.989,0.446c0,0-3.627,5.301-6.813,12.3l-4.052-0.713
		C88.11,290.519,90.331,286.445,93.306,282.213z"/>
	<path fill="#75EFF9" d="M90.481,294.959c-2.489,5.479-4.711,11.995-4.711,17.83h-4.43c0,0,0.255-7.812,5.089-18.543L90.481,294.959
		z"/>
	<path fill="#75EFF9" d="M157.577,233.875c0,27.447-23.875,49.7-53.328,49.7c-29.456,0-53.332-22.253-53.332-49.7
		c0-27.445,23.876-49.697,53.332-49.697C133.702,184.178,157.577,206.43,157.577,233.875z"/>
	<path d="M115.905,255.282c0,0.889-0.767,1.609-1.716,1.609c-0.953,0-1.722-0.721-1.722-1.609c0-0.882,0.769-1.601,1.722-1.601
		C115.139,253.682,115.905,254.4,115.905,255.282z"/>
	<path fill="#FFFFFF" d="M103.106,234.258c0,12.939-9.761,23.428-21.795,23.428c-12.037,0-21.798-10.488-21.798-23.428
		c0-12.94,9.761-23.429,21.798-23.429C93.346,210.829,103.106,221.317,103.106,234.258z"/>
	<path fill="#FFFFFF" d="M151.395,210.426c-3.213-2.229-7.021-3.538-11.114-3.538c-11.452,0-20.744,10.113-20.744,22.592
		s9.292,22.594,20.744,22.594c6.959,0,13.102-3.743,16.866-9.475c0.405-2.554,0.626-5.167,0.626-7.833
		C157.772,225.988,155.457,217.713,151.395,210.426z"/>
	<path fill="none" stroke="#000000" stroke-width="2" stroke-linecap="round" stroke-linejoin="round" stroke-miterlimit="10" d="
		M106.737,267.904c0,0,8.024,4.203,14.521-3.443"/>
	<path fill="#00C3F7" d="M89.188,234.066c0,4.537-3.188,8.213-7.111,8.213c-3.93,0-7.115-3.676-7.115-8.213
		c0-4.535,3.186-8.212,7.115-8.212C86,225.854,89.188,229.531,89.188,234.066z"/>
	<ellipse fill="#00C3F7" cx="139.45" cy="229.034" rx="7.111" ry="8.214"/>
	<path fill="#75EFF9" d="M52.065,236.171c0,0-11.467-5.352-12.236,6.117c-0.762,11.466,6.501,18.349,17.971,10.7
		C69.268,245.347,52.065,236.171,52.065,236.171z"/>
	<path d="M68.216,196.582c0,0,30.702,20.129,62.408,5.031l-9.563-5.536l11.574-4.528
		C132.635,191.549,101.435,170.911,68.216,196.582z"/>
</g>
</svg>
