<?xml version="1.0" encoding="utf-8"?>
<!-- Generator: Adobe Illustrator 16.0.3, SVG Export Plug-In . SVG Version: 6.00 Build 0)  -->
<!DOCTYPE svg PUBLIC "-//W3C//DTD SVG 1.1//EN" "http://www.w3.org/Graphics/SVG/1.1/DTD/svg11.dtd">
<svg version="1.1" id="Layer_1" xmlns="http://www.w3.org/2000/svg" xmlns:xlink="http://www.w3.org/1999/xlink" x="0px" y="0px"
	 width="66px" height="42px" viewBox="-7.187 -4.141 66 42" enable-background="new -7.187 -4.141 66 42" xml:space="preserve">
<g id="game_icon">
</g>
<g id="Layer_2">
	<g opacity="0.9">
		<g>
			<g>
				<path fill="#6A51C2" d="M23.027,32.587c-2.915,0-8.02-0.037-9.463-0.297C8.02,31.3,4.053,27.082,3.001,23.427
					C2.237,20.779,1.95,16.603,2.25,12.53C2.627,7.435,4.078,1.946,16.594,1.346c2.965-0.144,6.395-0.219,9.916-0.219
					c4.373,0,8.602,0.11,12.225,0.321c12.037,0.691,12.744,9.423,12.764,11.164c0.041,3.431-0.693,9.672-0.884,10.69
					c-0.368,1.973-1.483,7.949-10.733,8.855C36.878,32.404,29.641,32.587,23.027,32.587z"/>
				<path fill="#6A51C2" d="M26.51,2.255c4.332,0,8.536,0.109,12.157,0.318c11.032,0.637,11.685,8.482,11.7,10.051
					c0.039,3.303-0.688,9.51-0.864,10.473c-0.362,1.945-1.321,7.113-9.733,7.939c-2.963,0.242-10.16,0.424-16.739,0.424
					c-4.894,0-8.271-0.102-9.263-0.277c-5.092-0.91-8.724-4.744-9.68-8.064c-0.729-2.529-1.001-6.559-0.71-10.502
					C3.735,7.792,5.055,3.034,16.648,2.478C19.589,2.334,23.002,2.255,26.51,2.255 M26.51,0c-3.541,0-6.988,0.075-9.973,0.219
					C3.742,0.834,1.566,6.459,1.124,12.446c-0.313,4.263-0.021,8.483,0.792,11.295c1.113,3.867,5.171,8.539,11.451,9.662
					c1.451,0.26,6.054,0.314,9.66,0.314c6.64,0,13.916-0.188,16.925-0.434c6.733-0.658,10.683-3.943,11.771-9.771
					c0.193-1.047,0.943-7.42,0.902-10.917C52.564,7.298,48.908,0.901,38.797,0.319C35.153,0.108,30.903,0,26.51,0L26.51,0z"/>
			</g>
		</g>
		<g>
			<path fill="#FFFFFF" d="M27.678,12.162c-3.648-1.88-6.881,2.229-6.938,5.337c-0.006,2.34,2.738,3.713,4.986,3.943
				c2.767,0.314,4.164-1.227,4.996-3.496C31.469,15.729,30.178,12.716,27.678,12.162z"/>
		</g>
		<g>
			<path fill="#FFFFFF" d="M38.667,2.493c-3.621-0.211-7.825-0.319-12.157-0.319c-3.51,0-6.922,0.076-9.863,0.218
				C5.053,2.948,3.734,7.705,3.375,12.53c-0.291,3.942-0.021,7.971,0.711,10.502c0.955,3.32,4.586,7.154,9.68,8.062
				c0.992,0.18,4.369,0.279,9.263,0.279c6.579,0,13.776-0.184,16.739-0.426c8.412-0.822,9.371-5.99,9.733-7.938
				c0.181-0.963,0.904-7.169,0.865-10.472C50.35,10.974,49.698,3.127,38.667,2.493z M33.995,18.859
				c-0.083,0.367,4.269,4.705,3.625,5.875s-5.826-2.264-6.125-1.875s0.673,5.578-0.125,6.125s-3.806-4.625-4.375-4.625
				s-3.526,5.119-4.375,5s0.158-5.59-0.625-5.875c-0.783-0.283-5.271,3.688-6.208,3.125s3.475-6.023,2.833-6.5
				c-0.642-0.475-5.989-0.396-6.417-1.082c-0.428-0.689,6.167-2.706,6.167-3.25s-4.267-4.64-4-5.668
				c0.267-1.027,5.909,1.896,6.25,1.75c0.341-0.146,0.074-7.201,1-7.25c0.925-0.047,3.299,5.103,3.75,5.168
				c0.451,0.064,3.022-5.523,3.917-5.168c0.895,0.356,0.723,5.787,1,6s5.371-2.561,6.083-1.75c0.712,0.812-3.249,4.961-3.25,5.418
				s6.351,0.069,6.5,1.082C39.77,16.372,34.078,18.494,33.995,18.859z"/>
		</g>
	</g>
</g>
</svg>
