<?xml version="1.0" encoding="utf-8"?>
<!-- Generator: Adobe Illustrator 16.0.3, SVG Export Plug-In . SVG Version: 6.00 Build 0)  -->
<!DOCTYPE svg PUBLIC "-//W3C//DTD SVG 1.1//EN" "http://www.w3.org/Graphics/SVG/1.1/DTD/svg11.dtd">
<svg version="1.1" id="Layer_1" xmlns="http://www.w3.org/2000/svg" xmlns:xlink="http://www.w3.org/1999/xlink" x="0px" y="0px"
	 width="66px" height="58.25px" viewBox="-11.875 0 66 58.25" enable-background="new -11.875 0 66 58.25" xml:space="preserve">
<path opacity="0.9" fill="#6A51C2" stroke="#6A51C2" stroke-width="2.25" stroke-miterlimit="10" enable-background="new    " d="
	M38.125,50.758c0,2.209-1.695,4-3.787,4H10.525c-2.092,0-3.787-1.791-3.787-4V8.246c0-2.209,1.695-4,3.787-4h23.812
	c2.092,0,3.787,1.791,3.787,4V50.758z"/>
<g id="Layer_2">
</g>
<path opacity="0.9" fill="#FFFFFF" enable-background="new    " d="M33.705,5.586H11.158c-1.98,0-3.586,1.696-3.586,3.788V49.63
	c0,2.093,1.604,3.787,3.586,3.787h22.547c1.98,0,3.586-1.694,3.586-3.787V9.374C37.291,7.282,35.686,5.586,33.705,5.586z
	 M22.431,51.758c-1.519,0-2.75-1.23-2.75-2.75c0-1.519,1.231-2.75,2.75-2.75s2.75,1.231,2.75,2.75
	C25.181,50.527,23.949,51.758,22.431,51.758z M34.109,42.148c0,1.158-0.938,2.098-2.098,2.098H12.849
	c-1.157,0-2.097-0.938-2.097-2.098V10.51c0-1.158,0.938-2.098,2.097-2.098h19.163c1.158,0,2.098,0.939,2.098,2.098V42.148z"/>
</svg>
