<?xml version="1.0" encoding="utf-8"?>
<!-- Generator: Adobe Illustrator 16.0.3, SVG Export Plug-In . SVG Version: 6.00 Build 0)  -->
<!DOCTYPE svg PUBLIC "-//W3C//DTD SVG 1.1//EN" "http://www.w3.org/Graphics/SVG/1.1/DTD/svg11.dtd">
<svg version="1.1" id="Layer_1" xmlns="http://www.w3.org/2000/svg" xmlns:xlink="http://www.w3.org/1999/xlink" x="0px" y="0px"
	 width="23px" height="23px" viewBox="8.541 3.172 23 23" enable-background="new 8.541 3.172 23 23" xml:space="preserve">
<circle opacity="0.3" fill="#010101" enable-background="new    " cx="20.041" cy="14.672" r="11.5"/>
<g>
	<path fill="#FFFFFF" d="M22.488,18.127c0,0,0.012-0.621,0.035-0.912c0.586-0.018,0.094-0.051,0.979-0.074
		c2.097-0.09,1.808-0.176,2.539-0.312c1.554-0.283,2.132-1.367,2.062-2.157c-0.067-0.807-0.637-1.835-1.873-2.066
		c-0.531-0.111-0.33-0.229-2.797-0.288c-0.61-0.029-0.309-0.044-1.045-0.049c0.024-0.744,0.01-0.452-0.02-1.065
		c-0.061-2.468-0.104-2.295-0.215-2.823C21.92,7.142,20.957,6.833,20.15,6.77c-0.79-0.073-1.956,0.365-2.239,1.918
		c-0.131,0.735-0.226,0.534-0.306,2.638c-0.025,0.885-0.004,0.407-0.052,0.986c-0.291,0.005-1.072,0.103-1.072,0.103
		c-2.102,0.066-1.887,0.08-2.633,0.225c-1.549,0.276-2.009,1.398-1.942,2.19c0.078,0.807,0.44,1.596,1.671,1.827
		c0.532,0.106,0.448,0.295,2.904,0.37c0.636,0.023,0.4,0.017,1.128,0.021c-0.032,0.729-0.028,0.439-0.002,1.076
		c0.073,2.453,0.169,2.613,0.28,3.145c0.227,1.232,1.253,1.607,2.057,1.687c0.796,0.067,1.914-0.429,2.193-1.978
		C22.279,20.23,22.414,20.223,22.488,18.127z"/>
</g>
</svg>
