<?xml version="1.0" encoding="utf-8"?>
<!-- Generator: Adobe Illustrator 16.0.4, SVG Export Plug-In . SVG Version: 6.00 Build 0)  -->
<!DOCTYPE svg PUBLIC "-//W3C//DTD SVG 1.1//EN" "http://www.w3.org/Graphics/SVG/1.1/DTD/svg11.dtd">
<svg version="1.1" id="Layer_1" xmlns="http://www.w3.org/2000/svg" xmlns:xlink="http://www.w3.org/1999/xlink" x="0px" y="0px"
	 width="23px" height="23px" viewBox="0 0 23 23" enable-background="new 0 0 23 23" xml:space="preserve">
<circle opacity="0.3" cx="11.5" cy="11.5" r="11.5"/>
<path fill="#FFFFFF" d="M18.852,11.263c-0.096-0.562-0.837-1.416-1.06-1.639c0,0-4.137-4.581-5.399-5.016
	c-0.718-0.248-1.377,0.137-1.542,0.936c-0.116,0.571-0.168,1.712-0.182,3.008C9.644,8.539,8.723,8.481,7.366,8.481
	c-2.84,0-3.863,0.545-3.863,2.847c0,2.328,0.774,3.266,3.615,3.266c1.285,0,2.162-0.109,3.607-0.152
	c0.012,1.043,0.016,1.871,0,2.029c-0.04,0.391-0.043,0.826,0.088,1.191c0.264,0.729,0.938,0.619,1.511,0.325
	c0.803-0.411,5.765-4.987,6.107-5.337C18.773,12.299,18.938,11.781,18.852,11.263z"/>
</svg>
