<?xml version="1.0" encoding="utf-8"?>
<!-- Generator: Adobe Illustrator 16.0.3, SVG Export Plug-In . SVG Version: 6.00 Build 0)  -->
<!DOCTYPE svg PUBLIC "-//W3C//DTD SVG 1.1//EN" "http://www.w3.org/Graphics/SVG/1.1/DTD/svg11.dtd">
<svg version="1.1" id="Layer_1" xmlns="http://www.w3.org/2000/svg" xmlns:xlink="http://www.w3.org/1999/xlink" x="0px" y="0px"
	 width="23px" height="23px" viewBox="8.388 2.549 23 23" enable-background="new 8.388 2.549 23 23" xml:space="preserve">
<circle opacity="0.3" fill="#010101" enable-background="new    " cx="19.888" cy="14.049" r="11.5"/>
<g>
	<path fill="#FFFFFF" d="M25.872,8.02c0-0.436-0.457-1.152-1.414-1.152l-10.232,0.63c-0.826,0.065-1,0.391-1.021,1.259l0.652,11.321
		c0.065,0.63,0.651,1.15,1.281,1.15l10.428-0.563c0.719,0,1.006-0.326,1.006-1.021L25.872,8.02z M23.221,16.298l-6.324,0.435
		c-0.759,0.021-1.086-0.238-1.194-1l-0.371-5.235C15.311,9.78,15.615,9.41,16.42,9.345l6.301-0.412
		c0.717-0.044,1.195,0.24,1.281,1.043l0.326,5.193C24.35,15.993,24.001,16.211,23.221,16.298z"/>
</g>
</svg>
