<?xml version="1.0" encoding="utf-8"?>
<!-- Generator: Adobe Illustrator 16.0.3, SVG Export Plug-In . SVG Version: 6.00 Build 0)  -->
<!DOCTYPE svg PUBLIC "-//W3C//DTD SVG 1.1//EN" "http://www.w3.org/Graphics/SVG/1.1/DTD/svg11.dtd">
<svg version="1.1" id="Layer_1" xmlns="http://www.w3.org/2000/svg" xmlns:xlink="http://www.w3.org/1999/xlink" x="0px" y="0px"
	 width="23px" height="23px" viewBox="7.771 2.631 23 23" enable-background="new 7.771 2.631 23 23" xml:space="preserve">
<circle opacity="0.3" fill="#010101" enable-background="new    " cx="19.271" cy="14.131" r="11.5"/>
<path fill="#FFFFFF" d="M19.511,21.794c0.562-0.096,1.416-0.836,1.64-1.06c0,0,4.582-4.139,5.018-5.399
	c0.248-0.718-0.139-1.377-0.938-1.541c-0.57-0.117-1.711-0.168-3.008-0.183c0.014-1.024,0.069-1.946,0.069-3.303
	c0-2.841-0.545-3.863-2.846-3.863c-2.328,0-3.266,0.774-3.266,3.615c0,1.284,0.109,2.161,0.152,3.606
	c-1.043,0.012-1.871,0.017-2.029,0c-0.391-0.039-0.826-0.043-1.191,0.088c-0.729,0.265-0.619,0.938-0.324,1.512
	c0.41,0.803,4.986,5.766,5.336,6.107C18.476,21.716,18.994,21.88,19.511,21.794z"/>
</svg>
