<?xml version="1.0" encoding="utf-8"?>
<!-- Generator: Adobe Illustrator 16.0.4, SVG Export Plug-In . SVG Version: 6.00 Build 0)  -->
<!DOCTYPE svg PUBLIC "-//W3C//DTD SVG 1.1//EN" "http://www.w3.org/Graphics/SVG/1.1/DTD/svg11.dtd">
<svg version="1.1" id="bubble_1_border" xmlns="http://www.w3.org/2000/svg" xmlns:xlink="http://www.w3.org/1999/xlink" x="0px"
	 y="0px" width="87px" height="68px" viewBox="0 0 87 68" enable-background="new 0 0 87 68" xml:space="preserve">
<g>
	<g>
		<path fill="#FFFFFF" d="M43.922,6.504c9.948,0,18.563,2.46,25.848,7.381c7.35,4.973,11.287,11.125,11.818,18.46
			c0.519,7.334-2.482,13.049-9.005,17.147c-6.532,4.098-15.913,6.449-28.138,7.049c-1.752,0.086-3.459,0.129-5.117,0.129
			c-9.913,0-18.147-1.53-24.708-4.594C6.96,48.5,3.726,42.426,4.917,33.852c1.189-8.573,5.414-15.262,12.671-20.064
			c7.271-4.802,15.946-7.229,26.023-7.282C43.714,6.504,43.819,6.504,43.922,6.504 M43.923,4.754h-0.001l-0.32,0.001
			c-10.376,0.054-19.453,2.602-26.979,7.572C8.96,17.397,4.439,24.558,3.183,33.611C1.88,42.993,5.479,49.739,13.879,53.662
			c6.761,3.156,15.323,4.758,25.449,4.758c1.679,0,3.43-0.044,5.203-0.131c12.469-0.611,22.22-3.072,28.981-7.314
			c7.082-4.449,10.386-10.759,9.821-18.753C82.764,24.355,78.53,17.7,70.75,12.436C63.205,7.338,54.18,4.754,43.923,4.754
			L43.923,4.754z"/>
	</g>
	<path opacity="0.2" fill-rule="evenodd" clip-rule="evenodd" d="M7.459,29.428c0.854,8.638,8.267,16.822,22.238,24.548
		C11.47,51.588,4.056,43.406,7.459,29.428z"/>
	<path opacity="0.4" fill-rule="evenodd" clip-rule="evenodd" fill="#FFFFFF" d="M79.084,31.758
		C73.896,23.04,65.344,15.731,53.43,9.833C66.227,12.012,74.777,19.321,79.084,31.758z"/>
</g>
</svg>
