<?xml version="1.0" encoding="utf-8"?>
<!-- Generator: Adobe Illustrator 16.0.4, SVG Export Plug-In . SVG Version: 6.00 Build 0)  -->
<!DOCTYPE svg PUBLIC "-//W3C//DTD SVG 1.1//EN" "http://www.w3.org/Graphics/SVG/1.1/DTD/svg11.dtd">
<svg version="1.1" id="bubble_1_border" xmlns="http://www.w3.org/2000/svg" xmlns:xlink="http://www.w3.org/1999/xlink" x="0px"
	 y="0px" width="87px" height="68px" viewBox="0 0 87 68" enable-background="new 0 0 87 68" xml:space="preserve">
<g>
	<g>
		<path fill="#FFFFFF" d="M43.868,5.955c9.312,0,17.376,2.501,24.195,7.504c6.878,5.056,10.565,11.31,11.062,18.767
			c0.485,7.457-2.323,13.268-8.429,17.434c-6.115,4.166-14.896,6.555-26.339,7.164c-1.645,0.088-3.246,0.132-4.803,0.132
			c-9.274,0-16.979-1.557-23.117-4.67C9.269,48.65,6.241,42.475,7.355,33.758c1.113-8.716,5.068-15.516,11.861-20.398
			c6.807-4.882,14.926-7.349,24.359-7.403C43.673,5.956,43.771,5.955,43.868,5.955 M43.868,4.205l-0.302,0.001
			c-9.759,0.056-18.294,2.657-25.37,7.731C11.022,17.094,6.791,24.36,5.619,33.536c-1.213,9.488,2.161,16.321,10.027,20.31
			c6.357,3.225,14.401,4.859,23.908,4.859c1.58,0,3.228-0.045,4.896-0.135c11.714-0.623,20.876-3.135,27.231-7.465
			c6.624-4.521,9.716-10.91,9.189-18.994c-0.53-7.962-4.491-14.711-11.772-20.063C62.005,6.844,53.516,4.205,43.868,4.205
			L43.868,4.205z"/>
	</g>
	<path opacity="0.2" fill-rule="evenodd" clip-rule="evenodd" d="M9.735,29.26c0.799,8.783,7.738,17.102,20.817,24.956
		C13.489,51.788,6.549,43.47,9.735,29.26z"/>
	<path opacity="0.4" fill-rule="evenodd" clip-rule="evenodd" fill="#FFFFFF" d="M76.782,31.629
		c-4.856-8.863-12.863-16.293-24.016-22.29C64.745,11.555,72.749,18.985,76.782,31.629z"/>
</g>
</svg>
