<?xml version="1.0" encoding="utf-8"?>
<!-- Generator: Adobe Illustrator 16.0.4, SVG Export Plug-In . SVG Version: 6.00 Build 0)  -->
<!DOCTYPE svg PUBLIC "-//W3C//DTD SVG 1.1//EN" "http://www.w3.org/Graphics/SVG/1.1/DTD/svg11.dtd">
<svg version="1.1" id="Layer_3" xmlns="http://www.w3.org/2000/svg" xmlns:xlink="http://www.w3.org/1999/xlink" x="0px" y="0px"
	 width="261px" height="68px" viewBox="0 0 261 68" enable-background="new 0 0 261 68" xml:space="preserve">
<g>
	<g opacity="0.15">
		<path fill-rule="evenodd" clip-rule="evenodd" d="M68.461,16.485c6.892,5.804,10.586,12.984,11.085,21.544
			c0.487,8.561-2.331,15.231-8.446,20.014c-6.129,4.781-14.927,7.523-26.394,8.226c-11.469,0.7-20.794-1.036-27.979-5.21
			S6.509,49.795,7.625,39.789c1.116-10.006,5.08-17.812,11.887-23.418c6.82-5.604,14.957-8.438,24.411-8.5
			C53.377,7.811,61.557,10.682,68.461,16.485z"/>
	</g>
	<g>
		<g>
			<path fill-rule="evenodd" clip-rule="evenodd" fill="#259BF6" d="M67.13,11.697c6.618,5.469,10.163,12.234,10.642,20.301
				c0.467,8.065-2.235,14.352-8.107,18.859c-5.884,4.504-14.331,7.09-25.338,7.75c-11.012,0.66-19.964-0.977-26.86-4.91
				c-6.898-3.932-9.811-10.612-8.738-20.041c1.071-9.43,4.875-16.785,11.411-22.066c6.549-5.281,14.359-7.951,23.436-8.009
				C52.648,3.523,60.502,6.229,67.13,11.697z"/>
		</g>
	</g>
</g>
<g>
	<g opacity="0.15">
		<path fill-rule="evenodd" clip-rule="evenodd" d="M155.461,16.485c6.892,5.804,10.586,12.984,11.085,21.544
			c0.487,8.561-2.331,15.231-8.446,20.014c-6.129,4.781-14.927,7.523-26.394,8.226c-11.469,0.7-20.794-1.036-27.979-5.21
			s-10.218-11.264-9.102-21.27c1.116-10.006,5.08-17.812,11.887-23.418c6.82-5.604,14.957-8.438,24.411-8.5
			C140.377,7.811,148.557,10.682,155.461,16.485z"/>
	</g>
	<g>
		<g>
			<path fill-rule="evenodd" clip-rule="evenodd" fill="#51AFF8" d="M154.13,11.697c6.618,5.469,10.163,12.234,10.642,20.301
				c0.467,8.065-2.235,14.352-8.107,18.859c-5.884,4.504-14.331,7.09-25.338,7.75c-11.012,0.66-19.964-0.977-26.86-4.91
				c-6.898-3.932-9.811-10.612-8.738-20.041c1.071-9.43,4.875-16.785,11.411-22.066c6.549-5.281,14.359-7.951,23.436-8.009
				C139.648,3.523,147.502,6.229,154.13,11.697z"/>
		</g>
	</g>
</g>
<g>
	<g opacity="0.15">
		<path fill-rule="evenodd" clip-rule="evenodd" d="M242.461,16.485c6.892,5.804,10.586,12.984,11.085,21.544
			c0.487,8.561-2.331,15.231-8.446,20.014c-6.129,4.781-14.927,7.523-26.394,8.226c-11.469,0.7-20.794-1.036-27.979-5.21
			c-7.184-4.174-10.217-11.264-9.102-21.27c1.116-10.006,5.08-17.812,11.887-23.418c6.82-5.604,14.957-8.438,24.411-8.5
			C227.377,7.811,235.557,10.682,242.461,16.485z"/>
	</g>
	<g>
		<g>
			<path fill-rule="evenodd" clip-rule="evenodd" fill="#5EBC37" d="M241.13,11.697c6.618,5.469,10.163,12.234,10.642,20.301
				c0.467,8.065-2.235,14.352-8.107,18.859c-5.884,4.504-14.331,7.09-25.338,7.75c-11.012,0.66-19.964-0.977-26.859-4.91
				c-6.898-3.932-9.811-10.612-8.738-20.041c1.07-9.43,4.875-16.785,11.41-22.066c6.549-5.281,14.359-7.951,23.436-8.009
				C226.648,3.523,234.502,6.229,241.13,11.697z"/>
		</g>
	</g>
</g>
</svg>
