<?xml version="1.0" encoding="utf-8"?>
<!-- Generator: Adobe Illustrator 16.0.4, SVG Export Plug-In . SVG Version: 6.00 Build 0)  -->
<!DOCTYPE svg PUBLIC "-//W3C//DTD SVG 1.1//EN" "http://www.w3.org/Graphics/SVG/1.1/DTD/svg11.dtd">
<svg version="1.1" id="Layer_2" xmlns="http://www.w3.org/2000/svg" xmlns:xlink="http://www.w3.org/1999/xlink" x="0px" y="0px"
	 width="261px" height="68px" viewBox="0 0 261 68" enable-background="new 0 0 261 68" xml:space="preserve">
<g>
	<g>
		<g opacity="0.15">
			<path fill-rule="evenodd" clip-rule="evenodd" d="M69.446,17.885C76.61,23.25,80.45,29.889,80.97,37.801
				c0.506,7.913-2.423,14.08-8.78,18.501c-6.371,4.422-15.516,6.956-27.437,7.604c-11.921,0.647-21.615-0.957-29.083-4.816
				C8.202,55.231,5.049,48.677,6.208,39.428c1.161-9.25,5.28-16.467,12.356-21.647c7.089-5.182,15.548-7.8,25.375-7.857
				C53.767,9.867,62.269,12.521,69.446,17.885z"/>
		</g>
		<g>
			<g>
				<path fill-rule="evenodd" clip-rule="evenodd" fill="#259BF6" d="M68.062,13.459c6.878,5.056,10.565,11.311,11.062,18.767
					c0.485,7.457-2.323,13.268-8.429,17.434c-6.115,4.166-14.896,6.555-26.339,7.164c-11.445,0.61-20.751-0.902-27.919-4.538
					C9.269,48.65,6.241,42.475,7.355,33.758c1.113-8.717,5.068-15.516,11.861-20.398c6.807-4.882,14.926-7.35,24.359-7.403
					C53.011,5.903,61.173,8.404,68.062,13.459z"/>
			</g>
		</g>
	</g>
</g>
<g>
	<g>
		<g opacity="0.15">
			<path fill-rule="evenodd" clip-rule="evenodd" d="M156.446,17.885c7.164,5.365,11.004,12.004,11.523,19.916
				c0.506,7.913-2.423,14.08-8.78,18.501c-6.371,4.422-15.516,6.956-27.437,7.604c-11.921,0.647-21.615-0.957-29.083-4.816
				c-7.468-3.857-10.622-10.412-9.462-19.661c1.161-9.25,5.28-16.467,12.356-21.647c7.089-5.182,15.548-7.8,25.375-7.857
				C140.767,9.867,149.269,12.521,156.446,17.885z"/>
		</g>
		<g>
			<g>
				<path fill-rule="evenodd" clip-rule="evenodd" fill="#51AFF8" d="M155.062,13.459c6.878,5.056,10.565,11.311,11.062,18.767
					c0.485,7.457-2.323,13.268-8.429,17.434c-6.115,4.166-14.896,6.555-26.339,7.164c-11.445,0.61-20.751-0.902-27.919-4.538
					c-7.169-3.635-10.197-9.811-9.083-18.527c1.113-8.717,5.068-15.516,11.861-20.398c6.807-4.882,14.926-7.35,24.359-7.403
					C140.011,5.903,148.173,8.404,155.062,13.459z"/>
			</g>
		</g>
	</g>
</g>
<g>
	<g>
		<g opacity="0.15">
			<path fill-rule="evenodd" clip-rule="evenodd" d="M243.446,17.885c7.164,5.365,11.004,12.004,11.523,19.916
				c0.506,7.913-2.423,14.08-8.78,18.501c-6.371,4.422-15.516,6.956-27.437,7.604s-21.614-0.957-29.083-4.816
				c-7.468-3.857-10.621-10.412-9.461-19.661c1.16-9.25,5.279-16.467,12.355-21.647c7.09-5.182,15.549-7.8,25.375-7.857
				C227.767,9.867,236.269,12.521,243.446,17.885z"/>
		</g>
		<g>
			<g>
				<path fill-rule="evenodd" clip-rule="evenodd" fill="#5EBC37" d="M242.062,13.459c6.878,5.056,10.565,11.311,11.062,18.767
					c0.485,7.457-2.323,13.268-8.429,17.434c-6.115,4.166-14.896,6.555-26.339,7.164c-11.445,0.61-20.751-0.902-27.92-4.538
					c-7.169-3.635-10.197-9.811-9.082-18.527c1.113-8.717,5.068-15.516,11.861-20.398c6.807-4.882,14.926-7.35,24.359-7.403
					C227.011,5.903,235.173,8.404,242.062,13.459z"/>
			</g>
		</g>
	</g>
</g>
</svg>
