<?xml version="1.0" encoding="utf-8"?>
<!-- Generator: Adobe Illustrator 16.0.4, SVG Export Plug-In . SVG Version: 6.00 Build 0)  -->
<!DOCTYPE svg PUBLIC "-//W3C//DTD SVG 1.1//EN" "http://www.w3.org/Graphics/SVG/1.1/DTD/svg11.dtd">
<svg version="1.1" id="bubble_1_border" xmlns="http://www.w3.org/2000/svg" xmlns:xlink="http://www.w3.org/1999/xlink" x="0px"
	 y="0px" width="87px" height="68px" viewBox="0 0 87 68" enable-background="new 0 0 87 68" xml:space="preserve">
<g>
	<g>
		<path fill="#FFFFFF" d="M43.855,3.58c8.955,0,16.715,2.706,23.274,8.117c6.618,5.469,10.163,12.235,10.642,20.302
			c0.467,8.065-2.235,14.351-8.107,18.859c-5.884,4.504-14.331,7.09-25.338,7.75c-1.582,0.095-3.123,0.143-4.62,0.143
			c-8.923,0-16.335-1.685-22.24-5.053c-6.898-3.932-9.811-10.612-8.738-20.041c1.071-9.43,4.875-16.786,11.411-22.067
			c6.549-5.281,14.359-7.951,23.436-8.008C43.668,3.581,43.762,3.58,43.855,3.58 M43.856,1.83l-0.292,0.001
			c-9.438,0.06-17.689,2.885-24.523,8.396C12.163,15.786,8.108,23.602,6.989,33.459c-1.154,10.145,2.08,17.465,9.61,21.758
			c6.145,3.505,13.919,5.282,23.107,5.282c1.525,0,3.115-0.049,4.724-0.146c11.308-0.679,20.155-3.406,26.297-8.107
			c6.334-4.862,9.291-11.708,8.791-20.35c-0.507-8.537-4.3-15.786-11.273-21.55C61.393,4.696,53.188,1.83,43.856,1.83L43.856,1.83z"
			/>
	</g>
	<path opacity="0.2" fill-rule="evenodd" clip-rule="evenodd" d="M11.017,28.791c0.77,9.5,7.444,18.5,20.026,26.995
		C14.629,53.16,7.953,44.16,11.017,28.791z"/>
	<path opacity="0.4" fill-rule="evenodd" clip-rule="evenodd" fill="#FFFFFF" d="M75.518,31.353
		C70.846,21.765,63.145,13.727,52.414,7.24C63.938,9.637,71.639,17.675,75.518,31.353z"/>
</g>
</svg>
