<?xml version="1.0" encoding="utf-8"?>
<!-- Generator: Adobe Illustrator 16.0.4, SVG Export Plug-In . SVG Version: 6.00 Build 0)  -->
<!DOCTYPE svg PUBLIC "-//W3C//DTD SVG 1.1//EN" "http://www.w3.org/Graphics/SVG/1.1/DTD/svg11.dtd">
<svg version="1.1" xmlns="http://www.w3.org/2000/svg" xmlns:xlink="http://www.w3.org/1999/xlink" x="0px" y="0px" width="261px"
	 height="68px" viewBox="0 0 261 68" enable-background="new 0 0 261 68" xml:space="preserve">
<g id="bubble_bg_1_off">
	<g>
		<g opacity="0.15">
			<path fill-rule="evenodd" clip-rule="evenodd" d="M71.248,18.239c7.654,5.277,11.756,11.807,12.309,19.589
				c0.541,7.785-2.586,13.852-9.379,18.199c-6.806,4.348-16.574,6.842-29.309,7.479C32.132,64.145,21.778,62.564,13.8,58.77
				S2.453,48.527,3.691,39.43c1.24-9.1,5.641-16.198,13.2-21.294c7.574-5.096,16.609-7.672,27.106-7.729
				C54.497,10.351,63.58,12.962,71.248,18.239z"/>
		</g>
		<g>
			<g>
				<path fill-rule="evenodd" clip-rule="evenodd" fill="#259BF6" d="M69.77,13.885c7.35,4.973,11.287,11.125,11.818,18.46
					c0.519,7.334-2.482,13.049-9.005,17.147c-6.532,4.098-15.913,6.449-28.138,7.049c-12.226,0.598-22.167-0.889-29.826-4.465
					C6.96,48.5,3.726,42.426,4.917,33.852c1.189-8.573,5.414-15.262,12.671-20.064c7.271-4.802,15.946-7.229,26.023-7.282
					C53.689,6.453,62.41,8.913,69.77,13.885z"/>
			</g>
		</g>
	</g>
</g>
<g id="bubble_bg_hover">
	<g>
		<g>
			<g opacity="0.15">
				<path fill-rule="evenodd" clip-rule="evenodd" d="M158.248,18.239c7.654,5.277,11.756,11.807,12.309,19.589
					c0.541,7.785-2.586,13.852-9.379,18.199c-6.806,4.348-16.574,6.842-29.309,7.479c-12.736,0.639-23.092-0.941-31.069-4.736
					S89.453,48.527,90.691,39.43c1.24-9.1,5.641-16.198,13.2-21.294c7.573-5.096,16.608-7.672,27.106-7.729
					C141.497,10.351,150.58,12.962,158.248,18.239z"/>
			</g>
			<g>
				<g>
					<path fill-rule="evenodd" clip-rule="evenodd" fill="#51AFF8" d="M156.77,13.885c7.35,4.973,11.287,11.125,11.818,18.46
						c0.519,7.334-2.482,13.049-9.005,17.147c-6.532,4.098-15.913,6.449-28.138,7.049c-12.226,0.598-22.167-0.889-29.826-4.465
						c-7.658-3.576-10.894-9.65-9.703-18.225c1.189-8.573,5.414-15.262,12.672-20.064c7.271-4.802,15.945-7.229,26.023-7.282
						C140.689,6.453,149.41,8.913,156.77,13.885z"/>
				</g>
			</g>
		</g>
	</g>
</g>
<g id="bubble_bg_selected">
	<g>
		<g>
			<g opacity="0.15">
				<path fill-rule="evenodd" clip-rule="evenodd" d="M245.248,18.239c7.654,5.277,11.756,11.807,12.309,19.589
					c0.541,7.785-2.586,13.852-9.379,18.199c-6.806,4.348-16.574,6.842-29.309,7.479c-12.736,0.639-23.092-0.941-31.069-4.736
					s-11.347-10.242-10.108-19.34c1.24-9.1,5.641-16.198,13.2-21.294c7.573-5.096,16.608-7.672,27.106-7.729
					C228.497,10.351,237.58,12.962,245.248,18.239z"/>
			</g>
			<g>
				<g>
					<path fill-rule="evenodd" clip-rule="evenodd" fill="#5EBC37" d="M243.77,13.885c7.35,4.973,11.287,11.125,11.818,18.46
						c0.519,7.334-2.482,13.049-9.005,17.147c-6.532,4.098-15.913,6.449-28.138,7.049c-12.226,0.598-22.167-0.889-29.826-4.465
						c-7.658-3.576-10.894-9.65-9.703-18.225c1.189-8.573,5.414-15.262,12.672-20.064c7.271-4.802,15.945-7.229,26.023-7.282
						C227.689,6.453,236.41,8.913,243.77,13.885z"/>
				</g>
			</g>
		</g>
	</g>
</g>
</svg>
