<?xml version="1.0" encoding="utf-8"?>
<!-- Generator: Adobe Illustrator 16.0.4, SVG Export Plug-In . SVG Version: 6.00 Build 0)  -->
<!DOCTYPE svg PUBLIC "-//W3C//DTD SVG 1.1//EN" "http://www.w3.org/Graphics/SVG/1.1/DTD/svg11.dtd">
<svg version="1.1" id="Layer_1" xmlns="http://www.w3.org/2000/svg" xmlns:xlink="http://www.w3.org/1999/xlink" x="0px" y="0px"
	 width="311px" height="243px" viewBox="0 0 311 243" enable-background="new 0 0 311 243" xml:space="preserve">
<g>
	<g>
		<path fill="#FFFFFF" d="M156.768,12.793c32.018-0.001,59.752,9.667,83.202,29.005c23.657,19.545,36.331,43.72,38.041,72.548
			c1.669,28.82-7.99,51.284-28.982,67.394c-21.032,16.094-51.229,25.334-90.574,27.693c-5.658,0.339-11.164,0.509-16.518,0.509
			c-31.894,0-58.39-6.018-79.498-18.055c-24.66-14.05-35.07-37.923-31.238-71.615c3.828-33.7,17.429-59.985,40.789-78.859
			c23.411-18.872,51.333-28.412,83.776-28.618C156.099,12.794,156.437,12.793,156.768,12.793 M156.773,9.666v3.127l-0.002-3.127
			c-0.342,0-0.687,0.001-1.025,0.003c-33.013,0.21-61.853,10.071-85.72,29.311c-23.92,19.327-38.027,46.559-41.933,80.941
			c-3.969,34.897,7.065,60.024,32.797,74.685c21.484,12.253,48.752,18.465,81.046,18.465c5.391,0,11.011-0.173,16.706-0.514
			c39.787-2.386,70.837-11.918,92.287-28.332c21.768-16.705,31.929-40.275,30.204-70.058c-1.756-29.597-14.935-54.755-39.171-74.779
			C218.045,19.665,189.385,9.666,156.773,9.666L156.773,9.666z"/>
	</g>
	<path opacity="0.2" fill-rule="evenodd" clip-rule="evenodd" d="M39.383,102.884c2.751,33.951,26.611,66.111,71.589,96.467
		C52.297,189.969,28.43,157.807,39.383,102.884z"/>
	<path opacity="0.4" fill-rule="evenodd" clip-rule="evenodd" fill="#FFFFFF" d="M269.954,112.041
		c-16.701-34.262-44.23-62.988-82.59-86.167C228.562,34.439,256.089,63.163,269.954,112.041z"/>
</g>
</svg>
