<?xml version="1.0" encoding="utf-8"?>
<!-- Generator: Adobe Illustrator 16.0.3, SVG Export Plug-In . SVG Version: 6.00 Build 0)  -->
<!DOCTYPE svg PUBLIC "-//W3C//DTD SVG 1.1//EN" "http://www.w3.org/Graphics/SVG/1.1/DTD/svg11.dtd">
<svg version="1.1" id="Layer_1" xmlns="http://www.w3.org/2000/svg" xmlns:xlink="http://www.w3.org/1999/xlink" x="0px" y="0px"
	 width="23px" height="23px" viewBox="-161.895 384.188 23 23" enable-background="new -161.895 384.188 23 23"
	 xml:space="preserve">
<path fill="#FFFFFF" d="M-150.395,407.188c6.351,0,11.5-5.147,11.5-11.5c0-6.352-5.149-11.5-11.5-11.5s-11.5,5.148-11.5,11.5
	C-161.895,402.037-156.746,407.188-150.395,407.188z M-157.638,394.409c0.343-0.352,5.305-4.927,6.106-5.336
	c0.574-0.295,1.248-0.404,1.511,0.324c0.131,0.364,0.127,0.801,0.088,1.19c-0.017,0.158-0.012,0.986,0,2.029
	c1.445-0.043,2.322-0.153,3.607-0.153c2.841,0,3.615,0.938,3.615,3.267c0,2.302-1.023,2.847-3.863,2.847
	c-1.356,0-2.277-0.061-3.303-0.07c-0.014,1.295-0.065,2.438-0.182,3.008c-0.164,0.8-0.824,1.188-1.542,0.938
	c-1.262-0.438-5.398-5.02-5.398-5.02c-0.223-0.224-0.964-1.074-1.059-1.64C-158.144,395.278-157.979,394.761-157.638,394.409z"/>
</svg>
