<?xml version="1.0" encoding="utf-8"?>
<!-- Generator: Adobe Illustrator 16.0.4, SVG Export Plug-In . SVG Version: 6.00 Build 0)  -->
<!DOCTYPE svg PUBLIC "-//W3C//DTD SVG 1.1//EN" "http://www.w3.org/Graphics/SVG/1.1/DTD/svg11.dtd">
<svg version="1.1" id="game_icon" xmlns="http://www.w3.org/2000/svg" xmlns:xlink="http://www.w3.org/1999/xlink" x="0px" y="0px"
	 width="87px" height="68px" viewBox="0 0 87 68" enable-background="new 0 0 87 68" xml:space="preserve">
<g>
	<g opacity="0.05">
		<path fill="#FFFFFF" d="M43.457,40.298c-8.348,0-9.247,3.709-15.797,3.047c-5.297-0.535-10.479-7.184-6.24-15.131
			c3.377-6.332,13.502-9.636,21.908-9.636h0.345c8.406,0,18.533,3.304,21.91,9.636c4.238,7.948-0.945,14.596-6.24,15.131
			c-6.551,0.662-7.449-3.047-15.797-3.047H43.457z"/>
		<path d="M43.672,18.577c8.406,0,18.533,3.304,21.91,9.636c4.238,7.948-0.945,14.596-6.24,15.131
			c-0.537,0.053-1.037,0.078-1.505,0.078c-5.243,0-6.628-3.125-14.292-3.125h-0.088c-7.664,0-9.05,3.125-14.292,3.125
			c-0.469,0-0.968-0.025-1.505-0.078c-5.297-0.535-10.479-7.184-6.24-15.131c3.377-6.332,13.502-9.636,21.908-9.636H43.672
			 M43.672,16.577h-0.345c-8.654,0-19.754,3.347-23.674,10.696c-2.249,4.218-2.4,8.582-0.424,12.287
			c1.72,3.223,4.873,5.436,8.229,5.773c0.586,0.061,1.16,0.09,1.706,0.09c2.763,0,4.632-0.756,6.438-1.486
			c1.99-0.807,4.049-1.639,7.854-1.639h0.088c3.805,0,5.863,0.832,7.853,1.639c1.808,0.73,3.677,1.486,6.439,1.486
			c0.545,0,1.119-0.029,1.706-0.09c3.355-0.338,6.508-2.551,8.228-5.775c1.976-3.703,1.825-8.067-0.424-12.285
			C63.428,19.924,52.328,16.577,43.672,16.577L43.672,16.577z"/>
	</g>
	<path opacity="0.1" d="M30.582,27.463c0.645,0,1.169,0.524,1.169,1.169v2.534v0.5h0.5h2.534c0.645,0,1.17,0.525,1.17,1.169
		c0,0.646-0.525,1.171-1.17,1.171H32.25h-0.5v0.5v2.535c0,0.645-0.524,1.168-1.169,1.168c-0.646,0-1.17-0.523-1.17-1.168v-2.535
		v-0.5h-0.5h-2.535c-0.645,0-1.17-0.524-1.17-1.171c0-0.645,0.525-1.169,1.17-1.169h2.535h0.5v-0.5v-2.534
		C29.412,27.987,29.936,27.463,30.582,27.463 M30.582,26.963c-0.923,0-1.67,0.747-1.67,1.669v2.534h-2.535
		c-0.922,0-1.67,0.748-1.67,1.669c0,0.923,0.748,1.671,1.67,1.671h2.535v2.535c0,0.922,0.747,1.668,1.67,1.668
		c0.922,0,1.669-0.746,1.669-1.668v-2.535h2.534c0.923,0,1.67-0.748,1.67-1.671c0-0.921-0.747-1.669-1.67-1.669H32.25v-2.534
		C32.25,27.71,31.503,26.963,30.582,26.963L30.582,26.963z"/>
	<path opacity="0.05" d="M51.885,32.584L51.885,32.584c0.844,0,1.576,0.602,1.745,1.431c0.095,0.465,0.003,0.941-0.261,1.338
		c-0.262,0.396-0.664,0.668-1.131,0.764C52.12,36.14,52,36.151,51.881,36.151c-0.842,0-1.576-0.6-1.744-1.428
		c-0.195-0.963,0.428-1.907,1.391-2.103C51.646,32.598,51.766,32.584,51.885,32.584 M51.885,32.084c-0.15,0-0.304,0.016-0.457,0.047
		c-1.234,0.252-2.031,1.458-1.781,2.692c0.221,1.082,1.172,1.828,2.234,1.828c0.15,0,0.303-0.016,0.457-0.047
		c1.235-0.25,2.033-1.455,1.781-2.691C53.9,32.83,52.948,32.084,51.885,32.084L51.885,32.084z"/>
	<path opacity="0.05" d="M60.833,30.766c0.842,0,1.575,0.6,1.743,1.427c0.095,0.467,0.002,0.941-0.261,1.338
		c-0.263,0.399-0.664,0.669-1.131,0.765c-0.118,0.023-0.238,0.035-0.357,0.035c-0.843,0-1.576-0.6-1.745-1.427
		c-0.094-0.469-0.002-0.943,0.261-1.339c0.263-0.397,0.665-0.668,1.132-0.763C60.593,30.778,60.713,30.766,60.833,30.766
		 M60.833,30.266c-0.151,0-0.305,0.016-0.458,0.047c-1.236,0.25-2.033,1.455-1.783,2.689c0.221,1.083,1.173,1.829,2.235,1.829
		c0.151,0,0.304-0.014,0.457-0.045c1.235-0.252,2.033-1.458,1.781-2.692C62.846,31.012,61.895,30.266,60.833,30.266L60.833,30.266z"
		/>
	<path opacity="0.05" d="M55.291,27.555L55.291,27.555c0.705,0,1.317,0.502,1.458,1.193c0.079,0.391,0.003,0.787-0.218,1.119
		c-0.219,0.332-0.555,0.559-0.945,0.638c-0.099,0.021-0.199,0.03-0.299,0.03c-0.703,0-1.316-0.502-1.457-1.193
		c-0.164-0.805,0.357-1.593,1.162-1.756C55.091,27.565,55.191,27.555,55.291,27.555 M55.291,27.137
		c-0.126,0-0.254,0.013-0.383,0.039c-1.031,0.21-1.697,1.217-1.488,2.25c0.185,0.903,0.979,1.527,1.867,1.527
		c0.126,0,0.254-0.013,0.383-0.039c1.031-0.21,1.699-1.217,1.488-2.249C56.975,27.76,56.18,27.137,55.291,27.137L55.291,27.137z"/>
	<g>
		<path fill="none" d="M34.785,31.167H32.25v-2.534c0-0.922-0.747-1.669-1.669-1.669c-0.923,0-1.67,0.747-1.67,1.669v2.534h-2.535
			c-0.922,0-1.67,0.748-1.67,1.669c0,0.923,0.748,1.671,1.67,1.671h2.535v2.535c0,0.922,0.747,1.668,1.67,1.668
			c0.922,0,1.669-0.746,1.669-1.668v-2.535h2.534c0.923,0,1.67-0.748,1.67-1.671C36.455,31.915,35.708,31.167,34.785,31.167z"/>
		<circle fill="none" cx="51.883" cy="34.368" r="2.283"/>
		<circle fill="none" cx="60.83" cy="32.55" r="2.282"/>
		<path fill="#FFFFFF" d="M65.582,28.213c-3.377-6.332-13.504-9.636-21.91-9.636h-0.345c-8.406,0-18.531,3.304-21.908,9.636
			c-4.238,7.948,0.943,14.596,6.24,15.131c6.55,0.662,7.449-3.047,15.797-3.047h0.088c8.348,0,9.247,3.709,15.797,3.047
			C64.637,42.81,69.82,36.161,65.582,28.213z M34.785,34.507H32.25v2.535c0,0.922-0.747,1.668-1.669,1.668
			c-0.923,0-1.67-0.746-1.67-1.668v-2.535h-2.535c-0.922,0-1.67-0.748-1.67-1.671c0-0.921,0.748-1.669,1.67-1.669h2.535v-2.534
			c0-0.922,0.747-1.669,1.67-1.669c0.922,0,1.669,0.747,1.669,1.669v2.534h2.534c0.923,0,1.67,0.748,1.67,1.669
			C36.455,33.759,35.708,34.507,34.785,34.507z M52.338,36.604c-1.235,0.252-2.439-0.545-2.691-1.781
			c-0.25-1.234,0.547-2.44,1.781-2.692c1.236-0.25,2.441,0.547,2.691,1.782C54.371,35.149,53.573,36.354,52.338,36.604z
			 M53.42,29.426c-0.209-1.033,0.457-2.04,1.488-2.25c1.033-0.21,2.041,0.456,2.25,1.489c0.211,1.032-0.457,2.039-1.488,2.249
			C54.637,31.125,53.631,30.458,53.42,29.426z M57.92,39.456c-1.033,0.211-2.039-0.457-2.25-1.488
			c-0.209-1.033,0.457-2.039,1.488-2.25c1.033-0.209,2.041,0.457,2.25,1.49C59.619,38.239,58.951,39.247,57.92,39.456z
			 M61.284,34.786c-1.235,0.25-2.44-0.547-2.692-1.784c-0.25-1.234,0.547-2.439,1.783-2.689c1.234-0.252,2.439,0.545,2.69,1.781
			C63.317,33.328,62.52,34.534,61.284,34.786z"/>
	</g>
	<path opacity="0.05" d="M57.541,36.097L57.541,36.097c0.705,0,1.317,0.502,1.458,1.193c0.079,0.391,0.003,0.787-0.218,1.119
		c-0.219,0.332-0.555,0.559-0.945,0.639c-0.099,0.02-0.199,0.029-0.299,0.029c-0.703,0-1.316-0.502-1.457-1.193
		c-0.164-0.805,0.357-1.592,1.162-1.756C57.341,36.106,57.441,36.097,57.541,36.097 M57.541,35.679
		c-0.126,0-0.254,0.014-0.383,0.039c-1.031,0.211-1.697,1.217-1.488,2.25c0.185,0.904,0.979,1.527,1.867,1.527
		c0.126,0,0.254-0.012,0.383-0.039c1.031-0.209,1.699-1.217,1.488-2.248C59.225,36.302,58.43,35.679,57.541,35.679L57.541,35.679z"
		/>
</g>
</svg>
