<?xml version="1.0" encoding="utf-8"?>
<!-- Generator: Adobe Illustrator 16.0.4, SVG Export Plug-In . SVG Version: 6.00 Build 0)  -->
<!DOCTYPE svg PUBLIC "-//W3C//DTD SVG 1.1//EN" "http://www.w3.org/Graphics/SVG/1.1/DTD/svg11.dtd">
<svg version="1.1" xmlns="http://www.w3.org/2000/svg" xmlns:xlink="http://www.w3.org/1999/xlink" x="0px" y="0px" width="66px"
	 height="42px" viewBox="0 0 66 42" enable-background="new 0 0 66 42" xml:space="preserve">
<g id="game_icon">
	<g opacity="0.9">
		<g>
			<path fill="#6A51C2" d="M32.953,31.229c-9.183,0-10.172,4.08-17.377,3.352C9.75,33.99,4.049,26.677,8.711,17.936
				C12.426,10.97,23.564,7.335,32.81,7.335h0.38c9.246,0,20.385,3.635,24.1,10.601c4.662,8.741-1.04,16.055-6.864,16.644
				c-7.205,0.729-8.193-3.352-17.376-3.352H32.953z"/>
			<path fill="#6A51C2" d="M33.19,7.335c9.246,0,20.385,3.635,24.1,10.601c4.662,8.741-1.04,16.055-6.864,16.644
				c-0.591,0.059-1.141,0.086-1.654,0.086c-5.769,0-7.291-3.438-15.722-3.438h-0.097c-8.431,0-9.955,3.438-15.722,3.438
				c-0.516,0-1.064-0.027-1.655-0.086C9.75,33.99,4.049,26.677,8.711,17.936C12.426,10.97,23.564,7.335,32.81,7.335H33.19
				 M33.19,5.135h-0.38c-9.52,0-21.729,3.683-26.041,11.766c-2.474,4.64-2.641,9.439-0.466,13.515
				c1.892,3.545,5.36,5.979,9.051,6.352c0.645,0.066,1.276,0.1,1.877,0.1c3.039,0,5.095-0.832,7.082-1.637
				c2.189-0.885,4.454-1.801,8.64-1.801h0.097c4.185,0,6.448,0.916,8.638,1.801c1.988,0.805,4.045,1.637,7.084,1.637
				c0.6,0,1.23-0.032,1.877-0.1c3.689-0.371,7.158-2.807,9.05-6.353c2.174-4.075,2.008-8.874-0.466-13.514
				C54.921,8.817,42.711,5.135,33.19,5.135L33.19,5.135z"/>
		</g>
		<g>
			<circle fill="none" cx="42.221" cy="24.706" r="2.511"/>
			<circle fill="none" cx="52.062" cy="22.704" r="2.51"/>
		</g>
		<g>
			<path fill="none" d="M23.414,21.184h-2.788v-2.788c0-1.015-0.821-1.836-1.836-1.836s-1.837,0.821-1.837,1.836v2.788h-2.788
				c-1.015,0-1.837,0.822-1.837,1.837c0,1.015,0.822,1.836,1.837,1.836h2.788v2.789c0,1.015,0.822,1.836,1.837,1.836
				s1.836-0.821,1.836-1.836v-2.789h2.788c1.015,0,1.837-0.821,1.837-1.836C25.251,22.006,24.428,21.184,23.414,21.184z"/>
			<circle fill="none" cx="42.221" cy="24.706" r="2.511"/>
			<circle fill="none" cx="52.062" cy="22.704" r="2.51"/>
			<path fill="#FFFFFF" d="M57.29,17.936C53.575,10.97,42.436,7.335,33.19,7.335h-0.38c-9.246,0-20.384,3.635-24.099,10.601
				C4.049,26.677,9.75,33.99,15.576,34.579c7.205,0.729,8.194-3.353,17.377-3.353h0.097c9.183,0,10.171,4.08,17.376,3.353
				C56.25,33.99,61.952,26.677,57.29,17.936z M23.414,24.857h-2.788v2.787c0,1.016-0.821,1.836-1.836,1.836s-1.837-0.82-1.837-1.836
				v-2.787h-2.788c-1.015,0-1.837-0.822-1.837-1.838c0-1.015,0.822-1.836,1.837-1.836h2.788v-2.788c0-1.015,0.822-1.836,1.837-1.836
				s1.836,0.821,1.836,1.836v2.788h2.788c1.015,0,1.837,0.822,1.837,1.836C25.251,24.035,24.428,24.857,23.414,24.857z
				 M42.723,27.166c-1.359,0.275-2.685-0.602-2.961-1.96c-0.275-1.358,0.602-2.685,1.959-2.961c1.359-0.276,2.687,0.601,2.961,1.96
				C44.958,25.562,44.08,26.889,42.723,27.166z M43.912,19.269c-0.23-1.136,0.503-2.243,1.637-2.475
				c1.137-0.23,2.245,0.502,2.477,1.639c0.23,1.135-0.504,2.242-1.639,2.474C45.25,21.138,44.145,20.404,43.912,19.269z
				 M48.861,30.302c-1.137,0.231-2.242-0.502-2.475-1.638c-0.229-1.137,0.502-2.243,1.637-2.475c1.137-0.23,2.246,0.502,2.476,1.639
				C50.73,28.963,49.996,30.07,48.861,30.302z M52.562,25.164c-1.358,0.275-2.686-0.602-2.963-1.961
				c-0.273-1.357,0.603-2.684,1.963-2.959c1.356-0.277,2.684,0.6,2.959,1.959C54.799,23.562,53.922,24.889,52.562,25.164z"/>
		</g>
	</g>
</g>
<g id="Layer_2">
</g>
</svg>
