<?xml version="1.0" encoding="utf-8"?>
<!-- Generator: Adobe Illustrator 16.0.3, SVG Export Plug-In . SVG Version: 6.00 Build 0)  -->
<!DOCTYPE svg PUBLIC "-//W3C//DTD SVG 1.1//EN" "http://www.w3.org/Graphics/SVG/1.1/DTD/svg11.dtd">
<svg version="1.1" id="Layer_1" xmlns="http://www.w3.org/2000/svg" xmlns:xlink="http://www.w3.org/1999/xlink" x="0px" y="0px"
	 width="20.729px" height="20.729px" viewBox="0 0 20.729 20.729" enable-background="new 0 0 20.729 20.729" xml:space="preserve">
<circle fill="#E8E2F1" stroke="#342C77" stroke-width="2.25" stroke-miterlimit="10" cx="10.364" cy="10.364" r="9.239"/>
<g>
	<path fill="#342C77" d="M11.638,11.763c0,0.489-0.947,0.849-1.796,0.849c-0.669,0-1.194-0.276-1.124-0.86
		c0.312-2.594,2.368-3.384,2.368-4.396V7.256c0-0.62-0.604-0.865-0.816-0.865c-1.404,0-0.441,1.8-2.123,1.8
		c-0.8,0-1.192-0.457-1.192-1.078c0-1.73,1.714-2.615,3.527-2.615c2.123,0,3.167,1.273,3.167,2.874c0,2.22-1.816,1.942-2.012,3.804
		V11.763z M10.103,16.251c-0.8,0-1.583-0.449-1.583-1.346c0-1.024,0.8-1.509,1.583-1.509c0.8,0,1.6,0.484,1.617,1.509
		C11.72,15.784,10.903,16.251,10.103,16.251z"/>
</g>
</svg>
