<?xml version="1.0" encoding="utf-8"?>
<!-- Generator: Adobe Illustrator 16.0.4, SVG Export Plug-In . SVG Version: 6.00 Build 0)  -->
<!DOCTYPE svg PUBLIC "-//W3C//DTD SVG 1.1//EN" "http://www.w3.org/Graphics/SVG/1.1/DTD/svg11.dtd">
<svg version="1.1" id="Layer_1" xmlns="http://www.w3.org/2000/svg" xmlns:xlink="http://www.w3.org/1999/xlink" x="0px" y="0px"
	 width="38px" height="38px" viewBox="0 0 38 38" enable-background="new 0 0 38 38" xml:space="preserve">
<g opacity="0.4">
	<path fill="#FFFFFF" d="M29.091,27.147c-0.036-0.374-0.193-0.79-0.468-1.234c-0.521-0.844-4.468-4.619-6.79-6.788
		c1.549-1.39,6.37-5.804,6.963-7.417c0.087-0.237,0.135-0.476,0.144-0.711c0.03-0.944-0.56-1.867-1.567-1.957
		c-1.074-0.097-3.027,1.267-4.883,3.596c-1.293,1.621-2.633,3.186-3.328,3.987c-0.031,0.034-0.048,0.054-0.074,0.083
		c-0.011-0.012-0.017-0.02-0.028-0.032c-0.997-1.061-2.333-2.66-3.588-3.882c-1.699-1.653-3.083-2.993-3.812-3.146
		c-1.027-0.216-1.627,0.102-1.977,0.376c-0.658,0.521-0.826,0.995-0.77,1.434c0.047,0.373,0.218,0.784,0.506,1.22
		c0.531,0.804,4.377,4.269,6.785,6.388c-1.902,1.637-6.14,5.393-6.726,6.864c-0.093,0.234-0.147,0.472-0.161,0.706
		c-0.056,0.942,0.51,1.881,1.516,1.998c1.07,0.125,3.06-1.188,4.975-3.467c1.212-1.439,2.456-2.824,3.212-3.656
		c0.031,0.037,0.056,0.066,0.093,0.109c0.965,1.092,2.249,2.732,3.467,3.992c1.646,1.705,2.988,3.088,3.712,3.262
		c1.02,0.248,1.629-0.051,1.985-0.314C28.952,28.057,29.134,27.589,29.091,27.147z"/>
	<g>
		<path fill="#FFFFFF" d="M19,1.186c9.823,0,17.814,7.992,17.814,17.815c0,9.822-7.991,17.813-17.814,17.813
			c-9.823,0-17.814-7.991-17.814-17.813C1.186,9.178,9.177,1.186,19,1.186 M19,0C8.507,0,0,8.507,0,19.001C0,29.494,8.507,38,19,38
			c10.494,0,19-8.506,19-18.999C38,8.507,29.494,0,19,0L19,0z"/>
	</g>
</g>
</svg>
