<?xml version="1.0" encoding="utf-8"?>
<!-- Generator: Adobe Illustrator 16.0.3, SVG Export Plug-In . SVG Version: 6.00 Build 0)  -->
<!DOCTYPE svg PUBLIC "-//W3C//DTD SVG 1.1//EN" "http://www.w3.org/Graphics/SVG/1.1/DTD/svg11.dtd">
<svg version="1.1" id="Layer_1" xmlns="http://www.w3.org/2000/svg" xmlns:xlink="http://www.w3.org/1999/xlink" x="0px" y="0px"
	 width="33px" height="29px" viewBox="0 0 33 29" enable-background="new 0 0 33 29" xml:space="preserve">
<path fill="#FFFFFF" d="M1.047,17.395c0.779,0.775,11.305,10.225,13.059,11.1C14.779,28.83,15.396,29,15.938,29
	c0.634,0,1.481-0.24,1.902-1.382c0.254-0.687,0.321-1.546,0.208-2.625c-0.03-0.306-0.021-2.036,0.002-4.144
	c2.845,0.096,4.664,0.303,7.278,0.303c6.027,0,7.672-1.937,7.672-6.746c0-4.757-2.172-5.882-8.199-5.882
	c-2.71,0-4.601,0.106-6.629,0.141c-0.027-2.524-0.128-5.013-0.396-6.284C17.471,0.935,16.395,0,15.037,0
	C14.7,0,14.354,0.059,14.01,0.174C11.27,1.094,2.755,10.251,2.395,10.64c-0.008,0.008-2.084,2.09-2.34,3.571
	C-0.148,15.385,0.223,16.576,1.047,17.395z"/>
</svg>
