<?xml version="1.0" encoding="utf-8"?>
<!-- Generator: Adobe Illustrator 16.0.4, SVG Export Plug-In . SVG Version: 6.00 Build 0)  -->
<!DOCTYPE svg PUBLIC "-//W3C//DTD SVG 1.1//EN" "http://www.w3.org/Graphics/SVG/1.1/DTD/svg11.dtd">
<svg version="1.1" id="Layer_1" xmlns="http://www.w3.org/2000/svg" xmlns:xlink="http://www.w3.org/1999/xlink" x="0px" y="0px"
	 width="63px" height="33px" viewBox="0 0 63 33" enable-background="new 0 0 63 33" xml:space="preserve">
<g>
	<path fill="#6A51C2" d="M2,35c-0.397,0-0.756-0.235-0.916-0.599c-0.159-0.363-0.088-0.787,0.181-1.079l29.5-32
		C30.954,1.117,31.221,1,31.5,1s0.546,0.117,0.735,0.322l29.5,32c0.269,0.292,0.34,0.716,0.181,1.079S61.397,35,61,35H2z"/>
	<path fill="#6A51C2" d="M31.5,2L61,34H2L31.5,2 M31.5,0c-0.559,0-1.092,0.233-1.471,0.645l-29.5,32
		c-0.538,0.584-0.68,1.431-0.361,2.158C0.487,35.53,1.206,36,2,36h59c0.794,0,1.513-0.47,1.832-1.197
		c0.318-0.728,0.177-1.574-0.361-2.158l-29.5-32C32.592,0.233,32.059,0,31.5,0L31.5,0z"/>
</g>
</svg>
