<?xml version="1.0" encoding="utf-8"?>
<!-- Generator: Adobe Illustrator 16.0.3, SVG Export Plug-In . SVG Version: 6.00 Build 0)  -->
<!DOCTYPE svg PUBLIC "-//W3C//DTD SVG 1.1//EN" "http://www.w3.org/Graphics/SVG/1.1/DTD/svg11.dtd">
<svg version="1.1" id="Layer_1" xmlns="http://www.w3.org/2000/svg" xmlns:xlink="http://www.w3.org/1999/xlink" x="0px" y="0px"
	 width="53px" height="53px" viewBox="-0.5 -0.5 53 53" enable-background="new -0.5 -0.5 53 53" xml:space="preserve">
<g id="Layer_2">
	<circle opacity="0.3" enable-background="new    " cx="26" cy="26" r="26"/>
</g>
<g id="Layer_1_1_">
	<path fill="#FFFFFF" d="M26.791,38.592c1.654-0.336,3.93-2.765,3.938-2.773c0.426-0.424,10.451-10.397,11.4-13.55
		c0.118-0.396,0.174-0.791,0.164-1.177c-0.041-1.548-1.098-3-2.757-3.05c-1.767-0.053-4.829,2.371-7.64,6.362
		c-1.957,2.779-3.998,5.471-5.057,6.85c-0.462,0.603-0.531,0.69-0.704,0.69c-0.219,0-0.26-0.189-0.747-0.827
		c-1.45-1.896-3.364-4.725-5.209-6.925c-2.497-2.978-4.534-5.391-5.696-5.76c-1.64-0.522-2.671-0.104-3.284,0.287
		c-1.162,0.741-1.513,1.486-1.493,2.21c0.016,0.617,0.226,1.315,0.623,2.073c1.034,1.972,11.961,13.688,12.855,14.554
		C24.129,38.469,25.476,38.855,26.791,38.592z"/>
</g>
</svg>
