<?xml version="1.0" encoding="utf-8"?>
<!-- Generator: Adobe Illustrator 16.0.3, SVG Export Plug-In . SVG Version: 6.00 Build 0)  -->
<!DOCTYPE svg PUBLIC "-//W3C//DTD SVG 1.1//EN" "http://www.w3.org/Graphics/SVG/1.1/DTD/svg11.dtd">
<svg version="1.1" id="Layer_1" xmlns="http://www.w3.org/2000/svg" xmlns:xlink="http://www.w3.org/1999/xlink" x="0px" y="0px"
	 width="53px" height="53px" viewBox="-0.5 -0.5 53 53" enable-background="new -0.5 -0.5 53 53" xml:space="preserve">
<g id="Layer_2">
	<circle opacity="0.3" enable-background="new    " cx="26" cy="26" r="26"/>
</g>
<g id="Layer_1_1_">
	<path fill="#FFFFFF" d="M23.185,14.445C22.291,15.31,11.364,27.027,10.33,28.999c-0.397,0.758-0.607,1.456-0.623,2.073
		c-0.02,0.724,0.331,1.469,1.493,2.21c0.613,0.391,1.644,0.809,3.284,0.286c1.162-0.368,3.199-2.781,5.696-5.76
		c1.845-2.201,3.759-5.03,5.209-6.926c0.487-0.638,0.528-0.827,0.747-0.827c0.173,0,0.242,0.088,0.704,0.69
		c1.059,1.379,3.1,4.071,5.057,6.852c2.812,3.989,5.873,6.413,7.641,6.36c1.658-0.05,2.716-1.502,2.757-3.05
		c0.011-0.387-0.046-0.781-0.164-1.178c-0.948-3.152-10.976-13.126-11.399-13.55c-0.008-0.009-2.283-2.438-3.938-2.773
		C25.476,13.145,24.129,13.531,23.185,14.445z"/>
</g>
</svg>
