<?xml version="1.0" encoding="utf-8"?>
<!-- Generator: Adobe Illustrator 16.0.4, SVG Export Plug-In . SVG Version: 6.00 Build 0)  -->
<!DOCTYPE svg PUBLIC "-//W3C//DTD SVG 1.1//EN" "http://www.w3.org/Graphics/SVG/1.1/DTD/svg11.dtd">
<svg version="1.1" id="Layer_1" xmlns="http://www.w3.org/2000/svg" xmlns:xlink="http://www.w3.org/1999/xlink" x="0px" y="0px"
	 width="33px" height="29px" viewBox="0 0 33 29" enable-background="new 0 0 33 29" xml:space="preserve">
<path fill="#FFFFFF" d="M32.945,14.211c-0.255-1.481-2.332-3.563-2.34-3.571c-0.36-0.389-8.874-9.546-11.615-10.466
	C18.646,0.059,18.3,0,17.963,0c-1.358,0-2.434,0.935-2.739,2.381c-0.268,1.271-0.369,3.76-0.396,6.284
	C12.8,8.63,10.909,8.524,8.199,8.524C2.172,8.524,0,9.649,0,14.406c0,4.81,1.645,6.747,7.672,6.747c2.614,0,4.434-0.208,7.278-0.304
	c0.023,2.108,0.033,3.838,0.002,4.144c-0.113,1.079-0.046,1.938,0.208,2.625C15.581,28.76,16.428,29,17.063,29
	c0.541,0,1.158-0.17,1.832-0.506c1.753-0.875,12.279-10.324,13.058-11.1C32.777,16.576,33.148,15.385,32.945,14.211z"/>
</svg>
