<?xml version="1.0" encoding="utf-8"?>
<!-- Generator: Adobe Illustrator 16.0.3, SVG Export Plug-In . SVG Version: 6.00 Build 0)  -->
<!DOCTYPE svg PUBLIC "-//W3C//DTD SVG 1.1//EN" "http://www.w3.org/Graphics/SVG/1.1/DTD/svg11.dtd">
<svg version="1.1" id="Layer_1" xmlns="http://www.w3.org/2000/svg" xmlns:xlink="http://www.w3.org/1999/xlink" x="0px" y="0px"
	 width="87px" height="68px" viewBox="0 0 87 68" enable-background="new 0 0 87 68" xml:space="preserve">
<g>
	<path fill="none" d="M60.213,38.922c-0.145,0.115-0.285,0.232-0.437,0.342C59.928,39.154,60.068,39.037,60.213,38.922z"/>
	<path fill="none" d="M60.978,38.259c-0.143,0.136-0.28,0.272-0.433,0.402C60.697,38.531,60.835,38.395,60.978,38.259z"/>
	<path fill="none" d="M42.953,7.332c-0.086,0-0.17,0.009-0.254,0.029c0.124-0.029,0.253-0.018,0.382-0.004
		C43.038,7.352,42.995,7.332,42.953,7.332z"/>
	<path fill="none" d="M43.299,7.397c0.088,0.025,0.177,0.06,0.266,0.102C43.476,7.457,43.388,7.422,43.299,7.397z"/>
	<path fill="none" d="M62.382,25.356c0.012,0.043,0.023,0.085,0.032,0.117C62.405,25.441,62.394,25.399,62.382,25.356z"/>
	<path fill="none" d="M61.85,37.324c-0.188,0.238-0.393,0.467-0.61,0.689C61.457,37.791,61.661,37.562,61.85,37.324z"/>
	<path fill="none" d="M57.589,40.566c-0.161,0.08-0.319,0.163-0.484,0.24C57.27,40.729,57.428,40.646,57.589,40.566z"/>
	<path fill="none" d="M45.168,9.212c0.08,0.141,0.155,0.296,0.229,0.45C45.322,9.508,45.249,9.354,45.168,9.212z"/>
	<path fill="none" d="M39.217,11.324c0.092,0.05,0.184,0.097,0.276,0.152C39.399,11.421,39.31,11.375,39.217,11.324z"/>
	<path fill="none" d="M59.388,39.524c-0.148,0.1-0.293,0.202-0.447,0.298C59.095,39.727,59.239,39.624,59.388,39.524z"/>
	<path fill="none" d="M58.511,40.07c-0.154,0.09-0.305,0.182-0.464,0.266C58.206,40.251,58.356,40.16,58.511,40.07z"/>
	<path fill="none" d="M48.982,13.174c-0.054,0-0.104,0.007-0.157,0.008c0.068-0.001,0.137-0.005,0.207-0.005
		C49.017,13.177,48.999,13.174,48.982,13.174z"/>
	<path fill="none" d="M46.964,13.508c0.059-0.021,0.121-0.038,0.181-0.057C47.084,13.471,47.022,13.487,46.964,13.508z"/>
	<path fill="none" d="M47.535,13.341c0.072-0.017,0.146-0.031,0.221-0.046C47.682,13.31,47.607,13.324,47.535,13.341z"/>
	<path fill="none" d="M44.731,8.543c0.085,0.113,0.165,0.24,0.246,0.366C44.896,8.783,44.816,8.656,44.731,8.543z"/>
	<path fill="none" d="M45.903,10.885c0.103,0.311,0.195,0.634,0.273,0.969C46.099,11.519,46.006,11.195,45.903,10.885z"/>
	<path fill="none" d="M45.562,9.999c0.078,0.178,0.147,0.37,0.218,0.561C45.71,10.369,45.642,10.177,45.562,9.999z"/>
	<path fill="none" d="M43.785,7.619c0.089,0.057,0.177,0.125,0.265,0.198C43.962,7.743,43.874,7.675,43.785,7.619z"/>
	<path fill="none" d="M49.901,13.238c0.062,0.008,0.123,0.018,0.186,0.027C50.024,13.256,49.964,13.246,49.901,13.238z"/>
	<path fill="none" d="M62.317,25.127c0,0,0.021,0.077,0.084,0.3c-0.016-0.057-0.026-0.095-0.037-0.133
		C62.34,25.207,62.317,25.127,62.317,25.127z"/>
	<path fill="none" d="M56.618,41.018c-0.165,0.072-0.328,0.146-0.497,0.214C56.29,41.164,56.453,41.09,56.618,41.018z"/>
	<path fill="none" d="M48.152,13.231c0.078-0.01,0.157-0.019,0.236-0.026C48.309,13.212,48.231,13.221,48.152,13.231z"/>
	<path fill="none" d="M44.267,8.006c0.087,0.085,0.173,0.185,0.258,0.285C44.438,8.19,44.354,8.092,44.267,8.006z"/>
	<path fill="none" d="M38.281,10.884c0.095,0.037,0.191,0.079,0.288,0.121C38.472,10.962,38.377,10.921,38.281,10.884z"/>
	<path fill="none" d="M50.368,42.766c-0.176,0.025-0.352,0.053-0.525,0.075C50.017,42.818,50.192,42.791,50.368,42.766z"/>
	<path fill="none" d="M35.716,10.715c0.104-0.053,0.219-0.095,0.343-0.125C35.935,10.621,35.82,10.663,35.716,10.715z"/>
	<path fill="none" d="M51.419,42.588c-0.177,0.033-0.353,0.068-0.528,0.098C51.066,42.656,51.242,42.621,51.419,42.588z"/>
	<path fill="none" d="M49.329,42.897c-0.173,0.019-0.346,0.038-0.516,0.052C48.983,42.936,49.156,42.916,49.329,42.897z"/>
	<path fill="none" d="M55.613,41.424c-0.169,0.063-0.337,0.129-0.508,0.188C55.276,41.553,55.444,41.487,55.613,41.424z"/>
	<path fill="none" d="M46.966,43.033c0.12,0,0.245-0.007,0.367-0.01c-0.206,0.004-0.414,0.01-0.613,0.008
		C46.802,43.032,46.884,43.033,46.966,43.033z"/>
	<path fill="none" d="M48.315,42.983c-0.169,0.011-0.339,0.022-0.504,0.029C47.977,43.006,48.146,42.994,48.315,42.983z"/>
	<path fill="none" d="M35.291,11.048c0.086-0.112,0.197-0.2,0.318-0.276C35.488,10.849,35.377,10.936,35.291,11.048z"/>
	<path fill="none" d="M36.614,10.52c-0.162,0-0.313,0.017-0.457,0.044c0.154-0.029,0.322-0.041,0.499-0.039
		C36.644,10.525,36.627,10.52,36.614,10.52z"/>
	<path fill="none" d="M53.538,42.096c-0.175,0.049-0.35,0.1-0.526,0.144C53.188,42.195,53.363,42.145,53.538,42.096z"/>
	<path fill="none" d="M37.423,10.618c0.063,0.014,0.131,0.038,0.195,0.054C37.554,10.655,37.486,10.631,37.423,10.618z"/>
	<path fill="none" d="M54.588,41.781c-0.174,0.057-0.348,0.115-0.522,0.168C54.24,41.896,54.413,41.838,54.588,41.781z"/>
	<path fill="none" d="M52.476,42.365c-0.175,0.041-0.35,0.083-0.524,0.12C52.126,42.448,52.301,42.406,52.476,42.365z"/>
	<path fill="#FFFFFF" d="M44.535,57.23c2.731-0.164,5.309-0.445,7.741-0.834c-0.227-1.965-0.493-3.723-0.787-4.68
		c-0.486-1.584-1.893-3.83-3.47-4.708c-0.577-0.321-1.308-0.53-2.081-0.655c0.007-1.137,0.156-2.582,0.781-3.322
		c0.199,0.002,0.407-0.004,0.613-0.008c0.158-0.002,0.316-0.004,0.479-0.011c0.165-0.007,0.335-0.019,0.504-0.029
		c0.165-0.011,0.33-0.02,0.498-0.034c0.17-0.014,0.343-0.033,0.516-0.052c0.17-0.019,0.341-0.035,0.514-0.057
		c0.174-0.022,0.35-0.05,0.525-0.075c0.174-0.025,0.348-0.051,0.522-0.08c0.176-0.029,0.352-0.064,0.528-0.098
		s0.354-0.065,0.532-0.103c0.175-0.037,0.35-0.079,0.524-0.12c0.179-0.041,0.357-0.08,0.536-0.126
		c0.177-0.044,0.352-0.095,0.526-0.144c0.176-0.049,0.353-0.095,0.527-0.146c0.175-0.053,0.349-0.111,0.522-0.168
		c0.173-0.056,0.347-0.109,0.518-0.169s0.339-0.125,0.508-0.188c0.17-0.063,0.341-0.125,0.508-0.192
		c0.169-0.067,0.332-0.142,0.497-0.214c0.162-0.07,0.327-0.137,0.486-0.211c0.165-0.077,0.323-0.16,0.484-0.24
		c0.152-0.076,0.309-0.15,0.458-0.23c0.159-0.084,0.31-0.176,0.464-0.266c0.144-0.082,0.291-0.162,0.43-0.248
		c0.154-0.096,0.299-0.198,0.447-0.298c0.129-0.087,0.264-0.171,0.389-0.261c0.151-0.109,0.292-0.227,0.437-0.342
		c0.11-0.087,0.227-0.171,0.332-0.261c0.152-0.13,0.29-0.267,0.433-0.402c0.086-0.082,0.18-0.16,0.262-0.245
		c0.218-0.223,0.422-0.451,0.61-0.689h-0.004c0,0,0.583-0.765,0.966-1.811c0.062,0.003,0.121,0.018,0.185,0.018
		c1.898,0,3.436-1.446,3.436-3.23c0-1.663-1.344-3.018-3.063-3.194c-0.238-1.229-0.598-2.382-0.944-3.6
		c-0.003-0.008-0.005-0.02-0.01-0.034c-0.009-0.031-0.021-0.073-0.032-0.117c-0.006-0.021-0.012-0.042-0.018-0.062
		c0.011,0.039,0.021,0.077,0.037,0.133c-0.973-3.469-3.708-6.713-7.123-8.134c-0.268-1.611-1.944-3.191-4.267-3.836
		c-0.311-0.086-0.619-0.146-0.925-0.192c-0.062-0.009-0.124-0.02-0.186-0.027c-0.294-0.038-0.585-0.059-0.869-0.061
		c-0.07,0-0.139,0.003-0.207,0.005c-0.147,0.003-0.294,0.01-0.437,0.022c-0.079,0.007-0.158,0.017-0.236,0.026
		c-0.135,0.017-0.267,0.039-0.396,0.064c-0.074,0.015-0.148,0.029-0.221,0.046c-0.134,0.032-0.264,0.07-0.391,0.111
		c-0.06,0.019-0.122,0.036-0.181,0.057c-0.181,0.065-0.355,0.138-0.52,0.221c-0.03-0.594-0.116-1.226-0.268-1.875
		c-0.078-0.335-0.171-0.659-0.273-0.969c-0.037-0.113-0.082-0.215-0.123-0.325c-0.07-0.191-0.14-0.383-0.218-0.561
		c-0.052-0.119-0.109-0.225-0.165-0.337c-0.074-0.153-0.149-0.309-0.229-0.45c-0.062-0.108-0.127-0.203-0.19-0.303
		c-0.081-0.126-0.161-0.253-0.246-0.366c-0.067-0.091-0.138-0.17-0.207-0.252c-0.085-0.101-0.171-0.2-0.258-0.285
		c-0.072-0.07-0.145-0.13-0.217-0.189c-0.088-0.073-0.176-0.141-0.265-0.198c-0.074-0.047-0.147-0.084-0.221-0.119
		c-0.089-0.042-0.178-0.077-0.266-0.102c-0.073-0.021-0.146-0.034-0.218-0.041c-0.129-0.014-0.258-0.024-0.382,0.004
		c-1.275,0.297-1.783,2.788-1.135,5.567c0.024,0.104,0.052,0.205,0.079,0.307c-0.355-0.396-0.766-0.785-1.237-1.146
		c-0.302-0.23-0.607-0.431-0.913-0.612c-0.093-0.055-0.185-0.102-0.276-0.152c-0.218-0.119-0.435-0.227-0.647-0.32
		c-0.097-0.042-0.193-0.084-0.288-0.121c-0.228-0.087-0.448-0.156-0.663-0.212c-0.064-0.016-0.132-0.041-0.195-0.054
		c-0.271-0.058-0.527-0.089-0.767-0.092c-0.177-0.002-0.345,0.009-0.499,0.039c-0.034,0.006-0.064,0.018-0.099,0.026
		c-0.124,0.03-0.238,0.072-0.343,0.125c-0.036,0.019-0.072,0.037-0.106,0.057c-0.121,0.076-0.232,0.164-0.318,0.276
		c-0.478,0.622-0.254,1.662,0.475,2.739c-0.074,0.009-0.147,0.016-0.222,0.027c-2.764,0.443-4.806,2.237-4.772,4.108
		c-5.799,2.682-6.886,7.952-6.764,11.911c-1.513,0.338-2.641,1.609-2.641,3.134c0,1.784,1.537,3.229,3.436,3.229
		c0.18,0,0.354-0.024,0.525-0.049c1.138,2.188,4.673,6.148,16.963,6.74c0.395,1.039,0.736,2.182,0.429,3.455
		c-0.376,0.059-0.735,0.131-1.046,0.23c-2.779,0.891-4.527,2.674-5.697,5.086c-0.701,1.445-1.472,3.393-2.137,5.445
		C37.179,57.399,40.729,57.458,44.535,57.23z"/>
	<path opacity="0.05" fill="#010101" d="M48.667,45.846c-0.39-0.217-0.837-0.399-1.338-0.545c0.044-0.395,0.11-0.708,0.185-0.943
		c5.389-0.137,12.247-2.262,15.379-6.205l1.104-1.391c2.15-0.441,3.767-2.273,3.767-4.461c0-2.001-1.354-3.718-3.276-4.318
		c-0.18-0.753-0.391-1.483-0.597-2.195l-0.185-0.641l-0.009-0.034L63.69,25.09c-0.008-0.025-0.015-0.052-0.022-0.079
		c-1.055-3.692-3.864-7.025-7.267-8.673c-0.66-1.864-2.586-3.485-5.033-4.165c-0.793-0.22-1.596-0.332-2.386-0.332
		c-0.488,0-0.964,0.043-1.419,0.128c-0.027-0.14-0.058-0.279-0.09-0.418C46.829,8.789,45.182,6,42.954,6
		c-0.188,0-0.375,0.021-0.557,0.064c-0.669,0.156-1.854,0.737-2.292,2.884c-0.08,0.391-0.128,0.811-0.146,1.25
		c-1.153-0.65-2.324-1.01-3.345-1.01c-1.017,0-1.862,0.373-2.381,1.05c-0.545,0.71-0.669,1.623-0.381,2.627
		c-2.267,0.77-3.93,2.371-4.324,4.187c-4.346,2.294-6.751,6.45-6.857,11.841c-1.593,0.755-2.636,2.311-2.636,4.075
		c0,2.449,2.027,4.454,4.561,4.558c1.871,2.833,6.313,5.98,16.725,6.643c0.108,0.373,0.175,0.723,0.186,1.067
		c-0.082,0.022-0.162,0.046-0.239,0.071c-2.938,0.94-5.061,2.828-6.488,5.771c-0.705,1.453-1.562,3.607-2.297,5.92
		c0.441,0.049,0.908,0.068,1.358,0.107c0.665-2.053,1.436-4,2.137-5.445c1.17-2.412,2.918-4.195,5.697-5.086
		c0.311-0.1,0.67-0.172,1.046-0.23c0.308-1.273-0.034-2.416-0.429-3.455c-12.29-0.592-15.825-4.553-16.963-6.74
		c-0.172,0.024-0.346,0.049-0.525,0.049c-1.898,0-3.436-1.445-3.436-3.229c0-1.525,1.128-2.796,2.641-3.134
		c-0.122-3.959,0.965-9.229,6.764-11.911c-0.033-1.872,2.009-3.666,4.772-4.108c0.074-0.012,0.147-0.018,0.222-0.027
		c-0.729-1.077-0.952-2.117-0.475-2.739c0.086-0.112,0.197-0.2,0.318-0.276c0.034-0.021,0.07-0.039,0.106-0.057
		c0.104-0.053,0.219-0.095,0.343-0.125c0.034-0.008,0.064-0.02,0.099-0.026c0.144-0.027,0.295-0.044,0.457-0.044
		c0.013,0,0.029,0.005,0.042,0.005c0.239,0.003,0.496,0.034,0.767,0.092c0.063,0.014,0.131,0.038,0.195,0.054
		c0.215,0.056,0.436,0.125,0.663,0.212c0.096,0.037,0.19,0.078,0.288,0.121c0.214,0.093,0.429,0.2,0.647,0.32
		c0.093,0.051,0.183,0.097,0.276,0.152c0.306,0.182,0.611,0.381,0.913,0.612c0.472,0.361,0.882,0.75,1.237,1.146
		c-0.027-0.102-0.055-0.203-0.079-0.307c-0.648-2.779-0.141-5.27,1.135-5.567c0.084-0.02,0.168-0.029,0.254-0.029
		c0.042,0,0.085,0.02,0.128,0.024c0.072,0.007,0.145,0.021,0.218,0.041c0.089,0.025,0.177,0.06,0.266,0.102
		c0.073,0.035,0.146,0.072,0.221,0.119c0.089,0.057,0.177,0.125,0.265,0.198c0.072,0.06,0.145,0.119,0.217,0.189
		c0.088,0.086,0.172,0.185,0.258,0.285c0.07,0.082,0.14,0.16,0.207,0.252c0.085,0.113,0.165,0.24,0.246,0.366
		c0.064,0.101,0.129,0.195,0.19,0.303c0.081,0.141,0.154,0.296,0.229,0.45c0.056,0.112,0.113,0.218,0.165,0.337
		c0.079,0.178,0.147,0.37,0.218,0.561c0.041,0.109,0.085,0.211,0.123,0.325c0.103,0.311,0.195,0.634,0.273,0.969
		c0.151,0.649,0.237,1.282,0.268,1.875c0.164-0.083,0.339-0.156,0.52-0.221c0.059-0.021,0.12-0.038,0.181-0.057
		c0.127-0.041,0.256-0.079,0.391-0.111c0.072-0.017,0.146-0.031,0.221-0.046c0.13-0.025,0.262-0.047,0.396-0.064
		c0.079-0.01,0.156-0.019,0.236-0.026c0.144-0.013,0.288-0.019,0.437-0.022c0.053-0.001,0.104-0.008,0.157-0.008
		c0.017,0,0.034,0.003,0.05,0.003c0.284,0.002,0.574,0.023,0.869,0.061c0.062,0.008,0.123,0.018,0.186,0.027
		c0.306,0.046,0.613,0.105,0.925,0.192c2.322,0.645,3.999,2.225,4.267,3.836c3.415,1.421,6.15,4.666,7.123,8.134
		c-0.062-0.223-0.084-0.3-0.084-0.3s0.022,0.079,0.047,0.167c-0.086-0.306-0.031-0.112,0.018,0.062
		c0.012,0.043,0.023,0.085,0.032,0.117c0.005,0.014,0.007,0.026,0.01,0.034c0.347,1.218,0.706,2.371,0.944,3.6
		c1.72,0.176,3.063,1.531,3.063,3.194c0,1.784-1.537,3.23-3.436,3.23c-0.063,0-0.122-0.015-0.185-0.018
		c-0.383,1.046-0.966,1.811-0.966,1.811h0.004c-0.188,0.238-0.393,0.467-0.61,0.689c-0.082,0.085-0.176,0.163-0.262,0.245
		c-0.143,0.136-0.28,0.272-0.433,0.402c-0.105,0.09-0.222,0.174-0.332,0.261c-0.145,0.115-0.285,0.232-0.437,0.342
		c-0.125,0.09-0.26,0.174-0.389,0.261c-0.148,0.1-0.293,0.202-0.447,0.298c-0.139,0.086-0.286,0.166-0.43,0.248
		c-0.154,0.09-0.305,0.181-0.464,0.266c-0.149,0.08-0.305,0.154-0.458,0.23c-0.161,0.08-0.319,0.163-0.484,0.24
		c-0.159,0.074-0.324,0.141-0.486,0.211c-0.165,0.072-0.328,0.146-0.497,0.214c-0.167,0.067-0.338,0.129-0.508,0.192
		c-0.169,0.063-0.337,0.129-0.508,0.188s-0.345,0.113-0.518,0.169c-0.175,0.057-0.348,0.115-0.522,0.168
		c-0.175,0.052-0.352,0.098-0.527,0.146c-0.175,0.049-0.35,0.1-0.526,0.144c-0.179,0.046-0.357,0.085-0.536,0.126
		c-0.175,0.041-0.35,0.083-0.524,0.12c-0.178,0.037-0.355,0.069-0.532,0.103s-0.353,0.068-0.528,0.098
		c-0.175,0.029-0.349,0.054-0.522,0.08c-0.176,0.025-0.352,0.053-0.525,0.075c-0.173,0.022-0.343,0.038-0.514,0.057
		c-0.173,0.019-0.346,0.038-0.516,0.052c-0.168,0.015-0.333,0.023-0.498,0.034c-0.17,0.011-0.339,0.022-0.504,0.029
		c-0.162,0.007-0.32,0.009-0.479,0.011c-0.122,0.003-0.247,0.01-0.367,0.01c-0.082,0-0.164-0.001-0.246-0.002
		c-0.625,0.74-0.774,2.186-0.781,3.322c0.773,0.125,1.504,0.334,2.081,0.655c1.577,0.878,2.983,3.124,3.47,4.708
		c0.294,0.957,0.561,2.715,0.787,4.68c0.444-0.071,0.883-0.148,1.317-0.227c-0.233-2.002-0.513-3.809-0.831-4.844
		C52.173,49.406,50.577,46.908,48.667,45.846z"/>
	<path fill="#FFFFFF" d="M44.524,8.291c0.069,0.082,0.14,0.161,0.207,0.252C44.664,8.451,44.595,8.373,44.524,8.291z"/>
	<path opacity="0.05" fill="#010101" d="M44.524,8.291c0.069,0.082,0.14,0.161,0.207,0.252C44.664,8.451,44.595,8.373,44.524,8.291z
		"/>
	<path fill="#FFFFFF" d="M44.978,8.909c0.063,0.1,0.129,0.195,0.19,0.303C45.106,9.104,45.042,9.01,44.978,8.909z"/>
	<path opacity="0.05" fill="#010101" d="M44.978,8.909c0.063,0.1,0.129,0.195,0.19,0.303C45.106,9.104,45.042,9.01,44.978,8.909z"/>
	<path fill="#FFFFFF" d="M37.618,10.672c0.215,0.056,0.436,0.125,0.663,0.212C38.054,10.796,37.833,10.728,37.618,10.672z"/>
	<path opacity="0.05" fill="#010101" d="M37.618,10.672c0.215,0.056,0.436,0.125,0.663,0.212
		C38.054,10.796,37.833,10.728,37.618,10.672z"/>
	<path fill="#FFFFFF" d="M38.569,11.004c0.213,0.093,0.43,0.201,0.647,0.32C38.998,11.205,38.783,11.098,38.569,11.004z"/>
	<path opacity="0.05" fill="#010101" d="M38.569,11.004c0.213,0.093,0.43,0.201,0.647,0.32
		C38.998,11.205,38.783,11.098,38.569,11.004z"/>
	<path fill="#FFFFFF" d="M39.493,11.477c0.306,0.182,0.611,0.382,0.913,0.612C40.104,11.858,39.799,11.659,39.493,11.477z"/>
	<path opacity="0.05" fill="#010101" d="M39.493,11.477c0.306,0.182,0.611,0.382,0.913,0.612
		C40.104,11.858,39.799,11.659,39.493,11.477z"/>
	<path fill="#FFFFFF" d="M36.656,10.525c0.239,0.003,0.496,0.034,0.767,0.092C37.152,10.559,36.896,10.528,36.656,10.525z"/>
	<path opacity="0.05" fill="#010101" d="M36.656,10.525c0.239,0.003,0.496,0.034,0.767,0.092
		C37.152,10.559,36.896,10.528,36.656,10.525z"/>
	<path fill="#FFFFFF" d="M36.059,10.59c0.034-0.008,0.064-0.02,0.099-0.026C36.123,10.57,36.093,10.582,36.059,10.59z"/>
	<path opacity="0.05" fill="#010101" d="M36.059,10.59c0.034-0.008,0.064-0.02,0.099-0.026C36.123,10.57,36.093,10.582,36.059,10.59
		z"/>
	<path fill="#FFFFFF" d="M44.05,7.816c0.072,0.06,0.145,0.119,0.217,0.189C44.194,7.935,44.122,7.876,44.05,7.816z"/>
	<path opacity="0.05" fill="#010101" d="M44.05,7.816c0.072,0.06,0.145,0.119,0.217,0.189C44.194,7.935,44.122,7.876,44.05,7.816z"
		/>
	<path fill="#FFFFFF" d="M43.081,7.356c0.072,0.007,0.145,0.021,0.218,0.041C43.226,7.377,43.153,7.364,43.081,7.356z"/>
	<path opacity="0.05" fill="#010101" d="M43.081,7.356c0.072,0.007,0.145,0.021,0.218,0.041C43.226,7.377,43.153,7.364,43.081,7.356
		z"/>
	<path fill="#FFFFFF" d="M43.564,7.5c0.073,0.035,0.146,0.072,0.221,0.119C43.711,7.572,43.638,7.535,43.564,7.5z"/>
	<path opacity="0.05" fill="#010101" d="M43.564,7.5c0.073,0.035,0.146,0.072,0.221,0.119C43.711,7.572,43.638,7.535,43.564,7.5z"/>
	<path fill="#FFFFFF" d="M35.609,10.772c0.034-0.021,0.07-0.039,0.106-0.057C35.68,10.734,35.644,10.751,35.609,10.772z"/>
	<path opacity="0.05" fill="#010101" d="M35.609,10.772c0.034-0.021,0.07-0.039,0.106-0.057
		C35.68,10.734,35.644,10.751,35.609,10.772z"/>
	<path fill="#FFFFFF" d="M56.121,41.231c-0.167,0.067-0.338,0.129-0.508,0.192C55.783,41.36,55.954,41.299,56.121,41.231z"/>
	<path opacity="0.05" fill="#010101" d="M56.121,41.231c-0.167,0.067-0.338,0.129-0.508,0.192
		C55.783,41.36,55.954,41.299,56.121,41.231z"/>
	<path fill="#FFFFFF" d="M54.065,41.949c-0.175,0.052-0.352,0.098-0.527,0.146C53.714,42.047,53.891,42.001,54.065,41.949z"/>
	<path opacity="0.05" fill="#010101" d="M54.065,41.949c-0.175,0.052-0.352,0.098-0.527,0.146
		C53.714,42.047,53.891,42.001,54.065,41.949z"/>
	<path fill="#FFFFFF" d="M55.105,41.612c-0.171,0.06-0.345,0.113-0.518,0.169C54.761,41.726,54.935,41.672,55.105,41.612z"/>
	<path opacity="0.05" fill="#010101" d="M55.105,41.612c-0.171,0.06-0.345,0.113-0.518,0.169
		C54.761,41.726,54.935,41.672,55.105,41.612z"/>
	<path fill="#FFFFFF" d="M58.047,40.336c-0.149,0.08-0.306,0.154-0.458,0.23C57.742,40.49,57.897,40.416,58.047,40.336z"/>
	<path opacity="0.05" fill="#010101" d="M58.047,40.336c-0.149,0.08-0.306,0.154-0.458,0.23
		C57.742,40.49,57.897,40.416,58.047,40.336z"/>
	<path fill="#FFFFFF" d="M57.104,40.807c-0.159,0.074-0.324,0.141-0.486,0.211C56.78,40.947,56.945,40.881,57.104,40.807z"/>
	<path opacity="0.05" fill="#010101" d="M57.104,40.807c-0.159,0.074-0.324,0.141-0.486,0.211
		C56.78,40.947,56.945,40.881,57.104,40.807z"/>
	<path fill="#FFFFFF" d="M53.012,42.239c-0.179,0.046-0.357,0.085-0.536,0.126C52.654,42.324,52.833,42.285,53.012,42.239z"/>
	<path opacity="0.05" fill="#010101" d="M53.012,42.239c-0.179,0.046-0.357,0.085-0.536,0.126
		C52.654,42.324,52.833,42.285,53.012,42.239z"/>
	<path fill="#FFFFFF" d="M48.813,42.949c-0.168,0.015-0.333,0.023-0.498,0.034C48.48,42.973,48.646,42.964,48.813,42.949z"/>
	<path opacity="0.05" fill="#010101" d="M48.813,42.949c-0.168,0.015-0.333,0.023-0.498,0.034
		C48.48,42.973,48.646,42.964,48.813,42.949z"/>
	<path fill="#FFFFFF" d="M58.94,39.822c-0.139,0.086-0.286,0.166-0.43,0.248C58.654,39.988,58.802,39.908,58.94,39.822z"/>
	<path opacity="0.05" fill="#010101" d="M58.94,39.822c-0.139,0.086-0.286,0.166-0.43,0.248
		C58.654,39.988,58.802,39.908,58.94,39.822z"/>
	<path fill="#FFFFFF" d="M51.951,42.485c-0.178,0.037-0.355,0.069-0.532,0.103C51.596,42.555,51.773,42.522,51.951,42.485z"/>
	<path opacity="0.05" fill="#010101" d="M51.951,42.485c-0.178,0.037-0.355,0.069-0.532,0.103
		C51.596,42.555,51.773,42.522,51.951,42.485z"/>
	<path fill="#FFFFFF" d="M45.397,9.662c0.056,0.112,0.113,0.218,0.165,0.337C45.511,9.88,45.453,9.774,45.397,9.662z"/>
	<path opacity="0.05" fill="#010101" d="M45.397,9.662c0.056,0.112,0.113,0.218,0.165,0.337C45.511,9.88,45.453,9.774,45.397,9.662z
		"/>
	<path fill="#FFFFFF" d="M49.843,42.841c-0.173,0.021-0.344,0.038-0.514,0.057C49.5,42.879,49.67,42.863,49.843,42.841z"/>
	<path opacity="0.05" fill="#010101" d="M49.843,42.841c-0.173,0.021-0.344,0.038-0.514,0.057
		C49.5,42.879,49.67,42.863,49.843,42.841z"/>
	<path fill="#FFFFFF" d="M50.891,42.686c-0.175,0.029-0.349,0.055-0.522,0.08C50.542,42.739,50.716,42.715,50.891,42.686z"/>
	<path opacity="0.05" fill="#010101" d="M50.891,42.686c-0.175,0.029-0.349,0.055-0.522,0.08
		C50.542,42.739,50.716,42.715,50.891,42.686z"/>
	<path fill="#FFFFFF" d="M47.812,43.013c-0.162,0.007-0.32,0.009-0.479,0.011C47.491,43.021,47.649,43.02,47.812,43.013z"/>
	<path opacity="0.05" fill="#010101" d="M47.812,43.013c-0.162,0.007-0.32,0.009-0.479,0.011
		C47.491,43.021,47.649,43.02,47.812,43.013z"/>
	<path fill="#FFFFFF" d="M47.756,13.295c0.13-0.025,0.262-0.047,0.396-0.064C48.018,13.248,47.886,13.27,47.756,13.295z"/>
	<path opacity="0.05" fill="#010101" d="M47.756,13.295c0.13-0.025,0.262-0.047,0.396-0.064
		C48.018,13.248,47.886,13.27,47.756,13.295z"/>
	<path fill="#FFFFFF" d="M48.389,13.205c0.143-0.013,0.289-0.019,0.437-0.022C48.677,13.186,48.532,13.192,48.389,13.205z"/>
	<path opacity="0.05" fill="#010101" d="M48.389,13.205c0.143-0.013,0.289-0.019,0.437-0.022
		C48.677,13.186,48.532,13.192,48.389,13.205z"/>
	<path fill="#FFFFFF" d="M47.145,13.452c0.127-0.041,0.257-0.079,0.391-0.111C47.4,13.373,47.271,13.411,47.145,13.452z"/>
	<path opacity="0.05" fill="#010101" d="M47.145,13.452c0.127-0.041,0.257-0.079,0.391-0.111
		C47.4,13.373,47.271,13.411,47.145,13.452z"/>
	<path fill="#FFFFFF" d="M59.776,39.264c-0.125,0.09-0.26,0.174-0.389,0.261C59.517,39.438,59.651,39.354,59.776,39.264z"/>
	<path opacity="0.05" fill="#010101" d="M59.776,39.264c-0.125,0.09-0.26,0.174-0.389,0.261
		C59.517,39.438,59.651,39.354,59.776,39.264z"/>
	<path fill="#FFFFFF" d="M46.444,13.729c0.164-0.083,0.339-0.156,0.52-0.221C46.783,13.574,46.608,13.646,46.444,13.729z"/>
	<path opacity="0.05" fill="#010101" d="M46.444,13.729c0.164-0.083,0.339-0.156,0.52-0.221
		C46.783,13.574,46.608,13.646,46.444,13.729z"/>
	<path fill="#FFFFFF" d="M45.78,10.56c0.041,0.109,0.086,0.211,0.123,0.325C45.865,10.771,45.821,10.669,45.78,10.56z"/>
	<path opacity="0.05" fill="#010101" d="M45.78,10.56c0.041,0.109,0.086,0.211,0.123,0.325C45.865,10.771,45.821,10.669,45.78,10.56
		z"/>
	<path fill="#FFFFFF" d="M49.032,13.177c0.284,0.002,0.575,0.023,0.869,0.061C49.606,13.2,49.316,13.179,49.032,13.177z"/>
	<path opacity="0.05" fill="#010101" d="M49.032,13.177c0.284,0.002,0.575,0.023,0.869,0.061
		C49.606,13.2,49.316,13.179,49.032,13.177z"/>
	<path fill="#FFFFFF" d="M61.239,38.014c-0.082,0.085-0.176,0.163-0.262,0.245C61.063,38.177,61.157,38.099,61.239,38.014z"/>
	<path opacity="0.05" fill="#010101" d="M61.239,38.014c-0.082,0.085-0.176,0.163-0.262,0.245
		C61.063,38.177,61.157,38.099,61.239,38.014z"/>
	<path fill="#FFFFFF" d="M60.545,38.661c-0.105,0.09-0.222,0.174-0.332,0.261C60.323,38.835,60.439,38.751,60.545,38.661z"/>
	<path opacity="0.05" fill="#010101" d="M60.545,38.661c-0.105,0.09-0.222,0.174-0.332,0.261
		C60.323,38.835,60.439,38.751,60.545,38.661z"/>
	<path fill="#FFFFFF" d="M50.087,13.265c0.306,0.046,0.614,0.105,0.925,0.192C50.7,13.371,50.393,13.312,50.087,13.265z"/>
	<path opacity="0.05" fill="#010101" d="M50.087,13.265c0.306,0.046,0.614,0.105,0.925,0.192
		C50.7,13.371,50.393,13.312,50.087,13.265z"/>
	<path fill="#FFFFFF" d="M62.364,25.294c0.006,0.021,0.012,0.042,0.018,0.062C62.333,25.182,62.278,24.988,62.364,25.294z"/>
	<path opacity="0.05" fill="#010101" d="M62.364,25.294c0.006,0.021,0.012,0.042,0.018,0.062
		C62.333,25.182,62.278,24.988,62.364,25.294z"/>
</g>
</svg>
