<?xml version="1.0" encoding="utf-8"?>
<!-- Generator: Adobe Illustrator 16.0.4, SVG Export Plug-In . SVG Version: 6.00 Build 0)  -->
<!DOCTYPE svg PUBLIC "-//W3C//DTD SVG 1.1//EN" "http://www.w3.org/Graphics/SVG/1.1/DTD/svg11.dtd">
<svg version="1.1" id="Layer_1" xmlns="http://www.w3.org/2000/svg" xmlns:xlink="http://www.w3.org/1999/xlink" x="0px" y="0px"
	 width="58px" height="58px" viewBox="0 0 58 58" enable-background="new 0 0 58 58" xml:space="preserve">
<g>
	<circle fill="#FFFFFF" cx="29" cy="29" r="28"/>
	<g>
		<path fill="#A3CB39" d="M29.274,2.245c-14.698,0-26.613,11.915-26.613,26.614c0,14.697,11.915,26.611,26.613,26.611
			c14.697,0,26.613-11.914,26.613-26.611C55.888,14.16,43.972,2.245,29.274,2.245"/>
		<path fill="#FFFFFF" d="M9.879,16.91c0.022-3.304,1.822-6.314,4.779-8.613c4.178-3.064,9.297-4.853,14.819-4.808
			c5.319,0.044,10.236,1.777,14.283,4.7c3.167,2.379,5.09,5.535,5.068,8.988c-0.024,3.903-2.532,7.396-6.502,9.792l0.004,0.002
			c-3.82,2.337-8.289,3.661-13.058,3.624c-5.685-0.043-10.914-2.023-15.104-5.321C11.466,22.98,9.859,20.066,9.879,16.91"/>
		<path d="M32.895,12.343c0.981-0.538,1.163-1.987,1.167-2.442c-0.004-2-1.546-3.334-4.309-3.333
			c-1.034-0.001-2.183,0.13-3.786,0.464v0.001c-0.083,0.018-0.144,0.095-0.145,0.185c0.001,0.014,0.002,0.031,0.006,0.045
			c0.421,2.55,0.402,6.527,0.061,10.551c-0.005,0.014-0.008,0.027-0.008,0.043c0,0.093,0.07,0.17,0.158,0.182
			c0.99,0.217,2.951,0.414,4.041,0.414c2.617-0.002,4.582-1.438,4.58-3.506C34.661,13.646,34.079,12.855,32.895,12.343
			 M29.721,9.012c0.986,0,1.656,0.512,1.666,1.248c0.023,1.4-2.287,1.184-2.466,1.146l-0.019-2.292
			C28.889,9.115,29.025,9.012,29.721,9.012 M29.982,16.106c-0.383,0.001-0.73-0.032-1.067-0.118l0.003-2.336
			c0,0,0.565-0.068,0.883-0.067c0.854,0.001,1.913,0.298,1.896,1.152C31.686,15.441,31.455,16.107,29.982,16.106"/>
		<path d="M18.944,7.949c-1.154,0.266-2.406,0.69-3.218,1.094c-0.002,0-0.002,0-0.004,0c-0.181,0.069-0.096,0.229-0.094,0.23
			c0.817,1.902,2.244,8.337,2.451,10.487v0.001c-0.002,0.017,0.002,0.03,0.006,0.047c0.021,0.098,0.12,0.161,0.217,0.138
			c0.002,0,2.702-0.819,2.703-0.82c0.102-0.022,0.163-0.12,0.142-0.22c-0.003-0.004-0.005-0.008-0.006-0.011
			c-0.013-0.056-0.028-0.124-0.056-0.234l-0.145-0.558l-0.443-2.018c0,0,0.693-0.143,0.742-0.152
			c2.926-0.673,4.476-2.892,3.941-5.227C24.631,8.306,22.165,7.209,18.944,7.949 M20.361,13.52c-0.215,0.052-0.456,0.071-0.453,0.07
			l-0.69-3.018c0,0,0.546-0.18,0.776-0.233c1.153-0.264,2.011,0.245,2.221,1.168C22.436,12.459,21.84,13.182,20.361,13.52"/>
		<path d="M41.418,11.238c0.03,0.035,0.196,0.119,0.245,0.123c0.085,0.006,0.119-0.038,0.119-0.038c0-0.001,0-0.001,0-0.001
			c0.174-0.138-0.016,0.025,1.476-1.712c0.029-0.026,0.047-0.063,0.058-0.106c0.016-0.084-0.06-0.168-0.063-0.164
			c-0.01,0.01-1.427-1.326-3.513-1.55c-2.594-0.278-4.416,1.265-4.558,3.522c-0.115,1.887,1.185,2.952,3.739,3.791
			c1.825,0.6,1.206,1.854,0.083,1.804c-0.72-0.032-1.816-0.532-2.5-1.182c0,0-0.025-0.036-0.099-0.048
			c-0.065-0.012-0.127,0.016-0.165,0.062l-1.462,1.681c0,0.003-0.04,0.062-0.05,0.103c-0.02,0.102,0.061,0.162,0.061,0.163
			c1.039,1.077,2.472,1.687,3.888,1.774c2.431,0.151,4.187-1.287,4.36-3.43c0.188-2.275-1.775-3.109-3.161-3.57
			c-1.194-0.398-1.701-0.766-1.652-1.283C38.277,10.66,39.272,9.906,41.418,11.238"/>
		<path fill="#FFFFFF" d="M46.898,30.807c1.567,0.652,3.366-0.084,4.02-1.652c0.657-1.564-0.082-3.365-1.646-4.02
			c-1.565-0.655-3.369,0.083-4.021,1.648C44.594,28.35,45.332,30.152,46.898,30.807"/>
		<path fill="#FFFFFF" d="M40.684,38.064c-0.053-1.547-1.346-2.756-2.889-2.701c-1.544,0.051-2.754,1.346-2.701,2.889
			s1.347,2.754,2.889,2.701C39.527,40.9,40.737,39.605,40.684,38.064"/>
		<path fill="#FFFFFF" d="M26.328,46.996c2.718-0.672,4.371-3.41,3.695-6.113c-0.676-2.699-3.427-4.344-6.145-3.67
			c-2.716,0.674-4.371,3.408-3.693,6.113C20.861,46.025,23.611,47.67,26.328,46.996"/>
		<path d="M35.554,47.57c0.719-0.504,0.891-1.498,0.383-2.213c-0.507-0.715-1.507-0.885-2.225-0.381
			c-0.72,0.506-0.89,1.498-0.382,2.215c0.245,0.344,0.612,0.576,1.034,0.648C34.783,47.91,35.206,47.816,35.554,47.57
			 M34.225,46.559c-0.161-0.223-0.106-0.533,0.12-0.691c0.224-0.158,0.539-0.107,0.698,0.119c0.158,0.225,0.103,0.535-0.12,0.695
			c-0.111,0.074-0.243,0.104-0.376,0.082C34.417,46.74,34.302,46.67,34.225,46.559"/>
		<path d="M38.106,47.779c-2.133,2.617-5.611,2.912-5.645,2.916l-0.025,0.002l-0.025,0.004c-4.049,0.629-7.241-1.338-7.271-1.359
			c-0.286-0.178-0.665-0.092-0.845,0.193c-0.182,0.285-0.096,0.666,0.188,0.846c0.145,0.09,3.581,2.225,8.087,1.537
			c0.282-0.023,4.057-0.379,6.486-3.365c0.093-0.109,0.137-0.24,0.141-0.373c0.002-0.182-0.076-0.365-0.229-0.488
			C38.707,47.477,38.321,47.518,38.106,47.779"/>
		<path d="M23.732,36.617c-1.478,0.365-2.723,1.285-3.506,2.584c-0.775,1.293-1.002,2.811-0.639,4.271
			c0.758,3.025,3.846,4.873,6.888,4.119c1.477-0.367,2.722-1.283,3.505-2.588c0.778-1.289,1.005-2.807,0.639-4.27
			C29.86,37.711,26.772,35.863,23.732,36.617 M20.779,43.174c-0.285-1.141-0.108-2.328,0.5-3.342c0.613-1.02,1.591-1.738,2.75-2.023
			c2.383-0.594,4.807,0.854,5.398,3.225c0.078,0.309,0.122,0.619,0.133,0.926c0.027,0.844-0.188,1.678-0.631,2.414
			c-0.615,1.021-1.59,1.742-2.749,2.029C23.796,46.992,21.372,45.547,20.779,43.174"/>
		<path d="M22.311,44.557c1.001,0.129,1.915-0.574,2.048-1.568c0.13-0.996-0.573-1.91-1.577-2.037
			c-0.999-0.129-1.918,0.572-2.047,1.566C20.604,43.516,21.309,44.428,22.311,44.557"/>
		<path d="M34.545,38.268c0.062,1.844,1.616,3.291,3.455,3.227c1.843-0.061,3.291-1.611,3.229-3.453
			c-0.063-1.84-1.613-3.289-3.456-3.229C35.931,34.875,34.483,36.43,34.545,38.268 M35.542,38.236
			c-0.042-1.291,0.975-2.381,2.266-2.424c1.296-0.045,2.385,0.973,2.428,2.266c0.045,1.293-0.974,2.383-2.266,2.424
			C36.674,40.547,35.585,39.529,35.542,38.236"/>
		<path d="M36.643,39.744c0.672,0.086,1.286-0.387,1.374-1.059s-0.385-1.287-1.06-1.375c-0.671-0.088-1.286,0.387-1.376,1.057
			C35.498,39.039,35.972,39.654,36.643,39.744"/>
		<path d="M43.836,38.547c-0.73-3.682-2.824-6.873-5.911-9.035h0.002c-0.006-0.004-0.011-0.006-0.016-0.01
			c-0.119-0.082-0.234-0.168-0.359-0.25c-0.462-0.301-0.937-0.574-1.42-0.818c-3.515-1.884-9.276-3.721-22.481,1.652l2.436,2.254
			l-4.802,1.715l3.706,2.404l-4.313,1.594l4.042,2.865c-1.337,0.682-2.27,2.053-2.304,3.656c-0.048,2.32,1.802,4.248,4.121,4.295
			c0.349,0.008,0.684-0.033,1.01-0.105c3.112,4.818,8.956,7.568,14.924,6.467c3.711-0.686,6.936-2.746,9.084-5.807
			C43.786,46.242,44.597,42.377,43.836,38.547 M16.562,47.672c-1.661-0.033-2.983-1.414-2.948-3.074
			c0.025-1.207,0.766-2.234,1.806-2.691c0.04,0.609,0.12,1.223,0.241,1.838c0.275,1.393,0.751,2.697,1.387,3.896
			C16.889,47.662,16.729,47.674,16.562,47.672 M40.506,48.734c-1.959,2.791-4.896,4.672-8.271,5.293
			c-7.124,1.312-14.063-3.393-15.476-10.486c-0.539-2.734-0.182-5.428,0.87-7.785l18.761-5.771c0.148,0.092,0.301,0.186,0.449,0.281
			c3.015,1.979,5.058,5.002,5.753,8.512C43.291,42.287,42.548,45.824,40.506,48.734"/>
		<path fill="#FFFFFF" d="M44.047,32.588c-0.476,0.781-0.229,1.797,0.543,2.268c0.779,0.48,1.791,0.236,2.269-0.539
			c0.477-0.779,0.232-1.795-0.544-2.27C45.54,31.57,44.521,31.812,44.047,32.588"/>
		<path d="M27.693,25.326l0.003,0.001l-0.087-0.446l-0.062-0.826l-0.001-0.031l-0.123-2.529l-0.002-0.037l-0.012-0.812l0.039-0.41
			l-0.001-0.008c-0.001-0.021-0.017-0.039-0.038-0.038c0,0-0.361,0.017-0.705,0.034c-0.349,0.018-0.708,0.035-0.708,0.035
			c-0.019,0-0.034,0.019-0.034,0.041h-0.002l0.002,0.007l0.078,0.403l0.066,0.811l0.004,0.039l0.12,2.529l0.001,0.03l0.021,0.83
			l-0.046,0.451c0,0.003-0.001,0.006,0,0.007c0,0.024,0.02,0.043,0.041,0.041l0.068-0.004l1.273-0.062l0.071-0.004
			c0.022,0,0.035-0.019,0.035-0.043C27.699,25.332,27.693,25.328,27.693,25.326"/>
		<path d="M33.96,22.957c-0.063,1.65-1.605,2.582-3.171,2.522c-0.368-0.015-0.438-0.024-0.777-0.052
			c-0.338-0.027-0.791-0.029-0.791-0.029l-0.072-0.004c-0.021,0-0.038-0.021-0.037-0.043c0-0.004,0-0.008,0-0.01l0,0l0.09-0.457
			l0.05-0.843L29.25,24.01l0.1-2.578l0.003-0.039l0.003-0.83l-0.048-0.416l0.003-0.007c0-0.022,0.018-0.04,0.037-0.04
			c0,0,0.328,0.016,0.454,0.016c0.177,0.001,0.765-0.025,1.156-0.009C32.668,20.184,34.023,21.266,33.96,22.957 M30.977,21.273
			c-0.121-0.006-0.178,0.002-0.274,0.018l-0.011,0.15v0.041l-0.099,2.58v0.031l-0.005,0.277c0.093,0.017,0.172,0.031,0.262,0.036
			c0.817,0.03,1.703-0.442,1.742-1.405C32.629,21.998,31.779,21.304,30.977,21.273"/>
		<path d="M25.166,25.393l-2.275-2.191c0.492-0.565,1.021-1.094,1.587-1.58c0,0,0-0.001,0-0.002c0.011-0.01,0.017-0.025,0.015-0.038
			c-0.002-0.011-0.01-0.021-0.018-0.027l-0.907-0.905c-0.012-0.009-0.021-0.014-0.034-0.011c-0.004,0.002-0.012,0.005-0.016,0.007
			c0,0,0-0.001-0.002,0c-0.869,0.766-1.699,1.661-2.4,2.6l-0.175-0.969l-0.007-0.035l-0.118-0.805l-0.011-0.41l-0.002-0.009
			c-0.008-0.021-0.023-0.037-0.045-0.033c0,0-0.354,0.063-0.693,0.127c-0.344,0.062-0.699,0.125-0.699,0.125
			c-0.02,0.005-0.031,0.024-0.028,0.045v0.009l0.131,0.391l0.172,0.795l0.006,0.035l0.45,2.492l0.008,0.031l0.125,0.818l0.014,0.455
			h0.002c0,0.003-0.002,0.004-0.002,0.007c0.005,0.024,0.025,0.04,0.044,0.034v0.001l0.071-0.012l1.252-0.226l0.07-0.014
			c0.023-0.005,0.037-0.025,0.031-0.047c0-0.004-0.002-0.006-0.002-0.01v0.001l-0.146-0.431l-0.098-0.482l0.009-0.031
			c0.2-0.316,0.411-0.621,0.632-0.92l1.495,1.552v-0.001c0.007,0.01,0.021,0.018,0.033,0.016c0.001,0,0.001-0.001,0.003-0.002l0,0
			l1.514-0.273l0,0c0.002-0.002,0.002,0,0.002,0c0.021-0.003,0.035-0.025,0.032-0.049C25.181,25.407,25.173,25.399,25.166,25.393"/>
		<path d="M39.422,24.756c0.308-2.275-3.077-1.885-2.974-2.621c0.063-0.486,1.426-0.635,2.406,0.469c0,0,0,0,0,0.002
			c0.009,0.004,0.015,0.01,0.023,0.012c0.016,0,0.026-0.006,0.036-0.016V22.6c0.142-0.149,0.677-0.742,0.79-0.87
			c0.001-0.001,0.004-0.003,0.001-0.005c0.005-0.006,0.006-0.012,0.009-0.02c0.001-0.01,0.001-0.021-0.004-0.029h0.001
			c0,0-0.001,0-0.003-0.002c-0.002,0,0-0.001-0.002-0.001c-0.784-1.313-4.351-1.903-4.651,0.291
			c-0.295,2.127,3.188,2.019,3.022,2.691c-0.155,0.619-1.92,0.478-2.626-0.667c-0.008-0.01-0.021-0.018-0.029-0.02
			c-0.01,0-0.021,0.001-0.032,0.011c-0.16,0.128-0.786,0.659-0.933,0.791c-0.005,0.003-0.003,0.005-0.007,0.008
			c-0.006,0.007-0.009,0.013-0.012,0.022c0.002,0.016,0.002,0.022,0.008,0.033c0,0.001-0.001,0.002,0,0.001
			C35.833,26.85,39.115,26.973,39.422,24.756"/>
	</g>
	<g>
		<g>
			<path d="M52.152,46.643h0.939c0.156,0,0.284,0.023,0.385,0.068c0.19,0.09,0.286,0.252,0.286,0.49
				c0,0.125-0.025,0.227-0.077,0.305c-0.052,0.08-0.123,0.143-0.215,0.189c0.081,0.033,0.142,0.076,0.183,0.131
				c0.041,0.053,0.064,0.141,0.067,0.26l0.011,0.279c0.002,0.078,0.009,0.137,0.02,0.174c0.018,0.066,0.047,0.107,0.091,0.127v0.047
				h-0.344c-0.009-0.018-0.017-0.041-0.021-0.068c-0.007-0.029-0.012-0.084-0.015-0.162l-0.018-0.346
				C53.438,48,53.39,47.91,53.298,47.863c-0.052-0.025-0.134-0.037-0.245-0.037h-0.62v0.887h-0.28V46.643z M53.062,47.592
				c0.129,0,0.229-0.025,0.304-0.078c0.075-0.053,0.112-0.148,0.112-0.285c0-0.148-0.053-0.248-0.156-0.303
				c-0.057-0.027-0.13-0.041-0.223-0.041h-0.667v0.707H53.062z"/>
		</g>
		<circle fill="none" stroke="#000000" stroke-width="0.2771" cx="52.906" cy="47.744" r="1.801"/>
	</g>
</g>
</svg>
