<?xml version="1.0" encoding="utf-8"?>
<!-- Generator: Adobe Illustrator 16.0.3, SVG Export Plug-In . SVG Version: 6.00 Build 0)  -->
<!DOCTYPE svg PUBLIC "-//W3C//DTD SVG 1.1//EN" "http://www.w3.org/Graphics/SVG/1.1/DTD/svg11.dtd">
<svg version="1.1" id="Layer_1" xmlns="http://www.w3.org/2000/svg" xmlns:xlink="http://www.w3.org/1999/xlink" x="0px" y="0px"
	 width="87px" height="68px" viewBox="0 0 87 68" enable-background="new 0 0 87 68" xml:space="preserve">
<g>
	<g>
		<path fill="none" d="M45.732,16.01l-17.946,4.233c-0.635,0.149-1.03,0.789-0.881,1.426l3.613,15.315
			c0.126,0.537,0.6,0.914,1.151,0.914c0.092,0,0.185-0.012,0.273-0.032l5.302-1.25l0.847-14.192c0.027-0.484,0.449-0.85,0.933-0.829
			l9.375,0.559l-1.242-5.265C47.006,16.265,46.361,15.863,45.732,16.01z"/>
		<path fill="#FFFFFF" d="M64.605,23.38c-0.155-0.176-0.371-0.281-0.606-0.294l-12.485-0.745l-2.173-9.21
			c-0.095-0.4-0.446-0.68-0.856-0.68c-0.069,0-0.139,0.008-0.205,0.024l-24.351,5.744c-0.229,0.055-0.424,0.195-0.548,0.396
			c-0.123,0.2-0.161,0.438-0.106,0.667l6.271,26.595c0.096,0.398,0.448,0.678,0.857,0.678c0.068,0,0.138-0.008,0.205-0.022
			l6.132-1.447l-0.275,4.619c-0.026,0.485,0.346,0.903,0.828,0.932l24.976,1.49c0.02,0,0.037,0.001,0.055,0.001
			c0.467,0,0.853-0.363,0.877-0.83l1.628-27.275C64.841,23.783,64.764,23.556,64.605,23.38z M38.092,22.425l-0.847,14.192
			l-5.302,1.25c-0.089,0.021-0.182,0.033-0.273,0.033c-0.552,0-1.025-0.377-1.151-0.916L26.905,21.67
			c-0.149-0.637,0.246-1.277,0.881-1.426l17.946-4.233c0.629-0.146,1.272,0.254,1.424,0.88l1.242,5.265l-9.375-0.559
			C38.541,21.575,38.119,21.941,38.092,22.425z M60.721,42.705c-0.037,0.625-0.558,1.113-1.185,1.113l-0.07-0.002L45.607,42.99
			l-4.547-0.271c-0.315-0.019-0.605-0.158-0.816-0.396c-0.21-0.237-0.315-0.543-0.296-0.857L40.28,35.9l0.606-10.144
			c0.035-0.625,0.554-1.115,1.181-1.115l7.017,0.417l3.113,0.185l8.347,0.497c0.649,0.038,1.149,0.601,1.11,1.254L60.721,42.705z"/>
		<polygon fill="#4C94D0" points="59.536,43.424 59.536,43.416 59.535,43.416 		"/>
	</g>
	<g>
		<path fill="#FFFFFF" d="M59.604,35.074c-0.992-1.258,0.645-4.878-0.414-5.016c-1.06-0.138-1.748,1.427-2.256,2.071
			c-0.504,0.645-1.24,0.46-1.148-0.23c0.092-0.691,0.506-2.485-2.162-2.807c-8.191-0.184-9.479,2.623-11.826,5.982
			c0,0-0.184,1.609,4.279,3.818c4.463,2.209,9.242,0.271,9.479-1.795c0.185-1.609,1.053-2.211,1.197-1.841
			c0.553,1.427,1.195,1.795,1.654,2.024C59.938,38.047,60.293,35.947,59.604,35.074z M48.156,34.158
			c-0.405,0.917-1.354,1.387-2.114,1.051c-0.76-0.338-1.048-1.354-0.642-2.27c0.406-0.917,1.352-1.388,2.113-1.051
			C48.271,32.227,48.562,33.242,48.156,34.158z"/>
		<g opacity="0.05">
			<g>
				<path fill="#010101" d="M52.879,29.083c0.241,0,0.489,0.002,0.744,0.008c2.668,0.322,2.254,2.116,2.162,2.807
					c-0.053,0.397,0.169,0.627,0.464,0.627c0.216,0,0.472-0.125,0.687-0.397c0.484-0.617,1.139-2.08,2.125-2.08
					c0.043,0,0.086,0.003,0.131,0.009c1.058,0.138-0.578,3.759,0.414,5.016c0.586,0.741,0.416,2.372-0.59,2.372
					c-0.178,0-0.381-0.051-0.608-0.164c-0.459-0.229-1.103-0.6-1.654-2.024c-0.026-0.069-0.081-0.104-0.151-0.104
					c-0.299,0-0.896,0.642-1.045,1.945c-0.162,1.416-2.461,2.772-5.33,2.772c-1.312,0-2.746-0.284-4.148-0.979
					c-4.463-2.209-4.279-3.817-4.279-3.817C44.07,31.819,45.35,29.083,52.879,29.083 M46.562,35.316
					c0.631,0,1.277-0.442,1.595-1.158c0.405-0.916,0.116-1.932-0.644-2.27c-0.166-0.074-0.342-0.108-0.519-0.108
					c-0.631,0-1.277,0.444-1.595,1.16c-0.406,0.916-0.118,1.932,0.642,2.27C46.209,35.282,46.385,35.316,46.562,35.316
					 M52.879,28.083L52.879,28.083c-7.506,0-9.32,2.651-11.421,5.722c-0.157,0.229-0.316,0.461-0.48,0.695l-0.145,0.208
					l-0.029,0.252c-0.062,0.541,0.104,2.489,4.83,4.828c1.431,0.708,3.019,1.082,4.593,1.082c3.312,0,6.088-1.606,6.322-3.66
					c0.008-0.062,0.016-0.123,0.025-0.181c0.455,0.609,0.939,0.924,1.386,1.146c0.358,0.18,0.714,0.271,1.056,0.271
					c0.715,0,1.338-0.405,1.668-1.084c0.434-0.896,0.309-2.146-0.293-2.908c-0.24-0.307-0.062-1.561,0.032-2.235
					c0.158-1.118,0.283-2-0.196-2.632c-0.221-0.289-0.541-0.474-0.904-0.522c-0.09-0.011-0.176-0.017-0.262-0.017
					c-1.033,0-1.738,0.759-2.244,1.471c-0.066-0.385-0.213-0.793-0.506-1.174c-0.523-0.686-1.389-1.105-2.565-1.248l-0.05-0.006
					l-0.049-0.001C53.384,28.086,53.127,28.083,52.879,28.083L52.879,28.083z M46.562,34.316c-0.043,0-0.08-0.008-0.115-0.022
					c-0.217-0.096-0.32-0.522-0.131-0.948c0.164-0.371,0.466-0.566,0.68-0.566c0.042,0,0.079,0.009,0.115,0.023
					c0.216,0.096,0.32,0.524,0.132,0.95C47.078,34.124,46.775,34.316,46.562,34.316L46.562,34.316z"/>
			</g>
		</g>
	</g>
	<g opacity="0.05">
		<g>
			<path fill="#010101" d="M45.895,17.34l0.797,3.379l-7.607-0.454l-0.07-0.002h-0.03c-1.18,0-2.156,0.916-2.221,2.082L35.975,35.55
				l-4.192,0.992l-3.547-15.036L45.895,17.34 M45.996,15.98c-0.088,0-0.176,0.01-0.264,0.03l-17.946,4.233
				c-0.635,0.149-1.03,0.789-0.881,1.426l3.613,15.315c0.126,0.537,0.6,0.914,1.151,0.914c0.092,0,0.185-0.012,0.273-0.032
				l5.302-1.25l0.847-14.192c0.026-0.47,0.426-0.83,0.892-0.83c0.014,0,0.027,0,0.041,0.001l9.375,0.559l-1.242-5.265
				C47.027,16.352,46.532,15.98,45.996,15.98L45.996,15.98z"/>
		</g>
		<g>
			<path fill="#010101" d="M48.482,12.451c0.41,0,0.764,0.279,0.857,0.68l2.172,9.21l12.486,0.745
				c0.234,0.014,0.451,0.118,0.607,0.294c0.155,0.176,0.233,0.403,0.22,0.639l-1.628,27.275c-0.024,0.466-0.41,0.83-0.877,0.83
				c-0.019,0-0.035-0.001-0.055-0.001l-24.976-1.49c-0.482-0.027-0.854-0.445-0.828-0.932l0.275-4.619l-6.132,1.447
				c-0.067,0.016-0.137,0.022-0.205,0.022c-0.409,0-0.762-0.278-0.857-0.678l-6.27-26.594c-0.055-0.229-0.017-0.466,0.106-0.667
				c0.124-0.201,0.318-0.341,0.548-0.396l24.351-5.744C48.346,12.458,48.414,12.451,48.482,12.451 M31.67,37.9
				c0.092,0,0.185-0.012,0.273-0.033l5.302-1.25l0.847-14.192c0.026-0.47,0.426-0.83,0.892-0.83c0.014,0,0.027,0,0.041,0.001
				l9.374,0.559l-1.241-5.265c-0.13-0.539-0.624-0.911-1.16-0.911c-0.088,0-0.177,0.01-0.265,0.03l-17.945,4.233
				c-0.635,0.149-1.03,0.789-0.881,1.426l3.613,15.314C30.645,37.523,31.118,37.9,31.67,37.9 M59.536,43.818
				c0.627,0,1.146-0.488,1.185-1.113l0.936-15.71c0.037-0.653-0.461-1.216-1.111-1.254l-8.347-0.497l-3.113-0.185l-7.017-0.417
				c-0.627,0-1.146,0.49-1.181,1.115L40.28,35.9l-0.332,5.563c-0.02,0.315,0.086,0.62,0.296,0.856
				c0.211,0.238,0.501,0.38,0.816,0.397l4.547,0.271l13.857,0.827L59.536,43.818 M48.482,11.119c-0.174,0-0.348,0.02-0.515,0.061
				l-24.347,5.743c-0.578,0.137-1.065,0.489-1.375,0.991c-0.312,0.507-0.406,1.101-0.269,1.676l6.271,26.592
				c0.242,1.004,1.127,1.703,2.154,1.703c0.17,0,0.34-0.02,0.506-0.059l4.395-1.037l-0.168,2.833
				c-0.066,1.224,0.867,2.269,2.079,2.34l24.976,1.49l0.039,0.003h0.039l0.055,0.001c1.176,0,2.146-0.919,2.207-2.093l1.627-27.266
				c0.037-0.589-0.16-1.16-0.555-1.603c-0.392-0.442-0.934-0.705-1.524-0.739L52.581,21.07l-1.944-8.246
				C50.398,11.82,49.514,11.119,48.482,11.119L48.482,11.119z M28.235,21.506l17.66-4.166l0.797,3.379l-7.587-0.452l-0.04-0.002
				l-0.08-0.001c-1.18,0-2.156,0.916-2.222,2.086l-0.788,13.199l-4.193,0.988L28.235,21.506L28.235,21.506z M41.286,41.398
				l0.323-5.42l0.598-9.995l6.798,0.405l3.113,0.185l8.198,0.488L59.398,42.48l-13.713-0.819L41.286,41.398L41.286,41.398z"/>
		</g>
		<g>
			<path fill="#010101" d="M59.536,43.416v0.008V43.416L59.536,43.416 M58.204,43.416v0.008h2.664L58.204,43.416L58.204,43.416z"/>
		</g>
	</g>
</g>
</svg>
