<?xml version="1.0" encoding="utf-8"?>
<!-- Generator: Adobe Illustrator 16.0.3, SVG Export Plug-In . SVG Version: 6.00 Build 0)  -->
<!DOCTYPE svg PUBLIC "-//W3C//DTD SVG 1.1//EN" "http://www.w3.org/Graphics/SVG/1.1/DTD/svg11.dtd">
<svg version="1.1" id="Layer_1" xmlns="http://www.w3.org/2000/svg" xmlns:xlink="http://www.w3.org/1999/xlink" x="0px" y="0px"
	 width="87px" height="68px" viewBox="0 0 87 68" enable-background="new 0 0 87 68" xml:space="preserve">
<g>
	<g opacity="0.05">
		<path fill="#010101" d="M44.083,11.697c0.056,0.008,0.28,0.187,0.348,0.636c0.086,0.577-0.179,1.034-0.35,1.082
			c-0.052-0.005-0.281-0.185-0.349-0.636C43.646,12.203,43.907,11.747,44.083,11.697 M44.081,10.697
			c-0.089,0-0.181,0.013-0.274,0.038c-0.737,0.206-1.214,1.185-1.064,2.191c0.134,0.882,0.703,1.489,1.338,1.489
			c0.091,0,0.182-0.013,0.272-0.038c0.739-0.206,1.218-1.186,1.067-2.191C45.287,11.305,44.716,10.697,44.081,10.697L44.081,10.697z
			"/>
	</g>
	<g opacity="0.05">
		<path fill="#010101" d="M34.52,11.635c0.056,0.008,0.28,0.187,0.348,0.636c0.086,0.577-0.179,1.034-0.35,1.082
			c-0.052-0.005-0.281-0.185-0.349-0.636C34.083,12.141,34.345,11.684,34.52,11.635 M34.518,10.634
			c-0.089,0-0.181,0.013-0.274,0.038c-0.737,0.206-1.214,1.185-1.064,2.191c0.134,0.882,0.703,1.489,1.338,1.489
			c0.091,0,0.182-0.013,0.272-0.038c0.739-0.206,1.218-1.186,1.067-2.191C35.724,11.242,35.154,10.634,34.518,10.634L34.518,10.634z
			"/>
	</g>
	<g opacity="0.05">
		<path fill="#010101" d="M30.382,26.114c0.485,0,0.908,0.346,1.005,0.82c0.112,0.554-0.248,1.097-0.803,1.211
			c-0.068,0.014-0.137,0.021-0.205,0.021c-0.485,0-0.908-0.346-1.004-0.822c-0.112-0.553,0.248-1.096,0.798-1.208
			C30.246,26.121,30.316,26.114,30.382,26.114 M30.382,25.114c-0.133,0-0.268,0.014-0.404,0.041
			c-1.096,0.224-1.805,1.292-1.582,2.388c0.195,0.961,1.041,1.623,1.984,1.623c0.133,0,0.27-0.014,0.405-0.042
			c1.097-0.225,1.804-1.292,1.582-2.389C32.171,25.776,31.327,25.114,30.382,25.114L30.382,25.114z"/>
	</g>
	<g opacity="0.05">
		<path fill="#010101" d="M37.007,29.083c0.485,0,0.908,0.346,1.005,0.82c0.112,0.554-0.248,1.097-0.803,1.211
			c-0.068,0.014-0.137,0.021-0.205,0.021c-0.485,0-0.908-0.346-1.004-0.822c-0.112-0.553,0.248-1.096,0.798-1.208
			C36.871,29.09,36.941,29.083,37.007,29.083 M37.007,28.083c-0.133,0-0.268,0.014-0.404,0.041
			c-1.096,0.224-1.805,1.292-1.582,2.388c0.195,0.961,1.041,1.623,1.984,1.623c0.133,0,0.27-0.014,0.405-0.042
			c1.097-0.225,1.804-1.292,1.582-2.389C38.796,28.745,37.952,28.083,37.007,28.083L37.007,28.083z"/>
	</g>
	<g opacity="0.05">
		<path fill="#010101" d="M39.52,13.635c0.056,0.008,0.28,0.187,0.348,0.636c0.086,0.577-0.179,1.034-0.35,1.082
			c-0.052-0.005-0.281-0.185-0.349-0.636C39.083,14.141,39.345,13.684,39.52,13.635 M39.518,12.634
			c-0.089,0-0.181,0.013-0.274,0.038c-0.737,0.206-1.214,1.185-1.064,2.191c0.134,0.882,0.703,1.489,1.338,1.489
			c0.091,0,0.182-0.013,0.272-0.038c0.739-0.206,1.218-1.186,1.067-2.191C40.724,13.242,40.154,12.634,39.518,12.634L39.518,12.634z
			"/>
	</g>
	<g opacity="0.05">
		<path fill="#010101" d="M27.826,45.246L27.826,45.246c0.768,0,1.553,0.741,1.909,1.801c0.475,1.424,0.061,3.004-0.898,3.446
			c-0.098,0.045-0.199,0.076-0.299,0.094c-0.064,0.011-0.128,0.016-0.193,0.016c-0.77,0-1.555-0.741-1.91-1.803
			c-0.475-1.424-0.061-3.003,0.9-3.446c0.097-0.045,0.194-0.075,0.297-0.092C27.697,45.251,27.761,45.246,27.826,45.246
			 M27.826,44.246c-0.121,0-0.242,0.01-0.362,0.03c-0.182,0.029-0.365,0.086-0.543,0.167c-1.434,0.662-2.076,2.748-1.434,4.673
			c0.511,1.528,1.681,2.486,2.858,2.486c0.121,0,0.241-0.01,0.361-0.03c0.183-0.031,0.365-0.087,0.544-0.168
			c1.434-0.662,2.075-2.751,1.434-4.674C30.171,45.205,29.004,44.245,27.826,44.246L27.826,44.246z"/>
	</g>
	<g opacity="0.05">
		<path fill="#010101" d="M50.373,49.433L50.373,49.433c1.695,0,2.584,0.171,3.026,0.31c-0.79,0.575-3.019,1.612-7.147,2.504
			c-0.67,0.146-1.377,0.282-2.099,0.407c-2.379,0.405-4.739,0.63-6.644,0.63c-1.701,0-2.587-0.172-3.029-0.312
			c0.788-0.573,3.016-1.61,7.147-2.503c0.676-0.146,1.381-0.282,2.097-0.405C46.105,49.657,48.466,49.433,50.373,49.433
			 M50.373,48.433c-1.926,0-4.321,0.219-6.816,0.646c-0.702,0.12-1.422,0.258-2.14,0.413c-5.759,1.244-9.303,3.084-7.914,4.117
			c0.611,0.454,2.072,0.675,4.007,0.675c1.926,0,4.321-0.219,6.812-0.645c0.706-0.122,1.424-0.26,2.142-0.415
			c5.759-1.244,9.305-3.087,7.916-4.118C53.766,48.653,52.306,48.433,50.373,48.433L50.373,48.433z"/>
	</g>
	<g opacity="0.05">
		<path fill="#010101" d="M51.415,37.541v1c1.391,0,2.594,0.75,2.861,1.786c0.153,0.585-0.044,1.066-0.237,1.367
			c-0.396,0.617-1.124,1.061-1.998,1.216c-0.203,0.036-0.413,0.056-0.665,0.058c-1.385,0-2.584-0.749-2.851-1.783
			c-0.153-0.587,0.045-1.069,0.237-1.37c0.396-0.617,1.122-1.06,1.995-1.215c0.2-0.036,0.41-0.056,0.621-0.059L51.415,37.541
			 M51.415,37.541c-0.015,0-0.03,0-0.046,0c-0.262,0.004-0.525,0.027-0.787,0.074c-2.121,0.377-3.477,2.088-3.024,3.821
			c0.388,1.502,2.011,2.531,3.818,2.531c0.018,0,0.036,0,0.054,0c0.26-0.003,0.521-0.026,0.786-0.073
			c2.124-0.377,3.48-2.088,3.028-3.82C54.854,38.567,53.228,37.541,51.415,37.541L51.415,37.541z"/>
	</g>
	<g opacity="0.05">
		<path fill="#010101" d="M43.101,26.208c0.485,0,0.908,0.346,1.005,0.82c0.112,0.554-0.248,1.097-0.803,1.211
			c-0.068,0.014-0.137,0.021-0.205,0.021c-0.485,0-0.908-0.346-1.004-0.822c-0.112-0.553,0.248-1.096,0.798-1.208
			C42.964,26.215,43.035,26.208,43.101,26.208 M43.101,25.208c-0.133,0-0.268,0.014-0.404,0.041
			c-1.096,0.224-1.805,1.292-1.582,2.388c0.195,0.961,1.041,1.623,1.984,1.623c0.133,0,0.27-0.014,0.405-0.042
			c1.097-0.225,1.804-1.292,1.582-2.389C44.89,25.87,44.045,25.208,43.101,25.208L43.101,25.208z"/>
	</g>
	<g opacity="0.05">
		<path fill="#010101" d="M59.427,26.567c1.118,0,1.973,0.185,2.464,0.362c-0.355,0.136-0.928,0.284-1.773,0.345
			c-0.234,0.017-0.468,0.024-0.699,0.024c-1.118,0-1.974-0.186-2.464-0.362c0.354-0.136,0.926-0.284,1.77-0.344
			C58.961,26.574,59.196,26.567,59.427,26.567 M59.427,25.567c-0.255,0-0.514,0.008-0.775,0.027
			c-2.086,0.15-3.435,0.872-3.009,1.611c0.371,0.646,1.979,1.093,3.775,1.093c0.256,0,0.514-0.008,0.772-0.027
			c2.089-0.15,3.439-0.872,3.013-1.611C62.833,26.013,61.224,25.567,59.427,25.567L59.427,25.567z"/>
	</g>
	<g opacity="0.05">
		<path fill="#010101" d="M59.428,21.861c1.752,0,2.978,0.333,3.521,0.606c-0.43,0.216-1.3,0.49-2.647,0.583
			c-0.281,0.02-0.579,0.03-0.884,0.03c-1.752,0-2.978-0.334-3.52-0.605c0.428-0.216,1.297-0.491,2.643-0.583
			C58.839,21.87,59.135,21.861,59.428,21.861 M59.428,20.861c-0.315,0-0.635,0.01-0.957,0.032c-2.576,0.177-4.241,1.027-3.716,1.899
			c0.459,0.762,2.444,1.288,4.662,1.288c0.315,0,0.634-0.01,0.954-0.032c2.579-0.177,4.246-1.027,3.72-1.898
			C63.633,21.386,61.647,20.861,59.428,20.861L59.428,20.861z"/>
	</g>
	<g>
		<path fill="none" d="M59.417,24.08c0.315,0,0.634-0.01,0.954-0.032c2.579-0.177,4.246-1.027,3.72-1.898
			c-0.458-0.763-2.444-1.288-4.663-1.288c-0.315,0-0.635,0.01-0.957,0.032c-2.576,0.177-4.241,1.027-3.716,1.899
			C55.214,23.554,57.2,24.08,59.417,24.08z"/>
		<path fill="none" d="M34.518,10.634c-0.089,0-0.181,0.013-0.274,0.038c-0.737,0.206-1.214,1.185-1.064,2.191
			c0.134,0.882,0.703,1.489,1.338,1.489c0.091,0,0.182-0.013,0.272-0.038c0.739-0.206,1.218-1.186,1.067-2.191
			C35.724,11.242,35.154,10.634,34.518,10.634z"/>
		<path fill="none" d="M59.427,25.567c-0.255,0-0.514,0.008-0.775,0.027c-2.086,0.15-3.435,0.872-3.009,1.611
			c0.371,0.646,1.979,1.093,3.775,1.093c0.256,0,0.514-0.008,0.772-0.027c2.089-0.15,3.439-0.872,3.013-1.611
			C62.833,26.013,61.224,25.567,59.427,25.567z"/>
		<path fill="none" d="M44.08,14.415c0.091,0,0.182-0.013,0.272-0.038c0.739-0.206,1.218-1.186,1.067-2.191
			c-0.133-0.881-0.703-1.489-1.339-1.489c-0.089,0-0.181,0.013-0.274,0.038c-0.737,0.206-1.214,1.185-1.064,2.191
			C42.875,13.808,43.445,14.415,44.08,14.415z"/>
		<path fill="none" d="M51.369,37.541c-0.262,0.004-0.525,0.027-0.787,0.074c-2.121,0.377-3.477,2.088-3.024,3.821
			c0.392,1.517,2.043,2.552,3.872,2.531c0.26-0.003,0.521-0.026,0.786-0.073c2.124-0.377,3.48-2.088,3.028-3.82
			C54.851,38.555,53.201,37.523,51.369,37.541z"/>
		<path fill="none" d="M27.463,44.276c-0.182,0.029-0.365,0.086-0.543,0.167c-1.434,0.662-2.076,2.748-1.434,4.673
			c0.563,1.685,1.927,2.677,3.22,2.456c0.183-0.031,0.365-0.087,0.544-0.168c1.434-0.662,2.075-2.751,1.434-4.674
			C30.119,45.049,28.758,44.055,27.463,44.276z"/>
		<path fill="none" d="M45.086,26.83c-0.196-0.96-1.041-1.622-1.985-1.622c-0.133,0-0.268,0.014-0.404,0.041
			c-1.096,0.224-1.805,1.292-1.582,2.388c0.195,0.961,1.041,1.623,1.984,1.623c0.133,0,0.27-0.014,0.405-0.042
			C44.601,28.994,45.308,27.926,45.086,26.83z"/>
		<path fill="none" d="M54.379,49.105c-1.224-0.902-5.82-0.883-10.823-0.027c-0.702,0.12-1.422,0.258-2.14,0.413
			c-5.759,1.244-9.303,3.084-7.914,4.117c1.219,0.905,5.825,0.883,10.819,0.03c0.706-0.122,1.424-0.26,2.142-0.415
			C52.222,51.979,55.768,50.137,54.379,49.105z"/>
		<path fill="none" d="M40.857,14.123c-0.133-0.881-0.703-1.489-1.339-1.489c-0.089,0-0.181,0.013-0.274,0.038
			c-0.737,0.206-1.214,1.185-1.064,2.191c0.134,0.882,0.703,1.489,1.338,1.489c0.091,0,0.182-0.013,0.272-0.038
			C40.529,16.109,41.007,15.128,40.857,14.123z"/>
		<path fill="none" d="M30.382,25.114c-0.133,0-0.268,0.014-0.404,0.041c-1.096,0.224-1.805,1.292-1.582,2.388
			c0.195,0.961,1.041,1.623,1.984,1.623c0.133,0,0.27-0.014,0.405-0.042c1.097-0.225,1.804-1.292,1.582-2.389
			C32.171,25.776,31.327,25.114,30.382,25.114z"/>
		<path fill="none" d="M37.007,28.083c-0.133,0-0.268,0.014-0.404,0.041c-1.096,0.224-1.805,1.292-1.582,2.388
			c0.195,0.961,1.041,1.623,1.984,1.623c0.133,0,0.27-0.014,0.405-0.042c1.097-0.225,1.804-1.292,1.582-2.389
			C38.796,28.745,37.952,28.083,37.007,28.083z"/>
		<path fill="#FFFFFF" d="M59.448,43.514c-0.002-0.009-0.004-0.02-0.009-0.027c-0.658-5.621-4.517-11.689-11.094-8.9
			c-0.304,0.129-0.579,0.285-0.836,0.459l-2.91-1.984c1.267-1.475,2.027-3.311,2.027-5.311c0-1.786-0.603-3.445-1.635-4.83
			c0.83-0.112,1.503-0.049,1.999,0.202c0.981,0.497,1.339,1.755,1.684,2.972c0.17,0.599,0.33,1.164,0.567,1.662
			c0.657,1.384,1.778,1.826,2.987,1.826c0.6,0,1.22-0.111,1.815-0.268c0.004,0.009,0.006,0.02,0.009,0.029
			c1.283,4.062,6.707,6.558,9.381,2.688c1.068-1.545,1.652-3.67,1.857-4.78c0.205-1.11,0.465-2.385,0.312-5.369
			c0.513-0.021,0.977-0.091,1.396-0.214c0,0,2.668-0.538,2.76-5.943l-1.299,0.048l-2.297,0.11c0.561,5.11-1.073,4.241-1.073,4.241
			c-1.975-4.269-10.384-4.116-11.781,0.636c-0.203,0.689-0.252,1.694-0.252,1.694c-0.154,1.038,0.007,1.834,0.101,2.846l0.097,0.759
			c0.07,0.522,0.174,1.038,0.292,1.549c-1.391,0.372-2.28,0.276-2.702-0.613c-0.173-0.364-0.313-0.859-0.463-1.385
			c-0.407-1.437-0.914-3.224-2.589-4.072c-1.085-0.549-2.484-0.59-4.239-0.134c-0.961-0.811-2.104-1.448-3.371-1.863l0.013-1.894
			c3.306-0.312,7.057-2.36,6.772-6.13c0.015,0.188,0.042,0.52,0-0.009c-0.012-0.146-0.009-0.099-0.002-0.008
			c-0.139-1.65-1.31-3.2-3.121-3.228c-2.274,0.106-2.553,3.196-4.516,3.196h-0.032c-2.001,0-1.838-3.04-4.465-3.283l-0.002,0.009
			c-3.333-0.32-3.488,4.184-2.576,6.072c1.105,2.111,3.716,3.178,6.06,3.389c0.036,0.434,0.074,0.956,0.108,1.468
			c-0.532-0.08-1.076-0.13-1.633-0.13c-5.433,0-9.837,3.92-9.837,8.756s4.404,8.757,9.837,8.757c2.664,0,5.076-0.946,6.846-2.477
			c0.88,0.922,1.711,1.848,2.373,2.604c-2.293,3.611-1.581,9.831-6.278,9.617c-1.731,0-2.599-1.211-3.552-2.487
			c-4.585-8.521-16.067-2.546-13.789,6.071c-0.015,0.059-0.004,0.098,0.032,0.119c0.533,1.98,1.302,3.869,2.38,5.584
			c5.919,1.805,12.835,2.496,20.798,2.02c3.694-0.222,7.111-0.651,10.258-1.285c0.071-0.086,0.147-0.174,0.21-0.258
			C60.491,49.854,59.748,46.152,59.448,43.514z M60.191,28.271c-0.259,0.019-0.517,0.027-0.772,0.027
			c-1.796,0-3.404-0.446-3.775-1.093c-0.426-0.74,0.923-1.461,3.009-1.611c0.262-0.019,0.521-0.027,0.775-0.027
			c1.797,0,3.405,0.446,3.776,1.093C63.63,27.399,62.28,28.121,60.191,28.271z M58.471,20.893c0.322-0.022,0.642-0.032,0.957-0.032
			c2.219,0,4.205,0.525,4.663,1.288c0.526,0.872-1.141,1.721-3.72,1.898c-0.32,0.022-0.639,0.032-0.954,0.032
			c-2.218,0-4.203-0.526-4.662-1.288C54.23,21.92,55.895,21.07,58.471,20.893z M43.806,10.735c0.094-0.025,0.186-0.038,0.274-0.038
			c0.636,0,1.206,0.608,1.339,1.489c0.15,1.005-0.328,1.986-1.067,2.191c-0.091,0.025-0.182,0.038-0.272,0.038
			c-0.635,0-1.204-0.607-1.338-1.489C42.592,11.919,43.069,10.94,43.806,10.735z M34.79,14.314
			c-0.091,0.025-0.182,0.038-0.272,0.038c-0.635,0-1.204-0.607-1.338-1.489c-0.149-1.007,0.327-1.986,1.064-2.191
			c0.094-0.025,0.186-0.038,0.274-0.038c0.636,0,1.206,0.608,1.339,1.489C36.007,13.128,35.529,14.109,34.79,14.314z M30.786,29.125
			c-0.136,0.028-0.272,0.042-0.405,0.042c-0.943,0-1.789-0.662-1.984-1.623c-0.223-1.097,0.486-2.164,1.582-2.388
			c0.137-0.027,0.271-0.041,0.404-0.041c0.944,0,1.789,0.662,1.985,1.622C32.589,27.833,31.882,28.9,30.786,29.125z M37.411,32.093
			c-0.136,0.028-0.272,0.042-0.405,0.042c-0.943,0-1.789-0.662-1.984-1.623c-0.223-1.097,0.486-2.164,1.582-2.388
			c0.137-0.027,0.271-0.041,0.404-0.041c0.944,0,1.789,0.662,1.985,1.622C39.214,30.801,38.507,31.869,37.411,32.093z
			 M39.517,16.353c-0.635,0-1.204-0.607-1.338-1.489c-0.149-1.007,0.327-1.986,1.064-2.191c0.094-0.025,0.186-0.038,0.274-0.038
			c0.636,0,1.206,0.608,1.339,1.489c0.15,1.005-0.328,1.986-1.067,2.191C39.699,16.34,39.608,16.353,39.517,16.353z M43.504,29.218
			c-0.136,0.028-0.272,0.042-0.405,0.042c-0.943,0-1.789-0.662-1.984-1.623c-0.223-1.097,0.486-2.164,1.582-2.388
			c0.137-0.027,0.271-0.041,0.404-0.041c0.944,0,1.789,0.662,1.985,1.622C45.308,27.926,44.601,28.994,43.504,29.218z M29.25,51.404
			c-0.179,0.081-0.361,0.137-0.544,0.168c-1.293,0.221-2.656-0.771-3.22-2.456c-0.643-1.925,0-4.011,1.434-4.673
			c0.178-0.081,0.361-0.138,0.543-0.167c1.295-0.222,2.655,0.772,3.221,2.454C31.326,48.653,30.684,50.742,29.25,51.404z
			 M46.463,53.224c-0.718,0.155-1.436,0.293-2.142,0.415c-4.994,0.853-9.601,0.875-10.819-0.03
			c-1.389-1.033,2.155-2.873,7.914-4.117c0.718-0.155,1.438-0.293,2.14-0.413c5.003-0.855,9.6-0.875,10.823,0.027
			C55.768,50.137,52.222,51.979,46.463,53.224z M52.215,43.895c-0.265,0.047-0.526,0.07-0.786,0.073
			c-1.829,0.021-3.48-1.015-3.872-2.531c-0.452-1.733,0.903-3.444,3.024-3.821c0.262-0.047,0.525-0.07,0.787-0.074
			c1.832-0.018,3.482,1.014,3.875,2.533C55.696,41.807,54.339,43.518,52.215,43.895z"/>
	</g>
	<g opacity="0.05">
		<path fill="none" d="M58.088,52.582c1.631-2.221,1.659-6.43,1.359-9.068c-0.002-0.009-0.004-0.02-0.009-0.027
			c-0.544-4.647-3.276-9.601-7.924-9.601c-0.974-0.001-2.03,0.218-3.17,0.7c-0.304,0.129-0.579,0.285-0.836,0.459l-2.91-1.984
			c1.267-1.475,2.027-3.311,2.027-5.311c0-1.786-0.603-3.445-1.635-4.83c0.263-0.036,0.51-0.054,0.74-0.054
			c0.498,0,0.92,0.084,1.259,0.255c0.981,0.497,1.339,1.755,1.684,2.972c0.17,0.599,0.33,1.164,0.567,1.662
			c0.657,1.384,1.778,1.826,2.987,1.826c0.6,0,1.22-0.111,1.815-0.268c0.004,0.009,0.006,0.02,0.009,0.029
			c0.834,2.639,3.416,4.618,5.856,4.618c1.314,0,2.588-0.575,3.524-1.93c1.068-1.545,1.652-3.67,1.857-4.78
			c0.205-1.11,0.465-2.385,0.312-5.369c0.513-0.021,0.977-0.091,1.396-0.214c0,0,2.668-0.538,2.76-5.943l-1.299,0.048l-2.297,0.11
			c0.418,3.812-0.385,4.297-0.82,4.297c-0.147,0-0.253-0.056-0.253-0.056c-0.944-2.041-3.359-3.071-5.775-3.071
			c-2.638,0-5.276,1.227-6.006,3.708c-0.203,0.689-0.252,1.694-0.252,1.694c-0.154,1.038,0.007,1.834,0.101,2.846l0.097,0.759
			c0.07,0.522,0.174,1.038,0.292,1.549c-0.492,0.132-0.922,0.205-1.29,0.205c-0.672,0-1.14-0.244-1.412-0.818
			c-0.173-0.364-0.313-0.859-0.463-1.385c-0.407-1.437-0.914-3.224-2.589-4.072c-0.59-0.298-1.272-0.447-2.055-0.447
			c-0.656,0-1.384,0.104-2.185,0.312c-0.961-0.811-2.104-1.448-3.371-1.863l0.013-1.894c3.306-0.312,7.057-2.36,6.772-6.13
			c0.009,0.112,0.022,0.277,0.022,0.277s-0.006-0.074-0.022-0.286c-0.006-0.067-0.008-0.094-0.008-0.094s0.002,0.037,0.006,0.086
			c-0.139-1.65-1.31-3.2-3.121-3.228c-2.274,0.106-2.553,3.196-4.516,3.196h-0.032c-2.001,0-1.838-3.04-4.465-3.283l-0.002,0.009
			c-0.113-0.011-0.224-0.016-0.33-0.016c-3.013,0-3.127,4.265-2.246,6.088c1.105,2.111,3.716,3.178,6.06,3.389
			c0.036,0.434,0.074,0.956,0.108,1.468c-0.532-0.08-1.076-0.13-1.633-0.13c-5.433,0-9.837,3.92-9.837,8.756
			s4.404,8.757,9.837,8.757c2.664,0,5.076-0.946,6.846-2.477c0.88,0.922,1.711,1.848,2.373,2.604
			c-2.254,3.551-1.604,9.623-6.046,9.623c-0.076,0-0.153-0.002-0.232-0.006c-1.731,0-2.599-1.211-3.552-2.487
			c-1.566-2.911-3.938-4.13-6.29-4.13c-4.534,0-8.999,4.527-7.499,10.201c-0.015,0.059-0.004,0.098,0.032,0.119
			c0.533,1.98,1.302,3.869,2.38,5.584c5.919,1.805,12.835,2.496,20.798,2.02c3.652-0.219,7.036-0.641,10.153-1.262
			c0.201-0.172,0.314-0.275,0.314-0.281C56.846,54.975,57.523,53.828,58.088,52.582z"/>
		<path fill="#010101" d="M60.771,43.363l-0.008-0.07l-0.013-0.058c-0.636-5.163-3.783-10.681-9.235-10.682
			c-1.187,0-2.429,0.271-3.689,0.806c-0.086,0.037-0.171,0.075-0.255,0.115l-1.079-0.735c0.894-1.406,1.392-2.972,1.459-4.606
			c0.028,0.066,0.058,0.131,0.089,0.196c0.803,1.69,2.252,2.584,4.189,2.584c0.318,0,0.648-0.024,0.997-0.073
			c1.287,2.602,3.985,4.452,6.684,4.452c1.863,0,3.504-0.89,4.62-2.504c1.419-2.052,1.975-4.771,2.071-5.295l0.02-0.107
			c0.179-0.961,0.394-2.124,0.356-4.338c0.124-0.027,0.245-0.058,0.363-0.092c0.625-0.157,3.649-1.224,3.751-7.209l0.024-1.405
			l-1.404,0.052l-1.299,0.048l-2.312,0.11l-1.415,0.067l0.154,1.408c0.078,0.709,0.107,1.264,0.11,1.693
			c-1.367-1.266-3.367-2-5.635-2.001c-3.592,0-6.45,1.831-7.283,4.664c-0.216,0.731-0.285,1.666-0.301,1.938
			c-0.135,0.961-0.047,1.749,0.039,2.51c0.021,0.19,0.043,0.386,0.062,0.59l0.084,0.666c-0.083-0.245-0.168-0.543-0.251-0.835
			c-0.43-1.514-1.075-3.792-3.271-4.903c-0.773-0.392-1.667-0.59-2.656-0.59c-0.575,0-1.199,0.068-1.86,0.202
			c-0.645-0.479-1.342-0.888-2.087-1.224c3.513-0.795,6.571-3.222,6.523-6.902c0.004-0.143-0.008-0.287-0.02-0.434
			c-0.002-0.033-0.006-0.064-0.01-0.096c-0.215-2.153-1.788-4.325-4.42-4.366l-0.041,0l-0.041,0.002
			c-1.79,0.083-2.733,1.322-3.423,2.227c-0.458,0.603-0.757,0.968-1.031,0.968c-0.231,0-0.375-0.15-0.844-0.842
			c-0.606-0.896-1.521-2.249-3.53-2.435L33.775,6.75L33.74,6.916c-1.029,0.192-1.891,0.781-2.471,1.706
			c-1.139,1.815-1.003,4.59-0.214,6.224c0.732,1.399,1.937,2.395,3.277,3.062c-4.98,1.014-8.712,5.042-8.712,9.842
			c0,5.563,5.011,10.089,11.169,10.089c2.439,0,4.773-0.71,6.698-2.02c0.294,0.318,0.594,0.649,0.898,0.991
			c-0.577,1.175-0.939,2.46-1.292,3.71c-0.881,3.129-1.411,4.404-3.132,4.404c-0.057,0-0.113-0.002-0.172-0.004l-0.03-0.002h-0.03
			c-0.982,0-1.507-0.643-2.426-1.873l-0.002-0.002c-1.656-3.016-4.354-4.742-7.414-4.742c-2.744,0-5.435,1.367-7.199,3.658
			c-1.769,2.298-2.346,5.146-1.632,8.041c0.015,0.17,0.059,0.334,0.13,0.486c0.447,1.617,1.035,3.101,1.745,4.456
			c0.605,0.218,1.24,0.402,1.869,0.595c-1.078-1.715-1.847-3.604-2.38-5.584c-0.036-0.021-0.047-0.061-0.032-0.119
			c-1.5-5.674,2.965-10.201,7.499-10.201c2.353,0,4.724,1.219,6.29,4.13c0.953,1.276,1.82,2.487,3.552,2.487
			c0.079,0.004,0.156,0.006,0.232,0.006c4.441,0,3.792-6.072,6.046-9.623c-0.662-0.756-1.493-1.682-2.373-2.604
			c-1.77,1.53-4.182,2.477-6.846,2.477c-5.433,0-9.837-3.921-9.837-8.757s4.404-8.756,9.837-8.756c0.557,0,1.101,0.051,1.633,0.13
			c-0.034-0.512-0.072-1.034-0.108-1.468c-2.344-0.211-4.954-1.278-6.06-3.389c-0.881-1.824-0.767-6.089,2.246-6.088
			c0.106,0,0.217,0.005,0.33,0.016l0.002-0.009c2.627,0.243,2.464,3.283,4.465,3.283h0.032c1.963,0,2.241-3.09,4.516-3.196
			C45.657,8.3,46.828,9.85,46.966,11.5c-0.004-0.049-0.006-0.086-0.006-0.086s0.002,0.026,0.008,0.094
			c0.017,0.212,0.022,0.286,0.022,0.286s-0.014-0.165-0.022-0.277c0.284,3.77-3.467,5.818-6.772,6.13l-0.013,1.894
			c1.267,0.416,2.41,1.052,3.371,1.863c0.801-0.208,1.528-0.312,2.185-0.312c0.782,0,1.465,0.148,2.055,0.447
			c1.675,0.848,2.182,2.635,2.589,4.072c0.149,0.525,0.29,1.021,0.463,1.385c0.272,0.574,0.74,0.818,1.412,0.818
			c0.368,0,0.798-0.073,1.29-0.205c-0.118-0.512-0.222-1.027-0.292-1.549l-0.097-0.759c-0.094-1.012-0.255-1.808-0.101-2.846
			c0,0,0.049-1.005,0.252-1.694c0.729-2.48,3.368-3.708,6.006-3.708c2.416,0,4.831,1.03,5.775,3.071c0,0,0.105,0.056,0.253,0.056
			c0.436,0,1.238-0.484,0.82-4.297l2.297-0.11l1.299-0.048C69.668,21.13,67,21.667,67,21.667c-0.42,0.123-0.884,0.194-1.396,0.214
			c0.152,2.983-0.107,4.258-0.312,5.369c-0.205,1.11-0.789,3.235-1.857,4.78c-0.937,1.355-2.21,1.93-3.524,1.93
			c-2.44,0-5.022-1.979-5.856-4.618c-0.003-0.009-0.005-0.02-0.009-0.029c-0.596,0.157-1.216,0.268-1.815,0.268
			c-1.209,0-2.33-0.442-2.987-1.826c-0.237-0.498-0.397-1.063-0.567-1.662c-0.345-1.217-0.702-2.476-1.684-2.972
			c-0.339-0.171-0.761-0.255-1.259-0.255c-0.23,0-0.478,0.018-0.74,0.054c1.032,1.385,1.635,3.044,1.635,4.83
			c0,2-0.761,3.836-2.027,5.311l2.91,1.984c0.257-0.174,0.532-0.33,0.836-0.459c1.14-0.482,2.196-0.701,3.17-0.7
			c4.647,0,7.38,4.953,7.924,9.601c0.005,0.008,0.007,0.019,0.009,0.027c0.3,2.639,0.271,6.848-1.359,9.068
			c-0.565,1.246-1.242,2.393-2.021,3.434c0,0.006-0.113,0.109-0.314,0.281c0.688-0.138,1.36-0.287,2.021-0.443
			c0.542-0.824,1.049-1.682,1.473-2.602C61.358,50.227,60.949,44.931,60.771,43.363z"/>
	</g>
</g>
</svg>
