<?xml version="1.0" encoding="utf-8"?>
<!-- Generator: Adobe Illustrator 16.0.3, SVG Export Plug-In . SVG Version: 6.00 Build 0)  -->
<!DOCTYPE svg PUBLIC "-//W3C//DTD SVG 1.1//EN" "http://www.w3.org/Graphics/SVG/1.1/DTD/svg11.dtd">
<svg version="1.1" id="Layer_1" xmlns="http://www.w3.org/2000/svg" xmlns:xlink="http://www.w3.org/1999/xlink" x="0px" y="0px"
	 width="87px" height="68px" viewBox="0 0 87 68" enable-background="new 0 0 87 68" xml:space="preserve">
<g>
	<g opacity="0.05">
		<g>
			<path fill="#FFFFFF" d="M40.469,48.107c-2.648,0-7.286-0.035-8.602-0.27c-5.041-0.901-8.647-4.735-9.604-8.058
				c-0.694-2.411-0.956-6.208-0.683-9.909c0.344-4.632,1.663-9.62,13.038-10.167c2.695-0.13,5.812-0.199,9.015-0.199
				c3.966,0,7.809,0.101,11.114,0.292c10.938,0.629,11.584,8.564,11.603,10.148c0.037,3.112-0.631,8.792-0.804,9.72
				c-0.334,1.79-1.349,7.226-9.759,8.05C53.063,47.94,46.485,48.107,40.469,48.107z"/>
			<path fill="#010101" d="M43.634,20.533c3.939,0,7.763,0.1,11.055,0.291c10.028,0.577,10.619,7.711,10.636,9.135
				c0.035,3.001-0.624,8.645-0.787,9.521c-0.33,1.769-1.203,6.466-8.85,7.216c-2.693,0.221-9.236,0.386-15.219,0.386
				c-4.449,0-7.519-0.093-8.421-0.254C27.42,46,24.119,42.514,23.25,39.496c-0.663-2.303-0.91-5.962-0.646-9.549
				c0.325-4.386,1.523-8.71,12.063-9.217C37.344,20.602,40.445,20.533,43.634,20.533 M43.634,18.48c-3.219,0-6.354,0.069-9.064,0.2
				c-11.632,0.559-13.609,5.672-14.013,11.116c-0.286,3.872-0.017,7.71,0.72,10.269c1.013,3.516,4.702,7.764,10.41,8.784
				c1.324,0.236,5.506,0.286,8.782,0.286c6.04,0,12.655-0.169,15.387-0.393c6.122-0.601,9.711-3.588,10.699-8.884
				c0.178-0.951,0.86-6.749,0.822-9.923c-0.056-4.818-3.382-10.633-12.57-11.161C51.482,18.582,47.619,18.48,43.634,18.48
				L43.634,18.48z"/>
		</g>
	</g>
	<g>
		<path fill="#FFFFFF" d="M54.688,20.824c-3.292-0.19-7.115-0.291-11.055-0.291c-3.188,0-6.29,0.068-8.966,0.197
			c-10.54,0.506-11.738,4.831-12.063,9.217c-0.265,3.586-0.018,7.246,0.646,9.549c0.869,3.018,4.17,6.504,8.798,7.331
			c0.902,0.161,3.972,0.254,8.421,0.254c5.982,0,12.525-0.165,15.219-0.386c7.646-0.75,8.52-5.447,8.85-7.216
			c0.163-0.876,0.822-6.519,0.787-9.521C65.308,28.535,64.717,21.4,54.688,20.824z M44.137,42.524c-4.854,0-8.789-3.936-8.789-8.789
			c0-4.854,3.936-8.79,8.789-8.79s8.789,3.936,8.789,8.79C52.926,38.589,48.99,42.524,44.137,42.524z"/>
	</g>
	<g opacity="0.05">
		<path fill="#010101" d="M44.137,25.973c4.28,0,7.763,3.482,7.763,7.763s-3.482,7.763-7.763,7.763s-7.762-3.482-7.762-7.763
			S39.856,25.973,44.137,25.973 M44.137,24.946c-4.854,0-8.789,3.936-8.789,8.79c0,4.854,3.936,8.789,8.789,8.789
			s8.789-3.936,8.789-8.789C52.926,28.881,48.99,24.946,44.137,24.946L44.137,24.946z"/>
	</g>
	<path fill="#FFFFFF" d="M47.866,32.562c-0.161-0.152-3.972-3.739-4.96-4.08c-0.125-0.042-0.249-0.064-0.372-0.064
		c-0.492,0-0.883,0.348-0.993,0.887c-0.076,0.37-0.025,1.028,0.033,1.79c0.043,0.562,0.092,1.199,0.098,1.819
		c0.016,1.419-0.197,4.493-0.229,4.814c-0.042,0.402-0.018,0.722,0.074,0.978c0.153,0.426,0.461,0.515,0.69,0.515
		c0.196,0,0.419-0.063,0.664-0.188c0.601-0.309,5.198-3.646,5.491-3.945c0.299-0.305,0.433-0.749,0.359-1.186
		C48.629,33.346,47.877,32.572,47.866,32.562z"/>
	<g opacity="0.05">
		<path fill="#FFFFFF" d="M42.208,39.661c-0.518,0-0.921-0.294-1.106-0.807c-0.115-0.32-0.147-0.704-0.098-1.173
			c0.026-0.272,0.242-3.333,0.226-4.763c-0.006-0.608-0.054-1.232-0.096-1.784c-0.064-0.836-0.114-1.489-0.026-1.919
			c0.152-0.741,0.725-1.239,1.426-1.239c0.169,0,0.342,0.029,0.514,0.088c1.076,0.371,4.71,3.788,5.122,4.177
			c0.002,0.002,0.865,0.86,0.988,1.585c0.097,0.577-0.083,1.163-0.479,1.568c-0.315,0.322-4.954,3.695-5.605,4.029
			C42.765,39.582,42.474,39.661,42.208,39.661z"/>
		<path fill="#010101" d="M42.534,28.418c0.123,0,0.247,0.022,0.372,0.064c0.988,0.341,4.799,3.927,4.96,4.08
			c0.011,0.01,0.763,0.784,0.856,1.338c0.073,0.437-0.061,0.88-0.359,1.186c-0.293,0.299-4.891,3.637-5.491,3.945
			c-0.245,0.125-0.468,0.188-0.664,0.188c-0.229,0-0.537-0.089-0.69-0.515c-0.092-0.256-0.116-0.575-0.074-0.978
			c0.031-0.321,0.244-3.395,0.229-4.814c-0.006-0.62-0.055-1.257-0.098-1.819c-0.059-0.762-0.109-1.42-0.033-1.79
			C41.651,28.767,42.042,28.418,42.534,28.418 M42.534,27.535c-0.917,0-1.663,0.64-1.858,1.593c-0.101,0.49-0.049,1.17,0.018,2.031
			c0.042,0.556,0.09,1.174,0.095,1.763c0.015,1.347-0.191,4.378-0.224,4.72c-0.056,0.53-0.016,0.979,0.122,1.361
			c0.248,0.689,0.816,1.1,1.521,1.1c0.336,0,0.695-0.096,1.065-0.284c0.605-0.312,5.309-3.694,5.721-4.114
			c0.495-0.506,0.72-1.235,0.6-1.95c-0.151-0.892-1.124-1.836-1.134-1.846c-0.944-0.894-4.156-3.878-5.266-4.261
			C42.973,27.573,42.752,27.535,42.534,27.535L42.534,27.535z"/>
	</g>
</g>
</svg>
