<?xml version="1.0" encoding="utf-8"?>
<!-- Generator: Adobe Illustrator 16.0.4, SVG Export Plug-In . SVG Version: 6.00 Build 0)  -->
<!DOCTYPE svg PUBLIC "-//W3C//DTD SVG 1.1//EN" "http://www.w3.org/Graphics/SVG/1.1/DTD/svg11.dtd">
<svg version="1.1" id="video_icon" xmlns="http://www.w3.org/2000/svg" xmlns:xlink="http://www.w3.org/1999/xlink" x="0px" y="0px"
	 width="66px" height="42px" viewBox="0 0 66 42" enable-background="new 0 0 66 42" xml:space="preserve">
<g opacity="0.9">
	<g>
		<g>
			<path fill="#6A51C2" d="M29.212,36.729c-2.915,0-8.019-0.037-9.462-0.297c-5.545-0.99-9.512-5.209-10.564-8.863
				c-0.764-2.649-1.051-6.825-0.751-10.896c0.377-5.096,1.828-10.583,14.342-11.184c2.966-0.143,6.395-0.218,9.917-0.218
				c4.373,0,8.601,0.111,12.225,0.321c12.036,0.691,12.743,9.421,12.763,11.164c0.041,3.43-0.693,9.672-0.884,10.69
				c-0.368,1.971-1.483,7.949-10.733,8.854C43.062,36.546,35.826,36.729,29.212,36.729z"/>
			<path fill="#6A51C2" d="M32.693,6.399c4.333,0,8.538,0.109,12.159,0.319c11.032,0.635,11.683,8.482,11.7,10.05
				c0.039,3.302-0.686,9.509-0.864,10.472c-0.363,1.945-1.322,7.113-9.734,7.938c-2.963,0.242-10.16,0.424-16.74,0.424
				c-4.894,0-8.271-0.102-9.263-0.278c-5.091-0.91-8.722-4.744-9.678-8.064c-0.729-2.53-1.001-6.559-0.71-10.502
				c0.357-4.825,1.676-9.582,13.27-10.139C25.774,6.475,29.187,6.399,32.693,6.399 M32.693,4.141c-3.54,0-6.987,0.076-9.971,0.22
				C9.927,4.975,7.752,10.6,7.309,16.588C6.995,20.849,7.29,25.07,8.101,27.883c1.113,3.866,5.171,8.539,11.451,9.662
				c1.451,0.26,6.054,0.314,9.66,0.314c6.64,0,13.916-0.187,16.925-0.433c6.734-0.659,10.682-3.944,11.771-9.77
				c0.194-1.046,0.944-7.419,0.903-10.917c-0.06-5.299-3.717-11.696-13.828-12.277C41.338,4.252,37.088,4.141,32.693,4.141
				L32.693,4.141z"/>
		</g>
	</g>
	<g>
		<path fill="#FFFFFF" d="M44.854,6.719C41.232,6.509,37.027,6.4,32.694,6.4c-3.507,0-6.919,0.075-9.862,0.217
			C11.237,7.173,9.919,11.93,9.562,16.755c-0.291,3.943-0.02,7.972,0.71,10.502c0.956,3.32,4.587,7.154,9.678,8.063
			c0.992,0.179,4.369,0.279,9.263,0.279c6.58,0,13.777-0.182,16.74-0.424c8.412-0.824,9.371-5.992,9.734-7.938
			c0.18-0.963,0.903-7.17,0.864-10.472C56.534,15.2,55.884,7.353,44.854,6.719z M33.247,30.589c-5.339,0-9.668-4.328-9.668-9.668
			c0-5.339,4.329-9.668,9.668-9.668c5.338,0,9.668,4.329,9.668,9.668C42.915,26.261,38.585,30.589,33.247,30.589z"/>
	</g>
	<path fill="#FFFFFF" d="M37.262,19.63c-0.178-0.166-4.369-4.111-5.456-4.486c-0.138-0.047-0.274-0.07-0.409-0.07
		c-0.542,0-0.972,0.383-1.093,0.975c-0.084,0.407-0.028,1.131,0.036,1.969c0.048,0.618,0.102,1.318,0.107,2
		c0.018,1.561-0.217,4.941-0.251,5.294c-0.046,0.443-0.02,0.795,0.082,1.076c0.168,0.469,0.507,0.566,0.759,0.566
		c0.216,0,0.461-0.07,0.73-0.207c0.661-0.34,5.717-4.012,6.042-4.34c0.328-0.336,0.477-0.824,0.395-1.305
		C38.102,20.493,37.273,19.642,37.262,19.63z"/>
	<g opacity="0.05">
		<path fill="#FFFFFF" d="M37.262,19.63c-0.178-0.166-4.369-4.111-5.456-4.486c-0.138-0.047-0.274-0.07-0.409-0.07
			c-0.542,0-0.972,0.383-1.093,0.975c-0.084,0.407-0.028,1.131,0.036,1.969c0.048,0.618,0.102,1.318,0.107,2
			c0.018,1.561-0.217,4.941-0.251,5.294c-0.046,0.443-0.02,0.795,0.082,1.076c0.168,0.469,0.507,0.566,0.759,0.566
			c0.216,0,0.461-0.07,0.73-0.207c0.661-0.34,5.717-4.012,6.042-4.34c0.328-0.336,0.477-0.824,0.395-1.305
			C38.102,20.493,37.273,19.642,37.262,19.63z"/>
	</g>
</g>
</svg>
