<?xml version="1.0" encoding="utf-8"?>
<!-- Generator: Adobe Illustrator 14.0.0, SVG Export Plug-In . SVG Version: 6.00 Build 43363)  -->
<!DOCTYPE svg PUBLIC "-//W3C//DTD SVG 1.1//EN" "http://www.w3.org/Graphics/SVG/1.1/DTD/svg11.dtd">
<svg version="1.1" id="Layer_1" xmlns="http://www.w3.org/2000/svg" xmlns:xlink="http://www.w3.org/1999/xlink" x="0px" y="0px"
	 width="100px" height="100px" viewBox="0 0 100 100" enable-background="new 0 0 100 100" xml:space="preserve">
<path fill="#489919" d="M89.85,26.751c8.948,37.084,3.194,44.754-3.835,44.754c-7.036,0-4.478-41.56-31.33-40.921
	c-24.54,0.588-29.325,28.922-33.869,33.812C12.73,46.507,17.603,10.13,17.603,10.13S16.323-3.292,5.455,2.455
	c-10.87,5.759-2.068,13.232,5.042,10.455C8.011,24.474,8.014,46.882,8.014,46.882c2.197,16.031,3.81,27.184,13.119,34.366
	l1.581,15.832h5.755l-1.779-12.456c2.06,0.981,4.37,1.858,6.986,2.634C33.995,92.782,34.221,99,34.221,99l4.479-0.637l0.363-9.753
	c4.134,0.883,8.88,1.569,14.34,2.082c5.764,0.535,10.855,0.615,15.346,0.313v6.077l5.113,0.642v-7.275
	c1.738-0.265,3.372-0.591,4.9-0.979l-0.425,8.893h7.029L84.99,87.303C115.473,73.389,89.85,26.751,89.85,26.751z"/>
</svg>
